<?xml version="1.0" encoding="utf-8" standalone="no"?>
<!DOCTYPE svg PUBLIC "-//W3C//DTD SVG 1.1//EN"
  "http://www.w3.org/Graphics/SVG/1.1/DTD/svg11.dtd">
<!-- Created with matplotlib (https://matplotlib.org/) -->
<svg height="531.785pt" version="1.1" viewBox="0 0 1021.84 531.785" width="1021.84pt" xmlns="http://www.w3.org/2000/svg" xmlns:xlink="http://www.w3.org/1999/xlink">
 <defs>
  <style type="text/css">
*{stroke-linecap:butt;stroke-linejoin:round;}
  </style>
 </defs>
 <g id="figure_1">
  <g id="patch_1">
   <path d="M 0 531.785 
L 1021.84 531.785 
L 1021.84 0 
L 0 0 
z
" style="fill:#ffffff;"/>
  </g>
  <g id="axes_1">
   <g id="patch_2">
    <path d="M 116.84 455.72 
L 1009.64 455.72 
L 1009.64 12.2 
L 116.84 12.2 
z
" style="fill:#ffffff;"/>
   </g>
   <g id="matplotlib.axis_1">
    <g id="xtick_1">
     <g id="line2d_1">
      <defs>
       <path d="M 0 5 
L 0 -5 
" id="mc9f5cba62d" style="stroke:#525252;stroke-width:4;"/>
      </defs>
      <g>
       <use style="fill:#525252;stroke:#525252;stroke-width:4;" x="116.84" xlink:href="#mc9f5cba62d" y="455.72"/>
      </g>
     </g>
     <g id="text_1">
      <!-- $\mathdefault{10^{1}}$ -->
      <defs>
       <path d="M 12.40625 8.296875 
L 28.515625 8.296875 
L 28.515625 63.921875 
L 10.984375 60.40625 
L 10.984375 69.390625 
L 28.421875 72.90625 
L 38.28125 72.90625 
L 38.28125 8.296875 
L 54.390625 8.296875 
L 54.390625 0 
L 12.40625 0 
z
" id="DejaVuSans-49"/>
       <path d="M 31.78125 66.40625 
Q 24.171875 66.40625 20.328125 58.90625 
Q 16.5 51.421875 16.5 36.375 
Q 16.5 21.390625 20.328125 13.890625 
Q 24.171875 6.390625 31.78125 6.390625 
Q 39.453125 6.390625 43.28125 13.890625 
Q 47.125 21.390625 47.125 36.375 
Q 47.125 51.421875 43.28125 58.90625 
Q 39.453125 66.40625 31.78125 66.40625 
z
M 31.78125 74.21875 
Q 44.046875 74.21875 50.515625 64.515625 
Q 56.984375 54.828125 56.984375 36.375 
Q 56.984375 17.96875 50.515625 8.265625 
Q 44.046875 -1.421875 31.78125 -1.421875 
Q 19.53125 -1.421875 13.0625 8.265625 
Q 6.59375 17.96875 6.59375 36.375 
Q 6.59375 54.828125 13.0625 64.515625 
Q 19.53125 74.21875 31.78125 74.21875 
z
" id="DejaVuSans-48"/>
      </defs>
      <g transform="translate(95.72 482.45625)scale(0.24 -0.24)">
       <use transform="translate(0 0.684375)" xlink:href="#DejaVuSans-49"/>
       <use transform="translate(63.623047 0.684375)" xlink:href="#DejaVuSans-48"/>
       <use transform="translate(128.203125 38.965625)scale(0.7)" xlink:href="#DejaVuSans-49"/>
      </g>
     </g>
    </g>
    <g id="xtick_2">
     <g id="line2d_2">
      <g>
       <use style="fill:#525252;stroke:#525252;stroke-width:4;" x="315.24" xlink:href="#mc9f5cba62d" y="455.72"/>
      </g>
     </g>
     <g id="text_2">
      <!-- $\mathdefault{10^{3}}$ -->
      <defs>
       <path d="M 40.578125 39.3125 
Q 47.65625 37.796875 51.625 33 
Q 55.609375 28.21875 55.609375 21.1875 
Q 55.609375 10.40625 48.1875 4.484375 
Q 40.765625 -1.421875 27.09375 -1.421875 
Q 22.515625 -1.421875 17.65625 -0.515625 
Q 12.796875 0.390625 7.625 2.203125 
L 7.625 11.71875 
Q 11.71875 9.328125 16.59375 8.109375 
Q 21.484375 6.890625 26.8125 6.890625 
Q 36.078125 6.890625 40.9375 10.546875 
Q 45.796875 14.203125 45.796875 21.1875 
Q 45.796875 27.640625 41.28125 31.265625 
Q 36.765625 34.90625 28.71875 34.90625 
L 20.21875 34.90625 
L 20.21875 43.015625 
L 29.109375 43.015625 
Q 36.375 43.015625 40.234375 45.921875 
Q 44.09375 48.828125 44.09375 54.296875 
Q 44.09375 59.90625 40.109375 62.90625 
Q 36.140625 65.921875 28.71875 65.921875 
Q 24.65625 65.921875 20.015625 65.03125 
Q 15.375 64.15625 9.8125 62.3125 
L 9.8125 71.09375 
Q 15.4375 72.65625 20.34375 73.4375 
Q 25.25 74.21875 29.59375 74.21875 
Q 40.828125 74.21875 47.359375 69.109375 
Q 53.90625 64.015625 53.90625 55.328125 
Q 53.90625 49.265625 50.4375 45.09375 
Q 46.96875 40.921875 40.578125 39.3125 
z
" id="DejaVuSans-51"/>
      </defs>
      <g transform="translate(294.12 482.45625)scale(0.24 -0.24)">
       <use transform="translate(0 0.765625)" xlink:href="#DejaVuSans-49"/>
       <use transform="translate(63.623047 0.765625)" xlink:href="#DejaVuSans-48"/>
       <use transform="translate(128.203125 39.046875)scale(0.7)" xlink:href="#DejaVuSans-51"/>
      </g>
     </g>
    </g>
    <g id="xtick_3">
     <g id="line2d_3">
      <g>
       <use style="fill:#525252;stroke:#525252;stroke-width:4;" x="513.64" xlink:href="#mc9f5cba62d" y="455.72"/>
      </g>
     </g>
     <g id="text_3">
      <!-- $\mathdefault{10^{5}}$ -->
      <defs>
       <path d="M 10.796875 72.90625 
L 49.515625 72.90625 
L 49.515625 64.59375 
L 19.828125 64.59375 
L 19.828125 46.734375 
Q 21.96875 47.46875 24.109375 47.828125 
Q 26.265625 48.1875 28.421875 48.1875 
Q 40.625 48.1875 47.75 41.5 
Q 54.890625 34.8125 54.890625 23.390625 
Q 54.890625 11.625 47.5625 5.09375 
Q 40.234375 -1.421875 26.90625 -1.421875 
Q 22.3125 -1.421875 17.546875 -0.640625 
Q 12.796875 0.140625 7.71875 1.703125 
L 7.71875 11.625 
Q 12.109375 9.234375 16.796875 8.0625 
Q 21.484375 6.890625 26.703125 6.890625 
Q 35.15625 6.890625 40.078125 11.328125 
Q 45.015625 15.765625 45.015625 23.390625 
Q 45.015625 31 40.078125 35.4375 
Q 35.15625 39.890625 26.703125 39.890625 
Q 22.75 39.890625 18.8125 39.015625 
Q 14.890625 38.140625 10.796875 36.28125 
z
" id="DejaVuSans-53"/>
      </defs>
      <g transform="translate(492.52 482.45625)scale(0.24 -0.24)">
       <use transform="translate(0 0.684375)" xlink:href="#DejaVuSans-49"/>
       <use transform="translate(63.623047 0.684375)" xlink:href="#DejaVuSans-48"/>
       <use transform="translate(128.203125 38.965625)scale(0.7)" xlink:href="#DejaVuSans-53"/>
      </g>
     </g>
    </g>
    <g id="xtick_4">
     <g id="line2d_4">
      <g>
       <use style="fill:#525252;stroke:#525252;stroke-width:4;" x="712.04" xlink:href="#mc9f5cba62d" y="455.72"/>
      </g>
     </g>
     <g id="text_4">
      <!-- $\mathdefault{10^{7}}$ -->
      <defs>
       <path d="M 8.203125 72.90625 
L 55.078125 72.90625 
L 55.078125 68.703125 
L 28.609375 0 
L 18.3125 0 
L 43.21875 64.59375 
L 8.203125 64.59375 
z
" id="DejaVuSans-55"/>
      </defs>
      <g transform="translate(690.92 482.45625)scale(0.24 -0.24)">
       <use transform="translate(0 0.684375)" xlink:href="#DejaVuSans-49"/>
       <use transform="translate(63.623047 0.684375)" xlink:href="#DejaVuSans-48"/>
       <use transform="translate(128.203125 38.965625)scale(0.7)" xlink:href="#DejaVuSans-55"/>
      </g>
     </g>
    </g>
    <g id="xtick_5">
     <g id="line2d_5">
      <g>
       <use style="fill:#525252;stroke:#525252;stroke-width:4;" x="910.44" xlink:href="#mc9f5cba62d" y="455.72"/>
      </g>
     </g>
     <g id="text_5">
      <!-- $\mathdefault{10^{9}}$ -->
      <defs>
       <path d="M 10.984375 1.515625 
L 10.984375 10.5 
Q 14.703125 8.734375 18.5 7.8125 
Q 22.3125 6.890625 25.984375 6.890625 
Q 35.75 6.890625 40.890625 13.453125 
Q 46.046875 20.015625 46.78125 33.40625 
Q 43.953125 29.203125 39.59375 26.953125 
Q 35.25 24.703125 29.984375 24.703125 
Q 19.046875 24.703125 12.671875 31.3125 
Q 6.296875 37.9375 6.296875 49.421875 
Q 6.296875 60.640625 12.9375 67.421875 
Q 19.578125 74.21875 30.609375 74.21875 
Q 43.265625 74.21875 49.921875 64.515625 
Q 56.59375 54.828125 56.59375 36.375 
Q 56.59375 19.140625 48.40625 8.859375 
Q 40.234375 -1.421875 26.421875 -1.421875 
Q 22.703125 -1.421875 18.890625 -0.6875 
Q 15.09375 0.046875 10.984375 1.515625 
z
M 30.609375 32.421875 
Q 37.25 32.421875 41.125 36.953125 
Q 45.015625 41.5 45.015625 49.421875 
Q 45.015625 57.28125 41.125 61.84375 
Q 37.25 66.40625 30.609375 66.40625 
Q 23.96875 66.40625 20.09375 61.84375 
Q 16.21875 57.28125 16.21875 49.421875 
Q 16.21875 41.5 20.09375 36.953125 
Q 23.96875 32.421875 30.609375 32.421875 
z
" id="DejaVuSans-57"/>
      </defs>
      <g transform="translate(889.32 482.45625)scale(0.24 -0.24)">
       <use transform="translate(0 0.765625)" xlink:href="#DejaVuSans-49"/>
       <use transform="translate(63.623047 0.765625)" xlink:href="#DejaVuSans-48"/>
       <use transform="translate(128.203125 39.046875)scale(0.7)" xlink:href="#DejaVuSans-57"/>
      </g>
     </g>
    </g>
    <g id="text_6">
     <!-- Time (ms) -->
     <defs>
      <path d="M -0.296875 72.90625 
L 61.375 72.90625 
L 61.375 64.59375 
L 35.5 64.59375 
L 35.5 0 
L 25.59375 0 
L 25.59375 64.59375 
L -0.296875 64.59375 
z
" id="DejaVuSans-84"/>
      <path d="M 9.421875 54.6875 
L 18.40625 54.6875 
L 18.40625 0 
L 9.421875 0 
z
M 9.421875 75.984375 
L 18.40625 75.984375 
L 18.40625 64.59375 
L 9.421875 64.59375 
z
" id="DejaVuSans-105"/>
      <path d="M 52 44.1875 
Q 55.375 50.25 60.0625 53.125 
Q 64.75 56 71.09375 56 
Q 79.640625 56 84.28125 50.015625 
Q 88.921875 44.046875 88.921875 33.015625 
L 88.921875 0 
L 79.890625 0 
L 79.890625 32.71875 
Q 79.890625 40.578125 77.09375 44.375 
Q 74.3125 48.1875 68.609375 48.1875 
Q 61.625 48.1875 57.5625 43.546875 
Q 53.515625 38.921875 53.515625 30.90625 
L 53.515625 0 
L 44.484375 0 
L 44.484375 32.71875 
Q 44.484375 40.625 41.703125 44.40625 
Q 38.921875 48.1875 33.109375 48.1875 
Q 26.21875 48.1875 22.15625 43.53125 
Q 18.109375 38.875 18.109375 30.90625 
L 18.109375 0 
L 9.078125 0 
L 9.078125 54.6875 
L 18.109375 54.6875 
L 18.109375 46.1875 
Q 21.1875 51.21875 25.484375 53.609375 
Q 29.78125 56 35.6875 56 
Q 41.65625 56 45.828125 52.96875 
Q 50 49.953125 52 44.1875 
z
" id="DejaVuSans-109"/>
      <path d="M 56.203125 29.59375 
L 56.203125 25.203125 
L 14.890625 25.203125 
Q 15.484375 15.921875 20.484375 11.0625 
Q 25.484375 6.203125 34.421875 6.203125 
Q 39.59375 6.203125 44.453125 7.46875 
Q 49.3125 8.734375 54.109375 11.28125 
L 54.109375 2.78125 
Q 49.265625 0.734375 44.1875 -0.34375 
Q 39.109375 -1.421875 33.890625 -1.421875 
Q 20.796875 -1.421875 13.15625 6.1875 
Q 5.515625 13.8125 5.515625 26.8125 
Q 5.515625 40.234375 12.765625 48.109375 
Q 20.015625 56 32.328125 56 
Q 43.359375 56 49.78125 48.890625 
Q 56.203125 41.796875 56.203125 29.59375 
z
M 47.21875 32.234375 
Q 47.125 39.59375 43.09375 43.984375 
Q 39.0625 48.390625 32.421875 48.390625 
Q 24.90625 48.390625 20.390625 44.140625 
Q 15.875 39.890625 15.1875 32.171875 
z
" id="DejaVuSans-101"/>
      <path id="DejaVuSans-32"/>
      <path d="M 31 75.875 
Q 24.46875 64.65625 21.28125 53.65625 
Q 18.109375 42.671875 18.109375 31.390625 
Q 18.109375 20.125 21.3125 9.0625 
Q 24.515625 -2 31 -13.1875 
L 23.1875 -13.1875 
Q 15.875 -1.703125 12.234375 9.375 
Q 8.59375 20.453125 8.59375 31.390625 
Q 8.59375 42.28125 12.203125 53.3125 
Q 15.828125 64.359375 23.1875 75.875 
z
" id="DejaVuSans-40"/>
      <path d="M 44.28125 53.078125 
L 44.28125 44.578125 
Q 40.484375 46.53125 36.375 47.5 
Q 32.28125 48.484375 27.875 48.484375 
Q 21.1875 48.484375 17.84375 46.4375 
Q 14.5 44.390625 14.5 40.28125 
Q 14.5 37.15625 16.890625 35.375 
Q 19.28125 33.59375 26.515625 31.984375 
L 29.59375 31.296875 
Q 39.15625 29.25 43.1875 25.515625 
Q 47.21875 21.78125 47.21875 15.09375 
Q 47.21875 7.46875 41.1875 3.015625 
Q 35.15625 -1.421875 24.609375 -1.421875 
Q 20.21875 -1.421875 15.453125 -0.5625 
Q 10.6875 0.296875 5.421875 2 
L 5.421875 11.28125 
Q 10.40625 8.6875 15.234375 7.390625 
Q 20.0625 6.109375 24.8125 6.109375 
Q 31.15625 6.109375 34.5625 8.28125 
Q 37.984375 10.453125 37.984375 14.40625 
Q 37.984375 18.0625 35.515625 20.015625 
Q 33.0625 21.96875 24.703125 23.78125 
L 21.578125 24.515625 
Q 13.234375 26.265625 9.515625 29.90625 
Q 5.8125 33.546875 5.8125 39.890625 
Q 5.8125 47.609375 11.28125 51.796875 
Q 16.75 56 26.8125 56 
Q 31.78125 56 36.171875 55.265625 
Q 40.578125 54.546875 44.28125 53.078125 
z
" id="DejaVuSans-115"/>
      <path d="M 8.015625 75.875 
L 15.828125 75.875 
Q 23.140625 64.359375 26.78125 53.3125 
Q 30.421875 42.28125 30.421875 31.390625 
Q 30.421875 20.453125 26.78125 9.375 
Q 23.140625 -1.703125 15.828125 -13.1875 
L 8.015625 -13.1875 
Q 14.5 -2 17.703125 9.0625 
Q 20.90625 20.125 20.90625 31.390625 
Q 20.90625 42.671875 17.703125 53.65625 
Q 14.5 64.65625 8.015625 75.875 
z
" id="DejaVuSans-41"/>
     </defs>
     <g transform="translate(482.11 515.7625)scale(0.32 -0.32)">
      <use xlink:href="#DejaVuSans-84"/>
      <use x="61.037109" xlink:href="#DejaVuSans-105"/>
      <use x="88.820312" xlink:href="#DejaVuSans-109"/>
      <use x="186.232422" xlink:href="#DejaVuSans-101"/>
      <use x="247.755859" xlink:href="#DejaVuSans-32"/>
      <use x="279.542969" xlink:href="#DejaVuSans-40"/>
      <use x="318.556641" xlink:href="#DejaVuSans-109"/>
      <use x="415.96875" xlink:href="#DejaVuSans-115"/>
      <use x="468.068359" xlink:href="#DejaVuSans-41"/>
     </g>
    </g>
   </g>
   <g id="matplotlib.axis_2">
    <g id="ytick_1">
     <g id="line2d_6">
      <defs>
       <path d="M 5 0 
L -5 -0 
" id="m3fe7eb9d24" style="stroke:#525252;stroke-width:4;"/>
      </defs>
      <g>
       <use style="fill:#525252;stroke:#525252;stroke-width:4;" x="116.84" xlink:href="#m3fe7eb9d24" y="435.56"/>
      </g>
     </g>
     <g id="text_7">
      <!-- 0 -->
      <g transform="translate(91.7975 445.437969)scale(0.26 -0.26)">
       <use xlink:href="#DejaVuSans-48"/>
      </g>
     </g>
    </g>
    <g id="ytick_2">
     <g id="line2d_7">
      <g>
       <use style="fill:#525252;stroke:#525252;stroke-width:4;" x="116.84" xlink:href="#m3fe7eb9d24" y="352.180298"/>
      </g>
     </g>
     <g id="text_8">
      <!-- 200 -->
      <defs>
       <path d="M 19.1875 8.296875 
L 53.609375 8.296875 
L 53.609375 0 
L 7.328125 0 
L 7.328125 8.296875 
Q 12.9375 14.109375 22.625 23.890625 
Q 32.328125 33.6875 34.8125 36.53125 
Q 39.546875 41.84375 41.421875 45.53125 
Q 43.3125 49.21875 43.3125 52.78125 
Q 43.3125 58.59375 39.234375 62.25 
Q 35.15625 65.921875 28.609375 65.921875 
Q 23.96875 65.921875 18.8125 64.3125 
Q 13.671875 62.703125 7.8125 59.421875 
L 7.8125 69.390625 
Q 13.765625 71.78125 18.9375 73 
Q 24.125 74.21875 28.421875 74.21875 
Q 39.75 74.21875 46.484375 68.546875 
Q 53.21875 62.890625 53.21875 53.421875 
Q 53.21875 48.921875 51.53125 44.890625 
Q 49.859375 40.875 45.40625 35.40625 
Q 44.1875 33.984375 37.640625 27.21875 
Q 31.109375 20.453125 19.1875 8.296875 
z
" id="DejaVuSans-50"/>
      </defs>
      <g transform="translate(58.7125 362.058267)scale(0.26 -0.26)">
       <use xlink:href="#DejaVuSans-50"/>
       <use x="63.623047" xlink:href="#DejaVuSans-48"/>
       <use x="127.246094" xlink:href="#DejaVuSans-48"/>
      </g>
     </g>
    </g>
    <g id="ytick_3">
     <g id="line2d_8">
      <g>
       <use style="fill:#525252;stroke:#525252;stroke-width:4;" x="116.84" xlink:href="#m3fe7eb9d24" y="268.800596"/>
      </g>
     </g>
     <g id="text_9">
      <!-- 400 -->
      <defs>
       <path d="M 37.796875 64.3125 
L 12.890625 25.390625 
L 37.796875 25.390625 
z
M 35.203125 72.90625 
L 47.609375 72.90625 
L 47.609375 25.390625 
L 58.015625 25.390625 
L 58.015625 17.1875 
L 47.609375 17.1875 
L 47.609375 0 
L 37.796875 0 
L 37.796875 17.1875 
L 4.890625 17.1875 
L 4.890625 26.703125 
z
" id="DejaVuSans-52"/>
      </defs>
      <g transform="translate(58.7125 278.678565)scale(0.26 -0.26)">
       <use xlink:href="#DejaVuSans-52"/>
       <use x="63.623047" xlink:href="#DejaVuSans-48"/>
       <use x="127.246094" xlink:href="#DejaVuSans-48"/>
      </g>
     </g>
    </g>
    <g id="ytick_4">
     <g id="line2d_9">
      <g>
       <use style="fill:#525252;stroke:#525252;stroke-width:4;" x="116.84" xlink:href="#m3fe7eb9d24" y="185.420894"/>
      </g>
     </g>
     <g id="text_10">
      <!-- 600 -->
      <defs>
       <path d="M 33.015625 40.375 
Q 26.375 40.375 22.484375 35.828125 
Q 18.609375 31.296875 18.609375 23.390625 
Q 18.609375 15.53125 22.484375 10.953125 
Q 26.375 6.390625 33.015625 6.390625 
Q 39.65625 6.390625 43.53125 10.953125 
Q 47.40625 15.53125 47.40625 23.390625 
Q 47.40625 31.296875 43.53125 35.828125 
Q 39.65625 40.375 33.015625 40.375 
z
M 52.59375 71.296875 
L 52.59375 62.3125 
Q 48.875 64.0625 45.09375 64.984375 
Q 41.3125 65.921875 37.59375 65.921875 
Q 27.828125 65.921875 22.671875 59.328125 
Q 17.53125 52.734375 16.796875 39.40625 
Q 19.671875 43.65625 24.015625 45.921875 
Q 28.375 48.1875 33.59375 48.1875 
Q 44.578125 48.1875 50.953125 41.515625 
Q 57.328125 34.859375 57.328125 23.390625 
Q 57.328125 12.15625 50.6875 5.359375 
Q 44.046875 -1.421875 33.015625 -1.421875 
Q 20.359375 -1.421875 13.671875 8.265625 
Q 6.984375 17.96875 6.984375 36.375 
Q 6.984375 53.65625 15.1875 63.9375 
Q 23.390625 74.21875 37.203125 74.21875 
Q 40.921875 74.21875 44.703125 73.484375 
Q 48.484375 72.75 52.59375 71.296875 
z
" id="DejaVuSans-54"/>
      </defs>
      <g transform="translate(58.7125 195.298863)scale(0.26 -0.26)">
       <use xlink:href="#DejaVuSans-54"/>
       <use x="63.623047" xlink:href="#DejaVuSans-48"/>
       <use x="127.246094" xlink:href="#DejaVuSans-48"/>
      </g>
     </g>
    </g>
    <g id="ytick_5">
     <g id="line2d_10">
      <g>
       <use style="fill:#525252;stroke:#525252;stroke-width:4;" x="116.84" xlink:href="#m3fe7eb9d24" y="102.041192"/>
      </g>
     </g>
     <g id="text_11">
      <!-- 800 -->
      <defs>
       <path d="M 31.78125 34.625 
Q 24.75 34.625 20.71875 30.859375 
Q 16.703125 27.09375 16.703125 20.515625 
Q 16.703125 13.921875 20.71875 10.15625 
Q 24.75 6.390625 31.78125 6.390625 
Q 38.8125 6.390625 42.859375 10.171875 
Q 46.921875 13.96875 46.921875 20.515625 
Q 46.921875 27.09375 42.890625 30.859375 
Q 38.875 34.625 31.78125 34.625 
z
M 21.921875 38.8125 
Q 15.578125 40.375 12.03125 44.71875 
Q 8.5 49.078125 8.5 55.328125 
Q 8.5 64.0625 14.71875 69.140625 
Q 20.953125 74.21875 31.78125 74.21875 
Q 42.671875 74.21875 48.875 69.140625 
Q 55.078125 64.0625 55.078125 55.328125 
Q 55.078125 49.078125 51.53125 44.71875 
Q 48 40.375 41.703125 38.8125 
Q 48.828125 37.15625 52.796875 32.3125 
Q 56.78125 27.484375 56.78125 20.515625 
Q 56.78125 9.90625 50.3125 4.234375 
Q 43.84375 -1.421875 31.78125 -1.421875 
Q 19.734375 -1.421875 13.25 4.234375 
Q 6.78125 9.90625 6.78125 20.515625 
Q 6.78125 27.484375 10.78125 32.3125 
Q 14.796875 37.15625 21.921875 38.8125 
z
M 18.3125 54.390625 
Q 18.3125 48.734375 21.84375 45.5625 
Q 25.390625 42.390625 31.78125 42.390625 
Q 38.140625 42.390625 41.71875 45.5625 
Q 45.3125 48.734375 45.3125 54.390625 
Q 45.3125 60.0625 41.71875 63.234375 
Q 38.140625 66.40625 31.78125 66.40625 
Q 25.390625 66.40625 21.84375 63.234375 
Q 18.3125 60.0625 18.3125 54.390625 
z
" id="DejaVuSans-56"/>
      </defs>
      <g transform="translate(58.7125 111.919161)scale(0.26 -0.26)">
       <use xlink:href="#DejaVuSans-56"/>
       <use x="63.623047" xlink:href="#DejaVuSans-48"/>
       <use x="127.246094" xlink:href="#DejaVuSans-48"/>
      </g>
     </g>
    </g>
    <g id="ytick_6">
     <g id="line2d_11">
      <g>
       <use style="fill:#525252;stroke:#525252;stroke-width:4;" x="116.84" xlink:href="#m3fe7eb9d24" y="18.66149"/>
      </g>
     </g>
     <g id="text_12">
      <!-- 1000 -->
      <g transform="translate(42.17 28.539459)scale(0.26 -0.26)">
       <use xlink:href="#DejaVuSans-49"/>
       <use x="63.623047" xlink:href="#DejaVuSans-48"/>
       <use x="127.246094" xlink:href="#DejaVuSans-48"/>
       <use x="190.869141" xlink:href="#DejaVuSans-48"/>
      </g>
     </g>
    </g>
    <g id="text_13">
     <!-- Error % -->
     <defs>
      <path d="M 9.8125 72.90625 
L 55.90625 72.90625 
L 55.90625 64.59375 
L 19.671875 64.59375 
L 19.671875 43.015625 
L 54.390625 43.015625 
L 54.390625 34.71875 
L 19.671875 34.71875 
L 19.671875 8.296875 
L 56.78125 8.296875 
L 56.78125 0 
L 9.8125 0 
z
" id="DejaVuSans-69"/>
      <path d="M 41.109375 46.296875 
Q 39.59375 47.171875 37.8125 47.578125 
Q 36.03125 48 33.890625 48 
Q 26.265625 48 22.1875 43.046875 
Q 18.109375 38.09375 18.109375 28.8125 
L 18.109375 0 
L 9.078125 0 
L 9.078125 54.6875 
L 18.109375 54.6875 
L 18.109375 46.1875 
Q 20.953125 51.171875 25.484375 53.578125 
Q 30.03125 56 36.53125 56 
Q 37.453125 56 38.578125 55.875 
Q 39.703125 55.765625 41.0625 55.515625 
z
" id="DejaVuSans-114"/>
      <path d="M 30.609375 48.390625 
Q 23.390625 48.390625 19.1875 42.75 
Q 14.984375 37.109375 14.984375 27.296875 
Q 14.984375 17.484375 19.15625 11.84375 
Q 23.34375 6.203125 30.609375 6.203125 
Q 37.796875 6.203125 41.984375 11.859375 
Q 46.1875 17.53125 46.1875 27.296875 
Q 46.1875 37.015625 41.984375 42.703125 
Q 37.796875 48.390625 30.609375 48.390625 
z
M 30.609375 56 
Q 42.328125 56 49.015625 48.375 
Q 55.71875 40.765625 55.71875 27.296875 
Q 55.71875 13.875 49.015625 6.21875 
Q 42.328125 -1.421875 30.609375 -1.421875 
Q 18.84375 -1.421875 12.171875 6.21875 
Q 5.515625 13.875 5.515625 27.296875 
Q 5.515625 40.765625 12.171875 48.375 
Q 18.84375 56 30.609375 56 
z
" id="DejaVuSans-111"/>
      <path d="M 72.703125 32.078125 
Q 68.453125 32.078125 66.03125 28.46875 
Q 63.625 24.859375 63.625 18.40625 
Q 63.625 12.0625 66.03125 8.421875 
Q 68.453125 4.78125 72.703125 4.78125 
Q 76.859375 4.78125 79.265625 8.421875 
Q 81.6875 12.0625 81.6875 18.40625 
Q 81.6875 24.8125 79.265625 28.4375 
Q 76.859375 32.078125 72.703125 32.078125 
z
M 72.703125 38.28125 
Q 80.421875 38.28125 84.953125 32.90625 
Q 89.5 27.546875 89.5 18.40625 
Q 89.5 9.28125 84.9375 3.921875 
Q 80.375 -1.421875 72.703125 -1.421875 
Q 64.890625 -1.421875 60.34375 3.921875 
Q 55.8125 9.28125 55.8125 18.40625 
Q 55.8125 27.59375 60.375 32.9375 
Q 64.9375 38.28125 72.703125 38.28125 
z
M 22.3125 68.015625 
Q 18.109375 68.015625 15.6875 64.375 
Q 13.28125 60.75 13.28125 54.390625 
Q 13.28125 47.953125 15.671875 44.328125 
Q 18.0625 40.71875 22.3125 40.71875 
Q 26.5625 40.71875 28.96875 44.328125 
Q 31.390625 47.953125 31.390625 54.390625 
Q 31.390625 60.6875 28.953125 64.34375 
Q 26.515625 68.015625 22.3125 68.015625 
z
M 66.40625 74.21875 
L 74.21875 74.21875 
L 28.609375 -1.421875 
L 20.796875 -1.421875 
z
M 22.3125 74.21875 
Q 30.03125 74.21875 34.609375 68.875 
Q 39.203125 63.53125 39.203125 54.390625 
Q 39.203125 45.171875 34.640625 39.84375 
Q 30.078125 34.515625 22.3125 34.515625 
Q 14.546875 34.515625 10.03125 39.859375 
Q 5.515625 45.21875 5.515625 54.390625 
Q 5.515625 63.484375 10.046875 68.84375 
Q 14.59375 74.21875 22.3125 74.21875 
z
" id="DejaVuSans-37"/>
     </defs>
     <g transform="translate(31.515 293.8725)rotate(-90)scale(0.32 -0.32)">
      <use xlink:href="#DejaVuSans-69"/>
      <use x="63.183594" xlink:href="#DejaVuSans-114"/>
      <use x="104.28125" xlink:href="#DejaVuSans-114"/>
      <use x="145.363281" xlink:href="#DejaVuSans-111"/>
      <use x="206.544922" xlink:href="#DejaVuSans-114"/>
      <use x="247.658203" xlink:href="#DejaVuSans-32"/>
      <use x="279.445312" xlink:href="#DejaVuSans-37"/>
     </g>
    </g>
   </g>
   <g id="line2d_12">
    <path clip-path="url(#p3c9ca4a9b7)" d="M 56.71746 422.028557 
L 58.137405 425.355622 
L 64.290134 425.856886 
L 65.113796 428.731883 
L 95.924423 431.216907 
L 142.167819 432.479818 
L 165.628917 433.610138 
L 177.97874 435.14003 
L 244.226425 435.14138 
L 244.502569 435.216374 
L 287.705535 435.322267 
L 289.756412 435.56 
" style="fill:none;stroke:#1f77b4;stroke-linecap:square;stroke-width:8;"/>
   </g>
   <g id="line2d_13">
    <path clip-path="url(#p3c9ca4a9b7)" d="M 55.874409 401.804609 
L 58.522741 405.177566 
L 63.569264 411.207703 
L 65.470143 412.141987 
L 79.415011 414.233034 
L 90.077511 414.883921 
L 90.508334 414.980594 
L 91.287159 421.848342 
L 91.675218 421.860922 
L 93.564752 424.784284 
L 94.486562 425.208718 
L 95.360699 425.305391 
L 103.774535 428.147309 
L 104.071073 428.159889 
L 105.473442 430.238356 
L 106.152351 430.335029 
L 140.501463 430.839582 
L 141.155673 432.231407 
L 151.828173 432.512156 
" style="fill:none;stroke:#ff7f0e;stroke-linecap:square;stroke-width:8;"/>
   </g>
   <g id="line2d_14">
    <path clip-path="url(#p3c9ca4a9b7)" d="M 132.621303 418.504785 
L 133.016731 418.960644 
L 146.462404 419.082206 
L 150.08159 425.604033 
L 150.264428 426.059893 
L 169.627283 428.503298 
L 169.741003 428.959158 
L 186.162312 431.177673 
L 186.239818 431.633532 
L 187.434543 432.259579 
L 187.506454 432.715438 
L 484.490439 433.645391 
L 484.490653 434.10125 
L 543.012782 434.162032 
L 544.531154 434.350453 
L 544.53126 434.478094 
" style="fill:none;stroke:#2ca02c;stroke-linecap:square;stroke-width:8;"/>
   </g>
   <g id="line2d_15">
    <path clip-path="url(#p3c9ca4a9b7)" d="M 167.179145 374.769258 
L 168.263526 378.518938 
L 175.613674 378.909441 
L 175.760967 378.960603 
L 176.013706 379.419266 
L 176.149853 383.119595 
L 178.245773 383.168946 
L 178.448317 386.869275 
L 181.842122 386.995295 
L 181.966767 387.046457 
L 182.18096 387.304802 
L 182.307458 391.005131 
L 207.611529 391.142324 
L 207.682199 391.193485 
L 207.834661 393.679131 
L 208.241363 393.713107 
L 213.836077 396.748629 
L 214.626372 398.823173 
L 238.87214 399.799026 
L 238.905094 399.850188 
L 238.977505 402.335833 
L 357.853837 403.771744 
L 357.894755 403.852679 
L 357.897188 403.90384 
L 357.901861 407.16498 
L 364.349549 408.548772 
L 375.311824 410.381699 
L 395.47351 413.049707 
L 433.327269 415.24686 
L 438.747869 415.502896 
L 438.773876 415.917451 
L 451.426189 415.978121 
L 451.568975 416.203114 
L 456.772412 417.611998 
L 525.367976 418.80263 
L 525.36913 420.122257 
L 553.292792 422.445639 
L 553.295163 423.598029 
L 559.661153 423.747914 
L 559.699298 426.787992 
L 585.678537 429.307052 
L 585.717548 431.260111 
" style="fill:none;stroke:#d62728;stroke-linecap:square;stroke-width:8;"/>
   </g>
   <g id="line2d_16">
    <path clip-path="url(#p3c9ca4a9b7)" d="M 235.694944 340.310086 
L 235.789571 341.777165 
L 236.88395 341.856305 
L 238.705208 351.886404 
L 238.93068 352.461589 
L 239.068226 352.616913 
L 239.149435 353.251527 
L 240.688573 353.817423 
L 240.860844 353.912392 
L 243.116901 353.991532 
L 244.42194 354.267089 
L 244.579493 354.362057 
L 244.918894 354.644841 
L 245.073984 354.741242 
L 252.848465 359.693861 
L 253.010228 360.269045 
L 253.113301 360.424369 
L 253.171932 361.058983 
L 253.728943 361.152966 
L 253.786743 361.682876 
L 270.60663 361.833063 
L 273.329922 362.055283 
L 286.040643 362.533588 
L 286.10025 362.628556 
L 286.882129 362.707696 
L 287.341884 362.983253 
L 287.398979 363.078221 
L 287.525323 363.361005 
L 287.582585 363.457407 
L 292.892497 363.509221 
L 292.943056 363.604189 
L 293.052865 363.886973 
L 293.102516 363.983375 
L 294.315952 364.109193 
L 294.364798 364.205595 
L 308.576614 367.761763 
L 308.620845 368.336948 
L 308.648165 368.492271 
L 308.664227 369.126886 
L 309.098649 370.897683 
L 309.133215 370.931012 
L 310.618635 374.899486 
L 310.659957 375.47467 
L 310.685393 375.629994 
L 310.700378 376.264608 
L 310.845418 376.35859 
L 310.860205 376.888501 
L 312.490191 377.038688 
L 313.136124 377.260907 
L 330.613257 377.461057 
L 332.20343 377.756683 
L 332.624967 377.978902 
L 353.781837 378.197538 
L 356.682277 378.292357 
L 384.597586 378.328732 
L 419.851487 378.351488 
L 419.92439 378.388938 
L 420.43096 378.509499 
L 420.514184 378.684563 
L 438.222328 378.765704 
L 438.242148 378.80184 
L 441.461509 379.020476 
L 442.426398 379.177711 
L 442.43972 379.494152 
L 442.553343 379.716371 
L 446.746171 379.916521 
L 447.07113 380.212147 
L 447.173135 380.434366 
L 460.519417 380.579058 
L 460.753475 380.874684 
L 460.825857 381.096904 
L 461.613856 381.155587 
L 511.539248 381.166935 
L 512.80409 381.261754 
L 520.816465 381.346867 
L 520.833976 381.569086 
L 521.030309 381.62777 
L 536.682858 381.66292 
L 558.872886 381.711359 
L 565.293982 382.066743 
L 565.294049 382.222067 
L 565.294088 382.856681 
L 565.296165 384.541918 
L 565.299929 385.502888 
L 565.300017 385.597707 
L 565.30016 386.258333 
L 565.301841 386.356228 
L 565.301984 386.356526 
L 565.302086 386.578447 
L 565.302807 386.63713 
L 565.305219 386.900144 
L 565.315176 386.993261 
L 565.315214 387.012344 
L 565.315298 387.141238 
L 565.31801 387.155125 
L 565.318048 387.174208 
L 565.318131 387.303102 
L 565.335769 387.372506 
L 565.336033 387.422917 
L 565.336549 388.435373 
L 565.336965 388.456606 
L 565.337125 389.211573 
L 579.6234 389.39488 
L 579.88038 389.535182 
L 579.942296 389.605811 
L 580.278118 389.640274 
L 584.50376 389.923625 
L 584.505736 390.145845 
L 584.731783 390.197719 
L 584.786892 390.268348 
L 585.110156 390.39763 
" style="fill:none;stroke:#9467bd;stroke-linecap:square;stroke-width:8;"/>
   </g>
   <g id="line2d_17">
    <path clip-path="url(#p3c9ca4a9b7)" d="M 291.035331 365.022308 
L 293.30786 366.361835 
L 302.574091 366.77895 
L 303.62532 367.307015 
L 308.942712 367.945425 
L 315.024612 368.161821 
L 355.623254 368.424874 
L 385.121317 368.612949 
L 424.394881 368.75894 
L 449.965295 368.871617 
L 450.149618 369.006876 
L 450.150688 369.046441 
L 450.152373 369.06585 
L 450.153381 369.205215 
L 450.155089 369.635254 
L 450.156091 369.735054 
L 451.998269 370.116896 
L 457.936457 370.142791 
L 457.996326 370.619954 
L 458.057792 370.704123 
L 458.15176 371.404121 
L 460.101797 371.442519 
L 465.001308 371.956355 
L 465.024853 372.245769 
L 465.076879 372.853105 
L 465.380989 372.873681 
L 467.986828 373.111866 
L 468.03377 373.496694 
L 468.481337 373.529634 
L 469.217179 373.624208 
L 469.22161 373.701286 
L 469.350186 373.721862 
L 469.398212 374.017668 
L 469.652723 374.283287 
L 488.323619 374.620105 
L 491.598861 374.636948 
L 491.61825 374.790124 
L 492.59188 375.326121 
L 492.896203 375.964531 
L 496.693672 376.44398 
L 508.644697 376.614699 
L 512.254551 376.812805 
L 512.874439 376.825356 
L 513.22637 376.879898 
L 513.226613 376.986463 
L 513.228624 378.108801 
L 513.228865 378.148366 
L 517.425916 378.723789 
L 517.51522 378.96244 
L 517.516182 379.424346 
L 517.517078 380.140114 
L 517.70986 380.997532 
L 517.71008 381.096259 
L 517.759792 381.126306 
L 517.76001 382.731312 
L 517.98712 382.864285 
L 517.989383 383.129251 
L 518.008662 383.238382 
L 518.048674 383.611266 
L 518.27057 383.702294 
L 518.275282 383.777786 
L 518.356852 383.895268 
L 518.380017 384.550755 
L 518.46274 384.615282 
L 524.057442 385.066176 
L 524.599319 385.127857 
L 524.615417 385.236988 
L 524.64832 385.609872 
L 524.900581 386.163506 
L 524.995651 386.722786 
L 525.49522 386.735476 
L 525.588089 387.294756 
L 526.550562 387.407339 
L 526.557762 389.836544 
L 537.000095 390.223425 
L 537.000307 390.264017 
L 537.000433 390.595936 
L 537.001088 391.077671 
L 537.001213 391.539577 
L 537.00142 391.95016 
L 537.001545 392.255345 
L 539.304937 392.29407 
L 539.579962 392.335362 
L 542.964614 394.343766 
L 543.218118 394.412259 
L 544.151722 394.494515 
L 544.239291 394.624595 
L 544.24204 394.938878 
L 544.242522 394.954975 
L 548.472382 395.244389 
L 548.472817 395.260486 
L 550.676545 395.806468 
L 550.677259 396.519389 
L 556.170628 396.548597 
L 556.367551 396.625068 
L 565.630211 398.722494 
L 567.247153 398.749041 
L 567.298211 398.914301 
L 567.299799 399.228584 
L 567.300076 399.24468 
L 569.017624 399.477593 
L 570.058605 401.488283 
L 575.448659 401.897093 
L 575.452872 402.227473 
L 575.997897 402.291113 
L 576.038876 402.456373 
L 576.040159 402.770655 
L 576.040382 402.786752 
L 577.446919 403.527994 
L 577.845631 403.579457 
L 577.846842 403.89374 
L 577.847053 403.909836 
L 579.101647 404.411634 
L 579.101762 405.325974 
L 583.06395 405.436552 
L 583.12577 405.513023 
L 585.617701 407.601537 
" style="fill:none;stroke:#8c564b;stroke-linecap:square;stroke-width:8;"/>
   </g>
   <g id="line2d_18">
    <path clip-path="url(#p3c9ca4a9b7)" d="M 328.471693 354.507456 
L 328.644402 354.839118 
L 328.910376 355.845158 
L 328.939915 356.232096 
L 329.131924 359.858262 
L 329.195571 360.189923 
L 329.29741 360.228617 
L 329.419133 361.378377 
L 329.447984 361.765315 
L 329.528857 361.809537 
L 329.716633 362.644218 
L 331.679769 365.49098 
L 334.662625 367.215619 
L 359.855032 368.481461 
L 367.768835 369.736247 
L 426.656782 369.82469 
L 426.660195 369.996048 
L 427.320866 370.101075 
L 427.361718 370.200573 
L 427.364508 370.371931 
L 445.005719 373.251859 
L 490.20624 373.41769 
L 490.20691 373.589048 
L 490.216321 373.688546 
L 490.216968 373.859905 
L 490.287386 373.959403 
L 542.988835 373.998097 
L 543.148708 374.058902 
L 543.15148 374.1584 
L 543.151681 374.329759 
L 543.196023 374.434785 
L 543.198797 374.534283 
L 543.198995 374.705642 
L 544.541072 374.871473 
L 544.583883 374.976499 
L 544.586558 375.075997 
L 544.58675 375.247356 
L 545.656114 375.30816 
L 548.731295 375.341326 
L 548.733706 375.440825 
L 548.733882 375.612183 
L 549.287588 375.634294 
L 552.178697 375.800125 
L 552.688241 375.822236 
L 563.43482 375.943845 
L 563.447497 376.043343 
L 585.985969 376.087565 
L 589.621332 376.093092 
L 589.803839 376.17048 
L 590.562932 376.3142 
L 590.569705 376.413699 
" style="fill:none;stroke:#e377c2;stroke-linecap:square;stroke-width:8;"/>
   </g>
   <g id="line2d_19">
    <path clip-path="url(#p3c9ca4a9b7)" d="M 337.452263 297.095653 
L 337.513603 301.131355 
L 337.64012 301.299246 
L 337.784957 304.921558 
L 339.890761 305.136964 
L 339.958195 306.729546 
L 345.882667 306.947328 
L 347.121974 307.016227 
L 359.587767 307.847759 
L 359.604815 309.572594 
L 360.128264 309.602687 
L 360.14387 311.173095 
L 360.343328 312.223201 
L 361.236875 312.387924 
L 361.928647 313.636806 
L 365.685614 314.64098 
L 371.04757 314.867473 
L 373.021887 315.436875 
L 423.597693 315.793246 
L 423.770431 316.710307 
L 472.865907 316.858399 
L 474.618485 316.982733 
L 477.149725 317.286044 
L 478.334171 317.822976 
L 483.133453 318.201521 
L 484.001031 318.645797 
L 493.100313 318.850908 
L 496.536337 319.256379 
L 496.638129 319.825781 
L 502.575944 320.182151 
L 502.606337 321.099213 
L 520.71504 321.602091 
L 528.35449 321.750975 
L 528.372402 322.434415 
L 529.751572 323.024407 
L 529.753945 323.335638 
L 529.813323 324.484736 
" style="fill:none;stroke:#7f7f7f;stroke-linecap:square;stroke-width:8;"/>
   </g>
   <g id="line2d_20">
    <path clip-path="url(#p3c9ca4a9b7)" d="M 373.553661 269.388574 
L 373.572999 270.433274 
L 373.602301 270.796565 
L 373.620973 270.901415 
L 374.332083 271.110017 
L 374.764808 271.230283 
L 374.782907 271.732928 
L 374.862989 272.057775 
L 374.932426 272.525139 
L 375.275002 272.855294 
L 376.494734 273.246707 
L 376.571212 273.586862 
L 397.210875 273.602465 
L 397.357074 274.204786 
L 397.379664 274.518775 
L 397.40221 274.986139 
L 397.45332 274.986997 
L 397.475808 275.316294 
L 397.498336 275.686716 
L 429.973515 275.721648 
L 454.116046 275.905291 
L 473.887566 275.948829 
L 477.059001 276.041643 
L 478.279972 276.892351 
L 478.283527 277.588612 
L 520.445995 278.09887 
L 520.44661 278.2286 
L 520.447566 278.525055 
L 520.448188 278.607199 
L 540.793334 278.784997 
L 540.815929 278.857167 
L 540.821339 279.187295 
L 540.822162 279.501284 
L 540.822985 279.968648 
L 540.824835 279.969506 
L 540.825654 280.298803 
L 540.826474 280.669225 
L 540.831042 281.448943 
L 540.834161 281.937432 
L 540.864473 282.064749 
L 540.865292 282.06735 
L 540.917934 282.475975 
L 540.919005 282.476511 
L 540.949623 282.541228 
L 540.950014 283.043873 
L 540.959408 283.358532 
L 541.079337 283.627187 
L 541.08828 283.928013 
L 541.11572 284.109537 
L 541.125483 284.515562 
L 541.151576 284.867271 
L 541.161314 285.273296 
L 541.201247 285.59884 
L 541.210953 286.004864 
" style="fill:none;stroke:#bcbd22;stroke-linecap:square;stroke-width:8;"/>
   </g>
   <g id="line2d_21">
    <path clip-path="url(#p3c9ca4a9b7)" d="M 407.684573 227.800657 
L 407.719594 228.508833 
L 407.747381 228.58978 
L 407.797589 229.647063 
L 407.854606 230.875372 
L 407.867765 231.424147 
L 407.959946 231.477696 
L 407.973495 232.615926 
L 408.910047 232.826801 
L 409.232957 233.757061 
L 409.259775 233.764533 
L 410.139706 234.041411 
L 410.454653 234.971671 
L 410.480552 234.979143 
L 412.093081 239.491382 
L 413.774906 242.933885 
L 417.277487 242.945093 
L 419.78848 244.01566 
L 419.798567 245.15389 
L 419.846516 246.339442 
L 444.073015 246.356462 
L 456.133471 246.493033 
L 456.149501 246.516279 
L 460.947166 246.529562 
L 460.955225 246.994485 
L 460.985039 247.725492 
L 462.562145 247.852101 
L 462.884293 248.299173 
L 463.696101 250.887381 
L 463.730111 251.604274 
L 463.737626 253.559025 
L 498.007611 255.401695 
L 524.168961 255.696838 
L 524.169822 255.845447 
L 524.171626 255.896921 
L 524.173428 256.038473 
L 524.178575 256.163421 
L 524.180857 256.354786 
L 524.18318 256.910203 
L 524.184051 256.961676 
L 524.186329 257.011489 
L 531.200134 258.830084 
L 557.287874 259.077074 
L 557.288266 259.225683 
L 557.289081 259.277156 
L 557.289902 259.418709 
L 557.292228 259.543657 
L 557.293261 259.735022 
L 557.294313 260.290438 
L 557.294707 260.341912 
L 557.295739 260.391725 
L 566.468539 260.400442 
L 566.469201 260.541995 
L 566.470065 260.711774 
L 566.471779 260.818873 
L 566.472624 261.010238 
L 566.475753 261.901063 
L 566.476432 262.796869 
L 569.841263 263.870757 
L 590.184435 263.99529 
" style="fill:none;stroke:#17becf;stroke-linecap:square;stroke-width:8;"/>
   </g>
   <g id="line2d_22">
    <path clip-path="url(#p3c9ca4a9b7)" d="M 437.941557 165.734923 
L 437.95208 165.996065 
L 437.967671 167.296319 
L 437.977731 173.077354 
L 438.055625 174.480727 
L 438.076351 174.594395 
L 438.17796 175.229111 
L 438.198567 175.379209 
L 438.219158 175.640351 
L 438.279795 175.855285 
L 438.472711 176.798122 
L 438.488058 178.620814 
L 438.497919 178.62277 
L 438.616906 179.730834 
L 438.670692 180.283477 
L 438.691034 180.365241 
L 439.061301 180.80576 
L 439.081481 180.887525 
L 439.122789 181.411558 
L 439.466055 182.42803 
L 439.485952 182.509794 
L 439.756034 184.748049 
L 439.863533 186.100892 
L 439.883298 186.182656 
L 440.991383 187.905523 
L 441.095693 188.559432 
L 441.811622 189.771284 
L 441.830598 189.853048 
L 441.978252 190.463528 
L 441.997125 190.545292 
L 449.587273 191.2327 
L 449.602874 191.314464 
L 449.71495 191.924944 
L 449.730609 192.006709 
L 451.626563 192.30068 
L 453.24188 192.489834 
L 454.198025 192.926957 
L 454.298781 193.537437 
L 454.312916 193.619201 
L 454.869974 193.770535 
L 454.887788 193.852299 
L 455.699895 194.28052 
L 455.797094 194.891 
L 455.810684 194.972764 
L 458.380647 194.997566 
L 459.338809 196.406136 
L 459.351283 196.493046 
L 459.363748 196.525876 
L 478.931502 197.707523 
L 478.935285 197.761089 
L 478.950045 197.794433 
L 478.953901 197.847999 
L 481.126436 198.514001 
L 481.130099 198.567567 
L 481.144084 198.600911 
L 481.147743 198.654477 
L 495.528479 198.688541 
L 495.558142 198.895139 
L 495.570431 200.055689 
L 501.173085 200.97568 
L 501.247235 201.440435 
L 501.411962 201.80912 
L 501.640471 202.181666 
L 501.645123 202.26343 
L 502.490016 202.287409 
L 502.509191 202.750569 
L 502.513789 202.832333 
L 504.407157 202.924749 
L 504.473292 203.072069 
L 504.491587 203.535229 
L 504.495987 203.616993 
L 506.984115 203.724846 
L 508.426781 204.016913 
L 509.346733 204.185433 
L 516.956488 205.814597 
L 516.959775 206.381905 
L 517.724144 206.690902 
L 518.82153 206.795719 
L 521.102945 206.980499 
L 527.803442 207.337761 
L 527.805978 207.419526 
L 527.85738 207.566846 
L 527.868003 208.030006 
L 527.870547 208.11177 
L 534.129815 208.185404 
L 539.218666 209.813231 
L 539.220593 209.894995 
L 539.22958 211.055545 
L 546.269542 211.450782 
L 546.271199 211.532547 
L 546.278059 211.995707 
L 546.279703 212.077471 
L 558.337237 212.456242 
L 562.189761 212.638501 
L 564.500303 212.827655 
L 564.509809 213.075624 
L 565.568137 213.226958 
L 565.56949 213.308722 
L 567.656658 213.38673 
L 567.743351 213.627495 
L 567.804471 213.759378 
L 567.808621 214.181219 
L 567.818467 214.429187 
L 569.61762 214.534004 
L 572.726649 214.718785 
L 578.51298 214.898265 
L 578.51984 215.146234 
L 581.652792 215.180247 
L 581.655812 215.602087 
L 581.662687 215.850056 
L 583.396398 216.324433 
" style="fill:none;stroke:#1f77b4;stroke-linecap:square;stroke-width:8;"/>
   </g>
   <g id="line2d_23">
    <path clip-path="url(#p3c9ca4a9b7)" d="M 449.633986 259.706102 
L 449.643353 260.033441 
L 449.661794 260.259625 
L 449.675729 260.444028 
L 449.684722 261.347823 
L 449.773399 261.383636 
L 449.957785 261.388662 
L 450.025052 261.743332 
L 450.034014 262.070671 
L 450.052442 262.97101 
L 450.070818 263.024414 
L 450.128195 263.025357 
L 450.137143 263.925696 
L 450.250462 264.685927 
L 450.268786 264.739331 
L 450.325893 264.795563 
L 450.334764 265.695902 
L 450.787378 266.672579 
L 450.805379 266.770278 
L 450.84685 267.828318 
L 451.04684 268.569071 
L 451.397441 269.761879 
L 451.606275 270.635516 
L 451.69586 270.829972 
L 453.31723 271.683189 
L 453.482331 272.35169 
L 455.510601 273.192341 
L 457.154961 275.064645 
L 457.183538 275.784979 
L 464.814899 277.164389 
L 469.101568 278.138866 
L 469.113191 279.005592 
L 469.131387 279.738806 
L 469.149175 280.080596 
L 531.890031 280.333482 
L 531.893428 282.10149 
L 553.605603 283.185604 
L 553.607212 284.052329 
L 553.609728 284.785543 
L 553.612221 285.127333 
L 559.578001 285.948508 
L 559.579403 286.187572 
L 567.19214 286.387996 
" style="fill:none;stroke:#ff7f0e;stroke-linecap:square;stroke-width:8;"/>
   </g>
   <g id="line2d_24">
    <path clip-path="url(#p3c9ca4a9b7)" d="M 455.58877 129.434642 
L 455.644874 131.105142 
L 455.662266 132.086996 
L 455.670727 135.219749 
L 456.070755 136.811239 
L 456.114421 137.099805 
L 456.12289 137.258071 
L 456.175471 138.265376 
L 461.118888 142.355844 
L 464.987964 145.372228 
L 465.067118 146.520537 
L 515.338612 146.71432 
L 515.973236 150.69441 
L 518.770134 151.263035 
L 518.77206 151.585487 
L 518.795206 152.114483 
L 518.895496 153.001519 
L 518.914993 153.507759 
L 518.916898 153.830212 
L 518.940033 154.359208 
L 523.699825 155.833372 
L 523.734633 156.71899 
L 523.762868 157.395902 
L 529.757263 161.360254 
L 533.101961 161.385633 
L 533.112448 161.671151 
L 533.221878 161.714714 
L 533.232362 162.000232 
L 535.464014 162.098842 
L 535.473935 162.38436 
" style="fill:none;stroke:#2ca02c;stroke-linecap:square;stroke-width:8;"/>
   </g>
   <g id="line2d_25">
    <path clip-path="url(#p3c9ca4a9b7)" d="M 582.431146 32.36 
L 582.434084 33.728261 
L 582.44753 34.066319 
L 582.450464 34.434335 
L 582.457895 34.954556 
L 582.480362 35.451372 
L 582.604271 36.319828 
L 582.907192 36.888834 
L 583.301486 37.070616 
L 583.46372 37.122326 
L 583.470971 38.373682 
L 586.310778 38.946886 
L 586.316199 38.998215 
L 586.339766 39.420168 
L 586.445023 40.211535 
L 586.495635 40.860556 
" style="fill:none;stroke:#d62728;stroke-linecap:square;stroke-width:8;"/>
   </g>
   <g id="legend_1">
    <g id="patch_3">
     <path d="M 673.3475 524.585 
L 992.84 524.585 
Q 997.64 524.585 997.64 519.785 
L 997.64 29 
Q 997.64 24.2 992.84 24.2 
L 673.3475 24.2 
Q 668.5475 24.2 668.5475 29 
L 668.5475 519.785 
Q 668.5475 524.585 673.3475 524.585 
z
" style="fill:#ffffff;opacity:0.4;stroke:#cccccc;stroke-linejoin:miter;"/>
    </g>
    <g id="line2d_26">
     <path d="M 678.1475 43.63625 
L 726.1475 43.63625 
" style="fill:none;stroke:#1f77b4;stroke-linecap:square;stroke-width:8;"/>
    </g>
    <g id="line2d_27"/>
    <g id="text_14">
     <!-- Cincinnati N=10 -->
     <defs>
      <path d="M 64.40625 67.28125 
L 64.40625 56.890625 
Q 59.421875 61.53125 53.78125 63.8125 
Q 48.140625 66.109375 41.796875 66.109375 
Q 29.296875 66.109375 22.65625 58.46875 
Q 16.015625 50.828125 16.015625 36.375 
Q 16.015625 21.96875 22.65625 14.328125 
Q 29.296875 6.6875 41.796875 6.6875 
Q 48.140625 6.6875 53.78125 8.984375 
Q 59.421875 11.28125 64.40625 15.921875 
L 64.40625 5.609375 
Q 59.234375 2.09375 53.4375 0.328125 
Q 47.65625 -1.421875 41.21875 -1.421875 
Q 24.65625 -1.421875 15.125 8.703125 
Q 5.609375 18.84375 5.609375 36.375 
Q 5.609375 53.953125 15.125 64.078125 
Q 24.65625 74.21875 41.21875 74.21875 
Q 47.75 74.21875 53.53125 72.484375 
Q 59.328125 70.75 64.40625 67.28125 
z
" id="DejaVuSans-67"/>
      <path d="M 54.890625 33.015625 
L 54.890625 0 
L 45.90625 0 
L 45.90625 32.71875 
Q 45.90625 40.484375 42.875 44.328125 
Q 39.84375 48.1875 33.796875 48.1875 
Q 26.515625 48.1875 22.3125 43.546875 
Q 18.109375 38.921875 18.109375 30.90625 
L 18.109375 0 
L 9.078125 0 
L 9.078125 54.6875 
L 18.109375 54.6875 
L 18.109375 46.1875 
Q 21.34375 51.125 25.703125 53.5625 
Q 30.078125 56 35.796875 56 
Q 45.21875 56 50.046875 50.171875 
Q 54.890625 44.34375 54.890625 33.015625 
z
" id="DejaVuSans-110"/>
      <path d="M 48.78125 52.59375 
L 48.78125 44.1875 
Q 44.96875 46.296875 41.140625 47.34375 
Q 37.3125 48.390625 33.40625 48.390625 
Q 24.65625 48.390625 19.8125 42.84375 
Q 14.984375 37.3125 14.984375 27.296875 
Q 14.984375 17.28125 19.8125 11.734375 
Q 24.65625 6.203125 33.40625 6.203125 
Q 37.3125 6.203125 41.140625 7.25 
Q 44.96875 8.296875 48.78125 10.40625 
L 48.78125 2.09375 
Q 45.015625 0.34375 40.984375 -0.53125 
Q 36.96875 -1.421875 32.421875 -1.421875 
Q 20.0625 -1.421875 12.78125 6.34375 
Q 5.515625 14.109375 5.515625 27.296875 
Q 5.515625 40.671875 12.859375 48.328125 
Q 20.21875 56 33.015625 56 
Q 37.15625 56 41.109375 55.140625 
Q 45.0625 54.296875 48.78125 52.59375 
z
" id="DejaVuSans-99"/>
      <path d="M 34.28125 27.484375 
Q 23.390625 27.484375 19.1875 25 
Q 14.984375 22.515625 14.984375 16.5 
Q 14.984375 11.71875 18.140625 8.90625 
Q 21.296875 6.109375 26.703125 6.109375 
Q 34.1875 6.109375 38.703125 11.40625 
Q 43.21875 16.703125 43.21875 25.484375 
L 43.21875 27.484375 
z
M 52.203125 31.203125 
L 52.203125 0 
L 43.21875 0 
L 43.21875 8.296875 
Q 40.140625 3.328125 35.546875 0.953125 
Q 30.953125 -1.421875 24.3125 -1.421875 
Q 15.921875 -1.421875 10.953125 3.296875 
Q 6 8.015625 6 15.921875 
Q 6 25.140625 12.171875 29.828125 
Q 18.359375 34.515625 30.609375 34.515625 
L 43.21875 34.515625 
L 43.21875 35.40625 
Q 43.21875 41.609375 39.140625 45 
Q 35.0625 48.390625 27.6875 48.390625 
Q 23 48.390625 18.546875 47.265625 
Q 14.109375 46.140625 10.015625 43.890625 
L 10.015625 52.203125 
Q 14.9375 54.109375 19.578125 55.046875 
Q 24.21875 56 28.609375 56 
Q 40.484375 56 46.34375 49.84375 
Q 52.203125 43.703125 52.203125 31.203125 
z
" id="DejaVuSans-97"/>
      <path d="M 18.3125 70.21875 
L 18.3125 54.6875 
L 36.8125 54.6875 
L 36.8125 47.703125 
L 18.3125 47.703125 
L 18.3125 18.015625 
Q 18.3125 11.328125 20.140625 9.421875 
Q 21.96875 7.515625 27.59375 7.515625 
L 36.8125 7.515625 
L 36.8125 0 
L 27.59375 0 
Q 17.1875 0 13.234375 3.875 
Q 9.28125 7.765625 9.28125 18.015625 
L 9.28125 47.703125 
L 2.6875 47.703125 
L 2.6875 54.6875 
L 9.28125 54.6875 
L 9.28125 70.21875 
z
" id="DejaVuSans-116"/>
      <path d="M 9.8125 72.90625 
L 23.09375 72.90625 
L 55.421875 11.921875 
L 55.421875 72.90625 
L 64.984375 72.90625 
L 64.984375 0 
L 51.703125 0 
L 19.390625 60.984375 
L 19.390625 0 
L 9.8125 0 
z
" id="DejaVuSans-78"/>
      <path d="M 10.59375 45.40625 
L 73.1875 45.40625 
L 73.1875 37.203125 
L 10.59375 37.203125 
z
M 10.59375 25.484375 
L 73.1875 25.484375 
L 73.1875 17.1875 
L 10.59375 17.1875 
z
" id="DejaVuSans-61"/>
     </defs>
     <g transform="translate(745.3475 52.03625)scale(0.24 -0.24)">
      <use xlink:href="#DejaVuSans-67"/>
      <use x="69.824219" xlink:href="#DejaVuSans-105"/>
      <use x="97.607422" xlink:href="#DejaVuSans-110"/>
      <use x="160.986328" xlink:href="#DejaVuSans-99"/>
      <use x="215.966797" xlink:href="#DejaVuSans-105"/>
      <use x="243.75" xlink:href="#DejaVuSans-110"/>
      <use x="307.128906" xlink:href="#DejaVuSans-110"/>
      <use x="370.507812" xlink:href="#DejaVuSans-97"/>
      <use x="431.787109" xlink:href="#DejaVuSans-116"/>
      <use x="470.996094" xlink:href="#DejaVuSans-105"/>
      <use x="498.779297" xlink:href="#DejaVuSans-32"/>
      <use x="530.566406" xlink:href="#DejaVuSans-78"/>
      <use x="605.371094" xlink:href="#DejaVuSans-61"/>
      <use x="689.160156" xlink:href="#DejaVuSans-49"/>
      <use x="752.783203" xlink:href="#DejaVuSans-48"/>
     </g>
    </g>
    <g id="line2d_28">
     <path d="M 678.1475 78.86375 
L 726.1475 78.86375 
" style="fill:none;stroke:#ff7f0e;stroke-linecap:square;stroke-width:8;"/>
    </g>
    <g id="line2d_29"/>
    <g id="text_15">
     <!-- UKansasState N=10 -->
     <defs>
      <path d="M 8.6875 72.90625 
L 18.609375 72.90625 
L 18.609375 28.609375 
Q 18.609375 16.890625 22.84375 11.734375 
Q 27.09375 6.59375 36.625 6.59375 
Q 46.09375 6.59375 50.34375 11.734375 
Q 54.59375 16.890625 54.59375 28.609375 
L 54.59375 72.90625 
L 64.5 72.90625 
L 64.5 27.390625 
Q 64.5 13.140625 57.4375 5.859375 
Q 50.390625 -1.421875 36.625 -1.421875 
Q 22.796875 -1.421875 15.734375 5.859375 
Q 8.6875 13.140625 8.6875 27.390625 
z
" id="DejaVuSans-85"/>
      <path d="M 9.8125 72.90625 
L 19.671875 72.90625 
L 19.671875 42.09375 
L 52.390625 72.90625 
L 65.09375 72.90625 
L 28.90625 38.921875 
L 67.671875 0 
L 54.6875 0 
L 19.671875 35.109375 
L 19.671875 0 
L 9.8125 0 
z
" id="DejaVuSans-75"/>
      <path d="M 53.515625 70.515625 
L 53.515625 60.890625 
Q 47.90625 63.578125 42.921875 64.890625 
Q 37.9375 66.21875 33.296875 66.21875 
Q 25.25 66.21875 20.875 63.09375 
Q 16.5 59.96875 16.5 54.203125 
Q 16.5 49.359375 19.40625 46.890625 
Q 22.3125 44.4375 30.421875 42.921875 
L 36.375 41.703125 
Q 47.40625 39.59375 52.65625 34.296875 
Q 57.90625 29 57.90625 20.125 
Q 57.90625 9.515625 50.796875 4.046875 
Q 43.703125 -1.421875 29.984375 -1.421875 
Q 24.8125 -1.421875 18.96875 -0.25 
Q 13.140625 0.921875 6.890625 3.21875 
L 6.890625 13.375 
Q 12.890625 10.015625 18.65625 8.296875 
Q 24.421875 6.59375 29.984375 6.59375 
Q 38.421875 6.59375 43.015625 9.90625 
Q 47.609375 13.234375 47.609375 19.390625 
Q 47.609375 24.75 44.3125 27.78125 
Q 41.015625 30.8125 33.5 32.328125 
L 27.484375 33.5 
Q 16.453125 35.6875 11.515625 40.375 
Q 6.59375 45.0625 6.59375 53.421875 
Q 6.59375 63.09375 13.40625 68.65625 
Q 20.21875 74.21875 32.171875 74.21875 
Q 37.3125 74.21875 42.625 73.28125 
Q 47.953125 72.359375 53.515625 70.515625 
z
" id="DejaVuSans-83"/>
     </defs>
     <g transform="translate(745.3475 87.26375)scale(0.24 -0.24)">
      <use xlink:href="#DejaVuSans-85"/>
      <use x="73.193359" xlink:href="#DejaVuSans-75"/>
      <use x="138.753906" xlink:href="#DejaVuSans-97"/>
      <use x="200.033203" xlink:href="#DejaVuSans-110"/>
      <use x="263.412109" xlink:href="#DejaVuSans-115"/>
      <use x="315.511719" xlink:href="#DejaVuSans-97"/>
      <use x="376.791016" xlink:href="#DejaVuSans-115"/>
      <use x="428.890625" xlink:href="#DejaVuSans-83"/>
      <use x="492.367188" xlink:href="#DejaVuSans-116"/>
      <use x="531.576172" xlink:href="#DejaVuSans-97"/>
      <use x="592.855469" xlink:href="#DejaVuSans-116"/>
      <use x="632.064453" xlink:href="#DejaVuSans-101"/>
      <use x="693.587891" xlink:href="#DejaVuSans-32"/>
      <use x="725.375" xlink:href="#DejaVuSans-78"/>
      <use x="800.179688" xlink:href="#DejaVuSans-61"/>
      <use x="883.96875" xlink:href="#DejaVuSans-49"/>
      <use x="947.591797" xlink:href="#DejaVuSans-48"/>
     </g>
    </g>
    <g id="line2d_30">
     <path d="M 678.1475 114.09125 
L 726.1475 114.09125 
" style="fill:none;stroke:#2ca02c;stroke-linecap:square;stroke-width:8;"/>
    </g>
    <g id="line2d_31"/>
    <g id="text_16">
     <!-- ulysses16 N=16 -->
     <defs>
      <path d="M 8.5 21.578125 
L 8.5 54.6875 
L 17.484375 54.6875 
L 17.484375 21.921875 
Q 17.484375 14.15625 20.5 10.265625 
Q 23.53125 6.390625 29.59375 6.390625 
Q 36.859375 6.390625 41.078125 11.03125 
Q 45.3125 15.671875 45.3125 23.6875 
L 45.3125 54.6875 
L 54.296875 54.6875 
L 54.296875 0 
L 45.3125 0 
L 45.3125 8.40625 
Q 42.046875 3.421875 37.71875 1 
Q 33.40625 -1.421875 27.6875 -1.421875 
Q 18.265625 -1.421875 13.375 4.4375 
Q 8.5 10.296875 8.5 21.578125 
z
M 31.109375 56 
z
" id="DejaVuSans-117"/>
      <path d="M 9.421875 75.984375 
L 18.40625 75.984375 
L 18.40625 0 
L 9.421875 0 
z
" id="DejaVuSans-108"/>
      <path d="M 32.171875 -5.078125 
Q 28.375 -14.84375 24.75 -17.8125 
Q 21.140625 -20.796875 15.09375 -20.796875 
L 7.90625 -20.796875 
L 7.90625 -13.28125 
L 13.1875 -13.28125 
Q 16.890625 -13.28125 18.9375 -11.515625 
Q 21 -9.765625 23.484375 -3.21875 
L 25.09375 0.875 
L 2.984375 54.6875 
L 12.5 54.6875 
L 29.59375 11.921875 
L 46.6875 54.6875 
L 56.203125 54.6875 
z
" id="DejaVuSans-121"/>
     </defs>
     <g transform="translate(745.3475 122.49125)scale(0.24 -0.24)">
      <use xlink:href="#DejaVuSans-117"/>
      <use x="63.378906" xlink:href="#DejaVuSans-108"/>
      <use x="91.162109" xlink:href="#DejaVuSans-121"/>
      <use x="150.341797" xlink:href="#DejaVuSans-115"/>
      <use x="202.441406" xlink:href="#DejaVuSans-115"/>
      <use x="254.541016" xlink:href="#DejaVuSans-101"/>
      <use x="316.064453" xlink:href="#DejaVuSans-115"/>
      <use x="368.164062" xlink:href="#DejaVuSans-49"/>
      <use x="431.787109" xlink:href="#DejaVuSans-54"/>
      <use x="495.410156" xlink:href="#DejaVuSans-32"/>
      <use x="527.197266" xlink:href="#DejaVuSans-78"/>
      <use x="602.001953" xlink:href="#DejaVuSans-61"/>
      <use x="685.791016" xlink:href="#DejaVuSans-49"/>
      <use x="749.414062" xlink:href="#DejaVuSans-54"/>
     </g>
    </g>
    <g id="line2d_32">
     <path d="M 678.1475 149.31875 
L 726.1475 149.31875 
" style="fill:none;stroke:#d62728;stroke-linecap:square;stroke-width:8;"/>
    </g>
    <g id="line2d_33"/>
    <g id="text_17">
     <!-- Atlanta N=20 -->
     <defs>
      <path d="M 34.1875 63.1875 
L 20.796875 26.90625 
L 47.609375 26.90625 
z
M 28.609375 72.90625 
L 39.796875 72.90625 
L 67.578125 0 
L 57.328125 0 
L 50.6875 18.703125 
L 17.828125 18.703125 
L 11.1875 0 
L 0.78125 0 
z
" id="DejaVuSans-65"/>
     </defs>
     <g transform="translate(745.3475 157.71875)scale(0.24 -0.24)">
      <use xlink:href="#DejaVuSans-65"/>
      <use x="68.392578" xlink:href="#DejaVuSans-116"/>
      <use x="107.601562" xlink:href="#DejaVuSans-108"/>
      <use x="135.384766" xlink:href="#DejaVuSans-97"/>
      <use x="196.664062" xlink:href="#DejaVuSans-110"/>
      <use x="260.042969" xlink:href="#DejaVuSans-116"/>
      <use x="299.251953" xlink:href="#DejaVuSans-97"/>
      <use x="360.53125" xlink:href="#DejaVuSans-32"/>
      <use x="392.318359" xlink:href="#DejaVuSans-78"/>
      <use x="467.123047" xlink:href="#DejaVuSans-61"/>
      <use x="550.912109" xlink:href="#DejaVuSans-50"/>
      <use x="614.535156" xlink:href="#DejaVuSans-48"/>
     </g>
    </g>
    <g id="line2d_34">
     <path d="M 678.1475 184.54625 
L 726.1475 184.54625 
" style="fill:none;stroke:#9467bd;stroke-linecap:square;stroke-width:8;"/>
    </g>
    <g id="line2d_35"/>
    <g id="text_18">
     <!-- Philadelphia N=30 -->
     <defs>
      <path d="M 19.671875 64.796875 
L 19.671875 37.40625 
L 32.078125 37.40625 
Q 38.96875 37.40625 42.71875 40.96875 
Q 46.484375 44.53125 46.484375 51.125 
Q 46.484375 57.671875 42.71875 61.234375 
Q 38.96875 64.796875 32.078125 64.796875 
z
M 9.8125 72.90625 
L 32.078125 72.90625 
Q 44.34375 72.90625 50.609375 67.359375 
Q 56.890625 61.8125 56.890625 51.125 
Q 56.890625 40.328125 50.609375 34.8125 
Q 44.34375 29.296875 32.078125 29.296875 
L 19.671875 29.296875 
L 19.671875 0 
L 9.8125 0 
z
" id="DejaVuSans-80"/>
      <path d="M 54.890625 33.015625 
L 54.890625 0 
L 45.90625 0 
L 45.90625 32.71875 
Q 45.90625 40.484375 42.875 44.328125 
Q 39.84375 48.1875 33.796875 48.1875 
Q 26.515625 48.1875 22.3125 43.546875 
Q 18.109375 38.921875 18.109375 30.90625 
L 18.109375 0 
L 9.078125 0 
L 9.078125 75.984375 
L 18.109375 75.984375 
L 18.109375 46.1875 
Q 21.34375 51.125 25.703125 53.5625 
Q 30.078125 56 35.796875 56 
Q 45.21875 56 50.046875 50.171875 
Q 54.890625 44.34375 54.890625 33.015625 
z
" id="DejaVuSans-104"/>
      <path d="M 45.40625 46.390625 
L 45.40625 75.984375 
L 54.390625 75.984375 
L 54.390625 0 
L 45.40625 0 
L 45.40625 8.203125 
Q 42.578125 3.328125 38.25 0.953125 
Q 33.9375 -1.421875 27.875 -1.421875 
Q 17.96875 -1.421875 11.734375 6.484375 
Q 5.515625 14.40625 5.515625 27.296875 
Q 5.515625 40.1875 11.734375 48.09375 
Q 17.96875 56 27.875 56 
Q 33.9375 56 38.25 53.625 
Q 42.578125 51.265625 45.40625 46.390625 
z
M 14.796875 27.296875 
Q 14.796875 17.390625 18.875 11.75 
Q 22.953125 6.109375 30.078125 6.109375 
Q 37.203125 6.109375 41.296875 11.75 
Q 45.40625 17.390625 45.40625 27.296875 
Q 45.40625 37.203125 41.296875 42.84375 
Q 37.203125 48.484375 30.078125 48.484375 
Q 22.953125 48.484375 18.875 42.84375 
Q 14.796875 37.203125 14.796875 27.296875 
z
" id="DejaVuSans-100"/>
      <path d="M 18.109375 8.203125 
L 18.109375 -20.796875 
L 9.078125 -20.796875 
L 9.078125 54.6875 
L 18.109375 54.6875 
L 18.109375 46.390625 
Q 20.953125 51.265625 25.265625 53.625 
Q 29.59375 56 35.59375 56 
Q 45.5625 56 51.78125 48.09375 
Q 58.015625 40.1875 58.015625 27.296875 
Q 58.015625 14.40625 51.78125 6.484375 
Q 45.5625 -1.421875 35.59375 -1.421875 
Q 29.59375 -1.421875 25.265625 0.953125 
Q 20.953125 3.328125 18.109375 8.203125 
z
M 48.6875 27.296875 
Q 48.6875 37.203125 44.609375 42.84375 
Q 40.53125 48.484375 33.40625 48.484375 
Q 26.265625 48.484375 22.1875 42.84375 
Q 18.109375 37.203125 18.109375 27.296875 
Q 18.109375 17.390625 22.1875 11.75 
Q 26.265625 6.109375 33.40625 6.109375 
Q 40.53125 6.109375 44.609375 11.75 
Q 48.6875 17.390625 48.6875 27.296875 
z
" id="DejaVuSans-112"/>
     </defs>
     <g transform="translate(745.3475 192.94625)scale(0.24 -0.24)">
      <use xlink:href="#DejaVuSans-80"/>
      <use x="60.302734" xlink:href="#DejaVuSans-104"/>
      <use x="123.681641" xlink:href="#DejaVuSans-105"/>
      <use x="151.464844" xlink:href="#DejaVuSans-108"/>
      <use x="179.248047" xlink:href="#DejaVuSans-97"/>
      <use x="240.527344" xlink:href="#DejaVuSans-100"/>
      <use x="304.003906" xlink:href="#DejaVuSans-101"/>
      <use x="365.527344" xlink:href="#DejaVuSans-108"/>
      <use x="393.310547" xlink:href="#DejaVuSans-112"/>
      <use x="456.787109" xlink:href="#DejaVuSans-104"/>
      <use x="520.166016" xlink:href="#DejaVuSans-105"/>
      <use x="547.949219" xlink:href="#DejaVuSans-97"/>
      <use x="609.228516" xlink:href="#DejaVuSans-32"/>
      <use x="641.015625" xlink:href="#DejaVuSans-78"/>
      <use x="715.820312" xlink:href="#DejaVuSans-61"/>
      <use x="799.609375" xlink:href="#DejaVuSans-51"/>
      <use x="863.232422" xlink:href="#DejaVuSans-48"/>
     </g>
    </g>
    <g id="line2d_36">
     <path d="M 678.1475 219.77375 
L 726.1475 219.77375 
" style="fill:none;stroke:#8c564b;stroke-linecap:square;stroke-width:8;"/>
    </g>
    <g id="line2d_37"/>
    <g id="text_19">
     <!-- Boston N=40 -->
     <defs>
      <path d="M 19.671875 34.8125 
L 19.671875 8.109375 
L 35.5 8.109375 
Q 43.453125 8.109375 47.28125 11.40625 
Q 51.125 14.703125 51.125 21.484375 
Q 51.125 28.328125 47.28125 31.5625 
Q 43.453125 34.8125 35.5 34.8125 
z
M 19.671875 64.796875 
L 19.671875 42.828125 
L 34.28125 42.828125 
Q 41.5 42.828125 45.03125 45.53125 
Q 48.578125 48.25 48.578125 53.8125 
Q 48.578125 59.328125 45.03125 62.0625 
Q 41.5 64.796875 34.28125 64.796875 
z
M 9.8125 72.90625 
L 35.015625 72.90625 
Q 46.296875 72.90625 52.390625 68.21875 
Q 58.5 63.53125 58.5 54.890625 
Q 58.5 48.1875 55.375 44.234375 
Q 52.25 40.28125 46.1875 39.3125 
Q 53.46875 37.75 57.5 32.78125 
Q 61.53125 27.828125 61.53125 20.40625 
Q 61.53125 10.640625 54.890625 5.3125 
Q 48.25 0 35.984375 0 
L 9.8125 0 
z
" id="DejaVuSans-66"/>
     </defs>
     <g transform="translate(745.3475 228.17375)scale(0.24 -0.24)">
      <use xlink:href="#DejaVuSans-66"/>
      <use x="68.603516" xlink:href="#DejaVuSans-111"/>
      <use x="129.785156" xlink:href="#DejaVuSans-115"/>
      <use x="181.884766" xlink:href="#DejaVuSans-116"/>
      <use x="221.09375" xlink:href="#DejaVuSans-111"/>
      <use x="282.275391" xlink:href="#DejaVuSans-110"/>
      <use x="345.654297" xlink:href="#DejaVuSans-32"/>
      <use x="377.441406" xlink:href="#DejaVuSans-78"/>
      <use x="452.246094" xlink:href="#DejaVuSans-61"/>
      <use x="536.035156" xlink:href="#DejaVuSans-52"/>
      <use x="599.658203" xlink:href="#DejaVuSans-48"/>
     </g>
    </g>
    <g id="line2d_38">
     <path d="M 678.1475 255.00125 
L 726.1475 255.00125 
" style="fill:none;stroke:#e377c2;stroke-linecap:square;stroke-width:8;"/>
    </g>
    <g id="line2d_39"/>
    <g id="text_20">
     <!-- berlin52 N=52 -->
     <defs>
      <path d="M 48.6875 27.296875 
Q 48.6875 37.203125 44.609375 42.84375 
Q 40.53125 48.484375 33.40625 48.484375 
Q 26.265625 48.484375 22.1875 42.84375 
Q 18.109375 37.203125 18.109375 27.296875 
Q 18.109375 17.390625 22.1875 11.75 
Q 26.265625 6.109375 33.40625 6.109375 
Q 40.53125 6.109375 44.609375 11.75 
Q 48.6875 17.390625 48.6875 27.296875 
z
M 18.109375 46.390625 
Q 20.953125 51.265625 25.265625 53.625 
Q 29.59375 56 35.59375 56 
Q 45.5625 56 51.78125 48.09375 
Q 58.015625 40.1875 58.015625 27.296875 
Q 58.015625 14.40625 51.78125 6.484375 
Q 45.5625 -1.421875 35.59375 -1.421875 
Q 29.59375 -1.421875 25.265625 0.953125 
Q 20.953125 3.328125 18.109375 8.203125 
L 18.109375 0 
L 9.078125 0 
L 9.078125 75.984375 
L 18.109375 75.984375 
z
" id="DejaVuSans-98"/>
     </defs>
     <g transform="translate(745.3475 263.40125)scale(0.24 -0.24)">
      <use xlink:href="#DejaVuSans-98"/>
      <use x="63.476562" xlink:href="#DejaVuSans-101"/>
      <use x="125" xlink:href="#DejaVuSans-114"/>
      <use x="166.113281" xlink:href="#DejaVuSans-108"/>
      <use x="193.896484" xlink:href="#DejaVuSans-105"/>
      <use x="221.679688" xlink:href="#DejaVuSans-110"/>
      <use x="285.058594" xlink:href="#DejaVuSans-53"/>
      <use x="348.681641" xlink:href="#DejaVuSans-50"/>
      <use x="412.304688" xlink:href="#DejaVuSans-32"/>
      <use x="444.091797" xlink:href="#DejaVuSans-78"/>
      <use x="518.896484" xlink:href="#DejaVuSans-61"/>
      <use x="602.685547" xlink:href="#DejaVuSans-53"/>
      <use x="666.308594" xlink:href="#DejaVuSans-50"/>
     </g>
    </g>
    <g id="line2d_40">
     <path d="M 678.1475 290.22875 
L 726.1475 290.22875 
" style="fill:none;stroke:#7f7f7f;stroke-linecap:square;stroke-width:8;"/>
    </g>
    <g id="line2d_41"/>
    <g id="text_21">
     <!-- Champaign N=55 -->
     <defs>
      <path d="M 45.40625 27.984375 
Q 45.40625 37.75 41.375 43.109375 
Q 37.359375 48.484375 30.078125 48.484375 
Q 22.859375 48.484375 18.828125 43.109375 
Q 14.796875 37.75 14.796875 27.984375 
Q 14.796875 18.265625 18.828125 12.890625 
Q 22.859375 7.515625 30.078125 7.515625 
Q 37.359375 7.515625 41.375 12.890625 
Q 45.40625 18.265625 45.40625 27.984375 
z
M 54.390625 6.78125 
Q 54.390625 -7.171875 48.1875 -13.984375 
Q 42 -20.796875 29.203125 -20.796875 
Q 24.46875 -20.796875 20.265625 -20.09375 
Q 16.0625 -19.390625 12.109375 -17.921875 
L 12.109375 -9.1875 
Q 16.0625 -11.328125 19.921875 -12.34375 
Q 23.78125 -13.375 27.78125 -13.375 
Q 36.625 -13.375 41.015625 -8.765625 
Q 45.40625 -4.15625 45.40625 5.171875 
L 45.40625 9.625 
Q 42.625 4.78125 38.28125 2.390625 
Q 33.9375 0 27.875 0 
Q 17.828125 0 11.671875 7.65625 
Q 5.515625 15.328125 5.515625 27.984375 
Q 5.515625 40.671875 11.671875 48.328125 
Q 17.828125 56 27.875 56 
Q 33.9375 56 38.28125 53.609375 
Q 42.625 51.21875 45.40625 46.390625 
L 45.40625 54.6875 
L 54.390625 54.6875 
z
" id="DejaVuSans-103"/>
     </defs>
     <g transform="translate(745.3475 298.62875)scale(0.24 -0.24)">
      <use xlink:href="#DejaVuSans-67"/>
      <use x="69.824219" xlink:href="#DejaVuSans-104"/>
      <use x="133.203125" xlink:href="#DejaVuSans-97"/>
      <use x="194.482422" xlink:href="#DejaVuSans-109"/>
      <use x="291.894531" xlink:href="#DejaVuSans-112"/>
      <use x="355.371094" xlink:href="#DejaVuSans-97"/>
      <use x="416.650391" xlink:href="#DejaVuSans-105"/>
      <use x="444.433594" xlink:href="#DejaVuSans-103"/>
      <use x="507.910156" xlink:href="#DejaVuSans-110"/>
      <use x="571.289062" xlink:href="#DejaVuSans-32"/>
      <use x="603.076172" xlink:href="#DejaVuSans-78"/>
      <use x="677.880859" xlink:href="#DejaVuSans-61"/>
      <use x="761.669922" xlink:href="#DejaVuSans-53"/>
      <use x="825.292969" xlink:href="#DejaVuSans-53"/>
     </g>
    </g>
    <g id="line2d_42">
     <path d="M 678.1475 325.45625 
L 726.1475 325.45625 
" style="fill:none;stroke:#bcbd22;stroke-linecap:square;stroke-width:8;"/>
    </g>
    <g id="line2d_43"/>
    <g id="text_22">
     <!-- NYC N=68 -->
     <defs>
      <path d="M -0.203125 72.90625 
L 10.40625 72.90625 
L 30.609375 42.921875 
L 50.6875 72.90625 
L 61.28125 72.90625 
L 35.5 34.71875 
L 35.5 0 
L 25.59375 0 
L 25.59375 34.71875 
z
" id="DejaVuSans-89"/>
     </defs>
     <g transform="translate(745.3475 333.85625)scale(0.24 -0.24)">
      <use xlink:href="#DejaVuSans-78"/>
      <use x="74.804688" xlink:href="#DejaVuSans-89"/>
      <use x="135.810547" xlink:href="#DejaVuSans-67"/>
      <use x="205.634766" xlink:href="#DejaVuSans-32"/>
      <use x="237.421875" xlink:href="#DejaVuSans-78"/>
      <use x="312.226562" xlink:href="#DejaVuSans-61"/>
      <use x="396.015625" xlink:href="#DejaVuSans-54"/>
      <use x="459.638672" xlink:href="#DejaVuSans-56"/>
     </g>
    </g>
    <g id="line2d_44">
     <path d="M 678.1475 360.68375 
L 726.1475 360.68375 
" style="fill:none;stroke:#17becf;stroke-linecap:square;stroke-width:8;"/>
    </g>
    <g id="line2d_45"/>
    <g id="text_23">
     <!-- Denver N=83 -->
     <defs>
      <path d="M 19.671875 64.796875 
L 19.671875 8.109375 
L 31.59375 8.109375 
Q 46.6875 8.109375 53.6875 14.9375 
Q 60.6875 21.78125 60.6875 36.53125 
Q 60.6875 51.171875 53.6875 57.984375 
Q 46.6875 64.796875 31.59375 64.796875 
z
M 9.8125 72.90625 
L 30.078125 72.90625 
Q 51.265625 72.90625 61.171875 64.09375 
Q 71.09375 55.28125 71.09375 36.53125 
Q 71.09375 17.671875 61.125 8.828125 
Q 51.171875 0 30.078125 0 
L 9.8125 0 
z
" id="DejaVuSans-68"/>
      <path d="M 2.984375 54.6875 
L 12.5 54.6875 
L 29.59375 8.796875 
L 46.6875 54.6875 
L 56.203125 54.6875 
L 35.6875 0 
L 23.484375 0 
z
" id="DejaVuSans-118"/>
     </defs>
     <g transform="translate(745.3475 369.08375)scale(0.24 -0.24)">
      <use xlink:href="#DejaVuSans-68"/>
      <use x="77.001953" xlink:href="#DejaVuSans-101"/>
      <use x="138.525391" xlink:href="#DejaVuSans-110"/>
      <use x="201.904297" xlink:href="#DejaVuSans-118"/>
      <use x="261.083984" xlink:href="#DejaVuSans-101"/>
      <use x="322.607422" xlink:href="#DejaVuSans-114"/>
      <use x="363.720703" xlink:href="#DejaVuSans-32"/>
      <use x="395.507812" xlink:href="#DejaVuSans-78"/>
      <use x="470.3125" xlink:href="#DejaVuSans-61"/>
      <use x="554.101562" xlink:href="#DejaVuSans-56"/>
      <use x="617.724609" xlink:href="#DejaVuSans-51"/>
     </g>
    </g>
    <g id="line2d_46">
     <path d="M 678.1475 395.91125 
L 726.1475 395.91125 
" style="fill:none;stroke:#1f77b4;stroke-linecap:square;stroke-width:8;"/>
    </g>
    <g id="line2d_47"/>
    <g id="text_24">
     <!-- SanFrancisco N=99 -->
     <defs>
      <path d="M 9.8125 72.90625 
L 51.703125 72.90625 
L 51.703125 64.59375 
L 19.671875 64.59375 
L 19.671875 43.109375 
L 48.578125 43.109375 
L 48.578125 34.8125 
L 19.671875 34.8125 
L 19.671875 0 
L 9.8125 0 
z
" id="DejaVuSans-70"/>
     </defs>
     <g transform="translate(745.3475 404.31125)scale(0.24 -0.24)">
      <use xlink:href="#DejaVuSans-83"/>
      <use x="63.476562" xlink:href="#DejaVuSans-97"/>
      <use x="124.755859" xlink:href="#DejaVuSans-110"/>
      <use x="188.134766" xlink:href="#DejaVuSans-70"/>
      <use x="245.544922" xlink:href="#DejaVuSans-114"/>
      <use x="286.658203" xlink:href="#DejaVuSans-97"/>
      <use x="347.9375" xlink:href="#DejaVuSans-110"/>
      <use x="411.316406" xlink:href="#DejaVuSans-99"/>
      <use x="466.296875" xlink:href="#DejaVuSans-105"/>
      <use x="494.080078" xlink:href="#DejaVuSans-115"/>
      <use x="546.179688" xlink:href="#DejaVuSans-99"/>
      <use x="601.160156" xlink:href="#DejaVuSans-111"/>
      <use x="662.341797" xlink:href="#DejaVuSans-32"/>
      <use x="694.128906" xlink:href="#DejaVuSans-78"/>
      <use x="768.933594" xlink:href="#DejaVuSans-61"/>
      <use x="852.722656" xlink:href="#DejaVuSans-57"/>
      <use x="916.345703" xlink:href="#DejaVuSans-57"/>
     </g>
    </g>
    <g id="line2d_48">
     <path d="M 678.1475 431.13875 
L 726.1475 431.13875 
" style="fill:none;stroke:#ff7f0e;stroke-linecap:square;stroke-width:8;"/>
    </g>
    <g id="line2d_49"/>
    <g id="text_25">
     <!-- UMissouri N=106 -->
     <defs>
      <path d="M 9.8125 72.90625 
L 24.515625 72.90625 
L 43.109375 23.296875 
L 61.8125 72.90625 
L 76.515625 72.90625 
L 76.515625 0 
L 66.890625 0 
L 66.890625 64.015625 
L 48.09375 14.015625 
L 38.1875 14.015625 
L 19.390625 64.015625 
L 19.390625 0 
L 9.8125 0 
z
" id="DejaVuSans-77"/>
     </defs>
     <g transform="translate(745.3475 439.53875)scale(0.24 -0.24)">
      <use xlink:href="#DejaVuSans-85"/>
      <use x="73.193359" xlink:href="#DejaVuSans-77"/>
      <use x="159.472656" xlink:href="#DejaVuSans-105"/>
      <use x="187.255859" xlink:href="#DejaVuSans-115"/>
      <use x="239.355469" xlink:href="#DejaVuSans-115"/>
      <use x="291.455078" xlink:href="#DejaVuSans-111"/>
      <use x="352.636719" xlink:href="#DejaVuSans-117"/>
      <use x="416.015625" xlink:href="#DejaVuSans-114"/>
      <use x="457.128906" xlink:href="#DejaVuSans-105"/>
      <use x="484.912109" xlink:href="#DejaVuSans-32"/>
      <use x="516.699219" xlink:href="#DejaVuSans-78"/>
      <use x="591.503906" xlink:href="#DejaVuSans-61"/>
      <use x="675.292969" xlink:href="#DejaVuSans-49"/>
      <use x="738.916016" xlink:href="#DejaVuSans-48"/>
      <use x="802.539062" xlink:href="#DejaVuSans-54"/>
     </g>
    </g>
    <g id="line2d_50">
     <path d="M 678.1475 466.36625 
L 726.1475 466.36625 
" style="fill:none;stroke:#2ca02c;stroke-linecap:square;stroke-width:8;"/>
    </g>
    <g id="line2d_51"/>
    <g id="text_26">
     <!-- Toronto N=109 -->
     <g transform="translate(745.3475 474.76625)scale(0.24 -0.24)">
      <use xlink:href="#DejaVuSans-84"/>
      <use x="60.818359" xlink:href="#DejaVuSans-111"/>
      <use x="122" xlink:href="#DejaVuSans-114"/>
      <use x="163.082031" xlink:href="#DejaVuSans-111"/>
      <use x="224.263672" xlink:href="#DejaVuSans-110"/>
      <use x="287.642578" xlink:href="#DejaVuSans-116"/>
      <use x="326.851562" xlink:href="#DejaVuSans-111"/>
      <use x="388.033203" xlink:href="#DejaVuSans-32"/>
      <use x="419.820312" xlink:href="#DejaVuSans-78"/>
      <use x="494.625" xlink:href="#DejaVuSans-61"/>
      <use x="578.414062" xlink:href="#DejaVuSans-49"/>
      <use x="642.037109" xlink:href="#DejaVuSans-48"/>
      <use x="705.660156" xlink:href="#DejaVuSans-57"/>
     </g>
    </g>
    <g id="line2d_52">
     <path d="M 678.1475 501.59375 
L 726.1475 501.59375 
" style="fill:none;stroke:#d62728;stroke-linecap:square;stroke-width:8;"/>
    </g>
    <g id="line2d_53"/>
    <g id="text_27">
     <!-- Roanoke N=230 -->
     <defs>
      <path d="M 44.390625 34.1875 
Q 47.5625 33.109375 50.5625 29.59375 
Q 53.5625 26.078125 56.59375 19.921875 
L 66.609375 0 
L 56 0 
L 46.6875 18.703125 
Q 43.0625 26.03125 39.671875 28.421875 
Q 36.28125 30.8125 30.421875 30.8125 
L 19.671875 30.8125 
L 19.671875 0 
L 9.8125 0 
L 9.8125 72.90625 
L 32.078125 72.90625 
Q 44.578125 72.90625 50.734375 67.671875 
Q 56.890625 62.453125 56.890625 51.90625 
Q 56.890625 45.015625 53.6875 40.46875 
Q 50.484375 35.9375 44.390625 34.1875 
z
M 19.671875 64.796875 
L 19.671875 38.921875 
L 32.078125 38.921875 
Q 39.203125 38.921875 42.84375 42.21875 
Q 46.484375 45.515625 46.484375 51.90625 
Q 46.484375 58.296875 42.84375 61.546875 
Q 39.203125 64.796875 32.078125 64.796875 
z
" id="DejaVuSans-82"/>
      <path d="M 9.078125 75.984375 
L 18.109375 75.984375 
L 18.109375 31.109375 
L 44.921875 54.6875 
L 56.390625 54.6875 
L 27.390625 29.109375 
L 57.625 0 
L 45.90625 0 
L 18.109375 26.703125 
L 18.109375 0 
L 9.078125 0 
z
" id="DejaVuSans-107"/>
     </defs>
     <g transform="translate(745.3475 509.99375)scale(0.24 -0.24)">
      <use xlink:href="#DejaVuSans-82"/>
      <use x="69.419922" xlink:href="#DejaVuSans-111"/>
      <use x="130.601562" xlink:href="#DejaVuSans-97"/>
      <use x="191.880859" xlink:href="#DejaVuSans-110"/>
      <use x="255.259766" xlink:href="#DejaVuSans-111"/>
      <use x="316.441406" xlink:href="#DejaVuSans-107"/>
      <use x="374.304688" xlink:href="#DejaVuSans-101"/>
      <use x="435.828125" xlink:href="#DejaVuSans-32"/>
      <use x="467.615234" xlink:href="#DejaVuSans-78"/>
      <use x="542.419922" xlink:href="#DejaVuSans-61"/>
      <use x="626.208984" xlink:href="#DejaVuSans-50"/>
      <use x="689.832031" xlink:href="#DejaVuSans-51"/>
      <use x="753.455078" xlink:href="#DejaVuSans-48"/>
     </g>
    </g>
   </g>
  </g>
 </g>
 <defs>
  <clipPath id="p3c9ca4a9b7">
   <rect height="443.52" width="892.8" x="116.84" y="12.2"/>
  </clipPath>
 </defs>
</svg>
