<?xml version="1.0" encoding="utf-8" standalone="no"?>
<!DOCTYPE svg PUBLIC "-//W3C//DTD SVG 1.1//EN"
  "http://www.w3.org/Graphics/SVG/1.1/DTD/svg11.dtd">
<!-- Created with matplotlib (https://matplotlib.org/) -->
<svg height="531.785pt" version="1.1" viewBox="0 0 988.755 531.785" width="988.755pt" xmlns="http://www.w3.org/2000/svg" xmlns:xlink="http://www.w3.org/1999/xlink">
 <defs>
  <style type="text/css">
*{stroke-linecap:butt;stroke-linejoin:round;}
  </style>
 </defs>
 <g id="figure_1">
  <g id="patch_1">
   <path d="M 0 531.785 
L 988.755 531.785 
L 988.755 0 
L 0 0 
z
" style="fill:#ffffff;"/>
  </g>
  <g id="axes_1">
   <g id="patch_2">
    <path d="M 83.755 455.72 
L 976.555 455.72 
L 976.555 12.2 
L 83.755 12.2 
z
" style="fill:#ffffff;"/>
   </g>
   <g id="matplotlib.axis_1">
    <g id="xtick_1">
     <g id="line2d_1">
      <defs>
       <path d="M 0 5 
L 0 -5 
" id="m639420eef0" style="stroke:#525252;stroke-width:4;"/>
      </defs>
      <g>
       <use style="fill:#525252;stroke:#525252;stroke-width:4;" x="83.755" xlink:href="#m639420eef0" y="455.72"/>
      </g>
     </g>
     <g id="text_1">
      <!-- $\mathdefault{10^{1}}$ -->
      <defs>
       <path d="M 12.40625 8.296875 
L 28.515625 8.296875 
L 28.515625 63.921875 
L 10.984375 60.40625 
L 10.984375 69.390625 
L 28.421875 72.90625 
L 38.28125 72.90625 
L 38.28125 8.296875 
L 54.390625 8.296875 
L 54.390625 0 
L 12.40625 0 
z
" id="DejaVuSans-49"/>
       <path d="M 31.78125 66.40625 
Q 24.171875 66.40625 20.328125 58.90625 
Q 16.5 51.421875 16.5 36.375 
Q 16.5 21.390625 20.328125 13.890625 
Q 24.171875 6.390625 31.78125 6.390625 
Q 39.453125 6.390625 43.28125 13.890625 
Q 47.125 21.390625 47.125 36.375 
Q 47.125 51.421875 43.28125 58.90625 
Q 39.453125 66.40625 31.78125 66.40625 
z
M 31.78125 74.21875 
Q 44.046875 74.21875 50.515625 64.515625 
Q 56.984375 54.828125 56.984375 36.375 
Q 56.984375 17.96875 50.515625 8.265625 
Q 44.046875 -1.421875 31.78125 -1.421875 
Q 19.53125 -1.421875 13.0625 8.265625 
Q 6.59375 17.96875 6.59375 36.375 
Q 6.59375 54.828125 13.0625 64.515625 
Q 19.53125 74.21875 31.78125 74.21875 
z
" id="DejaVuSans-48"/>
      </defs>
      <g transform="translate(62.635 482.45625)scale(0.24 -0.24)">
       <use transform="translate(0 0.684375)" xlink:href="#DejaVuSans-49"/>
       <use transform="translate(63.623047 0.684375)" xlink:href="#DejaVuSans-48"/>
       <use transform="translate(128.203125 38.965625)scale(0.7)" xlink:href="#DejaVuSans-49"/>
      </g>
     </g>
    </g>
    <g id="xtick_2">
     <g id="line2d_2">
      <g>
       <use style="fill:#525252;stroke:#525252;stroke-width:4;" x="282.155" xlink:href="#m639420eef0" y="455.72"/>
      </g>
     </g>
     <g id="text_2">
      <!-- $\mathdefault{10^{3}}$ -->
      <defs>
       <path d="M 40.578125 39.3125 
Q 47.65625 37.796875 51.625 33 
Q 55.609375 28.21875 55.609375 21.1875 
Q 55.609375 10.40625 48.1875 4.484375 
Q 40.765625 -1.421875 27.09375 -1.421875 
Q 22.515625 -1.421875 17.65625 -0.515625 
Q 12.796875 0.390625 7.625 2.203125 
L 7.625 11.71875 
Q 11.71875 9.328125 16.59375 8.109375 
Q 21.484375 6.890625 26.8125 6.890625 
Q 36.078125 6.890625 40.9375 10.546875 
Q 45.796875 14.203125 45.796875 21.1875 
Q 45.796875 27.640625 41.28125 31.265625 
Q 36.765625 34.90625 28.71875 34.90625 
L 20.21875 34.90625 
L 20.21875 43.015625 
L 29.109375 43.015625 
Q 36.375 43.015625 40.234375 45.921875 
Q 44.09375 48.828125 44.09375 54.296875 
Q 44.09375 59.90625 40.109375 62.90625 
Q 36.140625 65.921875 28.71875 65.921875 
Q 24.65625 65.921875 20.015625 65.03125 
Q 15.375 64.15625 9.8125 62.3125 
L 9.8125 71.09375 
Q 15.4375 72.65625 20.34375 73.4375 
Q 25.25 74.21875 29.59375 74.21875 
Q 40.828125 74.21875 47.359375 69.109375 
Q 53.90625 64.015625 53.90625 55.328125 
Q 53.90625 49.265625 50.4375 45.09375 
Q 46.96875 40.921875 40.578125 39.3125 
z
" id="DejaVuSans-51"/>
      </defs>
      <g transform="translate(261.035 482.45625)scale(0.24 -0.24)">
       <use transform="translate(0 0.765625)" xlink:href="#DejaVuSans-49"/>
       <use transform="translate(63.623047 0.765625)" xlink:href="#DejaVuSans-48"/>
       <use transform="translate(128.203125 39.046875)scale(0.7)" xlink:href="#DejaVuSans-51"/>
      </g>
     </g>
    </g>
    <g id="xtick_3">
     <g id="line2d_3">
      <g>
       <use style="fill:#525252;stroke:#525252;stroke-width:4;" x="480.555" xlink:href="#m639420eef0" y="455.72"/>
      </g>
     </g>
     <g id="text_3">
      <!-- $\mathdefault{10^{5}}$ -->
      <defs>
       <path d="M 10.796875 72.90625 
L 49.515625 72.90625 
L 49.515625 64.59375 
L 19.828125 64.59375 
L 19.828125 46.734375 
Q 21.96875 47.46875 24.109375 47.828125 
Q 26.265625 48.1875 28.421875 48.1875 
Q 40.625 48.1875 47.75 41.5 
Q 54.890625 34.8125 54.890625 23.390625 
Q 54.890625 11.625 47.5625 5.09375 
Q 40.234375 -1.421875 26.90625 -1.421875 
Q 22.3125 -1.421875 17.546875 -0.640625 
Q 12.796875 0.140625 7.71875 1.703125 
L 7.71875 11.625 
Q 12.109375 9.234375 16.796875 8.0625 
Q 21.484375 6.890625 26.703125 6.890625 
Q 35.15625 6.890625 40.078125 11.328125 
Q 45.015625 15.765625 45.015625 23.390625 
Q 45.015625 31 40.078125 35.4375 
Q 35.15625 39.890625 26.703125 39.890625 
Q 22.75 39.890625 18.8125 39.015625 
Q 14.890625 38.140625 10.796875 36.28125 
z
" id="DejaVuSans-53"/>
      </defs>
      <g transform="translate(459.435 482.45625)scale(0.24 -0.24)">
       <use transform="translate(0 0.684375)" xlink:href="#DejaVuSans-49"/>
       <use transform="translate(63.623047 0.684375)" xlink:href="#DejaVuSans-48"/>
       <use transform="translate(128.203125 38.965625)scale(0.7)" xlink:href="#DejaVuSans-53"/>
      </g>
     </g>
    </g>
    <g id="xtick_4">
     <g id="line2d_4">
      <g>
       <use style="fill:#525252;stroke:#525252;stroke-width:4;" x="678.955" xlink:href="#m639420eef0" y="455.72"/>
      </g>
     </g>
     <g id="text_4">
      <!-- $\mathdefault{10^{7}}$ -->
      <defs>
       <path d="M 8.203125 72.90625 
L 55.078125 72.90625 
L 55.078125 68.703125 
L 28.609375 0 
L 18.3125 0 
L 43.21875 64.59375 
L 8.203125 64.59375 
z
" id="DejaVuSans-55"/>
      </defs>
      <g transform="translate(657.835 482.45625)scale(0.24 -0.24)">
       <use transform="translate(0 0.684375)" xlink:href="#DejaVuSans-49"/>
       <use transform="translate(63.623047 0.684375)" xlink:href="#DejaVuSans-48"/>
       <use transform="translate(128.203125 38.965625)scale(0.7)" xlink:href="#DejaVuSans-55"/>
      </g>
     </g>
    </g>
    <g id="xtick_5">
     <g id="line2d_5">
      <g>
       <use style="fill:#525252;stroke:#525252;stroke-width:4;" x="877.355" xlink:href="#m639420eef0" y="455.72"/>
      </g>
     </g>
     <g id="text_5">
      <!-- $\mathdefault{10^{9}}$ -->
      <defs>
       <path d="M 10.984375 1.515625 
L 10.984375 10.5 
Q 14.703125 8.734375 18.5 7.8125 
Q 22.3125 6.890625 25.984375 6.890625 
Q 35.75 6.890625 40.890625 13.453125 
Q 46.046875 20.015625 46.78125 33.40625 
Q 43.953125 29.203125 39.59375 26.953125 
Q 35.25 24.703125 29.984375 24.703125 
Q 19.046875 24.703125 12.671875 31.3125 
Q 6.296875 37.9375 6.296875 49.421875 
Q 6.296875 60.640625 12.9375 67.421875 
Q 19.578125 74.21875 30.609375 74.21875 
Q 43.265625 74.21875 49.921875 64.515625 
Q 56.59375 54.828125 56.59375 36.375 
Q 56.59375 19.140625 48.40625 8.859375 
Q 40.234375 -1.421875 26.421875 -1.421875 
Q 22.703125 -1.421875 18.890625 -0.6875 
Q 15.09375 0.046875 10.984375 1.515625 
z
M 30.609375 32.421875 
Q 37.25 32.421875 41.125 36.953125 
Q 45.015625 41.5 45.015625 49.421875 
Q 45.015625 57.28125 41.125 61.84375 
Q 37.25 66.40625 30.609375 66.40625 
Q 23.96875 66.40625 20.09375 61.84375 
Q 16.21875 57.28125 16.21875 49.421875 
Q 16.21875 41.5 20.09375 36.953125 
Q 23.96875 32.421875 30.609375 32.421875 
z
" id="DejaVuSans-57"/>
      </defs>
      <g transform="translate(856.235 482.45625)scale(0.24 -0.24)">
       <use transform="translate(0 0.765625)" xlink:href="#DejaVuSans-49"/>
       <use transform="translate(63.623047 0.765625)" xlink:href="#DejaVuSans-48"/>
       <use transform="translate(128.203125 39.046875)scale(0.7)" xlink:href="#DejaVuSans-57"/>
      </g>
     </g>
    </g>
    <g id="text_6">
     <!-- Time (ms) -->
     <defs>
      <path d="M -0.296875 72.90625 
L 61.375 72.90625 
L 61.375 64.59375 
L 35.5 64.59375 
L 35.5 0 
L 25.59375 0 
L 25.59375 64.59375 
L -0.296875 64.59375 
z
" id="DejaVuSans-84"/>
      <path d="M 9.421875 54.6875 
L 18.40625 54.6875 
L 18.40625 0 
L 9.421875 0 
z
M 9.421875 75.984375 
L 18.40625 75.984375 
L 18.40625 64.59375 
L 9.421875 64.59375 
z
" id="DejaVuSans-105"/>
      <path d="M 52 44.1875 
Q 55.375 50.25 60.0625 53.125 
Q 64.75 56 71.09375 56 
Q 79.640625 56 84.28125 50.015625 
Q 88.921875 44.046875 88.921875 33.015625 
L 88.921875 0 
L 79.890625 0 
L 79.890625 32.71875 
Q 79.890625 40.578125 77.09375 44.375 
Q 74.3125 48.1875 68.609375 48.1875 
Q 61.625 48.1875 57.5625 43.546875 
Q 53.515625 38.921875 53.515625 30.90625 
L 53.515625 0 
L 44.484375 0 
L 44.484375 32.71875 
Q 44.484375 40.625 41.703125 44.40625 
Q 38.921875 48.1875 33.109375 48.1875 
Q 26.21875 48.1875 22.15625 43.53125 
Q 18.109375 38.875 18.109375 30.90625 
L 18.109375 0 
L 9.078125 0 
L 9.078125 54.6875 
L 18.109375 54.6875 
L 18.109375 46.1875 
Q 21.1875 51.21875 25.484375 53.609375 
Q 29.78125 56 35.6875 56 
Q 41.65625 56 45.828125 52.96875 
Q 50 49.953125 52 44.1875 
z
" id="DejaVuSans-109"/>
      <path d="M 56.203125 29.59375 
L 56.203125 25.203125 
L 14.890625 25.203125 
Q 15.484375 15.921875 20.484375 11.0625 
Q 25.484375 6.203125 34.421875 6.203125 
Q 39.59375 6.203125 44.453125 7.46875 
Q 49.3125 8.734375 54.109375 11.28125 
L 54.109375 2.78125 
Q 49.265625 0.734375 44.1875 -0.34375 
Q 39.109375 -1.421875 33.890625 -1.421875 
Q 20.796875 -1.421875 13.15625 6.1875 
Q 5.515625 13.8125 5.515625 26.8125 
Q 5.515625 40.234375 12.765625 48.109375 
Q 20.015625 56 32.328125 56 
Q 43.359375 56 49.78125 48.890625 
Q 56.203125 41.796875 56.203125 29.59375 
z
M 47.21875 32.234375 
Q 47.125 39.59375 43.09375 43.984375 
Q 39.0625 48.390625 32.421875 48.390625 
Q 24.90625 48.390625 20.390625 44.140625 
Q 15.875 39.890625 15.1875 32.171875 
z
" id="DejaVuSans-101"/>
      <path id="DejaVuSans-32"/>
      <path d="M 31 75.875 
Q 24.46875 64.65625 21.28125 53.65625 
Q 18.109375 42.671875 18.109375 31.390625 
Q 18.109375 20.125 21.3125 9.0625 
Q 24.515625 -2 31 -13.1875 
L 23.1875 -13.1875 
Q 15.875 -1.703125 12.234375 9.375 
Q 8.59375 20.453125 8.59375 31.390625 
Q 8.59375 42.28125 12.203125 53.3125 
Q 15.828125 64.359375 23.1875 75.875 
z
" id="DejaVuSans-40"/>
      <path d="M 44.28125 53.078125 
L 44.28125 44.578125 
Q 40.484375 46.53125 36.375 47.5 
Q 32.28125 48.484375 27.875 48.484375 
Q 21.1875 48.484375 17.84375 46.4375 
Q 14.5 44.390625 14.5 40.28125 
Q 14.5 37.15625 16.890625 35.375 
Q 19.28125 33.59375 26.515625 31.984375 
L 29.59375 31.296875 
Q 39.15625 29.25 43.1875 25.515625 
Q 47.21875 21.78125 47.21875 15.09375 
Q 47.21875 7.46875 41.1875 3.015625 
Q 35.15625 -1.421875 24.609375 -1.421875 
Q 20.21875 -1.421875 15.453125 -0.5625 
Q 10.6875 0.296875 5.421875 2 
L 5.421875 11.28125 
Q 10.40625 8.6875 15.234375 7.390625 
Q 20.0625 6.109375 24.8125 6.109375 
Q 31.15625 6.109375 34.5625 8.28125 
Q 37.984375 10.453125 37.984375 14.40625 
Q 37.984375 18.0625 35.515625 20.015625 
Q 33.0625 21.96875 24.703125 23.78125 
L 21.578125 24.515625 
Q 13.234375 26.265625 9.515625 29.90625 
Q 5.8125 33.546875 5.8125 39.890625 
Q 5.8125 47.609375 11.28125 51.796875 
Q 16.75 56 26.8125 56 
Q 31.78125 56 36.171875 55.265625 
Q 40.578125 54.546875 44.28125 53.078125 
z
" id="DejaVuSans-115"/>
      <path d="M 8.015625 75.875 
L 15.828125 75.875 
Q 23.140625 64.359375 26.78125 53.3125 
Q 30.421875 42.28125 30.421875 31.390625 
Q 30.421875 20.453125 26.78125 9.375 
Q 23.140625 -1.703125 15.828125 -13.1875 
L 8.015625 -13.1875 
Q 14.5 -2 17.703125 9.0625 
Q 20.90625 20.125 20.90625 31.390625 
Q 20.90625 42.671875 17.703125 53.65625 
Q 14.5 64.65625 8.015625 75.875 
z
" id="DejaVuSans-41"/>
     </defs>
     <g transform="translate(449.025 515.7625)scale(0.32 -0.32)">
      <use xlink:href="#DejaVuSans-84"/>
      <use x="61.037109" xlink:href="#DejaVuSans-105"/>
      <use x="88.820312" xlink:href="#DejaVuSans-109"/>
      <use x="186.232422" xlink:href="#DejaVuSans-101"/>
      <use x="247.755859" xlink:href="#DejaVuSans-32"/>
      <use x="279.542969" xlink:href="#DejaVuSans-40"/>
      <use x="318.556641" xlink:href="#DejaVuSans-109"/>
      <use x="415.96875" xlink:href="#DejaVuSans-115"/>
      <use x="468.068359" xlink:href="#DejaVuSans-41"/>
     </g>
    </g>
   </g>
   <g id="matplotlib.axis_2">
    <g id="ytick_1">
     <g id="line2d_6">
      <defs>
       <path d="M 5 0 
L -5 -0 
" id="md9ae47875b" style="stroke:#525252;stroke-width:4;"/>
      </defs>
      <g>
       <use style="fill:#525252;stroke:#525252;stroke-width:4;" x="83.755" xlink:href="#md9ae47875b" y="435.56"/>
      </g>
     </g>
     <g id="text_7">
      <!-- 0 -->
      <g transform="translate(58.7125 445.437969)scale(0.26 -0.26)">
       <use xlink:href="#DejaVuSans-48"/>
      </g>
     </g>
    </g>
    <g id="ytick_2">
     <g id="line2d_7">
      <g>
       <use style="fill:#525252;stroke:#525252;stroke-width:4;" x="83.755" xlink:href="#md9ae47875b" y="373.923376"/>
      </g>
     </g>
     <g id="text_8">
      <!-- 2 -->
      <defs>
       <path d="M 19.1875 8.296875 
L 53.609375 8.296875 
L 53.609375 0 
L 7.328125 0 
L 7.328125 8.296875 
Q 12.9375 14.109375 22.625 23.890625 
Q 32.328125 33.6875 34.8125 36.53125 
Q 39.546875 41.84375 41.421875 45.53125 
Q 43.3125 49.21875 43.3125 52.78125 
Q 43.3125 58.59375 39.234375 62.25 
Q 35.15625 65.921875 28.609375 65.921875 
Q 23.96875 65.921875 18.8125 64.3125 
Q 13.671875 62.703125 7.8125 59.421875 
L 7.8125 69.390625 
Q 13.765625 71.78125 18.9375 73 
Q 24.125 74.21875 28.421875 74.21875 
Q 39.75 74.21875 46.484375 68.546875 
Q 53.21875 62.890625 53.21875 53.421875 
Q 53.21875 48.921875 51.53125 44.890625 
Q 49.859375 40.875 45.40625 35.40625 
Q 44.1875 33.984375 37.640625 27.21875 
Q 31.109375 20.453125 19.1875 8.296875 
z
" id="DejaVuSans-50"/>
      </defs>
      <g transform="translate(58.7125 383.801344)scale(0.26 -0.26)">
       <use xlink:href="#DejaVuSans-50"/>
      </g>
     </g>
    </g>
    <g id="ytick_3">
     <g id="line2d_8">
      <g>
       <use style="fill:#525252;stroke:#525252;stroke-width:4;" x="83.755" xlink:href="#md9ae47875b" y="312.286751"/>
      </g>
     </g>
     <g id="text_9">
      <!-- 4 -->
      <defs>
       <path d="M 37.796875 64.3125 
L 12.890625 25.390625 
L 37.796875 25.390625 
z
M 35.203125 72.90625 
L 47.609375 72.90625 
L 47.609375 25.390625 
L 58.015625 25.390625 
L 58.015625 17.1875 
L 47.609375 17.1875 
L 47.609375 0 
L 37.796875 0 
L 37.796875 17.1875 
L 4.890625 17.1875 
L 4.890625 26.703125 
z
" id="DejaVuSans-52"/>
      </defs>
      <g transform="translate(58.7125 322.16472)scale(0.26 -0.26)">
       <use xlink:href="#DejaVuSans-52"/>
      </g>
     </g>
    </g>
    <g id="ytick_4">
     <g id="line2d_9">
      <g>
       <use style="fill:#525252;stroke:#525252;stroke-width:4;" x="83.755" xlink:href="#md9ae47875b" y="250.650127"/>
      </g>
     </g>
     <g id="text_10">
      <!-- 6 -->
      <defs>
       <path d="M 33.015625 40.375 
Q 26.375 40.375 22.484375 35.828125 
Q 18.609375 31.296875 18.609375 23.390625 
Q 18.609375 15.53125 22.484375 10.953125 
Q 26.375 6.390625 33.015625 6.390625 
Q 39.65625 6.390625 43.53125 10.953125 
Q 47.40625 15.53125 47.40625 23.390625 
Q 47.40625 31.296875 43.53125 35.828125 
Q 39.65625 40.375 33.015625 40.375 
z
M 52.59375 71.296875 
L 52.59375 62.3125 
Q 48.875 64.0625 45.09375 64.984375 
Q 41.3125 65.921875 37.59375 65.921875 
Q 27.828125 65.921875 22.671875 59.328125 
Q 17.53125 52.734375 16.796875 39.40625 
Q 19.671875 43.65625 24.015625 45.921875 
Q 28.375 48.1875 33.59375 48.1875 
Q 44.578125 48.1875 50.953125 41.515625 
Q 57.328125 34.859375 57.328125 23.390625 
Q 57.328125 12.15625 50.6875 5.359375 
Q 44.046875 -1.421875 33.015625 -1.421875 
Q 20.359375 -1.421875 13.671875 8.265625 
Q 6.984375 17.96875 6.984375 36.375 
Q 6.984375 53.65625 15.1875 63.9375 
Q 23.390625 74.21875 37.203125 74.21875 
Q 40.921875 74.21875 44.703125 73.484375 
Q 48.484375 72.75 52.59375 71.296875 
z
" id="DejaVuSans-54"/>
      </defs>
      <g transform="translate(58.7125 260.528096)scale(0.26 -0.26)">
       <use xlink:href="#DejaVuSans-54"/>
      </g>
     </g>
    </g>
    <g id="ytick_5">
     <g id="line2d_10">
      <g>
       <use style="fill:#525252;stroke:#525252;stroke-width:4;" x="83.755" xlink:href="#md9ae47875b" y="189.013503"/>
      </g>
     </g>
     <g id="text_11">
      <!-- 8 -->
      <defs>
       <path d="M 31.78125 34.625 
Q 24.75 34.625 20.71875 30.859375 
Q 16.703125 27.09375 16.703125 20.515625 
Q 16.703125 13.921875 20.71875 10.15625 
Q 24.75 6.390625 31.78125 6.390625 
Q 38.8125 6.390625 42.859375 10.171875 
Q 46.921875 13.96875 46.921875 20.515625 
Q 46.921875 27.09375 42.890625 30.859375 
Q 38.875 34.625 31.78125 34.625 
z
M 21.921875 38.8125 
Q 15.578125 40.375 12.03125 44.71875 
Q 8.5 49.078125 8.5 55.328125 
Q 8.5 64.0625 14.71875 69.140625 
Q 20.953125 74.21875 31.78125 74.21875 
Q 42.671875 74.21875 48.875 69.140625 
Q 55.078125 64.0625 55.078125 55.328125 
Q 55.078125 49.078125 51.53125 44.71875 
Q 48 40.375 41.703125 38.8125 
Q 48.828125 37.15625 52.796875 32.3125 
Q 56.78125 27.484375 56.78125 20.515625 
Q 56.78125 9.90625 50.3125 4.234375 
Q 43.84375 -1.421875 31.78125 -1.421875 
Q 19.734375 -1.421875 13.25 4.234375 
Q 6.78125 9.90625 6.78125 20.515625 
Q 6.78125 27.484375 10.78125 32.3125 
Q 14.796875 37.15625 21.921875 38.8125 
z
M 18.3125 54.390625 
Q 18.3125 48.734375 21.84375 45.5625 
Q 25.390625 42.390625 31.78125 42.390625 
Q 38.140625 42.390625 41.71875 45.5625 
Q 45.3125 48.734375 45.3125 54.390625 
Q 45.3125 60.0625 41.71875 63.234375 
Q 38.140625 66.40625 31.78125 66.40625 
Q 25.390625 66.40625 21.84375 63.234375 
Q 18.3125 60.0625 18.3125 54.390625 
z
" id="DejaVuSans-56"/>
      </defs>
      <g transform="translate(58.7125 198.891471)scale(0.26 -0.26)">
       <use xlink:href="#DejaVuSans-56"/>
      </g>
     </g>
    </g>
    <g id="ytick_6">
     <g id="line2d_11">
      <g>
       <use style="fill:#525252;stroke:#525252;stroke-width:4;" x="83.755" xlink:href="#md9ae47875b" y="127.376878"/>
      </g>
     </g>
     <g id="text_12">
      <!-- 10 -->
      <g transform="translate(42.17 137.254847)scale(0.26 -0.26)">
       <use xlink:href="#DejaVuSans-49"/>
       <use x="63.623047" xlink:href="#DejaVuSans-48"/>
      </g>
     </g>
    </g>
    <g id="ytick_7">
     <g id="line2d_12">
      <g>
       <use style="fill:#525252;stroke:#525252;stroke-width:4;" x="83.755" xlink:href="#md9ae47875b" y="65.740254"/>
      </g>
     </g>
     <g id="text_13">
      <!-- 12 -->
      <g transform="translate(42.17 75.618223)scale(0.26 -0.26)">
       <use xlink:href="#DejaVuSans-49"/>
       <use x="63.623047" xlink:href="#DejaVuSans-50"/>
      </g>
     </g>
    </g>
    <g id="text_14">
     <!-- Error % -->
     <defs>
      <path d="M 9.8125 72.90625 
L 55.90625 72.90625 
L 55.90625 64.59375 
L 19.671875 64.59375 
L 19.671875 43.015625 
L 54.390625 43.015625 
L 54.390625 34.71875 
L 19.671875 34.71875 
L 19.671875 8.296875 
L 56.78125 8.296875 
L 56.78125 0 
L 9.8125 0 
z
" id="DejaVuSans-69"/>
      <path d="M 41.109375 46.296875 
Q 39.59375 47.171875 37.8125 47.578125 
Q 36.03125 48 33.890625 48 
Q 26.265625 48 22.1875 43.046875 
Q 18.109375 38.09375 18.109375 28.8125 
L 18.109375 0 
L 9.078125 0 
L 9.078125 54.6875 
L 18.109375 54.6875 
L 18.109375 46.1875 
Q 20.953125 51.171875 25.484375 53.578125 
Q 30.03125 56 36.53125 56 
Q 37.453125 56 38.578125 55.875 
Q 39.703125 55.765625 41.0625 55.515625 
z
" id="DejaVuSans-114"/>
      <path d="M 30.609375 48.390625 
Q 23.390625 48.390625 19.1875 42.75 
Q 14.984375 37.109375 14.984375 27.296875 
Q 14.984375 17.484375 19.15625 11.84375 
Q 23.34375 6.203125 30.609375 6.203125 
Q 37.796875 6.203125 41.984375 11.859375 
Q 46.1875 17.53125 46.1875 27.296875 
Q 46.1875 37.015625 41.984375 42.703125 
Q 37.796875 48.390625 30.609375 48.390625 
z
M 30.609375 56 
Q 42.328125 56 49.015625 48.375 
Q 55.71875 40.765625 55.71875 27.296875 
Q 55.71875 13.875 49.015625 6.21875 
Q 42.328125 -1.421875 30.609375 -1.421875 
Q 18.84375 -1.421875 12.171875 6.21875 
Q 5.515625 13.875 5.515625 27.296875 
Q 5.515625 40.765625 12.171875 48.375 
Q 18.84375 56 30.609375 56 
z
" id="DejaVuSans-111"/>
      <path d="M 72.703125 32.078125 
Q 68.453125 32.078125 66.03125 28.46875 
Q 63.625 24.859375 63.625 18.40625 
Q 63.625 12.0625 66.03125 8.421875 
Q 68.453125 4.78125 72.703125 4.78125 
Q 76.859375 4.78125 79.265625 8.421875 
Q 81.6875 12.0625 81.6875 18.40625 
Q 81.6875 24.8125 79.265625 28.4375 
Q 76.859375 32.078125 72.703125 32.078125 
z
M 72.703125 38.28125 
Q 80.421875 38.28125 84.953125 32.90625 
Q 89.5 27.546875 89.5 18.40625 
Q 89.5 9.28125 84.9375 3.921875 
Q 80.375 -1.421875 72.703125 -1.421875 
Q 64.890625 -1.421875 60.34375 3.921875 
Q 55.8125 9.28125 55.8125 18.40625 
Q 55.8125 27.59375 60.375 32.9375 
Q 64.9375 38.28125 72.703125 38.28125 
z
M 22.3125 68.015625 
Q 18.109375 68.015625 15.6875 64.375 
Q 13.28125 60.75 13.28125 54.390625 
Q 13.28125 47.953125 15.671875 44.328125 
Q 18.0625 40.71875 22.3125 40.71875 
Q 26.5625 40.71875 28.96875 44.328125 
Q 31.390625 47.953125 31.390625 54.390625 
Q 31.390625 60.6875 28.953125 64.34375 
Q 26.515625 68.015625 22.3125 68.015625 
z
M 66.40625 74.21875 
L 74.21875 74.21875 
L 28.609375 -1.421875 
L 20.796875 -1.421875 
z
M 22.3125 74.21875 
Q 30.03125 74.21875 34.609375 68.875 
Q 39.203125 63.53125 39.203125 54.390625 
Q 39.203125 45.171875 34.640625 39.84375 
Q 30.078125 34.515625 22.3125 34.515625 
Q 14.546875 34.515625 10.03125 39.859375 
Q 5.515625 45.21875 5.515625 54.390625 
Q 5.515625 63.484375 10.046875 68.84375 
Q 14.59375 74.21875 22.3125 74.21875 
z
" id="DejaVuSans-37"/>
     </defs>
     <g transform="translate(31.515 293.8725)rotate(-90)scale(0.32 -0.32)">
      <use xlink:href="#DejaVuSans-69"/>
      <use x="63.183594" xlink:href="#DejaVuSans-114"/>
      <use x="104.28125" xlink:href="#DejaVuSans-114"/>
      <use x="145.363281" xlink:href="#DejaVuSans-111"/>
      <use x="206.544922" xlink:href="#DejaVuSans-114"/>
      <use x="247.658203" xlink:href="#DejaVuSans-32"/>
      <use x="279.445312" xlink:href="#DejaVuSans-37"/>
     </g>
    </g>
   </g>
   <g id="line2d_13">
    <path clip-path="url(#p14627ec3b3)" d="M 102.166402 435.56 
" style="fill:none;stroke:#1f77b4;stroke-linecap:square;stroke-width:8;"/>
   </g>
   <g id="line2d_14">
    <path clip-path="url(#p14627ec3b3)" d="M 97.627883 294.738101 
L 99.266646 354.551921 
L 101.926893 426.994191 
L 102.524581 435.56 
" style="fill:none;stroke:#ff7f0e;stroke-linecap:square;stroke-width:8;"/>
   </g>
   <g id="line2d_15">
    <path clip-path="url(#p14627ec3b3)" d="M 125.607474 419.384767 
L 129.068668 428.371008 
" style="fill:none;stroke:#2ca02c;stroke-linecap:square;stroke-width:8;"/>
   </g>
   <g id="line2d_16">
    <path clip-path="url(#p14627ec3b3)" d="M 144.924996 323.64738 
L 145.821712 344.676753 
L 146.068875 388.418093 
L 161.915333 403.653737 
L 164.475468 435.56 
" style="fill:none;stroke:#d62728;stroke-linecap:square;stroke-width:8;"/>
   </g>
   <g id="line2d_17">
    <path clip-path="url(#p14627ec3b3)" d="M 185.529511 380.238611 
L 191.45298 385.316195 
L 192.794319 389.272296 
L 195.927808 394.349881 
L 198.407094 396.478051 
L 199.976336 401.555636 
L 202.181947 407.227077 
L 202.220806 411.523155 
L 203.673419 416.60074 
L 208.702684 417.854683 
" style="fill:none;stroke:#9467bd;stroke-linecap:square;stroke-width:8;"/>
   </g>
   <g id="line2d_18">
    <path clip-path="url(#p14627ec3b3)" d="M 199.76017 224.72778 
L 199.855149 227.590474 
L 199.868534 234.49198 
L 203.610516 272.686523 
L 206.681836 303.141445 
L 207.188272 303.710535 
L 207.265283 306.573228 
L 207.276063 313.474735 
L 210.458809 351.669277 
L 213.517142 352.238367 
L 213.583427 355.101061 
L 213.592949 362.002567 
L 218.57555 374.805361 
L 219.0268 393.388727 
L 219.035751 394.547601 
L 223.430858 398.955459 
L 223.935869 402.387243 
L 223.94369 409.288749 
L 229.811369 410.257926 
L 236.162933 410.982222 
L 253.233304 412.972312 
L 256.332503 413.941489 
L 259.005796 414.565763 
L 309.477495 414.817542 
" style="fill:none;stroke:#8c564b;stroke-linecap:square;stroke-width:8;"/>
   </g>
   <g id="line2d_19">
    <path clip-path="url(#p14627ec3b3)" d="M 235.137072 172.815705 
L 243.706997 183.031269 
L 244.239099 190.386474 
L 244.337875 196.515813 
L 244.509674 212.043469 
L 249.373277 222.259033 
L 249.835596 229.614238 
L 249.923353 235.743577 
L 250.811117 239.012557 
L 254.455649 249.228121 
L 254.870176 256.583326 
L 254.947209 262.712664 
L 258.980572 272.928228 
L 259.344512 285.595527 
L 263.0716 295.81109 
L 342.122133 296.628335 
L 342.16156 301.123183 
L 343.00191 303.166296 
" style="fill:none;stroke:#e377c2;stroke-linecap:square;stroke-width:8;"/>
   </g>
   <g id="line2d_20">
    <path clip-path="url(#p14627ec3b3)" d="M 238.103693 356.352553 
L 238.45891 368.002429 
L 238.47245 388.140908 
L 246.046814 394.814706 
L 247.236574 412.845669 
L 252.824948 419.519467 
L 300.394738 419.695094 
L 303.173842 421.744067 
L 347.199818 434.740411 
" style="fill:none;stroke:#7f7f7f;stroke-linecap:square;stroke-width:8;"/>
   </g>
   <g id="line2d_21">
    <path clip-path="url(#p14627ec3b3)" d="M 262.309036 200.487778 
L 263.128791 214.727072 
L 264.367579 215.170997 
L 270.58306 219.69943 
L 270.656206 236.814329 
L 270.709734 238.080704 
L 271.387607 252.319999 
L 272.412627 252.763924 
L 277.660065 257.292357 
L 277.766953 258.558732 
L 278.340495 272.798027 
L 279.218253 273.241952 
L 283.817607 274.508327 
L 284.318972 288.747622 
L 289.125959 290.013998 
L 290.976771 294.811956 
L 291.414509 302.025739 
L 293.352201 303.888639 
L 293.877705 305.155015 
L 295.541912 309.952974 
L 295.934713 317.166757 
L 298.093928 318.06848 
L 298.146302 319.334855 
L 299.655495 324.132814 
L 300.013156 331.346597 
L 302.029612 332.612973 
L 303.407994 337.410931 
L 305.044338 342.678578 
L 305.592699 343.944954 
L 306.862781 348.742912 
L 308.878545 350.336287 
L 308.880816 351.602662 
L 310.060118 356.400621 
L 311.947909 357.666996 
L 313.484604 361.121289 
L 314.797719 362.387664 
L 337.6222 371.498038 
L 339.18404 376.218706 
L 340.842494 377.181865 
L 366.249669 382.288986 
L 367.544552 386.268458 
L 367.818429 387.009654 
L 368.363168 390.989126 
L 369.478429 391.952284 
" style="fill:none;stroke:#bcbd22;stroke-linecap:square;stroke-width:8;"/>
   </g>
   <g id="line2d_22">
    <path clip-path="url(#p14627ec3b3)" d="M 271.511554 180.497509 
L 274.21896 201.793631 
L 282.754602 213.822565 
L 285.046794 218.824392 
L 291.150506 233.032035 
L 291.632775 245.060969 
L 293.508193 250.062796 
L 298.961687 262.09173 
L 302.871235 263.902207 
L 305.238752 275.93114 
L 311.33006 279.153176 
L 312.293927 281.117084 
L 313.294936 283.234422 
L 316.123604 286.456457 
L 316.979462 288.420365 
L 320.458739 291.642401 
L 324.455106 293.821111 
L 324.456558 314.350082 
L 330.633091 315.424094 
L 333.938092 315.976443 
L 391.075573 321.315816 
L 400.772912 321.776107 
L 414.792988 327.115481 
" style="fill:none;stroke:#17becf;stroke-linecap:square;stroke-width:8;"/>
   </g>
   <g id="line2d_23">
    <path clip-path="url(#p14627ec3b3)" d="M 286.974875 32.36 
L 290.48532 32.858299 
L 292.09264 47.784447 
L 297.401037 57.118996 
L 297.501504 77.3933 
L 299.736868 81.7867 
L 302.372861 82.284999 
L 303.587054 97.211148 
L 306.958866 103.164109 
L 308.122435 109.603959 
L 309.549227 113.997359 
L 311.663011 114.495658 
L 312.646169 129.421806 
L 315.419846 135.374768 
L 317.627033 139.768168 
L 319.38479 140.266467 
L 320.207421 155.192615 
L 322.448935 155.534958 
L 324.036182 157.611838 
L 324.396044 162.005238 
L 325.903341 162.503537 
L 326.611223 177.429686 
L 328.554346 177.772028 
L 329.946103 177.912769 
L 330.208024 182.306169 
L 331.529542 182.804468 
L 332.151829 197.730617 
L 333.862641 198.07296 
L 335.329003 202.466359 
L 336.525764 202.964659 
L 337.081142 217.890807 
L 339.924334 222.284207 
L 340.981306 222.782506 
L 341.201723 224.78331 
L 341.271799 235.734477 
L 344.054394 240.127877 
L 345.014483 240.626176 
L 345.21451 259.051829 
L 347.837847 263.445229 
L 348.718349 263.943528 
L 348.901666 266.937126 
L 349.935919 273.951351 
L 350.020667 274.628429 
L 351.311707 279.021829 
L 352.126802 279.520128 
L 352.296067 282.513726 
L 353.252888 283.997212 
L 353.809905 284.22544 
L 354.51978 288.61884 
L 355.275309 289.117139 
L 355.432974 292.110737 
L 356.324047 293.594223 
L 357.505943 297.987623 
L 358.211193 298.485922 
L 358.357997 301.47952 
L 359.188121 310.909164 
L 360.294209 315.302564 
L 360.954465 315.800863 
L 361.092461 318.794461 
L 362.913326 323.187861 
L 363.535139 323.68616 
L 364.685034 325.260937 
L 365.181597 326.523802 
L 365.382077 330.917201 
L 365.970424 331.415501 
L 367.057757 332.990278 
L 367.550031 337.592887 
L 367.717639 341.986287 
L 368.274912 342.484586 
L 369.306077 344.059363 
L 369.932654 348.452763 
L 370.461615 348.951062 
L 371.577633 349.445557 
L 372.049478 353.838957 
L 372.553336 354.337256 
L 374.057419 358.730656 
L 377.446086 361.34007 
L 379.266864 364.561896 
L 422.807106 371.869014 
L 423.744176 373.367715 
L 423.744346 374.695245 
L 423.777908 379.754311 
L 424.359358 381.253012 
L 424.359517 382.580542 
L 424.600971 383.17774 
L 424.604055 385.140505 
L 424.965879 386.639206 
L 424.96603 387.966736 
L 425.562993 391.530905 
L 426.395586 394.140319 
L 426.999712 397.362145 
L 445.795789 398.202787 
L 446.043265 399.701488 
L 446.043358 401.029018 
L 446.411905 404.593187 
L 446.912109 405.274069 
L 446.914269 406.407604 
L 446.922399 407.2026 
L 447.272372 407.883482 
L 447.274511 409.017018 
L 447.287684 410.424427 
L 447.630317 411.105309 
L 447.632415 412.238844 
L 447.987976 412.387193 
" style="fill:none;stroke:#1f77b4;stroke-linecap:square;stroke-width:8;"/>
   </g>
   <g id="line2d_24">
    <path clip-path="url(#p14627ec3b3)" d="M 289.808548 117.156668 
L 294.285318 128.048008 
L 301.908902 134.039406 
L 303.045797 134.619968 
L 303.660212 136.454543 
L 304.613226 141.702822 
L 307.725925 152.594162 
L 313.620591 158.58556 
L 314.48596 159.166122 
L 315.695266 164.414401 
L 318.155743 175.305741 
L 322.823685 181.297139 
L 324.50182 186.545418 
L 326.523061 197.436758 
L 331.001519 198.946219 
L 331.82783 204.194498 
L 333.558044 215.085838 
L 337.344253 228.996099 
L 338.039209 234.244378 
L 339.528583 245.135718 
L 343.415263 250.383997 
L 345.428502 252.404353 
L 347.123949 253.379696 
L 347.666014 257.048847 
L 348.21676 262.297126 
L 350.002261 264.317481 
L 351.526097 265.292825 
L 352.513453 270.541104 
L 354.131587 272.561459 
L 355.52993 277.136287 
L 356.471303 282.384566 
L 357.952299 284.404921 
L 359.188835 285.682157 
L 360.046532 290.930436 
L 361.442573 292.950791 
L 363.40412 298.19907 
L 367.023618 302.61134 
L 367.028737 302.79712 
L 369.828736 307.20939 
L 372.363705 311.737772 
L 372.407182 314.988918 
L 375.158441 317.82206 
L 375.159188 318.541957 
L 376.482161 319.261853 
L 377.550063 322.094995 
L 377.550656 322.814892 
L 380.418269 324.138573 
L 380.826494 325.113917 
L 382.522433 326.437598 
L 382.895572 333.915234 
L 384.504303 335.238915 
L 471.397779 336.191036 
L 471.654436 344.992354 
L 497.936144 346.780484 
L 498.050492 347.361046 
L 498.079276 350.333523 
L 498.279327 352.632548 
L 498.418315 361.433865 
L 498.592133 362.757546 
" style="fill:none;stroke:#ff7f0e;stroke-linecap:square;stroke-width:8;"/>
   </g>
   <g id="line2d_25">
    <path clip-path="url(#p14627ec3b3)" d="M 291.845607 106.876161 
L 291.849529 107.756571 
L 294.326975 109.11387 
L 294.606291 110.010002 
L 294.615713 111.605745 
L 299.913079 149.523648 
L 306.718324 150.362134 
L 306.721344 151.242544 
L 308.484569 152.599843 
L 308.685138 153.495975 
L 308.691863 155.091718 
L 314.536682 166.964154 
L 317.462857 170.847392 
L 317.724259 171.685878 
L 317.72641 172.566288 
L 319.104073 173.923587 
L 319.260667 174.819719 
L 319.265765 176.415462 
L 323.909793 188.287898 
L 326.492485 189.126384 
L 326.494317 190.006794 
L 327.633124 191.364093 
L 327.76159 192.260225 
L 327.765745 193.855968 
L 331.983887 194.173021 
L 333.793867 200.482627 
L 333.795192 201.363037 
L 334.757062 202.720336 
L 334.867025 203.616468 
L 334.870663 205.212211 
L 338.511761 205.529264 
L 340.100099 206.367749 
L 340.101277 207.24816 
L 340.926659 208.605459 
L 341.021395 209.50159 
L 341.024416 211.097334 
L 345.549223 211.93582 
L 345.550727 212.81623 
L 346.28213 219.65775 
L 350.465355 220.496236 
L 350.466282 221.376646 
L 351.121403 221.984549 
L 353.511899 222.301601 
L 354.814867 223.140087 
L 354.815697 224.020497 
L 355.423899 224.628399 
L 358.831904 225.466885 
L 358.832871 226.347295 
L 361.598634 226.766538 
L 362.503048 227.605024 
L 362.503748 228.485434 
L 364.979992 235.402943 
L 365.819679 236.241429 
L 365.820309 237.121839 
L 369.033176 238.358605 
L 371.349735 238.612771 
L 371.894873 239.849538 
L 373.262506 240.025096 
L 374.575447 241.261863 
L 375.858817 241.662764 
L 377.094299 242.89953 
L 380.31465 243.360698 
L 381.933702 244.372121 
L 383.485096 244.516236 
L 384.069003 244.922378 
L 385.603774 245.053391 
L 386.109801 245.459533 
L 386.659706 245.514558 
L 388.062482 245.9207 
L 389.749505 247.167948 
L 389.849962 248.276321 
L 399.195329 249.05192 
L 399.912751 251.163857 
L 400.657872 251.300111 
L 400.759223 252.903715 
L 400.767833 265.011975 
L 400.920945 265.850461 
L 401.33118 267.123911 
L 402.051573 267.260165 
L 402.308302 278.527319 
L 402.703363 279.800769 
L 403.399113 279.937023 
L 403.645275 288.342844 
L 404.031418 289.616295 
L 404.706636 289.752548 
L 404.946152 297.267478 
L 405.321124 298.540928 
L 406.206625 298.75579 
L 406.21274 299.594276 
L 406.576467 300.867727 
L 407.216699 301.003981 
L 407.793573 303.115917 
L 408.01202 319.626228 
L 408.632889 320.464714 
L 408.973738 321.738164 
L 409.261543 346.801031 
L 409.791125 347.639516 
L 410.128789 348.912967 
L 410.923634 349.751453 
L 411.712554 350.4039 
L 412.023235 351.242385 
L 412.997622 351.520134 
L 413.094201 352.65471 
L 414.048493 353.453892 
L 414.143043 354.292378 
L 415.898208 354.842634 
L 416.260127 355.248776 
L 416.844592 355.379789 
L 417.238057 355.785931 
L 418.104619 359.111051 
L 418.104619 359.111051 
" style="fill:none;stroke:#2ca02c;stroke-linecap:square;stroke-width:8;"/>
   </g>
   <g id="line2d_26">
    <path clip-path="url(#p14627ec3b3)" d="M 368.827967 193.01156 
L 368.829286 194.252842 
L 370.47256 200.29469 
L 386.075069 214.959688 
L 390.375952 217.000281 
L 390.376675 218.241563 
L 391.387379 224.28341 
L 402.751537 228.910008 
L 402.752576 232.154269 
L 404.665162 234.194861 
L 404.665756 235.436144 
L 405.389408 241.477991 
L 413.946596 255.160307 
L 415.367533 257.2009 
L 415.367971 258.442182 
L 415.933794 264.48403 
L 423.887421 268.015102 
L 423.977498 271.296977 
L 424.45141 277.338825 
L 431.171281 279.379417 
L 431.171765 280.6207 
L 431.944266 282.642485 
L 437.198803 283.06565 
L 437.275633 286.347525 
L 437.944132 288.36931 
L 442.641424 290.409903 
L 442.641645 291.651186 
L 444.221866 292.61506 
L 445.146176 293.607146 
L 447.434281 295.647738 
L 447.434521 296.889021 
L 448.871962 297.852895 
L 451.000154 298.32778 
L 451.754849 300.368373 
L 451.755021 301.609655 
L 455.659782 304.614122 
L 455.659982 305.855404 
L 457.034312 306.480747 
L 457.160064 306.664119 
L 459.235889 308.704712 
L 459.236062 309.945994 
L 460.501802 310.571337 
L 461.63143 310.60425 
L 462.532458 312.644842 
L 462.53259 313.886125 
L 463.700621 314.511468 
L 465.381941 314.539679 
L 465.581336 316.580272 
L 465.581458 317.821554 
L 466.676596 318.446897 
L 467.710389 318.470406 
L 468.443663 320.510999 
L 468.443778 321.752281 
L 469.493607 322.377624 
L 471.142073 324.418217 
L 471.142203 325.659499 
L 472.23569 326.233122 
L 473.659269 328.273715 
L 473.659371 329.514997 
L 476.071618 334.983222 
L 478.618727 335.340561 
L 478.67098 338.218079 
L 480.764602 338.575418 
L 481.192489 339.543994 
L 482.368533 340.771171 
L 482.494093 341.062684 
L 482.796222 341.420023 
L 483.20845 342.388599 
L 484.742394 343.973115 
L 485.128457 344.941691 
L 485.898009 345.783318 
L 486.202823 347.175059 
L 486.597645 347.532398 
L 486.966423 348.500974 
L 487.701525 349.342601 
L 488.373891 349.69994 
L 488.737155 350.668516 
L 489.441275 351.538354 
L 489.448719 351.820464 
L 490.111873 352.177803 
L 490.451239 353.146379 
L 491.075758 353.917479 
L 491.756588 354.274817 
L 492.093104 355.243394 
L 493.34616 355.600733 
L 493.787621 356.207268 
L 494.602457 356.503483 
L 495.296735 357.467358 
L 497.498767 358.247861 
L 497.778665 358.6052 
L 498.899468 359.04247 
L 499.164665 359.399809 
L 500.488977 360.636389 
L 500.499577 365.780188 
L 502.601549 365.949453 
L 521.816795 368.234541 
L 522.717803 368.59188 
L 522.737056 371.469398 
L 523.506461 371.826737 
L 523.66363 372.795313 
L 524.269735 374.671342 
L 524.426221 375.639919 
L 525.022521 377.224434 
L 525.174028 378.193011 
L 525.479437 379.034638 
L 525.600724 380.426378 
L 525.759238 380.783717 
L 525.908153 381.752294 
L 526.20959 382.593921 
L 526.484503 382.951259 
L 526.634128 383.919836 
L 527.199777 385.429122 
L 527.34315 386.397698 
L 527.60734 387.168798 
L 527.900483 387.526137 
L 528.045633 388.494713 
L 528.592427 388.852052 
L 528.787376 389.458588 
L 529.149737 389.754803 
L 529.462043 390.718677 
L 530.467662 391.499181 
L 530.597219 391.856519 
L 531.123601 392.293789 
L 531.248863 392.651128 
L 531.883567 393.887709 
L 531.888665 399.031507 
L 532.90441 399.200773 
L 532.90441 399.200773 
" style="fill:none;stroke:#d62728;stroke-linecap:square;stroke-width:8;"/>
   </g>
   <g id="legend_1">
    <g id="patch_3">
     <path d="M 640.2625 524.585 
L 959.755 524.585 
Q 964.555 524.585 964.555 519.785 
L 964.555 29 
Q 964.555 24.2 959.755 24.2 
L 640.2625 24.2 
Q 635.4625 24.2 635.4625 29 
L 635.4625 519.785 
Q 635.4625 524.585 640.2625 524.585 
z
" style="fill:#ffffff;opacity:0.4;stroke:#cccccc;stroke-linejoin:miter;"/>
    </g>
    <g id="line2d_27">
     <path d="M 645.0625 43.63625 
L 693.0625 43.63625 
" style="fill:none;stroke:#1f77b4;stroke-linecap:square;stroke-width:8;"/>
    </g>
    <g id="line2d_28"/>
    <g id="text_15">
     <!-- Cincinnati N=10 -->
     <defs>
      <path d="M 64.40625 67.28125 
L 64.40625 56.890625 
Q 59.421875 61.53125 53.78125 63.8125 
Q 48.140625 66.109375 41.796875 66.109375 
Q 29.296875 66.109375 22.65625 58.46875 
Q 16.015625 50.828125 16.015625 36.375 
Q 16.015625 21.96875 22.65625 14.328125 
Q 29.296875 6.6875 41.796875 6.6875 
Q 48.140625 6.6875 53.78125 8.984375 
Q 59.421875 11.28125 64.40625 15.921875 
L 64.40625 5.609375 
Q 59.234375 2.09375 53.4375 0.328125 
Q 47.65625 -1.421875 41.21875 -1.421875 
Q 24.65625 -1.421875 15.125 8.703125 
Q 5.609375 18.84375 5.609375 36.375 
Q 5.609375 53.953125 15.125 64.078125 
Q 24.65625 74.21875 41.21875 74.21875 
Q 47.75 74.21875 53.53125 72.484375 
Q 59.328125 70.75 64.40625 67.28125 
z
" id="DejaVuSans-67"/>
      <path d="M 54.890625 33.015625 
L 54.890625 0 
L 45.90625 0 
L 45.90625 32.71875 
Q 45.90625 40.484375 42.875 44.328125 
Q 39.84375 48.1875 33.796875 48.1875 
Q 26.515625 48.1875 22.3125 43.546875 
Q 18.109375 38.921875 18.109375 30.90625 
L 18.109375 0 
L 9.078125 0 
L 9.078125 54.6875 
L 18.109375 54.6875 
L 18.109375 46.1875 
Q 21.34375 51.125 25.703125 53.5625 
Q 30.078125 56 35.796875 56 
Q 45.21875 56 50.046875 50.171875 
Q 54.890625 44.34375 54.890625 33.015625 
z
" id="DejaVuSans-110"/>
      <path d="M 48.78125 52.59375 
L 48.78125 44.1875 
Q 44.96875 46.296875 41.140625 47.34375 
Q 37.3125 48.390625 33.40625 48.390625 
Q 24.65625 48.390625 19.8125 42.84375 
Q 14.984375 37.3125 14.984375 27.296875 
Q 14.984375 17.28125 19.8125 11.734375 
Q 24.65625 6.203125 33.40625 6.203125 
Q 37.3125 6.203125 41.140625 7.25 
Q 44.96875 8.296875 48.78125 10.40625 
L 48.78125 2.09375 
Q 45.015625 0.34375 40.984375 -0.53125 
Q 36.96875 -1.421875 32.421875 -1.421875 
Q 20.0625 -1.421875 12.78125 6.34375 
Q 5.515625 14.109375 5.515625 27.296875 
Q 5.515625 40.671875 12.859375 48.328125 
Q 20.21875 56 33.015625 56 
Q 37.15625 56 41.109375 55.140625 
Q 45.0625 54.296875 48.78125 52.59375 
z
" id="DejaVuSans-99"/>
      <path d="M 34.28125 27.484375 
Q 23.390625 27.484375 19.1875 25 
Q 14.984375 22.515625 14.984375 16.5 
Q 14.984375 11.71875 18.140625 8.90625 
Q 21.296875 6.109375 26.703125 6.109375 
Q 34.1875 6.109375 38.703125 11.40625 
Q 43.21875 16.703125 43.21875 25.484375 
L 43.21875 27.484375 
z
M 52.203125 31.203125 
L 52.203125 0 
L 43.21875 0 
L 43.21875 8.296875 
Q 40.140625 3.328125 35.546875 0.953125 
Q 30.953125 -1.421875 24.3125 -1.421875 
Q 15.921875 -1.421875 10.953125 3.296875 
Q 6 8.015625 6 15.921875 
Q 6 25.140625 12.171875 29.828125 
Q 18.359375 34.515625 30.609375 34.515625 
L 43.21875 34.515625 
L 43.21875 35.40625 
Q 43.21875 41.609375 39.140625 45 
Q 35.0625 48.390625 27.6875 48.390625 
Q 23 48.390625 18.546875 47.265625 
Q 14.109375 46.140625 10.015625 43.890625 
L 10.015625 52.203125 
Q 14.9375 54.109375 19.578125 55.046875 
Q 24.21875 56 28.609375 56 
Q 40.484375 56 46.34375 49.84375 
Q 52.203125 43.703125 52.203125 31.203125 
z
" id="DejaVuSans-97"/>
      <path d="M 18.3125 70.21875 
L 18.3125 54.6875 
L 36.8125 54.6875 
L 36.8125 47.703125 
L 18.3125 47.703125 
L 18.3125 18.015625 
Q 18.3125 11.328125 20.140625 9.421875 
Q 21.96875 7.515625 27.59375 7.515625 
L 36.8125 7.515625 
L 36.8125 0 
L 27.59375 0 
Q 17.1875 0 13.234375 3.875 
Q 9.28125 7.765625 9.28125 18.015625 
L 9.28125 47.703125 
L 2.6875 47.703125 
L 2.6875 54.6875 
L 9.28125 54.6875 
L 9.28125 70.21875 
z
" id="DejaVuSans-116"/>
      <path d="M 9.8125 72.90625 
L 23.09375 72.90625 
L 55.421875 11.921875 
L 55.421875 72.90625 
L 64.984375 72.90625 
L 64.984375 0 
L 51.703125 0 
L 19.390625 60.984375 
L 19.390625 0 
L 9.8125 0 
z
" id="DejaVuSans-78"/>
      <path d="M 10.59375 45.40625 
L 73.1875 45.40625 
L 73.1875 37.203125 
L 10.59375 37.203125 
z
M 10.59375 25.484375 
L 73.1875 25.484375 
L 73.1875 17.1875 
L 10.59375 17.1875 
z
" id="DejaVuSans-61"/>
     </defs>
     <g transform="translate(712.2625 52.03625)scale(0.24 -0.24)">
      <use xlink:href="#DejaVuSans-67"/>
      <use x="69.824219" xlink:href="#DejaVuSans-105"/>
      <use x="97.607422" xlink:href="#DejaVuSans-110"/>
      <use x="160.986328" xlink:href="#DejaVuSans-99"/>
      <use x="215.966797" xlink:href="#DejaVuSans-105"/>
      <use x="243.75" xlink:href="#DejaVuSans-110"/>
      <use x="307.128906" xlink:href="#DejaVuSans-110"/>
      <use x="370.507812" xlink:href="#DejaVuSans-97"/>
      <use x="431.787109" xlink:href="#DejaVuSans-116"/>
      <use x="470.996094" xlink:href="#DejaVuSans-105"/>
      <use x="498.779297" xlink:href="#DejaVuSans-32"/>
      <use x="530.566406" xlink:href="#DejaVuSans-78"/>
      <use x="605.371094" xlink:href="#DejaVuSans-61"/>
      <use x="689.160156" xlink:href="#DejaVuSans-49"/>
      <use x="752.783203" xlink:href="#DejaVuSans-48"/>
     </g>
    </g>
    <g id="line2d_29">
     <path d="M 645.0625 78.86375 
L 693.0625 78.86375 
" style="fill:none;stroke:#ff7f0e;stroke-linecap:square;stroke-width:8;"/>
    </g>
    <g id="line2d_30"/>
    <g id="text_16">
     <!-- UKansasState N=10 -->
     <defs>
      <path d="M 8.6875 72.90625 
L 18.609375 72.90625 
L 18.609375 28.609375 
Q 18.609375 16.890625 22.84375 11.734375 
Q 27.09375 6.59375 36.625 6.59375 
Q 46.09375 6.59375 50.34375 11.734375 
Q 54.59375 16.890625 54.59375 28.609375 
L 54.59375 72.90625 
L 64.5 72.90625 
L 64.5 27.390625 
Q 64.5 13.140625 57.4375 5.859375 
Q 50.390625 -1.421875 36.625 -1.421875 
Q 22.796875 -1.421875 15.734375 5.859375 
Q 8.6875 13.140625 8.6875 27.390625 
z
" id="DejaVuSans-85"/>
      <path d="M 9.8125 72.90625 
L 19.671875 72.90625 
L 19.671875 42.09375 
L 52.390625 72.90625 
L 65.09375 72.90625 
L 28.90625 38.921875 
L 67.671875 0 
L 54.6875 0 
L 19.671875 35.109375 
L 19.671875 0 
L 9.8125 0 
z
" id="DejaVuSans-75"/>
      <path d="M 53.515625 70.515625 
L 53.515625 60.890625 
Q 47.90625 63.578125 42.921875 64.890625 
Q 37.9375 66.21875 33.296875 66.21875 
Q 25.25 66.21875 20.875 63.09375 
Q 16.5 59.96875 16.5 54.203125 
Q 16.5 49.359375 19.40625 46.890625 
Q 22.3125 44.4375 30.421875 42.921875 
L 36.375 41.703125 
Q 47.40625 39.59375 52.65625 34.296875 
Q 57.90625 29 57.90625 20.125 
Q 57.90625 9.515625 50.796875 4.046875 
Q 43.703125 -1.421875 29.984375 -1.421875 
Q 24.8125 -1.421875 18.96875 -0.25 
Q 13.140625 0.921875 6.890625 3.21875 
L 6.890625 13.375 
Q 12.890625 10.015625 18.65625 8.296875 
Q 24.421875 6.59375 29.984375 6.59375 
Q 38.421875 6.59375 43.015625 9.90625 
Q 47.609375 13.234375 47.609375 19.390625 
Q 47.609375 24.75 44.3125 27.78125 
Q 41.015625 30.8125 33.5 32.328125 
L 27.484375 33.5 
Q 16.453125 35.6875 11.515625 40.375 
Q 6.59375 45.0625 6.59375 53.421875 
Q 6.59375 63.09375 13.40625 68.65625 
Q 20.21875 74.21875 32.171875 74.21875 
Q 37.3125 74.21875 42.625 73.28125 
Q 47.953125 72.359375 53.515625 70.515625 
z
" id="DejaVuSans-83"/>
     </defs>
     <g transform="translate(712.2625 87.26375)scale(0.24 -0.24)">
      <use xlink:href="#DejaVuSans-85"/>
      <use x="73.193359" xlink:href="#DejaVuSans-75"/>
      <use x="138.753906" xlink:href="#DejaVuSans-97"/>
      <use x="200.033203" xlink:href="#DejaVuSans-110"/>
      <use x="263.412109" xlink:href="#DejaVuSans-115"/>
      <use x="315.511719" xlink:href="#DejaVuSans-97"/>
      <use x="376.791016" xlink:href="#DejaVuSans-115"/>
      <use x="428.890625" xlink:href="#DejaVuSans-83"/>
      <use x="492.367188" xlink:href="#DejaVuSans-116"/>
      <use x="531.576172" xlink:href="#DejaVuSans-97"/>
      <use x="592.855469" xlink:href="#DejaVuSans-116"/>
      <use x="632.064453" xlink:href="#DejaVuSans-101"/>
      <use x="693.587891" xlink:href="#DejaVuSans-32"/>
      <use x="725.375" xlink:href="#DejaVuSans-78"/>
      <use x="800.179688" xlink:href="#DejaVuSans-61"/>
      <use x="883.96875" xlink:href="#DejaVuSans-49"/>
      <use x="947.591797" xlink:href="#DejaVuSans-48"/>
     </g>
    </g>
    <g id="line2d_31">
     <path d="M 645.0625 114.09125 
L 693.0625 114.09125 
" style="fill:none;stroke:#2ca02c;stroke-linecap:square;stroke-width:8;"/>
    </g>
    <g id="line2d_32"/>
    <g id="text_17">
     <!-- ulysses16 N=16 -->
     <defs>
      <path d="M 8.5 21.578125 
L 8.5 54.6875 
L 17.484375 54.6875 
L 17.484375 21.921875 
Q 17.484375 14.15625 20.5 10.265625 
Q 23.53125 6.390625 29.59375 6.390625 
Q 36.859375 6.390625 41.078125 11.03125 
Q 45.3125 15.671875 45.3125 23.6875 
L 45.3125 54.6875 
L 54.296875 54.6875 
L 54.296875 0 
L 45.3125 0 
L 45.3125 8.40625 
Q 42.046875 3.421875 37.71875 1 
Q 33.40625 -1.421875 27.6875 -1.421875 
Q 18.265625 -1.421875 13.375 4.4375 
Q 8.5 10.296875 8.5 21.578125 
z
M 31.109375 56 
z
" id="DejaVuSans-117"/>
      <path d="M 9.421875 75.984375 
L 18.40625 75.984375 
L 18.40625 0 
L 9.421875 0 
z
" id="DejaVuSans-108"/>
      <path d="M 32.171875 -5.078125 
Q 28.375 -14.84375 24.75 -17.8125 
Q 21.140625 -20.796875 15.09375 -20.796875 
L 7.90625 -20.796875 
L 7.90625 -13.28125 
L 13.1875 -13.28125 
Q 16.890625 -13.28125 18.9375 -11.515625 
Q 21 -9.765625 23.484375 -3.21875 
L 25.09375 0.875 
L 2.984375 54.6875 
L 12.5 54.6875 
L 29.59375 11.921875 
L 46.6875 54.6875 
L 56.203125 54.6875 
z
" id="DejaVuSans-121"/>
     </defs>
     <g transform="translate(712.2625 122.49125)scale(0.24 -0.24)">
      <use xlink:href="#DejaVuSans-117"/>
      <use x="63.378906" xlink:href="#DejaVuSans-108"/>
      <use x="91.162109" xlink:href="#DejaVuSans-121"/>
      <use x="150.341797" xlink:href="#DejaVuSans-115"/>
      <use x="202.441406" xlink:href="#DejaVuSans-115"/>
      <use x="254.541016" xlink:href="#DejaVuSans-101"/>
      <use x="316.064453" xlink:href="#DejaVuSans-115"/>
      <use x="368.164062" xlink:href="#DejaVuSans-49"/>
      <use x="431.787109" xlink:href="#DejaVuSans-54"/>
      <use x="495.410156" xlink:href="#DejaVuSans-32"/>
      <use x="527.197266" xlink:href="#DejaVuSans-78"/>
      <use x="602.001953" xlink:href="#DejaVuSans-61"/>
      <use x="685.791016" xlink:href="#DejaVuSans-49"/>
      <use x="749.414062" xlink:href="#DejaVuSans-54"/>
     </g>
    </g>
    <g id="line2d_33">
     <path d="M 645.0625 149.31875 
L 693.0625 149.31875 
" style="fill:none;stroke:#d62728;stroke-linecap:square;stroke-width:8;"/>
    </g>
    <g id="line2d_34"/>
    <g id="text_18">
     <!-- Atlanta N=20 -->
     <defs>
      <path d="M 34.1875 63.1875 
L 20.796875 26.90625 
L 47.609375 26.90625 
z
M 28.609375 72.90625 
L 39.796875 72.90625 
L 67.578125 0 
L 57.328125 0 
L 50.6875 18.703125 
L 17.828125 18.703125 
L 11.1875 0 
L 0.78125 0 
z
" id="DejaVuSans-65"/>
     </defs>
     <g transform="translate(712.2625 157.71875)scale(0.24 -0.24)">
      <use xlink:href="#DejaVuSans-65"/>
      <use x="68.392578" xlink:href="#DejaVuSans-116"/>
      <use x="107.601562" xlink:href="#DejaVuSans-108"/>
      <use x="135.384766" xlink:href="#DejaVuSans-97"/>
      <use x="196.664062" xlink:href="#DejaVuSans-110"/>
      <use x="260.042969" xlink:href="#DejaVuSans-116"/>
      <use x="299.251953" xlink:href="#DejaVuSans-97"/>
      <use x="360.53125" xlink:href="#DejaVuSans-32"/>
      <use x="392.318359" xlink:href="#DejaVuSans-78"/>
      <use x="467.123047" xlink:href="#DejaVuSans-61"/>
      <use x="550.912109" xlink:href="#DejaVuSans-50"/>
      <use x="614.535156" xlink:href="#DejaVuSans-48"/>
     </g>
    </g>
    <g id="line2d_35">
     <path d="M 645.0625 184.54625 
L 693.0625 184.54625 
" style="fill:none;stroke:#9467bd;stroke-linecap:square;stroke-width:8;"/>
    </g>
    <g id="line2d_36"/>
    <g id="text_19">
     <!-- Philadelphia N=30 -->
     <defs>
      <path d="M 19.671875 64.796875 
L 19.671875 37.40625 
L 32.078125 37.40625 
Q 38.96875 37.40625 42.71875 40.96875 
Q 46.484375 44.53125 46.484375 51.125 
Q 46.484375 57.671875 42.71875 61.234375 
Q 38.96875 64.796875 32.078125 64.796875 
z
M 9.8125 72.90625 
L 32.078125 72.90625 
Q 44.34375 72.90625 50.609375 67.359375 
Q 56.890625 61.8125 56.890625 51.125 
Q 56.890625 40.328125 50.609375 34.8125 
Q 44.34375 29.296875 32.078125 29.296875 
L 19.671875 29.296875 
L 19.671875 0 
L 9.8125 0 
z
" id="DejaVuSans-80"/>
      <path d="M 54.890625 33.015625 
L 54.890625 0 
L 45.90625 0 
L 45.90625 32.71875 
Q 45.90625 40.484375 42.875 44.328125 
Q 39.84375 48.1875 33.796875 48.1875 
Q 26.515625 48.1875 22.3125 43.546875 
Q 18.109375 38.921875 18.109375 30.90625 
L 18.109375 0 
L 9.078125 0 
L 9.078125 75.984375 
L 18.109375 75.984375 
L 18.109375 46.1875 
Q 21.34375 51.125 25.703125 53.5625 
Q 30.078125 56 35.796875 56 
Q 45.21875 56 50.046875 50.171875 
Q 54.890625 44.34375 54.890625 33.015625 
z
" id="DejaVuSans-104"/>
      <path d="M 45.40625 46.390625 
L 45.40625 75.984375 
L 54.390625 75.984375 
L 54.390625 0 
L 45.40625 0 
L 45.40625 8.203125 
Q 42.578125 3.328125 38.25 0.953125 
Q 33.9375 -1.421875 27.875 -1.421875 
Q 17.96875 -1.421875 11.734375 6.484375 
Q 5.515625 14.40625 5.515625 27.296875 
Q 5.515625 40.1875 11.734375 48.09375 
Q 17.96875 56 27.875 56 
Q 33.9375 56 38.25 53.625 
Q 42.578125 51.265625 45.40625 46.390625 
z
M 14.796875 27.296875 
Q 14.796875 17.390625 18.875 11.75 
Q 22.953125 6.109375 30.078125 6.109375 
Q 37.203125 6.109375 41.296875 11.75 
Q 45.40625 17.390625 45.40625 27.296875 
Q 45.40625 37.203125 41.296875 42.84375 
Q 37.203125 48.484375 30.078125 48.484375 
Q 22.953125 48.484375 18.875 42.84375 
Q 14.796875 37.203125 14.796875 27.296875 
z
" id="DejaVuSans-100"/>
      <path d="M 18.109375 8.203125 
L 18.109375 -20.796875 
L 9.078125 -20.796875 
L 9.078125 54.6875 
L 18.109375 54.6875 
L 18.109375 46.390625 
Q 20.953125 51.265625 25.265625 53.625 
Q 29.59375 56 35.59375 56 
Q 45.5625 56 51.78125 48.09375 
Q 58.015625 40.1875 58.015625 27.296875 
Q 58.015625 14.40625 51.78125 6.484375 
Q 45.5625 -1.421875 35.59375 -1.421875 
Q 29.59375 -1.421875 25.265625 0.953125 
Q 20.953125 3.328125 18.109375 8.203125 
z
M 48.6875 27.296875 
Q 48.6875 37.203125 44.609375 42.84375 
Q 40.53125 48.484375 33.40625 48.484375 
Q 26.265625 48.484375 22.1875 42.84375 
Q 18.109375 37.203125 18.109375 27.296875 
Q 18.109375 17.390625 22.1875 11.75 
Q 26.265625 6.109375 33.40625 6.109375 
Q 40.53125 6.109375 44.609375 11.75 
Q 48.6875 17.390625 48.6875 27.296875 
z
" id="DejaVuSans-112"/>
     </defs>
     <g transform="translate(712.2625 192.94625)scale(0.24 -0.24)">
      <use xlink:href="#DejaVuSans-80"/>
      <use x="60.302734" xlink:href="#DejaVuSans-104"/>
      <use x="123.681641" xlink:href="#DejaVuSans-105"/>
      <use x="151.464844" xlink:href="#DejaVuSans-108"/>
      <use x="179.248047" xlink:href="#DejaVuSans-97"/>
      <use x="240.527344" xlink:href="#DejaVuSans-100"/>
      <use x="304.003906" xlink:href="#DejaVuSans-101"/>
      <use x="365.527344" xlink:href="#DejaVuSans-108"/>
      <use x="393.310547" xlink:href="#DejaVuSans-112"/>
      <use x="456.787109" xlink:href="#DejaVuSans-104"/>
      <use x="520.166016" xlink:href="#DejaVuSans-105"/>
      <use x="547.949219" xlink:href="#DejaVuSans-97"/>
      <use x="609.228516" xlink:href="#DejaVuSans-32"/>
      <use x="641.015625" xlink:href="#DejaVuSans-78"/>
      <use x="715.820312" xlink:href="#DejaVuSans-61"/>
      <use x="799.609375" xlink:href="#DejaVuSans-51"/>
      <use x="863.232422" xlink:href="#DejaVuSans-48"/>
     </g>
    </g>
    <g id="line2d_37">
     <path d="M 645.0625 219.77375 
L 693.0625 219.77375 
" style="fill:none;stroke:#8c564b;stroke-linecap:square;stroke-width:8;"/>
    </g>
    <g id="line2d_38"/>
    <g id="text_20">
     <!-- Boston N=40 -->
     <defs>
      <path d="M 19.671875 34.8125 
L 19.671875 8.109375 
L 35.5 8.109375 
Q 43.453125 8.109375 47.28125 11.40625 
Q 51.125 14.703125 51.125 21.484375 
Q 51.125 28.328125 47.28125 31.5625 
Q 43.453125 34.8125 35.5 34.8125 
z
M 19.671875 64.796875 
L 19.671875 42.828125 
L 34.28125 42.828125 
Q 41.5 42.828125 45.03125 45.53125 
Q 48.578125 48.25 48.578125 53.8125 
Q 48.578125 59.328125 45.03125 62.0625 
Q 41.5 64.796875 34.28125 64.796875 
z
M 9.8125 72.90625 
L 35.015625 72.90625 
Q 46.296875 72.90625 52.390625 68.21875 
Q 58.5 63.53125 58.5 54.890625 
Q 58.5 48.1875 55.375 44.234375 
Q 52.25 40.28125 46.1875 39.3125 
Q 53.46875 37.75 57.5 32.78125 
Q 61.53125 27.828125 61.53125 20.40625 
Q 61.53125 10.640625 54.890625 5.3125 
Q 48.25 0 35.984375 0 
L 9.8125 0 
z
" id="DejaVuSans-66"/>
     </defs>
     <g transform="translate(712.2625 228.17375)scale(0.24 -0.24)">
      <use xlink:href="#DejaVuSans-66"/>
      <use x="68.603516" xlink:href="#DejaVuSans-111"/>
      <use x="129.785156" xlink:href="#DejaVuSans-115"/>
      <use x="181.884766" xlink:href="#DejaVuSans-116"/>
      <use x="221.09375" xlink:href="#DejaVuSans-111"/>
      <use x="282.275391" xlink:href="#DejaVuSans-110"/>
      <use x="345.654297" xlink:href="#DejaVuSans-32"/>
      <use x="377.441406" xlink:href="#DejaVuSans-78"/>
      <use x="452.246094" xlink:href="#DejaVuSans-61"/>
      <use x="536.035156" xlink:href="#DejaVuSans-52"/>
      <use x="599.658203" xlink:href="#DejaVuSans-48"/>
     </g>
    </g>
    <g id="line2d_39">
     <path d="M 645.0625 255.00125 
L 693.0625 255.00125 
" style="fill:none;stroke:#e377c2;stroke-linecap:square;stroke-width:8;"/>
    </g>
    <g id="line2d_40"/>
    <g id="text_21">
     <!-- berlin52 N=52 -->
     <defs>
      <path d="M 48.6875 27.296875 
Q 48.6875 37.203125 44.609375 42.84375 
Q 40.53125 48.484375 33.40625 48.484375 
Q 26.265625 48.484375 22.1875 42.84375 
Q 18.109375 37.203125 18.109375 27.296875 
Q 18.109375 17.390625 22.1875 11.75 
Q 26.265625 6.109375 33.40625 6.109375 
Q 40.53125 6.109375 44.609375 11.75 
Q 48.6875 17.390625 48.6875 27.296875 
z
M 18.109375 46.390625 
Q 20.953125 51.265625 25.265625 53.625 
Q 29.59375 56 35.59375 56 
Q 45.5625 56 51.78125 48.09375 
Q 58.015625 40.1875 58.015625 27.296875 
Q 58.015625 14.40625 51.78125 6.484375 
Q 45.5625 -1.421875 35.59375 -1.421875 
Q 29.59375 -1.421875 25.265625 0.953125 
Q 20.953125 3.328125 18.109375 8.203125 
L 18.109375 0 
L 9.078125 0 
L 9.078125 75.984375 
L 18.109375 75.984375 
z
" id="DejaVuSans-98"/>
     </defs>
     <g transform="translate(712.2625 263.40125)scale(0.24 -0.24)">
      <use xlink:href="#DejaVuSans-98"/>
      <use x="63.476562" xlink:href="#DejaVuSans-101"/>
      <use x="125" xlink:href="#DejaVuSans-114"/>
      <use x="166.113281" xlink:href="#DejaVuSans-108"/>
      <use x="193.896484" xlink:href="#DejaVuSans-105"/>
      <use x="221.679688" xlink:href="#DejaVuSans-110"/>
      <use x="285.058594" xlink:href="#DejaVuSans-53"/>
      <use x="348.681641" xlink:href="#DejaVuSans-50"/>
      <use x="412.304688" xlink:href="#DejaVuSans-32"/>
      <use x="444.091797" xlink:href="#DejaVuSans-78"/>
      <use x="518.896484" xlink:href="#DejaVuSans-61"/>
      <use x="602.685547" xlink:href="#DejaVuSans-53"/>
      <use x="666.308594" xlink:href="#DejaVuSans-50"/>
     </g>
    </g>
    <g id="line2d_41">
     <path d="M 645.0625 290.22875 
L 693.0625 290.22875 
" style="fill:none;stroke:#7f7f7f;stroke-linecap:square;stroke-width:8;"/>
    </g>
    <g id="line2d_42"/>
    <g id="text_22">
     <!-- Champaign N=55 -->
     <defs>
      <path d="M 45.40625 27.984375 
Q 45.40625 37.75 41.375 43.109375 
Q 37.359375 48.484375 30.078125 48.484375 
Q 22.859375 48.484375 18.828125 43.109375 
Q 14.796875 37.75 14.796875 27.984375 
Q 14.796875 18.265625 18.828125 12.890625 
Q 22.859375 7.515625 30.078125 7.515625 
Q 37.359375 7.515625 41.375 12.890625 
Q 45.40625 18.265625 45.40625 27.984375 
z
M 54.390625 6.78125 
Q 54.390625 -7.171875 48.1875 -13.984375 
Q 42 -20.796875 29.203125 -20.796875 
Q 24.46875 -20.796875 20.265625 -20.09375 
Q 16.0625 -19.390625 12.109375 -17.921875 
L 12.109375 -9.1875 
Q 16.0625 -11.328125 19.921875 -12.34375 
Q 23.78125 -13.375 27.78125 -13.375 
Q 36.625 -13.375 41.015625 -8.765625 
Q 45.40625 -4.15625 45.40625 5.171875 
L 45.40625 9.625 
Q 42.625 4.78125 38.28125 2.390625 
Q 33.9375 0 27.875 0 
Q 17.828125 0 11.671875 7.65625 
Q 5.515625 15.328125 5.515625 27.984375 
Q 5.515625 40.671875 11.671875 48.328125 
Q 17.828125 56 27.875 56 
Q 33.9375 56 38.28125 53.609375 
Q 42.625 51.21875 45.40625 46.390625 
L 45.40625 54.6875 
L 54.390625 54.6875 
z
" id="DejaVuSans-103"/>
     </defs>
     <g transform="translate(712.2625 298.62875)scale(0.24 -0.24)">
      <use xlink:href="#DejaVuSans-67"/>
      <use x="69.824219" xlink:href="#DejaVuSans-104"/>
      <use x="133.203125" xlink:href="#DejaVuSans-97"/>
      <use x="194.482422" xlink:href="#DejaVuSans-109"/>
      <use x="291.894531" xlink:href="#DejaVuSans-112"/>
      <use x="355.371094" xlink:href="#DejaVuSans-97"/>
      <use x="416.650391" xlink:href="#DejaVuSans-105"/>
      <use x="444.433594" xlink:href="#DejaVuSans-103"/>
      <use x="507.910156" xlink:href="#DejaVuSans-110"/>
      <use x="571.289062" xlink:href="#DejaVuSans-32"/>
      <use x="603.076172" xlink:href="#DejaVuSans-78"/>
      <use x="677.880859" xlink:href="#DejaVuSans-61"/>
      <use x="761.669922" xlink:href="#DejaVuSans-53"/>
      <use x="825.292969" xlink:href="#DejaVuSans-53"/>
     </g>
    </g>
    <g id="line2d_43">
     <path d="M 645.0625 325.45625 
L 693.0625 325.45625 
" style="fill:none;stroke:#bcbd22;stroke-linecap:square;stroke-width:8;"/>
    </g>
    <g id="line2d_44"/>
    <g id="text_23">
     <!-- NYC N=68 -->
     <defs>
      <path d="M -0.203125 72.90625 
L 10.40625 72.90625 
L 30.609375 42.921875 
L 50.6875 72.90625 
L 61.28125 72.90625 
L 35.5 34.71875 
L 35.5 0 
L 25.59375 0 
L 25.59375 34.71875 
z
" id="DejaVuSans-89"/>
     </defs>
     <g transform="translate(712.2625 333.85625)scale(0.24 -0.24)">
      <use xlink:href="#DejaVuSans-78"/>
      <use x="74.804688" xlink:href="#DejaVuSans-89"/>
      <use x="135.810547" xlink:href="#DejaVuSans-67"/>
      <use x="205.634766" xlink:href="#DejaVuSans-32"/>
      <use x="237.421875" xlink:href="#DejaVuSans-78"/>
      <use x="312.226562" xlink:href="#DejaVuSans-61"/>
      <use x="396.015625" xlink:href="#DejaVuSans-54"/>
      <use x="459.638672" xlink:href="#DejaVuSans-56"/>
     </g>
    </g>
    <g id="line2d_45">
     <path d="M 645.0625 360.68375 
L 693.0625 360.68375 
" style="fill:none;stroke:#17becf;stroke-linecap:square;stroke-width:8;"/>
    </g>
    <g id="line2d_46"/>
    <g id="text_24">
     <!-- Denver N=83 -->
     <defs>
      <path d="M 19.671875 64.796875 
L 19.671875 8.109375 
L 31.59375 8.109375 
Q 46.6875 8.109375 53.6875 14.9375 
Q 60.6875 21.78125 60.6875 36.53125 
Q 60.6875 51.171875 53.6875 57.984375 
Q 46.6875 64.796875 31.59375 64.796875 
z
M 9.8125 72.90625 
L 30.078125 72.90625 
Q 51.265625 72.90625 61.171875 64.09375 
Q 71.09375 55.28125 71.09375 36.53125 
Q 71.09375 17.671875 61.125 8.828125 
Q 51.171875 0 30.078125 0 
L 9.8125 0 
z
" id="DejaVuSans-68"/>
      <path d="M 2.984375 54.6875 
L 12.5 54.6875 
L 29.59375 8.796875 
L 46.6875 54.6875 
L 56.203125 54.6875 
L 35.6875 0 
L 23.484375 0 
z
" id="DejaVuSans-118"/>
     </defs>
     <g transform="translate(712.2625 369.08375)scale(0.24 -0.24)">
      <use xlink:href="#DejaVuSans-68"/>
      <use x="77.001953" xlink:href="#DejaVuSans-101"/>
      <use x="138.525391" xlink:href="#DejaVuSans-110"/>
      <use x="201.904297" xlink:href="#DejaVuSans-118"/>
      <use x="261.083984" xlink:href="#DejaVuSans-101"/>
      <use x="322.607422" xlink:href="#DejaVuSans-114"/>
      <use x="363.720703" xlink:href="#DejaVuSans-32"/>
      <use x="395.507812" xlink:href="#DejaVuSans-78"/>
      <use x="470.3125" xlink:href="#DejaVuSans-61"/>
      <use x="554.101562" xlink:href="#DejaVuSans-56"/>
      <use x="617.724609" xlink:href="#DejaVuSans-51"/>
     </g>
    </g>
    <g id="line2d_47">
     <path d="M 645.0625 395.91125 
L 693.0625 395.91125 
" style="fill:none;stroke:#1f77b4;stroke-linecap:square;stroke-width:8;"/>
    </g>
    <g id="line2d_48"/>
    <g id="text_25">
     <!-- SanFrancisco N=99 -->
     <defs>
      <path d="M 9.8125 72.90625 
L 51.703125 72.90625 
L 51.703125 64.59375 
L 19.671875 64.59375 
L 19.671875 43.109375 
L 48.578125 43.109375 
L 48.578125 34.8125 
L 19.671875 34.8125 
L 19.671875 0 
L 9.8125 0 
z
" id="DejaVuSans-70"/>
     </defs>
     <g transform="translate(712.2625 404.31125)scale(0.24 -0.24)">
      <use xlink:href="#DejaVuSans-83"/>
      <use x="63.476562" xlink:href="#DejaVuSans-97"/>
      <use x="124.755859" xlink:href="#DejaVuSans-110"/>
      <use x="188.134766" xlink:href="#DejaVuSans-70"/>
      <use x="245.544922" xlink:href="#DejaVuSans-114"/>
      <use x="286.658203" xlink:href="#DejaVuSans-97"/>
      <use x="347.9375" xlink:href="#DejaVuSans-110"/>
      <use x="411.316406" xlink:href="#DejaVuSans-99"/>
      <use x="466.296875" xlink:href="#DejaVuSans-105"/>
      <use x="494.080078" xlink:href="#DejaVuSans-115"/>
      <use x="546.179688" xlink:href="#DejaVuSans-99"/>
      <use x="601.160156" xlink:href="#DejaVuSans-111"/>
      <use x="662.341797" xlink:href="#DejaVuSans-32"/>
      <use x="694.128906" xlink:href="#DejaVuSans-78"/>
      <use x="768.933594" xlink:href="#DejaVuSans-61"/>
      <use x="852.722656" xlink:href="#DejaVuSans-57"/>
      <use x="916.345703" xlink:href="#DejaVuSans-57"/>
     </g>
    </g>
    <g id="line2d_49">
     <path d="M 645.0625 431.13875 
L 693.0625 431.13875 
" style="fill:none;stroke:#ff7f0e;stroke-linecap:square;stroke-width:8;"/>
    </g>
    <g id="line2d_50"/>
    <g id="text_26">
     <!-- UMissouri N=106 -->
     <defs>
      <path d="M 9.8125 72.90625 
L 24.515625 72.90625 
L 43.109375 23.296875 
L 61.8125 72.90625 
L 76.515625 72.90625 
L 76.515625 0 
L 66.890625 0 
L 66.890625 64.015625 
L 48.09375 14.015625 
L 38.1875 14.015625 
L 19.390625 64.015625 
L 19.390625 0 
L 9.8125 0 
z
" id="DejaVuSans-77"/>
     </defs>
     <g transform="translate(712.2625 439.53875)scale(0.24 -0.24)">
      <use xlink:href="#DejaVuSans-85"/>
      <use x="73.193359" xlink:href="#DejaVuSans-77"/>
      <use x="159.472656" xlink:href="#DejaVuSans-105"/>
      <use x="187.255859" xlink:href="#DejaVuSans-115"/>
      <use x="239.355469" xlink:href="#DejaVuSans-115"/>
      <use x="291.455078" xlink:href="#DejaVuSans-111"/>
      <use x="352.636719" xlink:href="#DejaVuSans-117"/>
      <use x="416.015625" xlink:href="#DejaVuSans-114"/>
      <use x="457.128906" xlink:href="#DejaVuSans-105"/>
      <use x="484.912109" xlink:href="#DejaVuSans-32"/>
      <use x="516.699219" xlink:href="#DejaVuSans-78"/>
      <use x="591.503906" xlink:href="#DejaVuSans-61"/>
      <use x="675.292969" xlink:href="#DejaVuSans-49"/>
      <use x="738.916016" xlink:href="#DejaVuSans-48"/>
      <use x="802.539062" xlink:href="#DejaVuSans-54"/>
     </g>
    </g>
    <g id="line2d_51">
     <path d="M 645.0625 466.36625 
L 693.0625 466.36625 
" style="fill:none;stroke:#2ca02c;stroke-linecap:square;stroke-width:8;"/>
    </g>
    <g id="line2d_52"/>
    <g id="text_27">
     <!-- Toronto N=109 -->
     <g transform="translate(712.2625 474.76625)scale(0.24 -0.24)">
      <use xlink:href="#DejaVuSans-84"/>
      <use x="60.818359" xlink:href="#DejaVuSans-111"/>
      <use x="122" xlink:href="#DejaVuSans-114"/>
      <use x="163.082031" xlink:href="#DejaVuSans-111"/>
      <use x="224.263672" xlink:href="#DejaVuSans-110"/>
      <use x="287.642578" xlink:href="#DejaVuSans-116"/>
      <use x="326.851562" xlink:href="#DejaVuSans-111"/>
      <use x="388.033203" xlink:href="#DejaVuSans-32"/>
      <use x="419.820312" xlink:href="#DejaVuSans-78"/>
      <use x="494.625" xlink:href="#DejaVuSans-61"/>
      <use x="578.414062" xlink:href="#DejaVuSans-49"/>
      <use x="642.037109" xlink:href="#DejaVuSans-48"/>
      <use x="705.660156" xlink:href="#DejaVuSans-57"/>
     </g>
    </g>
    <g id="line2d_53">
     <path d="M 645.0625 501.59375 
L 693.0625 501.59375 
" style="fill:none;stroke:#d62728;stroke-linecap:square;stroke-width:8;"/>
    </g>
    <g id="line2d_54"/>
    <g id="text_28">
     <!-- Roanoke N=230 -->
     <defs>
      <path d="M 44.390625 34.1875 
Q 47.5625 33.109375 50.5625 29.59375 
Q 53.5625 26.078125 56.59375 19.921875 
L 66.609375 0 
L 56 0 
L 46.6875 18.703125 
Q 43.0625 26.03125 39.671875 28.421875 
Q 36.28125 30.8125 30.421875 30.8125 
L 19.671875 30.8125 
L 19.671875 0 
L 9.8125 0 
L 9.8125 72.90625 
L 32.078125 72.90625 
Q 44.578125 72.90625 50.734375 67.671875 
Q 56.890625 62.453125 56.890625 51.90625 
Q 56.890625 45.015625 53.6875 40.46875 
Q 50.484375 35.9375 44.390625 34.1875 
z
M 19.671875 64.796875 
L 19.671875 38.921875 
L 32.078125 38.921875 
Q 39.203125 38.921875 42.84375 42.21875 
Q 46.484375 45.515625 46.484375 51.90625 
Q 46.484375 58.296875 42.84375 61.546875 
Q 39.203125 64.796875 32.078125 64.796875 
z
" id="DejaVuSans-82"/>
      <path d="M 9.078125 75.984375 
L 18.109375 75.984375 
L 18.109375 31.109375 
L 44.921875 54.6875 
L 56.390625 54.6875 
L 27.390625 29.109375 
L 57.625 0 
L 45.90625 0 
L 18.109375 26.703125 
L 18.109375 0 
L 9.078125 0 
z
" id="DejaVuSans-107"/>
     </defs>
     <g transform="translate(712.2625 509.99375)scale(0.24 -0.24)">
      <use xlink:href="#DejaVuSans-82"/>
      <use x="69.419922" xlink:href="#DejaVuSans-111"/>
      <use x="130.601562" xlink:href="#DejaVuSans-97"/>
      <use x="191.880859" xlink:href="#DejaVuSans-110"/>
      <use x="255.259766" xlink:href="#DejaVuSans-111"/>
      <use x="316.441406" xlink:href="#DejaVuSans-107"/>
      <use x="374.304688" xlink:href="#DejaVuSans-101"/>
      <use x="435.828125" xlink:href="#DejaVuSans-32"/>
      <use x="467.615234" xlink:href="#DejaVuSans-78"/>
      <use x="542.419922" xlink:href="#DejaVuSans-61"/>
      <use x="626.208984" xlink:href="#DejaVuSans-50"/>
      <use x="689.832031" xlink:href="#DejaVuSans-51"/>
      <use x="753.455078" xlink:href="#DejaVuSans-48"/>
     </g>
    </g>
   </g>
  </g>
 </g>
 <defs>
  <clipPath id="p14627ec3b3">
   <rect height="443.52" width="892.8" x="83.755" y="12.2"/>
  </clipPath>
 </defs>
</svg>
