<?xml version="1.0" encoding="utf-8" standalone="no"?>
<!DOCTYPE svg PUBLIC "-//W3C//DTD SVG 1.1//EN"
  "http://www.w3.org/Graphics/SVG/1.1/DTD/svg11.dtd">
<!-- Created with matplotlib (https://matplotlib.org/) -->
<svg height="534.495469pt" version="1.1" viewBox="0 0 997.018125 534.495469" width="997.018125pt" xmlns="http://www.w3.org/2000/svg" xmlns:xlink="http://www.w3.org/1999/xlink">
 <defs>
  <style type="text/css">
*{stroke-linecap:butt;stroke-linejoin:round;}
  </style>
 </defs>
 <g id="figure_1">
  <g id="patch_1">
   <path d="M 0 534.495469 
L 997.018125 534.495469 
L 997.018125 0 
L 0 0 
z
" style="fill:#ffffff;"/>
  </g>
  <g id="axes_1">
   <g id="patch_2">
    <path d="M 92.018125 460.597969 
L 984.818125 460.597969 
L 984.818125 17.077969 
L 92.018125 17.077969 
z
" style="fill:#ffffff;"/>
   </g>
   <g id="PathCollection_1">
    <defs>
     <path d="M 0 4 
C 1.060812 4 2.078319 3.578535 2.828427 2.828427 
C 3.578535 2.078319 4 1.060812 4 0 
C 4 -1.060812 3.578535 -2.078319 2.828427 -2.828427 
C 2.078319 -3.578535 1.060812 -4 0 -4 
C -1.060812 -4 -2.078319 -3.578535 -2.828427 -2.828427 
C -3.578535 -2.078319 -4 -1.060812 -4 0 
C -4 1.060812 -3.578535 2.078319 -2.828427 2.828427 
C -2.078319 3.578535 -1.060812 4 0 4 
z
" id="m97ac036b7c" style="stroke:#1f77b4;"/>
    </defs>
    <g clip-path="url(#pf09eafe5cd)">
     <use style="fill:#1f77b4;stroke:#1f77b4;" x="136.660941" xlink:href="#m97ac036b7c" y="460.597969"/>
     <use style="fill:#1f77b4;stroke:#1f77b4;" x="270.580002" xlink:href="#m97ac036b7c" y="460.597969"/>
     <use style="fill:#1f77b4;stroke:#1f77b4;" x="404.499064" xlink:href="#m97ac036b7c" y="460.597969"/>
     <use style="fill:#1f77b4;stroke:#1f77b4;" x="538.418125" xlink:href="#m97ac036b7c" y="460.597969"/>
     <use style="fill:#1f77b4;stroke:#1f77b4;" x="672.337186" xlink:href="#m97ac036b7c" y="460.597969"/>
     <use style="fill:#1f77b4;stroke:#1f77b4;" x="806.256248" xlink:href="#m97ac036b7c" y="460.597969"/>
     <use style="fill:#1f77b4;stroke:#1f77b4;" x="940.175309" xlink:href="#m97ac036b7c" y="460.597969"/>
    </g>
   </g>
   <g id="PathCollection_2">
    <defs>
     <path d="M -4 0 
L 4 0 
M 0 4 
L 0 -4 
" id="m037ec051ab" style="stroke:#ff7f0e;stroke-width:1.5;"/>
    </defs>
    <g clip-path="url(#pf09eafe5cd)">
     <use style="fill:#ff7f0e;stroke:#ff7f0e;stroke-width:1.5;" x="136.660941" xlink:href="#m037ec051ab" y="460.597969"/>
     <use style="fill:#ff7f0e;stroke:#ff7f0e;stroke-width:1.5;" x="270.580002" xlink:href="#m037ec051ab" y="460.597969"/>
     <use style="fill:#ff7f0e;stroke:#ff7f0e;stroke-width:1.5;" x="404.499064" xlink:href="#m037ec051ab" y="460.597969"/>
     <use style="fill:#ff7f0e;stroke:#ff7f0e;stroke-width:1.5;" x="538.418125" xlink:href="#m037ec051ab" y="460.597969"/>
     <use style="fill:#ff7f0e;stroke:#ff7f0e;stroke-width:1.5;" x="672.337186" xlink:href="#m037ec051ab" y="460.597969"/>
     <use style="fill:#ff7f0e;stroke:#ff7f0e;stroke-width:1.5;" x="806.256248" xlink:href="#m037ec051ab" y="460.597969"/>
     <use style="fill:#ff7f0e;stroke:#ff7f0e;stroke-width:1.5;" x="940.175309" xlink:href="#m037ec051ab" y="460.597969"/>
    </g>
   </g>
   <g id="PathCollection_3">
    <defs>
     <path d="M -4 4 
L 4 -4 
M -4 -4 
L 4 4 
" id="m570403cc60" style="stroke:#2ca02c;stroke-width:1.5;"/>
    </defs>
    <g clip-path="url(#pf09eafe5cd)">
     <use style="fill:#2ca02c;stroke:#2ca02c;stroke-width:1.5;" x="136.660941" xlink:href="#m570403cc60" y="460.597969"/>
     <use style="fill:#2ca02c;stroke:#2ca02c;stroke-width:1.5;" x="270.580002" xlink:href="#m570403cc60" y="460.597969"/>
     <use style="fill:#2ca02c;stroke:#2ca02c;stroke-width:1.5;" x="404.499064" xlink:href="#m570403cc60" y="460.597969"/>
     <use style="fill:#2ca02c;stroke:#2ca02c;stroke-width:1.5;" x="538.418125" xlink:href="#m570403cc60" y="460.597969"/>
     <use style="fill:#2ca02c;stroke:#2ca02c;stroke-width:1.5;" x="672.337186" xlink:href="#m570403cc60" y="460.597969"/>
     <use style="fill:#2ca02c;stroke:#2ca02c;stroke-width:1.5;" x="806.256248" xlink:href="#m570403cc60" y="460.597969"/>
     <use style="fill:#2ca02c;stroke:#2ca02c;stroke-width:1.5;" x="940.175309" xlink:href="#m570403cc60" y="460.597969"/>
    </g>
   </g>
   <g id="PathCollection_4">
    <defs>
     <path d="M 0 5.656854 
L 5.656854 0 
L 0 -5.656854 
L -5.656854 0 
z
" id="mf10c87a3cf" style="stroke:#d62728;"/>
    </defs>
    <g clip-path="url(#pf09eafe5cd)">
     <use style="fill:#d62728;stroke:#d62728;" x="136.660941" xlink:href="#mf10c87a3cf" y="460.597969"/>
     <use style="fill:#d62728;stroke:#d62728;" x="270.580002" xlink:href="#mf10c87a3cf" y="460.597969"/>
     <use style="fill:#d62728;stroke:#d62728;" x="404.499064" xlink:href="#mf10c87a3cf" y="460.597969"/>
     <use style="fill:#d62728;stroke:#d62728;" x="538.418125" xlink:href="#mf10c87a3cf" y="460.597969"/>
     <use style="fill:#d62728;stroke:#d62728;" x="672.337186" xlink:href="#mf10c87a3cf" y="450.326123"/>
     <use style="fill:#d62728;stroke:#d62728;" x="806.256248" xlink:href="#mf10c87a3cf" y="422.765031"/>
     <use style="fill:#d62728;stroke:#d62728;" x="940.175309" xlink:href="#mf10c87a3cf" y="395.610746"/>
    </g>
   </g>
   <g id="PathCollection_5">
    <defs>
     <path d="M 0 -4 
L -0.898056 -1.236068 
L -3.804226 -1.236068 
L -1.453085 0.472136 
L -2.351141 3.236068 
L -0 1.527864 
L 2.351141 3.236068 
L 1.453085 0.472136 
L 3.804226 -1.236068 
L 0.898056 -1.236068 
z
" id="m2aeab708de" style="stroke:#9467bd;"/>
    </defs>
    <g clip-path="url(#pf09eafe5cd)">
     <use style="fill:#9467bd;stroke:#9467bd;" x="136.660941" xlink:href="#m2aeab708de" y="460.597969"/>
     <use style="fill:#9467bd;stroke:#9467bd;" x="270.580002" xlink:href="#m2aeab708de" y="451.223603"/>
     <use style="fill:#9467bd;stroke:#9467bd;" x="404.499064" xlink:href="#m2aeab708de" y="397.45224"/>
     <use style="fill:#9467bd;stroke:#9467bd;" x="538.418125" xlink:href="#m2aeab708de" y="363.104563"/>
     <use style="fill:#9467bd;stroke:#9467bd;" x="672.337186" xlink:href="#m2aeab708de" y="337.531293"/>
     <use style="fill:#9467bd;stroke:#9467bd;" x="806.256248" xlink:href="#m2aeab708de" y="316.232734"/>
     <use style="fill:#9467bd;stroke:#9467bd;" x="940.175309" xlink:href="#m2aeab708de" y="296.209088"/>
    </g>
   </g>
   <g id="PathCollection_6">
    <defs>
     <path d="M -4 4 
L 4 4 
L 4 -4 
L -4 -4 
z
" id="m7eddaec5ed" style="stroke:#8c564b;"/>
    </defs>
    <g clip-path="url(#pf09eafe5cd)">
     <use style="fill:#8c564b;stroke:#8c564b;" x="136.660941" xlink:href="#m7eddaec5ed" y="460.597969"/>
     <use style="fill:#8c564b;stroke:#8c564b;" x="270.580002" xlink:href="#m7eddaec5ed" y="348.409568"/>
     <use style="fill:#8c564b;stroke:#8c564b;" x="404.499064" xlink:href="#m7eddaec5ed" y="299.469814"/>
     <use style="fill:#8c564b;stroke:#8c564b;" x="538.418125" xlink:href="#m7eddaec5ed" y="273.96992"/>
     <use style="fill:#8c564b;stroke:#8c564b;" x="672.337186" xlink:href="#m7eddaec5ed" y="254.98419"/>
     <use style="fill:#8c564b;stroke:#8c564b;" x="806.256248" xlink:href="#m7eddaec5ed" y="239.172029"/>
     <use style="fill:#8c564b;stroke:#8c564b;" x="940.175309" xlink:href="#m7eddaec5ed" y="224.306369"/>
    </g>
   </g>
   <g id="PathCollection_7">
    <defs>
     <path d="M 0 0 
L 0 -4 
M 0 0 
L -3.2 2 
M 0 0 
L 3.2 2 
" id="mf48b63d035" style="stroke:#e377c2;stroke-width:1.5;"/>
    </defs>
    <g clip-path="url(#pf09eafe5cd)">
     <use style="fill:#e377c2;stroke:#e377c2;stroke-width:1.5;" x="136.660941" xlink:href="#mf48b63d035" y="460.597969"/>
     <use style="fill:#e377c2;stroke:#e377c2;stroke-width:1.5;" x="270.580002" xlink:href="#mf48b63d035" y="341.32705"/>
     <use style="fill:#e377c2;stroke:#e377c2;stroke-width:1.5;" x="404.499064" xlink:href="#mf48b63d035" y="293.433428"/>
     <use style="fill:#e377c2;stroke:#e377c2;stroke-width:1.5;" x="538.418125" xlink:href="#mf48b63d035" y="268.478617"/>
     <use style="fill:#e377c2;stroke:#e377c2;stroke-width:1.5;" x="672.337186" xlink:href="#mf48b63d035" y="249.898726"/>
     <use style="fill:#e377c2;stroke:#e377c2;stroke-width:1.5;" x="806.256248" xlink:href="#mf48b63d035" y="234.424563"/>
     <use style="fill:#e377c2;stroke:#e377c2;stroke-width:1.5;" x="940.175309" xlink:href="#mf48b63d035" y="219.876671"/>
    </g>
   </g>
   <g id="matplotlib.axis_1">
    <g id="xtick_1">
     <g id="line2d_1">
      <defs>
       <path d="M 0 5 
L 0 -5 
" id="m7f15689eb9" style="stroke:#525252;stroke-width:4;"/>
      </defs>
      <g>
       <use style="fill:#525252;stroke:#525252;stroke-width:4;" x="136.660941" xlink:href="#m7f15689eb9" y="460.597969"/>
      </g>
     </g>
     <g id="text_1">
      <!-- 0 -->
      <defs>
       <path d="M 31.78125 66.40625 
Q 24.171875 66.40625 20.328125 58.90625 
Q 16.5 51.421875 16.5 36.375 
Q 16.5 21.390625 20.328125 13.890625 
Q 24.171875 6.390625 31.78125 6.390625 
Q 39.453125 6.390625 43.28125 13.890625 
Q 47.125 21.390625 47.125 36.375 
Q 47.125 51.421875 43.28125 58.90625 
Q 39.453125 66.40625 31.78125 66.40625 
z
M 31.78125 74.21875 
Q 44.046875 74.21875 50.515625 64.515625 
Q 56.984375 54.828125 56.984375 36.375 
Q 56.984375 17.96875 50.515625 8.265625 
Q 44.046875 -1.421875 31.78125 -1.421875 
Q 19.53125 -1.421875 13.0625 8.265625 
Q 6.59375 17.96875 6.59375 36.375 
Q 6.59375 54.828125 13.0625 64.515625 
Q 19.53125 74.21875 31.78125 74.21875 
z
" id="DejaVuSans-48"/>
      </defs>
      <g transform="translate(129.025941 487.334219)scale(0.24 -0.24)">
       <use xlink:href="#DejaVuSans-48"/>
      </g>
     </g>
    </g>
    <g id="xtick_2">
     <g id="line2d_2">
      <g>
       <use style="fill:#525252;stroke:#525252;stroke-width:4;" x="270.580002" xlink:href="#m7f15689eb9" y="460.597969"/>
      </g>
     </g>
     <g id="text_2">
      <!-- 20 -->
      <defs>
       <path d="M 19.1875 8.296875 
L 53.609375 8.296875 
L 53.609375 0 
L 7.328125 0 
L 7.328125 8.296875 
Q 12.9375 14.109375 22.625 23.890625 
Q 32.328125 33.6875 34.8125 36.53125 
Q 39.546875 41.84375 41.421875 45.53125 
Q 43.3125 49.21875 43.3125 52.78125 
Q 43.3125 58.59375 39.234375 62.25 
Q 35.15625 65.921875 28.609375 65.921875 
Q 23.96875 65.921875 18.8125 64.3125 
Q 13.671875 62.703125 7.8125 59.421875 
L 7.8125 69.390625 
Q 13.765625 71.78125 18.9375 73 
Q 24.125 74.21875 28.421875 74.21875 
Q 39.75 74.21875 46.484375 68.546875 
Q 53.21875 62.890625 53.21875 53.421875 
Q 53.21875 48.921875 51.53125 44.890625 
Q 49.859375 40.875 45.40625 35.40625 
Q 44.1875 33.984375 37.640625 27.21875 
Q 31.109375 20.453125 19.1875 8.296875 
z
" id="DejaVuSans-50"/>
      </defs>
      <g transform="translate(255.310002 487.334219)scale(0.24 -0.24)">
       <use xlink:href="#DejaVuSans-50"/>
       <use x="63.623047" xlink:href="#DejaVuSans-48"/>
      </g>
     </g>
    </g>
    <g id="xtick_3">
     <g id="line2d_3">
      <g>
       <use style="fill:#525252;stroke:#525252;stroke-width:4;" x="404.499064" xlink:href="#m7f15689eb9" y="460.597969"/>
      </g>
     </g>
     <g id="text_3">
      <!-- 40 -->
      <defs>
       <path d="M 37.796875 64.3125 
L 12.890625 25.390625 
L 37.796875 25.390625 
z
M 35.203125 72.90625 
L 47.609375 72.90625 
L 47.609375 25.390625 
L 58.015625 25.390625 
L 58.015625 17.1875 
L 47.609375 17.1875 
L 47.609375 0 
L 37.796875 0 
L 37.796875 17.1875 
L 4.890625 17.1875 
L 4.890625 26.703125 
z
" id="DejaVuSans-52"/>
      </defs>
      <g transform="translate(389.229064 487.334219)scale(0.24 -0.24)">
       <use xlink:href="#DejaVuSans-52"/>
       <use x="63.623047" xlink:href="#DejaVuSans-48"/>
      </g>
     </g>
    </g>
    <g id="xtick_4">
     <g id="line2d_4">
      <g>
       <use style="fill:#525252;stroke:#525252;stroke-width:4;" x="538.418125" xlink:href="#m7f15689eb9" y="460.597969"/>
      </g>
     </g>
     <g id="text_4">
      <!-- 60 -->
      <defs>
       <path d="M 33.015625 40.375 
Q 26.375 40.375 22.484375 35.828125 
Q 18.609375 31.296875 18.609375 23.390625 
Q 18.609375 15.53125 22.484375 10.953125 
Q 26.375 6.390625 33.015625 6.390625 
Q 39.65625 6.390625 43.53125 10.953125 
Q 47.40625 15.53125 47.40625 23.390625 
Q 47.40625 31.296875 43.53125 35.828125 
Q 39.65625 40.375 33.015625 40.375 
z
M 52.59375 71.296875 
L 52.59375 62.3125 
Q 48.875 64.0625 45.09375 64.984375 
Q 41.3125 65.921875 37.59375 65.921875 
Q 27.828125 65.921875 22.671875 59.328125 
Q 17.53125 52.734375 16.796875 39.40625 
Q 19.671875 43.65625 24.015625 45.921875 
Q 28.375 48.1875 33.59375 48.1875 
Q 44.578125 48.1875 50.953125 41.515625 
Q 57.328125 34.859375 57.328125 23.390625 
Q 57.328125 12.15625 50.6875 5.359375 
Q 44.046875 -1.421875 33.015625 -1.421875 
Q 20.359375 -1.421875 13.671875 8.265625 
Q 6.984375 17.96875 6.984375 36.375 
Q 6.984375 53.65625 15.1875 63.9375 
Q 23.390625 74.21875 37.203125 74.21875 
Q 40.921875 74.21875 44.703125 73.484375 
Q 48.484375 72.75 52.59375 71.296875 
z
" id="DejaVuSans-54"/>
      </defs>
      <g transform="translate(523.148125 487.334219)scale(0.24 -0.24)">
       <use xlink:href="#DejaVuSans-54"/>
       <use x="63.623047" xlink:href="#DejaVuSans-48"/>
      </g>
     </g>
    </g>
    <g id="xtick_5">
     <g id="line2d_5">
      <g>
       <use style="fill:#525252;stroke:#525252;stroke-width:4;" x="672.337186" xlink:href="#m7f15689eb9" y="460.597969"/>
      </g>
     </g>
     <g id="text_5">
      <!-- 80 -->
      <defs>
       <path d="M 31.78125 34.625 
Q 24.75 34.625 20.71875 30.859375 
Q 16.703125 27.09375 16.703125 20.515625 
Q 16.703125 13.921875 20.71875 10.15625 
Q 24.75 6.390625 31.78125 6.390625 
Q 38.8125 6.390625 42.859375 10.171875 
Q 46.921875 13.96875 46.921875 20.515625 
Q 46.921875 27.09375 42.890625 30.859375 
Q 38.875 34.625 31.78125 34.625 
z
M 21.921875 38.8125 
Q 15.578125 40.375 12.03125 44.71875 
Q 8.5 49.078125 8.5 55.328125 
Q 8.5 64.0625 14.71875 69.140625 
Q 20.953125 74.21875 31.78125 74.21875 
Q 42.671875 74.21875 48.875 69.140625 
Q 55.078125 64.0625 55.078125 55.328125 
Q 55.078125 49.078125 51.53125 44.71875 
Q 48 40.375 41.703125 38.8125 
Q 48.828125 37.15625 52.796875 32.3125 
Q 56.78125 27.484375 56.78125 20.515625 
Q 56.78125 9.90625 50.3125 4.234375 
Q 43.84375 -1.421875 31.78125 -1.421875 
Q 19.734375 -1.421875 13.25 4.234375 
Q 6.78125 9.90625 6.78125 20.515625 
Q 6.78125 27.484375 10.78125 32.3125 
Q 14.796875 37.15625 21.921875 38.8125 
z
M 18.3125 54.390625 
Q 18.3125 48.734375 21.84375 45.5625 
Q 25.390625 42.390625 31.78125 42.390625 
Q 38.140625 42.390625 41.71875 45.5625 
Q 45.3125 48.734375 45.3125 54.390625 
Q 45.3125 60.0625 41.71875 63.234375 
Q 38.140625 66.40625 31.78125 66.40625 
Q 25.390625 66.40625 21.84375 63.234375 
Q 18.3125 60.0625 18.3125 54.390625 
z
" id="DejaVuSans-56"/>
      </defs>
      <g transform="translate(657.067186 487.334219)scale(0.24 -0.24)">
       <use xlink:href="#DejaVuSans-56"/>
       <use x="63.623047" xlink:href="#DejaVuSans-48"/>
      </g>
     </g>
    </g>
    <g id="xtick_6">
     <g id="line2d_6">
      <g>
       <use style="fill:#525252;stroke:#525252;stroke-width:4;" x="806.256248" xlink:href="#m7f15689eb9" y="460.597969"/>
      </g>
     </g>
     <g id="text_6">
      <!-- 100 -->
      <defs>
       <path d="M 12.40625 8.296875 
L 28.515625 8.296875 
L 28.515625 63.921875 
L 10.984375 60.40625 
L 10.984375 69.390625 
L 28.421875 72.90625 
L 38.28125 72.90625 
L 38.28125 8.296875 
L 54.390625 8.296875 
L 54.390625 0 
L 12.40625 0 
z
" id="DejaVuSans-49"/>
      </defs>
      <g transform="translate(783.351248 487.334219)scale(0.24 -0.24)">
       <use xlink:href="#DejaVuSans-49"/>
       <use x="63.623047" xlink:href="#DejaVuSans-48"/>
       <use x="127.246094" xlink:href="#DejaVuSans-48"/>
      </g>
     </g>
    </g>
    <g id="xtick_7">
     <g id="line2d_7">
      <g>
       <use style="fill:#525252;stroke:#525252;stroke-width:4;" x="940.175309" xlink:href="#m7f15689eb9" y="460.597969"/>
      </g>
     </g>
     <g id="text_7">
      <!-- 120 -->
      <g transform="translate(917.270309 487.334219)scale(0.24 -0.24)">
       <use xlink:href="#DejaVuSans-49"/>
       <use x="63.623047" xlink:href="#DejaVuSans-50"/>
       <use x="127.246094" xlink:href="#DejaVuSans-48"/>
      </g>
     </g>
    </g>
    <g id="text_8">
     <!-- Error(E) -->
     <defs>
      <path d="M 9.8125 72.90625 
L 55.90625 72.90625 
L 55.90625 64.59375 
L 19.671875 64.59375 
L 19.671875 43.015625 
L 54.390625 43.015625 
L 54.390625 34.71875 
L 19.671875 34.71875 
L 19.671875 8.296875 
L 56.78125 8.296875 
L 56.78125 0 
L 9.8125 0 
z
" id="DejaVuSans-69"/>
      <path d="M 41.109375 46.296875 
Q 39.59375 47.171875 37.8125 47.578125 
Q 36.03125 48 33.890625 48 
Q 26.265625 48 22.1875 43.046875 
Q 18.109375 38.09375 18.109375 28.8125 
L 18.109375 0 
L 9.078125 0 
L 9.078125 54.6875 
L 18.109375 54.6875 
L 18.109375 46.1875 
Q 20.953125 51.171875 25.484375 53.578125 
Q 30.03125 56 36.53125 56 
Q 37.453125 56 38.578125 55.875 
Q 39.703125 55.765625 41.0625 55.515625 
z
" id="DejaVuSans-114"/>
      <path d="M 30.609375 48.390625 
Q 23.390625 48.390625 19.1875 42.75 
Q 14.984375 37.109375 14.984375 27.296875 
Q 14.984375 17.484375 19.15625 11.84375 
Q 23.34375 6.203125 30.609375 6.203125 
Q 37.796875 6.203125 41.984375 11.859375 
Q 46.1875 17.53125 46.1875 27.296875 
Q 46.1875 37.015625 41.984375 42.703125 
Q 37.796875 48.390625 30.609375 48.390625 
z
M 30.609375 56 
Q 42.328125 56 49.015625 48.375 
Q 55.71875 40.765625 55.71875 27.296875 
Q 55.71875 13.875 49.015625 6.21875 
Q 42.328125 -1.421875 30.609375 -1.421875 
Q 18.84375 -1.421875 12.171875 6.21875 
Q 5.515625 13.875 5.515625 27.296875 
Q 5.515625 40.765625 12.171875 48.375 
Q 18.84375 56 30.609375 56 
z
" id="DejaVuSans-111"/>
      <path d="M 31 75.875 
Q 24.46875 64.65625 21.28125 53.65625 
Q 18.109375 42.671875 18.109375 31.390625 
Q 18.109375 20.125 21.3125 9.0625 
Q 24.515625 -2 31 -13.1875 
L 23.1875 -13.1875 
Q 15.875 -1.703125 12.234375 9.375 
Q 8.59375 20.453125 8.59375 31.390625 
Q 8.59375 42.28125 12.203125 53.3125 
Q 15.828125 64.359375 23.1875 75.875 
z
" id="DejaVuSans-40"/>
      <path d="M 8.015625 75.875 
L 15.828125 75.875 
Q 23.140625 64.359375 26.78125 53.3125 
Q 30.421875 42.28125 30.421875 31.390625 
Q 30.421875 20.453125 26.78125 9.375 
Q 23.140625 -1.703125 15.828125 -13.1875 
L 8.015625 -13.1875 
Q 14.5 -2 17.703125 9.0625 
Q 20.90625 20.125 20.90625 31.390625 
Q 20.90625 42.671875 17.703125 53.65625 
Q 14.5 64.65625 8.015625 75.875 
z
" id="DejaVuSans-41"/>
     </defs>
     <g transform="translate(476.198125 520.640469)scale(0.32 -0.32)">
      <use xlink:href="#DejaVuSans-69"/>
      <use x="63.183594" xlink:href="#DejaVuSans-114"/>
      <use x="104.28125" xlink:href="#DejaVuSans-114"/>
      <use x="145.363281" xlink:href="#DejaVuSans-111"/>
      <use x="206.544922" xlink:href="#DejaVuSans-114"/>
      <use x="247.658203" xlink:href="#DejaVuSans-40"/>
      <use x="286.671875" xlink:href="#DejaVuSans-69"/>
      <use x="349.855469" xlink:href="#DejaVuSans-41"/>
     </g>
    </g>
   </g>
   <g id="matplotlib.axis_2">
    <g id="ytick_1">
     <g id="line2d_8">
      <defs>
       <path d="M 5 0 
L -5 -0 
" id="m13233e521f" style="stroke:#525252;stroke-width:4;"/>
      </defs>
      <g>
       <use style="fill:#525252;stroke:#525252;stroke-width:4;" x="92.018125" xlink:href="#m13233e521f" y="460.597969"/>
      </g>
     </g>
     <g id="text_9">
      <!-- 0.0 -->
      <defs>
       <path d="M 10.6875 12.40625 
L 21 12.40625 
L 21 0 
L 10.6875 0 
z
" id="DejaVuSans-46"/>
      </defs>
      <g transform="translate(42.17 470.475937)scale(0.26 -0.26)">
       <use xlink:href="#DejaVuSans-48"/>
       <use x="63.623047" xlink:href="#DejaVuSans-46"/>
       <use x="95.410156" xlink:href="#DejaVuSans-48"/>
      </g>
     </g>
    </g>
    <g id="ytick_2">
     <g id="line2d_9">
      <g>
       <use style="fill:#525252;stroke:#525252;stroke-width:4;" x="92.018125" xlink:href="#m13233e521f" y="371.893969"/>
      </g>
     </g>
     <g id="text_10">
      <!-- 0.2 -->
      <g transform="translate(42.17 381.771938)scale(0.26 -0.26)">
       <use xlink:href="#DejaVuSans-48"/>
       <use x="63.623047" xlink:href="#DejaVuSans-46"/>
       <use x="95.410156" xlink:href="#DejaVuSans-50"/>
      </g>
     </g>
    </g>
    <g id="ytick_3">
     <g id="line2d_10">
      <g>
       <use style="fill:#525252;stroke:#525252;stroke-width:4;" x="92.018125" xlink:href="#m13233e521f" y="283.189969"/>
      </g>
     </g>
     <g id="text_11">
      <!-- 0.4 -->
      <g transform="translate(42.17 293.067937)scale(0.26 -0.26)">
       <use xlink:href="#DejaVuSans-48"/>
       <use x="63.623047" xlink:href="#DejaVuSans-46"/>
       <use x="95.410156" xlink:href="#DejaVuSans-52"/>
      </g>
     </g>
    </g>
    <g id="ytick_4">
     <g id="line2d_11">
      <g>
       <use style="fill:#525252;stroke:#525252;stroke-width:4;" x="92.018125" xlink:href="#m13233e521f" y="194.485969"/>
      </g>
     </g>
     <g id="text_12">
      <!-- 0.6 -->
      <g transform="translate(42.17 204.363937)scale(0.26 -0.26)">
       <use xlink:href="#DejaVuSans-48"/>
       <use x="63.623047" xlink:href="#DejaVuSans-46"/>
       <use x="95.410156" xlink:href="#DejaVuSans-54"/>
      </g>
     </g>
    </g>
    <g id="ytick_5">
     <g id="line2d_12">
      <g>
       <use style="fill:#525252;stroke:#525252;stroke-width:4;" x="92.018125" xlink:href="#m13233e521f" y="105.781969"/>
      </g>
     </g>
     <g id="text_13">
      <!-- 0.8 -->
      <g transform="translate(42.17 115.659937)scale(0.26 -0.26)">
       <use xlink:href="#DejaVuSans-48"/>
       <use x="63.623047" xlink:href="#DejaVuSans-46"/>
       <use x="95.410156" xlink:href="#DejaVuSans-56"/>
      </g>
     </g>
    </g>
    <g id="ytick_6">
     <g id="line2d_13">
      <g>
       <use style="fill:#525252;stroke:#525252;stroke-width:4;" x="92.018125" xlink:href="#m13233e521f" y="17.077969"/>
      </g>
     </g>
     <g id="text_14">
      <!-- 1.0 -->
      <g transform="translate(42.17 26.955937)scale(0.26 -0.26)">
       <use xlink:href="#DejaVuSans-49"/>
       <use x="63.623047" xlink:href="#DejaVuSans-46"/>
       <use x="95.410156" xlink:href="#DejaVuSans-48"/>
      </g>
     </g>
    </g>
    <g id="text_15">
     <!-- P(Error&lt;E/Time&lt;T) -->
     <defs>
      <path d="M 19.671875 64.796875 
L 19.671875 37.40625 
L 32.078125 37.40625 
Q 38.96875 37.40625 42.71875 40.96875 
Q 46.484375 44.53125 46.484375 51.125 
Q 46.484375 57.671875 42.71875 61.234375 
Q 38.96875 64.796875 32.078125 64.796875 
z
M 9.8125 72.90625 
L 32.078125 72.90625 
Q 44.34375 72.90625 50.609375 67.359375 
Q 56.890625 61.8125 56.890625 51.125 
Q 56.890625 40.328125 50.609375 34.8125 
Q 44.34375 29.296875 32.078125 29.296875 
L 19.671875 29.296875 
L 19.671875 0 
L 9.8125 0 
z
" id="DejaVuSans-80"/>
      <path d="M 73.1875 49.21875 
L 22.796875 31.296875 
L 73.1875 13.484375 
L 73.1875 4.59375 
L 10.59375 27.296875 
L 10.59375 35.40625 
L 73.1875 58.109375 
z
" id="DejaVuSans-60"/>
      <path d="M 25.390625 72.90625 
L 33.6875 72.90625 
L 8.296875 -9.28125 
L 0 -9.28125 
z
" id="DejaVuSans-47"/>
      <path d="M -0.296875 72.90625 
L 61.375 72.90625 
L 61.375 64.59375 
L 35.5 64.59375 
L 35.5 0 
L 25.59375 0 
L 25.59375 64.59375 
L -0.296875 64.59375 
z
" id="DejaVuSans-84"/>
      <path d="M 9.421875 54.6875 
L 18.40625 54.6875 
L 18.40625 0 
L 9.421875 0 
z
M 9.421875 75.984375 
L 18.40625 75.984375 
L 18.40625 64.59375 
L 9.421875 64.59375 
z
" id="DejaVuSans-105"/>
      <path d="M 52 44.1875 
Q 55.375 50.25 60.0625 53.125 
Q 64.75 56 71.09375 56 
Q 79.640625 56 84.28125 50.015625 
Q 88.921875 44.046875 88.921875 33.015625 
L 88.921875 0 
L 79.890625 0 
L 79.890625 32.71875 
Q 79.890625 40.578125 77.09375 44.375 
Q 74.3125 48.1875 68.609375 48.1875 
Q 61.625 48.1875 57.5625 43.546875 
Q 53.515625 38.921875 53.515625 30.90625 
L 53.515625 0 
L 44.484375 0 
L 44.484375 32.71875 
Q 44.484375 40.625 41.703125 44.40625 
Q 38.921875 48.1875 33.109375 48.1875 
Q 26.21875 48.1875 22.15625 43.53125 
Q 18.109375 38.875 18.109375 30.90625 
L 18.109375 0 
L 9.078125 0 
L 9.078125 54.6875 
L 18.109375 54.6875 
L 18.109375 46.1875 
Q 21.1875 51.21875 25.484375 53.609375 
Q 29.78125 56 35.6875 56 
Q 41.65625 56 45.828125 52.96875 
Q 50 49.953125 52 44.1875 
z
" id="DejaVuSans-109"/>
      <path d="M 56.203125 29.59375 
L 56.203125 25.203125 
L 14.890625 25.203125 
Q 15.484375 15.921875 20.484375 11.0625 
Q 25.484375 6.203125 34.421875 6.203125 
Q 39.59375 6.203125 44.453125 7.46875 
Q 49.3125 8.734375 54.109375 11.28125 
L 54.109375 2.78125 
Q 49.265625 0.734375 44.1875 -0.34375 
Q 39.109375 -1.421875 33.890625 -1.421875 
Q 20.796875 -1.421875 13.15625 6.1875 
Q 5.515625 13.8125 5.515625 26.8125 
Q 5.515625 40.234375 12.765625 48.109375 
Q 20.015625 56 32.328125 56 
Q 43.359375 56 49.78125 48.890625 
Q 56.203125 41.796875 56.203125 29.59375 
z
M 47.21875 32.234375 
Q 47.125 39.59375 43.09375 43.984375 
Q 39.0625 48.390625 32.421875 48.390625 
Q 24.90625 48.390625 20.390625 44.140625 
Q 15.875 39.890625 15.1875 32.171875 
z
" id="DejaVuSans-101"/>
     </defs>
     <g transform="translate(31.515 392.322969)rotate(-90)scale(0.32 -0.32)">
      <use xlink:href="#DejaVuSans-80"/>
      <use x="60.302734" xlink:href="#DejaVuSans-40"/>
      <use x="99.316406" xlink:href="#DejaVuSans-69"/>
      <use x="162.5" xlink:href="#DejaVuSans-114"/>
      <use x="203.597656" xlink:href="#DejaVuSans-114"/>
      <use x="244.679688" xlink:href="#DejaVuSans-111"/>
      <use x="305.861328" xlink:href="#DejaVuSans-114"/>
      <use x="346.974609" xlink:href="#DejaVuSans-60"/>
      <use x="430.763672" xlink:href="#DejaVuSans-69"/>
      <use x="493.947266" xlink:href="#DejaVuSans-47"/>
      <use x="527.638672" xlink:href="#DejaVuSans-84"/>
      <use x="588.675781" xlink:href="#DejaVuSans-105"/>
      <use x="616.458984" xlink:href="#DejaVuSans-109"/>
      <use x="713.871094" xlink:href="#DejaVuSans-101"/>
      <use x="775.394531" xlink:href="#DejaVuSans-60"/>
      <use x="859.183594" xlink:href="#DejaVuSans-84"/>
      <use x="920.267578" xlink:href="#DejaVuSans-41"/>
     </g>
    </g>
   </g>
   <g id="line2d_14">
    <path clip-path="url(#pf09eafe5cd)" d="M 136.660941 460.597969 
L 270.580002 460.597969 
L 404.499064 460.597969 
L 538.418125 460.597969 
L 672.337186 460.597969 
L 806.256248 460.597969 
L 940.175309 460.597969 
" style="fill:none;stroke:#1f77b4;stroke-linecap:square;stroke-width:1.5;"/>
   </g>
   <g id="line2d_15">
    <path clip-path="url(#pf09eafe5cd)" d="M 136.660941 460.597969 
L 270.580002 460.597969 
L 404.499064 460.597969 
L 538.418125 460.597969 
L 672.337186 460.597969 
L 806.256248 460.597969 
L 940.175309 460.597969 
" style="fill:none;stroke:#ff7f0e;stroke-linecap:square;stroke-width:1.5;"/>
   </g>
   <g id="line2d_16">
    <path clip-path="url(#pf09eafe5cd)" d="M 136.660941 460.597969 
L 270.580002 460.597969 
L 404.499064 460.597969 
L 538.418125 460.597969 
L 672.337186 460.597969 
L 806.256248 460.597969 
L 940.175309 460.597969 
" style="fill:none;stroke:#2ca02c;stroke-linecap:square;stroke-width:1.5;"/>
   </g>
   <g id="line2d_17">
    <path clip-path="url(#pf09eafe5cd)" d="M 136.660941 460.597969 
L 270.580002 460.597969 
L 404.499064 460.597969 
L 538.418125 460.597969 
L 672.337186 450.326123 
L 806.256248 422.765031 
L 940.175309 395.610746 
" style="fill:none;stroke:#d62728;stroke-linecap:square;stroke-width:1.5;"/>
   </g>
   <g id="line2d_18">
    <path clip-path="url(#pf09eafe5cd)" d="M 136.660941 460.597969 
L 270.580002 451.223603 
L 404.499064 397.45224 
L 538.418125 363.104563 
L 672.337186 337.531293 
L 806.256248 316.232734 
L 940.175309 296.209088 
" style="fill:none;stroke:#9467bd;stroke-linecap:square;stroke-width:1.5;"/>
   </g>
   <g id="line2d_19">
    <path clip-path="url(#pf09eafe5cd)" d="M 136.660941 460.597969 
L 270.580002 348.409568 
L 404.499064 299.469814 
L 538.418125 273.96992 
L 672.337186 254.98419 
L 806.256248 239.172029 
L 940.175309 224.306369 
" style="fill:none;stroke:#8c564b;stroke-linecap:square;stroke-width:1.5;"/>
   </g>
   <g id="line2d_20">
    <path clip-path="url(#pf09eafe5cd)" d="M 136.660941 460.597969 
L 270.580002 341.32705 
L 404.499064 293.433428 
L 538.418125 268.478617 
L 672.337186 249.898726 
L 806.256248 234.424563 
L 940.175309 219.876671 
" style="fill:none;stroke:#e377c2;stroke-linecap:square;stroke-width:1.5;"/>
   </g>
   <g id="legend_1">
    <g id="patch_3">
     <path d="M 108.818125 282.870469 
L 331.129375 282.870469 
Q 335.929375 282.870469 335.929375 278.070469 
L 335.929375 33.877969 
Q 335.929375 29.077969 331.129375 29.077969 
L 108.818125 29.077969 
Q 104.018125 29.077969 104.018125 33.877969 
L 104.018125 278.070469 
Q 104.018125 282.870469 108.818125 282.870469 
z
" style="fill:#ffffff;opacity:0.4;stroke:#cccccc;stroke-linejoin:miter;"/>
    </g>
    <g id="PathCollection_8">
     <g>
      <use style="fill:#1f77b4;stroke:#1f77b4;" x="137.618125" xlink:href="#m97ac036b7c" y="50.614219"/>
     </g>
    </g>
    <g id="text_16">
     <!-- Time &lt;10s -->
     <defs>
      <path id="DejaVuSans-32"/>
      <path d="M 44.28125 53.078125 
L 44.28125 44.578125 
Q 40.484375 46.53125 36.375 47.5 
Q 32.28125 48.484375 27.875 48.484375 
Q 21.1875 48.484375 17.84375 46.4375 
Q 14.5 44.390625 14.5 40.28125 
Q 14.5 37.15625 16.890625 35.375 
Q 19.28125 33.59375 26.515625 31.984375 
L 29.59375 31.296875 
Q 39.15625 29.25 43.1875 25.515625 
Q 47.21875 21.78125 47.21875 15.09375 
Q 47.21875 7.46875 41.1875 3.015625 
Q 35.15625 -1.421875 24.609375 -1.421875 
Q 20.21875 -1.421875 15.453125 -0.5625 
Q 10.6875 0.296875 5.421875 2 
L 5.421875 11.28125 
Q 10.40625 8.6875 15.234375 7.390625 
Q 20.0625 6.109375 24.8125 6.109375 
Q 31.15625 6.109375 34.5625 8.28125 
Q 37.984375 10.453125 37.984375 14.40625 
Q 37.984375 18.0625 35.515625 20.015625 
Q 33.0625 21.96875 24.703125 23.78125 
L 21.578125 24.515625 
Q 13.234375 26.265625 9.515625 29.90625 
Q 5.8125 33.546875 5.8125 39.890625 
Q 5.8125 47.609375 11.28125 51.796875 
Q 16.75 56 26.8125 56 
Q 31.78125 56 36.171875 55.265625 
Q 40.578125 54.546875 44.28125 53.078125 
z
" id="DejaVuSans-115"/>
     </defs>
     <g transform="translate(180.818125 56.914219)scale(0.24 -0.24)">
      <use xlink:href="#DejaVuSans-84"/>
      <use x="61.037109" xlink:href="#DejaVuSans-105"/>
      <use x="88.820312" xlink:href="#DejaVuSans-109"/>
      <use x="186.232422" xlink:href="#DejaVuSans-101"/>
      <use x="247.755859" xlink:href="#DejaVuSans-32"/>
      <use x="279.542969" xlink:href="#DejaVuSans-60"/>
      <use x="363.332031" xlink:href="#DejaVuSans-49"/>
      <use x="426.955078" xlink:href="#DejaVuSans-48"/>
      <use x="490.578125" xlink:href="#DejaVuSans-115"/>
     </g>
    </g>
    <g id="PathCollection_9">
     <g>
      <use style="fill:#ff7f0e;stroke:#ff7f0e;stroke-width:1.5;" x="137.618125" xlink:href="#m037ec051ab" y="85.841719"/>
     </g>
    </g>
    <g id="text_17">
     <!-- Time &lt;20s -->
     <g transform="translate(180.818125 92.141719)scale(0.24 -0.24)">
      <use xlink:href="#DejaVuSans-84"/>
      <use x="61.037109" xlink:href="#DejaVuSans-105"/>
      <use x="88.820312" xlink:href="#DejaVuSans-109"/>
      <use x="186.232422" xlink:href="#DejaVuSans-101"/>
      <use x="247.755859" xlink:href="#DejaVuSans-32"/>
      <use x="279.542969" xlink:href="#DejaVuSans-60"/>
      <use x="363.332031" xlink:href="#DejaVuSans-50"/>
      <use x="426.955078" xlink:href="#DejaVuSans-48"/>
      <use x="490.578125" xlink:href="#DejaVuSans-115"/>
     </g>
    </g>
    <g id="PathCollection_10">
     <g>
      <use style="fill:#2ca02c;stroke:#2ca02c;stroke-width:1.5;" x="137.618125" xlink:href="#m570403cc60" y="121.069219"/>
     </g>
    </g>
    <g id="text_18">
     <!-- Time &lt;30s -->
     <defs>
      <path d="M 40.578125 39.3125 
Q 47.65625 37.796875 51.625 33 
Q 55.609375 28.21875 55.609375 21.1875 
Q 55.609375 10.40625 48.1875 4.484375 
Q 40.765625 -1.421875 27.09375 -1.421875 
Q 22.515625 -1.421875 17.65625 -0.515625 
Q 12.796875 0.390625 7.625 2.203125 
L 7.625 11.71875 
Q 11.71875 9.328125 16.59375 8.109375 
Q 21.484375 6.890625 26.8125 6.890625 
Q 36.078125 6.890625 40.9375 10.546875 
Q 45.796875 14.203125 45.796875 21.1875 
Q 45.796875 27.640625 41.28125 31.265625 
Q 36.765625 34.90625 28.71875 34.90625 
L 20.21875 34.90625 
L 20.21875 43.015625 
L 29.109375 43.015625 
Q 36.375 43.015625 40.234375 45.921875 
Q 44.09375 48.828125 44.09375 54.296875 
Q 44.09375 59.90625 40.109375 62.90625 
Q 36.140625 65.921875 28.71875 65.921875 
Q 24.65625 65.921875 20.015625 65.03125 
Q 15.375 64.15625 9.8125 62.3125 
L 9.8125 71.09375 
Q 15.4375 72.65625 20.34375 73.4375 
Q 25.25 74.21875 29.59375 74.21875 
Q 40.828125 74.21875 47.359375 69.109375 
Q 53.90625 64.015625 53.90625 55.328125 
Q 53.90625 49.265625 50.4375 45.09375 
Q 46.96875 40.921875 40.578125 39.3125 
z
" id="DejaVuSans-51"/>
     </defs>
     <g transform="translate(180.818125 127.369219)scale(0.24 -0.24)">
      <use xlink:href="#DejaVuSans-84"/>
      <use x="61.037109" xlink:href="#DejaVuSans-105"/>
      <use x="88.820312" xlink:href="#DejaVuSans-109"/>
      <use x="186.232422" xlink:href="#DejaVuSans-101"/>
      <use x="247.755859" xlink:href="#DejaVuSans-32"/>
      <use x="279.542969" xlink:href="#DejaVuSans-60"/>
      <use x="363.332031" xlink:href="#DejaVuSans-51"/>
      <use x="426.955078" xlink:href="#DejaVuSans-48"/>
      <use x="490.578125" xlink:href="#DejaVuSans-115"/>
     </g>
    </g>
    <g id="PathCollection_11">
     <g>
      <use style="fill:#d62728;stroke:#d62728;" x="137.618125" xlink:href="#mf10c87a3cf" y="156.296719"/>
     </g>
    </g>
    <g id="text_19">
     <!-- Time &lt;50s -->
     <defs>
      <path d="M 10.796875 72.90625 
L 49.515625 72.90625 
L 49.515625 64.59375 
L 19.828125 64.59375 
L 19.828125 46.734375 
Q 21.96875 47.46875 24.109375 47.828125 
Q 26.265625 48.1875 28.421875 48.1875 
Q 40.625 48.1875 47.75 41.5 
Q 54.890625 34.8125 54.890625 23.390625 
Q 54.890625 11.625 47.5625 5.09375 
Q 40.234375 -1.421875 26.90625 -1.421875 
Q 22.3125 -1.421875 17.546875 -0.640625 
Q 12.796875 0.140625 7.71875 1.703125 
L 7.71875 11.625 
Q 12.109375 9.234375 16.796875 8.0625 
Q 21.484375 6.890625 26.703125 6.890625 
Q 35.15625 6.890625 40.078125 11.328125 
Q 45.015625 15.765625 45.015625 23.390625 
Q 45.015625 31 40.078125 35.4375 
Q 35.15625 39.890625 26.703125 39.890625 
Q 22.75 39.890625 18.8125 39.015625 
Q 14.890625 38.140625 10.796875 36.28125 
z
" id="DejaVuSans-53"/>
     </defs>
     <g transform="translate(180.818125 162.596719)scale(0.24 -0.24)">
      <use xlink:href="#DejaVuSans-84"/>
      <use x="61.037109" xlink:href="#DejaVuSans-105"/>
      <use x="88.820312" xlink:href="#DejaVuSans-109"/>
      <use x="186.232422" xlink:href="#DejaVuSans-101"/>
      <use x="247.755859" xlink:href="#DejaVuSans-32"/>
      <use x="279.542969" xlink:href="#DejaVuSans-60"/>
      <use x="363.332031" xlink:href="#DejaVuSans-53"/>
      <use x="426.955078" xlink:href="#DejaVuSans-48"/>
      <use x="490.578125" xlink:href="#DejaVuSans-115"/>
     </g>
    </g>
    <g id="PathCollection_12">
     <g>
      <use style="fill:#9467bd;stroke:#9467bd;" x="137.618125" xlink:href="#m2aeab708de" y="191.524219"/>
     </g>
    </g>
    <g id="text_20">
     <!-- Time &lt;80s -->
     <g transform="translate(180.818125 197.824219)scale(0.24 -0.24)">
      <use xlink:href="#DejaVuSans-84"/>
      <use x="61.037109" xlink:href="#DejaVuSans-105"/>
      <use x="88.820312" xlink:href="#DejaVuSans-109"/>
      <use x="186.232422" xlink:href="#DejaVuSans-101"/>
      <use x="247.755859" xlink:href="#DejaVuSans-32"/>
      <use x="279.542969" xlink:href="#DejaVuSans-60"/>
      <use x="363.332031" xlink:href="#DejaVuSans-56"/>
      <use x="426.955078" xlink:href="#DejaVuSans-48"/>
      <use x="490.578125" xlink:href="#DejaVuSans-115"/>
     </g>
    </g>
    <g id="PathCollection_13">
     <g>
      <use style="fill:#8c564b;stroke:#8c564b;" x="137.618125" xlink:href="#m7eddaec5ed" y="226.751719"/>
     </g>
    </g>
    <g id="text_21">
     <!-- Time &lt;300s -->
     <g transform="translate(180.818125 233.051719)scale(0.24 -0.24)">
      <use xlink:href="#DejaVuSans-84"/>
      <use x="61.037109" xlink:href="#DejaVuSans-105"/>
      <use x="88.820312" xlink:href="#DejaVuSans-109"/>
      <use x="186.232422" xlink:href="#DejaVuSans-101"/>
      <use x="247.755859" xlink:href="#DejaVuSans-32"/>
      <use x="279.542969" xlink:href="#DejaVuSans-60"/>
      <use x="363.332031" xlink:href="#DejaVuSans-51"/>
      <use x="426.955078" xlink:href="#DejaVuSans-48"/>
      <use x="490.578125" xlink:href="#DejaVuSans-48"/>
      <use x="554.201172" xlink:href="#DejaVuSans-115"/>
     </g>
    </g>
    <g id="PathCollection_14">
     <g>
      <use style="fill:#e377c2;stroke:#e377c2;stroke-width:1.5;" x="137.618125" xlink:href="#mf48b63d035" y="261.979219"/>
     </g>
    </g>
    <g id="text_22">
     <!-- Time &lt;600s -->
     <g transform="translate(180.818125 268.279219)scale(0.24 -0.24)">
      <use xlink:href="#DejaVuSans-84"/>
      <use x="61.037109" xlink:href="#DejaVuSans-105"/>
      <use x="88.820312" xlink:href="#DejaVuSans-109"/>
      <use x="186.232422" xlink:href="#DejaVuSans-101"/>
      <use x="247.755859" xlink:href="#DejaVuSans-32"/>
      <use x="279.542969" xlink:href="#DejaVuSans-60"/>
      <use x="363.332031" xlink:href="#DejaVuSans-54"/>
      <use x="426.955078" xlink:href="#DejaVuSans-48"/>
      <use x="490.578125" xlink:href="#DejaVuSans-48"/>
      <use x="554.201172" xlink:href="#DejaVuSans-115"/>
     </g>
    </g>
   </g>
  </g>
 </g>
 <defs>
  <clipPath id="pf09eafe5cd">
   <rect height="443.52" width="892.8" x="92.018125" y="17.077969"/>
  </clipPath>
 </defs>
</svg>
