<?xml version="1.0" encoding="utf-8" standalone="no"?>
<!DOCTYPE svg PUBLIC "-//W3C//DTD SVG 1.1//EN"
  "http://www.w3.org/Graphics/SVG/1.1/DTD/svg11.dtd">
<!-- Created with matplotlib (https://matplotlib.org/) -->
<svg height="529.6175pt" version="1.1" viewBox="0 0 997.018125 529.6175" width="997.018125pt" xmlns="http://www.w3.org/2000/svg" xmlns:xlink="http://www.w3.org/1999/xlink">
 <defs>
  <style type="text/css">
*{stroke-linecap:butt;stroke-linejoin:round;}
  </style>
 </defs>
 <g id="figure_1">
  <g id="patch_1">
   <path d="M 0 529.6175 
L 997.018125 529.6175 
L 997.018125 0 
L 0 0 
z
" style="fill:#ffffff;"/>
  </g>
  <g id="axes_1">
   <g id="patch_2">
    <path d="M 92.018125 455.72 
L 984.818125 455.72 
L 984.818125 12.2 
L 92.018125 12.2 
z
" style="fill:#ffffff;"/>
   </g>
   <g id="PathCollection_1">
    <defs>
     <path d="M 0 4 
C 1.060812 4 2.078319 3.578535 2.828427 2.828427 
C 3.578535 2.078319 4 1.060812 4 0 
C 4 -1.060812 3.578535 -2.078319 2.828427 -2.828427 
C 2.078319 -3.578535 1.060812 -4 0 -4 
C -1.060812 -4 -2.078319 -3.578535 -2.828427 -2.828427 
C -3.578535 -2.078319 -4 -1.060812 -4 0 
C -4 1.060812 -3.578535 2.078319 -2.828427 2.828427 
C -2.078319 3.578535 -1.060812 4 0 4 
z
" id="mb0d5eb0ae0" style="stroke:#1f77b4;"/>
    </defs>
    <g clip-path="url(#p5bdb859874)">
     <use style="fill:#1f77b4;stroke:#1f77b4;" x="136.660941" xlink:href="#mb0d5eb0ae0" y="431.511024"/>
     <use style="fill:#1f77b4;stroke:#1f77b4;" x="176.836659" xlink:href="#mb0d5eb0ae0" y="431.511024"/>
     <use style="fill:#1f77b4;stroke:#1f77b4;" x="217.012377" xlink:href="#mb0d5eb0ae0" y="431.511024"/>
     <use style="fill:#1f77b4;stroke:#1f77b4;" x="257.188096" xlink:href="#mb0d5eb0ae0" y="431.511024"/>
     <use style="fill:#1f77b4;stroke:#1f77b4;" x="297.363814" xlink:href="#mb0d5eb0ae0" y="312.098843"/>
     <use style="fill:#1f77b4;stroke:#1f77b4;" x="337.539533" xlink:href="#mb0d5eb0ae0" y="275.233338"/>
     <use style="fill:#1f77b4;stroke:#1f77b4;" x="377.715251" xlink:href="#mb0d5eb0ae0" y="275.233338"/>
     <use style="fill:#1f77b4;stroke:#1f77b4;" x="417.89097" xlink:href="#mb0d5eb0ae0" y="275.233338"/>
     <use style="fill:#1f77b4;stroke:#1f77b4;" x="458.066688" xlink:href="#mb0d5eb0ae0" y="175.055334"/>
     <use style="fill:#1f77b4;stroke:#1f77b4;" x="498.242407" xlink:href="#mb0d5eb0ae0" y="156.622581"/>
     <use style="fill:#1f77b4;stroke:#1f77b4;" x="538.418125" xlink:href="#mb0d5eb0ae0" y="156.622581"/>
     <use style="fill:#1f77b4;stroke:#1f77b4;" x="578.593843" xlink:href="#mb0d5eb0ae0" y="156.622581"/>
     <use style="fill:#1f77b4;stroke:#1f77b4;" x="618.769562" xlink:href="#mb0d5eb0ae0" y="118.154227"/>
     <use style="fill:#1f77b4;stroke:#1f77b4;" x="658.94528" xlink:href="#mb0d5eb0ae0" y="102.125746"/>
     <use style="fill:#1f77b4;stroke:#1f77b4;" x="699.120999" xlink:href="#mb0d5eb0ae0" y="101.324322"/>
     <use style="fill:#1f77b4;stroke:#1f77b4;" x="739.296717" xlink:href="#mb0d5eb0ae0" y="101.324322"/>
     <use style="fill:#1f77b4;stroke:#1f77b4;" x="779.472436" xlink:href="#mb0d5eb0ae0" y="44.423216"/>
     <use style="fill:#1f77b4;stroke:#1f77b4;" x="819.648154" xlink:href="#mb0d5eb0ae0" y="36.408976"/>
     <use style="fill:#1f77b4;stroke:#1f77b4;" x="859.823873" xlink:href="#mb0d5eb0ae0" y="36.408976"/>
     <use style="fill:#1f77b4;stroke:#1f77b4;" x="899.999591" xlink:href="#mb0d5eb0ae0" y="36.408976"/>
     <use style="fill:#1f77b4;stroke:#1f77b4;" x="940.175309" xlink:href="#mb0d5eb0ae0" y="36.408976"/>
    </g>
   </g>
   <g id="PathCollection_2">
    <defs>
     <path d="M -4 0 
L 4 0 
M 0 4 
L 0 -4 
" id="m21569f8498" style="stroke:#ff7f0e;stroke-width:1.5;"/>
    </defs>
    <g clip-path="url(#p5bdb859874)">
     <use style="fill:#ff7f0e;stroke:#ff7f0e;stroke-width:1.5;" x="136.660941" xlink:href="#m21569f8498" y="431.511024"/>
     <use style="fill:#ff7f0e;stroke:#ff7f0e;stroke-width:1.5;" x="176.836659" xlink:href="#m21569f8498" y="431.511024"/>
     <use style="fill:#ff7f0e;stroke:#ff7f0e;stroke-width:1.5;" x="217.012377" xlink:href="#m21569f8498" y="431.511024"/>
     <use style="fill:#ff7f0e;stroke:#ff7f0e;stroke-width:1.5;" x="257.188096" xlink:href="#m21569f8498" y="422.730979"/>
     <use style="fill:#ff7f0e;stroke:#ff7f0e;stroke-width:1.5;" x="297.363814" xlink:href="#m21569f8498" y="194.449795"/>
     <use style="fill:#ff7f0e;stroke:#ff7f0e;stroke-width:1.5;" x="337.539533" xlink:href="#m21569f8498" y="163.719636"/>
     <use style="fill:#ff7f0e;stroke:#ff7f0e;stroke-width:1.5;" x="377.715251" xlink:href="#m21569f8498" y="163.719636"/>
     <use style="fill:#ff7f0e;stroke:#ff7f0e;stroke-width:1.5;" x="417.89097" xlink:href="#m21569f8498" y="160.207618"/>
     <use style="fill:#ff7f0e;stroke:#ff7f0e;stroke-width:1.5;" x="458.066688" xlink:href="#m21569f8498" y="103.722658"/>
     <use style="fill:#ff7f0e;stroke:#ff7f0e;stroke-width:1.5;" x="498.242407" xlink:href="#m21569f8498" y="87.33324"/>
     <use style="fill:#ff7f0e;stroke:#ff7f0e;stroke-width:1.5;" x="538.418125" xlink:href="#m21569f8498" y="87.33324"/>
     <use style="fill:#ff7f0e;stroke:#ff7f0e;stroke-width:1.5;" x="578.593843" xlink:href="#m21569f8498" y="87.33324"/>
     <use style="fill:#ff7f0e;stroke:#ff7f0e;stroke-width:1.5;" x="618.769562" xlink:href="#m21569f8498" y="67.431803"/>
     <use style="fill:#ff7f0e;stroke:#ff7f0e;stroke-width:1.5;" x="658.94528" xlink:href="#m21569f8498" y="61.57844"/>
     <use style="fill:#ff7f0e;stroke:#ff7f0e;stroke-width:1.5;" x="699.120999" xlink:href="#m21569f8498" y="60.115099"/>
     <use style="fill:#ff7f0e;stroke:#ff7f0e;stroke-width:1.5;" x="739.296717" xlink:href="#m21569f8498" y="60.115099"/>
     <use style="fill:#ff7f0e;stroke:#ff7f0e;stroke-width:1.5;" x="779.472436" xlink:href="#m21569f8498" y="39.335658"/>
     <use style="fill:#ff7f0e;stroke:#ff7f0e;stroke-width:1.5;" x="819.648154" xlink:href="#m21569f8498" y="36.408976"/>
     <use style="fill:#ff7f0e;stroke:#ff7f0e;stroke-width:1.5;" x="859.823873" xlink:href="#m21569f8498" y="36.408976"/>
     <use style="fill:#ff7f0e;stroke:#ff7f0e;stroke-width:1.5;" x="899.999591" xlink:href="#m21569f8498" y="36.408976"/>
     <use style="fill:#ff7f0e;stroke:#ff7f0e;stroke-width:1.5;" x="940.175309" xlink:href="#m21569f8498" y="36.408976"/>
    </g>
   </g>
   <g id="PathCollection_3">
    <defs>
     <path d="M -4 4 
L 4 -4 
M -4 -4 
L 4 4 
" id="m95ae484054" style="stroke:#2ca02c;stroke-width:1.5;"/>
    </defs>
    <g clip-path="url(#p5bdb859874)">
     <use style="fill:#2ca02c;stroke:#2ca02c;stroke-width:1.5;" x="136.660941" xlink:href="#m95ae484054" y="431.511024"/>
     <use style="fill:#2ca02c;stroke:#2ca02c;stroke-width:1.5;" x="176.836659" xlink:href="#m95ae484054" y="431.511024"/>
     <use style="fill:#2ca02c;stroke:#2ca02c;stroke-width:1.5;" x="217.012377" xlink:href="#m95ae484054" y="431.511024"/>
     <use style="fill:#2ca02c;stroke:#2ca02c;stroke-width:1.5;" x="257.188096" xlink:href="#m95ae484054" y="374.626912"/>
     <use style="fill:#2ca02c;stroke:#2ca02c;stroke-width:1.5;" x="297.363814" xlink:href="#m95ae484054" y="168.918089"/>
     <use style="fill:#2ca02c;stroke:#2ca02c;stroke-width:1.5;" x="337.539533" xlink:href="#m95ae484054" y="145.767578"/>
     <use style="fill:#2ca02c;stroke:#2ca02c;stroke-width:1.5;" x="377.715251" xlink:href="#m95ae484054" y="145.767578"/>
     <use style="fill:#2ca02c;stroke:#2ca02c;stroke-width:1.5;" x="417.89097" xlink:href="#m95ae484054" y="129.672462"/>
     <use style="fill:#2ca02c;stroke:#2ca02c;stroke-width:1.5;" x="458.066688" xlink:href="#m95ae484054" y="87.119618"/>
     <use style="fill:#2ca02c;stroke:#2ca02c;stroke-width:1.5;" x="498.242407" xlink:href="#m95ae484054" y="74.772679"/>
     <use style="fill:#2ca02c;stroke:#2ca02c;stroke-width:1.5;" x="538.418125" xlink:href="#m95ae484054" y="74.772679"/>
     <use style="fill:#2ca02c;stroke:#2ca02c;stroke-width:1.5;" x="578.593843" xlink:href="#m95ae484054" y="74.772679"/>
     <use style="fill:#2ca02c;stroke:#2ca02c;stroke-width:1.5;" x="618.769562" xlink:href="#m95ae484054" y="59.779967"/>
     <use style="fill:#2ca02c;stroke:#2ca02c;stroke-width:1.5;" x="658.94528" xlink:href="#m95ae484054" y="55.370346"/>
     <use style="fill:#2ca02c;stroke:#2ca02c;stroke-width:1.5;" x="699.120999" xlink:href="#m95ae484054" y="54.267941"/>
     <use style="fill:#2ca02c;stroke:#2ca02c;stroke-width:1.5;" x="739.296717" xlink:href="#m95ae484054" y="54.267941"/>
     <use style="fill:#2ca02c;stroke:#2ca02c;stroke-width:1.5;" x="779.472436" xlink:href="#m95ae484054" y="38.613786"/>
     <use style="fill:#2ca02c;stroke:#2ca02c;stroke-width:1.5;" x="819.648154" xlink:href="#m95ae484054" y="36.408976"/>
     <use style="fill:#2ca02c;stroke:#2ca02c;stroke-width:1.5;" x="859.823873" xlink:href="#m95ae484054" y="36.408976"/>
     <use style="fill:#2ca02c;stroke:#2ca02c;stroke-width:1.5;" x="899.999591" xlink:href="#m95ae484054" y="36.408976"/>
     <use style="fill:#2ca02c;stroke:#2ca02c;stroke-width:1.5;" x="940.175309" xlink:href="#m95ae484054" y="36.408976"/>
    </g>
   </g>
   <g id="PathCollection_4">
    <defs>
     <path d="M 0 5.656854 
L 5.656854 0 
L 0 -5.656854 
L -5.656854 0 
z
" id="meb515fc6d8" style="stroke:#d62728;"/>
    </defs>
    <g clip-path="url(#p5bdb859874)">
     <use style="fill:#d62728;stroke:#d62728;" x="136.660941" xlink:href="#meb515fc6d8" y="431.511024"/>
     <use style="fill:#d62728;stroke:#d62728;" x="176.836659" xlink:href="#meb515fc6d8" y="431.511024"/>
     <use style="fill:#d62728;stroke:#d62728;" x="217.012377" xlink:href="#meb515fc6d8" y="431.511024"/>
     <use style="fill:#d62728;stroke:#d62728;" x="257.188096" xlink:href="#meb515fc6d8" y="333.322119"/>
     <use style="fill:#d62728;stroke:#d62728;" x="297.363814" xlink:href="#meb515fc6d8" y="147.593472"/>
     <use style="fill:#d62728;stroke:#d62728;" x="337.539533" xlink:href="#meb515fc6d8" y="128.641569"/>
     <use style="fill:#d62728;stroke:#d62728;" x="377.715251" xlink:href="#meb515fc6d8" y="128.641569"/>
     <use style="fill:#d62728;stroke:#d62728;" x="417.89097" xlink:href="#meb515fc6d8" y="112.75807"/>
     <use style="fill:#d62728;stroke:#d62728;" x="458.066688" xlink:href="#meb515fc6d8" y="77.922667"/>
     <use style="fill:#d62728;stroke:#d62728;" x="498.242407" xlink:href="#meb515fc6d8" y="67.814986"/>
     <use style="fill:#d62728;stroke:#d62728;" x="538.418125" xlink:href="#meb515fc6d8" y="67.814986"/>
     <use style="fill:#d62728;stroke:#d62728;" x="578.593843" xlink:href="#meb515fc6d8" y="67.814986"/>
     <use style="fill:#d62728;stroke:#d62728;" x="618.769562" xlink:href="#meb515fc6d8" y="55.541373"/>
     <use style="fill:#d62728;stroke:#d62728;" x="658.94528" xlink:href="#meb515fc6d8" y="51.931487"/>
     <use style="fill:#d62728;stroke:#d62728;" x="699.120999" xlink:href="#meb515fc6d8" y="51.029015"/>
     <use style="fill:#d62728;stroke:#d62728;" x="739.296717" xlink:href="#meb515fc6d8" y="51.029015"/>
     <use style="fill:#d62728;stroke:#d62728;" x="779.472436" xlink:href="#meb515fc6d8" y="38.213919"/>
     <use style="fill:#d62728;stroke:#d62728;" x="819.648154" xlink:href="#meb515fc6d8" y="36.408976"/>
     <use style="fill:#d62728;stroke:#d62728;" x="859.823873" xlink:href="#meb515fc6d8" y="36.408976"/>
     <use style="fill:#d62728;stroke:#d62728;" x="899.999591" xlink:href="#meb515fc6d8" y="36.408976"/>
     <use style="fill:#d62728;stroke:#d62728;" x="940.175309" xlink:href="#meb515fc6d8" y="36.408976"/>
    </g>
   </g>
   <g id="PathCollection_5">
    <defs>
     <path d="M 0 -4 
L -0.898056 -1.236068 
L -3.804226 -1.236068 
L -1.453085 0.472136 
L -2.351141 3.236068 
L -0 1.527864 
L 2.351141 3.236068 
L 1.453085 0.472136 
L 3.804226 -1.236068 
L 0.898056 -1.236068 
z
" id="m826f5ec715" style="stroke:#9467bd;"/>
    </defs>
    <g clip-path="url(#p5bdb859874)">
     <use style="fill:#9467bd;stroke:#9467bd;" x="136.660941" xlink:href="#m826f5ec715" y="431.511024"/>
     <use style="fill:#9467bd;stroke:#9467bd;" x="176.836659" xlink:href="#m826f5ec715" y="431.511024"/>
     <use style="fill:#9467bd;stroke:#9467bd;" x="217.012377" xlink:href="#m826f5ec715" y="431.511024"/>
     <use style="fill:#9467bd;stroke:#9467bd;" x="257.188096" xlink:href="#m826f5ec715" y="297.292766"/>
     <use style="fill:#9467bd;stroke:#9467bd;" x="297.363814" xlink:href="#m826f5ec715" y="133.335643"/>
     <use style="fill:#9467bd;stroke:#9467bd;" x="337.539533" xlink:href="#m826f5ec715" y="116.814052"/>
     <use style="fill:#9467bd;stroke:#9467bd;" x="377.715251" xlink:href="#m826f5ec715" y="116.814052"/>
     <use style="fill:#9467bd;stroke:#9467bd;" x="417.89097" xlink:href="#m826f5ec715" y="102.967385"/>
     <use style="fill:#9467bd;stroke:#9467bd;" x="458.066688" xlink:href="#m826f5ec715" y="72.599128"/>
     <use style="fill:#9467bd;stroke:#9467bd;" x="498.242407" xlink:href="#m826f5ec715" y="63.787612"/>
     <use style="fill:#9467bd;stroke:#9467bd;" x="538.418125" xlink:href="#m826f5ec715" y="63.787612"/>
     <use style="fill:#9467bd;stroke:#9467bd;" x="578.593843" xlink:href="#m826f5ec715" y="63.787612"/>
     <use style="fill:#9467bd;stroke:#9467bd;" x="618.769562" xlink:href="#m826f5ec715" y="53.087915"/>
     <use style="fill:#9467bd;stroke:#9467bd;" x="658.94528" xlink:href="#m826f5ec715" y="49.940946"/>
     <use style="fill:#9467bd;stroke:#9467bd;" x="699.120999" xlink:href="#m826f5ec715" y="49.154203"/>
     <use style="fill:#9467bd;stroke:#9467bd;" x="739.296717" xlink:href="#m826f5ec715" y="49.154203"/>
     <use style="fill:#9467bd;stroke:#9467bd;" x="779.472436" xlink:href="#m826f5ec715" y="37.982461"/>
     <use style="fill:#9467bd;stroke:#9467bd;" x="819.648154" xlink:href="#m826f5ec715" y="36.408976"/>
     <use style="fill:#9467bd;stroke:#9467bd;" x="859.823873" xlink:href="#m826f5ec715" y="36.408976"/>
     <use style="fill:#9467bd;stroke:#9467bd;" x="899.999591" xlink:href="#m826f5ec715" y="36.408976"/>
     <use style="fill:#9467bd;stroke:#9467bd;" x="940.175309" xlink:href="#m826f5ec715" y="36.408976"/>
    </g>
   </g>
   <g id="matplotlib.axis_1">
    <g id="xtick_1">
     <g id="line2d_1">
      <defs>
       <path d="M 0 5 
L 0 -5 
" id="mace67c206e" style="stroke:#525252;stroke-width:4;"/>
      </defs>
      <g>
       <use style="fill:#525252;stroke:#525252;stroke-width:4;" x="136.660941" xlink:href="#mace67c206e" y="455.72"/>
      </g>
     </g>
     <g id="text_1">
      <!-- 0 -->
      <defs>
       <path d="M 31.78125 66.40625 
Q 24.171875 66.40625 20.328125 58.90625 
Q 16.5 51.421875 16.5 36.375 
Q 16.5 21.390625 20.328125 13.890625 
Q 24.171875 6.390625 31.78125 6.390625 
Q 39.453125 6.390625 43.28125 13.890625 
Q 47.125 21.390625 47.125 36.375 
Q 47.125 51.421875 43.28125 58.90625 
Q 39.453125 66.40625 31.78125 66.40625 
z
M 31.78125 74.21875 
Q 44.046875 74.21875 50.515625 64.515625 
Q 56.984375 54.828125 56.984375 36.375 
Q 56.984375 17.96875 50.515625 8.265625 
Q 44.046875 -1.421875 31.78125 -1.421875 
Q 19.53125 -1.421875 13.0625 8.265625 
Q 6.59375 17.96875 6.59375 36.375 
Q 6.59375 54.828125 13.0625 64.515625 
Q 19.53125 74.21875 31.78125 74.21875 
z
" id="DejaVuSans-48"/>
      </defs>
      <g transform="translate(129.025941 482.45625)scale(0.24 -0.24)">
       <use xlink:href="#DejaVuSans-48"/>
      </g>
     </g>
    </g>
    <g id="xtick_2">
     <g id="line2d_2">
      <g>
       <use style="fill:#525252;stroke:#525252;stroke-width:4;" x="270.580002" xlink:href="#mace67c206e" y="455.72"/>
      </g>
     </g>
     <g id="text_2">
      <!-- 100 -->
      <defs>
       <path d="M 12.40625 8.296875 
L 28.515625 8.296875 
L 28.515625 63.921875 
L 10.984375 60.40625 
L 10.984375 69.390625 
L 28.421875 72.90625 
L 38.28125 72.90625 
L 38.28125 8.296875 
L 54.390625 8.296875 
L 54.390625 0 
L 12.40625 0 
z
" id="DejaVuSans-49"/>
      </defs>
      <g transform="translate(247.675002 482.45625)scale(0.24 -0.24)">
       <use xlink:href="#DejaVuSans-49"/>
       <use x="63.623047" xlink:href="#DejaVuSans-48"/>
       <use x="127.246094" xlink:href="#DejaVuSans-48"/>
      </g>
     </g>
    </g>
    <g id="xtick_3">
     <g id="line2d_3">
      <g>
       <use style="fill:#525252;stroke:#525252;stroke-width:4;" x="404.499064" xlink:href="#mace67c206e" y="455.72"/>
      </g>
     </g>
     <g id="text_3">
      <!-- 200 -->
      <defs>
       <path d="M 19.1875 8.296875 
L 53.609375 8.296875 
L 53.609375 0 
L 7.328125 0 
L 7.328125 8.296875 
Q 12.9375 14.109375 22.625 23.890625 
Q 32.328125 33.6875 34.8125 36.53125 
Q 39.546875 41.84375 41.421875 45.53125 
Q 43.3125 49.21875 43.3125 52.78125 
Q 43.3125 58.59375 39.234375 62.25 
Q 35.15625 65.921875 28.609375 65.921875 
Q 23.96875 65.921875 18.8125 64.3125 
Q 13.671875 62.703125 7.8125 59.421875 
L 7.8125 69.390625 
Q 13.765625 71.78125 18.9375 73 
Q 24.125 74.21875 28.421875 74.21875 
Q 39.75 74.21875 46.484375 68.546875 
Q 53.21875 62.890625 53.21875 53.421875 
Q 53.21875 48.921875 51.53125 44.890625 
Q 49.859375 40.875 45.40625 35.40625 
Q 44.1875 33.984375 37.640625 27.21875 
Q 31.109375 20.453125 19.1875 8.296875 
z
" id="DejaVuSans-50"/>
      </defs>
      <g transform="translate(381.594064 482.45625)scale(0.24 -0.24)">
       <use xlink:href="#DejaVuSans-50"/>
       <use x="63.623047" xlink:href="#DejaVuSans-48"/>
       <use x="127.246094" xlink:href="#DejaVuSans-48"/>
      </g>
     </g>
    </g>
    <g id="xtick_4">
     <g id="line2d_4">
      <g>
       <use style="fill:#525252;stroke:#525252;stroke-width:4;" x="538.418125" xlink:href="#mace67c206e" y="455.72"/>
      </g>
     </g>
     <g id="text_4">
      <!-- 300 -->
      <defs>
       <path d="M 40.578125 39.3125 
Q 47.65625 37.796875 51.625 33 
Q 55.609375 28.21875 55.609375 21.1875 
Q 55.609375 10.40625 48.1875 4.484375 
Q 40.765625 -1.421875 27.09375 -1.421875 
Q 22.515625 -1.421875 17.65625 -0.515625 
Q 12.796875 0.390625 7.625 2.203125 
L 7.625 11.71875 
Q 11.71875 9.328125 16.59375 8.109375 
Q 21.484375 6.890625 26.8125 6.890625 
Q 36.078125 6.890625 40.9375 10.546875 
Q 45.796875 14.203125 45.796875 21.1875 
Q 45.796875 27.640625 41.28125 31.265625 
Q 36.765625 34.90625 28.71875 34.90625 
L 20.21875 34.90625 
L 20.21875 43.015625 
L 29.109375 43.015625 
Q 36.375 43.015625 40.234375 45.921875 
Q 44.09375 48.828125 44.09375 54.296875 
Q 44.09375 59.90625 40.109375 62.90625 
Q 36.140625 65.921875 28.71875 65.921875 
Q 24.65625 65.921875 20.015625 65.03125 
Q 15.375 64.15625 9.8125 62.3125 
L 9.8125 71.09375 
Q 15.4375 72.65625 20.34375 73.4375 
Q 25.25 74.21875 29.59375 74.21875 
Q 40.828125 74.21875 47.359375 69.109375 
Q 53.90625 64.015625 53.90625 55.328125 
Q 53.90625 49.265625 50.4375 45.09375 
Q 46.96875 40.921875 40.578125 39.3125 
z
" id="DejaVuSans-51"/>
      </defs>
      <g transform="translate(515.513125 482.45625)scale(0.24 -0.24)">
       <use xlink:href="#DejaVuSans-51"/>
       <use x="63.623047" xlink:href="#DejaVuSans-48"/>
       <use x="127.246094" xlink:href="#DejaVuSans-48"/>
      </g>
     </g>
    </g>
    <g id="xtick_5">
     <g id="line2d_5">
      <g>
       <use style="fill:#525252;stroke:#525252;stroke-width:4;" x="672.337186" xlink:href="#mace67c206e" y="455.72"/>
      </g>
     </g>
     <g id="text_5">
      <!-- 400 -->
      <defs>
       <path d="M 37.796875 64.3125 
L 12.890625 25.390625 
L 37.796875 25.390625 
z
M 35.203125 72.90625 
L 47.609375 72.90625 
L 47.609375 25.390625 
L 58.015625 25.390625 
L 58.015625 17.1875 
L 47.609375 17.1875 
L 47.609375 0 
L 37.796875 0 
L 37.796875 17.1875 
L 4.890625 17.1875 
L 4.890625 26.703125 
z
" id="DejaVuSans-52"/>
      </defs>
      <g transform="translate(649.432186 482.45625)scale(0.24 -0.24)">
       <use xlink:href="#DejaVuSans-52"/>
       <use x="63.623047" xlink:href="#DejaVuSans-48"/>
       <use x="127.246094" xlink:href="#DejaVuSans-48"/>
      </g>
     </g>
    </g>
    <g id="xtick_6">
     <g id="line2d_6">
      <g>
       <use style="fill:#525252;stroke:#525252;stroke-width:4;" x="806.256248" xlink:href="#mace67c206e" y="455.72"/>
      </g>
     </g>
     <g id="text_6">
      <!-- 500 -->
      <defs>
       <path d="M 10.796875 72.90625 
L 49.515625 72.90625 
L 49.515625 64.59375 
L 19.828125 64.59375 
L 19.828125 46.734375 
Q 21.96875 47.46875 24.109375 47.828125 
Q 26.265625 48.1875 28.421875 48.1875 
Q 40.625 48.1875 47.75 41.5 
Q 54.890625 34.8125 54.890625 23.390625 
Q 54.890625 11.625 47.5625 5.09375 
Q 40.234375 -1.421875 26.90625 -1.421875 
Q 22.3125 -1.421875 17.546875 -0.640625 
Q 12.796875 0.140625 7.71875 1.703125 
L 7.71875 11.625 
Q 12.109375 9.234375 16.796875 8.0625 
Q 21.484375 6.890625 26.703125 6.890625 
Q 35.15625 6.890625 40.078125 11.328125 
Q 45.015625 15.765625 45.015625 23.390625 
Q 45.015625 31 40.078125 35.4375 
Q 35.15625 39.890625 26.703125 39.890625 
Q 22.75 39.890625 18.8125 39.015625 
Q 14.890625 38.140625 10.796875 36.28125 
z
" id="DejaVuSans-53"/>
      </defs>
      <g transform="translate(783.351248 482.45625)scale(0.24 -0.24)">
       <use xlink:href="#DejaVuSans-53"/>
       <use x="63.623047" xlink:href="#DejaVuSans-48"/>
       <use x="127.246094" xlink:href="#DejaVuSans-48"/>
      </g>
     </g>
    </g>
    <g id="xtick_7">
     <g id="line2d_7">
      <g>
       <use style="fill:#525252;stroke:#525252;stroke-width:4;" x="940.175309" xlink:href="#mace67c206e" y="455.72"/>
      </g>
     </g>
     <g id="text_7">
      <!-- 600 -->
      <defs>
       <path d="M 33.015625 40.375 
Q 26.375 40.375 22.484375 35.828125 
Q 18.609375 31.296875 18.609375 23.390625 
Q 18.609375 15.53125 22.484375 10.953125 
Q 26.375 6.390625 33.015625 6.390625 
Q 39.65625 6.390625 43.53125 10.953125 
Q 47.40625 15.53125 47.40625 23.390625 
Q 47.40625 31.296875 43.53125 35.828125 
Q 39.65625 40.375 33.015625 40.375 
z
M 52.59375 71.296875 
L 52.59375 62.3125 
Q 48.875 64.0625 45.09375 64.984375 
Q 41.3125 65.921875 37.59375 65.921875 
Q 27.828125 65.921875 22.671875 59.328125 
Q 17.53125 52.734375 16.796875 39.40625 
Q 19.671875 43.65625 24.015625 45.921875 
Q 28.375 48.1875 33.59375 48.1875 
Q 44.578125 48.1875 50.953125 41.515625 
Q 57.328125 34.859375 57.328125 23.390625 
Q 57.328125 12.15625 50.6875 5.359375 
Q 44.046875 -1.421875 33.015625 -1.421875 
Q 20.359375 -1.421875 13.671875 8.265625 
Q 6.984375 17.96875 6.984375 36.375 
Q 6.984375 53.65625 15.1875 63.9375 
Q 23.390625 74.21875 37.203125 74.21875 
Q 40.921875 74.21875 44.703125 73.484375 
Q 48.484375 72.75 52.59375 71.296875 
z
" id="DejaVuSans-54"/>
      </defs>
      <g transform="translate(917.270309 482.45625)scale(0.24 -0.24)">
       <use xlink:href="#DejaVuSans-54"/>
       <use x="63.623047" xlink:href="#DejaVuSans-48"/>
       <use x="127.246094" xlink:href="#DejaVuSans-48"/>
      </g>
     </g>
    </g>
    <g id="text_8">
     <!-- Time(T) -->
     <defs>
      <path d="M -0.296875 72.90625 
L 61.375 72.90625 
L 61.375 64.59375 
L 35.5 64.59375 
L 35.5 0 
L 25.59375 0 
L 25.59375 64.59375 
L -0.296875 64.59375 
z
" id="DejaVuSans-84"/>
      <path d="M 9.421875 54.6875 
L 18.40625 54.6875 
L 18.40625 0 
L 9.421875 0 
z
M 9.421875 75.984375 
L 18.40625 75.984375 
L 18.40625 64.59375 
L 9.421875 64.59375 
z
" id="DejaVuSans-105"/>
      <path d="M 52 44.1875 
Q 55.375 50.25 60.0625 53.125 
Q 64.75 56 71.09375 56 
Q 79.640625 56 84.28125 50.015625 
Q 88.921875 44.046875 88.921875 33.015625 
L 88.921875 0 
L 79.890625 0 
L 79.890625 32.71875 
Q 79.890625 40.578125 77.09375 44.375 
Q 74.3125 48.1875 68.609375 48.1875 
Q 61.625 48.1875 57.5625 43.546875 
Q 53.515625 38.921875 53.515625 30.90625 
L 53.515625 0 
L 44.484375 0 
L 44.484375 32.71875 
Q 44.484375 40.625 41.703125 44.40625 
Q 38.921875 48.1875 33.109375 48.1875 
Q 26.21875 48.1875 22.15625 43.53125 
Q 18.109375 38.875 18.109375 30.90625 
L 18.109375 0 
L 9.078125 0 
L 9.078125 54.6875 
L 18.109375 54.6875 
L 18.109375 46.1875 
Q 21.1875 51.21875 25.484375 53.609375 
Q 29.78125 56 35.6875 56 
Q 41.65625 56 45.828125 52.96875 
Q 50 49.953125 52 44.1875 
z
" id="DejaVuSans-109"/>
      <path d="M 56.203125 29.59375 
L 56.203125 25.203125 
L 14.890625 25.203125 
Q 15.484375 15.921875 20.484375 11.0625 
Q 25.484375 6.203125 34.421875 6.203125 
Q 39.59375 6.203125 44.453125 7.46875 
Q 49.3125 8.734375 54.109375 11.28125 
L 54.109375 2.78125 
Q 49.265625 0.734375 44.1875 -0.34375 
Q 39.109375 -1.421875 33.890625 -1.421875 
Q 20.796875 -1.421875 13.15625 6.1875 
Q 5.515625 13.8125 5.515625 26.8125 
Q 5.515625 40.234375 12.765625 48.109375 
Q 20.015625 56 32.328125 56 
Q 43.359375 56 49.78125 48.890625 
Q 56.203125 41.796875 56.203125 29.59375 
z
M 47.21875 32.234375 
Q 47.125 39.59375 43.09375 43.984375 
Q 39.0625 48.390625 32.421875 48.390625 
Q 24.90625 48.390625 20.390625 44.140625 
Q 15.875 39.890625 15.1875 32.171875 
z
" id="DejaVuSans-101"/>
      <path d="M 31 75.875 
Q 24.46875 64.65625 21.28125 53.65625 
Q 18.109375 42.671875 18.109375 31.390625 
Q 18.109375 20.125 21.3125 9.0625 
Q 24.515625 -2 31 -13.1875 
L 23.1875 -13.1875 
Q 15.875 -1.703125 12.234375 9.375 
Q 8.59375 20.453125 8.59375 31.390625 
Q 8.59375 42.28125 12.203125 53.3125 
Q 15.828125 64.359375 23.1875 75.875 
z
" id="DejaVuSans-40"/>
      <path d="M 8.015625 75.875 
L 15.828125 75.875 
Q 23.140625 64.359375 26.78125 53.3125 
Q 30.421875 42.28125 30.421875 31.390625 
Q 30.421875 20.453125 26.78125 9.375 
Q 23.140625 -1.703125 15.828125 -13.1875 
L 8.015625 -13.1875 
Q 14.5 -2 17.703125 9.0625 
Q 20.90625 20.125 20.90625 31.390625 
Q 20.90625 42.671875 17.703125 53.65625 
Q 14.5 64.65625 8.015625 75.875 
z
" id="DejaVuSans-41"/>
     </defs>
     <g transform="translate(476.520625 515.7625)scale(0.32 -0.32)">
      <use xlink:href="#DejaVuSans-84"/>
      <use x="61.037109" xlink:href="#DejaVuSans-105"/>
      <use x="88.820312" xlink:href="#DejaVuSans-109"/>
      <use x="186.232422" xlink:href="#DejaVuSans-101"/>
      <use x="247.755859" xlink:href="#DejaVuSans-40"/>
      <use x="286.769531" xlink:href="#DejaVuSans-84"/>
      <use x="347.853516" xlink:href="#DejaVuSans-41"/>
     </g>
    </g>
   </g>
   <g id="matplotlib.axis_2">
    <g id="ytick_1">
     <g id="line2d_8">
      <defs>
       <path d="M 5 0 
L -5 -0 
" id="m86d0665872" style="stroke:#525252;stroke-width:4;"/>
      </defs>
      <g>
       <use style="fill:#525252;stroke:#525252;stroke-width:4;" x="92.018125" xlink:href="#m86d0665872" y="431.511024"/>
      </g>
     </g>
     <g id="text_9">
      <!-- 0.0 -->
      <defs>
       <path d="M 10.6875 12.40625 
L 21 12.40625 
L 21 0 
L 10.6875 0 
z
" id="DejaVuSans-46"/>
      </defs>
      <g transform="translate(42.17 441.388993)scale(0.26 -0.26)">
       <use xlink:href="#DejaVuSans-48"/>
       <use x="63.623047" xlink:href="#DejaVuSans-46"/>
       <use x="95.410156" xlink:href="#DejaVuSans-48"/>
      </g>
     </g>
    </g>
    <g id="ytick_2">
     <g id="line2d_9">
      <g>
       <use style="fill:#525252;stroke:#525252;stroke-width:4;" x="92.018125" xlink:href="#m86d0665872" y="352.490615"/>
      </g>
     </g>
     <g id="text_10">
      <!-- 0.2 -->
      <g transform="translate(42.17 362.368583)scale(0.26 -0.26)">
       <use xlink:href="#DejaVuSans-48"/>
       <use x="63.623047" xlink:href="#DejaVuSans-46"/>
       <use x="95.410156" xlink:href="#DejaVuSans-50"/>
      </g>
     </g>
    </g>
    <g id="ytick_3">
     <g id="line2d_10">
      <g>
       <use style="fill:#525252;stroke:#525252;stroke-width:4;" x="92.018125" xlink:href="#m86d0665872" y="273.470205"/>
      </g>
     </g>
     <g id="text_11">
      <!-- 0.4 -->
      <g transform="translate(42.17 283.348174)scale(0.26 -0.26)">
       <use xlink:href="#DejaVuSans-48"/>
       <use x="63.623047" xlink:href="#DejaVuSans-46"/>
       <use x="95.410156" xlink:href="#DejaVuSans-52"/>
      </g>
     </g>
    </g>
    <g id="ytick_4">
     <g id="line2d_11">
      <g>
       <use style="fill:#525252;stroke:#525252;stroke-width:4;" x="92.018125" xlink:href="#m86d0665872" y="194.449795"/>
      </g>
     </g>
     <g id="text_12">
      <!-- 0.6 -->
      <g transform="translate(42.17 204.327764)scale(0.26 -0.26)">
       <use xlink:href="#DejaVuSans-48"/>
       <use x="63.623047" xlink:href="#DejaVuSans-46"/>
       <use x="95.410156" xlink:href="#DejaVuSans-54"/>
      </g>
     </g>
    </g>
    <g id="ytick_5">
     <g id="line2d_12">
      <g>
       <use style="fill:#525252;stroke:#525252;stroke-width:4;" x="92.018125" xlink:href="#m86d0665872" y="115.429385"/>
      </g>
     </g>
     <g id="text_13">
      <!-- 0.8 -->
      <defs>
       <path d="M 31.78125 34.625 
Q 24.75 34.625 20.71875 30.859375 
Q 16.703125 27.09375 16.703125 20.515625 
Q 16.703125 13.921875 20.71875 10.15625 
Q 24.75 6.390625 31.78125 6.390625 
Q 38.8125 6.390625 42.859375 10.171875 
Q 46.921875 13.96875 46.921875 20.515625 
Q 46.921875 27.09375 42.890625 30.859375 
Q 38.875 34.625 31.78125 34.625 
z
M 21.921875 38.8125 
Q 15.578125 40.375 12.03125 44.71875 
Q 8.5 49.078125 8.5 55.328125 
Q 8.5 64.0625 14.71875 69.140625 
Q 20.953125 74.21875 31.78125 74.21875 
Q 42.671875 74.21875 48.875 69.140625 
Q 55.078125 64.0625 55.078125 55.328125 
Q 55.078125 49.078125 51.53125 44.71875 
Q 48 40.375 41.703125 38.8125 
Q 48.828125 37.15625 52.796875 32.3125 
Q 56.78125 27.484375 56.78125 20.515625 
Q 56.78125 9.90625 50.3125 4.234375 
Q 43.84375 -1.421875 31.78125 -1.421875 
Q 19.734375 -1.421875 13.25 4.234375 
Q 6.78125 9.90625 6.78125 20.515625 
Q 6.78125 27.484375 10.78125 32.3125 
Q 14.796875 37.15625 21.921875 38.8125 
z
M 18.3125 54.390625 
Q 18.3125 48.734375 21.84375 45.5625 
Q 25.390625 42.390625 31.78125 42.390625 
Q 38.140625 42.390625 41.71875 45.5625 
Q 45.3125 48.734375 45.3125 54.390625 
Q 45.3125 60.0625 41.71875 63.234375 
Q 38.140625 66.40625 31.78125 66.40625 
Q 25.390625 66.40625 21.84375 63.234375 
Q 18.3125 60.0625 18.3125 54.390625 
z
" id="DejaVuSans-56"/>
      </defs>
      <g transform="translate(42.17 125.307354)scale(0.26 -0.26)">
       <use xlink:href="#DejaVuSans-48"/>
       <use x="63.623047" xlink:href="#DejaVuSans-46"/>
       <use x="95.410156" xlink:href="#DejaVuSans-56"/>
      </g>
     </g>
    </g>
    <g id="ytick_6">
     <g id="line2d_13">
      <g>
       <use style="fill:#525252;stroke:#525252;stroke-width:4;" x="92.018125" xlink:href="#m86d0665872" y="36.408976"/>
      </g>
     </g>
     <g id="text_14">
      <!-- 1.0 -->
      <g transform="translate(42.17 46.286944)scale(0.26 -0.26)">
       <use xlink:href="#DejaVuSans-49"/>
       <use x="63.623047" xlink:href="#DejaVuSans-46"/>
       <use x="95.410156" xlink:href="#DejaVuSans-48"/>
      </g>
     </g>
    </g>
    <g id="text_15">
     <!-- P(Time&lt;T/Error&lt;E) -->
     <defs>
      <path d="M 19.671875 64.796875 
L 19.671875 37.40625 
L 32.078125 37.40625 
Q 38.96875 37.40625 42.71875 40.96875 
Q 46.484375 44.53125 46.484375 51.125 
Q 46.484375 57.671875 42.71875 61.234375 
Q 38.96875 64.796875 32.078125 64.796875 
z
M 9.8125 72.90625 
L 32.078125 72.90625 
Q 44.34375 72.90625 50.609375 67.359375 
Q 56.890625 61.8125 56.890625 51.125 
Q 56.890625 40.328125 50.609375 34.8125 
Q 44.34375 29.296875 32.078125 29.296875 
L 19.671875 29.296875 
L 19.671875 0 
L 9.8125 0 
z
" id="DejaVuSans-80"/>
      <path d="M 73.1875 49.21875 
L 22.796875 31.296875 
L 73.1875 13.484375 
L 73.1875 4.59375 
L 10.59375 27.296875 
L 10.59375 35.40625 
L 73.1875 58.109375 
z
" id="DejaVuSans-60"/>
      <path d="M 25.390625 72.90625 
L 33.6875 72.90625 
L 8.296875 -9.28125 
L 0 -9.28125 
z
" id="DejaVuSans-47"/>
      <path d="M 9.8125 72.90625 
L 55.90625 72.90625 
L 55.90625 64.59375 
L 19.671875 64.59375 
L 19.671875 43.015625 
L 54.390625 43.015625 
L 54.390625 34.71875 
L 19.671875 34.71875 
L 19.671875 8.296875 
L 56.78125 8.296875 
L 56.78125 0 
L 9.8125 0 
z
" id="DejaVuSans-69"/>
      <path d="M 41.109375 46.296875 
Q 39.59375 47.171875 37.8125 47.578125 
Q 36.03125 48 33.890625 48 
Q 26.265625 48 22.1875 43.046875 
Q 18.109375 38.09375 18.109375 28.8125 
L 18.109375 0 
L 9.078125 0 
L 9.078125 54.6875 
L 18.109375 54.6875 
L 18.109375 46.1875 
Q 20.953125 51.171875 25.484375 53.578125 
Q 30.03125 56 36.53125 56 
Q 37.453125 56 38.578125 55.875 
Q 39.703125 55.765625 41.0625 55.515625 
z
" id="DejaVuSans-114"/>
      <path d="M 30.609375 48.390625 
Q 23.390625 48.390625 19.1875 42.75 
Q 14.984375 37.109375 14.984375 27.296875 
Q 14.984375 17.484375 19.15625 11.84375 
Q 23.34375 6.203125 30.609375 6.203125 
Q 37.796875 6.203125 41.984375 11.859375 
Q 46.1875 17.53125 46.1875 27.296875 
Q 46.1875 37.015625 41.984375 42.703125 
Q 37.796875 48.390625 30.609375 48.390625 
z
M 30.609375 56 
Q 42.328125 56 49.015625 48.375 
Q 55.71875 40.765625 55.71875 27.296875 
Q 55.71875 13.875 49.015625 6.21875 
Q 42.328125 -1.421875 30.609375 -1.421875 
Q 18.84375 -1.421875 12.171875 6.21875 
Q 5.515625 13.875 5.515625 27.296875 
Q 5.515625 40.765625 12.171875 48.375 
Q 18.84375 56 30.609375 56 
z
" id="DejaVuSans-111"/>
     </defs>
     <g transform="translate(31.515 387.445)rotate(-90)scale(0.32 -0.32)">
      <use xlink:href="#DejaVuSans-80"/>
      <use x="60.302734" xlink:href="#DejaVuSans-40"/>
      <use x="99.316406" xlink:href="#DejaVuSans-84"/>
      <use x="160.353516" xlink:href="#DejaVuSans-105"/>
      <use x="188.136719" xlink:href="#DejaVuSans-109"/>
      <use x="285.548828" xlink:href="#DejaVuSans-101"/>
      <use x="347.072266" xlink:href="#DejaVuSans-60"/>
      <use x="430.861328" xlink:href="#DejaVuSans-84"/>
      <use x="491.945312" xlink:href="#DejaVuSans-47"/>
      <use x="525.636719" xlink:href="#DejaVuSans-69"/>
      <use x="588.820312" xlink:href="#DejaVuSans-114"/>
      <use x="629.917969" xlink:href="#DejaVuSans-114"/>
      <use x="671" xlink:href="#DejaVuSans-111"/>
      <use x="732.181641" xlink:href="#DejaVuSans-114"/>
      <use x="773.294922" xlink:href="#DejaVuSans-60"/>
      <use x="857.083984" xlink:href="#DejaVuSans-69"/>
      <use x="920.267578" xlink:href="#DejaVuSans-41"/>
     </g>
    </g>
   </g>
   <g id="line2d_14">
    <path clip-path="url(#p5bdb859874)" d="M 136.660941 431.511024 
L 176.836659 431.511024 
L 217.012377 431.511024 
L 257.188096 431.511024 
L 297.363814 312.098843 
L 337.539533 275.233338 
L 377.715251 275.233338 
L 417.89097 275.233338 
L 458.066688 175.055334 
L 498.242407 156.622581 
L 538.418125 156.622581 
L 578.593843 156.622581 
L 618.769562 118.154227 
L 658.94528 102.125746 
L 699.120999 101.324322 
L 739.296717 101.324322 
L 779.472436 44.423216 
L 819.648154 36.408976 
L 859.823873 36.408976 
L 899.999591 36.408976 
L 940.175309 36.408976 
" style="fill:none;stroke:#1f77b4;stroke-linecap:square;stroke-width:1.5;"/>
   </g>
   <g id="line2d_15">
    <path clip-path="url(#p5bdb859874)" d="M 136.660941 431.511024 
L 176.836659 431.511024 
L 217.012377 431.511024 
L 257.188096 422.730979 
L 297.363814 194.449795 
L 337.539533 163.719636 
L 377.715251 163.719636 
L 417.89097 160.207618 
L 458.066688 103.722658 
L 498.242407 87.33324 
L 538.418125 87.33324 
L 578.593843 87.33324 
L 618.769562 67.431803 
L 658.94528 61.57844 
L 699.120999 60.115099 
L 739.296717 60.115099 
L 779.472436 39.335658 
L 819.648154 36.408976 
L 859.823873 36.408976 
L 899.999591 36.408976 
L 940.175309 36.408976 
" style="fill:none;stroke:#ff7f0e;stroke-linecap:square;stroke-width:1.5;"/>
   </g>
   <g id="line2d_16">
    <path clip-path="url(#p5bdb859874)" d="M 136.660941 431.511024 
L 176.836659 431.511024 
L 217.012377 431.511024 
L 257.188096 374.626912 
L 297.363814 168.918089 
L 337.539533 145.767578 
L 377.715251 145.767578 
L 417.89097 129.672462 
L 458.066688 87.119618 
L 498.242407 74.772679 
L 538.418125 74.772679 
L 578.593843 74.772679 
L 618.769562 59.779967 
L 658.94528 55.370346 
L 699.120999 54.267941 
L 739.296717 54.267941 
L 779.472436 38.613786 
L 819.648154 36.408976 
L 859.823873 36.408976 
L 899.999591 36.408976 
L 940.175309 36.408976 
" style="fill:none;stroke:#2ca02c;stroke-linecap:square;stroke-width:1.5;"/>
   </g>
   <g id="line2d_17">
    <path clip-path="url(#p5bdb859874)" d="M 136.660941 431.511024 
L 176.836659 431.511024 
L 217.012377 431.511024 
L 257.188096 333.322119 
L 297.363814 147.593472 
L 337.539533 128.641569 
L 377.715251 128.641569 
L 417.89097 112.75807 
L 458.066688 77.922667 
L 498.242407 67.814986 
L 538.418125 67.814986 
L 578.593843 67.814986 
L 618.769562 55.541373 
L 658.94528 51.931487 
L 699.120999 51.029015 
L 739.296717 51.029015 
L 779.472436 38.213919 
L 819.648154 36.408976 
L 859.823873 36.408976 
L 899.999591 36.408976 
L 940.175309 36.408976 
" style="fill:none;stroke:#d62728;stroke-linecap:square;stroke-width:1.5;"/>
   </g>
   <g id="line2d_18">
    <path clip-path="url(#p5bdb859874)" d="M 136.660941 431.511024 
L 176.836659 431.511024 
L 217.012377 431.511024 
L 257.188096 297.292766 
L 297.363814 133.335643 
L 337.539533 116.814052 
L 377.715251 116.814052 
L 417.89097 102.967385 
L 458.066688 72.599128 
L 498.242407 63.787612 
L 538.418125 63.787612 
L 578.593843 63.787612 
L 618.769562 53.087915 
L 658.94528 49.940946 
L 699.120999 49.154203 
L 739.296717 49.154203 
L 779.472436 37.982461 
L 819.648154 36.408976 
L 859.823873 36.408976 
L 899.999591 36.408976 
L 940.175309 36.408976 
" style="fill:none;stroke:#9467bd;stroke-linecap:square;stroke-width:1.5;"/>
   </g>
   <g id="legend_1">
    <g id="patch_3">
     <path d="M 750.698125 443.72 
L 968.018125 443.72 
Q 972.818125 443.72 972.818125 438.92 
L 972.818125 265.1825 
Q 972.818125 260.3825 968.018125 260.3825 
L 750.698125 260.3825 
Q 745.898125 260.3825 745.898125 265.1825 
L 745.898125 438.92 
Q 745.898125 443.72 750.698125 443.72 
z
" style="fill:#ffffff;opacity:0.4;stroke:#cccccc;stroke-linejoin:miter;"/>
    </g>
    <g id="PathCollection_6">
     <g>
      <use style="fill:#1f77b4;stroke:#1f77b4;" x="779.498125" xlink:href="#mb0d5eb0ae0" y="281.91875"/>
     </g>
    </g>
    <g id="text_16">
     <!-- Error &lt;5% -->
     <defs>
      <path id="DejaVuSans-32"/>
      <path d="M 72.703125 32.078125 
Q 68.453125 32.078125 66.03125 28.46875 
Q 63.625 24.859375 63.625 18.40625 
Q 63.625 12.0625 66.03125 8.421875 
Q 68.453125 4.78125 72.703125 4.78125 
Q 76.859375 4.78125 79.265625 8.421875 
Q 81.6875 12.0625 81.6875 18.40625 
Q 81.6875 24.8125 79.265625 28.4375 
Q 76.859375 32.078125 72.703125 32.078125 
z
M 72.703125 38.28125 
Q 80.421875 38.28125 84.953125 32.90625 
Q 89.5 27.546875 89.5 18.40625 
Q 89.5 9.28125 84.9375 3.921875 
Q 80.375 -1.421875 72.703125 -1.421875 
Q 64.890625 -1.421875 60.34375 3.921875 
Q 55.8125 9.28125 55.8125 18.40625 
Q 55.8125 27.59375 60.375 32.9375 
Q 64.9375 38.28125 72.703125 38.28125 
z
M 22.3125 68.015625 
Q 18.109375 68.015625 15.6875 64.375 
Q 13.28125 60.75 13.28125 54.390625 
Q 13.28125 47.953125 15.671875 44.328125 
Q 18.0625 40.71875 22.3125 40.71875 
Q 26.5625 40.71875 28.96875 44.328125 
Q 31.390625 47.953125 31.390625 54.390625 
Q 31.390625 60.6875 28.953125 64.34375 
Q 26.515625 68.015625 22.3125 68.015625 
z
M 66.40625 74.21875 
L 74.21875 74.21875 
L 28.609375 -1.421875 
L 20.796875 -1.421875 
z
M 22.3125 74.21875 
Q 30.03125 74.21875 34.609375 68.875 
Q 39.203125 63.53125 39.203125 54.390625 
Q 39.203125 45.171875 34.640625 39.84375 
Q 30.078125 34.515625 22.3125 34.515625 
Q 14.546875 34.515625 10.03125 39.859375 
Q 5.515625 45.21875 5.515625 54.390625 
Q 5.515625 63.484375 10.046875 68.84375 
Q 14.59375 74.21875 22.3125 74.21875 
z
" id="DejaVuSans-37"/>
     </defs>
     <g transform="translate(822.698125 288.21875)scale(0.24 -0.24)">
      <use xlink:href="#DejaVuSans-69"/>
      <use x="63.183594" xlink:href="#DejaVuSans-114"/>
      <use x="104.28125" xlink:href="#DejaVuSans-114"/>
      <use x="145.363281" xlink:href="#DejaVuSans-111"/>
      <use x="206.544922" xlink:href="#DejaVuSans-114"/>
      <use x="247.658203" xlink:href="#DejaVuSans-32"/>
      <use x="279.445312" xlink:href="#DejaVuSans-60"/>
      <use x="363.234375" xlink:href="#DejaVuSans-53"/>
      <use x="426.857422" xlink:href="#DejaVuSans-37"/>
     </g>
    </g>
    <g id="PathCollection_7">
     <g>
      <use style="fill:#ff7f0e;stroke:#ff7f0e;stroke-width:1.5;" x="779.498125" xlink:href="#m21569f8498" y="317.14625"/>
     </g>
    </g>
    <g id="text_17">
     <!-- Error &lt;10% -->
     <g transform="translate(822.698125 323.44625)scale(0.24 -0.24)">
      <use xlink:href="#DejaVuSans-69"/>
      <use x="63.183594" xlink:href="#DejaVuSans-114"/>
      <use x="104.28125" xlink:href="#DejaVuSans-114"/>
      <use x="145.363281" xlink:href="#DejaVuSans-111"/>
      <use x="206.544922" xlink:href="#DejaVuSans-114"/>
      <use x="247.658203" xlink:href="#DejaVuSans-32"/>
      <use x="279.445312" xlink:href="#DejaVuSans-60"/>
      <use x="363.234375" xlink:href="#DejaVuSans-49"/>
      <use x="426.857422" xlink:href="#DejaVuSans-48"/>
      <use x="490.480469" xlink:href="#DejaVuSans-37"/>
     </g>
    </g>
    <g id="PathCollection_8">
     <g>
      <use style="fill:#2ca02c;stroke:#2ca02c;stroke-width:1.5;" x="779.498125" xlink:href="#m95ae484054" y="352.37375"/>
     </g>
    </g>
    <g id="text_18">
     <!-- Error &lt;15% -->
     <g transform="translate(822.698125 358.67375)scale(0.24 -0.24)">
      <use xlink:href="#DejaVuSans-69"/>
      <use x="63.183594" xlink:href="#DejaVuSans-114"/>
      <use x="104.28125" xlink:href="#DejaVuSans-114"/>
      <use x="145.363281" xlink:href="#DejaVuSans-111"/>
      <use x="206.544922" xlink:href="#DejaVuSans-114"/>
      <use x="247.658203" xlink:href="#DejaVuSans-32"/>
      <use x="279.445312" xlink:href="#DejaVuSans-60"/>
      <use x="363.234375" xlink:href="#DejaVuSans-49"/>
      <use x="426.857422" xlink:href="#DejaVuSans-53"/>
      <use x="490.480469" xlink:href="#DejaVuSans-37"/>
     </g>
    </g>
    <g id="PathCollection_9">
     <g>
      <use style="fill:#d62728;stroke:#d62728;" x="779.498125" xlink:href="#meb515fc6d8" y="387.60125"/>
     </g>
    </g>
    <g id="text_19">
     <!-- Error &lt;20% -->
     <g transform="translate(822.698125 393.90125)scale(0.24 -0.24)">
      <use xlink:href="#DejaVuSans-69"/>
      <use x="63.183594" xlink:href="#DejaVuSans-114"/>
      <use x="104.28125" xlink:href="#DejaVuSans-114"/>
      <use x="145.363281" xlink:href="#DejaVuSans-111"/>
      <use x="206.544922" xlink:href="#DejaVuSans-114"/>
      <use x="247.658203" xlink:href="#DejaVuSans-32"/>
      <use x="279.445312" xlink:href="#DejaVuSans-60"/>
      <use x="363.234375" xlink:href="#DejaVuSans-50"/>
      <use x="426.857422" xlink:href="#DejaVuSans-48"/>
      <use x="490.480469" xlink:href="#DejaVuSans-37"/>
     </g>
    </g>
    <g id="PathCollection_10">
     <g>
      <use style="fill:#9467bd;stroke:#9467bd;" x="779.498125" xlink:href="#m826f5ec715" y="422.82875"/>
     </g>
    </g>
    <g id="text_20">
     <!-- Error &lt;25% -->
     <g transform="translate(822.698125 429.12875)scale(0.24 -0.24)">
      <use xlink:href="#DejaVuSans-69"/>
      <use x="63.183594" xlink:href="#DejaVuSans-114"/>
      <use x="104.28125" xlink:href="#DejaVuSans-114"/>
      <use x="145.363281" xlink:href="#DejaVuSans-111"/>
      <use x="206.544922" xlink:href="#DejaVuSans-114"/>
      <use x="247.658203" xlink:href="#DejaVuSans-32"/>
      <use x="279.445312" xlink:href="#DejaVuSans-60"/>
      <use x="363.234375" xlink:href="#DejaVuSans-50"/>
      <use x="426.857422" xlink:href="#DejaVuSans-53"/>
      <use x="490.480469" xlink:href="#DejaVuSans-37"/>
     </g>
    </g>
   </g>
  </g>
 </g>
 <defs>
  <clipPath id="p5bdb859874">
   <rect height="443.52" width="892.8" x="92.018125" y="12.2"/>
  </clipPath>
 </defs>
</svg>
