<?xml version="1.0" encoding="utf-8" standalone="no"?>
<!DOCTYPE svg PUBLIC "-//W3C//DTD SVG 1.1//EN"
  "http://www.w3.org/Graphics/SVG/1.1/DTD/svg11.dtd">
<!-- Created with matplotlib (https://matplotlib.org/) -->
<svg height="529.6175pt" version="1.1" viewBox="0 0 1005.2975 529.6175" width="1005.2975pt" xmlns="http://www.w3.org/2000/svg" xmlns:xlink="http://www.w3.org/1999/xlink">
 <defs>
  <style type="text/css">
*{stroke-linecap:butt;stroke-linejoin:round;}
  </style>
 </defs>
 <g id="figure_1">
  <g id="patch_1">
   <path d="M 0 529.6175 
L 1005.2975 529.6175 
L 1005.2975 0 
L 0 0 
z
" style="fill:#ffffff;"/>
  </g>
  <g id="axes_1">
   <g id="patch_2">
    <path d="M 100.2975 455.72 
L 993.0975 455.72 
L 993.0975 12.2 
L 100.2975 12.2 
z
" style="fill:#ffffff;"/>
   </g>
   <g id="patch_3">
    <path clip-path="url(#p7c017367f0)" d="M 111.4575 389.130798 
L 200.7375 389.130798 
L 200.7375 167.862558 
L 111.4575 167.862558 
L 111.4575 389.130798 
z
" style="fill:#d2d2f9;stroke:#8a8a8a;stroke-linejoin:miter;stroke-width:1.5;"/>
   </g>
   <g id="patch_4">
    <path clip-path="url(#p7c017367f0)" d="M 223.0575 406.109764 
L 312.3375 406.109764 
L 312.3375 380.080723 
L 223.0575 380.080723 
L 223.0575 406.109764 
z
" style="fill:#d2d2f9;stroke:#8a8a8a;stroke-linejoin:miter;stroke-width:1.5;"/>
   </g>
   <g id="patch_5">
    <path clip-path="url(#p7c017367f0)" d="M 334.6575 416.081906 
L 423.9375 416.081906 
L 423.9375 405.627408 
L 334.6575 405.627408 
L 334.6575 416.081906 
z
" style="fill:#d2d2f9;stroke:#8a8a8a;stroke-linejoin:miter;stroke-width:1.5;"/>
   </g>
   <g id="patch_6">
    <path clip-path="url(#p7c017367f0)" d="M 446.2575 420.386166 
L 535.5375 420.386166 
L 535.5375 414.771873 
L 446.2575 414.771873 
L 446.2575 420.386166 
z
" style="fill:#d2d2f9;stroke:#8a8a8a;stroke-linejoin:miter;stroke-width:1.5;"/>
   </g>
   <g id="patch_7">
    <path clip-path="url(#p7c017367f0)" d="M 557.8575 425.140452 
L 647.1375 425.140452 
L 647.1375 416.891834 
L 557.8575 416.891834 
L 557.8575 425.140452 
z
" style="fill:#d2d2f9;stroke:#8a8a8a;stroke-linejoin:miter;stroke-width:1.5;"/>
   </g>
   <g id="patch_8">
    <path clip-path="url(#p7c017367f0)" d="M 669.4575 430.246645 
L 758.7375 430.246645 
L 758.7375 422.075476 
L 669.4575 422.075476 
L 669.4575 430.246645 
z
" style="fill:#d2d2f9;stroke:#8a8a8a;stroke-linejoin:miter;stroke-width:1.5;"/>
   </g>
   <g id="patch_9">
    <path clip-path="url(#p7c017367f0)" d="M 781.0575 431.223149 
L 870.3375 431.223149 
L 870.3375 425.284524 
L 781.0575 425.284524 
L 781.0575 431.223149 
z
" style="fill:#d2d2f9;stroke:#8a8a8a;stroke-linejoin:miter;stroke-width:1.5;"/>
   </g>
   <g id="patch_10">
    <path clip-path="url(#p7c017367f0)" d="M 892.6575 432.861737 
L 981.9375 432.861737 
L 981.9375 429.758479 
L 892.6575 429.758479 
L 892.6575 432.861737 
z
" style="fill:#d2d2f9;stroke:#8a8a8a;stroke-linejoin:miter;stroke-width:1.5;"/>
   </g>
   <g id="matplotlib.axis_1">
    <g id="xtick_1">
     <g id="line2d_1">
      <defs>
       <path d="M 0 5 
L 0 -5 
" id="m3fdea14c41" style="stroke:#525252;stroke-width:4;"/>
      </defs>
      <g>
       <use style="fill:#525252;stroke:#525252;stroke-width:4;" x="156.0975" xlink:href="#m3fdea14c41" y="455.72"/>
      </g>
     </g>
     <g id="text_1">
      <!-- 1.0 -->
      <defs>
       <path d="M 12.40625 8.296875 
L 28.515625 8.296875 
L 28.515625 63.921875 
L 10.984375 60.40625 
L 10.984375 69.390625 
L 28.421875 72.90625 
L 38.28125 72.90625 
L 38.28125 8.296875 
L 54.390625 8.296875 
L 54.390625 0 
L 12.40625 0 
z
" id="DejaVuSans-49"/>
       <path d="M 10.6875 12.40625 
L 21 12.40625 
L 21 0 
L 10.6875 0 
z
" id="DejaVuSans-46"/>
       <path d="M 31.78125 66.40625 
Q 24.171875 66.40625 20.328125 58.90625 
Q 16.5 51.421875 16.5 36.375 
Q 16.5 21.390625 20.328125 13.890625 
Q 24.171875 6.390625 31.78125 6.390625 
Q 39.453125 6.390625 43.28125 13.890625 
Q 47.125 21.390625 47.125 36.375 
Q 47.125 51.421875 43.28125 58.90625 
Q 39.453125 66.40625 31.78125 66.40625 
z
M 31.78125 74.21875 
Q 44.046875 74.21875 50.515625 64.515625 
Q 56.984375 54.828125 56.984375 36.375 
Q 56.984375 17.96875 50.515625 8.265625 
Q 44.046875 -1.421875 31.78125 -1.421875 
Q 19.53125 -1.421875 13.0625 8.265625 
Q 6.59375 17.96875 6.59375 36.375 
Q 6.59375 54.828125 13.0625 64.515625 
Q 19.53125 74.21875 31.78125 74.21875 
z
" id="DejaVuSans-48"/>
      </defs>
      <g transform="translate(137.01375 482.45625)scale(0.24 -0.24)">
       <use xlink:href="#DejaVuSans-49"/>
       <use x="63.623047" xlink:href="#DejaVuSans-46"/>
       <use x="95.410156" xlink:href="#DejaVuSans-48"/>
      </g>
     </g>
    </g>
    <g id="xtick_2">
     <g id="line2d_2">
      <g>
       <use style="fill:#525252;stroke:#525252;stroke-width:4;" x="267.6975" xlink:href="#m3fdea14c41" y="455.72"/>
      </g>
     </g>
     <g id="text_2">
      <!-- 3.0 -->
      <defs>
       <path d="M 40.578125 39.3125 
Q 47.65625 37.796875 51.625 33 
Q 55.609375 28.21875 55.609375 21.1875 
Q 55.609375 10.40625 48.1875 4.484375 
Q 40.765625 -1.421875 27.09375 -1.421875 
Q 22.515625 -1.421875 17.65625 -0.515625 
Q 12.796875 0.390625 7.625 2.203125 
L 7.625 11.71875 
Q 11.71875 9.328125 16.59375 8.109375 
Q 21.484375 6.890625 26.8125 6.890625 
Q 36.078125 6.890625 40.9375 10.546875 
Q 45.796875 14.203125 45.796875 21.1875 
Q 45.796875 27.640625 41.28125 31.265625 
Q 36.765625 34.90625 28.71875 34.90625 
L 20.21875 34.90625 
L 20.21875 43.015625 
L 29.109375 43.015625 
Q 36.375 43.015625 40.234375 45.921875 
Q 44.09375 48.828125 44.09375 54.296875 
Q 44.09375 59.90625 40.109375 62.90625 
Q 36.140625 65.921875 28.71875 65.921875 
Q 24.65625 65.921875 20.015625 65.03125 
Q 15.375 64.15625 9.8125 62.3125 
L 9.8125 71.09375 
Q 15.4375 72.65625 20.34375 73.4375 
Q 25.25 74.21875 29.59375 74.21875 
Q 40.828125 74.21875 47.359375 69.109375 
Q 53.90625 64.015625 53.90625 55.328125 
Q 53.90625 49.265625 50.4375 45.09375 
Q 46.96875 40.921875 40.578125 39.3125 
z
" id="DejaVuSans-51"/>
      </defs>
      <g transform="translate(248.61375 482.45625)scale(0.24 -0.24)">
       <use xlink:href="#DejaVuSans-51"/>
       <use x="63.623047" xlink:href="#DejaVuSans-46"/>
       <use x="95.410156" xlink:href="#DejaVuSans-48"/>
      </g>
     </g>
    </g>
    <g id="xtick_3">
     <g id="line2d_3">
      <g>
       <use style="fill:#525252;stroke:#525252;stroke-width:4;" x="379.2975" xlink:href="#m3fdea14c41" y="455.72"/>
      </g>
     </g>
     <g id="text_3">
      <!-- 5.0 -->
      <defs>
       <path d="M 10.796875 72.90625 
L 49.515625 72.90625 
L 49.515625 64.59375 
L 19.828125 64.59375 
L 19.828125 46.734375 
Q 21.96875 47.46875 24.109375 47.828125 
Q 26.265625 48.1875 28.421875 48.1875 
Q 40.625 48.1875 47.75 41.5 
Q 54.890625 34.8125 54.890625 23.390625 
Q 54.890625 11.625 47.5625 5.09375 
Q 40.234375 -1.421875 26.90625 -1.421875 
Q 22.3125 -1.421875 17.546875 -0.640625 
Q 12.796875 0.140625 7.71875 1.703125 
L 7.71875 11.625 
Q 12.109375 9.234375 16.796875 8.0625 
Q 21.484375 6.890625 26.703125 6.890625 
Q 35.15625 6.890625 40.078125 11.328125 
Q 45.015625 15.765625 45.015625 23.390625 
Q 45.015625 31 40.078125 35.4375 
Q 35.15625 39.890625 26.703125 39.890625 
Q 22.75 39.890625 18.8125 39.015625 
Q 14.890625 38.140625 10.796875 36.28125 
z
" id="DejaVuSans-53"/>
      </defs>
      <g transform="translate(360.21375 482.45625)scale(0.24 -0.24)">
       <use xlink:href="#DejaVuSans-53"/>
       <use x="63.623047" xlink:href="#DejaVuSans-46"/>
       <use x="95.410156" xlink:href="#DejaVuSans-48"/>
      </g>
     </g>
    </g>
    <g id="xtick_4">
     <g id="line2d_4">
      <g>
       <use style="fill:#525252;stroke:#525252;stroke-width:4;" x="490.8975" xlink:href="#m3fdea14c41" y="455.72"/>
      </g>
     </g>
     <g id="text_4">
      <!-- 7.0 -->
      <defs>
       <path d="M 8.203125 72.90625 
L 55.078125 72.90625 
L 55.078125 68.703125 
L 28.609375 0 
L 18.3125 0 
L 43.21875 64.59375 
L 8.203125 64.59375 
z
" id="DejaVuSans-55"/>
      </defs>
      <g transform="translate(471.81375 482.45625)scale(0.24 -0.24)">
       <use xlink:href="#DejaVuSans-55"/>
       <use x="63.623047" xlink:href="#DejaVuSans-46"/>
       <use x="95.410156" xlink:href="#DejaVuSans-48"/>
      </g>
     </g>
    </g>
    <g id="xtick_5">
     <g id="line2d_5">
      <g>
       <use style="fill:#525252;stroke:#525252;stroke-width:4;" x="602.4975" xlink:href="#m3fdea14c41" y="455.72"/>
      </g>
     </g>
     <g id="text_5">
      <!-- 9.0 -->
      <defs>
       <path d="M 10.984375 1.515625 
L 10.984375 10.5 
Q 14.703125 8.734375 18.5 7.8125 
Q 22.3125 6.890625 25.984375 6.890625 
Q 35.75 6.890625 40.890625 13.453125 
Q 46.046875 20.015625 46.78125 33.40625 
Q 43.953125 29.203125 39.59375 26.953125 
Q 35.25 24.703125 29.984375 24.703125 
Q 19.046875 24.703125 12.671875 31.3125 
Q 6.296875 37.9375 6.296875 49.421875 
Q 6.296875 60.640625 12.9375 67.421875 
Q 19.578125 74.21875 30.609375 74.21875 
Q 43.265625 74.21875 49.921875 64.515625 
Q 56.59375 54.828125 56.59375 36.375 
Q 56.59375 19.140625 48.40625 8.859375 
Q 40.234375 -1.421875 26.421875 -1.421875 
Q 22.703125 -1.421875 18.890625 -0.6875 
Q 15.09375 0.046875 10.984375 1.515625 
z
M 30.609375 32.421875 
Q 37.25 32.421875 41.125 36.953125 
Q 45.015625 41.5 45.015625 49.421875 
Q 45.015625 57.28125 41.125 61.84375 
Q 37.25 66.40625 30.609375 66.40625 
Q 23.96875 66.40625 20.09375 61.84375 
Q 16.21875 57.28125 16.21875 49.421875 
Q 16.21875 41.5 20.09375 36.953125 
Q 23.96875 32.421875 30.609375 32.421875 
z
" id="DejaVuSans-57"/>
      </defs>
      <g transform="translate(583.41375 482.45625)scale(0.24 -0.24)">
       <use xlink:href="#DejaVuSans-57"/>
       <use x="63.623047" xlink:href="#DejaVuSans-46"/>
       <use x="95.410156" xlink:href="#DejaVuSans-48"/>
      </g>
     </g>
    </g>
    <g id="xtick_6">
     <g id="line2d_6">
      <g>
       <use style="fill:#525252;stroke:#525252;stroke-width:4;" x="714.0975" xlink:href="#m3fdea14c41" y="455.72"/>
      </g>
     </g>
     <g id="text_6">
      <!-- 11.0 -->
      <g transform="translate(687.37875 482.45625)scale(0.24 -0.24)">
       <use xlink:href="#DejaVuSans-49"/>
       <use x="63.623047" xlink:href="#DejaVuSans-49"/>
       <use x="127.246094" xlink:href="#DejaVuSans-46"/>
       <use x="159.033203" xlink:href="#DejaVuSans-48"/>
      </g>
     </g>
    </g>
    <g id="xtick_7">
     <g id="line2d_7">
      <g>
       <use style="fill:#525252;stroke:#525252;stroke-width:4;" x="825.6975" xlink:href="#m3fdea14c41" y="455.72"/>
      </g>
     </g>
     <g id="text_7">
      <!-- 13.0 -->
      <g transform="translate(798.97875 482.45625)scale(0.24 -0.24)">
       <use xlink:href="#DejaVuSans-49"/>
       <use x="63.623047" xlink:href="#DejaVuSans-51"/>
       <use x="127.246094" xlink:href="#DejaVuSans-46"/>
       <use x="159.033203" xlink:href="#DejaVuSans-48"/>
      </g>
     </g>
    </g>
    <g id="xtick_8">
     <g id="line2d_8">
      <g>
       <use style="fill:#525252;stroke:#525252;stroke-width:4;" x="937.2975" xlink:href="#m3fdea14c41" y="455.72"/>
      </g>
     </g>
     <g id="text_8">
      <!-- 15.0 -->
      <g transform="translate(910.57875 482.45625)scale(0.24 -0.24)">
       <use xlink:href="#DejaVuSans-49"/>
       <use x="63.623047" xlink:href="#DejaVuSans-53"/>
       <use x="127.246094" xlink:href="#DejaVuSans-46"/>
       <use x="159.033203" xlink:href="#DejaVuSans-48"/>
      </g>
     </g>
    </g>
    <g id="text_9">
     <!-- Error % -->
     <defs>
      <path d="M 9.8125 72.90625 
L 55.90625 72.90625 
L 55.90625 64.59375 
L 19.671875 64.59375 
L 19.671875 43.015625 
L 54.390625 43.015625 
L 54.390625 34.71875 
L 19.671875 34.71875 
L 19.671875 8.296875 
L 56.78125 8.296875 
L 56.78125 0 
L 9.8125 0 
z
" id="DejaVuSans-69"/>
      <path d="M 41.109375 46.296875 
Q 39.59375 47.171875 37.8125 47.578125 
Q 36.03125 48 33.890625 48 
Q 26.265625 48 22.1875 43.046875 
Q 18.109375 38.09375 18.109375 28.8125 
L 18.109375 0 
L 9.078125 0 
L 9.078125 54.6875 
L 18.109375 54.6875 
L 18.109375 46.1875 
Q 20.953125 51.171875 25.484375 53.578125 
Q 30.03125 56 36.53125 56 
Q 37.453125 56 38.578125 55.875 
Q 39.703125 55.765625 41.0625 55.515625 
z
" id="DejaVuSans-114"/>
      <path d="M 30.609375 48.390625 
Q 23.390625 48.390625 19.1875 42.75 
Q 14.984375 37.109375 14.984375 27.296875 
Q 14.984375 17.484375 19.15625 11.84375 
Q 23.34375 6.203125 30.609375 6.203125 
Q 37.796875 6.203125 41.984375 11.859375 
Q 46.1875 17.53125 46.1875 27.296875 
Q 46.1875 37.015625 41.984375 42.703125 
Q 37.796875 48.390625 30.609375 48.390625 
z
M 30.609375 56 
Q 42.328125 56 49.015625 48.375 
Q 55.71875 40.765625 55.71875 27.296875 
Q 55.71875 13.875 49.015625 6.21875 
Q 42.328125 -1.421875 30.609375 -1.421875 
Q 18.84375 -1.421875 12.171875 6.21875 
Q 5.515625 13.875 5.515625 27.296875 
Q 5.515625 40.765625 12.171875 48.375 
Q 18.84375 56 30.609375 56 
z
" id="DejaVuSans-111"/>
      <path id="DejaVuSans-32"/>
      <path d="M 72.703125 32.078125 
Q 68.453125 32.078125 66.03125 28.46875 
Q 63.625 24.859375 63.625 18.40625 
Q 63.625 12.0625 66.03125 8.421875 
Q 68.453125 4.78125 72.703125 4.78125 
Q 76.859375 4.78125 79.265625 8.421875 
Q 81.6875 12.0625 81.6875 18.40625 
Q 81.6875 24.8125 79.265625 28.4375 
Q 76.859375 32.078125 72.703125 32.078125 
z
M 72.703125 38.28125 
Q 80.421875 38.28125 84.953125 32.90625 
Q 89.5 27.546875 89.5 18.40625 
Q 89.5 9.28125 84.9375 3.921875 
Q 80.375 -1.421875 72.703125 -1.421875 
Q 64.890625 -1.421875 60.34375 3.921875 
Q 55.8125 9.28125 55.8125 18.40625 
Q 55.8125 27.59375 60.375 32.9375 
Q 64.9375 38.28125 72.703125 38.28125 
z
M 22.3125 68.015625 
Q 18.109375 68.015625 15.6875 64.375 
Q 13.28125 60.75 13.28125 54.390625 
Q 13.28125 47.953125 15.671875 44.328125 
Q 18.0625 40.71875 22.3125 40.71875 
Q 26.5625 40.71875 28.96875 44.328125 
Q 31.390625 47.953125 31.390625 54.390625 
Q 31.390625 60.6875 28.953125 64.34375 
Q 26.515625 68.015625 22.3125 68.015625 
z
M 66.40625 74.21875 
L 74.21875 74.21875 
L 28.609375 -1.421875 
L 20.796875 -1.421875 
z
M 22.3125 74.21875 
Q 30.03125 74.21875 34.609375 68.875 
Q 39.203125 63.53125 39.203125 54.390625 
Q 39.203125 45.171875 34.640625 39.84375 
Q 30.078125 34.515625 22.3125 34.515625 
Q 14.546875 34.515625 10.03125 39.859375 
Q 5.515625 45.21875 5.515625 54.390625 
Q 5.515625 63.484375 10.046875 68.84375 
Q 14.59375 74.21875 22.3125 74.21875 
z
" id="DejaVuSans-37"/>
     </defs>
     <g transform="translate(486.785 515.7625)scale(0.32 -0.32)">
      <use xlink:href="#DejaVuSans-69"/>
      <use x="63.183594" xlink:href="#DejaVuSans-114"/>
      <use x="104.28125" xlink:href="#DejaVuSans-114"/>
      <use x="145.363281" xlink:href="#DejaVuSans-111"/>
      <use x="206.544922" xlink:href="#DejaVuSans-114"/>
      <use x="247.658203" xlink:href="#DejaVuSans-32"/>
      <use x="279.445312" xlink:href="#DejaVuSans-37"/>
     </g>
    </g>
   </g>
   <g id="matplotlib.axis_2">
    <g id="ytick_1">
     <g id="line2d_9">
      <defs>
       <path d="M 5 0 
L -5 -0 
" id="m5df40ddce9" style="stroke:#525252;stroke-width:4;"/>
      </defs>
      <g>
       <use style="fill:#525252;stroke:#525252;stroke-width:4;" x="100.2975" xlink:href="#m5df40ddce9" y="390.627966"/>
      </g>
     </g>
     <g id="text_10">
      <!-- 100 -->
      <g transform="translate(42.17 400.505934)scale(0.26 -0.26)">
       <use xlink:href="#DejaVuSans-49"/>
       <use x="63.623047" xlink:href="#DejaVuSans-48"/>
       <use x="127.246094" xlink:href="#DejaVuSans-48"/>
      </g>
     </g>
    </g>
    <g id="ytick_2">
     <g id="line2d_10">
      <g>
       <use style="fill:#525252;stroke:#525252;stroke-width:4;" x="100.2975" xlink:href="#m5df40ddce9" y="318.736662"/>
      </g>
     </g>
     <g id="text_11">
      <!-- 200 -->
      <defs>
       <path d="M 19.1875 8.296875 
L 53.609375 8.296875 
L 53.609375 0 
L 7.328125 0 
L 7.328125 8.296875 
Q 12.9375 14.109375 22.625 23.890625 
Q 32.328125 33.6875 34.8125 36.53125 
Q 39.546875 41.84375 41.421875 45.53125 
Q 43.3125 49.21875 43.3125 52.78125 
Q 43.3125 58.59375 39.234375 62.25 
Q 35.15625 65.921875 28.609375 65.921875 
Q 23.96875 65.921875 18.8125 64.3125 
Q 13.671875 62.703125 7.8125 59.421875 
L 7.8125 69.390625 
Q 13.765625 71.78125 18.9375 73 
Q 24.125 74.21875 28.421875 74.21875 
Q 39.75 74.21875 46.484375 68.546875 
Q 53.21875 62.890625 53.21875 53.421875 
Q 53.21875 48.921875 51.53125 44.890625 
Q 49.859375 40.875 45.40625 35.40625 
Q 44.1875 33.984375 37.640625 27.21875 
Q 31.109375 20.453125 19.1875 8.296875 
z
" id="DejaVuSans-50"/>
      </defs>
      <g transform="translate(42.17 328.614631)scale(0.26 -0.26)">
       <use xlink:href="#DejaVuSans-50"/>
       <use x="63.623047" xlink:href="#DejaVuSans-48"/>
       <use x="127.246094" xlink:href="#DejaVuSans-48"/>
      </g>
     </g>
    </g>
    <g id="ytick_3">
     <g id="line2d_11">
      <g>
       <use style="fill:#525252;stroke:#525252;stroke-width:4;" x="100.2975" xlink:href="#m5df40ddce9" y="246.845359"/>
      </g>
     </g>
     <g id="text_12">
      <!-- 300 -->
      <g transform="translate(42.17 256.723327)scale(0.26 -0.26)">
       <use xlink:href="#DejaVuSans-51"/>
       <use x="63.623047" xlink:href="#DejaVuSans-48"/>
       <use x="127.246094" xlink:href="#DejaVuSans-48"/>
      </g>
     </g>
    </g>
    <g id="ytick_4">
     <g id="line2d_12">
      <g>
       <use style="fill:#525252;stroke:#525252;stroke-width:4;" x="100.2975" xlink:href="#m5df40ddce9" y="174.954055"/>
      </g>
     </g>
     <g id="text_13">
      <!-- 400 -->
      <defs>
       <path d="M 37.796875 64.3125 
L 12.890625 25.390625 
L 37.796875 25.390625 
z
M 35.203125 72.90625 
L 47.609375 72.90625 
L 47.609375 25.390625 
L 58.015625 25.390625 
L 58.015625 17.1875 
L 47.609375 17.1875 
L 47.609375 0 
L 37.796875 0 
L 37.796875 17.1875 
L 4.890625 17.1875 
L 4.890625 26.703125 
z
" id="DejaVuSans-52"/>
      </defs>
      <g transform="translate(42.17 184.832024)scale(0.26 -0.26)">
       <use xlink:href="#DejaVuSans-52"/>
       <use x="63.623047" xlink:href="#DejaVuSans-48"/>
       <use x="127.246094" xlink:href="#DejaVuSans-48"/>
      </g>
     </g>
    </g>
    <g id="ytick_5">
     <g id="line2d_13">
      <g>
       <use style="fill:#525252;stroke:#525252;stroke-width:4;" x="100.2975" xlink:href="#m5df40ddce9" y="103.062752"/>
      </g>
     </g>
     <g id="text_14">
      <!-- 500 -->
      <g transform="translate(42.17 112.940721)scale(0.26 -0.26)">
       <use xlink:href="#DejaVuSans-53"/>
       <use x="63.623047" xlink:href="#DejaVuSans-48"/>
       <use x="127.246094" xlink:href="#DejaVuSans-48"/>
      </g>
     </g>
    </g>
    <g id="ytick_6">
     <g id="line2d_14">
      <g>
       <use style="fill:#525252;stroke:#525252;stroke-width:4;" x="100.2975" xlink:href="#m5df40ddce9" y="31.171448"/>
      </g>
     </g>
     <g id="text_15">
      <!-- 600 -->
      <defs>
       <path d="M 33.015625 40.375 
Q 26.375 40.375 22.484375 35.828125 
Q 18.609375 31.296875 18.609375 23.390625 
Q 18.609375 15.53125 22.484375 10.953125 
Q 26.375 6.390625 33.015625 6.390625 
Q 39.65625 6.390625 43.53125 10.953125 
Q 47.40625 15.53125 47.40625 23.390625 
Q 47.40625 31.296875 43.53125 35.828125 
Q 39.65625 40.375 33.015625 40.375 
z
M 52.59375 71.296875 
L 52.59375 62.3125 
Q 48.875 64.0625 45.09375 64.984375 
Q 41.3125 65.921875 37.59375 65.921875 
Q 27.828125 65.921875 22.671875 59.328125 
Q 17.53125 52.734375 16.796875 39.40625 
Q 19.671875 43.65625 24.015625 45.921875 
Q 28.375 48.1875 33.59375 48.1875 
Q 44.578125 48.1875 50.953125 41.515625 
Q 57.328125 34.859375 57.328125 23.390625 
Q 57.328125 12.15625 50.6875 5.359375 
Q 44.046875 -1.421875 33.015625 -1.421875 
Q 20.359375 -1.421875 13.671875 8.265625 
Q 6.984375 17.96875 6.984375 36.375 
Q 6.984375 53.65625 15.1875 63.9375 
Q 23.390625 74.21875 37.203125 74.21875 
Q 40.921875 74.21875 44.703125 73.484375 
Q 48.484375 72.75 52.59375 71.296875 
z
" id="DejaVuSans-54"/>
      </defs>
      <g transform="translate(42.17 41.049417)scale(0.26 -0.26)">
       <use xlink:href="#DejaVuSans-54"/>
       <use x="63.623047" xlink:href="#DejaVuSans-48"/>
       <use x="127.246094" xlink:href="#DejaVuSans-48"/>
      </g>
     </g>
    </g>
    <g id="text_16">
     <!-- Time -->
     <defs>
      <path d="M -0.296875 72.90625 
L 61.375 72.90625 
L 61.375 64.59375 
L 35.5 64.59375 
L 35.5 0 
L 25.59375 0 
L 25.59375 64.59375 
L -0.296875 64.59375 
z
" id="DejaVuSans-84"/>
      <path d="M 9.421875 54.6875 
L 18.40625 54.6875 
L 18.40625 0 
L 9.421875 0 
z
M 9.421875 75.984375 
L 18.40625 75.984375 
L 18.40625 64.59375 
L 9.421875 64.59375 
z
" id="DejaVuSans-105"/>
      <path d="M 52 44.1875 
Q 55.375 50.25 60.0625 53.125 
Q 64.75 56 71.09375 56 
Q 79.640625 56 84.28125 50.015625 
Q 88.921875 44.046875 88.921875 33.015625 
L 88.921875 0 
L 79.890625 0 
L 79.890625 32.71875 
Q 79.890625 40.578125 77.09375 44.375 
Q 74.3125 48.1875 68.609375 48.1875 
Q 61.625 48.1875 57.5625 43.546875 
Q 53.515625 38.921875 53.515625 30.90625 
L 53.515625 0 
L 44.484375 0 
L 44.484375 32.71875 
Q 44.484375 40.625 41.703125 44.40625 
Q 38.921875 48.1875 33.109375 48.1875 
Q 26.21875 48.1875 22.15625 43.53125 
Q 18.109375 38.875 18.109375 30.90625 
L 18.109375 0 
L 9.078125 0 
L 9.078125 54.6875 
L 18.109375 54.6875 
L 18.109375 46.1875 
Q 21.1875 51.21875 25.484375 53.609375 
Q 29.78125 56 35.6875 56 
Q 41.65625 56 45.828125 52.96875 
Q 50 49.953125 52 44.1875 
z
" id="DejaVuSans-109"/>
      <path d="M 56.203125 29.59375 
L 56.203125 25.203125 
L 14.890625 25.203125 
Q 15.484375 15.921875 20.484375 11.0625 
Q 25.484375 6.203125 34.421875 6.203125 
Q 39.59375 6.203125 44.453125 7.46875 
Q 49.3125 8.734375 54.109375 11.28125 
L 54.109375 2.78125 
Q 49.265625 0.734375 44.1875 -0.34375 
Q 39.109375 -1.421875 33.890625 -1.421875 
Q 20.796875 -1.421875 13.15625 6.1875 
Q 5.515625 13.8125 5.515625 26.8125 
Q 5.515625 40.234375 12.765625 48.109375 
Q 20.015625 56 32.328125 56 
Q 43.359375 56 49.78125 48.890625 
Q 56.203125 41.796875 56.203125 29.59375 
z
M 47.21875 32.234375 
Q 47.125 39.59375 43.09375 43.984375 
Q 39.0625 48.390625 32.421875 48.390625 
Q 24.90625 48.390625 20.390625 44.140625 
Q 15.875 39.890625 15.1875 32.171875 
z
" id="DejaVuSans-101"/>
     </defs>
     <g transform="translate(31.515 273.6)rotate(-90)scale(0.32 -0.32)">
      <use xlink:href="#DejaVuSans-84"/>
      <use x="61.037109" xlink:href="#DejaVuSans-105"/>
      <use x="88.820312" xlink:href="#DejaVuSans-109"/>
      <use x="186.232422" xlink:href="#DejaVuSans-101"/>
     </g>
    </g>
   </g>
   <g id="line2d_15">
    <path clip-path="url(#p7c017367f0)" d="M 156.0975 389.130798 
L 156.0975 412.172837 
" style="fill:none;stroke:#8a8a8a;stroke-linecap:square;stroke-width:1.5;"/>
   </g>
   <g id="line2d_16">
    <path clip-path="url(#p7c017367f0)" d="M 156.0975 167.862558 
L 156.0975 32.36 
" style="fill:none;stroke:#8a8a8a;stroke-linecap:square;stroke-width:1.5;"/>
   </g>
   <g id="line2d_17">
    <path clip-path="url(#p7c017367f0)" d="M 133.7775 412.172837 
L 178.4175 412.172837 
" style="fill:none;stroke:#8a8a8a;stroke-linecap:square;stroke-width:1.5;"/>
   </g>
   <g id="line2d_18">
    <path clip-path="url(#p7c017367f0)" d="M 133.7775 32.36 
L 178.4175 32.36 
" style="fill:none;stroke:#8a8a8a;stroke-linecap:square;stroke-width:1.5;"/>
   </g>
   <g id="line2d_19"/>
   <g id="line2d_20">
    <path clip-path="url(#p7c017367f0)" d="M 267.6975 406.109764 
L 267.6975 420.989335 
" style="fill:none;stroke:#8a8a8a;stroke-linecap:square;stroke-width:1.5;"/>
   </g>
   <g id="line2d_21">
    <path clip-path="url(#p7c017367f0)" d="M 267.6975 380.080723 
L 267.6975 353.503082 
" style="fill:none;stroke:#8a8a8a;stroke-linecap:square;stroke-width:1.5;"/>
   </g>
   <g id="line2d_22">
    <path clip-path="url(#p7c017367f0)" d="M 245.3775 420.989335 
L 290.0175 420.989335 
" style="fill:none;stroke:#8a8a8a;stroke-linecap:square;stroke-width:1.5;"/>
   </g>
   <g id="line2d_23">
    <path clip-path="url(#p7c017367f0)" d="M 245.3775 353.503082 
L 290.0175 353.503082 
" style="fill:none;stroke:#8a8a8a;stroke-linecap:square;stroke-width:1.5;"/>
   </g>
   <g id="line2d_24">
    <defs>
     <path d="M 0 3.535534 
L 2.12132 0 
L 0 -3.535534 
L -2.12132 0 
z
" id="m6523a0b571" style="stroke:#8a8a8a;stroke-linejoin:miter;"/>
    </defs>
    <g clip-path="url(#p7c017367f0)">
     <use style="fill:#8a8a8a;stroke:#8a8a8a;stroke-linejoin:miter;" x="267.6975" xlink:href="#m6523a0b571" y="293.113986"/>
     <use style="fill:#8a8a8a;stroke:#8a8a8a;stroke-linejoin:miter;" x="267.6975" xlink:href="#m6523a0b571" y="292.158024"/>
     <use style="fill:#8a8a8a;stroke:#8a8a8a;stroke-linejoin:miter;" x="267.6975" xlink:href="#m6523a0b571" y="291.465613"/>
     <use style="fill:#8a8a8a;stroke:#8a8a8a;stroke-linejoin:miter;" x="267.6975" xlink:href="#m6523a0b571" y="291.398515"/>
     <use style="fill:#8a8a8a;stroke:#8a8a8a;stroke-linejoin:miter;" x="267.6975" xlink:href="#m6523a0b571" y="291.395202"/>
     <use style="fill:#8a8a8a;stroke:#8a8a8a;stroke-linejoin:miter;" x="267.6975" xlink:href="#m6523a0b571" y="291.341427"/>
     <use style="fill:#8a8a8a;stroke:#8a8a8a;stroke-linejoin:miter;" x="267.6975" xlink:href="#m6523a0b571" y="291.340272"/>
     <use style="fill:#8a8a8a;stroke:#8a8a8a;stroke-linejoin:miter;" x="267.6975" xlink:href="#m6523a0b571" y="290.934693"/>
     <use style="fill:#8a8a8a;stroke:#8a8a8a;stroke-linejoin:miter;" x="267.6975" xlink:href="#m6523a0b571" y="290.879525"/>
     <use style="fill:#8a8a8a;stroke:#8a8a8a;stroke-linejoin:miter;" x="267.6975" xlink:href="#m6523a0b571" y="290.429096"/>
     <use style="fill:#8a8a8a;stroke:#8a8a8a;stroke-linejoin:miter;" x="267.6975" xlink:href="#m6523a0b571" y="290.418106"/>
     <use style="fill:#8a8a8a;stroke:#8a8a8a;stroke-linejoin:miter;" x="267.6975" xlink:href="#m6523a0b571" y="290.399787"/>
     <use style="fill:#8a8a8a;stroke:#8a8a8a;stroke-linejoin:miter;" x="267.6975" xlink:href="#m6523a0b571" y="290.054421"/>
     <use style="fill:#8a8a8a;stroke:#8a8a8a;stroke-linejoin:miter;" x="267.6975" xlink:href="#m6523a0b571" y="288.380732"/>
     <use style="fill:#8a8a8a;stroke:#8a8a8a;stroke-linejoin:miter;" x="267.6975" xlink:href="#m6523a0b571" y="277.968916"/>
     <use style="fill:#8a8a8a;stroke:#8a8a8a;stroke-linejoin:miter;" x="267.6975" xlink:href="#m6523a0b571" y="277.040914"/>
     <use style="fill:#8a8a8a;stroke:#8a8a8a;stroke-linejoin:miter;" x="267.6975" xlink:href="#m6523a0b571" y="276.931043"/>
     <use style="fill:#8a8a8a;stroke:#8a8a8a;stroke-linejoin:miter;" x="267.6975" xlink:href="#m6523a0b571" y="276.78202"/>
     <use style="fill:#8a8a8a;stroke:#8a8a8a;stroke-linejoin:miter;" x="267.6975" xlink:href="#m6523a0b571" y="276.776135"/>
     <use style="fill:#8a8a8a;stroke:#8a8a8a;stroke-linejoin:miter;" x="267.6975" xlink:href="#m6523a0b571" y="276.335495"/>
     <use style="fill:#8a8a8a;stroke:#8a8a8a;stroke-linejoin:miter;" x="267.6975" xlink:href="#m6523a0b571" y="275.876838"/>
     <use style="fill:#8a8a8a;stroke:#8a8a8a;stroke-linejoin:miter;" x="267.6975" xlink:href="#m6523a0b571" y="274.526812"/>
     <use style="fill:#8a8a8a;stroke:#8a8a8a;stroke-linejoin:miter;" x="267.6975" xlink:href="#m6523a0b571" y="302.2458"/>
     <use style="fill:#8a8a8a;stroke:#8a8a8a;stroke-linejoin:miter;" x="267.6975" xlink:href="#m6523a0b571" y="302.234184"/>
     <use style="fill:#8a8a8a;stroke:#8a8a8a;stroke-linejoin:miter;" x="267.6975" xlink:href="#m6523a0b571" y="302.110849"/>
     <use style="fill:#8a8a8a;stroke:#8a8a8a;stroke-linejoin:miter;" x="267.6975" xlink:href="#m6523a0b571" y="302.018697"/>
     <use style="fill:#8a8a8a;stroke:#8a8a8a;stroke-linejoin:miter;" x="267.6975" xlink:href="#m6523a0b571" y="301.890095"/>
     <use style="fill:#8a8a8a;stroke:#8a8a8a;stroke-linejoin:miter;" x="267.6975" xlink:href="#m6523a0b571" y="301.778734"/>
     <use style="fill:#8a8a8a;stroke:#8a8a8a;stroke-linejoin:miter;" x="267.6975" xlink:href="#m6523a0b571" y="300.326536"/>
     <use style="fill:#8a8a8a;stroke:#8a8a8a;stroke-linejoin:miter;" x="267.6975" xlink:href="#m6523a0b571" y="300.179531"/>
     <use style="fill:#8a8a8a;stroke:#8a8a8a;stroke-linejoin:miter;" x="267.6975" xlink:href="#m6523a0b571" y="311.504886"/>
     <use style="fill:#8a8a8a;stroke:#8a8a8a;stroke-linejoin:miter;" x="267.6975" xlink:href="#m6523a0b571" y="310.69683"/>
     <use style="fill:#8a8a8a;stroke:#8a8a8a;stroke-linejoin:miter;" x="267.6975" xlink:href="#m6523a0b571" y="310.582776"/>
     <use style="fill:#8a8a8a;stroke:#8a8a8a;stroke-linejoin:miter;" x="267.6975" xlink:href="#m6523a0b571" y="310.454565"/>
     <use style="fill:#8a8a8a;stroke:#8a8a8a;stroke-linejoin:miter;" x="267.6975" xlink:href="#m6523a0b571" y="310.449574"/>
     <use style="fill:#8a8a8a;stroke:#8a8a8a;stroke-linejoin:miter;" x="267.6975" xlink:href="#m6523a0b571" y="310.130988"/>
     <use style="fill:#8a8a8a;stroke:#8a8a8a;stroke-linejoin:miter;" x="267.6975" xlink:href="#m6523a0b571" y="309.911301"/>
     <use style="fill:#8a8a8a;stroke:#8a8a8a;stroke-linejoin:miter;" x="267.6975" xlink:href="#m6523a0b571" y="309.771451"/>
     <use style="fill:#8a8a8a;stroke:#8a8a8a;stroke-linejoin:miter;" x="267.6975" xlink:href="#m6523a0b571" y="309.766579"/>
     <use style="fill:#8a8a8a;stroke:#8a8a8a;stroke-linejoin:miter;" x="267.6975" xlink:href="#m6523a0b571" y="303.855974"/>
     <use style="fill:#8a8a8a;stroke:#8a8a8a;stroke-linejoin:miter;" x="267.6975" xlink:href="#m6523a0b571" y="303.722423"/>
     <use style="fill:#8a8a8a;stroke:#8a8a8a;stroke-linejoin:miter;" x="267.6975" xlink:href="#m6523a0b571" y="303.426006"/>
     <use style="fill:#8a8a8a;stroke:#8a8a8a;stroke-linejoin:miter;" x="267.6975" xlink:href="#m6523a0b571" y="302.940628"/>
     <use style="fill:#8a8a8a;stroke:#8a8a8a;stroke-linejoin:miter;" x="267.6975" xlink:href="#m6523a0b571" y="302.921192"/>
     <use style="fill:#8a8a8a;stroke:#8a8a8a;stroke-linejoin:miter;" x="267.6975" xlink:href="#m6523a0b571" y="301.591585"/>
     <use style="fill:#8a8a8a;stroke:#8a8a8a;stroke-linejoin:miter;" x="267.6975" xlink:href="#m6523a0b571" y="301.587238"/>
     <use style="fill:#8a8a8a;stroke:#8a8a8a;stroke-linejoin:miter;" x="267.6975" xlink:href="#m6523a0b571" y="281.624984"/>
     <use style="fill:#8a8a8a;stroke:#8a8a8a;stroke-linejoin:miter;" x="267.6975" xlink:href="#m6523a0b571" y="281.198143"/>
     <use style="fill:#8a8a8a;stroke:#8a8a8a;stroke-linejoin:miter;" x="267.6975" xlink:href="#m6523a0b571" y="280.763016"/>
     <use style="fill:#8a8a8a;stroke:#8a8a8a;stroke-linejoin:miter;" x="267.6975" xlink:href="#m6523a0b571" y="279.044149"/>
     <use style="fill:#8a8a8a;stroke:#8a8a8a;stroke-linejoin:miter;" x="267.6975" xlink:href="#m6523a0b571" y="258.77844"/>
     <use style="fill:#8a8a8a;stroke:#8a8a8a;stroke-linejoin:miter;" x="267.6975" xlink:href="#m6523a0b571" y="252.036172"/>
    </g>
   </g>
   <g id="line2d_25">
    <path clip-path="url(#p7c017367f0)" d="M 379.2975 416.081906 
L 379.2975 428.670712 
" style="fill:none;stroke:#8a8a8a;stroke-linecap:square;stroke-width:1.5;"/>
   </g>
   <g id="line2d_26">
    <path clip-path="url(#p7c017367f0)" d="M 379.2975 405.627408 
L 379.2975 391.252932 
" style="fill:none;stroke:#8a8a8a;stroke-linecap:square;stroke-width:1.5;"/>
   </g>
   <g id="line2d_27">
    <path clip-path="url(#p7c017367f0)" d="M 356.9775 428.670712 
L 401.6175 428.670712 
" style="fill:none;stroke:#8a8a8a;stroke-linecap:square;stroke-width:1.5;"/>
   </g>
   <g id="line2d_28">
    <path clip-path="url(#p7c017367f0)" d="M 356.9775 391.252932 
L 401.6175 391.252932 
" style="fill:none;stroke:#8a8a8a;stroke-linecap:square;stroke-width:1.5;"/>
   </g>
   <g id="line2d_29">
    <g clip-path="url(#p7c017367f0)">
     <use style="fill:#8a8a8a;stroke:#8a8a8a;stroke-linejoin:miter;" x="379.2975" xlink:href="#m6523a0b571" y="389.012621"/>
     <use style="fill:#8a8a8a;stroke:#8a8a8a;stroke-linejoin:miter;" x="379.2975" xlink:href="#m6523a0b571" y="388.400024"/>
     <use style="fill:#8a8a8a;stroke:#8a8a8a;stroke-linejoin:miter;" x="379.2975" xlink:href="#m6523a0b571" y="388.351246"/>
     <use style="fill:#8a8a8a;stroke:#8a8a8a;stroke-linejoin:miter;" x="379.2975" xlink:href="#m6523a0b571" y="387.674176"/>
     <use style="fill:#8a8a8a;stroke:#8a8a8a;stroke-linejoin:miter;" x="379.2975" xlink:href="#m6523a0b571" y="379.530497"/>
     <use style="fill:#8a8a8a;stroke:#8a8a8a;stroke-linejoin:miter;" x="379.2975" xlink:href="#m6523a0b571" y="375.306789"/>
     <use style="fill:#8a8a8a;stroke:#8a8a8a;stroke-linejoin:miter;" x="379.2975" xlink:href="#m6523a0b571" y="367.267669"/>
     <use style="fill:#8a8a8a;stroke:#8a8a8a;stroke-linejoin:miter;" x="379.2975" xlink:href="#m6523a0b571" y="367.070499"/>
     <use style="fill:#8a8a8a;stroke:#8a8a8a;stroke-linejoin:miter;" x="379.2975" xlink:href="#m6523a0b571" y="362.886429"/>
     <use style="fill:#8a8a8a;stroke:#8a8a8a;stroke-linejoin:miter;" x="379.2975" xlink:href="#m6523a0b571" y="312.680415"/>
     <use style="fill:#8a8a8a;stroke:#8a8a8a;stroke-linejoin:miter;" x="379.2975" xlink:href="#m6523a0b571" y="312.584232"/>
     <use style="fill:#8a8a8a;stroke:#8a8a8a;stroke-linejoin:miter;" x="379.2975" xlink:href="#m6523a0b571" y="312.06358"/>
     <use style="fill:#8a8a8a;stroke:#8a8a8a;stroke-linejoin:miter;" x="379.2975" xlink:href="#m6523a0b571" y="312.062992"/>
     <use style="fill:#8a8a8a;stroke:#8a8a8a;stroke-linejoin:miter;" x="379.2975" xlink:href="#m6523a0b571" y="311.815432"/>
     <use style="fill:#8a8a8a;stroke:#8a8a8a;stroke-linejoin:miter;" x="379.2975" xlink:href="#m6523a0b571" y="311.610995"/>
     <use style="fill:#8a8a8a;stroke:#8a8a8a;stroke-linejoin:miter;" x="379.2975" xlink:href="#m6523a0b571" y="311.575938"/>
     <use style="fill:#8a8a8a;stroke:#8a8a8a;stroke-linejoin:miter;" x="379.2975" xlink:href="#m6523a0b571" y="311.523197"/>
     <use style="fill:#8a8a8a;stroke:#8a8a8a;stroke-linejoin:miter;" x="379.2975" xlink:href="#m6523a0b571" y="311.515889"/>
    </g>
   </g>
   <g id="line2d_30">
    <path clip-path="url(#p7c017367f0)" d="M 490.8975 420.386166 
L 490.8975 426.841197 
" style="fill:none;stroke:#8a8a8a;stroke-linecap:square;stroke-width:1.5;"/>
   </g>
   <g id="line2d_31">
    <path clip-path="url(#p7c017367f0)" d="M 490.8975 414.771873 
L 490.8975 406.492769 
" style="fill:none;stroke:#8a8a8a;stroke-linecap:square;stroke-width:1.5;"/>
   </g>
   <g id="line2d_32">
    <path clip-path="url(#p7c017367f0)" d="M 468.5775 426.841197 
L 513.2175 426.841197 
" style="fill:none;stroke:#8a8a8a;stroke-linecap:square;stroke-width:1.5;"/>
   </g>
   <g id="line2d_33">
    <path clip-path="url(#p7c017367f0)" d="M 468.5775 406.492769 
L 513.2175 406.492769 
" style="fill:none;stroke:#8a8a8a;stroke-linecap:square;stroke-width:1.5;"/>
   </g>
   <g id="line2d_34">
    <g clip-path="url(#p7c017367f0)">
     <use style="fill:#8a8a8a;stroke:#8a8a8a;stroke-linejoin:miter;" x="490.8975" xlink:href="#m6523a0b571" y="429.188826"/>
     <use style="fill:#8a8a8a;stroke:#8a8a8a;stroke-linejoin:miter;" x="490.8975" xlink:href="#m6523a0b571" y="429.115986"/>
     <use style="fill:#8a8a8a;stroke:#8a8a8a;stroke-linejoin:miter;" x="490.8975" xlink:href="#m6523a0b571" y="429.032146"/>
     <use style="fill:#8a8a8a;stroke:#8a8a8a;stroke-linejoin:miter;" x="490.8975" xlink:href="#m6523a0b571" y="429.029142"/>
     <use style="fill:#8a8a8a;stroke:#8a8a8a;stroke-linejoin:miter;" x="490.8975" xlink:href="#m6523a0b571" y="429.024562"/>
     <use style="fill:#8a8a8a;stroke:#8a8a8a;stroke-linejoin:miter;" x="490.8975" xlink:href="#m6523a0b571" y="429.021696"/>
     <use style="fill:#8a8a8a;stroke:#8a8a8a;stroke-linejoin:miter;" x="490.8975" xlink:href="#m6523a0b571" y="429.021264"/>
     <use style="fill:#8a8a8a;stroke:#8a8a8a;stroke-linejoin:miter;" x="490.8975" xlink:href="#m6523a0b571" y="429.01826"/>
     <use style="fill:#8a8a8a;stroke:#8a8a8a;stroke-linejoin:miter;" x="490.8975" xlink:href="#m6523a0b571" y="429.01797"/>
     <use style="fill:#8a8a8a;stroke:#8a8a8a;stroke-linejoin:miter;" x="490.8975" xlink:href="#m6523a0b571" y="428.883886"/>
     <use style="fill:#8a8a8a;stroke:#8a8a8a;stroke-linejoin:miter;" x="490.8975" xlink:href="#m6523a0b571" y="406.17027"/>
     <use style="fill:#8a8a8a;stroke:#8a8a8a;stroke-linejoin:miter;" x="490.8975" xlink:href="#m6523a0b571" y="406.156952"/>
     <use style="fill:#8a8a8a;stroke:#8a8a8a;stroke-linejoin:miter;" x="490.8975" xlink:href="#m6523a0b571" y="406.130104"/>
     <use style="fill:#8a8a8a;stroke:#8a8a8a;stroke-linejoin:miter;" x="490.8975" xlink:href="#m6523a0b571" y="406.043467"/>
     <use style="fill:#8a8a8a;stroke:#8a8a8a;stroke-linejoin:miter;" x="490.8975" xlink:href="#m6523a0b571" y="406.178434"/>
     <use style="fill:#8a8a8a;stroke:#8a8a8a;stroke-linejoin:miter;" x="490.8975" xlink:href="#m6523a0b571" y="406.051028"/>
     <use style="fill:#8a8a8a;stroke:#8a8a8a;stroke-linejoin:miter;" x="490.8975" xlink:href="#m6523a0b571" y="403.512334"/>
     <use style="fill:#8a8a8a;stroke:#8a8a8a;stroke-linejoin:miter;" x="490.8975" xlink:href="#m6523a0b571" y="403.431348"/>
     <use style="fill:#8a8a8a;stroke:#8a8a8a;stroke-linejoin:miter;" x="490.8975" xlink:href="#m6523a0b571" y="403.423628"/>
     <use style="fill:#8a8a8a;stroke:#8a8a8a;stroke-linejoin:miter;" x="490.8975" xlink:href="#m6523a0b571" y="403.406384"/>
     <use style="fill:#8a8a8a;stroke:#8a8a8a;stroke-linejoin:miter;" x="490.8975" xlink:href="#m6523a0b571" y="403.396525"/>
     <use style="fill:#8a8a8a;stroke:#8a8a8a;stroke-linejoin:miter;" x="490.8975" xlink:href="#m6523a0b571" y="403.333822"/>
     <use style="fill:#8a8a8a;stroke:#8a8a8a;stroke-linejoin:miter;" x="490.8975" xlink:href="#m6523a0b571" y="403.280324"/>
     <use style="fill:#8a8a8a;stroke:#8a8a8a;stroke-linejoin:miter;" x="490.8975" xlink:href="#m6523a0b571" y="403.261989"/>
     <use style="fill:#8a8a8a;stroke:#8a8a8a;stroke-linejoin:miter;" x="490.8975" xlink:href="#m6523a0b571" y="403.161223"/>
     <use style="fill:#8a8a8a;stroke:#8a8a8a;stroke-linejoin:miter;" x="490.8975" xlink:href="#m6523a0b571" y="403.154783"/>
     <use style="fill:#8a8a8a;stroke:#8a8a8a;stroke-linejoin:miter;" x="490.8975" xlink:href="#m6523a0b571" y="403.090113"/>
     <use style="fill:#8a8a8a;stroke:#8a8a8a;stroke-linejoin:miter;" x="490.8975" xlink:href="#m6523a0b571" y="403.016093"/>
    </g>
   </g>
   <g id="line2d_35">
    <path clip-path="url(#p7c017367f0)" d="M 602.4975 425.140452 
L 602.4975 431.81327 
" style="fill:none;stroke:#8a8a8a;stroke-linecap:square;stroke-width:1.5;"/>
   </g>
   <g id="line2d_36">
    <path clip-path="url(#p7c017367f0)" d="M 602.4975 416.891834 
L 602.4975 412.132685 
" style="fill:none;stroke:#8a8a8a;stroke-linecap:square;stroke-width:1.5;"/>
   </g>
   <g id="line2d_37">
    <path clip-path="url(#p7c017367f0)" d="M 580.1775 431.81327 
L 624.8175 431.81327 
" style="fill:none;stroke:#8a8a8a;stroke-linecap:square;stroke-width:1.5;"/>
   </g>
   <g id="line2d_38">
    <path clip-path="url(#p7c017367f0)" d="M 580.1775 412.132685 
L 624.8175 412.132685 
" style="fill:none;stroke:#8a8a8a;stroke-linecap:square;stroke-width:1.5;"/>
   </g>
   <g id="line2d_39"/>
   <g id="line2d_40">
    <path clip-path="url(#p7c017367f0)" d="M 714.0975 430.246645 
L 714.0975 432.206667 
" style="fill:none;stroke:#8a8a8a;stroke-linecap:square;stroke-width:1.5;"/>
   </g>
   <g id="line2d_41">
    <path clip-path="url(#p7c017367f0)" d="M 714.0975 422.075476 
L 714.0975 415.06127 
" style="fill:none;stroke:#8a8a8a;stroke-linecap:square;stroke-width:1.5;"/>
   </g>
   <g id="line2d_42">
    <path clip-path="url(#p7c017367f0)" d="M 691.7775 432.206667 
L 736.4175 432.206667 
" style="fill:none;stroke:#8a8a8a;stroke-linecap:square;stroke-width:1.5;"/>
   </g>
   <g id="line2d_43">
    <path clip-path="url(#p7c017367f0)" d="M 691.7775 415.06127 
L 736.4175 415.06127 
" style="fill:none;stroke:#8a8a8a;stroke-linecap:square;stroke-width:1.5;"/>
   </g>
   <g id="line2d_44"/>
   <g id="line2d_45">
    <path clip-path="url(#p7c017367f0)" d="M 825.6975 431.223149 
L 825.6975 432.928571 
" style="fill:none;stroke:#8a8a8a;stroke-linecap:square;stroke-width:1.5;"/>
   </g>
   <g id="line2d_46">
    <path clip-path="url(#p7c017367f0)" d="M 825.6975 425.284524 
L 825.6975 420.133479 
" style="fill:none;stroke:#8a8a8a;stroke-linecap:square;stroke-width:1.5;"/>
   </g>
   <g id="line2d_47">
    <path clip-path="url(#p7c017367f0)" d="M 803.3775 432.928571 
L 848.0175 432.928571 
" style="fill:none;stroke:#8a8a8a;stroke-linecap:square;stroke-width:1.5;"/>
   </g>
   <g id="line2d_48">
    <path clip-path="url(#p7c017367f0)" d="M 803.3775 420.133479 
L 848.0175 420.133479 
" style="fill:none;stroke:#8a8a8a;stroke-linecap:square;stroke-width:1.5;"/>
   </g>
   <g id="line2d_49"/>
   <g id="line2d_50">
    <path clip-path="url(#p7c017367f0)" d="M 937.2975 432.861737 
L 937.2975 435.56 
" style="fill:none;stroke:#8a8a8a;stroke-linecap:square;stroke-width:1.5;"/>
   </g>
   <g id="line2d_51">
    <path clip-path="url(#p7c017367f0)" d="M 937.2975 429.758479 
L 937.2975 426.235313 
" style="fill:none;stroke:#8a8a8a;stroke-linecap:square;stroke-width:1.5;"/>
   </g>
   <g id="line2d_52">
    <path clip-path="url(#p7c017367f0)" d="M 914.9775 435.56 
L 959.6175 435.56 
" style="fill:none;stroke:#8a8a8a;stroke-linecap:square;stroke-width:1.5;"/>
   </g>
   <g id="line2d_53">
    <path clip-path="url(#p7c017367f0)" d="M 914.9775 426.235313 
L 959.6175 426.235313 
" style="fill:none;stroke:#8a8a8a;stroke-linecap:square;stroke-width:1.5;"/>
   </g>
   <g id="line2d_54">
    <g clip-path="url(#p7c017367f0)">
     <use style="fill:#8a8a8a;stroke:#8a8a8a;stroke-linejoin:miter;" x="937.2975" xlink:href="#m6523a0b571" y="424.738261"/>
     <use style="fill:#8a8a8a;stroke:#8a8a8a;stroke-linejoin:miter;" x="937.2975" xlink:href="#m6523a0b571" y="420.620362"/>
     <use style="fill:#8a8a8a;stroke:#8a8a8a;stroke-linejoin:miter;" x="937.2975" xlink:href="#m6523a0b571" y="420.614954"/>
     <use style="fill:#8a8a8a;stroke:#8a8a8a;stroke-linejoin:miter;" x="937.2975" xlink:href="#m6523a0b571" y="420.605129"/>
     <use style="fill:#8a8a8a;stroke:#8a8a8a;stroke-linejoin:miter;" x="937.2975" xlink:href="#m6523a0b571" y="420.388598"/>
     <use style="fill:#8a8a8a;stroke:#8a8a8a;stroke-linejoin:miter;" x="937.2975" xlink:href="#m6523a0b571" y="420.387579"/>
    </g>
   </g>
   <g id="line2d_55">
    <path clip-path="url(#p7c017367f0)" d="M 111.4575 283.343525 
L 200.7375 283.343525 
" style="fill:none;stroke:#8a8a8a;stroke-linecap:square;stroke-width:1.5;"/>
   </g>
   <g id="line2d_56">
    <path clip-path="url(#p7c017367f0)" d="M 223.0575 399.90895 
L 312.3375 399.90895 
" style="fill:none;stroke:#8a8a8a;stroke-linecap:square;stroke-width:1.5;"/>
   </g>
   <g id="line2d_57">
    <path clip-path="url(#p7c017367f0)" d="M 334.6575 410.741859 
L 423.9375 410.741859 
" style="fill:none;stroke:#8a8a8a;stroke-linecap:square;stroke-width:1.5;"/>
   </g>
   <g id="line2d_58">
    <path clip-path="url(#p7c017367f0)" d="M 446.2575 416.809386 
L 535.5375 416.809386 
" style="fill:none;stroke:#8a8a8a;stroke-linecap:square;stroke-width:1.5;"/>
   </g>
   <g id="line2d_59">
    <path clip-path="url(#p7c017367f0)" d="M 557.8575 421.500445 
L 647.1375 421.500445 
" style="fill:none;stroke:#8a8a8a;stroke-linecap:square;stroke-width:1.5;"/>
   </g>
   <g id="line2d_60">
    <path clip-path="url(#p7c017367f0)" d="M 669.4575 425.880333 
L 758.7375 425.880333 
" style="fill:none;stroke:#8a8a8a;stroke-linecap:square;stroke-width:1.5;"/>
   </g>
   <g id="line2d_61">
    <path clip-path="url(#p7c017367f0)" d="M 781.0575 429.303897 
L 870.3375 429.303897 
" style="fill:none;stroke:#8a8a8a;stroke-linecap:square;stroke-width:1.5;"/>
   </g>
   <g id="line2d_62">
    <path clip-path="url(#p7c017367f0)" d="M 892.6575 432.191423 
L 981.9375 432.191423 
" style="fill:none;stroke:#8a8a8a;stroke-linecap:square;stroke-width:1.5;"/>
   </g>
   <g id="text_17">
    <!-- 249 -->
    <g transform="translate(133.7775 283.343525)scale(0.24 -0.24)">
     <use xlink:href="#DejaVuSans-50"/>
     <use x="63.623047" xlink:href="#DejaVuSans-52"/>
     <use x="127.246094" xlink:href="#DejaVuSans-57"/>
    </g>
   </g>
   <g id="text_18">
    <!-- 87 -->
    <defs>
     <path d="M 31.78125 34.625 
Q 24.75 34.625 20.71875 30.859375 
Q 16.703125 27.09375 16.703125 20.515625 
Q 16.703125 13.921875 20.71875 10.15625 
Q 24.75 6.390625 31.78125 6.390625 
Q 38.8125 6.390625 42.859375 10.171875 
Q 46.921875 13.96875 46.921875 20.515625 
Q 46.921875 27.09375 42.890625 30.859375 
Q 38.875 34.625 31.78125 34.625 
z
M 21.921875 38.8125 
Q 15.578125 40.375 12.03125 44.71875 
Q 8.5 49.078125 8.5 55.328125 
Q 8.5 64.0625 14.71875 69.140625 
Q 20.953125 74.21875 31.78125 74.21875 
Q 42.671875 74.21875 48.875 69.140625 
Q 55.078125 64.0625 55.078125 55.328125 
Q 55.078125 49.078125 51.53125 44.71875 
Q 48 40.375 41.703125 38.8125 
Q 48.828125 37.15625 52.796875 32.3125 
Q 56.78125 27.484375 56.78125 20.515625 
Q 56.78125 9.90625 50.3125 4.234375 
Q 43.84375 -1.421875 31.78125 -1.421875 
Q 19.734375 -1.421875 13.25 4.234375 
Q 6.78125 9.90625 6.78125 20.515625 
Q 6.78125 27.484375 10.78125 32.3125 
Q 14.796875 37.15625 21.921875 38.8125 
z
M 18.3125 54.390625 
Q 18.3125 48.734375 21.84375 45.5625 
Q 25.390625 42.390625 31.78125 42.390625 
Q 38.140625 42.390625 41.71875 45.5625 
Q 45.3125 48.734375 45.3125 54.390625 
Q 45.3125 60.0625 41.71875 63.234375 
Q 38.140625 66.40625 31.78125 66.40625 
Q 25.390625 66.40625 21.84375 63.234375 
Q 18.3125 60.0625 18.3125 54.390625 
z
" id="DejaVuSans-56"/>
    </defs>
    <g transform="translate(245.3775 399.90895)scale(0.24 -0.24)">
     <use xlink:href="#DejaVuSans-56"/>
     <use x="63.623047" xlink:href="#DejaVuSans-55"/>
    </g>
   </g>
   <g id="text_19">
    <!-- 72 -->
    <g transform="translate(356.9775 410.741859)scale(0.24 -0.24)">
     <use xlink:href="#DejaVuSans-55"/>
     <use x="63.623047" xlink:href="#DejaVuSans-50"/>
    </g>
   </g>
   <g id="text_20">
    <!-- 63 -->
    <g transform="translate(468.5775 416.809386)scale(0.24 -0.24)">
     <use xlink:href="#DejaVuSans-54"/>
     <use x="63.623047" xlink:href="#DejaVuSans-51"/>
    </g>
   </g>
   <g id="text_21">
    <!-- 57 -->
    <g transform="translate(580.1775 421.500445)scale(0.24 -0.24)">
     <use xlink:href="#DejaVuSans-53"/>
     <use x="63.623047" xlink:href="#DejaVuSans-55"/>
    </g>
   </g>
   <g id="text_22">
    <!-- 50 -->
    <g transform="translate(691.7775 425.880333)scale(0.24 -0.24)">
     <use xlink:href="#DejaVuSans-53"/>
     <use x="63.623047" xlink:href="#DejaVuSans-48"/>
    </g>
   </g>
   <g id="text_23">
    <!-- 46 -->
    <g transform="translate(803.3775 429.303897)scale(0.24 -0.24)">
     <use xlink:href="#DejaVuSans-52"/>
     <use x="63.623047" xlink:href="#DejaVuSans-54"/>
    </g>
   </g>
   <g id="text_24">
    <!-- 42 -->
    <g transform="translate(914.9775 432.191423)scale(0.24 -0.24)">
     <use xlink:href="#DejaVuSans-52"/>
     <use x="63.623047" xlink:href="#DejaVuSans-50"/>
    </g>
   </g>
  </g>
 </g>
 <defs>
  <clipPath id="p7c017367f0">
   <rect height="443.52" width="892.8" x="100.2975" y="12.2"/>
  </clipPath>
 </defs>
</svg>
