<?xml version="1.0" encoding="utf-8" standalone="no"?>
<!DOCTYPE svg PUBLIC "-//W3C//DTD SVG 1.1//EN"
  "http://www.w3.org/Graphics/SVG/1.1/DTD/svg11.dtd">
<!-- Created with matplotlib (https://matplotlib.org/) -->
<svg height="531.785pt" version="1.1" viewBox="0 0 1021.84 531.785" width="1021.84pt" xmlns="http://www.w3.org/2000/svg" xmlns:xlink="http://www.w3.org/1999/xlink">
 <defs>
  <style type="text/css">
*{stroke-linecap:butt;stroke-linejoin:round;}
  </style>
 </defs>
 <g id="figure_1">
  <g id="patch_1">
   <path d="M 0 531.785 
L 1021.84 531.785 
L 1021.84 0 
L 0 0 
z
" style="fill:#ffffff;"/>
  </g>
  <g id="axes_1">
   <g id="patch_2">
    <path d="M 116.84 455.72 
L 1009.64 455.72 
L 1009.64 12.2 
L 116.84 12.2 
z
" style="fill:#ffffff;"/>
   </g>
   <g id="matplotlib.axis_1">
    <g id="xtick_1">
     <g id="line2d_1">
      <defs>
       <path d="M 0 5 
L 0 -5 
" id="m53ef17c183" style="stroke:#525252;stroke-width:4;"/>
      </defs>
      <g>
       <use style="fill:#525252;stroke:#525252;stroke-width:4;" x="116.84" xlink:href="#m53ef17c183" y="455.72"/>
      </g>
     </g>
     <g id="text_1">
      <!-- $\mathdefault{10^{1}}$ -->
      <defs>
       <path d="M 12.40625 8.296875 
L 28.515625 8.296875 
L 28.515625 63.921875 
L 10.984375 60.40625 
L 10.984375 69.390625 
L 28.421875 72.90625 
L 38.28125 72.90625 
L 38.28125 8.296875 
L 54.390625 8.296875 
L 54.390625 0 
L 12.40625 0 
z
" id="DejaVuSans-49"/>
       <path d="M 31.78125 66.40625 
Q 24.171875 66.40625 20.328125 58.90625 
Q 16.5 51.421875 16.5 36.375 
Q 16.5 21.390625 20.328125 13.890625 
Q 24.171875 6.390625 31.78125 6.390625 
Q 39.453125 6.390625 43.28125 13.890625 
Q 47.125 21.390625 47.125 36.375 
Q 47.125 51.421875 43.28125 58.90625 
Q 39.453125 66.40625 31.78125 66.40625 
z
M 31.78125 74.21875 
Q 44.046875 74.21875 50.515625 64.515625 
Q 56.984375 54.828125 56.984375 36.375 
Q 56.984375 17.96875 50.515625 8.265625 
Q 44.046875 -1.421875 31.78125 -1.421875 
Q 19.53125 -1.421875 13.0625 8.265625 
Q 6.59375 17.96875 6.59375 36.375 
Q 6.59375 54.828125 13.0625 64.515625 
Q 19.53125 74.21875 31.78125 74.21875 
z
" id="DejaVuSans-48"/>
      </defs>
      <g transform="translate(95.72 482.45625)scale(0.24 -0.24)">
       <use transform="translate(0 0.684375)" xlink:href="#DejaVuSans-49"/>
       <use transform="translate(63.623047 0.684375)" xlink:href="#DejaVuSans-48"/>
       <use transform="translate(128.203125 38.965625)scale(0.7)" xlink:href="#DejaVuSans-49"/>
      </g>
     </g>
    </g>
    <g id="xtick_2">
     <g id="line2d_2">
      <g>
       <use style="fill:#525252;stroke:#525252;stroke-width:4;" x="315.24" xlink:href="#m53ef17c183" y="455.72"/>
      </g>
     </g>
     <g id="text_2">
      <!-- $\mathdefault{10^{3}}$ -->
      <defs>
       <path d="M 40.578125 39.3125 
Q 47.65625 37.796875 51.625 33 
Q 55.609375 28.21875 55.609375 21.1875 
Q 55.609375 10.40625 48.1875 4.484375 
Q 40.765625 -1.421875 27.09375 -1.421875 
Q 22.515625 -1.421875 17.65625 -0.515625 
Q 12.796875 0.390625 7.625 2.203125 
L 7.625 11.71875 
Q 11.71875 9.328125 16.59375 8.109375 
Q 21.484375 6.890625 26.8125 6.890625 
Q 36.078125 6.890625 40.9375 10.546875 
Q 45.796875 14.203125 45.796875 21.1875 
Q 45.796875 27.640625 41.28125 31.265625 
Q 36.765625 34.90625 28.71875 34.90625 
L 20.21875 34.90625 
L 20.21875 43.015625 
L 29.109375 43.015625 
Q 36.375 43.015625 40.234375 45.921875 
Q 44.09375 48.828125 44.09375 54.296875 
Q 44.09375 59.90625 40.109375 62.90625 
Q 36.140625 65.921875 28.71875 65.921875 
Q 24.65625 65.921875 20.015625 65.03125 
Q 15.375 64.15625 9.8125 62.3125 
L 9.8125 71.09375 
Q 15.4375 72.65625 20.34375 73.4375 
Q 25.25 74.21875 29.59375 74.21875 
Q 40.828125 74.21875 47.359375 69.109375 
Q 53.90625 64.015625 53.90625 55.328125 
Q 53.90625 49.265625 50.4375 45.09375 
Q 46.96875 40.921875 40.578125 39.3125 
z
" id="DejaVuSans-51"/>
      </defs>
      <g transform="translate(294.12 482.45625)scale(0.24 -0.24)">
       <use transform="translate(0 0.765625)" xlink:href="#DejaVuSans-49"/>
       <use transform="translate(63.623047 0.765625)" xlink:href="#DejaVuSans-48"/>
       <use transform="translate(128.203125 39.046875)scale(0.7)" xlink:href="#DejaVuSans-51"/>
      </g>
     </g>
    </g>
    <g id="xtick_3">
     <g id="line2d_3">
      <g>
       <use style="fill:#525252;stroke:#525252;stroke-width:4;" x="513.64" xlink:href="#m53ef17c183" y="455.72"/>
      </g>
     </g>
     <g id="text_3">
      <!-- $\mathdefault{10^{5}}$ -->
      <defs>
       <path d="M 10.796875 72.90625 
L 49.515625 72.90625 
L 49.515625 64.59375 
L 19.828125 64.59375 
L 19.828125 46.734375 
Q 21.96875 47.46875 24.109375 47.828125 
Q 26.265625 48.1875 28.421875 48.1875 
Q 40.625 48.1875 47.75 41.5 
Q 54.890625 34.8125 54.890625 23.390625 
Q 54.890625 11.625 47.5625 5.09375 
Q 40.234375 -1.421875 26.90625 -1.421875 
Q 22.3125 -1.421875 17.546875 -0.640625 
Q 12.796875 0.140625 7.71875 1.703125 
L 7.71875 11.625 
Q 12.109375 9.234375 16.796875 8.0625 
Q 21.484375 6.890625 26.703125 6.890625 
Q 35.15625 6.890625 40.078125 11.328125 
Q 45.015625 15.765625 45.015625 23.390625 
Q 45.015625 31 40.078125 35.4375 
Q 35.15625 39.890625 26.703125 39.890625 
Q 22.75 39.890625 18.8125 39.015625 
Q 14.890625 38.140625 10.796875 36.28125 
z
" id="DejaVuSans-53"/>
      </defs>
      <g transform="translate(492.52 482.45625)scale(0.24 -0.24)">
       <use transform="translate(0 0.684375)" xlink:href="#DejaVuSans-49"/>
       <use transform="translate(63.623047 0.684375)" xlink:href="#DejaVuSans-48"/>
       <use transform="translate(128.203125 38.965625)scale(0.7)" xlink:href="#DejaVuSans-53"/>
      </g>
     </g>
    </g>
    <g id="xtick_4">
     <g id="line2d_4">
      <g>
       <use style="fill:#525252;stroke:#525252;stroke-width:4;" x="712.04" xlink:href="#m53ef17c183" y="455.72"/>
      </g>
     </g>
     <g id="text_4">
      <!-- $\mathdefault{10^{7}}$ -->
      <defs>
       <path d="M 8.203125 72.90625 
L 55.078125 72.90625 
L 55.078125 68.703125 
L 28.609375 0 
L 18.3125 0 
L 43.21875 64.59375 
L 8.203125 64.59375 
z
" id="DejaVuSans-55"/>
      </defs>
      <g transform="translate(690.92 482.45625)scale(0.24 -0.24)">
       <use transform="translate(0 0.684375)" xlink:href="#DejaVuSans-49"/>
       <use transform="translate(63.623047 0.684375)" xlink:href="#DejaVuSans-48"/>
       <use transform="translate(128.203125 38.965625)scale(0.7)" xlink:href="#DejaVuSans-55"/>
      </g>
     </g>
    </g>
    <g id="xtick_5">
     <g id="line2d_5">
      <g>
       <use style="fill:#525252;stroke:#525252;stroke-width:4;" x="910.44" xlink:href="#m53ef17c183" y="455.72"/>
      </g>
     </g>
     <g id="text_5">
      <!-- $\mathdefault{10^{9}}$ -->
      <defs>
       <path d="M 10.984375 1.515625 
L 10.984375 10.5 
Q 14.703125 8.734375 18.5 7.8125 
Q 22.3125 6.890625 25.984375 6.890625 
Q 35.75 6.890625 40.890625 13.453125 
Q 46.046875 20.015625 46.78125 33.40625 
Q 43.953125 29.203125 39.59375 26.953125 
Q 35.25 24.703125 29.984375 24.703125 
Q 19.046875 24.703125 12.671875 31.3125 
Q 6.296875 37.9375 6.296875 49.421875 
Q 6.296875 60.640625 12.9375 67.421875 
Q 19.578125 74.21875 30.609375 74.21875 
Q 43.265625 74.21875 49.921875 64.515625 
Q 56.59375 54.828125 56.59375 36.375 
Q 56.59375 19.140625 48.40625 8.859375 
Q 40.234375 -1.421875 26.421875 -1.421875 
Q 22.703125 -1.421875 18.890625 -0.6875 
Q 15.09375 0.046875 10.984375 1.515625 
z
M 30.609375 32.421875 
Q 37.25 32.421875 41.125 36.953125 
Q 45.015625 41.5 45.015625 49.421875 
Q 45.015625 57.28125 41.125 61.84375 
Q 37.25 66.40625 30.609375 66.40625 
Q 23.96875 66.40625 20.09375 61.84375 
Q 16.21875 57.28125 16.21875 49.421875 
Q 16.21875 41.5 20.09375 36.953125 
Q 23.96875 32.421875 30.609375 32.421875 
z
" id="DejaVuSans-57"/>
      </defs>
      <g transform="translate(889.32 482.45625)scale(0.24 -0.24)">
       <use transform="translate(0 0.765625)" xlink:href="#DejaVuSans-49"/>
       <use transform="translate(63.623047 0.765625)" xlink:href="#DejaVuSans-48"/>
       <use transform="translate(128.203125 39.046875)scale(0.7)" xlink:href="#DejaVuSans-57"/>
      </g>
     </g>
    </g>
    <g id="text_6">
     <!-- Time (ms) -->
     <defs>
      <path d="M -0.296875 72.90625 
L 61.375 72.90625 
L 61.375 64.59375 
L 35.5 64.59375 
L 35.5 0 
L 25.59375 0 
L 25.59375 64.59375 
L -0.296875 64.59375 
z
" id="DejaVuSans-84"/>
      <path d="M 9.421875 54.6875 
L 18.40625 54.6875 
L 18.40625 0 
L 9.421875 0 
z
M 9.421875 75.984375 
L 18.40625 75.984375 
L 18.40625 64.59375 
L 9.421875 64.59375 
z
" id="DejaVuSans-105"/>
      <path d="M 52 44.1875 
Q 55.375 50.25 60.0625 53.125 
Q 64.75 56 71.09375 56 
Q 79.640625 56 84.28125 50.015625 
Q 88.921875 44.046875 88.921875 33.015625 
L 88.921875 0 
L 79.890625 0 
L 79.890625 32.71875 
Q 79.890625 40.578125 77.09375 44.375 
Q 74.3125 48.1875 68.609375 48.1875 
Q 61.625 48.1875 57.5625 43.546875 
Q 53.515625 38.921875 53.515625 30.90625 
L 53.515625 0 
L 44.484375 0 
L 44.484375 32.71875 
Q 44.484375 40.625 41.703125 44.40625 
Q 38.921875 48.1875 33.109375 48.1875 
Q 26.21875 48.1875 22.15625 43.53125 
Q 18.109375 38.875 18.109375 30.90625 
L 18.109375 0 
L 9.078125 0 
L 9.078125 54.6875 
L 18.109375 54.6875 
L 18.109375 46.1875 
Q 21.1875 51.21875 25.484375 53.609375 
Q 29.78125 56 35.6875 56 
Q 41.65625 56 45.828125 52.96875 
Q 50 49.953125 52 44.1875 
z
" id="DejaVuSans-109"/>
      <path d="M 56.203125 29.59375 
L 56.203125 25.203125 
L 14.890625 25.203125 
Q 15.484375 15.921875 20.484375 11.0625 
Q 25.484375 6.203125 34.421875 6.203125 
Q 39.59375 6.203125 44.453125 7.46875 
Q 49.3125 8.734375 54.109375 11.28125 
L 54.109375 2.78125 
Q 49.265625 0.734375 44.1875 -0.34375 
Q 39.109375 -1.421875 33.890625 -1.421875 
Q 20.796875 -1.421875 13.15625 6.1875 
Q 5.515625 13.8125 5.515625 26.8125 
Q 5.515625 40.234375 12.765625 48.109375 
Q 20.015625 56 32.328125 56 
Q 43.359375 56 49.78125 48.890625 
Q 56.203125 41.796875 56.203125 29.59375 
z
M 47.21875 32.234375 
Q 47.125 39.59375 43.09375 43.984375 
Q 39.0625 48.390625 32.421875 48.390625 
Q 24.90625 48.390625 20.390625 44.140625 
Q 15.875 39.890625 15.1875 32.171875 
z
" id="DejaVuSans-101"/>
      <path id="DejaVuSans-32"/>
      <path d="M 31 75.875 
Q 24.46875 64.65625 21.28125 53.65625 
Q 18.109375 42.671875 18.109375 31.390625 
Q 18.109375 20.125 21.3125 9.0625 
Q 24.515625 -2 31 -13.1875 
L 23.1875 -13.1875 
Q 15.875 -1.703125 12.234375 9.375 
Q 8.59375 20.453125 8.59375 31.390625 
Q 8.59375 42.28125 12.203125 53.3125 
Q 15.828125 64.359375 23.1875 75.875 
z
" id="DejaVuSans-40"/>
      <path d="M 44.28125 53.078125 
L 44.28125 44.578125 
Q 40.484375 46.53125 36.375 47.5 
Q 32.28125 48.484375 27.875 48.484375 
Q 21.1875 48.484375 17.84375 46.4375 
Q 14.5 44.390625 14.5 40.28125 
Q 14.5 37.15625 16.890625 35.375 
Q 19.28125 33.59375 26.515625 31.984375 
L 29.59375 31.296875 
Q 39.15625 29.25 43.1875 25.515625 
Q 47.21875 21.78125 47.21875 15.09375 
Q 47.21875 7.46875 41.1875 3.015625 
Q 35.15625 -1.421875 24.609375 -1.421875 
Q 20.21875 -1.421875 15.453125 -0.5625 
Q 10.6875 0.296875 5.421875 2 
L 5.421875 11.28125 
Q 10.40625 8.6875 15.234375 7.390625 
Q 20.0625 6.109375 24.8125 6.109375 
Q 31.15625 6.109375 34.5625 8.28125 
Q 37.984375 10.453125 37.984375 14.40625 
Q 37.984375 18.0625 35.515625 20.015625 
Q 33.0625 21.96875 24.703125 23.78125 
L 21.578125 24.515625 
Q 13.234375 26.265625 9.515625 29.90625 
Q 5.8125 33.546875 5.8125 39.890625 
Q 5.8125 47.609375 11.28125 51.796875 
Q 16.75 56 26.8125 56 
Q 31.78125 56 36.171875 55.265625 
Q 40.578125 54.546875 44.28125 53.078125 
z
" id="DejaVuSans-115"/>
      <path d="M 8.015625 75.875 
L 15.828125 75.875 
Q 23.140625 64.359375 26.78125 53.3125 
Q 30.421875 42.28125 30.421875 31.390625 
Q 30.421875 20.453125 26.78125 9.375 
Q 23.140625 -1.703125 15.828125 -13.1875 
L 8.015625 -13.1875 
Q 14.5 -2 17.703125 9.0625 
Q 20.90625 20.125 20.90625 31.390625 
Q 20.90625 42.671875 17.703125 53.65625 
Q 14.5 64.65625 8.015625 75.875 
z
" id="DejaVuSans-41"/>
     </defs>
     <g transform="translate(482.11 515.7625)scale(0.32 -0.32)">
      <use xlink:href="#DejaVuSans-84"/>
      <use x="61.037109" xlink:href="#DejaVuSans-105"/>
      <use x="88.820312" xlink:href="#DejaVuSans-109"/>
      <use x="186.232422" xlink:href="#DejaVuSans-101"/>
      <use x="247.755859" xlink:href="#DejaVuSans-32"/>
      <use x="279.542969" xlink:href="#DejaVuSans-40"/>
      <use x="318.556641" xlink:href="#DejaVuSans-109"/>
      <use x="415.96875" xlink:href="#DejaVuSans-115"/>
      <use x="468.068359" xlink:href="#DejaVuSans-41"/>
     </g>
    </g>
   </g>
   <g id="matplotlib.axis_2">
    <g id="ytick_1">
     <g id="line2d_6">
      <defs>
       <path d="M 5 0 
L -5 -0 
" id="m1e178fc6f2" style="stroke:#525252;stroke-width:4;"/>
      </defs>
      <g>
       <use style="fill:#525252;stroke:#525252;stroke-width:4;" x="116.84" xlink:href="#m1e178fc6f2" y="435.56"/>
      </g>
     </g>
     <g id="text_7">
      <!-- 0 -->
      <g transform="translate(91.7975 445.437969)scale(0.26 -0.26)">
       <use xlink:href="#DejaVuSans-48"/>
      </g>
     </g>
    </g>
    <g id="ytick_2">
     <g id="line2d_7">
      <g>
       <use style="fill:#525252;stroke:#525252;stroke-width:4;" x="116.84" xlink:href="#m1e178fc6f2" y="354.566781"/>
      </g>
     </g>
     <g id="text_8">
      <!-- 200 -->
      <defs>
       <path d="M 19.1875 8.296875 
L 53.609375 8.296875 
L 53.609375 0 
L 7.328125 0 
L 7.328125 8.296875 
Q 12.9375 14.109375 22.625 23.890625 
Q 32.328125 33.6875 34.8125 36.53125 
Q 39.546875 41.84375 41.421875 45.53125 
Q 43.3125 49.21875 43.3125 52.78125 
Q 43.3125 58.59375 39.234375 62.25 
Q 35.15625 65.921875 28.609375 65.921875 
Q 23.96875 65.921875 18.8125 64.3125 
Q 13.671875 62.703125 7.8125 59.421875 
L 7.8125 69.390625 
Q 13.765625 71.78125 18.9375 73 
Q 24.125 74.21875 28.421875 74.21875 
Q 39.75 74.21875 46.484375 68.546875 
Q 53.21875 62.890625 53.21875 53.421875 
Q 53.21875 48.921875 51.53125 44.890625 
Q 49.859375 40.875 45.40625 35.40625 
Q 44.1875 33.984375 37.640625 27.21875 
Q 31.109375 20.453125 19.1875 8.296875 
z
" id="DejaVuSans-50"/>
      </defs>
      <g transform="translate(58.7125 364.444749)scale(0.26 -0.26)">
       <use xlink:href="#DejaVuSans-50"/>
       <use x="63.623047" xlink:href="#DejaVuSans-48"/>
       <use x="127.246094" xlink:href="#DejaVuSans-48"/>
      </g>
     </g>
    </g>
    <g id="ytick_3">
     <g id="line2d_8">
      <g>
       <use style="fill:#525252;stroke:#525252;stroke-width:4;" x="116.84" xlink:href="#m1e178fc6f2" y="273.573561"/>
      </g>
     </g>
     <g id="text_9">
      <!-- 400 -->
      <defs>
       <path d="M 37.796875 64.3125 
L 12.890625 25.390625 
L 37.796875 25.390625 
z
M 35.203125 72.90625 
L 47.609375 72.90625 
L 47.609375 25.390625 
L 58.015625 25.390625 
L 58.015625 17.1875 
L 47.609375 17.1875 
L 47.609375 0 
L 37.796875 0 
L 37.796875 17.1875 
L 4.890625 17.1875 
L 4.890625 26.703125 
z
" id="DejaVuSans-52"/>
      </defs>
      <g transform="translate(58.7125 283.45153)scale(0.26 -0.26)">
       <use xlink:href="#DejaVuSans-52"/>
       <use x="63.623047" xlink:href="#DejaVuSans-48"/>
       <use x="127.246094" xlink:href="#DejaVuSans-48"/>
      </g>
     </g>
    </g>
    <g id="ytick_4">
     <g id="line2d_9">
      <g>
       <use style="fill:#525252;stroke:#525252;stroke-width:4;" x="116.84" xlink:href="#m1e178fc6f2" y="192.580342"/>
      </g>
     </g>
     <g id="text_10">
      <!-- 600 -->
      <defs>
       <path d="M 33.015625 40.375 
Q 26.375 40.375 22.484375 35.828125 
Q 18.609375 31.296875 18.609375 23.390625 
Q 18.609375 15.53125 22.484375 10.953125 
Q 26.375 6.390625 33.015625 6.390625 
Q 39.65625 6.390625 43.53125 10.953125 
Q 47.40625 15.53125 47.40625 23.390625 
Q 47.40625 31.296875 43.53125 35.828125 
Q 39.65625 40.375 33.015625 40.375 
z
M 52.59375 71.296875 
L 52.59375 62.3125 
Q 48.875 64.0625 45.09375 64.984375 
Q 41.3125 65.921875 37.59375 65.921875 
Q 27.828125 65.921875 22.671875 59.328125 
Q 17.53125 52.734375 16.796875 39.40625 
Q 19.671875 43.65625 24.015625 45.921875 
Q 28.375 48.1875 33.59375 48.1875 
Q 44.578125 48.1875 50.953125 41.515625 
Q 57.328125 34.859375 57.328125 23.390625 
Q 57.328125 12.15625 50.6875 5.359375 
Q 44.046875 -1.421875 33.015625 -1.421875 
Q 20.359375 -1.421875 13.671875 8.265625 
Q 6.984375 17.96875 6.984375 36.375 
Q 6.984375 53.65625 15.1875 63.9375 
Q 23.390625 74.21875 37.203125 74.21875 
Q 40.921875 74.21875 44.703125 73.484375 
Q 48.484375 72.75 52.59375 71.296875 
z
" id="DejaVuSans-54"/>
      </defs>
      <g transform="translate(58.7125 202.45831)scale(0.26 -0.26)">
       <use xlink:href="#DejaVuSans-54"/>
       <use x="63.623047" xlink:href="#DejaVuSans-48"/>
       <use x="127.246094" xlink:href="#DejaVuSans-48"/>
      </g>
     </g>
    </g>
    <g id="ytick_5">
     <g id="line2d_10">
      <g>
       <use style="fill:#525252;stroke:#525252;stroke-width:4;" x="116.84" xlink:href="#m1e178fc6f2" y="111.587122"/>
      </g>
     </g>
     <g id="text_11">
      <!-- 800 -->
      <defs>
       <path d="M 31.78125 34.625 
Q 24.75 34.625 20.71875 30.859375 
Q 16.703125 27.09375 16.703125 20.515625 
Q 16.703125 13.921875 20.71875 10.15625 
Q 24.75 6.390625 31.78125 6.390625 
Q 38.8125 6.390625 42.859375 10.171875 
Q 46.921875 13.96875 46.921875 20.515625 
Q 46.921875 27.09375 42.890625 30.859375 
Q 38.875 34.625 31.78125 34.625 
z
M 21.921875 38.8125 
Q 15.578125 40.375 12.03125 44.71875 
Q 8.5 49.078125 8.5 55.328125 
Q 8.5 64.0625 14.71875 69.140625 
Q 20.953125 74.21875 31.78125 74.21875 
Q 42.671875 74.21875 48.875 69.140625 
Q 55.078125 64.0625 55.078125 55.328125 
Q 55.078125 49.078125 51.53125 44.71875 
Q 48 40.375 41.703125 38.8125 
Q 48.828125 37.15625 52.796875 32.3125 
Q 56.78125 27.484375 56.78125 20.515625 
Q 56.78125 9.90625 50.3125 4.234375 
Q 43.84375 -1.421875 31.78125 -1.421875 
Q 19.734375 -1.421875 13.25 4.234375 
Q 6.78125 9.90625 6.78125 20.515625 
Q 6.78125 27.484375 10.78125 32.3125 
Q 14.796875 37.15625 21.921875 38.8125 
z
M 18.3125 54.390625 
Q 18.3125 48.734375 21.84375 45.5625 
Q 25.390625 42.390625 31.78125 42.390625 
Q 38.140625 42.390625 41.71875 45.5625 
Q 45.3125 48.734375 45.3125 54.390625 
Q 45.3125 60.0625 41.71875 63.234375 
Q 38.140625 66.40625 31.78125 66.40625 
Q 25.390625 66.40625 21.84375 63.234375 
Q 18.3125 60.0625 18.3125 54.390625 
z
" id="DejaVuSans-56"/>
      </defs>
      <g transform="translate(58.7125 121.465091)scale(0.26 -0.26)">
       <use xlink:href="#DejaVuSans-56"/>
       <use x="63.623047" xlink:href="#DejaVuSans-48"/>
       <use x="127.246094" xlink:href="#DejaVuSans-48"/>
      </g>
     </g>
    </g>
    <g id="ytick_6">
     <g id="line2d_11">
      <g>
       <use style="fill:#525252;stroke:#525252;stroke-width:4;" x="116.84" xlink:href="#m1e178fc6f2" y="30.593903"/>
      </g>
     </g>
     <g id="text_12">
      <!-- 1000 -->
      <g transform="translate(42.17 40.471871)scale(0.26 -0.26)">
       <use xlink:href="#DejaVuSans-49"/>
       <use x="63.623047" xlink:href="#DejaVuSans-48"/>
       <use x="127.246094" xlink:href="#DejaVuSans-48"/>
       <use x="190.869141" xlink:href="#DejaVuSans-48"/>
      </g>
     </g>
    </g>
    <g id="text_13">
     <!-- Error % -->
     <defs>
      <path d="M 9.8125 72.90625 
L 55.90625 72.90625 
L 55.90625 64.59375 
L 19.671875 64.59375 
L 19.671875 43.015625 
L 54.390625 43.015625 
L 54.390625 34.71875 
L 19.671875 34.71875 
L 19.671875 8.296875 
L 56.78125 8.296875 
L 56.78125 0 
L 9.8125 0 
z
" id="DejaVuSans-69"/>
      <path d="M 41.109375 46.296875 
Q 39.59375 47.171875 37.8125 47.578125 
Q 36.03125 48 33.890625 48 
Q 26.265625 48 22.1875 43.046875 
Q 18.109375 38.09375 18.109375 28.8125 
L 18.109375 0 
L 9.078125 0 
L 9.078125 54.6875 
L 18.109375 54.6875 
L 18.109375 46.1875 
Q 20.953125 51.171875 25.484375 53.578125 
Q 30.03125 56 36.53125 56 
Q 37.453125 56 38.578125 55.875 
Q 39.703125 55.765625 41.0625 55.515625 
z
" id="DejaVuSans-114"/>
      <path d="M 30.609375 48.390625 
Q 23.390625 48.390625 19.1875 42.75 
Q 14.984375 37.109375 14.984375 27.296875 
Q 14.984375 17.484375 19.15625 11.84375 
Q 23.34375 6.203125 30.609375 6.203125 
Q 37.796875 6.203125 41.984375 11.859375 
Q 46.1875 17.53125 46.1875 27.296875 
Q 46.1875 37.015625 41.984375 42.703125 
Q 37.796875 48.390625 30.609375 48.390625 
z
M 30.609375 56 
Q 42.328125 56 49.015625 48.375 
Q 55.71875 40.765625 55.71875 27.296875 
Q 55.71875 13.875 49.015625 6.21875 
Q 42.328125 -1.421875 30.609375 -1.421875 
Q 18.84375 -1.421875 12.171875 6.21875 
Q 5.515625 13.875 5.515625 27.296875 
Q 5.515625 40.765625 12.171875 48.375 
Q 18.84375 56 30.609375 56 
z
" id="DejaVuSans-111"/>
      <path d="M 72.703125 32.078125 
Q 68.453125 32.078125 66.03125 28.46875 
Q 63.625 24.859375 63.625 18.40625 
Q 63.625 12.0625 66.03125 8.421875 
Q 68.453125 4.78125 72.703125 4.78125 
Q 76.859375 4.78125 79.265625 8.421875 
Q 81.6875 12.0625 81.6875 18.40625 
Q 81.6875 24.8125 79.265625 28.4375 
Q 76.859375 32.078125 72.703125 32.078125 
z
M 72.703125 38.28125 
Q 80.421875 38.28125 84.953125 32.90625 
Q 89.5 27.546875 89.5 18.40625 
Q 89.5 9.28125 84.9375 3.921875 
Q 80.375 -1.421875 72.703125 -1.421875 
Q 64.890625 -1.421875 60.34375 3.921875 
Q 55.8125 9.28125 55.8125 18.40625 
Q 55.8125 27.59375 60.375 32.9375 
Q 64.9375 38.28125 72.703125 38.28125 
z
M 22.3125 68.015625 
Q 18.109375 68.015625 15.6875 64.375 
Q 13.28125 60.75 13.28125 54.390625 
Q 13.28125 47.953125 15.671875 44.328125 
Q 18.0625 40.71875 22.3125 40.71875 
Q 26.5625 40.71875 28.96875 44.328125 
Q 31.390625 47.953125 31.390625 54.390625 
Q 31.390625 60.6875 28.953125 64.34375 
Q 26.515625 68.015625 22.3125 68.015625 
z
M 66.40625 74.21875 
L 74.21875 74.21875 
L 28.609375 -1.421875 
L 20.796875 -1.421875 
z
M 22.3125 74.21875 
Q 30.03125 74.21875 34.609375 68.875 
Q 39.203125 63.53125 39.203125 54.390625 
Q 39.203125 45.171875 34.640625 39.84375 
Q 30.078125 34.515625 22.3125 34.515625 
Q 14.546875 34.515625 10.03125 39.859375 
Q 5.515625 45.21875 5.515625 54.390625 
Q 5.515625 63.484375 10.046875 68.84375 
Q 14.59375 74.21875 22.3125 74.21875 
z
" id="DejaVuSans-37"/>
     </defs>
     <g transform="translate(31.515 293.8725)rotate(-90)scale(0.32 -0.32)">
      <use xlink:href="#DejaVuSans-69"/>
      <use x="63.183594" xlink:href="#DejaVuSans-114"/>
      <use x="104.28125" xlink:href="#DejaVuSans-114"/>
      <use x="145.363281" xlink:href="#DejaVuSans-111"/>
      <use x="206.544922" xlink:href="#DejaVuSans-114"/>
      <use x="247.658203" xlink:href="#DejaVuSans-32"/>
      <use x="279.445312" xlink:href="#DejaVuSans-37"/>
     </g>
    </g>
   </g>
   <g id="line2d_12">
    <path clip-path="url(#p91372cec4d)" d="M -1 426.868083 
L 4.900035 427.483611 
L 24.734169 428.637381 
L 31.013586 428.997834 
L 39.344761 429.393982 
L 46.345102 430.169815 
L 47.242905 431.006404 
L 54.796854 431.448301 
L 57.424728 431.499587 
L 70.52712 431.902292 
L 73.218327 432.751993 
L 74.537923 433.005213 
L 80.319467 433.911882 
L 109.318246 434.022611 
L 120.243307 434.318229 
L 124.866764 435.189348 
L 195.113921 435.22621 
L 203.463021 435.56 
" style="fill:none;stroke:#1f77b4;stroke-linecap:square;stroke-width:8;"/>
   </g>
   <g id="line2d_13">
    <path clip-path="url(#p91372cec4d)" d="M -1 424.89208 
L 42.843194 425.384714 
L 54.778664 427.440996 
L 64.783334 428.331816 
L 73.218327 429.321045 
L 73.701804 429.41495 
L 88.359891 430.179062 
L 91.248161 430.393888 
L 96.008349 431.87773 
L 101.26396 433.208493 
L 115.629788 433.738482 
L 115.819899 435.56 
" style="fill:none;stroke:#ff7f0e;stroke-linecap:square;stroke-width:8;"/>
   </g>
   <g id="line2d_14">
    <path clip-path="url(#p91372cec4d)" d="M -1 410.280554 
L 31.858051 411.311629 
L 33.617984 411.96699 
L 64.026724 413.242288 
L 102.693367 415.556718 
L 109.410488 416.229791 
L 109.69112 420.055685 
L 110.706399 422.623993 
L 127.269425 425.422563 
L 192.388941 425.564263 
L 192.50441 429.60861 
L 192.7211 430.813058 
L 414.756675 432.088356 
L 417.787645 432.09426 
L 418.147214 433.027117 
L 420.659463 433.416791 
L 426.212578 434.237469 
L 431.115755 434.302415 
L 433.547458 434.308319 
L 433.663417 434.574006 
L 437.179289 434.798364 
L 439.254296 435.229367 
L 440.882624 435.447821 
L 442.442547 435.56 
" style="fill:none;stroke:#2ca02c;stroke-linecap:square;stroke-width:8;"/>
   </g>
   <g id="line2d_15">
    <path clip-path="url(#p91372cec4d)" d="M -1 388.300761 
L 4.022571 388.731045 
L 7.702194 396.066527 
L 19.038752 398.304917 
L 21.589207 399.948114 
L 28.072807 403.073027 
L 33.707088 403.774162 
L 44.39884 404.4737 
L 50.71797 404.669195 
L 51.959385 404.710807 
L 53.166028 408.307308 
L 54.321411 411.887478 
L 62.986763 413.428208 
L 67.925544 415.07672 
L 73.265735 416.651728 
L 81.165899 416.785984 
L 106.04732 419.200486 
L 107.713818 419.709745 
L 111.940336 420.249703 
L 119.040339 420.74053 
L 126.215002 421.164562 
L 132.336616 421.375072 
L 133.223402 423.93915 
L 137.82553 425.642998 
L 141.287774 426.055692 
L 141.54834 426.449085 
L 148.298576 427.91043 
L 166.917207 427.972293 
L 170.588176 428.693942 
L 171.186573 429.040851 
L 174.693318 429.096975 
L 183.394618 430.409794 
L 193.091101 430.568849 
L 195.418147 430.644476 
L 202.715875 430.743527 
L 203.782574 430.772508 
L 206.69067 431.057655 
L 209.183072 431.472006 
L 214.622365 433.883436 
L 221.671732 434.672789 
L 228.091246 435.000984 
L 494.528819 435.231805 
L 495.028727 435.56 
" style="fill:none;stroke:#d62728;stroke-linecap:square;stroke-width:8;"/>
   </g>
   <g id="line2d_16">
    <path clip-path="url(#p91372cec4d)" d="M -1 367.664082 
L 6.37988 370.750183 
L 14.420759 370.754418 
L 29.306187 374.573161 
L 34.149867 375.131274 
L 44.096835 376.012174 
L 45.944957 383.351153 
L 56.420763 385.23694 
L 59.069664 386.443558 
L 60.38339 387.758932 
L 61.627211 388.872285 
L 66.118216 391.512433 
L 76.570841 392.16268 
L 84.257074 392.223251 
L 91.775544 393.749379 
L 102.943914 394.523815 
L 111.552425 394.771933 
L 116.520008 395.804117 
L 120.239326 404.985195 
L 121.020505 405.985556 
L 122.537837 406.064287 
L 128.146494 406.889315 
L 130.213586 407.710021 
L 131.992489 407.934757 
L 141.319516 407.965275 
L 142.413614 408.035942 
L 142.879856 408.061964 
L 143.044319 408.220761 
L 144.792881 408.355655 
L 146.20822 409.198727 
L 148.511848 409.486762 
L 151.194334 409.49149 
L 153.504859 410.18029 
L 153.982303 411.008045 
L 154.105831 412.2001 
L 154.346417 412.352603 
L 155.367834 412.694247 
L 158.079857 418.50997 
L 163.679378 419.971117 
L 166.975105 420.632938 
L 171.799635 422.425024 
L 174.246693 422.541671 
L 174.543452 422.674534 
L 174.693318 422.850245 
L 174.984793 423.336849 
L 176.740626 423.915297 
L 177.558751 425.864179 
L 178.883244 426.178757 
L 183.675874 426.309851 
L 190.639695 426.446804 
L 192.61957 426.72193 
L 193.606142 427.404522 
L 204.639214 427.78411 
L 205.735471 427.926314 
L 210.295076 427.932783 
L 210.551281 427.973106 
L 211.110397 428.080905 
L 212.240743 428.321423 
L 212.395273 429.339363 
L 212.724553 429.462973 
L 216.184513 429.91903 
L 216.325119 430.213185 
L 216.785721 430.331892 
L 219.366007 430.498203 
L 222.16861 430.51468 
L 222.346866 430.617519 
L 224.167129 430.72642 
L 225.536131 430.953999 
L 225.562388 431.061392 
L 226.022395 431.823412 
L 227.93855 432.130622 
L 228.025405 432.285387 
L 228.255734 432.434553 
L 228.750914 432.719368 
L 233.069462 432.79807 
L 237.798873 432.977726 
L 238.231908 433.029653 
L 239.137087 433.287634 
L 240.558551 434.086147 
L 241.007097 434.204854 
L 248.420036 434.404554 
L 250.411991 434.751594 
L 259.807985 434.846281 
L 276.516211 435.001133 
L 278.519381 435.074759 
L 278.70116 435.293316 
L 284.463467 435.306893 
L 286.080927 435.392645 
L 286.124222 435.409122 
L 419.742637 435.41855 
L 419.756223 435.56 
" style="fill:none;stroke:#9467bd;stroke-linecap:square;stroke-width:8;"/>
   </g>
   <g id="line2d_17">
    <path clip-path="url(#p91372cec4d)" d="M -1 339.840044 
L 8.401855 340.20577 
L 16.460794 343.52935 
L 20.109679 344.214297 
L 26.347917 344.961743 
L 31.765035 346.263928 
L 36.576458 348.591335 
L 40.929213 349.949129 
L 48.376426 352.007688 
L 53.260362 353.713508 
L 56.262856 358.597787 
L 60.35143 359.314868 
L 64.290134 359.573746 
L 70.816473 363.744751 
L 77.321248 363.878495 
L 78.217488 370.538435 
L 81.49987 372.416477 
L 87.363828 374.449837 
L 90.045426 374.561873 
L 93.156107 381.200511 
L 93.778668 381.550032 
L 96.092112 381.618967 
L 97.760894 382.49132 
L 99.380363 382.869802 
L 100.420841 385.921587 
L 105.349869 386.249263 
L 107.13488 389.787441 
L 108.838492 391.114416 
L 112.420363 392.462557 
L 113.57431 392.571238 
L 116.101309 393.472506 
L 118.15526 393.77018 
L 124.413832 397.168948 
L 130.81579 397.804903 
L 131.085917 399.304191 
L 131.348209 404.822204 
L 138.364769 404.876636 
L 139.211191 406.693358 
L 142.55378 407.248957 
L 148.886137 408.375338 
L 151.57691 408.53972 
L 153.409101 408.752914 
L 155.001628 409.01084 
L 155.983502 409.033501 
L 156.129131 409.956115 
L 157.084228 410.794794 
L 159.06593 412.71834 
L 159.980902 412.748615 
L 162.311393 413.21135 
L 163.028104 417.402251 
L 167.793454 417.580502 
L 169.344211 419.797188 
L 169.851906 420.006665 
L 176.774937 420.427024 
L 177.038862 420.714908 
L 178.208467 421.435388 
L 180.856141 421.836621 
L 190.882944 424.281321 
L 191.216909 424.355649 
L 192.991175 424.504304 
L 193.374188 424.900507 
L 196.999786 425.168585 
L 199.124802 425.504827 
L 199.441987 425.514073 
L 201.049359 425.537957 
L 201.699688 426.452006 
L 204.526238 426.689492 
L 207.311858 426.716731 
L 212.188953 427.244729 
L 214.59297 427.384048 
L 227.120235 427.918165 
L 227.950642 428.222092 
L 228.06062 428.646485 
L 230.570968 428.646667 
L 231.286944 428.687592 
L 234.491565 429.114704 
L 235.282384 429.430687 
L 252.636745 430.330777 
L 266.168242 431.182917 
L 266.563826 432.110562 
L 267.150935 432.11659 
L 273.671037 432.181264 
L 284.724337 432.445444 
L 284.810157 432.646673 
L 312.80124 432.942352 
L 327.23519 433.253576 
L 327.617495 433.318024 
L 377.886378 433.561764 
L 379.797091 433.737975 
L 379.894422 433.777315 
L 385.13554 434.010857 
L 385.184972 434.062796 
L 385.239464 434.075305 
L 385.261392 434.127244 
L 385.34323 434.135447 
L 385.620031 434.172248 
L 385.650382 434.19722 
L 388.767219 434.365319 
L 388.779679 434.499607 
L 388.80351 434.599315 
L 388.927478 434.601219 
L 389.122244 434.614543 
L 393.920777 434.775299 
L 394.468575 434.869387 
L 415.777301 435.023391 
L 416.384306 435.025793 
L 416.54689 435.114578 
L 416.567275 435.124231 
L 416.5775 435.132435 
L 417.301347 435.137828 
L 418.105055 435.182198 
L 418.138675 435.259109 
L 427.306992 435.381342 
L 427.63317 435.431739 
L 440.522947 435.465459 
L 444.932822 435.465595 
L 444.943112 435.475112 
L 446.592384 435.500085 
L 574.018035 435.50507 
L 574.021551 435.530042 
L 574.222504 435.56 
" style="fill:none;stroke:#8c564b;stroke-linecap:square;stroke-width:8;"/>
   </g>
   <g id="line2d_18">
    <path clip-path="url(#p91372cec4d)" d="M -1 324.073611 
L 29.958463 325.695093 
L 33.289681 326.366277 
L 38.978771 326.919334 
L 41.601411 330.930334 
L 44.050184 331.402849 
L 48.50289 331.483391 
L 50.597852 332.541178 
L 57.918071 335.945428 
L 61.206134 338.216717 
L 64.246344 343.666738 
L 65.724899 348.177101 
L 82.71543 348.536856 
L 86.527425 349.052326 
L 89.079803 350.158438 
L 107.194203 353.686186 
L 109.797791 354.496977 
L 115.456634 357.76162 
L 116.771014 358.776452 
L 124.138315 360.097344 
L 285.384889 360.521533 
L 460.387202 361.772621 
L 460.404183 362.416959 
L 464.950229 363.066666 
L 465.052359 364.677509 
L 466.092193 365.354064 
L 466.2641 366.674955 
L 466.348339 372.39882 
L 467.649733 372.81227 
L 470.523624 372.823009 
L 470.5461 374.219073 
L 471.219532 374.337202 
L 471.571317 375.851395 
L 471.614222 377.156178 
L 472.737415 380.818163 
L 473.427345 381.04905 
L 473.427469 382.031665 
L 474.1703 382.2894 
L 474.171274 384.909706 
L 475.740534 386.584983 
L 475.745066 388.845534 
L 478.037534 389.532827 
L 478.243689 390.306032 
L 478.924793 390.628201 
L 478.948695 396.459455 
L 480.845584 397.297093 
L 480.867658 407.805164 
L 483.415932 409.319357 
L 483.421695 410.350297 
L 485.095381 410.908722 
L 485.103361 412.020205 
L 486.115688 412.750454 
L 486.609748 413.384052 
L 486.653756 417.142687 
L 487.726954 417.32525 
L 487.764432 419.677081 
L 488.844334 419.967033 
L 490.331016 420.61674 
L 490.336397 421.540291 
L 491.002848 422.377929 
L 491.033328 422.667881 
L 491.099222 424.761978 
L 491.345091 425.583508 
L 491.351056 426.662773 
L 492.004502 427.044006 
L 492.006427 427.199721 
L 492.838907 427.774256 
L 493.960578 427.919232 
L 494.243975 428.031991 
L 494.892958 428.134011 
L 494.905132 428.907216 
L 495.394388 428.971649 
L 495.397349 429.69116 
L 495.569144 429.938156 
L 495.691026 431.140919 
L 495.728285 431.452349 
L 496.8042 431.484566 
L 496.817543 431.871168 
L 498.142343 432.075208 
L 498.176453 433.304819 
L 501.468078 433.524968 
L 501.562084 434.083393 
L 501.886011 434.110241 
L 502.011247 434.303542 
L 502.436051 434.486104 
L 502.550883 435.527783 
L 506.804073 435.56 
L 506.804073 435.56 
" style="fill:none;stroke:#e377c2;stroke-linecap:square;stroke-width:8;"/>
   </g>
   <g id="line2d_19">
    <path clip-path="url(#p91372cec4d)" d="M -1 321.615455 
L 17.42405 322.288268 
L 62.851214 325.736899 
L 64.46485 326.003835 
L 87.295458 326.95619 
L 89.088008 327.162354 
L 146.20822 329.850948 
L 146.455906 332.354148 
L 148.42294 332.390304 
L 157.645949 333.89807 
L 157.832682 336.087409 
L 158.853619 338.765233 
L 159.20152 342.06078 
L 159.375225 342.914668 
L 160.223956 343.281609 
L 160.559446 344.664754 
L 175.867276 344.68014 
L 175.994065 344.839378 
L 176.797439 345.51095 
L 177.035666 347.474124 
L 177.820024 349.357293 
L 178.04019 349.38191 
L 182.309343 353.632119 
L 182.794858 355.371436 
L 183.086525 355.454517 
L 183.27865 356.070701 
L 183.37807 358.073876 
L 183.570732 358.354659 
L 184.262675 359.943968 
L 285.797375 360.881707 
L 285.859535 365.858106 
L 397.577767 365.996574 
L 397.579143 366.531216 
L 413.349059 367.859743 
L 415.61578 374.734697 
L 427.343224 374.857011 
L 427.35211 379.291844 
L 430.075646 382.495079 
L 430.090535 383.82976 
L 430.094484 386.065255 
L 444.180692 388.484605 
L 444.189323 390.48778 
L 447.764955 391.727072 
L 447.769759 392.808664 
L 448.753756 393.81179 
L 448.759742 394.355663 
L 449.567233 395.084161 
L 449.567973 395.868045 
L 453.000084 396.299605 
L 453.002389 399.708234 
L 455.980852 399.762852 
L 455.99834 404.691557 
L 457.903848 405.912386 
L 457.920368 407.735553 
L 457.921619 409.144084 
L 463.050767 409.403327 
L 463.240688 409.591798 
L 463.259343 410.794165 
L 463.367835 410.859553 
L 463.814705 411.002637 
L 463.823653 411.719595 
L 466.898251 412.389628 
L 466.907295 413.162743 
L 467.047686 414.014324 
L 467.072022 415.306695 
L 467.437576 415.515936 
L 467.443755 416.627529 
L 468.565796 417.702967 
L 470.279402 417.760662 
L 471.397242 417.956056 
L 471.461622 421.20237 
L 472.212592 421.379302 
L 472.649634 421.530848 
L 472.657077 424.677926 
L 473.684222 424.863319 
L 473.688801 426.101842 
L 478.403253 426.631868 
L 478.409153 426.893419 
L 478.885326 427.294208 
L 480.132356 427.689612 
L 480.253006 429.683557 
L 480.947644 429.759714 
L 481.000094 430.678221 
L 483.392069 430.687452 
L 483.513076 431.134397 
L 483.514598 431.490569 
L 484.149991 431.503646 
L 484.196737 431.882127 
L 484.896874 432.168295 
L 484.922128 432.542159 
L 485.286722 432.74063 
L 485.424363 433.19373 
L 485.427744 433.38297 
L 485.690327 433.725294 
L 486.40496 433.776066 
L 486.610925 434.001462 
L 486.611288 434.456099 
L 486.91183 434.567643 
L 489.036209 434.673033 
L 489.707697 434.853042 
L 493.126552 435.00228 
L 493.251821 435.03459 
L 493.542347 435.306911 
L 495.848726 435.382299 
L 550.807613 435.56 
L 550.807613 435.56 
" style="fill:none;stroke:#7f7f7f;stroke-linecap:square;stroke-width:8;"/>
   </g>
   <g id="line2d_20">
    <path clip-path="url(#p91372cec4d)" d="M -1 289.200329 
L 12.474023 294.720413 
L 27.937329 298.320019 
L 35.84861 300.401178 
L 42.505861 304.238077 
L 50.797862 304.62571 
L 53.33568 307.859507 
L 59.885326 310.323142 
L 61.936487 311.852865 
L 67.589017 315.168771 
L 72.476753 315.670389 
L 76.811524 316.396305 
L 84.275426 316.506957 
L 86.544836 316.954304 
L 96.217452 322.451968 
L 99.599479 322.703402 
L 100.420841 324.568414 
L 104.261867 324.595966 
L 105.011039 324.98076 
L 107.097086 325.046672 
L 108.442429 327.990545 
L 109.112555 330.998246 
L 112.810033 332.113149 
L 117.26868 332.720315 
L 119.851395 334.73952 
L 121.887515 338.846343 
L 127.680054 342.619049 
L 130.896695 345.728157 
L 136.994357 347.240745 
L 138.013056 349.356643 
L 146.031363 353.690265 
L 148.660307 353.694041 
L 150.898316 354.389592 
L 152.792651 355.39077 
L 153.845647 355.708923 
L 158.558542 356.743643 
L 159.757156 359.320613 
L 162.683133 361.361928 
L 163.417126 361.398464 
L 164.31809 361.920108 
L 166.39805 362.231959 
L 173.827536 362.555216 
L 176.018069 364.063846 
L 176.58804 365.326119 
L 179.003508 365.992946 
L 179.533543 366.893603 
L 180.574443 366.897457 
L 180.71161 367.737723 
L 183.407484 368.49541 
L 183.653039 369.357863 
L 184.608097 369.782449 
L 184.846922 372.722702 
L 185.198289 373.25656 
L 193.069813 373.548619 
L 193.846952 373.74573 
L 194.958187 374.262426 
L 197.363529 375.181859 
L 201.602823 375.904624 
L 202.679468 376.783587 
L 202.761634 378.104273 
L 206.245742 378.617609 
L 208.240846 379.838945 
L 208.445852 380.549991 
L 212.865304 382.830058 
L 213.998552 383.017012 
L 215.599177 383.366207 
L 227.604853 384.242749 
L 228.289464 384.749106 
L 228.417979 385.352261 
L 229.737376 386.221407 
L 230.702368 387.369019 
L 231.449335 387.748448 
L 231.491492 388.401343 
L 231.77259 388.721527 
L 233.873187 389.655153 
L 235.146286 390.354532 
L 238.515131 390.467632 
L 240.328224 392.249284 
L 241.364469 392.889809 
L 242.82129 393.80096 
L 243.654928 393.893279 
L 243.715479 394.070545 
L 248.30977 395.224719 
L 248.49535 397.117336 
L 249.072765 398.308489 
L 250.085026 398.363047 
L 250.257873 399.113598 
L 252.145357 399.211932 
L 252.811049 399.669982 
L 253.379777 401.083116 
L 256.025469 401.418535 
L 257.599899 403.008258 
L 257.807753 403.940425 
L 258.805748 404.023004 
L 259.127689 404.349855 
L 266.589421 404.439934 
L 267.216918 404.591315 
L 267.747667 405.276319 
L 268.405552 406.416222 
L 269.858151 406.523515 
L 270.393894 407.881492 
L 270.814939 408.040009 
L 270.97954 408.343891 
L 271.570511 408.834675 
L 271.897284 409.913458 
L 272.332543 410.529373 
L 274.431672 410.686874 
L 274.719097 411.420811 
L 275.661802 412.460453 
L 279.218783 413.389834 
L 279.641859 414.104786 
L 282.082752 414.413434 
L 282.653678 414.596769 
L 282.902256 414.985261 
L 283.336557 415.017344 
L 296.668078 415.073829 
L 296.797632 415.321982 
L 297.366492 415.397763 
L 297.718551 415.835787 
L 299.286098 415.916256 
L 303.859923 416.585115 
L 304.71283 417.67421 
L 304.821606 418.393329 
L 306.449612 418.64294 
L 310.418898 418.644893 
L 326.012838 419.450497 
L 342.228545 419.529352 
L 342.347476 420.537353 
L 342.742375 420.554645 
L 342.878637 420.799985 
L 343.874059 420.905194 
L 344.56909 421.110638 
L 344.72381 421.363087 
L 344.846849 421.533531 
L 344.909665 422.027363 
L 345.301485 422.679424 
L 345.589063 423.669873 
L 358.755139 425.227747 
L 358.781491 425.60189 
L 359.583257 426.268092 
L 388.526921 426.748929 
L 388.529146 426.929294 
L 388.711895 426.982264 
L 388.892492 427.767112 
L 389.425134 428.303782 
L 409.038567 428.328991 
L 409.254513 429.211679 
L 409.84016 429.632983 
L 409.900905 429.853375 
L 414.306173 429.896423 
L 414.404223 430.290435 
L 414.573747 430.909736 
L 419.909954 430.933252 
L 424.038102 431.114998 
L 424.819104 431.857268 
L 425.451041 432.076983 
L 426.317735 432.779644 
L 435.683447 432.831077 
L 436.117227 433.159803 
L 437.862351 433.231209 
L 437.966561 433.43858 
L 437.982772 433.581836 
L 447.562001 433.961396 
L 449.645832 434.347753 
L 453.201103 434.52778 
L 454.655893 434.876142 
L 463.930108 435.319426 
L 465.282955 435.505442 
L 467.201324 435.56 
L 467.201324 435.56 
" style="fill:none;stroke:#bcbd22;stroke-linecap:square;stroke-width:8;"/>
   </g>
   <g id="line2d_21">
    <path clip-path="url(#p91372cec4d)" d="M -1 282.160616 
L 45.495948 282.44821 
L 105.011039 285.035725 
L 122.113006 286.189764 
L 125.915917 287.849048 
L 148.414661 292.317623 
L 148.744619 293.19787 
L 153.883955 294.645863 
L 164.452409 299.803151 
L 166.583116 300.316461 
L 166.801177 304.787052 
L 167.016797 304.959633 
L 167.431513 305.941091 
L 168.847214 308.598768 
L 169.982606 309.546757 
L 170.359907 310.958056 
L 171.125517 313.032665 
L 175.396213 313.649201 
L 175.574017 315.595583 
L 176.58158 316.886316 
L 177.080386 317.014946 
L 266.746258 318.934716 
L 297.928066 320.02948 
L 298.019273 328.01743 
L 298.200406 329.603327 
L 298.499447 329.802118 
L 422.145324 330.051717 
L 422.148984 334.088434 
L 439.477549 334.387629 
L 439.545309 340.11105 
L 451.013923 341.680817 
L 451.469745 343.009051 
L 451.841775 343.111068 
L 451.842909 345.288903 
L 452.277928 345.72439 
L 452.295122 351.434504 
L 453.254058 352.382897 
L 459.494655 352.803867 
L 459.514952 356.476872 
L 460.578541 358.921242 
L 462.253196 359.134549 
L 462.279316 359.976893 
L 464.340158 360.679317 
L 464.380453 368.226135 
L 466.260771 368.798316 
L 466.264587 369.003156 
L 468.234582 369.466868 
L 468.260433 372.772533 
L 468.968465 373.989476 
L 471.787537 375.031014 
L 471.80429 378.235468 
L 471.951568 378.689907 
L 471.968067 383.276224 
L 472.936773 383.673807 
L 474.124821 383.705259 
L 474.134338 384.272198 
L 474.909159 384.909701 
L 477.014033 385.641157 
L 477.020182 387.418587 
L 477.338273 390.454089 
L 477.342315 392.254503 
L 478.003971 393.055717 
L 478.021714 393.946448 
L 480.408961 394.087578 
L 480.413321 394.364193 
L 480.606745 394.396048 
L 480.60928 394.927502 
L 480.829744 397.024692 
L 480.921195 399.299302 
L 480.987593 399.470674 
L 481.774427 400.94407 
L 481.779912 402.961824 
L 483.686597 404.525946 
L 483.916754 409.841703 
L 485.574803 410.751386 
L 485.641667 412.439299 
L 485.642307 413.021561 
L 485.80022 413.501805 
L 485.800486 413.936082 
L 487.256658 414.120357 
L 487.267566 414.529634 
L 489.591389 414.918749 
L 489.813113 417.480458 
L 491.204028 417.736105 
L 491.243453 418.582884 
L 491.334984 420.271603 
L 491.407716 420.557492 
L 491.486259 421.153867 
L 491.557631 421.30669 
L 491.640638 423.716382 
L 494.528472 424.506709 
L 494.733612 424.671629 
L 494.783931 424.902276 
L 495.533004 424.937357 
L 495.574977 425.75712 
L 495.74652 426.091799 
L 496.021332 427.663986 
L 496.133895 427.916407 
L 496.207122 428.972864 
L 496.413128 429.146656 
L 496.492892 429.724482 
L 497.02707 430.067629 
L 497.160514 430.819649 
L 497.370258 430.982957 
L 497.373903 431.162797 
L 498.6326 431.42933 
L 498.717129 431.94264 
L 499.601543 432.126512 
L 499.645022 432.384578 
L 502.508153 432.477321 
L 502.647752 433.136599 
L 503.173026 433.161196 
L 503.229745 433.284583 
L 505.854033 433.300309 
L 505.960456 433.578133 
L 506.854253 433.710796 
L 509.639802 433.813619 
L 511.189866 434.070475 
L 511.232728 434.111201 
L 511.331265 434.774108 
L 512.77002 434.840238 
L 512.894312 435.063626 
L 513.882464 435.373709 
L 513.882464 435.373709 
" style="fill:none;stroke:#17becf;stroke-linecap:square;stroke-width:8;"/>
   </g>
   <g id="line2d_22">
    <path clip-path="url(#p91372cec4d)" d="M -1 175.210501 
L 6.714283 175.376695 
L 35.165657 180.306689 
L 51.745191 181.695137 
L 61.221803 182.279397 
L 63.982665 183.295066 
L 75.290367 184.107351 
L 77.245712 187.418073 
L 80.89883 187.711477 
L 82.6202 193.969089 
L 84.275426 193.983335 
L 91.659763 196.615827 
L 93.014033 197.700274 
L 95.565902 203.200083 
L 108.316596 203.280556 
L 110.141397 206.082294 
L 112.710575 206.975753 
L 113.551066 213.563657 
L 114.366348 216.913116 
L 115.175445 221.563052 
L 118.913248 225.366913 
L 120.390351 230.111617 
L 121.114238 231.748734 
L 123.126393 232.914654 
L 123.791423 236.707419 
L 129.714824 237.845698 
L 130.279863 238.905003 
L 134.014295 242.176288 
L 135.509144 242.908049 
L 136.006244 244.111757 
L 138.343852 245.056749 
L 147.71762 247.152867 
L 148.464316 248.464489 
L 149.188124 248.942034 
L 151.919874 249.154915 
L 152.280951 249.591872 
L 153.587555 251.540488 
L 156.967266 252.305188 
L 157.565672 253.063691 
L 158.715299 256.103451 
L 159.309364 260.648121 
L 160.145192 262.284388 
L 160.69665 264.651067 
L 166.020015 264.946171 
L 166.975105 265.637396 
L 167.675793 266.526956 
L 168.588773 268.029067 
L 177.893189 268.287383 
L 178.265449 268.830556 
L 178.63144 270.983955 
L 178.991293 271.312947 
L 180.568555 272.478618 
L 183.384506 274.133329 
L 183.712385 277.502181 
L 184.035977 277.654482 
L 184.19867 278.002668 
L 195.893195 278.265333 
L 196.967602 278.606222 
L 198.33999 281.4364 
L 198.573901 286.824395 
L 199.920005 286.952803 
L 200.678649 289.109551 
L 202.570651 291.20062 
L 202.886929 293.584043 
L 207.050446 293.882096 
L 207.604193 296.509541 
L 207.975678 297.637523 
L 208.33935 298.098873 
L 208.610488 301.345615 
L 208.881456 301.478172 
L 209.325792 303.05046 
L 210.026938 304.706771 
L 218.940373 304.745558 
L 219.084726 306.653936 
L 219.502583 306.791991 
L 220.190389 307.427384 
L 220.536428 309.779918 
L 220.607008 311.18756 
L 221.342348 313.320265 
L 222.007246 313.33516 
L 222.463934 314.524923 
L 222.72369 314.627489 
L 223.623227 315.236691 
L 223.68821 315.539092 
L 227.342518 315.652405 
L 227.694026 316.613093 
L 228.542245 317.323011 
L 232.301881 318.439598 
L 232.408378 318.721456 
L 232.512848 319.964951 
L 233.074104 320.588748 
L 235.602298 321.673744 
L 235.701223 322.056919 
L 236.039182 322.48358 
L 237.838113 323.239134 
L 237.977633 325.147263 
L 238.428361 326.04517 
L 243.770967 327.355644 
L 249.229578 327.575572 
L 249.509422 329.648347 
L 251.260293 332.944623 
L 251.529182 335.080527 
L 252.017891 336.596684 
L 255.332247 336.60908 
L 255.488757 337.688878 
L 255.733609 338.097395 
L 258.214812 340.083948 
L 258.361694 340.775123 
L 263.837766 340.794116 
L 266.394945 341.06098 
L 266.58369 341.606352 
L 266.839901 341.955988 
L 269.196031 342.56419 
L 269.503024 344.122382 
L 270.191503 344.615272 
L 270.719387 347.273256 
L 271.514084 347.724059 
L 271.868054 347.996321 
L 272.01224 349.105859 
L 273.555553 349.28685 
L 273.654978 350.23899 
L 274.028202 350.817252 
L 274.553475 352.285574 
L 276.832782 354.001964 
L 277.468451 354.962452 
L 293.377761 355.228015 
L 293.960113 358.975045 
L 295.023063 361.406953 
L 296.074872 361.640626 
L 298.355669 361.81347 
L 298.654904 362.813394 
L 298.821724 364.447662 
L 298.986895 365.921782 
L 299.009192 367.176473 
L 300.41256 369.430539 
L 402.961185 369.474175 
L 403.018665 370.006851 
L 403.100183 374.271013 
L 403.14895 374.383626 
L 403.219218 374.941194 
L 403.234425 375.492065 
L 407.354951 375.654962 
L 407.444992 376.018893 
L 411.325741 376.528777 
L 411.381122 381.885333 
L 415.239695 382.398815 
L 415.330083 383.587078 
L 415.473896 384.145746 
L 416.469001 384.729056 
L 416.557694 386.750448 
L 416.613284 387.20545 
L 424.434988 387.284374 
L 424.56924 387.504702 
L 424.578594 388.990218 
L 434.410213 389.144768 
L 434.549641 390.413455 
L 437.087995 392.42235 
L 437.132846 392.548609 
L 437.687494 392.630333 
L 437.766816 395.723775 
L 437.841329 396.070662 
L 437.923474 398.939328 
L 438.442939 399.415823 
L 439.469363 399.729271 
L 439.506569 401.828187 
L 440.297276 402.314878 
L 440.354359 402.839557 
L 440.529722 403.057636 
L 440.596032 403.320801 
L 441.512603 403.393327 
L 441.532717 404.057861 
L 441.700722 405.71662 
L 443.300519 407.460402 
L 443.422473 408.862096 
L 443.504141 410.747682 
L 443.595245 413.158546 
L 443.7616 413.193785 
L 443.775475 413.566564 
L 454.05164 413.625594 
L 454.121365 415.860516 
L 458.788248 416.210802 
L 458.871561 416.492261 
L 458.967673 417.222873 
L 458.989927 417.888956 
L 459.564135 418.447924 
L 461.97633 418.479813 
L 462.018798 418.897877 
L 462.680697 419.77814 
L 463.523847 420.234742 
L 463.643792 421.134199 
L 463.978332 421.330135 
L 465.387918 421.413358 
L 465.389855 421.62269 
L 465.606202 421.626988 
L 465.624346 421.992319 
L 467.613743 422.003166 
L 467.841194 423.599396 
L 468.572244 424.390788 
L 468.617309 424.972848 
L 468.867985 425.017584 
L 468.985225 425.21402 
L 470.148688 425.513222 
L 471.099204 425.576902 
L 471.304225 427.865056 
L 472.290633 427.958526 
L 475.937753 427.982068 
L 476.637236 428.856234 
L 481.797676 429.061617 
L 482.074231 429.183427 
L 483.211037 429.243058 
L 484.832025 429.527565 
L 487.210775 429.658472 
L 487.513176 430.376838 
L 490.548738 430.49335 
L 490.95762 430.662245 
L 492.231864 430.987489 
L 492.475326 431.288891 
L 493.832561 431.423847 
L 494.706333 432.042146 
L 495.491117 432.142163 
L 495.887796 432.382085 
L 501.702825 432.482502 
L 501.801726 432.518141 
L 544.508935 432.752514 
L 544.787207 432.853731 
L 545.541603 432.982739 
L 545.917405 433.400054 
L 545.922977 433.417798 
L 546.288985 433.7166 
L 547.173839 433.860504 
L 547.201906 433.888994 
L 547.232658 434.136514 
L 548.782248 434.412074 
L 549.258905 434.54723 
L 550.568005 434.641749 
L 550.599315 435.149984 
L 552.398664 435.196119 
L 587.618855 435.332774 
L 587.717027 435.430842 
L 587.717027 435.430842 
" style="fill:none;stroke:#1f77b4;stroke-linecap:square;stroke-width:8;"/>
   </g>
   <g id="line2d_23">
    <path clip-path="url(#p91372cec4d)" d="M -1 254.391655 
L 22.329667 257.259142 
L 31.076709 259.156281 
L 47.717049 259.426342 
L 59.544627 259.802291 
L 68.788408 263.363126 
L 71.475936 263.474813 
L 74.063791 264.142488 
L 93.290272 266.259033 
L 102.842677 267.693559 
L 124.446343 269.593139 
L 131.354361 271.300168 
L 133.352804 272.449376 
L 153.517733 273.257422 
L 154.279622 273.430444 
L 156.460162 276.503034 
L 180.478166 279.058694 
L 181.293604 281.329341 
L 181.497716 283.01623 
L 195.142621 284.794359 
L 195.291415 285.23378 
L 195.998283 286.50688 
L 196.142104 288.998153 
L 196.69914 289.03355 
L 197.796664 289.577029 
L 216.032245 289.651486 
L 216.126078 291.004232 
L 217.760351 291.743923 
L 218.190777 295.510738 
L 219.420211 295.786902 
L 219.505365 297.406656 
L 253.04291 300.083462 
L 253.18103 300.517696 
L 253.220125 301.399284 
L 254.222943 301.911331 
L 287.750491 301.920181 
L 287.88841 306.09407 
L 288.641492 306.447438 
L 288.658502 308.329929 
L 288.951736 308.834653 
L 288.984476 309.748588 
L 437.825249 310.037873 
L 437.827234 310.758646 
L 450.671722 311.322874 
L 450.783083 313.117787 
L 450.786745 314.041486 
L 452.951964 316.340818 
L 452.959214 320.455507 
L 458.846953 321.36761 
L 458.851888 324.028854 
L 464.942823 324.132911 
L 464.977163 334.981116 
L 471.153641 335.958828 
L 471.177815 338.81659 
L 473.631149 338.919732 
L 473.632389 339.592595 
L 475.510887 340.832129 
L 475.518538 344.621219 
L 476.943509 345.125943 
L 478.595943 346.376157 
L 478.614722 352.077033 
L 480.43404 352.272637 
L 482.510775 353.444731 
L 482.514072 354.176794 
L 482.858534 354.610723 
L 482.906559 356.780974 
L 483.114048 357.411116 
L 483.116841 359.725705 
L 484.731831 359.726315 
L 484.857547 369.7088 
L 487.864095 370.174159 
L 487.884651 372.338613 
L 489.581716 372.661465 
L 489.58856 376.74869 
L 490.624378 377.801165 
L 490.626282 378.511867 
L 491.82173 378.532007 
L 491.880158 380.293353 
L 492.676435 380.369641 
L 492.721842 381.166397 
L 492.731872 383.32078 
L 493.22009 383.691542 
L 493.239239 386.022304 
L 494.039203 386.305181 
L 494.743206 387.183718 
L 494.859699 388.477568 
L 494.915753 388.749155 
L 494.950732 391.964557 
L 495.303312 392.371021 
L 495.309377 392.553503 
L 496.319182 392.582798 
L 496.328908 394.057299 
L 497.622954 395.07285 
L 497.663315 399.409996 
L 498.659606 399.555859 
L 498.661033 399.956221 
L 499.082412 400.052649 
L 499.134763 405.276876 
L 502.402802 405.726673 
L 502.591653 409.507524 
L 503.547851 409.595103 
L 503.735047 410.114169 
L 503.764858 413.075988 
L 504.59239 413.280441 
L 504.600542 413.610922 
L 504.856472 414.04424 
L 504.923435 415.541628 
L 505.139734 415.65545 
L 505.144714 416.306038 
L 505.366969 416.444272 
L 505.506132 418.87604 
L 509.737408 419.446067 
L 509.81721 419.924852 
L 511.086198 420.063087 
L 511.170596 421.140889 
L 511.26407 421.603502 
L 511.268251 422.153388 
L 511.431806 422.736231 
L 511.961098 422.92268 
L 512.083765 423.446628 
L 512.10327 423.51956 
L 512.206101 424.091113 
L 512.487763 424.342254 
L 512.553468 425.06028 
L 513.033035 425.549136 
L 513.105231 425.87565 
L 514.193449 425.943699 
L 514.283414 426.377017 
L 514.32961 426.508843 
L 514.45135 428.633627 
L 515.317641 428.710526 
L 515.319315 428.848455 
L 517.801316 428.976314 
L 517.852174 429.296725 
L 518.529531 429.353179 
L 518.963848 429.573194 
L 519.58644 429.83349 
L 519.650288 430.047098 
L 523.365145 430.592712 
L 523.493106 431.093469 
L 523.865541 431.25459 
L 523.878591 431.407167 
L 523.997584 431.485896 
L 524.636968 431.599718 
L 524.828249 431.881985 
L 524.901417 431.959189 
L 525.6979 432.304623 
L 526.096972 432.73611 
L 526.942765 432.842914 
L 528.292311 432.882584 
L 528.384988 432.962534 
L 528.818042 432.989082 
L 528.854797 433.119993 
L 531.191089 433.238087 
L 531.480387 433.386697 
L 559.278772 433.503266 
L 559.415843 433.849005 
L 560.704035 433.877384 
L 560.941896 434.145003 
L 561.105017 434.291477 
L 566.213724 434.465109 
L 566.213724 434.465109 
" style="fill:none;stroke:#ff7f0e;stroke-linecap:square;stroke-width:8;"/>
   </g>
   <g id="line2d_24">
    <path clip-path="url(#p91372cec4d)" d="M -1 121.75221 
L 26.768232 122.266077 
L 43.557277 127.510576 
L 48.016082 130.72892 
L 55.589686 132.268592 
L 67.561981 133.505302 
L 70.134021 138.084343 
L 80.958322 142.928645 
L 84.622643 145.868851 
L 86.483869 145.918777 
L 88.159159 148.696088 
L 94.159604 149.833601 
L 95.551782 152.097711 
L 101.853629 158.255608 
L 104.152119 159.124727 
L 107.360948 164.926223 
L 109.384885 166.104227 
L 110.372293 166.194988 
L 113.224332 169.275538 
L 117.511133 171.294875 
L 128.859642 172.398369 
L 129.503418 173.334871 
L 130.128221 174.874818 
L 133.061101 177.03739 
L 133.636711 177.615839 
L 135.285108 177.940252 
L 136.355489 182.068172 
L 136.888986 183.372677 
L 137.413284 184.299883 
L 137.931279 185.443352 
L 138.443119 191.362569 
L 138.946371 199.498933 
L 143.219834 199.925366 
L 144.544478 201.640639 
L 148.27989 203.165815 
L 156.27427 203.711933 
L 160.067864 203.811715 
L 160.676408 206.388085 
L 168.348326 206.584241 
L 168.60821 207.258788 
L 171.705698 207.68653 
L 171.942555 210.781403 
L 175.051777 211.199125 
L 175.482445 212.20053 
L 175.697275 213.74368 
L 176.326746 219.116332 
L 176.743844 219.886014 
L 178.171129 221.913098 
L 183.582631 222.030233 
L 183.763449 222.658987 
L 184.801576 223.574829 
L 184.978246 227.027858 
L 186.493747 230.348808 
L 187.468841 235.119702 
L 187.951129 235.337894 
L 188.11372 238.939564 
L 188.27652 239.016208 
L 188.762074 241.003902 
L 189.688484 241.951078 
L 189.845451 244.462819 
L 190.000272 245.088026 
L 191.340144 247.36071 
L 192.367303 247.479051 
L 192.657394 247.775196 
L 193.787056 250.492665 
L 195.685013 251.905044 
L 196.604544 255.591036 
L 198.139411 255.816149 
L 199.127353 256.614994 
L 199.855446 262.007307 
L 200.459631 263.400748 
L 203.207866 268.682949 
L 204.855906 269.654915 
L 206.842942 269.751461 
L 209.226998 272.281004 
L 210.090296 275.925713 
L 210.562534 276.274469 
L 211.035944 276.379037 
L 211.224728 281.121628 
L 211.412688 282.902252 
L 212.676602 286.113365 
L 214.086098 286.465186 
L 214.519393 287.383267 
L 215.79113 287.835077 
L 216.042585 288.059501 
L 216.127368 288.383949 
L 216.706891 288.484144 
L 217.27621 289.386559 
L 217.438335 291.139052 
L 217.837278 291.622125 
L 219.395509 291.759472 
L 222.419003 292.785427 
L 222.991423 294.002063 
L 223.276445 294.730874 
L 224.31635 296.543174 
L 224.591001 298.446512 
L 226.187129 299.928064 
L 226.642232 300.099739 
L 228.490646 301.377973 
L 230.187067 301.666164 
L 231.931972 301.768357 
L 232.166093 303.251286 
L 237.601872 304.250659 
L 238.051101 305.206064 
L 238.253009 306.901952 
L 238.603258 313.475643 
L 240.00067 314.556068 
L 240.846313 314.729533 
L 240.89449 315.385556 
L 243.325967 315.742542 
L 243.854177 316.239216 
L 244.415251 317.202126 
L 245.050701 317.294954 
L 245.094402 317.836354 
L 250.228659 318.27353 
L 250.453294 318.789417 
L 252.791227 319.570288 
L 252.916795 319.85366 
L 253.532886 322.570199 
L 253.674482 324.995483 
L 254.887785 327.375972 
L 256.007413 330.649785 
L 256.429902 332.972394 
L 261.355925 333.798819 
L 261.386462 334.788104 
L 261.615026 335.181655 
L 265.106783 335.715894 
L 266.044658 336.666926 
L 266.250121 337.109301 
L 266.528208 338.722209 
L 269.346176 339.585544 
L 270.170046 339.678716 
L 270.405605 341.08259 
L 271.050372 343.876601 
L 271.278907 344.346315 
L 271.527871 346.037795 
L 272.768529 346.76547 
L 273.161378 347.464739 
L 273.511997 349.25521 
L 273.643552 349.279621 
L 273.859447 349.627448 
L 281.839863 349.856417 
L 282.322984 355.397199 
L 282.777323 356.896896 
L 283.073394 357.171039 
L 283.48717 359.158458 
L 284.318973 361.415648 
L 284.803958 361.461166 
L 284.953103 362.001155 
L 286.33533 362.03142 
L 290.824227 362.597611 
L 290.92578 365.753807 
L 291.113465 365.772262 
L 291.372144 365.953544 
L 292.105171 366.075465 
L 292.62148 369.380646 
L 296.33964 369.444103 
L 297.308068 370.710561 
L 297.924396 371.197422 
L 297.961729 371.529617 
L 298.703817 372.300917 
L 299.525636 372.532365 
L 301.130205 372.643716 
L 301.973184 373.848439 
L 302.151775 375.562748 
L 302.603389 375.702402 
L 306.851066 377.827615 
L 307.573387 378.382203 
L 309.296923 378.597055 
L 309.467697 379.191687 
L 317.744123 379.397208 
L 318.098062 383.144454 
L 318.342853 383.480988 
L 318.699163 383.678934 
L 318.977721 384.022663 
L 319.030581 384.454916 
L 379.145217 384.727579 
L 379.362695 385.029784 
L 380.950085 385.178907 
L 380.967085 385.516232 
L 389.664905 386.416133 
L 390.68767 386.917937 
L 390.907743 389.864823 
L 399.508158 390.106257 
L 399.611715 390.828664 
L 409.594689 391.252584 
L 409.661976 391.269765 
L 409.734883 393.655935 
L 410.148335 393.712093 
L 410.156059 394.399827 
L 410.433439 394.635579 
L 410.695122 397.454208 
L 410.844376 399.938336 
L 411.117354 399.96409 
L 411.176568 400.877454 
L 411.544102 400.985052 
L 411.623908 403.666438 
L 420.262064 403.805713 
L 420.496014 404.671079 
L 420.704438 404.766523 
L 420.847853 405.789172 
L 422.348642 406.659118 
L 422.49251 408.667919 
L 441.399881 408.749762 
L 441.440796 410.778912 
L 446.289027 410.972762 
L 447.842836 412.100186 
L 447.992575 414.497374 
L 449.068738 415.045385 
L 449.358216 416.061148 
L 449.515746 416.106046 
L 456.557985 416.625962 
L 456.657099 417.993958 
L 457.200677 418.010623 
L 457.214605 418.500273 
L 457.625021 418.576711 
L 457.945422 419.623944 
L 459.783988 419.993497 
L 460.021913 421.173739 
L 460.60956 421.209066 
L 460.619067 421.977335 
L 460.878166 424.351454 
L 460.963516 424.569268 
L 462.987581 424.638303 
L 463.178309 425.713804 
L 463.637438 426.233513 
L 465.949357 426.242396 
L 466.351047 426.539678 
L 470.373529 426.560199 
L 470.374036 426.698303 
L 475.826186 426.782144 
L 475.872732 427.20479 
L 476.04771 427.212606 
L 476.26443 427.847798 
L 476.847307 427.9806 
L 477.555868 428.022813 
L 477.582045 428.336759 
L 477.724166 428.352804 
L 477.759176 428.787398 
L 482.455736 428.96021 
L 482.460178 428.999221 
L 483.684917 429.015507 
L 484.014263 429.351317 
L 484.09415 429.462462 
L 484.935073 430.03003 
L 485.115559 430.71649 
L 488.490403 431.475808 
L 488.635623 431.702608 
L 488.656289 431.933127 
L 489.875994 432.076224 
L 490.245994 432.313491 
L 490.256763 432.587944 
L 490.795557 432.714824 
L 491.629065 432.802246 
L 499.025762 432.999779 
L 499.056991 433.040339 
L 499.543406 433.190254 
L 505.344216 433.451554 
L 505.350344 433.50878 
L 506.041887 433.629703 
L 506.179494 433.786538 
L 519.271675 433.876267 
L 546.057771 434.032413 
L 546.103581 434.063574 
L 547.46163 434.166799 
L 547.492511 434.253395 
L 559.23927 434.559318 
L 585.32706 434.654315 
L 585.494385 434.714088 
L 589.220594 434.859526 
L 589.220594 434.859526 
" style="fill:none;stroke:#2ca02c;stroke-linecap:square;stroke-width:8;"/>
   </g>
   <g id="line2d_25">
    <path clip-path="url(#p91372cec4d)" d="M 116.411363 37.111936 
L 126.783079 38.40971 
L 129.365123 39.203326 
L 130.60973 42.057812 
L 131.816346 42.094388 
L 135.226105 44.23916 
L 139.346826 45.686698 
L 166.103853 47.600398 
L 166.633327 48.376035 
L 169.157869 50.456613 
L 170.135424 51.854292 
L 170.628988 52.062381 
L 171.58013 52.744662 
L 175.586138 53.299916 
L 177.65232 54.223649 
L 178.057879 54.729661 
L 178.462748 54.825549 
L 181.513082 57.042794 
L 182.244255 61.292796 
L 182.606176 62.057374 
L 183.678614 63.299666 
L 185.053487 64.216171 
L 185.392652 69.564755 
L 186.059618 70.471436 
L 186.392698 71.368417 
L 187.053764 72.296908 
L 187.697353 74.45206 
L 188.33147 74.506862 
L 188.647504 75.512892 
L 188.95962 75.913561 
L 191.358484 76.200054 
L 195.264907 78.358542 
L 195.533414 79.704446 
L 195.799569 79.820847 
L 196.329719 80.47236 
L 196.592367 80.583942 
L 197.361535 82.997351 
L 204.784915 83.545994 
L 204.999763 84.386751 
L 206.670861 87.85086 
L 209.06116 87.971524 
L 209.448466 90.243015 
L 209.831326 90.520487 
L 234.303627 90.89564 
L 234.413451 91.311694 
L 234.630024 95.095041 
L 235.059932 95.870369 
L 236.104673 101.994467 
L 236.311853 102.160357 
L 236.92244 103.635761 
L 237.328598 107.50128 
L 237.630593 108.055051 
L 238.029901 108.272716 
L 239.004817 109.056879 
L 239.296833 110.865299 
L 240.153067 112.029002 
L 240.896668 112.048896 
L 240.990442 112.879027 
L 241.725309 113.682837 
L 244.017867 116.628516 
L 244.105319 117.264768 
L 244.277008 117.585551 
L 244.618126 117.725677 
L 244.703483 118.162367 
L 244.874574 118.28507 
L 245.375523 119.488871 
L 245.627516 119.799954 
L 246.282628 119.852656 
L 246.530447 121.184473 
L 247.091683 121.334114 
L 247.1727 122.144103 
L 247.577382 123.014393 
L 248.365142 123.359086 
L 248.674277 124.007139 
L 249.060355 125.323078 
L 259.981093 126.295436 
L 269.552194 128.290443 
L 269.745096 129.658898 
L 270.168574 129.693312 
L 270.541023 130.350571 
L 270.774083 130.430334 
L 270.820859 132.071751 
L 271.143514 132.192601 
L 271.371438 137.208663 
L 276.307622 137.865242 
L 276.63438 140.591155 
L 276.715473 142.281011 
L 280.6286 144.162706 
L 280.776407 146.77747 
L 295.768205 147.704601 
L 296.487098 148.609491 
L 296.61401 149.700041 
L 296.74141 151.513774 
L 296.842425 151.754176 
L 298.979104 151.766965 
L 299.148619 153.144255 
L 299.22035 153.444958 
L 299.3878 155.869921 
L 331.124255 156.202999 
L 331.216824 159.695343 
L 331.432177 162.041963 
L 331.488972 172.266175 
L 346.088808 172.939127 
L 346.338344 178.614487 
L 346.680637 179.826629 
L 346.925767 182.727514 
L 444.65264 183.17724 
L 444.689375 185.430196 
L 444.906967 187.024657 
L 444.99502 189.771267 
L 447.735246 190.01204 
L 447.853459 199.320921 
L 448.539628 201.014298 
L 448.54426 201.825523 
L 457.301978 202.666589 
L 457.314446 215.0462 
L 457.737103 215.109838 
L 463.715136 215.258737 
L 463.727548 218.37877 
L 464.12997 218.688061 
L 464.161168 224.551431 
L 469.455524 226.009411 
L 469.471411 226.136068 
L 471.104838 229.565145 
L 471.114766 232.223219 
L 472.847708 232.612953 
L 472.931243 247.665033 
L 479.051157 248.211451 
L 479.163444 252.44335 
L 479.176179 252.958012 
L 479.194529 263.654315 
L 483.397931 263.922088 
L 483.507288 264.735351 
L 483.526567 268.932837 
L 487.221558 270.157459 
L 487.265527 284.547399 
L 489.719324 285.385005 
L 489.731312 290.093692 
L 490.605786 290.876249 
L 490.702163 298.032697 
L 491.427663 298.378564 
L 491.439519 300.963424 
L 496.151651 301.055235 
L 496.169979 309.984205 
L 496.493741 310.157201 
L 496.513726 313.362682 
L 498.690992 313.877157 
L 498.789388 320.960638 
L 498.861904 322.533784 
L 498.905637 329.138809 
L 502.713661 329.614052 
L 502.714753 330.313447 
L 504.243754 330.356758 
L 504.285935 333.688093 
L 505.579261 333.829146 
L 505.610703 340.95569 
L 506.919013 340.971569 
L 506.939647 342.61589 
L 507.267667 342.702017 
L 507.977727 342.74959 
L 508.573584 343.348093 
L 508.665619 347.051182 
L 508.757088 347.870809 
L 509.33929 348.591212 
L 509.467874 349.662609 
L 509.50623 353.575393 
L 510.009899 353.665475 
L 510.100621 358.280868 
L 511.009941 358.450774 
L 511.015845 358.780206 
L 511.434431 358.991817 
L 511.453207 360.824208 
L 512.597367 360.928006 
L 512.719262 362.384194 
L 512.786672 364.541076 
L 514.009077 364.834921 
L 514.011423 365.738574 
L 514.82546 365.846635 
L 514.889394 367.749954 
L 515.049225 367.867715 
L 515.108361 368.099158 
L 515.129281 369.481267 
L 515.310847 370.160769 
L 516.101274 371.586003 
L 516.19165 373.410734 
L 516.709622 373.604674 
L 516.750191 374.794573 
L 516.851421 378.412709 
L 516.968235 378.463372 
L 517.107677 380.600668 
L 517.110627 380.626123 
L 517.617633 380.718367 
L 517.684461 381.063864 
L 517.738357 381.315263 
L 517.75548 381.658473 
L 518.814619 381.768264 
L 518.840708 383.781435 
L 519.657731 383.876583 
L 519.752765 384.714684 
L 519.837979 384.934882 
L 519.84351 385.907796 
L 520.170644 386.141092 
L 520.293814 390.347413 
L 520.307794 391.585257 
L 522.149584 391.666997 
L 522.190202 391.801995 
L 522.229499 392.83799 
L 523.666653 392.900269 
L 523.707967 393.660769 
L 523.787764 393.667812 
L 523.799302 393.821345 
L 524.196261 394.025912 
L 524.313615 395.107133 
L 524.38265 395.799794 
L 524.794259 395.84984 
L 524.817336 396.284058 
L 525.029027 396.951758 
L 526.230263 397.072731 
L 526.240177 398.334856 
L 526.362317 398.36476 
L 526.493599 400.840076 
L 526.599444 401.093144 
L 528.573795 401.140903 
L 528.694129 402.568362 
L 528.738638 402.751799 
L 528.92306 403.839198 
L 530.307839 404.091833 
L 530.397023 404.392969 
L 530.426468 404.422069 
L 530.533643 405.498903 
L 531.012506 405.541843 
L 531.040995 406.195457 
L 531.256044 406.233145 
L 531.375649 407.83292 
L 531.501293 408.612635 
L 531.78962 409.195753 
L 531.878267 410.845634 
L 533.716351 410.996078 
L 533.792378 411.388778 
L 534.676623 411.561156 
L 534.825882 412.585165 
L 534.978332 412.681424 
L 535.063682 413.148821 
L 535.121489 413.396019 
L 535.330895 413.41962 
L 535.364875 413.632404 
L 535.70978 413.683562 
L 535.781868 414.546252 
L 535.885784 414.706026 
L 536.424361 415.657809 
L 536.526718 416.217882 
L 536.840598 416.253778 
L 536.842075 416.390136 
L 537.026151 416.887621 
L 538.112068 417.008162 
L 538.227961 417.250726 
L 538.451103 418.430616 
L 538.492991 418.508279 
L 539.388718 418.704011 
L 539.395091 419.186853 
L 539.628478 419.284225 
L 539.689436 419.954891 
L 540.003381 420.082722 
L 540.638335 420.287166 
L 540.719703 420.414132 
L 540.898135 420.796699 
L 541.106792 421.688181 
L 541.137556 421.706593 
L 541.706173 421.831149 
L 542.121985 421.901645 
L 542.510629 421.997719 
L 542.538023 422.077853 
L 543.017332 422.26302 
L 543.118477 422.425141 
L 543.223361 422.570828 
L 543.226744 422.707371 
L 543.352538 422.723682 
L 543.441821 424.10783 
L 543.655112 424.260004 
L 543.757377 424.30764 
L 543.806283 424.48323 
L 544.143376 424.506399 
L 544.205788 425.409435 
L 545.146113 425.471404 
L 545.149755 425.588176 
L 546.062661 426.540886 
L 546.160316 426.828182 
L 546.355245 427.0068 
L 546.90701 427.090147 
L 546.993645 427.580527 
L 548.409501 427.718861 
L 548.822617 427.967171 
L 550.740737 428.634439 
L 551.015464 428.849695 
L 552.979317 429.08812 
L 552.995996 429.182279 
L 553.424828 429.331981 
L 554.452785 429.716216 
L 554.78391 429.990723 
L 556.800065 430.279934 
L 556.811976 430.485119 
L 557.417799 430.619005 
L 557.535336 430.91007 
L 557.719827 431.055695 
L 557.886599 431.111733 
L 559.472106 431.274719 
L 560.190749 431.49362 
L 562.780849 431.658831 
L 566.952453 431.859073 
L 567.050045 431.974115 
L 568.481947 431.990488 
L 572.221265 432.394864 
L 581.975493 432.418095 
L 586.252548 432.892906 
L 588.655213 432.997259 
L 588.688893 433.018636 
L 590.404562 433.118479 
L 590.404562 433.118479 
" style="fill:none;stroke:#d62728;stroke-linecap:square;stroke-width:8;"/>
   </g>
   <g id="legend_1">
    <g id="patch_3">
     <path d="M 673.3475 524.585 
L 992.84 524.585 
Q 997.64 524.585 997.64 519.785 
L 997.64 29 
Q 997.64 24.2 992.84 24.2 
L 673.3475 24.2 
Q 668.5475 24.2 668.5475 29 
L 668.5475 519.785 
Q 668.5475 524.585 673.3475 524.585 
z
" style="fill:#ffffff;opacity:0.4;stroke:#cccccc;stroke-linejoin:miter;"/>
    </g>
    <g id="line2d_26">
     <path d="M 678.1475 43.63625 
L 726.1475 43.63625 
" style="fill:none;stroke:#1f77b4;stroke-linecap:square;stroke-width:8;"/>
    </g>
    <g id="line2d_27"/>
    <g id="text_14">
     <!-- Cincinnati N=10 -->
     <defs>
      <path d="M 64.40625 67.28125 
L 64.40625 56.890625 
Q 59.421875 61.53125 53.78125 63.8125 
Q 48.140625 66.109375 41.796875 66.109375 
Q 29.296875 66.109375 22.65625 58.46875 
Q 16.015625 50.828125 16.015625 36.375 
Q 16.015625 21.96875 22.65625 14.328125 
Q 29.296875 6.6875 41.796875 6.6875 
Q 48.140625 6.6875 53.78125 8.984375 
Q 59.421875 11.28125 64.40625 15.921875 
L 64.40625 5.609375 
Q 59.234375 2.09375 53.4375 0.328125 
Q 47.65625 -1.421875 41.21875 -1.421875 
Q 24.65625 -1.421875 15.125 8.703125 
Q 5.609375 18.84375 5.609375 36.375 
Q 5.609375 53.953125 15.125 64.078125 
Q 24.65625 74.21875 41.21875 74.21875 
Q 47.75 74.21875 53.53125 72.484375 
Q 59.328125 70.75 64.40625 67.28125 
z
" id="DejaVuSans-67"/>
      <path d="M 54.890625 33.015625 
L 54.890625 0 
L 45.90625 0 
L 45.90625 32.71875 
Q 45.90625 40.484375 42.875 44.328125 
Q 39.84375 48.1875 33.796875 48.1875 
Q 26.515625 48.1875 22.3125 43.546875 
Q 18.109375 38.921875 18.109375 30.90625 
L 18.109375 0 
L 9.078125 0 
L 9.078125 54.6875 
L 18.109375 54.6875 
L 18.109375 46.1875 
Q 21.34375 51.125 25.703125 53.5625 
Q 30.078125 56 35.796875 56 
Q 45.21875 56 50.046875 50.171875 
Q 54.890625 44.34375 54.890625 33.015625 
z
" id="DejaVuSans-110"/>
      <path d="M 48.78125 52.59375 
L 48.78125 44.1875 
Q 44.96875 46.296875 41.140625 47.34375 
Q 37.3125 48.390625 33.40625 48.390625 
Q 24.65625 48.390625 19.8125 42.84375 
Q 14.984375 37.3125 14.984375 27.296875 
Q 14.984375 17.28125 19.8125 11.734375 
Q 24.65625 6.203125 33.40625 6.203125 
Q 37.3125 6.203125 41.140625 7.25 
Q 44.96875 8.296875 48.78125 10.40625 
L 48.78125 2.09375 
Q 45.015625 0.34375 40.984375 -0.53125 
Q 36.96875 -1.421875 32.421875 -1.421875 
Q 20.0625 -1.421875 12.78125 6.34375 
Q 5.515625 14.109375 5.515625 27.296875 
Q 5.515625 40.671875 12.859375 48.328125 
Q 20.21875 56 33.015625 56 
Q 37.15625 56 41.109375 55.140625 
Q 45.0625 54.296875 48.78125 52.59375 
z
" id="DejaVuSans-99"/>
      <path d="M 34.28125 27.484375 
Q 23.390625 27.484375 19.1875 25 
Q 14.984375 22.515625 14.984375 16.5 
Q 14.984375 11.71875 18.140625 8.90625 
Q 21.296875 6.109375 26.703125 6.109375 
Q 34.1875 6.109375 38.703125 11.40625 
Q 43.21875 16.703125 43.21875 25.484375 
L 43.21875 27.484375 
z
M 52.203125 31.203125 
L 52.203125 0 
L 43.21875 0 
L 43.21875 8.296875 
Q 40.140625 3.328125 35.546875 0.953125 
Q 30.953125 -1.421875 24.3125 -1.421875 
Q 15.921875 -1.421875 10.953125 3.296875 
Q 6 8.015625 6 15.921875 
Q 6 25.140625 12.171875 29.828125 
Q 18.359375 34.515625 30.609375 34.515625 
L 43.21875 34.515625 
L 43.21875 35.40625 
Q 43.21875 41.609375 39.140625 45 
Q 35.0625 48.390625 27.6875 48.390625 
Q 23 48.390625 18.546875 47.265625 
Q 14.109375 46.140625 10.015625 43.890625 
L 10.015625 52.203125 
Q 14.9375 54.109375 19.578125 55.046875 
Q 24.21875 56 28.609375 56 
Q 40.484375 56 46.34375 49.84375 
Q 52.203125 43.703125 52.203125 31.203125 
z
" id="DejaVuSans-97"/>
      <path d="M 18.3125 70.21875 
L 18.3125 54.6875 
L 36.8125 54.6875 
L 36.8125 47.703125 
L 18.3125 47.703125 
L 18.3125 18.015625 
Q 18.3125 11.328125 20.140625 9.421875 
Q 21.96875 7.515625 27.59375 7.515625 
L 36.8125 7.515625 
L 36.8125 0 
L 27.59375 0 
Q 17.1875 0 13.234375 3.875 
Q 9.28125 7.765625 9.28125 18.015625 
L 9.28125 47.703125 
L 2.6875 47.703125 
L 2.6875 54.6875 
L 9.28125 54.6875 
L 9.28125 70.21875 
z
" id="DejaVuSans-116"/>
      <path d="M 9.8125 72.90625 
L 23.09375 72.90625 
L 55.421875 11.921875 
L 55.421875 72.90625 
L 64.984375 72.90625 
L 64.984375 0 
L 51.703125 0 
L 19.390625 60.984375 
L 19.390625 0 
L 9.8125 0 
z
" id="DejaVuSans-78"/>
      <path d="M 10.59375 45.40625 
L 73.1875 45.40625 
L 73.1875 37.203125 
L 10.59375 37.203125 
z
M 10.59375 25.484375 
L 73.1875 25.484375 
L 73.1875 17.1875 
L 10.59375 17.1875 
z
" id="DejaVuSans-61"/>
     </defs>
     <g transform="translate(745.3475 52.03625)scale(0.24 -0.24)">
      <use xlink:href="#DejaVuSans-67"/>
      <use x="69.824219" xlink:href="#DejaVuSans-105"/>
      <use x="97.607422" xlink:href="#DejaVuSans-110"/>
      <use x="160.986328" xlink:href="#DejaVuSans-99"/>
      <use x="215.966797" xlink:href="#DejaVuSans-105"/>
      <use x="243.75" xlink:href="#DejaVuSans-110"/>
      <use x="307.128906" xlink:href="#DejaVuSans-110"/>
      <use x="370.507812" xlink:href="#DejaVuSans-97"/>
      <use x="431.787109" xlink:href="#DejaVuSans-116"/>
      <use x="470.996094" xlink:href="#DejaVuSans-105"/>
      <use x="498.779297" xlink:href="#DejaVuSans-32"/>
      <use x="530.566406" xlink:href="#DejaVuSans-78"/>
      <use x="605.371094" xlink:href="#DejaVuSans-61"/>
      <use x="689.160156" xlink:href="#DejaVuSans-49"/>
      <use x="752.783203" xlink:href="#DejaVuSans-48"/>
     </g>
    </g>
    <g id="line2d_28">
     <path d="M 678.1475 78.86375 
L 726.1475 78.86375 
" style="fill:none;stroke:#ff7f0e;stroke-linecap:square;stroke-width:8;"/>
    </g>
    <g id="line2d_29"/>
    <g id="text_15">
     <!-- UKansasState N=10 -->
     <defs>
      <path d="M 8.6875 72.90625 
L 18.609375 72.90625 
L 18.609375 28.609375 
Q 18.609375 16.890625 22.84375 11.734375 
Q 27.09375 6.59375 36.625 6.59375 
Q 46.09375 6.59375 50.34375 11.734375 
Q 54.59375 16.890625 54.59375 28.609375 
L 54.59375 72.90625 
L 64.5 72.90625 
L 64.5 27.390625 
Q 64.5 13.140625 57.4375 5.859375 
Q 50.390625 -1.421875 36.625 -1.421875 
Q 22.796875 -1.421875 15.734375 5.859375 
Q 8.6875 13.140625 8.6875 27.390625 
z
" id="DejaVuSans-85"/>
      <path d="M 9.8125 72.90625 
L 19.671875 72.90625 
L 19.671875 42.09375 
L 52.390625 72.90625 
L 65.09375 72.90625 
L 28.90625 38.921875 
L 67.671875 0 
L 54.6875 0 
L 19.671875 35.109375 
L 19.671875 0 
L 9.8125 0 
z
" id="DejaVuSans-75"/>
      <path d="M 53.515625 70.515625 
L 53.515625 60.890625 
Q 47.90625 63.578125 42.921875 64.890625 
Q 37.9375 66.21875 33.296875 66.21875 
Q 25.25 66.21875 20.875 63.09375 
Q 16.5 59.96875 16.5 54.203125 
Q 16.5 49.359375 19.40625 46.890625 
Q 22.3125 44.4375 30.421875 42.921875 
L 36.375 41.703125 
Q 47.40625 39.59375 52.65625 34.296875 
Q 57.90625 29 57.90625 20.125 
Q 57.90625 9.515625 50.796875 4.046875 
Q 43.703125 -1.421875 29.984375 -1.421875 
Q 24.8125 -1.421875 18.96875 -0.25 
Q 13.140625 0.921875 6.890625 3.21875 
L 6.890625 13.375 
Q 12.890625 10.015625 18.65625 8.296875 
Q 24.421875 6.59375 29.984375 6.59375 
Q 38.421875 6.59375 43.015625 9.90625 
Q 47.609375 13.234375 47.609375 19.390625 
Q 47.609375 24.75 44.3125 27.78125 
Q 41.015625 30.8125 33.5 32.328125 
L 27.484375 33.5 
Q 16.453125 35.6875 11.515625 40.375 
Q 6.59375 45.0625 6.59375 53.421875 
Q 6.59375 63.09375 13.40625 68.65625 
Q 20.21875 74.21875 32.171875 74.21875 
Q 37.3125 74.21875 42.625 73.28125 
Q 47.953125 72.359375 53.515625 70.515625 
z
" id="DejaVuSans-83"/>
     </defs>
     <g transform="translate(745.3475 87.26375)scale(0.24 -0.24)">
      <use xlink:href="#DejaVuSans-85"/>
      <use x="73.193359" xlink:href="#DejaVuSans-75"/>
      <use x="138.753906" xlink:href="#DejaVuSans-97"/>
      <use x="200.033203" xlink:href="#DejaVuSans-110"/>
      <use x="263.412109" xlink:href="#DejaVuSans-115"/>
      <use x="315.511719" xlink:href="#DejaVuSans-97"/>
      <use x="376.791016" xlink:href="#DejaVuSans-115"/>
      <use x="428.890625" xlink:href="#DejaVuSans-83"/>
      <use x="492.367188" xlink:href="#DejaVuSans-116"/>
      <use x="531.576172" xlink:href="#DejaVuSans-97"/>
      <use x="592.855469" xlink:href="#DejaVuSans-116"/>
      <use x="632.064453" xlink:href="#DejaVuSans-101"/>
      <use x="693.587891" xlink:href="#DejaVuSans-32"/>
      <use x="725.375" xlink:href="#DejaVuSans-78"/>
      <use x="800.179688" xlink:href="#DejaVuSans-61"/>
      <use x="883.96875" xlink:href="#DejaVuSans-49"/>
      <use x="947.591797" xlink:href="#DejaVuSans-48"/>
     </g>
    </g>
    <g id="line2d_30">
     <path d="M 678.1475 114.09125 
L 726.1475 114.09125 
" style="fill:none;stroke:#2ca02c;stroke-linecap:square;stroke-width:8;"/>
    </g>
    <g id="line2d_31"/>
    <g id="text_16">
     <!-- ulysses16 N=16 -->
     <defs>
      <path d="M 8.5 21.578125 
L 8.5 54.6875 
L 17.484375 54.6875 
L 17.484375 21.921875 
Q 17.484375 14.15625 20.5 10.265625 
Q 23.53125 6.390625 29.59375 6.390625 
Q 36.859375 6.390625 41.078125 11.03125 
Q 45.3125 15.671875 45.3125 23.6875 
L 45.3125 54.6875 
L 54.296875 54.6875 
L 54.296875 0 
L 45.3125 0 
L 45.3125 8.40625 
Q 42.046875 3.421875 37.71875 1 
Q 33.40625 -1.421875 27.6875 -1.421875 
Q 18.265625 -1.421875 13.375 4.4375 
Q 8.5 10.296875 8.5 21.578125 
z
M 31.109375 56 
z
" id="DejaVuSans-117"/>
      <path d="M 9.421875 75.984375 
L 18.40625 75.984375 
L 18.40625 0 
L 9.421875 0 
z
" id="DejaVuSans-108"/>
      <path d="M 32.171875 -5.078125 
Q 28.375 -14.84375 24.75 -17.8125 
Q 21.140625 -20.796875 15.09375 -20.796875 
L 7.90625 -20.796875 
L 7.90625 -13.28125 
L 13.1875 -13.28125 
Q 16.890625 -13.28125 18.9375 -11.515625 
Q 21 -9.765625 23.484375 -3.21875 
L 25.09375 0.875 
L 2.984375 54.6875 
L 12.5 54.6875 
L 29.59375 11.921875 
L 46.6875 54.6875 
L 56.203125 54.6875 
z
" id="DejaVuSans-121"/>
     </defs>
     <g transform="translate(745.3475 122.49125)scale(0.24 -0.24)">
      <use xlink:href="#DejaVuSans-117"/>
      <use x="63.378906" xlink:href="#DejaVuSans-108"/>
      <use x="91.162109" xlink:href="#DejaVuSans-121"/>
      <use x="150.341797" xlink:href="#DejaVuSans-115"/>
      <use x="202.441406" xlink:href="#DejaVuSans-115"/>
      <use x="254.541016" xlink:href="#DejaVuSans-101"/>
      <use x="316.064453" xlink:href="#DejaVuSans-115"/>
      <use x="368.164062" xlink:href="#DejaVuSans-49"/>
      <use x="431.787109" xlink:href="#DejaVuSans-54"/>
      <use x="495.410156" xlink:href="#DejaVuSans-32"/>
      <use x="527.197266" xlink:href="#DejaVuSans-78"/>
      <use x="602.001953" xlink:href="#DejaVuSans-61"/>
      <use x="685.791016" xlink:href="#DejaVuSans-49"/>
      <use x="749.414062" xlink:href="#DejaVuSans-54"/>
     </g>
    </g>
    <g id="line2d_32">
     <path d="M 678.1475 149.31875 
L 726.1475 149.31875 
" style="fill:none;stroke:#d62728;stroke-linecap:square;stroke-width:8;"/>
    </g>
    <g id="line2d_33"/>
    <g id="text_17">
     <!-- Atlanta N=20 -->
     <defs>
      <path d="M 34.1875 63.1875 
L 20.796875 26.90625 
L 47.609375 26.90625 
z
M 28.609375 72.90625 
L 39.796875 72.90625 
L 67.578125 0 
L 57.328125 0 
L 50.6875 18.703125 
L 17.828125 18.703125 
L 11.1875 0 
L 0.78125 0 
z
" id="DejaVuSans-65"/>
     </defs>
     <g transform="translate(745.3475 157.71875)scale(0.24 -0.24)">
      <use xlink:href="#DejaVuSans-65"/>
      <use x="68.392578" xlink:href="#DejaVuSans-116"/>
      <use x="107.601562" xlink:href="#DejaVuSans-108"/>
      <use x="135.384766" xlink:href="#DejaVuSans-97"/>
      <use x="196.664062" xlink:href="#DejaVuSans-110"/>
      <use x="260.042969" xlink:href="#DejaVuSans-116"/>
      <use x="299.251953" xlink:href="#DejaVuSans-97"/>
      <use x="360.53125" xlink:href="#DejaVuSans-32"/>
      <use x="392.318359" xlink:href="#DejaVuSans-78"/>
      <use x="467.123047" xlink:href="#DejaVuSans-61"/>
      <use x="550.912109" xlink:href="#DejaVuSans-50"/>
      <use x="614.535156" xlink:href="#DejaVuSans-48"/>
     </g>
    </g>
    <g id="line2d_34">
     <path d="M 678.1475 184.54625 
L 726.1475 184.54625 
" style="fill:none;stroke:#9467bd;stroke-linecap:square;stroke-width:8;"/>
    </g>
    <g id="line2d_35"/>
    <g id="text_18">
     <!-- Philadelphia N=30 -->
     <defs>
      <path d="M 19.671875 64.796875 
L 19.671875 37.40625 
L 32.078125 37.40625 
Q 38.96875 37.40625 42.71875 40.96875 
Q 46.484375 44.53125 46.484375 51.125 
Q 46.484375 57.671875 42.71875 61.234375 
Q 38.96875 64.796875 32.078125 64.796875 
z
M 9.8125 72.90625 
L 32.078125 72.90625 
Q 44.34375 72.90625 50.609375 67.359375 
Q 56.890625 61.8125 56.890625 51.125 
Q 56.890625 40.328125 50.609375 34.8125 
Q 44.34375 29.296875 32.078125 29.296875 
L 19.671875 29.296875 
L 19.671875 0 
L 9.8125 0 
z
" id="DejaVuSans-80"/>
      <path d="M 54.890625 33.015625 
L 54.890625 0 
L 45.90625 0 
L 45.90625 32.71875 
Q 45.90625 40.484375 42.875 44.328125 
Q 39.84375 48.1875 33.796875 48.1875 
Q 26.515625 48.1875 22.3125 43.546875 
Q 18.109375 38.921875 18.109375 30.90625 
L 18.109375 0 
L 9.078125 0 
L 9.078125 75.984375 
L 18.109375 75.984375 
L 18.109375 46.1875 
Q 21.34375 51.125 25.703125 53.5625 
Q 30.078125 56 35.796875 56 
Q 45.21875 56 50.046875 50.171875 
Q 54.890625 44.34375 54.890625 33.015625 
z
" id="DejaVuSans-104"/>
      <path d="M 45.40625 46.390625 
L 45.40625 75.984375 
L 54.390625 75.984375 
L 54.390625 0 
L 45.40625 0 
L 45.40625 8.203125 
Q 42.578125 3.328125 38.25 0.953125 
Q 33.9375 -1.421875 27.875 -1.421875 
Q 17.96875 -1.421875 11.734375 6.484375 
Q 5.515625 14.40625 5.515625 27.296875 
Q 5.515625 40.1875 11.734375 48.09375 
Q 17.96875 56 27.875 56 
Q 33.9375 56 38.25 53.625 
Q 42.578125 51.265625 45.40625 46.390625 
z
M 14.796875 27.296875 
Q 14.796875 17.390625 18.875 11.75 
Q 22.953125 6.109375 30.078125 6.109375 
Q 37.203125 6.109375 41.296875 11.75 
Q 45.40625 17.390625 45.40625 27.296875 
Q 45.40625 37.203125 41.296875 42.84375 
Q 37.203125 48.484375 30.078125 48.484375 
Q 22.953125 48.484375 18.875 42.84375 
Q 14.796875 37.203125 14.796875 27.296875 
z
" id="DejaVuSans-100"/>
      <path d="M 18.109375 8.203125 
L 18.109375 -20.796875 
L 9.078125 -20.796875 
L 9.078125 54.6875 
L 18.109375 54.6875 
L 18.109375 46.390625 
Q 20.953125 51.265625 25.265625 53.625 
Q 29.59375 56 35.59375 56 
Q 45.5625 56 51.78125 48.09375 
Q 58.015625 40.1875 58.015625 27.296875 
Q 58.015625 14.40625 51.78125 6.484375 
Q 45.5625 -1.421875 35.59375 -1.421875 
Q 29.59375 -1.421875 25.265625 0.953125 
Q 20.953125 3.328125 18.109375 8.203125 
z
M 48.6875 27.296875 
Q 48.6875 37.203125 44.609375 42.84375 
Q 40.53125 48.484375 33.40625 48.484375 
Q 26.265625 48.484375 22.1875 42.84375 
Q 18.109375 37.203125 18.109375 27.296875 
Q 18.109375 17.390625 22.1875 11.75 
Q 26.265625 6.109375 33.40625 6.109375 
Q 40.53125 6.109375 44.609375 11.75 
Q 48.6875 17.390625 48.6875 27.296875 
z
" id="DejaVuSans-112"/>
     </defs>
     <g transform="translate(745.3475 192.94625)scale(0.24 -0.24)">
      <use xlink:href="#DejaVuSans-80"/>
      <use x="60.302734" xlink:href="#DejaVuSans-104"/>
      <use x="123.681641" xlink:href="#DejaVuSans-105"/>
      <use x="151.464844" xlink:href="#DejaVuSans-108"/>
      <use x="179.248047" xlink:href="#DejaVuSans-97"/>
      <use x="240.527344" xlink:href="#DejaVuSans-100"/>
      <use x="304.003906" xlink:href="#DejaVuSans-101"/>
      <use x="365.527344" xlink:href="#DejaVuSans-108"/>
      <use x="393.310547" xlink:href="#DejaVuSans-112"/>
      <use x="456.787109" xlink:href="#DejaVuSans-104"/>
      <use x="520.166016" xlink:href="#DejaVuSans-105"/>
      <use x="547.949219" xlink:href="#DejaVuSans-97"/>
      <use x="609.228516" xlink:href="#DejaVuSans-32"/>
      <use x="641.015625" xlink:href="#DejaVuSans-78"/>
      <use x="715.820312" xlink:href="#DejaVuSans-61"/>
      <use x="799.609375" xlink:href="#DejaVuSans-51"/>
      <use x="863.232422" xlink:href="#DejaVuSans-48"/>
     </g>
    </g>
    <g id="line2d_36">
     <path d="M 678.1475 219.77375 
L 726.1475 219.77375 
" style="fill:none;stroke:#8c564b;stroke-linecap:square;stroke-width:8;"/>
    </g>
    <g id="line2d_37"/>
    <g id="text_19">
     <!-- Boston N=40 -->
     <defs>
      <path d="M 19.671875 34.8125 
L 19.671875 8.109375 
L 35.5 8.109375 
Q 43.453125 8.109375 47.28125 11.40625 
Q 51.125 14.703125 51.125 21.484375 
Q 51.125 28.328125 47.28125 31.5625 
Q 43.453125 34.8125 35.5 34.8125 
z
M 19.671875 64.796875 
L 19.671875 42.828125 
L 34.28125 42.828125 
Q 41.5 42.828125 45.03125 45.53125 
Q 48.578125 48.25 48.578125 53.8125 
Q 48.578125 59.328125 45.03125 62.0625 
Q 41.5 64.796875 34.28125 64.796875 
z
M 9.8125 72.90625 
L 35.015625 72.90625 
Q 46.296875 72.90625 52.390625 68.21875 
Q 58.5 63.53125 58.5 54.890625 
Q 58.5 48.1875 55.375 44.234375 
Q 52.25 40.28125 46.1875 39.3125 
Q 53.46875 37.75 57.5 32.78125 
Q 61.53125 27.828125 61.53125 20.40625 
Q 61.53125 10.640625 54.890625 5.3125 
Q 48.25 0 35.984375 0 
L 9.8125 0 
z
" id="DejaVuSans-66"/>
     </defs>
     <g transform="translate(745.3475 228.17375)scale(0.24 -0.24)">
      <use xlink:href="#DejaVuSans-66"/>
      <use x="68.603516" xlink:href="#DejaVuSans-111"/>
      <use x="129.785156" xlink:href="#DejaVuSans-115"/>
      <use x="181.884766" xlink:href="#DejaVuSans-116"/>
      <use x="221.09375" xlink:href="#DejaVuSans-111"/>
      <use x="282.275391" xlink:href="#DejaVuSans-110"/>
      <use x="345.654297" xlink:href="#DejaVuSans-32"/>
      <use x="377.441406" xlink:href="#DejaVuSans-78"/>
      <use x="452.246094" xlink:href="#DejaVuSans-61"/>
      <use x="536.035156" xlink:href="#DejaVuSans-52"/>
      <use x="599.658203" xlink:href="#DejaVuSans-48"/>
     </g>
    </g>
    <g id="line2d_38">
     <path d="M 678.1475 255.00125 
L 726.1475 255.00125 
" style="fill:none;stroke:#e377c2;stroke-linecap:square;stroke-width:8;"/>
    </g>
    <g id="line2d_39"/>
    <g id="text_20">
     <!-- berlin52 N=52 -->
     <defs>
      <path d="M 48.6875 27.296875 
Q 48.6875 37.203125 44.609375 42.84375 
Q 40.53125 48.484375 33.40625 48.484375 
Q 26.265625 48.484375 22.1875 42.84375 
Q 18.109375 37.203125 18.109375 27.296875 
Q 18.109375 17.390625 22.1875 11.75 
Q 26.265625 6.109375 33.40625 6.109375 
Q 40.53125 6.109375 44.609375 11.75 
Q 48.6875 17.390625 48.6875 27.296875 
z
M 18.109375 46.390625 
Q 20.953125 51.265625 25.265625 53.625 
Q 29.59375 56 35.59375 56 
Q 45.5625 56 51.78125 48.09375 
Q 58.015625 40.1875 58.015625 27.296875 
Q 58.015625 14.40625 51.78125 6.484375 
Q 45.5625 -1.421875 35.59375 -1.421875 
Q 29.59375 -1.421875 25.265625 0.953125 
Q 20.953125 3.328125 18.109375 8.203125 
L 18.109375 0 
L 9.078125 0 
L 9.078125 75.984375 
L 18.109375 75.984375 
z
" id="DejaVuSans-98"/>
     </defs>
     <g transform="translate(745.3475 263.40125)scale(0.24 -0.24)">
      <use xlink:href="#DejaVuSans-98"/>
      <use x="63.476562" xlink:href="#DejaVuSans-101"/>
      <use x="125" xlink:href="#DejaVuSans-114"/>
      <use x="166.113281" xlink:href="#DejaVuSans-108"/>
      <use x="193.896484" xlink:href="#DejaVuSans-105"/>
      <use x="221.679688" xlink:href="#DejaVuSans-110"/>
      <use x="285.058594" xlink:href="#DejaVuSans-53"/>
      <use x="348.681641" xlink:href="#DejaVuSans-50"/>
      <use x="412.304688" xlink:href="#DejaVuSans-32"/>
      <use x="444.091797" xlink:href="#DejaVuSans-78"/>
      <use x="518.896484" xlink:href="#DejaVuSans-61"/>
      <use x="602.685547" xlink:href="#DejaVuSans-53"/>
      <use x="666.308594" xlink:href="#DejaVuSans-50"/>
     </g>
    </g>
    <g id="line2d_40">
     <path d="M 678.1475 290.22875 
L 726.1475 290.22875 
" style="fill:none;stroke:#7f7f7f;stroke-linecap:square;stroke-width:8;"/>
    </g>
    <g id="line2d_41"/>
    <g id="text_21">
     <!-- Champaign N=55 -->
     <defs>
      <path d="M 45.40625 27.984375 
Q 45.40625 37.75 41.375 43.109375 
Q 37.359375 48.484375 30.078125 48.484375 
Q 22.859375 48.484375 18.828125 43.109375 
Q 14.796875 37.75 14.796875 27.984375 
Q 14.796875 18.265625 18.828125 12.890625 
Q 22.859375 7.515625 30.078125 7.515625 
Q 37.359375 7.515625 41.375 12.890625 
Q 45.40625 18.265625 45.40625 27.984375 
z
M 54.390625 6.78125 
Q 54.390625 -7.171875 48.1875 -13.984375 
Q 42 -20.796875 29.203125 -20.796875 
Q 24.46875 -20.796875 20.265625 -20.09375 
Q 16.0625 -19.390625 12.109375 -17.921875 
L 12.109375 -9.1875 
Q 16.0625 -11.328125 19.921875 -12.34375 
Q 23.78125 -13.375 27.78125 -13.375 
Q 36.625 -13.375 41.015625 -8.765625 
Q 45.40625 -4.15625 45.40625 5.171875 
L 45.40625 9.625 
Q 42.625 4.78125 38.28125 2.390625 
Q 33.9375 0 27.875 0 
Q 17.828125 0 11.671875 7.65625 
Q 5.515625 15.328125 5.515625 27.984375 
Q 5.515625 40.671875 11.671875 48.328125 
Q 17.828125 56 27.875 56 
Q 33.9375 56 38.28125 53.609375 
Q 42.625 51.21875 45.40625 46.390625 
L 45.40625 54.6875 
L 54.390625 54.6875 
z
" id="DejaVuSans-103"/>
     </defs>
     <g transform="translate(745.3475 298.62875)scale(0.24 -0.24)">
      <use xlink:href="#DejaVuSans-67"/>
      <use x="69.824219" xlink:href="#DejaVuSans-104"/>
      <use x="133.203125" xlink:href="#DejaVuSans-97"/>
      <use x="194.482422" xlink:href="#DejaVuSans-109"/>
      <use x="291.894531" xlink:href="#DejaVuSans-112"/>
      <use x="355.371094" xlink:href="#DejaVuSans-97"/>
      <use x="416.650391" xlink:href="#DejaVuSans-105"/>
      <use x="444.433594" xlink:href="#DejaVuSans-103"/>
      <use x="507.910156" xlink:href="#DejaVuSans-110"/>
      <use x="571.289062" xlink:href="#DejaVuSans-32"/>
      <use x="603.076172" xlink:href="#DejaVuSans-78"/>
      <use x="677.880859" xlink:href="#DejaVuSans-61"/>
      <use x="761.669922" xlink:href="#DejaVuSans-53"/>
      <use x="825.292969" xlink:href="#DejaVuSans-53"/>
     </g>
    </g>
    <g id="line2d_42">
     <path d="M 678.1475 325.45625 
L 726.1475 325.45625 
" style="fill:none;stroke:#bcbd22;stroke-linecap:square;stroke-width:8;"/>
    </g>
    <g id="line2d_43"/>
    <g id="text_22">
     <!-- NYC N=68 -->
     <defs>
      <path d="M -0.203125 72.90625 
L 10.40625 72.90625 
L 30.609375 42.921875 
L 50.6875 72.90625 
L 61.28125 72.90625 
L 35.5 34.71875 
L 35.5 0 
L 25.59375 0 
L 25.59375 34.71875 
z
" id="DejaVuSans-89"/>
     </defs>
     <g transform="translate(745.3475 333.85625)scale(0.24 -0.24)">
      <use xlink:href="#DejaVuSans-78"/>
      <use x="74.804688" xlink:href="#DejaVuSans-89"/>
      <use x="135.810547" xlink:href="#DejaVuSans-67"/>
      <use x="205.634766" xlink:href="#DejaVuSans-32"/>
      <use x="237.421875" xlink:href="#DejaVuSans-78"/>
      <use x="312.226562" xlink:href="#DejaVuSans-61"/>
      <use x="396.015625" xlink:href="#DejaVuSans-54"/>
      <use x="459.638672" xlink:href="#DejaVuSans-56"/>
     </g>
    </g>
    <g id="line2d_44">
     <path d="M 678.1475 360.68375 
L 726.1475 360.68375 
" style="fill:none;stroke:#17becf;stroke-linecap:square;stroke-width:8;"/>
    </g>
    <g id="line2d_45"/>
    <g id="text_23">
     <!-- Denver N=83 -->
     <defs>
      <path d="M 19.671875 64.796875 
L 19.671875 8.109375 
L 31.59375 8.109375 
Q 46.6875 8.109375 53.6875 14.9375 
Q 60.6875 21.78125 60.6875 36.53125 
Q 60.6875 51.171875 53.6875 57.984375 
Q 46.6875 64.796875 31.59375 64.796875 
z
M 9.8125 72.90625 
L 30.078125 72.90625 
Q 51.265625 72.90625 61.171875 64.09375 
Q 71.09375 55.28125 71.09375 36.53125 
Q 71.09375 17.671875 61.125 8.828125 
Q 51.171875 0 30.078125 0 
L 9.8125 0 
z
" id="DejaVuSans-68"/>
      <path d="M 2.984375 54.6875 
L 12.5 54.6875 
L 29.59375 8.796875 
L 46.6875 54.6875 
L 56.203125 54.6875 
L 35.6875 0 
L 23.484375 0 
z
" id="DejaVuSans-118"/>
     </defs>
     <g transform="translate(745.3475 369.08375)scale(0.24 -0.24)">
      <use xlink:href="#DejaVuSans-68"/>
      <use x="77.001953" xlink:href="#DejaVuSans-101"/>
      <use x="138.525391" xlink:href="#DejaVuSans-110"/>
      <use x="201.904297" xlink:href="#DejaVuSans-118"/>
      <use x="261.083984" xlink:href="#DejaVuSans-101"/>
      <use x="322.607422" xlink:href="#DejaVuSans-114"/>
      <use x="363.720703" xlink:href="#DejaVuSans-32"/>
      <use x="395.507812" xlink:href="#DejaVuSans-78"/>
      <use x="470.3125" xlink:href="#DejaVuSans-61"/>
      <use x="554.101562" xlink:href="#DejaVuSans-56"/>
      <use x="617.724609" xlink:href="#DejaVuSans-51"/>
     </g>
    </g>
    <g id="line2d_46">
     <path d="M 678.1475 395.91125 
L 726.1475 395.91125 
" style="fill:none;stroke:#1f77b4;stroke-linecap:square;stroke-width:8;"/>
    </g>
    <g id="line2d_47"/>
    <g id="text_24">
     <!-- SanFrancisco N=99 -->
     <defs>
      <path d="M 9.8125 72.90625 
L 51.703125 72.90625 
L 51.703125 64.59375 
L 19.671875 64.59375 
L 19.671875 43.109375 
L 48.578125 43.109375 
L 48.578125 34.8125 
L 19.671875 34.8125 
L 19.671875 0 
L 9.8125 0 
z
" id="DejaVuSans-70"/>
     </defs>
     <g transform="translate(745.3475 404.31125)scale(0.24 -0.24)">
      <use xlink:href="#DejaVuSans-83"/>
      <use x="63.476562" xlink:href="#DejaVuSans-97"/>
      <use x="124.755859" xlink:href="#DejaVuSans-110"/>
      <use x="188.134766" xlink:href="#DejaVuSans-70"/>
      <use x="245.544922" xlink:href="#DejaVuSans-114"/>
      <use x="286.658203" xlink:href="#DejaVuSans-97"/>
      <use x="347.9375" xlink:href="#DejaVuSans-110"/>
      <use x="411.316406" xlink:href="#DejaVuSans-99"/>
      <use x="466.296875" xlink:href="#DejaVuSans-105"/>
      <use x="494.080078" xlink:href="#DejaVuSans-115"/>
      <use x="546.179688" xlink:href="#DejaVuSans-99"/>
      <use x="601.160156" xlink:href="#DejaVuSans-111"/>
      <use x="662.341797" xlink:href="#DejaVuSans-32"/>
      <use x="694.128906" xlink:href="#DejaVuSans-78"/>
      <use x="768.933594" xlink:href="#DejaVuSans-61"/>
      <use x="852.722656" xlink:href="#DejaVuSans-57"/>
      <use x="916.345703" xlink:href="#DejaVuSans-57"/>
     </g>
    </g>
    <g id="line2d_48">
     <path d="M 678.1475 431.13875 
L 726.1475 431.13875 
" style="fill:none;stroke:#ff7f0e;stroke-linecap:square;stroke-width:8;"/>
    </g>
    <g id="line2d_49"/>
    <g id="text_25">
     <!-- UMissouri N=106 -->
     <defs>
      <path d="M 9.8125 72.90625 
L 24.515625 72.90625 
L 43.109375 23.296875 
L 61.8125 72.90625 
L 76.515625 72.90625 
L 76.515625 0 
L 66.890625 0 
L 66.890625 64.015625 
L 48.09375 14.015625 
L 38.1875 14.015625 
L 19.390625 64.015625 
L 19.390625 0 
L 9.8125 0 
z
" id="DejaVuSans-77"/>
     </defs>
     <g transform="translate(745.3475 439.53875)scale(0.24 -0.24)">
      <use xlink:href="#DejaVuSans-85"/>
      <use x="73.193359" xlink:href="#DejaVuSans-77"/>
      <use x="159.472656" xlink:href="#DejaVuSans-105"/>
      <use x="187.255859" xlink:href="#DejaVuSans-115"/>
      <use x="239.355469" xlink:href="#DejaVuSans-115"/>
      <use x="291.455078" xlink:href="#DejaVuSans-111"/>
      <use x="352.636719" xlink:href="#DejaVuSans-117"/>
      <use x="416.015625" xlink:href="#DejaVuSans-114"/>
      <use x="457.128906" xlink:href="#DejaVuSans-105"/>
      <use x="484.912109" xlink:href="#DejaVuSans-32"/>
      <use x="516.699219" xlink:href="#DejaVuSans-78"/>
      <use x="591.503906" xlink:href="#DejaVuSans-61"/>
      <use x="675.292969" xlink:href="#DejaVuSans-49"/>
      <use x="738.916016" xlink:href="#DejaVuSans-48"/>
      <use x="802.539062" xlink:href="#DejaVuSans-54"/>
     </g>
    </g>
    <g id="line2d_50">
     <path d="M 678.1475 466.36625 
L 726.1475 466.36625 
" style="fill:none;stroke:#2ca02c;stroke-linecap:square;stroke-width:8;"/>
    </g>
    <g id="line2d_51"/>
    <g id="text_26">
     <!-- Toronto N=109 -->
     <g transform="translate(745.3475 474.76625)scale(0.24 -0.24)">
      <use xlink:href="#DejaVuSans-84"/>
      <use x="60.818359" xlink:href="#DejaVuSans-111"/>
      <use x="122" xlink:href="#DejaVuSans-114"/>
      <use x="163.082031" xlink:href="#DejaVuSans-111"/>
      <use x="224.263672" xlink:href="#DejaVuSans-110"/>
      <use x="287.642578" xlink:href="#DejaVuSans-116"/>
      <use x="326.851562" xlink:href="#DejaVuSans-111"/>
      <use x="388.033203" xlink:href="#DejaVuSans-32"/>
      <use x="419.820312" xlink:href="#DejaVuSans-78"/>
      <use x="494.625" xlink:href="#DejaVuSans-61"/>
      <use x="578.414062" xlink:href="#DejaVuSans-49"/>
      <use x="642.037109" xlink:href="#DejaVuSans-48"/>
      <use x="705.660156" xlink:href="#DejaVuSans-57"/>
     </g>
    </g>
    <g id="line2d_52">
     <path d="M 678.1475 501.59375 
L 726.1475 501.59375 
" style="fill:none;stroke:#d62728;stroke-linecap:square;stroke-width:8;"/>
    </g>
    <g id="line2d_53"/>
    <g id="text_27">
     <!-- Roanoke N=230 -->
     <defs>
      <path d="M 44.390625 34.1875 
Q 47.5625 33.109375 50.5625 29.59375 
Q 53.5625 26.078125 56.59375 19.921875 
L 66.609375 0 
L 56 0 
L 46.6875 18.703125 
Q 43.0625 26.03125 39.671875 28.421875 
Q 36.28125 30.8125 30.421875 30.8125 
L 19.671875 30.8125 
L 19.671875 0 
L 9.8125 0 
L 9.8125 72.90625 
L 32.078125 72.90625 
Q 44.578125 72.90625 50.734375 67.671875 
Q 56.890625 62.453125 56.890625 51.90625 
Q 56.890625 45.015625 53.6875 40.46875 
Q 50.484375 35.9375 44.390625 34.1875 
z
M 19.671875 64.796875 
L 19.671875 38.921875 
L 32.078125 38.921875 
Q 39.203125 38.921875 42.84375 42.21875 
Q 46.484375 45.515625 46.484375 51.90625 
Q 46.484375 58.296875 42.84375 61.546875 
Q 39.203125 64.796875 32.078125 64.796875 
z
" id="DejaVuSans-82"/>
      <path d="M 9.078125 75.984375 
L 18.109375 75.984375 
L 18.109375 31.109375 
L 44.921875 54.6875 
L 56.390625 54.6875 
L 27.390625 29.109375 
L 57.625 0 
L 45.90625 0 
L 18.109375 26.703125 
L 18.109375 0 
L 9.078125 0 
z
" id="DejaVuSans-107"/>
     </defs>
     <g transform="translate(745.3475 509.99375)scale(0.24 -0.24)">
      <use xlink:href="#DejaVuSans-82"/>
      <use x="69.419922" xlink:href="#DejaVuSans-111"/>
      <use x="130.601562" xlink:href="#DejaVuSans-97"/>
      <use x="191.880859" xlink:href="#DejaVuSans-110"/>
      <use x="255.259766" xlink:href="#DejaVuSans-111"/>
      <use x="316.441406" xlink:href="#DejaVuSans-107"/>
      <use x="374.304688" xlink:href="#DejaVuSans-101"/>
      <use x="435.828125" xlink:href="#DejaVuSans-32"/>
      <use x="467.615234" xlink:href="#DejaVuSans-78"/>
      <use x="542.419922" xlink:href="#DejaVuSans-61"/>
      <use x="626.208984" xlink:href="#DejaVuSans-50"/>
      <use x="689.832031" xlink:href="#DejaVuSans-51"/>
      <use x="753.455078" xlink:href="#DejaVuSans-48"/>
     </g>
    </g>
   </g>
  </g>
 </g>
 <defs>
  <clipPath id="p91372cec4d">
   <rect height="443.52" width="892.8" x="116.84" y="12.2"/>
  </clipPath>
 </defs>
</svg>
