<?xml version="1.0" encoding="utf-8" standalone="no"?>
<!DOCTYPE svg PUBLIC "-//W3C//DTD SVG 1.1//EN"
  "http://www.w3.org/Graphics/SVG/1.1/DTD/svg11.dtd">
<!-- Created with matplotlib (https://matplotlib.org/) -->
<svg height="401.316875pt" version="1.1" viewBox="0 0 760.934375 401.316875" width="760.934375pt" xmlns="http://www.w3.org/2000/svg" xmlns:xlink="http://www.w3.org/1999/xlink">
 <defs>
  <style type="text/css">
*{stroke-linecap:butt;stroke-linejoin:round;}
  </style>
 </defs>
 <g id="figure_1">
  <g id="patch_1">
   <path d="M 0 401.316875 
L 760.934375 401.316875 
L 760.934375 0 
L 0 0 
z
" style="fill:#ffffff;"/>
  </g>
  <g id="axes_1">
   <g id="patch_2">
    <path d="M 79.134375 344.84 
L 748.734375 344.84 
L 748.734375 12.2 
L 79.134375 12.2 
z
" style="fill:#ffffff;"/>
   </g>
   <g id="matplotlib.axis_1">
    <g id="xtick_1">
     <g id="line2d_1">
      <defs>
       <path d="M 0 5 
L 0 -5 
" id="m46aea819a6" style="stroke:#525252;stroke-width:4;"/>
      </defs>
      <g>
       <use style="fill:#525252;stroke:#525252;stroke-width:4;" x="130.382808" xlink:href="#m46aea819a6" y="344.84"/>
      </g>
     </g>
     <g id="text_1">
      <!-- 10000 -->
      <defs>
       <path d="M 12.40625 8.296875 
L 28.515625 8.296875 
L 28.515625 63.921875 
L 10.984375 60.40625 
L 10.984375 69.390625 
L 28.421875 72.90625 
L 38.28125 72.90625 
L 38.28125 8.296875 
L 54.390625 8.296875 
L 54.390625 0 
L 12.40625 0 
z
" id="DejaVuSans-49"/>
       <path d="M 31.78125 66.40625 
Q 24.171875 66.40625 20.328125 58.90625 
Q 16.5 51.421875 16.5 36.375 
Q 16.5 21.390625 20.328125 13.890625 
Q 24.171875 6.390625 31.78125 6.390625 
Q 39.453125 6.390625 43.28125 13.890625 
Q 47.125 21.390625 47.125 36.375 
Q 47.125 51.421875 43.28125 58.90625 
Q 39.453125 66.40625 31.78125 66.40625 
z
M 31.78125 74.21875 
Q 44.046875 74.21875 50.515625 64.515625 
Q 56.984375 54.828125 56.984375 36.375 
Q 56.984375 17.96875 50.515625 8.265625 
Q 44.046875 -1.421875 31.78125 -1.421875 
Q 19.53125 -1.421875 13.0625 8.265625 
Q 6.59375 17.96875 6.59375 36.375 
Q 6.59375 54.828125 13.0625 64.515625 
Q 19.53125 74.21875 31.78125 74.21875 
z
" id="DejaVuSans-48"/>
      </defs>
      <g transform="translate(101.751558 367.017187)scale(0.18 -0.18)">
       <use xlink:href="#DejaVuSans-49"/>
       <use x="63.623047" xlink:href="#DejaVuSans-48"/>
       <use x="127.246094" xlink:href="#DejaVuSans-48"/>
       <use x="190.869141" xlink:href="#DejaVuSans-48"/>
       <use x="254.492188" xlink:href="#DejaVuSans-48"/>
      </g>
     </g>
    </g>
    <g id="xtick_2">
     <g id="line2d_2">
      <g>
       <use style="fill:#525252;stroke:#525252;stroke-width:4;" x="259.170366" xlink:href="#m46aea819a6" y="344.84"/>
      </g>
     </g>
     <g id="text_2">
      <!-- 20000 -->
      <defs>
       <path d="M 19.1875 8.296875 
L 53.609375 8.296875 
L 53.609375 0 
L 7.328125 0 
L 7.328125 8.296875 
Q 12.9375 14.109375 22.625 23.890625 
Q 32.328125 33.6875 34.8125 36.53125 
Q 39.546875 41.84375 41.421875 45.53125 
Q 43.3125 49.21875 43.3125 52.78125 
Q 43.3125 58.59375 39.234375 62.25 
Q 35.15625 65.921875 28.609375 65.921875 
Q 23.96875 65.921875 18.8125 64.3125 
Q 13.671875 62.703125 7.8125 59.421875 
L 7.8125 69.390625 
Q 13.765625 71.78125 18.9375 73 
Q 24.125 74.21875 28.421875 74.21875 
Q 39.75 74.21875 46.484375 68.546875 
Q 53.21875 62.890625 53.21875 53.421875 
Q 53.21875 48.921875 51.53125 44.890625 
Q 49.859375 40.875 45.40625 35.40625 
Q 44.1875 33.984375 37.640625 27.21875 
Q 31.109375 20.453125 19.1875 8.296875 
z
" id="DejaVuSans-50"/>
      </defs>
      <g transform="translate(230.539116 367.017187)scale(0.18 -0.18)">
       <use xlink:href="#DejaVuSans-50"/>
       <use x="63.623047" xlink:href="#DejaVuSans-48"/>
       <use x="127.246094" xlink:href="#DejaVuSans-48"/>
       <use x="190.869141" xlink:href="#DejaVuSans-48"/>
       <use x="254.492188" xlink:href="#DejaVuSans-48"/>
      </g>
     </g>
    </g>
    <g id="xtick_3">
     <g id="line2d_3">
      <g>
       <use style="fill:#525252;stroke:#525252;stroke-width:4;" x="387.957925" xlink:href="#m46aea819a6" y="344.84"/>
      </g>
     </g>
     <g id="text_3">
      <!-- 30000 -->
      <defs>
       <path d="M 40.578125 39.3125 
Q 47.65625 37.796875 51.625 33 
Q 55.609375 28.21875 55.609375 21.1875 
Q 55.609375 10.40625 48.1875 4.484375 
Q 40.765625 -1.421875 27.09375 -1.421875 
Q 22.515625 -1.421875 17.65625 -0.515625 
Q 12.796875 0.390625 7.625 2.203125 
L 7.625 11.71875 
Q 11.71875 9.328125 16.59375 8.109375 
Q 21.484375 6.890625 26.8125 6.890625 
Q 36.078125 6.890625 40.9375 10.546875 
Q 45.796875 14.203125 45.796875 21.1875 
Q 45.796875 27.640625 41.28125 31.265625 
Q 36.765625 34.90625 28.71875 34.90625 
L 20.21875 34.90625 
L 20.21875 43.015625 
L 29.109375 43.015625 
Q 36.375 43.015625 40.234375 45.921875 
Q 44.09375 48.828125 44.09375 54.296875 
Q 44.09375 59.90625 40.109375 62.90625 
Q 36.140625 65.921875 28.71875 65.921875 
Q 24.65625 65.921875 20.015625 65.03125 
Q 15.375 64.15625 9.8125 62.3125 
L 9.8125 71.09375 
Q 15.4375 72.65625 20.34375 73.4375 
Q 25.25 74.21875 29.59375 74.21875 
Q 40.828125 74.21875 47.359375 69.109375 
Q 53.90625 64.015625 53.90625 55.328125 
Q 53.90625 49.265625 50.4375 45.09375 
Q 46.96875 40.921875 40.578125 39.3125 
z
" id="DejaVuSans-51"/>
      </defs>
      <g transform="translate(359.326675 367.017187)scale(0.18 -0.18)">
       <use xlink:href="#DejaVuSans-51"/>
       <use x="63.623047" xlink:href="#DejaVuSans-48"/>
       <use x="127.246094" xlink:href="#DejaVuSans-48"/>
       <use x="190.869141" xlink:href="#DejaVuSans-48"/>
       <use x="254.492188" xlink:href="#DejaVuSans-48"/>
      </g>
     </g>
    </g>
    <g id="xtick_4">
     <g id="line2d_4">
      <g>
       <use style="fill:#525252;stroke:#525252;stroke-width:4;" x="516.745483" xlink:href="#m46aea819a6" y="344.84"/>
      </g>
     </g>
     <g id="text_4">
      <!-- 40000 -->
      <defs>
       <path d="M 37.796875 64.3125 
L 12.890625 25.390625 
L 37.796875 25.390625 
z
M 35.203125 72.90625 
L 47.609375 72.90625 
L 47.609375 25.390625 
L 58.015625 25.390625 
L 58.015625 17.1875 
L 47.609375 17.1875 
L 47.609375 0 
L 37.796875 0 
L 37.796875 17.1875 
L 4.890625 17.1875 
L 4.890625 26.703125 
z
" id="DejaVuSans-52"/>
      </defs>
      <g transform="translate(488.114233 367.017187)scale(0.18 -0.18)">
       <use xlink:href="#DejaVuSans-52"/>
       <use x="63.623047" xlink:href="#DejaVuSans-48"/>
       <use x="127.246094" xlink:href="#DejaVuSans-48"/>
       <use x="190.869141" xlink:href="#DejaVuSans-48"/>
       <use x="254.492188" xlink:href="#DejaVuSans-48"/>
      </g>
     </g>
    </g>
    <g id="xtick_5">
     <g id="line2d_5">
      <g>
       <use style="fill:#525252;stroke:#525252;stroke-width:4;" x="645.533041" xlink:href="#m46aea819a6" y="344.84"/>
      </g>
     </g>
     <g id="text_5">
      <!-- 50000 -->
      <defs>
       <path d="M 10.796875 72.90625 
L 49.515625 72.90625 
L 49.515625 64.59375 
L 19.828125 64.59375 
L 19.828125 46.734375 
Q 21.96875 47.46875 24.109375 47.828125 
Q 26.265625 48.1875 28.421875 48.1875 
Q 40.625 48.1875 47.75 41.5 
Q 54.890625 34.8125 54.890625 23.390625 
Q 54.890625 11.625 47.5625 5.09375 
Q 40.234375 -1.421875 26.90625 -1.421875 
Q 22.3125 -1.421875 17.546875 -0.640625 
Q 12.796875 0.140625 7.71875 1.703125 
L 7.71875 11.625 
Q 12.109375 9.234375 16.796875 8.0625 
Q 21.484375 6.890625 26.703125 6.890625 
Q 35.15625 6.890625 40.078125 11.328125 
Q 45.015625 15.765625 45.015625 23.390625 
Q 45.015625 31 40.078125 35.4375 
Q 35.15625 39.890625 26.703125 39.890625 
Q 22.75 39.890625 18.8125 39.015625 
Q 14.890625 38.140625 10.796875 36.28125 
z
" id="DejaVuSans-53"/>
      </defs>
      <g transform="translate(616.901791 367.017187)scale(0.18 -0.18)">
       <use xlink:href="#DejaVuSans-53"/>
       <use x="63.623047" xlink:href="#DejaVuSans-48"/>
       <use x="127.246094" xlink:href="#DejaVuSans-48"/>
       <use x="190.869141" xlink:href="#DejaVuSans-48"/>
       <use x="254.492188" xlink:href="#DejaVuSans-48"/>
      </g>
     </g>
    </g>
    <g id="text_6">
     <!-- Time (ms) -->
     <defs>
      <path d="M -0.296875 72.90625 
L 61.375 72.90625 
L 61.375 64.59375 
L 35.5 64.59375 
L 35.5 0 
L 25.59375 0 
L 25.59375 64.59375 
L -0.296875 64.59375 
z
" id="DejaVuSans-84"/>
      <path d="M 9.421875 54.6875 
L 18.40625 54.6875 
L 18.40625 0 
L 9.421875 0 
z
M 9.421875 75.984375 
L 18.40625 75.984375 
L 18.40625 64.59375 
L 9.421875 64.59375 
z
" id="DejaVuSans-105"/>
      <path d="M 52 44.1875 
Q 55.375 50.25 60.0625 53.125 
Q 64.75 56 71.09375 56 
Q 79.640625 56 84.28125 50.015625 
Q 88.921875 44.046875 88.921875 33.015625 
L 88.921875 0 
L 79.890625 0 
L 79.890625 32.71875 
Q 79.890625 40.578125 77.09375 44.375 
Q 74.3125 48.1875 68.609375 48.1875 
Q 61.625 48.1875 57.5625 43.546875 
Q 53.515625 38.921875 53.515625 30.90625 
L 53.515625 0 
L 44.484375 0 
L 44.484375 32.71875 
Q 44.484375 40.625 41.703125 44.40625 
Q 38.921875 48.1875 33.109375 48.1875 
Q 26.21875 48.1875 22.15625 43.53125 
Q 18.109375 38.875 18.109375 30.90625 
L 18.109375 0 
L 9.078125 0 
L 9.078125 54.6875 
L 18.109375 54.6875 
L 18.109375 46.1875 
Q 21.1875 51.21875 25.484375 53.609375 
Q 29.78125 56 35.6875 56 
Q 41.65625 56 45.828125 52.96875 
Q 50 49.953125 52 44.1875 
z
" id="DejaVuSans-109"/>
      <path d="M 56.203125 29.59375 
L 56.203125 25.203125 
L 14.890625 25.203125 
Q 15.484375 15.921875 20.484375 11.0625 
Q 25.484375 6.203125 34.421875 6.203125 
Q 39.59375 6.203125 44.453125 7.46875 
Q 49.3125 8.734375 54.109375 11.28125 
L 54.109375 2.78125 
Q 49.265625 0.734375 44.1875 -0.34375 
Q 39.109375 -1.421875 33.890625 -1.421875 
Q 20.796875 -1.421875 13.15625 6.1875 
Q 5.515625 13.8125 5.515625 26.8125 
Q 5.515625 40.234375 12.765625 48.109375 
Q 20.015625 56 32.328125 56 
Q 43.359375 56 49.78125 48.890625 
Q 56.203125 41.796875 56.203125 29.59375 
z
M 47.21875 32.234375 
Q 47.125 39.59375 43.09375 43.984375 
Q 39.0625 48.390625 32.421875 48.390625 
Q 24.90625 48.390625 20.390625 44.140625 
Q 15.875 39.890625 15.1875 32.171875 
z
" id="DejaVuSans-101"/>
      <path id="DejaVuSans-32"/>
      <path d="M 31 75.875 
Q 24.46875 64.65625 21.28125 53.65625 
Q 18.109375 42.671875 18.109375 31.390625 
Q 18.109375 20.125 21.3125 9.0625 
Q 24.515625 -2 31 -13.1875 
L 23.1875 -13.1875 
Q 15.875 -1.703125 12.234375 9.375 
Q 8.59375 20.453125 8.59375 31.390625 
Q 8.59375 42.28125 12.203125 53.3125 
Q 15.828125 64.359375 23.1875 75.875 
z
" id="DejaVuSans-40"/>
      <path d="M 44.28125 53.078125 
L 44.28125 44.578125 
Q 40.484375 46.53125 36.375 47.5 
Q 32.28125 48.484375 27.875 48.484375 
Q 21.1875 48.484375 17.84375 46.4375 
Q 14.5 44.390625 14.5 40.28125 
Q 14.5 37.15625 16.890625 35.375 
Q 19.28125 33.59375 26.515625 31.984375 
L 29.59375 31.296875 
Q 39.15625 29.25 43.1875 25.515625 
Q 47.21875 21.78125 47.21875 15.09375 
Q 47.21875 7.46875 41.1875 3.015625 
Q 35.15625 -1.421875 24.609375 -1.421875 
Q 20.21875 -1.421875 15.453125 -0.5625 
Q 10.6875 0.296875 5.421875 2 
L 5.421875 11.28125 
Q 10.40625 8.6875 15.234375 7.390625 
Q 20.0625 6.109375 24.8125 6.109375 
Q 31.15625 6.109375 34.5625 8.28125 
Q 37.984375 10.453125 37.984375 14.40625 
Q 37.984375 18.0625 35.515625 20.015625 
Q 33.0625 21.96875 24.703125 23.78125 
L 21.578125 24.515625 
Q 13.234375 26.265625 9.515625 29.90625 
Q 5.8125 33.546875 5.8125 39.890625 
Q 5.8125 47.609375 11.28125 51.796875 
Q 16.75 56 26.8125 56 
Q 31.78125 56 36.171875 55.265625 
Q 40.578125 54.546875 44.28125 53.078125 
z
" id="DejaVuSans-115"/>
      <path d="M 8.015625 75.875 
L 15.828125 75.875 
Q 23.140625 64.359375 26.78125 53.3125 
Q 30.421875 42.28125 30.421875 31.390625 
Q 30.421875 20.453125 26.78125 9.375 
Q 23.140625 -1.703125 15.828125 -13.1875 
L 8.015625 -13.1875 
Q 14.5 -2 17.703125 9.0625 
Q 20.90625 20.125 20.90625 31.390625 
Q 20.90625 42.671875 17.703125 53.65625 
Q 14.5 64.65625 8.015625 75.875 
z
" id="DejaVuSans-41"/>
     </defs>
     <g transform="translate(363.228125 389.9575)scale(0.2 -0.2)">
      <use xlink:href="#DejaVuSans-84"/>
      <use x="61.037109" xlink:href="#DejaVuSans-105"/>
      <use x="88.820312" xlink:href="#DejaVuSans-109"/>
      <use x="186.232422" xlink:href="#DejaVuSans-101"/>
      <use x="247.755859" xlink:href="#DejaVuSans-32"/>
      <use x="279.542969" xlink:href="#DejaVuSans-40"/>
      <use x="318.556641" xlink:href="#DejaVuSans-109"/>
      <use x="415.96875" xlink:href="#DejaVuSans-115"/>
      <use x="468.068359" xlink:href="#DejaVuSans-41"/>
     </g>
    </g>
   </g>
   <g id="matplotlib.axis_2">
    <g id="ytick_1">
     <g id="line2d_6">
      <defs>
       <path d="M 5 0 
L -5 -0 
" id="m2cdb0a368a" style="stroke:#525252;stroke-width:4;"/>
      </defs>
      <g>
       <use style="fill:#525252;stroke:#525252;stroke-width:4;" x="79.134375" xlink:href="#m2cdb0a368a" y="341.676464"/>
      </g>
     </g>
     <g id="text_7">
      <!-- 9.5 -->
      <defs>
       <path d="M 10.984375 1.515625 
L 10.984375 10.5 
Q 14.703125 8.734375 18.5 7.8125 
Q 22.3125 6.890625 25.984375 6.890625 
Q 35.75 6.890625 40.890625 13.453125 
Q 46.046875 20.015625 46.78125 33.40625 
Q 43.953125 29.203125 39.59375 26.953125 
Q 35.25 24.703125 29.984375 24.703125 
Q 19.046875 24.703125 12.671875 31.3125 
Q 6.296875 37.9375 6.296875 49.421875 
Q 6.296875 60.640625 12.9375 67.421875 
Q 19.578125 74.21875 30.609375 74.21875 
Q 43.265625 74.21875 49.921875 64.515625 
Q 56.59375 54.828125 56.59375 36.375 
Q 56.59375 19.140625 48.40625 8.859375 
Q 40.234375 -1.421875 26.421875 -1.421875 
Q 22.703125 -1.421875 18.890625 -0.6875 
Q 15.09375 0.046875 10.984375 1.515625 
z
M 30.609375 32.421875 
Q 37.25 32.421875 41.125 36.953125 
Q 45.015625 41.5 45.015625 49.421875 
Q 45.015625 57.28125 41.125 61.84375 
Q 37.25 66.40625 30.609375 66.40625 
Q 23.96875 66.40625 20.09375 61.84375 
Q 16.21875 57.28125 16.21875 49.421875 
Q 16.21875 41.5 20.09375 36.953125 
Q 23.96875 32.421875 30.609375 32.421875 
z
" id="DejaVuSans-57"/>
       <path d="M 10.6875 12.40625 
L 21 12.40625 
L 21 0 
L 10.6875 0 
z
" id="DejaVuSans-46"/>
      </defs>
      <g transform="translate(42.00875 348.515057)scale(0.18 -0.18)">
       <use xlink:href="#DejaVuSans-57"/>
       <use x="63.623047" xlink:href="#DejaVuSans-46"/>
       <use x="95.410156" xlink:href="#DejaVuSans-53"/>
      </g>
     </g>
    </g>
    <g id="ytick_2">
     <g id="line2d_7">
      <g>
       <use style="fill:#525252;stroke:#525252;stroke-width:4;" x="79.134375" xlink:href="#m2cdb0a368a" y="304.096261"/>
      </g>
     </g>
     <g id="text_8">
      <!-- 9.6 -->
      <defs>
       <path d="M 33.015625 40.375 
Q 26.375 40.375 22.484375 35.828125 
Q 18.609375 31.296875 18.609375 23.390625 
Q 18.609375 15.53125 22.484375 10.953125 
Q 26.375 6.390625 33.015625 6.390625 
Q 39.65625 6.390625 43.53125 10.953125 
Q 47.40625 15.53125 47.40625 23.390625 
Q 47.40625 31.296875 43.53125 35.828125 
Q 39.65625 40.375 33.015625 40.375 
z
M 52.59375 71.296875 
L 52.59375 62.3125 
Q 48.875 64.0625 45.09375 64.984375 
Q 41.3125 65.921875 37.59375 65.921875 
Q 27.828125 65.921875 22.671875 59.328125 
Q 17.53125 52.734375 16.796875 39.40625 
Q 19.671875 43.65625 24.015625 45.921875 
Q 28.375 48.1875 33.59375 48.1875 
Q 44.578125 48.1875 50.953125 41.515625 
Q 57.328125 34.859375 57.328125 23.390625 
Q 57.328125 12.15625 50.6875 5.359375 
Q 44.046875 -1.421875 33.015625 -1.421875 
Q 20.359375 -1.421875 13.671875 8.265625 
Q 6.984375 17.96875 6.984375 36.375 
Q 6.984375 53.65625 15.1875 63.9375 
Q 23.390625 74.21875 37.203125 74.21875 
Q 40.921875 74.21875 44.703125 73.484375 
Q 48.484375 72.75 52.59375 71.296875 
z
" id="DejaVuSans-54"/>
      </defs>
      <g transform="translate(42.00875 310.934855)scale(0.18 -0.18)">
       <use xlink:href="#DejaVuSans-57"/>
       <use x="63.623047" xlink:href="#DejaVuSans-46"/>
       <use x="95.410156" xlink:href="#DejaVuSans-54"/>
      </g>
     </g>
    </g>
    <g id="ytick_3">
     <g id="line2d_8">
      <g>
       <use style="fill:#525252;stroke:#525252;stroke-width:4;" x="79.134375" xlink:href="#m2cdb0a368a" y="266.516059"/>
      </g>
     </g>
     <g id="text_9">
      <!-- 9.7 -->
      <defs>
       <path d="M 8.203125 72.90625 
L 55.078125 72.90625 
L 55.078125 68.703125 
L 28.609375 0 
L 18.3125 0 
L 43.21875 64.59375 
L 8.203125 64.59375 
z
" id="DejaVuSans-55"/>
      </defs>
      <g transform="translate(42.00875 273.354653)scale(0.18 -0.18)">
       <use xlink:href="#DejaVuSans-57"/>
       <use x="63.623047" xlink:href="#DejaVuSans-46"/>
       <use x="95.410156" xlink:href="#DejaVuSans-55"/>
      </g>
     </g>
    </g>
    <g id="ytick_4">
     <g id="line2d_9">
      <g>
       <use style="fill:#525252;stroke:#525252;stroke-width:4;" x="79.134375" xlink:href="#m2cdb0a368a" y="228.935857"/>
      </g>
     </g>
     <g id="text_10">
      <!-- 9.8 -->
      <defs>
       <path d="M 31.78125 34.625 
Q 24.75 34.625 20.71875 30.859375 
Q 16.703125 27.09375 16.703125 20.515625 
Q 16.703125 13.921875 20.71875 10.15625 
Q 24.75 6.390625 31.78125 6.390625 
Q 38.8125 6.390625 42.859375 10.171875 
Q 46.921875 13.96875 46.921875 20.515625 
Q 46.921875 27.09375 42.890625 30.859375 
Q 38.875 34.625 31.78125 34.625 
z
M 21.921875 38.8125 
Q 15.578125 40.375 12.03125 44.71875 
Q 8.5 49.078125 8.5 55.328125 
Q 8.5 64.0625 14.71875 69.140625 
Q 20.953125 74.21875 31.78125 74.21875 
Q 42.671875 74.21875 48.875 69.140625 
Q 55.078125 64.0625 55.078125 55.328125 
Q 55.078125 49.078125 51.53125 44.71875 
Q 48 40.375 41.703125 38.8125 
Q 48.828125 37.15625 52.796875 32.3125 
Q 56.78125 27.484375 56.78125 20.515625 
Q 56.78125 9.90625 50.3125 4.234375 
Q 43.84375 -1.421875 31.78125 -1.421875 
Q 19.734375 -1.421875 13.25 4.234375 
Q 6.78125 9.90625 6.78125 20.515625 
Q 6.78125 27.484375 10.78125 32.3125 
Q 14.796875 37.15625 21.921875 38.8125 
z
M 18.3125 54.390625 
Q 18.3125 48.734375 21.84375 45.5625 
Q 25.390625 42.390625 31.78125 42.390625 
Q 38.140625 42.390625 41.71875 45.5625 
Q 45.3125 48.734375 45.3125 54.390625 
Q 45.3125 60.0625 41.71875 63.234375 
Q 38.140625 66.40625 31.78125 66.40625 
Q 25.390625 66.40625 21.84375 63.234375 
Q 18.3125 60.0625 18.3125 54.390625 
z
" id="DejaVuSans-56"/>
      </defs>
      <g transform="translate(42.00875 235.774451)scale(0.18 -0.18)">
       <use xlink:href="#DejaVuSans-57"/>
       <use x="63.623047" xlink:href="#DejaVuSans-46"/>
       <use x="95.410156" xlink:href="#DejaVuSans-56"/>
      </g>
     </g>
    </g>
    <g id="ytick_5">
     <g id="line2d_10">
      <g>
       <use style="fill:#525252;stroke:#525252;stroke-width:4;" x="79.134375" xlink:href="#m2cdb0a368a" y="191.355655"/>
      </g>
     </g>
     <g id="text_11">
      <!-- 9.9 -->
      <g transform="translate(42.00875 198.194249)scale(0.18 -0.18)">
       <use xlink:href="#DejaVuSans-57"/>
       <use x="63.623047" xlink:href="#DejaVuSans-46"/>
       <use x="95.410156" xlink:href="#DejaVuSans-57"/>
      </g>
     </g>
    </g>
    <g id="ytick_6">
     <g id="line2d_11">
      <g>
       <use style="fill:#525252;stroke:#525252;stroke-width:4;" x="79.134375" xlink:href="#m2cdb0a368a" y="153.775453"/>
      </g>
     </g>
     <g id="text_12">
      <!-- 10.0 -->
      <g transform="translate(30.55625 160.614047)scale(0.18 -0.18)">
       <use xlink:href="#DejaVuSans-49"/>
       <use x="63.623047" xlink:href="#DejaVuSans-48"/>
       <use x="127.246094" xlink:href="#DejaVuSans-46"/>
       <use x="159.033203" xlink:href="#DejaVuSans-48"/>
      </g>
     </g>
    </g>
    <g id="ytick_7">
     <g id="line2d_12">
      <g>
       <use style="fill:#525252;stroke:#525252;stroke-width:4;" x="79.134375" xlink:href="#m2cdb0a368a" y="116.195251"/>
      </g>
     </g>
     <g id="text_13">
      <!-- 10.1 -->
      <g transform="translate(30.55625 123.033845)scale(0.18 -0.18)">
       <use xlink:href="#DejaVuSans-49"/>
       <use x="63.623047" xlink:href="#DejaVuSans-48"/>
       <use x="127.246094" xlink:href="#DejaVuSans-46"/>
       <use x="159.033203" xlink:href="#DejaVuSans-49"/>
      </g>
     </g>
    </g>
    <g id="ytick_8">
     <g id="line2d_13">
      <g>
       <use style="fill:#525252;stroke:#525252;stroke-width:4;" x="79.134375" xlink:href="#m2cdb0a368a" y="78.615049"/>
      </g>
     </g>
     <g id="text_14">
      <!-- 10.2 -->
      <g transform="translate(30.55625 85.453643)scale(0.18 -0.18)">
       <use xlink:href="#DejaVuSans-49"/>
       <use x="63.623047" xlink:href="#DejaVuSans-48"/>
       <use x="127.246094" xlink:href="#DejaVuSans-46"/>
       <use x="159.033203" xlink:href="#DejaVuSans-50"/>
      </g>
     </g>
    </g>
    <g id="ytick_9">
     <g id="line2d_14">
      <g>
       <use style="fill:#525252;stroke:#525252;stroke-width:4;" x="79.134375" xlink:href="#m2cdb0a368a" y="41.034847"/>
      </g>
     </g>
     <g id="text_15">
      <!-- 10.3 -->
      <g transform="translate(30.55625 47.873441)scale(0.18 -0.18)">
       <use xlink:href="#DejaVuSans-49"/>
       <use x="63.623047" xlink:href="#DejaVuSans-48"/>
       <use x="127.246094" xlink:href="#DejaVuSans-46"/>
       <use x="159.033203" xlink:href="#DejaVuSans-51"/>
      </g>
     </g>
    </g>
    <g id="text_16">
     <!-- Acceleration Magnitude -->
     <defs>
      <path d="M 34.1875 63.1875 
L 20.796875 26.90625 
L 47.609375 26.90625 
z
M 28.609375 72.90625 
L 39.796875 72.90625 
L 67.578125 0 
L 57.328125 0 
L 50.6875 18.703125 
L 17.828125 18.703125 
L 11.1875 0 
L 0.78125 0 
z
" id="DejaVuSans-65"/>
      <path d="M 48.78125 52.59375 
L 48.78125 44.1875 
Q 44.96875 46.296875 41.140625 47.34375 
Q 37.3125 48.390625 33.40625 48.390625 
Q 24.65625 48.390625 19.8125 42.84375 
Q 14.984375 37.3125 14.984375 27.296875 
Q 14.984375 17.28125 19.8125 11.734375 
Q 24.65625 6.203125 33.40625 6.203125 
Q 37.3125 6.203125 41.140625 7.25 
Q 44.96875 8.296875 48.78125 10.40625 
L 48.78125 2.09375 
Q 45.015625 0.34375 40.984375 -0.53125 
Q 36.96875 -1.421875 32.421875 -1.421875 
Q 20.0625 -1.421875 12.78125 6.34375 
Q 5.515625 14.109375 5.515625 27.296875 
Q 5.515625 40.671875 12.859375 48.328125 
Q 20.21875 56 33.015625 56 
Q 37.15625 56 41.109375 55.140625 
Q 45.0625 54.296875 48.78125 52.59375 
z
" id="DejaVuSans-99"/>
      <path d="M 9.421875 75.984375 
L 18.40625 75.984375 
L 18.40625 0 
L 9.421875 0 
z
" id="DejaVuSans-108"/>
      <path d="M 41.109375 46.296875 
Q 39.59375 47.171875 37.8125 47.578125 
Q 36.03125 48 33.890625 48 
Q 26.265625 48 22.1875 43.046875 
Q 18.109375 38.09375 18.109375 28.8125 
L 18.109375 0 
L 9.078125 0 
L 9.078125 54.6875 
L 18.109375 54.6875 
L 18.109375 46.1875 
Q 20.953125 51.171875 25.484375 53.578125 
Q 30.03125 56 36.53125 56 
Q 37.453125 56 38.578125 55.875 
Q 39.703125 55.765625 41.0625 55.515625 
z
" id="DejaVuSans-114"/>
      <path d="M 34.28125 27.484375 
Q 23.390625 27.484375 19.1875 25 
Q 14.984375 22.515625 14.984375 16.5 
Q 14.984375 11.71875 18.140625 8.90625 
Q 21.296875 6.109375 26.703125 6.109375 
Q 34.1875 6.109375 38.703125 11.40625 
Q 43.21875 16.703125 43.21875 25.484375 
L 43.21875 27.484375 
z
M 52.203125 31.203125 
L 52.203125 0 
L 43.21875 0 
L 43.21875 8.296875 
Q 40.140625 3.328125 35.546875 0.953125 
Q 30.953125 -1.421875 24.3125 -1.421875 
Q 15.921875 -1.421875 10.953125 3.296875 
Q 6 8.015625 6 15.921875 
Q 6 25.140625 12.171875 29.828125 
Q 18.359375 34.515625 30.609375 34.515625 
L 43.21875 34.515625 
L 43.21875 35.40625 
Q 43.21875 41.609375 39.140625 45 
Q 35.0625 48.390625 27.6875 48.390625 
Q 23 48.390625 18.546875 47.265625 
Q 14.109375 46.140625 10.015625 43.890625 
L 10.015625 52.203125 
Q 14.9375 54.109375 19.578125 55.046875 
Q 24.21875 56 28.609375 56 
Q 40.484375 56 46.34375 49.84375 
Q 52.203125 43.703125 52.203125 31.203125 
z
" id="DejaVuSans-97"/>
      <path d="M 18.3125 70.21875 
L 18.3125 54.6875 
L 36.8125 54.6875 
L 36.8125 47.703125 
L 18.3125 47.703125 
L 18.3125 18.015625 
Q 18.3125 11.328125 20.140625 9.421875 
Q 21.96875 7.515625 27.59375 7.515625 
L 36.8125 7.515625 
L 36.8125 0 
L 27.59375 0 
Q 17.1875 0 13.234375 3.875 
Q 9.28125 7.765625 9.28125 18.015625 
L 9.28125 47.703125 
L 2.6875 47.703125 
L 2.6875 54.6875 
L 9.28125 54.6875 
L 9.28125 70.21875 
z
" id="DejaVuSans-116"/>
      <path d="M 30.609375 48.390625 
Q 23.390625 48.390625 19.1875 42.75 
Q 14.984375 37.109375 14.984375 27.296875 
Q 14.984375 17.484375 19.15625 11.84375 
Q 23.34375 6.203125 30.609375 6.203125 
Q 37.796875 6.203125 41.984375 11.859375 
Q 46.1875 17.53125 46.1875 27.296875 
Q 46.1875 37.015625 41.984375 42.703125 
Q 37.796875 48.390625 30.609375 48.390625 
z
M 30.609375 56 
Q 42.328125 56 49.015625 48.375 
Q 55.71875 40.765625 55.71875 27.296875 
Q 55.71875 13.875 49.015625 6.21875 
Q 42.328125 -1.421875 30.609375 -1.421875 
Q 18.84375 -1.421875 12.171875 6.21875 
Q 5.515625 13.875 5.515625 27.296875 
Q 5.515625 40.765625 12.171875 48.375 
Q 18.84375 56 30.609375 56 
z
" id="DejaVuSans-111"/>
      <path d="M 54.890625 33.015625 
L 54.890625 0 
L 45.90625 0 
L 45.90625 32.71875 
Q 45.90625 40.484375 42.875 44.328125 
Q 39.84375 48.1875 33.796875 48.1875 
Q 26.515625 48.1875 22.3125 43.546875 
Q 18.109375 38.921875 18.109375 30.90625 
L 18.109375 0 
L 9.078125 0 
L 9.078125 54.6875 
L 18.109375 54.6875 
L 18.109375 46.1875 
Q 21.34375 51.125 25.703125 53.5625 
Q 30.078125 56 35.796875 56 
Q 45.21875 56 50.046875 50.171875 
Q 54.890625 44.34375 54.890625 33.015625 
z
" id="DejaVuSans-110"/>
      <path d="M 9.8125 72.90625 
L 24.515625 72.90625 
L 43.109375 23.296875 
L 61.8125 72.90625 
L 76.515625 72.90625 
L 76.515625 0 
L 66.890625 0 
L 66.890625 64.015625 
L 48.09375 14.015625 
L 38.1875 14.015625 
L 19.390625 64.015625 
L 19.390625 0 
L 9.8125 0 
z
" id="DejaVuSans-77"/>
      <path d="M 45.40625 27.984375 
Q 45.40625 37.75 41.375 43.109375 
Q 37.359375 48.484375 30.078125 48.484375 
Q 22.859375 48.484375 18.828125 43.109375 
Q 14.796875 37.75 14.796875 27.984375 
Q 14.796875 18.265625 18.828125 12.890625 
Q 22.859375 7.515625 30.078125 7.515625 
Q 37.359375 7.515625 41.375 12.890625 
Q 45.40625 18.265625 45.40625 27.984375 
z
M 54.390625 6.78125 
Q 54.390625 -7.171875 48.1875 -13.984375 
Q 42 -20.796875 29.203125 -20.796875 
Q 24.46875 -20.796875 20.265625 -20.09375 
Q 16.0625 -19.390625 12.109375 -17.921875 
L 12.109375 -9.1875 
Q 16.0625 -11.328125 19.921875 -12.34375 
Q 23.78125 -13.375 27.78125 -13.375 
Q 36.625 -13.375 41.015625 -8.765625 
Q 45.40625 -4.15625 45.40625 5.171875 
L 45.40625 9.625 
Q 42.625 4.78125 38.28125 2.390625 
Q 33.9375 0 27.875 0 
Q 17.828125 0 11.671875 7.65625 
Q 5.515625 15.328125 5.515625 27.984375 
Q 5.515625 40.671875 11.671875 48.328125 
Q 17.828125 56 27.875 56 
Q 33.9375 56 38.28125 53.609375 
Q 42.625 51.21875 45.40625 46.390625 
L 45.40625 54.6875 
L 54.390625 54.6875 
z
" id="DejaVuSans-103"/>
      <path d="M 8.5 21.578125 
L 8.5 54.6875 
L 17.484375 54.6875 
L 17.484375 21.921875 
Q 17.484375 14.15625 20.5 10.265625 
Q 23.53125 6.390625 29.59375 6.390625 
Q 36.859375 6.390625 41.078125 11.03125 
Q 45.3125 15.671875 45.3125 23.6875 
L 45.3125 54.6875 
L 54.296875 54.6875 
L 54.296875 0 
L 45.3125 0 
L 45.3125 8.40625 
Q 42.046875 3.421875 37.71875 1 
Q 33.40625 -1.421875 27.6875 -1.421875 
Q 18.265625 -1.421875 13.375 4.4375 
Q 8.5 10.296875 8.5 21.578125 
z
M 31.109375 56 
z
" id="DejaVuSans-117"/>
      <path d="M 45.40625 46.390625 
L 45.40625 75.984375 
L 54.390625 75.984375 
L 54.390625 0 
L 45.40625 0 
L 45.40625 8.203125 
Q 42.578125 3.328125 38.25 0.953125 
Q 33.9375 -1.421875 27.875 -1.421875 
Q 17.96875 -1.421875 11.734375 6.484375 
Q 5.515625 14.40625 5.515625 27.296875 
Q 5.515625 40.1875 11.734375 48.09375 
Q 17.96875 56 27.875 56 
Q 33.9375 56 38.25 53.625 
Q 42.578125 51.265625 45.40625 46.390625 
z
M 14.796875 27.296875 
Q 14.796875 17.390625 18.875 11.75 
Q 22.953125 6.109375 30.078125 6.109375 
Q 37.203125 6.109375 41.296875 11.75 
Q 45.40625 17.390625 45.40625 27.296875 
Q 45.40625 37.203125 41.296875 42.84375 
Q 37.203125 48.484375 30.078125 48.484375 
Q 22.953125 48.484375 18.875 42.84375 
Q 14.796875 37.203125 14.796875 27.296875 
z
" id="DejaVuSans-100"/>
     </defs>
     <g transform="translate(22.396875 296.991875)rotate(-90)scale(0.2 -0.2)">
      <use xlink:href="#DejaVuSans-65"/>
      <use x="68.392578" xlink:href="#DejaVuSans-99"/>
      <use x="123.373047" xlink:href="#DejaVuSans-99"/>
      <use x="178.353516" xlink:href="#DejaVuSans-101"/>
      <use x="239.876953" xlink:href="#DejaVuSans-108"/>
      <use x="267.660156" xlink:href="#DejaVuSans-101"/>
      <use x="329.183594" xlink:href="#DejaVuSans-114"/>
      <use x="370.296875" xlink:href="#DejaVuSans-97"/>
      <use x="431.576172" xlink:href="#DejaVuSans-116"/>
      <use x="470.785156" xlink:href="#DejaVuSans-105"/>
      <use x="498.568359" xlink:href="#DejaVuSans-111"/>
      <use x="559.75" xlink:href="#DejaVuSans-110"/>
      <use x="623.128906" xlink:href="#DejaVuSans-32"/>
      <use x="654.916016" xlink:href="#DejaVuSans-77"/>
      <use x="741.195312" xlink:href="#DejaVuSans-97"/>
      <use x="802.474609" xlink:href="#DejaVuSans-103"/>
      <use x="865.951172" xlink:href="#DejaVuSans-110"/>
      <use x="929.330078" xlink:href="#DejaVuSans-105"/>
      <use x="957.113281" xlink:href="#DejaVuSans-116"/>
      <use x="996.322266" xlink:href="#DejaVuSans-117"/>
      <use x="1059.701172" xlink:href="#DejaVuSans-100"/>
      <use x="1123.177734" xlink:href="#DejaVuSans-101"/>
     </g>
    </g>
   </g>
   <g id="line2d_15">
    <path clip-path="url(#p0eab593f08)" d="M 109.570739 149.851071 
L 110.420737 111.072214 
L 111.270734 86.223948 
L 112.133611 89.727622 
L 112.996488 110.178498 
L 114.709362 199.241683 
L 115.572239 199.645606 
L 116.473752 159.393366 
L 117.285113 103.270764 
L 118.14799 77.37905 
L 119.049503 81.359546 
L 119.860865 107.823479 
L 120.723741 144.986595 
L 121.625254 155.070683 
L 122.436616 155.195431 
L 123.299492 176.598739 
L 124.162369 192.541132 
L 125.875244 167.32888 
L 126.802514 161.5665 
L 127.588118 183.662253 
L 128.450995 140.343284 
L 129.32675 204.963923 
L 130.163869 234.292369 
L 131.026746 207.448894 
L 131.902501 212.922584 
L 132.73962 204.602041 
L 133.602497 211.864416 
L 134.529767 239.730605 
L 135.315372 253.754566 
L 136.178248 255.743562 
L 137.105519 229.831434 
L 137.891123 202.480064 
L 138.753999 167.743203 
L 139.629755 140.059444 
L 140.466874 133.507625 
L 142.205506 192.141443 
L 143.042625 213.702521 
L 143.905502 188.807973 
L 144.832772 169.321009 
L 145.618376 137.297698 
L 146.481253 143.291363 
L 148.194127 237.404098 
L 149.057004 213.857862 
L 149.932759 169.510062 
L 150.782757 170.330278 
L 151.632755 154.974961 
L 152.572904 130.30133 
L 153.34563 94.028867 
L 154.208506 188.152159 
L 155.110019 221.762875 
L 155.921381 264.650862 
L 156.784257 276.374573 
L 157.698649 249.422466 
L 158.497132 191.79248 
L 159.360009 118.707843 
L 160.300158 103.345513 
L 161.072883 129.265769 
L 161.93576 177.357584 
L 162.875909 246.711913 
L 163.648634 293.369843 
L 164.511511 309.843025 
L 165.413024 274.991279 
L 166.224386 187.910668 
L 167.087262 139.046276 
L 167.963018 144.134084 
L 168.800137 200.325868 
L 169.663013 265.945972 
L 170.52589 294.487264 
L 171.375888 289.802422 
L 172.238764 239.282815 
L 173.11452 170.186329 
L 173.951639 136.677621 
L 174.814516 163.364335 
L 175.690271 204.727992 
L 176.540269 238.110729 
L 178.253143 274.695373 
L 179.103141 285.659718 
L 179.966018 237.700596 
L 180.854652 138.438705 
L 181.678892 97.27254 
L 182.541769 93.489514 
L 183.417525 122.19171 
L 185.11752 226.532151 
L 185.980397 227.447387 
L 187.693271 137.262015 
L 188.556148 102.457994 
L 190.269023 81.791808 
L 191.131899 113.745861 
L 191.981897 172.784362 
L 192.844774 222.403551 
L 193.70765 252.163137 
L 194.557648 219.404389 
L 195.420525 169.582695 
L 196.29628 98.22968 
L 197.133399 73.524227 
L 197.996276 72.334637 
L 199.709151 191.699113 
L 200.572027 201.814029 
L 201.447783 184.534139 
L 202.284902 132.55 
L 203.147778 47.734484 
L 204.023534 42.313466 
L 204.860653 27.32 
L 205.72353 57.482188 
L 206.586406 162.616954 
L 207.449283 206.344139 
L 208.299281 211.259871 
L 209.162157 193.752809 
L 210.875032 74.239479 
L 211.750787 54.380418 
L 212.587906 91.35612 
L 213.450783 166.324073 
L 214.326539 212.781232 
L 215.176536 204.856638 
L 216.026534 182.063648 
L 216.915168 112.879771 
L 217.739409 94.488548 
L 218.602285 64.14489 
L 219.478041 80.476318 
L 220.31516 149.260659 
L 221.178037 207.293274 
L 222.066671 227.368649 
L 222.890911 206.584011 
L 223.753788 197.749281 
L 224.629543 140.951715 
L 225.466662 104.393 
L 226.329539 101.45919 
L 227.192416 151.238031 
L 228.90529 282.848264 
L 230.618165 208.029427 
L 231.481041 179.247875 
L 232.343918 145.341218 
L 233.206795 154.275662 
L 234.056792 194.098242 
L 235.769667 248.475397 
L 236.632544 254.260657 
L 237.508299 237.42956 
L 238.358297 205.525254 
L 239.208295 163.445534 
L 240.08405 141.617212 
L 240.934048 175.993559 
L 241.784046 239.143734 
L 242.646923 280.158435 
L 243.49692 262.307187 
L 244.346918 227.501948 
L 246.072672 119.108556 
L 246.922669 114.381227 
L 248.661302 244.619612 
L 249.511299 256.113107 
L 250.361297 257.162587 
L 252.087051 197.754168 
L 252.949927 160.17246 
L 253.812804 147.89254 
L 254.662802 186.904924 
L 255.525678 244.671341 
L 256.388555 293.546172 
L 257.238553 280.653138 
L 258.114308 216.393906 
L 259.814304 139.901479 
L 260.702938 138.186013 
L 262.390055 215.458263 
L 263.265811 230.656343 
L 264.115809 229.834135 
L 264.965806 222.0433 
L 265.828683 201.935726 
L 266.69156 173.283839 
L 267.541558 159.911194 
L 268.417313 196.471866 
L 269.267311 238.144558 
L 270.117309 244.954504 
L 270.967307 234.060896 
L 271.830183 186.153715 
L 273.555937 144.417297 
L 274.405934 169.331235 
L 275.255932 224.323592 
L 276.131688 259.915414 
L 276.994564 267.250843 
L 277.844562 241.528684 
L 279.570315 164.035029 
L 280.420313 139.294052 
L 281.296069 125.498653 
L 282.146067 147.046172 
L 282.996065 196.161056 
L 283.884699 235.633773 
L 284.721818 212.876064 
L 285.571816 168.309685 
L 286.447571 162.707587 
L 287.297569 134.893847 
L 288.147567 157.919246 
L 289.023322 202.845245 
L 289.87332 236.017573 
L 290.723318 217.978059 
L 291.586195 183.671462 
L 292.449071 138.342766 
L 293.299069 108.105841 
L 294.161946 93.170708 
L 295.024822 110.81143 
L 295.87482 177.682189 
L 296.737697 231.489441 
L 297.600574 250.24857 
L 300.176325 106.945448 
L 301.026323 94.85171 
L 301.902078 126.774911 
L 303.602074 199.443678 
L 304.490708 208.895233 
L 306.177825 156.598485 
L 307.05358 139.452273 
L 307.903578 126.626235 
L 308.753576 138.440817 
L 309.629332 190.844791 
L 310.479329 221.935605 
L 311.329327 228.383241 
L 312.192204 164.000922 
L 313.055081 130.74297 
L 313.905079 105.097961 
L 314.767955 95.824908 
L 315.630832 141.408179 
L 316.48083 194.448331 
L 317.330828 221.698769 
L 318.206583 226.832832 
L 319.056581 191.478363 
L 319.919457 174.750315 
L 320.782334 132.779743 
L 321.632332 116.983866 
L 322.508087 136.71525 
L 323.358085 192.986115 
L 324.208083 221.467472 
L 325.083839 223.820469 
L 325.933836 178.093976 
L 327.65959 116.475565 
L 328.509588 135.336205 
L 330.235341 206.664305 
L 331.085339 233.671753 
L 331.935337 229.02289 
L 332.798213 214.977079 
L 333.66109 196.006026 
L 334.511088 160.264616 
L 335.373964 146.134188 
L 336.236841 169.16168 
L 337.086839 208.191523 
L 337.949716 216.83881 
L 338.812592 218.380649 
L 339.66259 199.077511 
L 341.388343 173.207543 
L 342.238341 187.851432 
L 343.114097 212.449451 
L 344.814092 238.579912 
L 345.676969 211.752378 
L 346.539846 221.48066 
L 348.278478 172.011584 
L 349.115597 172.810003 
L 349.965595 204.249026 
L 350.84135 227.321089 
L 351.691348 233.742439 
L 352.541346 201.208563 
L 353.404223 181.514285 
L 354.267099 152.671121 
L 355.117097 151.037804 
L 356.84285 233.675303 
L 357.692848 261.446232 
L 358.568604 248.377176 
L 359.418602 231.744382 
L 361.131476 185.752749 
L 361.994353 167.052802 
L 362.844351 183.963734 
L 363.732985 246.868566 
L 364.570104 286.557947 
L 365.420102 306.652475 
L 366.308736 313.409283 
L 367.145855 275.105579 
L 367.995853 214.647728 
L 368.871608 185.903257 
L 369.708728 190.467952 
L 370.571604 225.69107 
L 371.44736 244.528822 
L 372.297357 238.346433 
L 373.147355 255.894382 
L 374.010232 264.634873 
L 374.873109 250.985928 
L 375.723106 241.806909 
L 376.598862 250.983911 
L 377.44886 280.026115 
L 378.298858 276.66524 
L 379.174613 255.109831 
L 380.024611 251.811621 
L 380.874609 251.738119 
L 381.737485 228.158307 
L 382.600362 209.83182 
L 383.45036 196.316082 
L 384.326115 205.994984 
L 385.176113 206.576552 
L 386.026111 226.973205 
L 386.914745 235.961688 
L 387.751864 225.436835 
L 388.601862 198.070666 
L 389.490496 190.332852 
L 390.314737 181.894027 
L 391.177613 175.202046 
L 392.053369 156.392786 
L 392.903367 124.956427 
L 393.753365 127.923049 
L 394.616241 132.755568 
L 395.479118 168.541569 
L 396.329116 185.273422 
L 397.191992 226.010894 
L 398.054869 254.013252 
L 398.904867 239.964664 
L 399.767744 181.614944 
L 401.480618 105.673326 
L 402.356374 105.8946 
L 403.206371 124.448096 
L 404.919246 238.410413 
L 405.782123 249.37742 
L 406.63212 219.72617 
L 408.344995 141.165505 
L 409.207872 134.858114 
L 410.083627 125.46935 
L 411.783623 202.359202 
L 412.659378 220.079284 
L 413.509376 254.506303 
L 414.359374 256.330378 
L 415.235129 211.970834 
L 416.085127 141.209153 
L 416.935125 147.345898 
L 417.810881 126.492717 
L 418.660878 173.801361 
L 419.510876 229.645614 
L 420.386632 276.723058 
L 421.23663 284.757514 
L 422.086627 260.759357 
L 423.812381 126.954307 
L 424.662379 89.108649 
L 425.538134 132.643761 
L 427.23813 240.613887 
L 428.126764 256.530154 
L 428.963883 249.343158 
L 429.813881 203.395763 
L 430.689636 147.202646 
L 431.539634 126.487598 
L 432.389632 134.762278 
L 433.278266 168.414458 
L 434.115385 224.41975 
L 434.965383 264.214248 
L 435.841139 314.326674 
L 436.691137 286.752559 
L 437.541134 212.553973 
L 439.254009 82.729405 
L 440.104007 90.67922 
L 440.992641 156.76158 
L 441.82976 249.675749 
L 442.679758 254.010956 
L 443.568392 276.838996 
L 444.405511 199.792509 
L 445.268388 155.939653 
L 446.144143 135.887041 
L 446.981262 105.762511 
L 447.844139 118.788696 
L 448.732773 170.099686 
L 449.557014 206.830515 
L 450.41989 224.171096 
L 452.995641 67.933027 
L 453.935791 62.251618 
L 455.571393 146.407189 
L 456.472905 167.169151 
L 457.284267 147.810091 
L 458.147144 84.400505 
L 459.035778 99.216876 
L 459.860018 93.319945 
L 460.722895 101.741324 
L 461.624408 108.993647 
L 462.448648 129.524189 
L 463.298646 142.43554 
L 464.238795 148.823836 
L 465.024399 171.13705 
L 465.874397 152.063909 
L 466.750153 98.176915 
L 467.600151 92.719003 
L 468.450148 111.705611 
L 469.338783 134.561009 
L 470.175902 176.326914 
L 471.0259 156.11334 
L 471.914534 105.910125 
L 472.751653 120.125084 
L 473.601651 113.208762 
L 474.5418 136.964134 
L 475.327404 180.53424 
L 477.053157 246.946001 
L 477.903155 248.192118 
L 478.753153 243.046952 
L 479.61603 220.985681 
L 480.478906 180.646557 
L 481.328904 172.682961 
L 483.054658 257.351071 
L 483.904655 296.624735 
L 485.630409 188.082242 
L 487.356162 126.81368 
L 488.20616 146.335243 
L 489.056158 207.664027 
L 489.957671 254.336759 
L 490.781911 263.918618 
L 491.631909 261.288762 
L 492.520543 265.828183 
L 493.357662 236.421543 
L 494.20766 185.7148 
L 495.083415 180.378945 
L 495.933413 226.354647 
L 496.783411 278.355191 
L 497.659167 315.850926 
L 498.509164 285.856799 
L 499.359162 242.916891 
L 500.234918 170.021813 
L 501.084916 153.482901 
L 501.934914 146.517879 
L 502.79779 161.363878 
L 503.660667 194.625966 
L 504.510665 257.706729 
L 505.38642 308.171862 
L 506.236418 329.72 
L 507.086416 318.072828 
L 508.812169 220.101485 
L 509.662167 213.949978 
L 510.56368 216.994802 
L 511.38792 259.17978 
L 512.237918 288.505294 
L 513.113674 310.753967 
L 513.963671 299.267326 
L 515.689425 229.472679 
L 516.539423 208.502125 
L 517.389421 218.843061 
L 518.278055 246.010435 
L 519.115174 243.588269 
L 519.965172 271.252852 
L 520.840927 268.616191 
L 521.690925 247.852627 
L 522.540923 223.103253 
L 523.403799 219.418302 
L 524.266676 220.481348 
L 525.116674 224.928233 
L 525.992429 251.840481 
L 526.842427 242.269304 
L 528.568181 280.088664 
L 529.418178 280.374205 
L 530.268176 236.389897 
L 531.99393 109.126409 
L 532.843928 105.596375 
L 533.732562 125.442164 
L 534.569681 155.3773 
L 535.419679 191.189315 
L 536.295434 221.8163 
L 537.145432 218.738954 
L 537.99543 199.43255 
L 538.884064 195.565343 
L 539.721183 175.061202 
L 540.571181 162.528545 
L 541.446936 154.207801 
L 543.146932 146.82011 
L 544.022688 157.804356 
L 544.872685 183.725407 
L 545.722683 187.854729 
L 546.598439 184.217921 
L 547.448437 154.010465 
L 548.298435 128.438745 
L 549.17419 117.384643 
L 550.024188 148.067613 
L 550.874186 192.758173 
L 551.749941 205.994072 
L 552.599939 216.800331 
L 553.449937 201.47945 
L 554.325692 170.924604 
L 556.025688 73.486212 
L 556.914322 79.24671 
L 557.751441 116.876469 
L 558.601439 119.898767 
L 559.490073 140.493394 
L 560.327192 186.624997 
L 561.17719 193.695988 
L 562.052946 182.994827 
L 562.902944 152.463979 
L 563.752941 102.222134 
L 564.628697 67.418416 
L 565.478695 87.255108 
L 566.328693 119.744306 
L 567.204448 175.302127 
L 568.054446 220.814782 
L 568.904444 223.972203 
L 570.630197 140.095099 
L 571.480195 108.068037 
L 572.381708 102.387916 
L 573.205948 128.862445 
L 574.931702 208.841458 
L 575.781699 213.75157 
L 576.631697 190.013196 
L 577.520331 145.951183 
L 578.344572 91.416075 
L 579.207448 83.069757 
L 580.083204 92.052515 
L 580.933202 152.564652 
L 581.7832 246.775835 
L 582.658955 287.597178 
L 583.508953 283.430897 
L 584.358951 254.795267 
L 585.234706 216.035483 
L 586.934702 130.235719 
L 587.810457 131.275229 
L 588.660455 188.926124 
L 589.510453 259.440376 
L 590.386209 291.629117 
L 591.236206 248.600237 
L 592.974838 142.332876 
L 593.811958 131.747613 
L 594.661955 150.52632 
L 595.55059 196.119435 
L 596.387709 245.627787 
L 597.237707 274.420029 
L 598.126341 268.143112 
L 598.950581 242.545312 
L 599.813458 198.777975 
L 600.702092 160.292939 
L 601.539211 134.734929 
L 602.389209 165.186196 
L 604.114962 290.082807 
L 604.96496 295.882709 
L 605.827837 272.477546 
L 606.690713 196.634844 
L 607.540711 134.668876 
L 608.403588 129.537554 
L 609.266465 138.105948 
L 610.116462 186.659053 
L 610.992218 228.399522 
L 611.842216 257.404021 
L 612.692214 277.575782 
L 613.567969 258.717393 
L 614.417967 186.683828 
L 615.267965 150.828596 
L 616.169478 137.593488 
L 616.993718 182.835332 
L 617.843716 246.364824 
L 618.73235 299.045961 
L 619.55659 298.214736 
L 620.419467 267.777562 
L 622.14522 163.397787 
L 622.995218 122.41507 
L 623.870974 142.209365 
L 624.720972 175.263912 
L 625.570969 232.456918 
L 626.446725 263.320931 
L 627.296723 278.223816 
L 628.146721 255.883914 
L 629.872474 175.556303 
L 630.722472 158.199465 
L 631.611106 172.154116 
L 632.448225 218.835576 
L 633.298223 255.104397 
L 635.023976 269.345876 
L 635.873974 237.464328 
L 637.599727 116.314779 
L 638.449725 120.791639 
L 639.338359 159.919787 
L 640.175479 213.379041 
L 641.025476 251.504522 
L 641.901232 270.107176 
L 642.75123 245.528997 
L 644.476983 150.956861 
L 645.326981 124.651307 
L 646.176979 125.69249 
L 647.039855 163.604619 
L 648.75273 269.777581 
L 649.628485 268.953656 
L 650.478483 243.222047 
L 652.204236 122.827116 
L 653.054234 129.276733 
L 653.904232 151.644218 
L 655.629986 227.44804 
L 656.479983 244.557765 
L 657.368618 238.750327 
L 659.055735 179.14947 
L 659.944369 167.655396 
L 660.781488 165.904209 
L 661.631486 178.171126 
L 662.52012 224.729537 
L 663.357239 275.936358 
L 664.207237 282.587941 
L 665.095871 252.051094 
L 665.93299 215.463439 
L 666.782988 132.036205 
L 667.645865 140.172456 
L 668.508741 158.949632 
L 670.221616 242.483089 
L 671.084493 275.388156 
L 671.93449 276.926041 
L 672.810246 248.896695 
L 673.660244 194.672241 
L 674.510242 166.976543 
L 675.385997 152.689543 
L 676.235995 180.556384 
L 677.085993 225.386432 
L 677.974627 285.655301 
L 678.811746 288.201911 
L 679.661744 266.361033 
L 681.387497 163.443924 
L 682.237495 145.218277 
L 683.11325 171.411088 
L 683.963248 213.723546 
L 684.813246 262.645472 
L 685.689002 267.47747 
L 686.539 257.102644 
L 687.388997 231.682529 
L 688.251874 199.440836 
L 689.114751 176.255866 
L 689.964749 159.869861 
L 690.840504 186.612554 
L 691.690502 227.849424 
L 692.5405 298.517467 
L 693.403376 275.314819 
L 694.253374 246.680801 
L 695.116251 199.765214 
L 695.992006 135.878776 
L 696.842004 118.996276 
L 697.692002 149.823319 
L 699.417755 260.153629 
L 700.267753 262.786115 
L 701.156387 246.4206 
L 702.843504 189.148099 
L 703.71926 146.133155 
L 704.569258 139.097363 
L 705.419256 171.726248 
L 706.295011 232.57199 
L 707.145009 278.264209 
L 707.995007 273.319893 
L 708.857883 225.790178 
L 709.72076 162.179277 
L 710.570758 129.370876 
L 711.433635 118.633776 
L 712.296511 163.147318 
L 713.146509 214.84812 
L 714.009386 253.427839 
L 714.872262 254.760493 
L 715.72226 239.904681 
L 716.598016 195.449814 
L 718.298011 120.122253 
L 718.298011 120.122253 
" style="fill:none;stroke:#1f77b4;stroke-linecap:square;stroke-width:1.5;"/>
   </g>
  </g>
 </g>
 <defs>
  <clipPath id="p0eab593f08">
   <rect height="332.64" width="669.6" x="79.134375" y="12.2"/>
  </clipPath>
 </defs>
</svg>
