<?xml version="1.0" encoding="utf-8" standalone="no"?>
<!DOCTYPE svg PUBLIC "-//W3C//DTD SVG 1.1//EN"
  "http://www.w3.org/Graphics/SVG/1.1/DTD/svg11.dtd">
<!-- Created with matplotlib (https://matplotlib.org/) -->
<svg height="401.316875pt" version="1.1" viewBox="0 0 764.565312 401.316875" width="764.565312pt" xmlns="http://www.w3.org/2000/svg" xmlns:xlink="http://www.w3.org/1999/xlink">
 <defs>
  <style type="text/css">
*{stroke-linecap:butt;stroke-linejoin:round;}
  </style>
 </defs>
 <g id="figure_1">
  <g id="patch_1">
   <path d="M 0 401.316875 
L 764.565312 401.316875 
L 764.565312 0 
L 0 0 
z
" style="fill:#ffffff;"/>
  </g>
  <g id="axes_1">
   <g id="patch_2">
    <path d="M 82.765313 344.84 
L 752.365313 344.84 
L 752.365313 12.2 
L 82.765313 12.2 
z
" style="fill:#ffffff;"/>
   </g>
   <g id="matplotlib.axis_1">
    <g id="xtick_1">
     <g id="line2d_1">
      <defs>
       <path d="M 0 5 
L 0 -5 
" id="m7be6bfe807" style="stroke:#525252;stroke-width:4;"/>
      </defs>
      <g>
       <use style="fill:#525252;stroke:#525252;stroke-width:4;" x="157.124071" xlink:href="#m7be6bfe807" y="344.84"/>
      </g>
     </g>
     <g id="text_1">
      <!-- 10000 -->
      <defs>
       <path d="M 12.40625 8.296875 
L 28.515625 8.296875 
L 28.515625 63.921875 
L 10.984375 60.40625 
L 10.984375 69.390625 
L 28.421875 72.90625 
L 38.28125 72.90625 
L 38.28125 8.296875 
L 54.390625 8.296875 
L 54.390625 0 
L 12.40625 0 
z
" id="DejaVuSans-49"/>
       <path d="M 31.78125 66.40625 
Q 24.171875 66.40625 20.328125 58.90625 
Q 16.5 51.421875 16.5 36.375 
Q 16.5 21.390625 20.328125 13.890625 
Q 24.171875 6.390625 31.78125 6.390625 
Q 39.453125 6.390625 43.28125 13.890625 
Q 47.125 21.390625 47.125 36.375 
Q 47.125 51.421875 43.28125 58.90625 
Q 39.453125 66.40625 31.78125 66.40625 
z
M 31.78125 74.21875 
Q 44.046875 74.21875 50.515625 64.515625 
Q 56.984375 54.828125 56.984375 36.375 
Q 56.984375 17.96875 50.515625 8.265625 
Q 44.046875 -1.421875 31.78125 -1.421875 
Q 19.53125 -1.421875 13.0625 8.265625 
Q 6.59375 17.96875 6.59375 36.375 
Q 6.59375 54.828125 13.0625 64.515625 
Q 19.53125 74.21875 31.78125 74.21875 
z
" id="DejaVuSans-48"/>
      </defs>
      <g transform="translate(128.492821 367.017187)scale(0.18 -0.18)">
       <use xlink:href="#DejaVuSans-49"/>
       <use x="63.623047" xlink:href="#DejaVuSans-48"/>
       <use x="127.246094" xlink:href="#DejaVuSans-48"/>
       <use x="190.869141" xlink:href="#DejaVuSans-48"/>
       <use x="254.492188" xlink:href="#DejaVuSans-48"/>
      </g>
     </g>
    </g>
    <g id="xtick_2">
     <g id="line2d_2">
      <g>
       <use style="fill:#525252;stroke:#525252;stroke-width:4;" x="280.849126" xlink:href="#m7be6bfe807" y="344.84"/>
      </g>
     </g>
     <g id="text_2">
      <!-- 20000 -->
      <defs>
       <path d="M 19.1875 8.296875 
L 53.609375 8.296875 
L 53.609375 0 
L 7.328125 0 
L 7.328125 8.296875 
Q 12.9375 14.109375 22.625 23.890625 
Q 32.328125 33.6875 34.8125 36.53125 
Q 39.546875 41.84375 41.421875 45.53125 
Q 43.3125 49.21875 43.3125 52.78125 
Q 43.3125 58.59375 39.234375 62.25 
Q 35.15625 65.921875 28.609375 65.921875 
Q 23.96875 65.921875 18.8125 64.3125 
Q 13.671875 62.703125 7.8125 59.421875 
L 7.8125 69.390625 
Q 13.765625 71.78125 18.9375 73 
Q 24.125 74.21875 28.421875 74.21875 
Q 39.75 74.21875 46.484375 68.546875 
Q 53.21875 62.890625 53.21875 53.421875 
Q 53.21875 48.921875 51.53125 44.890625 
Q 49.859375 40.875 45.40625 35.40625 
Q 44.1875 33.984375 37.640625 27.21875 
Q 31.109375 20.453125 19.1875 8.296875 
z
" id="DejaVuSans-50"/>
      </defs>
      <g transform="translate(252.217876 367.017187)scale(0.18 -0.18)">
       <use xlink:href="#DejaVuSans-50"/>
       <use x="63.623047" xlink:href="#DejaVuSans-48"/>
       <use x="127.246094" xlink:href="#DejaVuSans-48"/>
       <use x="190.869141" xlink:href="#DejaVuSans-48"/>
       <use x="254.492188" xlink:href="#DejaVuSans-48"/>
      </g>
     </g>
    </g>
    <g id="xtick_3">
     <g id="line2d_3">
      <g>
       <use style="fill:#525252;stroke:#525252;stroke-width:4;" x="404.574182" xlink:href="#m7be6bfe807" y="344.84"/>
      </g>
     </g>
     <g id="text_3">
      <!-- 30000 -->
      <defs>
       <path d="M 40.578125 39.3125 
Q 47.65625 37.796875 51.625 33 
Q 55.609375 28.21875 55.609375 21.1875 
Q 55.609375 10.40625 48.1875 4.484375 
Q 40.765625 -1.421875 27.09375 -1.421875 
Q 22.515625 -1.421875 17.65625 -0.515625 
Q 12.796875 0.390625 7.625 2.203125 
L 7.625 11.71875 
Q 11.71875 9.328125 16.59375 8.109375 
Q 21.484375 6.890625 26.8125 6.890625 
Q 36.078125 6.890625 40.9375 10.546875 
Q 45.796875 14.203125 45.796875 21.1875 
Q 45.796875 27.640625 41.28125 31.265625 
Q 36.765625 34.90625 28.71875 34.90625 
L 20.21875 34.90625 
L 20.21875 43.015625 
L 29.109375 43.015625 
Q 36.375 43.015625 40.234375 45.921875 
Q 44.09375 48.828125 44.09375 54.296875 
Q 44.09375 59.90625 40.109375 62.90625 
Q 36.140625 65.921875 28.71875 65.921875 
Q 24.65625 65.921875 20.015625 65.03125 
Q 15.375 64.15625 9.8125 62.3125 
L 9.8125 71.09375 
Q 15.4375 72.65625 20.34375 73.4375 
Q 25.25 74.21875 29.59375 74.21875 
Q 40.828125 74.21875 47.359375 69.109375 
Q 53.90625 64.015625 53.90625 55.328125 
Q 53.90625 49.265625 50.4375 45.09375 
Q 46.96875 40.921875 40.578125 39.3125 
z
" id="DejaVuSans-51"/>
      </defs>
      <g transform="translate(375.942932 367.017187)scale(0.18 -0.18)">
       <use xlink:href="#DejaVuSans-51"/>
       <use x="63.623047" xlink:href="#DejaVuSans-48"/>
       <use x="127.246094" xlink:href="#DejaVuSans-48"/>
       <use x="190.869141" xlink:href="#DejaVuSans-48"/>
       <use x="254.492188" xlink:href="#DejaVuSans-48"/>
      </g>
     </g>
    </g>
    <g id="xtick_4">
     <g id="line2d_4">
      <g>
       <use style="fill:#525252;stroke:#525252;stroke-width:4;" x="528.299237" xlink:href="#m7be6bfe807" y="344.84"/>
      </g>
     </g>
     <g id="text_4">
      <!-- 40000 -->
      <defs>
       <path d="M 37.796875 64.3125 
L 12.890625 25.390625 
L 37.796875 25.390625 
z
M 35.203125 72.90625 
L 47.609375 72.90625 
L 47.609375 25.390625 
L 58.015625 25.390625 
L 58.015625 17.1875 
L 47.609375 17.1875 
L 47.609375 0 
L 37.796875 0 
L 37.796875 17.1875 
L 4.890625 17.1875 
L 4.890625 26.703125 
z
" id="DejaVuSans-52"/>
      </defs>
      <g transform="translate(499.667987 367.017187)scale(0.18 -0.18)">
       <use xlink:href="#DejaVuSans-52"/>
       <use x="63.623047" xlink:href="#DejaVuSans-48"/>
       <use x="127.246094" xlink:href="#DejaVuSans-48"/>
       <use x="190.869141" xlink:href="#DejaVuSans-48"/>
       <use x="254.492188" xlink:href="#DejaVuSans-48"/>
      </g>
     </g>
    </g>
    <g id="xtick_5">
     <g id="line2d_5">
      <g>
       <use style="fill:#525252;stroke:#525252;stroke-width:4;" x="652.024293" xlink:href="#m7be6bfe807" y="344.84"/>
      </g>
     </g>
     <g id="text_5">
      <!-- 50000 -->
      <defs>
       <path d="M 10.796875 72.90625 
L 49.515625 72.90625 
L 49.515625 64.59375 
L 19.828125 64.59375 
L 19.828125 46.734375 
Q 21.96875 47.46875 24.109375 47.828125 
Q 26.265625 48.1875 28.421875 48.1875 
Q 40.625 48.1875 47.75 41.5 
Q 54.890625 34.8125 54.890625 23.390625 
Q 54.890625 11.625 47.5625 5.09375 
Q 40.234375 -1.421875 26.90625 -1.421875 
Q 22.3125 -1.421875 17.546875 -0.640625 
Q 12.796875 0.140625 7.71875 1.703125 
L 7.71875 11.625 
Q 12.109375 9.234375 16.796875 8.0625 
Q 21.484375 6.890625 26.703125 6.890625 
Q 35.15625 6.890625 40.078125 11.328125 
Q 45.015625 15.765625 45.015625 23.390625 
Q 45.015625 31 40.078125 35.4375 
Q 35.15625 39.890625 26.703125 39.890625 
Q 22.75 39.890625 18.8125 39.015625 
Q 14.890625 38.140625 10.796875 36.28125 
z
" id="DejaVuSans-53"/>
      </defs>
      <g transform="translate(623.393043 367.017187)scale(0.18 -0.18)">
       <use xlink:href="#DejaVuSans-53"/>
       <use x="63.623047" xlink:href="#DejaVuSans-48"/>
       <use x="127.246094" xlink:href="#DejaVuSans-48"/>
       <use x="190.869141" xlink:href="#DejaVuSans-48"/>
       <use x="254.492188" xlink:href="#DejaVuSans-48"/>
      </g>
     </g>
    </g>
    <g id="text_6">
     <!-- Time (ms) -->
     <defs>
      <path d="M -0.296875 72.90625 
L 61.375 72.90625 
L 61.375 64.59375 
L 35.5 64.59375 
L 35.5 0 
L 25.59375 0 
L 25.59375 64.59375 
L -0.296875 64.59375 
z
" id="DejaVuSans-84"/>
      <path d="M 9.421875 54.6875 
L 18.40625 54.6875 
L 18.40625 0 
L 9.421875 0 
z
M 9.421875 75.984375 
L 18.40625 75.984375 
L 18.40625 64.59375 
L 9.421875 64.59375 
z
" id="DejaVuSans-105"/>
      <path d="M 52 44.1875 
Q 55.375 50.25 60.0625 53.125 
Q 64.75 56 71.09375 56 
Q 79.640625 56 84.28125 50.015625 
Q 88.921875 44.046875 88.921875 33.015625 
L 88.921875 0 
L 79.890625 0 
L 79.890625 32.71875 
Q 79.890625 40.578125 77.09375 44.375 
Q 74.3125 48.1875 68.609375 48.1875 
Q 61.625 48.1875 57.5625 43.546875 
Q 53.515625 38.921875 53.515625 30.90625 
L 53.515625 0 
L 44.484375 0 
L 44.484375 32.71875 
Q 44.484375 40.625 41.703125 44.40625 
Q 38.921875 48.1875 33.109375 48.1875 
Q 26.21875 48.1875 22.15625 43.53125 
Q 18.109375 38.875 18.109375 30.90625 
L 18.109375 0 
L 9.078125 0 
L 9.078125 54.6875 
L 18.109375 54.6875 
L 18.109375 46.1875 
Q 21.1875 51.21875 25.484375 53.609375 
Q 29.78125 56 35.6875 56 
Q 41.65625 56 45.828125 52.96875 
Q 50 49.953125 52 44.1875 
z
" id="DejaVuSans-109"/>
      <path d="M 56.203125 29.59375 
L 56.203125 25.203125 
L 14.890625 25.203125 
Q 15.484375 15.921875 20.484375 11.0625 
Q 25.484375 6.203125 34.421875 6.203125 
Q 39.59375 6.203125 44.453125 7.46875 
Q 49.3125 8.734375 54.109375 11.28125 
L 54.109375 2.78125 
Q 49.265625 0.734375 44.1875 -0.34375 
Q 39.109375 -1.421875 33.890625 -1.421875 
Q 20.796875 -1.421875 13.15625 6.1875 
Q 5.515625 13.8125 5.515625 26.8125 
Q 5.515625 40.234375 12.765625 48.109375 
Q 20.015625 56 32.328125 56 
Q 43.359375 56 49.78125 48.890625 
Q 56.203125 41.796875 56.203125 29.59375 
z
M 47.21875 32.234375 
Q 47.125 39.59375 43.09375 43.984375 
Q 39.0625 48.390625 32.421875 48.390625 
Q 24.90625 48.390625 20.390625 44.140625 
Q 15.875 39.890625 15.1875 32.171875 
z
" id="DejaVuSans-101"/>
      <path id="DejaVuSans-32"/>
      <path d="M 31 75.875 
Q 24.46875 64.65625 21.28125 53.65625 
Q 18.109375 42.671875 18.109375 31.390625 
Q 18.109375 20.125 21.3125 9.0625 
Q 24.515625 -2 31 -13.1875 
L 23.1875 -13.1875 
Q 15.875 -1.703125 12.234375 9.375 
Q 8.59375 20.453125 8.59375 31.390625 
Q 8.59375 42.28125 12.203125 53.3125 
Q 15.828125 64.359375 23.1875 75.875 
z
" id="DejaVuSans-40"/>
      <path d="M 44.28125 53.078125 
L 44.28125 44.578125 
Q 40.484375 46.53125 36.375 47.5 
Q 32.28125 48.484375 27.875 48.484375 
Q 21.1875 48.484375 17.84375 46.4375 
Q 14.5 44.390625 14.5 40.28125 
Q 14.5 37.15625 16.890625 35.375 
Q 19.28125 33.59375 26.515625 31.984375 
L 29.59375 31.296875 
Q 39.15625 29.25 43.1875 25.515625 
Q 47.21875 21.78125 47.21875 15.09375 
Q 47.21875 7.46875 41.1875 3.015625 
Q 35.15625 -1.421875 24.609375 -1.421875 
Q 20.21875 -1.421875 15.453125 -0.5625 
Q 10.6875 0.296875 5.421875 2 
L 5.421875 11.28125 
Q 10.40625 8.6875 15.234375 7.390625 
Q 20.0625 6.109375 24.8125 6.109375 
Q 31.15625 6.109375 34.5625 8.28125 
Q 37.984375 10.453125 37.984375 14.40625 
Q 37.984375 18.0625 35.515625 20.015625 
Q 33.0625 21.96875 24.703125 23.78125 
L 21.578125 24.515625 
Q 13.234375 26.265625 9.515625 29.90625 
Q 5.8125 33.546875 5.8125 39.890625 
Q 5.8125 47.609375 11.28125 51.796875 
Q 16.75 56 26.8125 56 
Q 31.78125 56 36.171875 55.265625 
Q 40.578125 54.546875 44.28125 53.078125 
z
" id="DejaVuSans-115"/>
      <path d="M 8.015625 75.875 
L 15.828125 75.875 
Q 23.140625 64.359375 26.78125 53.3125 
Q 30.421875 42.28125 30.421875 31.390625 
Q 30.421875 20.453125 26.78125 9.375 
Q 23.140625 -1.703125 15.828125 -13.1875 
L 8.015625 -13.1875 
Q 14.5 -2 17.703125 9.0625 
Q 20.90625 20.125 20.90625 31.390625 
Q 20.90625 42.671875 17.703125 53.65625 
Q 14.5 64.65625 8.015625 75.875 
z
" id="DejaVuSans-41"/>
     </defs>
     <g transform="translate(366.859062 389.9575)scale(0.2 -0.2)">
      <use xlink:href="#DejaVuSans-84"/>
      <use x="61.037109" xlink:href="#DejaVuSans-105"/>
      <use x="88.820312" xlink:href="#DejaVuSans-109"/>
      <use x="186.232422" xlink:href="#DejaVuSans-101"/>
      <use x="247.755859" xlink:href="#DejaVuSans-32"/>
      <use x="279.542969" xlink:href="#DejaVuSans-40"/>
      <use x="318.556641" xlink:href="#DejaVuSans-109"/>
      <use x="415.96875" xlink:href="#DejaVuSans-115"/>
      <use x="468.068359" xlink:href="#DejaVuSans-41"/>
     </g>
    </g>
   </g>
   <g id="matplotlib.axis_2">
    <g id="ytick_1">
     <g id="line2d_6">
      <defs>
       <path d="M 5 0 
L -5 -0 
" id="m12d538b6ef" style="stroke:#525252;stroke-width:4;"/>
      </defs>
      <g>
       <use style="fill:#525252;stroke:#525252;stroke-width:4;" x="82.765313" xlink:href="#m12d538b6ef" y="321.574666"/>
      </g>
     </g>
     <g id="text_7">
      <!-- −5.0 -->
      <defs>
       <path d="M 10.59375 35.5 
L 73.1875 35.5 
L 73.1875 27.203125 
L 10.59375 27.203125 
z
" id="DejaVuSans-8722"/>
       <path d="M 10.6875 12.40625 
L 21 12.40625 
L 21 0 
L 10.6875 0 
z
" id="DejaVuSans-46"/>
      </defs>
      <g transform="translate(30.55625 328.41326)scale(0.18 -0.18)">
       <use xlink:href="#DejaVuSans-8722"/>
       <use x="83.789062" xlink:href="#DejaVuSans-53"/>
       <use x="147.412109" xlink:href="#DejaVuSans-46"/>
       <use x="179.199219" xlink:href="#DejaVuSans-48"/>
      </g>
     </g>
    </g>
    <g id="ytick_2">
     <g id="line2d_7">
      <g>
       <use style="fill:#525252;stroke:#525252;stroke-width:4;" x="82.765313" xlink:href="#m12d538b6ef" y="284.530843"/>
      </g>
     </g>
     <g id="text_8">
      <!-- −2.5 -->
      <g transform="translate(30.55625 291.369437)scale(0.18 -0.18)">
       <use xlink:href="#DejaVuSans-8722"/>
       <use x="83.789062" xlink:href="#DejaVuSans-50"/>
       <use x="147.412109" xlink:href="#DejaVuSans-46"/>
       <use x="179.199219" xlink:href="#DejaVuSans-53"/>
      </g>
     </g>
    </g>
    <g id="ytick_3">
     <g id="line2d_8">
      <g>
       <use style="fill:#525252;stroke:#525252;stroke-width:4;" x="82.765313" xlink:href="#m12d538b6ef" y="247.48702"/>
      </g>
     </g>
     <g id="text_9">
      <!-- 0.0 -->
      <g transform="translate(45.639688 254.325614)scale(0.18 -0.18)">
       <use xlink:href="#DejaVuSans-48"/>
       <use x="63.623047" xlink:href="#DejaVuSans-46"/>
       <use x="95.410156" xlink:href="#DejaVuSans-48"/>
      </g>
     </g>
    </g>
    <g id="ytick_4">
     <g id="line2d_9">
      <g>
       <use style="fill:#525252;stroke:#525252;stroke-width:4;" x="82.765313" xlink:href="#m12d538b6ef" y="210.443197"/>
      </g>
     </g>
     <g id="text_10">
      <!-- 2.5 -->
      <g transform="translate(45.639688 217.281791)scale(0.18 -0.18)">
       <use xlink:href="#DejaVuSans-50"/>
       <use x="63.623047" xlink:href="#DejaVuSans-46"/>
       <use x="95.410156" xlink:href="#DejaVuSans-53"/>
      </g>
     </g>
    </g>
    <g id="ytick_5">
     <g id="line2d_10">
      <g>
       <use style="fill:#525252;stroke:#525252;stroke-width:4;" x="82.765313" xlink:href="#m12d538b6ef" y="173.399374"/>
      </g>
     </g>
     <g id="text_11">
      <!-- 5.0 -->
      <g transform="translate(45.639688 180.237968)scale(0.18 -0.18)">
       <use xlink:href="#DejaVuSans-53"/>
       <use x="63.623047" xlink:href="#DejaVuSans-46"/>
       <use x="95.410156" xlink:href="#DejaVuSans-48"/>
      </g>
     </g>
    </g>
    <g id="ytick_6">
     <g id="line2d_11">
      <g>
       <use style="fill:#525252;stroke:#525252;stroke-width:4;" x="82.765313" xlink:href="#m12d538b6ef" y="136.355551"/>
      </g>
     </g>
     <g id="text_12">
      <!-- 7.5 -->
      <defs>
       <path d="M 8.203125 72.90625 
L 55.078125 72.90625 
L 55.078125 68.703125 
L 28.609375 0 
L 18.3125 0 
L 43.21875 64.59375 
L 8.203125 64.59375 
z
" id="DejaVuSans-55"/>
      </defs>
      <g transform="translate(45.639688 143.194145)scale(0.18 -0.18)">
       <use xlink:href="#DejaVuSans-55"/>
       <use x="63.623047" xlink:href="#DejaVuSans-46"/>
       <use x="95.410156" xlink:href="#DejaVuSans-53"/>
      </g>
     </g>
    </g>
    <g id="ytick_7">
     <g id="line2d_12">
      <g>
       <use style="fill:#525252;stroke:#525252;stroke-width:4;" x="82.765313" xlink:href="#m12d538b6ef" y="99.311728"/>
      </g>
     </g>
     <g id="text_13">
      <!-- 10.0 -->
      <g transform="translate(34.187188 106.150322)scale(0.18 -0.18)">
       <use xlink:href="#DejaVuSans-49"/>
       <use x="63.623047" xlink:href="#DejaVuSans-48"/>
       <use x="127.246094" xlink:href="#DejaVuSans-46"/>
       <use x="159.033203" xlink:href="#DejaVuSans-48"/>
      </g>
     </g>
    </g>
    <g id="ytick_8">
     <g id="line2d_13">
      <g>
       <use style="fill:#525252;stroke:#525252;stroke-width:4;" x="82.765313" xlink:href="#m12d538b6ef" y="62.267905"/>
      </g>
     </g>
     <g id="text_14">
      <!-- 12.5 -->
      <g transform="translate(34.187188 69.106499)scale(0.18 -0.18)">
       <use xlink:href="#DejaVuSans-49"/>
       <use x="63.623047" xlink:href="#DejaVuSans-50"/>
       <use x="127.246094" xlink:href="#DejaVuSans-46"/>
       <use x="159.033203" xlink:href="#DejaVuSans-53"/>
      </g>
     </g>
    </g>
    <g id="ytick_9">
     <g id="line2d_14">
      <g>
       <use style="fill:#525252;stroke:#525252;stroke-width:4;" x="82.765313" xlink:href="#m12d538b6ef" y="25.224082"/>
      </g>
     </g>
     <g id="text_15">
      <!-- 15.0 -->
      <g transform="translate(34.187188 32.062676)scale(0.18 -0.18)">
       <use xlink:href="#DejaVuSans-49"/>
       <use x="63.623047" xlink:href="#DejaVuSans-53"/>
       <use x="127.246094" xlink:href="#DejaVuSans-46"/>
       <use x="159.033203" xlink:href="#DejaVuSans-48"/>
      </g>
     </g>
    </g>
    <g id="text_16">
     <!-- Acceleration -->
     <defs>
      <path d="M 34.1875 63.1875 
L 20.796875 26.90625 
L 47.609375 26.90625 
z
M 28.609375 72.90625 
L 39.796875 72.90625 
L 67.578125 0 
L 57.328125 0 
L 50.6875 18.703125 
L 17.828125 18.703125 
L 11.1875 0 
L 0.78125 0 
z
" id="DejaVuSans-65"/>
      <path d="M 48.78125 52.59375 
L 48.78125 44.1875 
Q 44.96875 46.296875 41.140625 47.34375 
Q 37.3125 48.390625 33.40625 48.390625 
Q 24.65625 48.390625 19.8125 42.84375 
Q 14.984375 37.3125 14.984375 27.296875 
Q 14.984375 17.28125 19.8125 11.734375 
Q 24.65625 6.203125 33.40625 6.203125 
Q 37.3125 6.203125 41.140625 7.25 
Q 44.96875 8.296875 48.78125 10.40625 
L 48.78125 2.09375 
Q 45.015625 0.34375 40.984375 -0.53125 
Q 36.96875 -1.421875 32.421875 -1.421875 
Q 20.0625 -1.421875 12.78125 6.34375 
Q 5.515625 14.109375 5.515625 27.296875 
Q 5.515625 40.671875 12.859375 48.328125 
Q 20.21875 56 33.015625 56 
Q 37.15625 56 41.109375 55.140625 
Q 45.0625 54.296875 48.78125 52.59375 
z
" id="DejaVuSans-99"/>
      <path d="M 9.421875 75.984375 
L 18.40625 75.984375 
L 18.40625 0 
L 9.421875 0 
z
" id="DejaVuSans-108"/>
      <path d="M 41.109375 46.296875 
Q 39.59375 47.171875 37.8125 47.578125 
Q 36.03125 48 33.890625 48 
Q 26.265625 48 22.1875 43.046875 
Q 18.109375 38.09375 18.109375 28.8125 
L 18.109375 0 
L 9.078125 0 
L 9.078125 54.6875 
L 18.109375 54.6875 
L 18.109375 46.1875 
Q 20.953125 51.171875 25.484375 53.578125 
Q 30.03125 56 36.53125 56 
Q 37.453125 56 38.578125 55.875 
Q 39.703125 55.765625 41.0625 55.515625 
z
" id="DejaVuSans-114"/>
      <path d="M 34.28125 27.484375 
Q 23.390625 27.484375 19.1875 25 
Q 14.984375 22.515625 14.984375 16.5 
Q 14.984375 11.71875 18.140625 8.90625 
Q 21.296875 6.109375 26.703125 6.109375 
Q 34.1875 6.109375 38.703125 11.40625 
Q 43.21875 16.703125 43.21875 25.484375 
L 43.21875 27.484375 
z
M 52.203125 31.203125 
L 52.203125 0 
L 43.21875 0 
L 43.21875 8.296875 
Q 40.140625 3.328125 35.546875 0.953125 
Q 30.953125 -1.421875 24.3125 -1.421875 
Q 15.921875 -1.421875 10.953125 3.296875 
Q 6 8.015625 6 15.921875 
Q 6 25.140625 12.171875 29.828125 
Q 18.359375 34.515625 30.609375 34.515625 
L 43.21875 34.515625 
L 43.21875 35.40625 
Q 43.21875 41.609375 39.140625 45 
Q 35.0625 48.390625 27.6875 48.390625 
Q 23 48.390625 18.546875 47.265625 
Q 14.109375 46.140625 10.015625 43.890625 
L 10.015625 52.203125 
Q 14.9375 54.109375 19.578125 55.046875 
Q 24.21875 56 28.609375 56 
Q 40.484375 56 46.34375 49.84375 
Q 52.203125 43.703125 52.203125 31.203125 
z
" id="DejaVuSans-97"/>
      <path d="M 18.3125 70.21875 
L 18.3125 54.6875 
L 36.8125 54.6875 
L 36.8125 47.703125 
L 18.3125 47.703125 
L 18.3125 18.015625 
Q 18.3125 11.328125 20.140625 9.421875 
Q 21.96875 7.515625 27.59375 7.515625 
L 36.8125 7.515625 
L 36.8125 0 
L 27.59375 0 
Q 17.1875 0 13.234375 3.875 
Q 9.28125 7.765625 9.28125 18.015625 
L 9.28125 47.703125 
L 2.6875 47.703125 
L 2.6875 54.6875 
L 9.28125 54.6875 
L 9.28125 70.21875 
z
" id="DejaVuSans-116"/>
      <path d="M 30.609375 48.390625 
Q 23.390625 48.390625 19.1875 42.75 
Q 14.984375 37.109375 14.984375 27.296875 
Q 14.984375 17.484375 19.15625 11.84375 
Q 23.34375 6.203125 30.609375 6.203125 
Q 37.796875 6.203125 41.984375 11.859375 
Q 46.1875 17.53125 46.1875 27.296875 
Q 46.1875 37.015625 41.984375 42.703125 
Q 37.796875 48.390625 30.609375 48.390625 
z
M 30.609375 56 
Q 42.328125 56 49.015625 48.375 
Q 55.71875 40.765625 55.71875 27.296875 
Q 55.71875 13.875 49.015625 6.21875 
Q 42.328125 -1.421875 30.609375 -1.421875 
Q 18.84375 -1.421875 12.171875 6.21875 
Q 5.515625 13.875 5.515625 27.296875 
Q 5.515625 40.765625 12.171875 48.375 
Q 18.84375 56 30.609375 56 
z
" id="DejaVuSans-111"/>
      <path d="M 54.890625 33.015625 
L 54.890625 0 
L 45.90625 0 
L 45.90625 32.71875 
Q 45.90625 40.484375 42.875 44.328125 
Q 39.84375 48.1875 33.796875 48.1875 
Q 26.515625 48.1875 22.3125 43.546875 
Q 18.109375 38.921875 18.109375 30.90625 
L 18.109375 0 
L 9.078125 0 
L 9.078125 54.6875 
L 18.109375 54.6875 
L 18.109375 46.1875 
Q 21.34375 51.125 25.703125 53.5625 
Q 30.078125 56 35.796875 56 
Q 45.21875 56 50.046875 50.171875 
Q 54.890625 44.34375 54.890625 33.015625 
z
" id="DejaVuSans-110"/>
     </defs>
     <g transform="translate(22.396875 240.834062)rotate(-90)scale(0.2 -0.2)">
      <use xlink:href="#DejaVuSans-65"/>
      <use x="68.392578" xlink:href="#DejaVuSans-99"/>
      <use x="123.373047" xlink:href="#DejaVuSans-99"/>
      <use x="178.353516" xlink:href="#DejaVuSans-101"/>
      <use x="239.876953" xlink:href="#DejaVuSans-108"/>
      <use x="267.660156" xlink:href="#DejaVuSans-101"/>
      <use x="329.183594" xlink:href="#DejaVuSans-114"/>
      <use x="370.296875" xlink:href="#DejaVuSans-97"/>
      <use x="431.576172" xlink:href="#DejaVuSans-116"/>
      <use x="470.785156" xlink:href="#DejaVuSans-105"/>
      <use x="498.568359" xlink:href="#DejaVuSans-111"/>
      <use x="559.75" xlink:href="#DejaVuSans-110"/>
     </g>
    </g>
   </g>
   <g id="line2d_15">
    <path clip-path="url(#p4a46274c02)" d="M 113.201676 105.891034 
L 114.043007 110.715221 
L 114.847219 99.558595 
L 115.676177 108.084653 
L 116.517508 112.041595 
L 117.32172 110.595448 
L 118.150678 103.661927 
L 118.992009 103.721813 
L 119.796222 105.478483 
L 120.625179 115.579332 
L 121.46651 118.014715 
L 122.270723 113.929127 
L 123.099681 101.812101 
L 123.941011 82.63069 
L 124.745224 61.331072 
L 125.574182 83.320493 
L 126.415512 97.001222 
L 127.219725 106.594145 
L 128.048683 131.249622 
L 128.890013 135.616897 
L 129.694226 118.234298 
L 130.523184 88.856663 
L 131.401632 45.073008 
L 132.168727 63.458151 
L 132.997685 130.930228 
L 133.888505 110.225039 
L 134.643228 154.070799 
L 135.472186 150.187051 
L 136.375379 93.339276 
L 137.130102 74.239931 
L 137.946687 63.460369 
L 139.59223 99.69833 
L 141.262519 165.544601 
L 142.066732 155.820814 
L 142.895689 103.901473 
L 143.761765 64.285471 
L 144.541233 54.073721 
L 145.370191 93.019881 
L 146.236266 126.177017 
L 147.015734 147.73836 
L 147.844692 147.343553 
L 148.710767 98.8821 
L 149.490235 62.77722 
L 150.319193 111.136644 
L 151.148151 117.790695 
L 151.964736 88.874407 
L 152.793694 118.036895 
L 153.684514 126.403255 
L 154.439237 143.422099 
L 155.268195 34.905618 
L 156.109525 109.963313 
L 156.913738 88.217874 
L 157.742696 104.054516 
L 158.584026 123.317993 
L 159.388239 151.347074 
L 160.217197 160.285682 
L 161.108018 125.351915 
L 161.86274 90.047738 
L 162.691698 64.287689 
L 163.582519 57.063608 
L 164.337242 76.648698 
L 165.166199 90.868405 
L 166.00753 128.854164 
L 166.811743 146.627134 
L 167.640701 136.770266 
L 168.482031 93.279389 
L 169.286244 73.916101 
L 170.115202 65.134972 
L 171.006022 102.603933 
L 171.760745 108.117923 
L 172.589703 151.253917 
L 173.418661 150.570768 
L 174.235246 118.203246 
L 175.064204 80.612294 
L 175.905534 62.300346 
L 176.72212 85.742567 
L 177.538705 99.099466 
L 178.441898 97.189753 
L 179.184248 99.134954 
L 180.013206 146.682584 
L 180.879281 154.867067 
L 182.487707 115.863238 
L 183.366155 85.990985 
L 184.13325 80.922817 
L 184.962208 74.027002 
L 185.865401 111.764343 
L 186.607752 127.390272 
L 187.436709 121.383882 
L 188.339902 129.42863 
L 189.082253 123.062921 
L 190.777286 90.475816 
L 191.556754 52.556597 
L 192.385712 85.141485 
L 193.227042 102.153675 
L 194.031255 132.595958 
L 194.860213 136.843461 
L 195.689171 138.695505 
L 196.505756 107.809618 
L 197.334714 97.981585 
L 198.176044 71.640415 
L 198.980257 78.088191 
L 199.809215 118.327455 
L 200.650545 117.129726 
L 201.467131 127.860492 
L 202.283716 118.578091 
L 203.112674 117.402542 
L 203.929259 112.44971 
L 204.758217 92.906762 
L 205.61192 44.458617 
L 206.40376 98.742365 
L 207.232718 120.638629 
L 208.074049 123.828137 
L 208.890634 142.601433 
L 209.707219 140.239245 
L 210.536177 115.716849 
L 211.365135 76.36701 
L 212.18172 66.876115 
L 213.827264 114.547954 
L 214.656222 100.982562 
L 215.485179 129.033823 
L 216.301765 119.341089 
L 217.130723 137.03421 
L 217.959681 128.687812 
L 218.776266 92.784771 
L 219.605224 76.36701 
L 220.446554 56.411511 
L 221.250767 80.022302 
L 222.079725 100.204038 
L 222.933428 144.83054 
L 223.725268 143.468678 
L 224.554226 123.963436 
L 225.395556 91.518284 
L 226.199769 69.808333 
L 227.028727 27.32 
L 227.870058 113.81379 
L 228.67427 93.822803 
L 229.503228 122.215639 
L 230.332186 155.539126 
L 231.977729 119.112633 
L 232.806687 98.383046 
L 233.635645 64.513927 
L 234.45223 70.045661 
L 235.293561 86.700751 
L 236.097774 113.904729 
L 236.926732 153.882267 
L 237.768062 145.092266 
L 238.584647 104.29628 
L 239.401233 79.095171 
L 240.254936 65.057341 
L 241.046776 104.884054 
L 241.875734 101.093463 
L 242.717064 149.180071 
L 243.521277 171.788318 
L 244.350235 143.99213 
L 245.203938 77.524815 
L 245.995778 55.218218 
L 246.824736 87.401644 
L 247.666066 84.456118 
L 248.470279 104.358384 
L 249.299237 120.880393 
L 250.128195 150.910125 
L 250.957153 148.612259 
L 251.773738 100.911586 
L 252.602696 73.969333 
L 253.419281 63.748711 
L 254.248239 98.553834 
L 255.077197 118.382905 
L 255.906155 151.806203 
L 256.72274 164.754987 
L 258.368284 96.666301 
L 259.197242 75.910098 
L 260.038572 70.835275 
L 260.855157 77.895223 
L 261.671743 104.34064 
L 262.513073 118.895267 
L 263.329658 141.259533 
L 264.146244 147.43671 
L 264.975202 101.108989 
L 265.791787 78.888895 
L 266.608372 65.117227 
L 267.462075 84.952953 
L 269.082873 140.505407 
L 269.936576 149.929761 
L 270.753162 130.732824 
L 271.569747 96.329163 
L 272.386332 78.695927 
L 273.227663 70.265245 
L 275.702164 126.225813 
L 276.518749 140.024097 
L 277.347707 137.885929 
L 278.176665 118.360725 
L 279.834581 46.359458 
L 280.651166 102.202472 
L 281.467752 118.921884 
L 282.321454 128.565821 
L 283.125667 144.193969 
L 283.942253 119.032784 
L 284.783583 85.77362 
L 285.600168 74.497221 
L 286.416754 96.726188 
L 287.245712 100.794031 
L 288.074669 108.894229 
L 288.891255 127.809478 
L 289.732585 135.344081 
L 290.549171 123.754943 
L 291.365756 72.476608 
L 292.182341 70.302951 
L 293.011299 55.309156 
L 293.840257 110.923714 
L 294.669215 130.21159 
L 295.4858 164.697318 
L 296.302386 162.29077 
L 297.972674 76.965874 
L 298.789259 55.184947 
L 299.63059 62.51993 
L 300.447175 83.049895 
L 301.26376 112.172458 
L 302.105091 116.357856 
L 302.921676 134.297177 
L 303.738262 136.129259 
L 304.591964 92.163727 
L 305.396177 82.876889 
L 306.212763 70.555805 
L 307.054093 120.913663 
L 307.870678 111.735509 
L 308.687264 146.45191 
L 309.528594 136.056065 
L 310.345179 112.538431 
L 311.161765 72.516532 
L 311.990723 58.352276 
L 312.819681 60.277514 
L 313.636266 96.979041 
L 315.294182 141.299457 
L 316.110767 148.257376 
L 316.939725 137.903673 
L 317.768683 83.903831 
L 318.585268 64.10803 
L 319.426599 70.050097 
L 321.059769 145.855264 
L 321.9011 155.667771 
L 322.717685 117.520097 
L 325.192186 56.384895 
L 326.008771 87.412734 
L 326.850102 100.609935 
L 328.483273 142.971842 
L 329.324603 145.866354 
L 330.141188 122.180151 
L 331.786732 53.654516 
L 332.615689 77.021325 
L 333.432275 118.347417 
L 334.261233 133.057306 
L 335.090191 165.997076 
L 335.906776 133.07505 
L 336.723361 86.008729 
L 337.564692 65.627371 
L 338.381277 63.597886 
L 339.210235 112.671512 
L 340.039193 96.202736 
L 340.855778 129.022733 
L 341.697109 154.603123 
L 342.513694 146.252289 
L 343.330279 98.970821 
L 344.17161 76.391408 
L 344.988195 60.798748 
L 345.80478 116.273571 
L 346.646111 119.498568 
L 347.462696 142.594779 
L 348.279281 140.767133 
L 349.120612 115.62591 
L 349.937197 86.510001 
L 350.753783 80.922817 
L 351.58274 92.755937 
L 352.411698 110.874918 
L 353.228284 106.059603 
L 354.057242 130.011968 
L 354.886199 138.429343 
L 355.702785 126.589568 
L 356.531743 64.724638 
L 357.360701 85.724823 
L 358.177286 102.524084 
L 359.018616 113.186092 
L 359.835202 150.499791 
L 360.651787 154.079671 
L 362.309703 82.271371 
L 363.126288 72.838145 
L 363.955246 76.719674 
L 364.784204 119.032784 
L 365.600789 106.929066 
L 367.258705 145.833084 
L 368.07529 133.864664 
L 368.916621 103.761737 
L 369.733206 70.351748 
L 370.549791 81.801151 
L 371.378749 100.487944 
L 372.207707 114.031156 
L 373.024293 139.966429 
L 373.840878 160.906727 
L 375.498794 109.515274 
L 376.340124 65.713874 
L 377.156709 81.781189 
L 377.973295 81.67916 
L 378.802253 113.793828 
L 379.631211 119.097107 
L 380.447796 143.548526 
L 381.301499 136.77692 
L 382.105712 137.167291 
L 382.922297 129.827873 
L 383.776 125.746722 
L 384.580213 110.64868 
L 385.396798 85.813544 
L 386.238128 87.321796 
L 387.042341 87.042325 
L 387.871299 119.263458 
L 388.71263 96.719534 
L 389.529215 101.563683 
L 390.3458 127.758463 
L 391.174758 142.109033 
L 392.003716 133.305724 
L 393.661632 104.677778 
L 394.478217 99.585211 
L 395.294803 77.158842 
L 396.136133 81.659198 
L 397.769304 146.815665 
L 398.598262 138.345058 
L 399.427219 115.989665 
L 400.243805 97.593432 
L 401.085135 82.845837 
L 401.90172 83.604399 
L 402.718306 114.337242 
L 403.572009 134.17075 
L 404.376222 107.845107 
L 405.192807 112.671512 
L 406.04651 128.022407 
L 406.83835 121.086668 
L 407.667308 117.367054 
L 408.508638 107.199664 
L 409.325224 90.520176 
L 410.141809 93.816149 
L 410.970767 96.27593 
L 411.799725 131.930553 
L 412.61631 135.226526 
L 413.445268 141.716444 
L 414.274226 132.768964 
L 415.090811 109.000694 
L 415.919769 72.361271 
L 416.748727 86.80278 
L 417.565313 79.611968 
L 418.406643 112.613843 
L 419.223228 120.261566 
L 420.039814 144.176225 
L 420.868771 142.153393 
L 421.697729 117.928212 
L 422.514315 104.959467 
L 423.368018 86.576542 
L 424.159858 75.084996 
L 424.988816 98.030382 
L 425.830146 77.637933 
L 426.634359 130.080727 
L 427.463317 152.870852 
L 428.304647 139.995263 
L 429.121233 147.206036 
L 429.937818 117.338219 
L 430.779148 80.993793 
L 431.595734 34.905618 
L 432.412319 121.082232 
L 433.25365 76.347047 
L 434.070235 123.921294 
L 434.88682 154.651919 
L 435.728151 149.914235 
L 436.544736 133.747109 
L 437.361321 99.831411 
L 438.202652 58.170398 
L 439.019237 58.833585 
L 439.835822 65.760452 
L 440.677153 122.934276 
L 441.493738 149.346423 
L 442.310324 141.927156 
L 443.968239 113.685145 
L 445.626155 72.418939 
L 447.259326 119.154775 
L 448.917242 134.452438 
L 450.575157 126.223595 
L 452.208328 60.328529 
L 453.049658 72.392323 
L 453.853871 75.302361 
L 454.670457 128.665632 
L 455.52416 149.020374 
L 456.328372 138.775354 
L 457.144958 123.743852 
L 457.998661 104.737665 
L 458.802873 41.180388 
L 459.631831 109.025092 
L 460.473162 120.372467 
L 461.277375 99.616264 
L 462.106332 116.116092 
L 462.960035 118.436138 
L 464.580834 86.753983 
L 465.446909 58.19036 
L 466.226377 92.895672 
L 467.055335 84.065747 
L 467.958528 119.143685 
L 468.700878 153.45419 
L 469.529836 142.248768 
L 470.395911 101.636877 
L 471.175379 79.316972 
L 472.004337 51.540746 
L 472.85804 151.551131 
L 473.64988 136.544029 
L 474.478838 149.120185 
L 475.344913 135.89415 
L 476.136754 117.566675 
L 476.953339 74.641392 
L 477.856532 75.375556 
L 478.611255 103.127385 
L 479.42784 109.828014 
L 480.269171 85.414301 
L 481.085756 131.954951 
L 481.902341 148.386021 
L 482.756044 134.210675 
L 483.560257 91.03032 
L 484.376842 84.811 
L 485.230545 70.396108 
L 486.034758 122.781233 
L 486.851344 111.777651 
L 487.754536 145.385044 
L 488.509259 148.76752 
L 489.325845 119.223534 
L 490.167175 98.236657 
L 490.98376 93.532243 
L 491.800346 83.932666 
L 492.629304 102.133713 
L 493.458262 109.10494 
L 494.274847 129.672612 
L 495.116177 147.194946 
L 496.749348 93.68085 
L 497.590678 79.933581 
L 498.407264 73.093217 
L 499.223849 108.348597 
L 500.065179 102.129277 
L 500.881765 139.658124 
L 501.69835 145.609064 
L 502.564426 126.201415 
L 503.356266 105.006045 
L 504.172851 97.793054 
L 505.026554 93.964756 
L 505.830767 105.385326 
L 506.647352 87.67446 
L 507.488683 119.746986 
L 508.305268 137.852659 
L 509.121854 141.609979 
L 510.779769 82.13829 
L 511.596355 65.432186 
L 512.437685 67.188855 
L 513.25427 134.33932 
L 514.070856 115.528318 
L 514.899814 116.142708 
L 515.728771 127.04648 
L 516.545357 152.376234 
L 517.386687 155.519164 
L 518.203273 134.969236 
L 519.019858 119.230188 
L 519.861188 93.013227 
L 520.677774 62.562072 
L 521.494359 88.838919 
L 522.360434 85.924445 
L 523.152275 124.375987 
L 523.96886 143.202516 
L 524.810191 129.637124 
L 525.626776 126.059462 
L 526.443361 107.053275 
L 527.284692 92.341168 
L 528.101277 86.059744 
L 528.917862 117.93043 
L 529.771565 124.253996 
L 530.575778 96.987914 
L 531.392363 121.159863 
L 532.233694 124.555647 
L 533.050279 116.550823 
L 533.866865 105.777915 
L 534.695822 100.323811 
L 535.52478 87.525853 
L 536.341366 81.943104 
L 537.182696 106.91354 
L 537.999281 136.379895 
L 538.815867 139.072568 
L 539.657197 136.998722 
L 540.473783 130.741696 
L 541.290368 103.633092 
L 542.144071 81.078078 
L 542.948284 65.019635 
L 543.764869 121.630082 
L 544.618572 122.408606 
L 545.422785 100.250617 
L 546.23937 122.424132 
L 547.080701 120.230514 
L 547.897286 121.184261 
L 548.713871 118.347417 
L 549.567574 120.556562 
L 550.371787 103.686325 
L 552.029703 83.362635 
L 552.846288 80.485867 
L 553.662873 109.637264 
L 554.504204 135.663476 
L 555.320789 126.733739 
L 556.137375 122.455185 
L 556.978705 112.589445 
L 557.79529 82.624036 
L 558.611876 87.250819 
L 559.453206 92.937815 
L 560.269791 119.174737 
L 561.086377 116.750445 
L 561.927707 109.040618 
L 562.744293 132.431825 
L 563.560878 118.784367 
L 564.402208 107.661011 
L 566.035379 39.186391 
L 566.889082 88.093665 
L 567.693295 117.489045 
L 568.50988 123.546449 
L 569.363583 139.028208 
L 570.167796 148.104333 
L 570.984381 130.455572 
L 571.825712 102.488596 
L 573.458882 61.344381 
L 574.300213 82.408888 
L 575.116798 125.453944 
L 575.933383 128.745481 
L 576.774714 143.872357 
L 577.591299 126.955541 
L 579.249215 85.49415 
L 580.0658 79.328062 
L 580.882386 91.487231 
L 581.748461 111.841973 
L 582.540301 110.575486 
L 583.356887 122.353156 
L 584.198217 138.251902 
L 585.014803 129.295549 
L 586.685091 58.228067 
L 587.476931 72.112853 
L 588.305889 108.268748 
L 589.147219 110.619846 
L 589.963805 142.375195 
L 590.78039 151.466847 
L 591.62172 129.559493 
L 592.438306 100.680912 
L 593.254891 82.734936 
L 594.096222 96.409011 
L 594.912807 102.231306 
L 595.729392 81.510591 
L 596.570723 103.213887 
L 597.387308 148.658837 
L 598.203893 142.741168 
L 599.045224 121.394972 
L 599.861809 80.476995 
L 600.678395 73.283966 
L 601.532097 86.527745 
L 602.33631 118.225426 
L 603.152896 131.491386 
L 604.006599 137.2915 
L 604.810811 131.380485 
L 605.627397 118.116743 
L 606.4811 100.989216 
L 607.27294 81.951976 
L 608.101898 80.614512 
L 608.955601 107.128687 
L 609.759814 105.465174 
L 610.576399 128.572475 
L 611.430102 134.58552 
L 612.234315 135.463854 
L 613.0509 117.555585 
L 614.708816 62.88812 
L 615.525401 82.17156 
L 616.354359 126.438743 
L 617.183317 113.075191 
L 617.999902 141.275059 
L 618.841233 139.89767 
L 619.657818 130.242642 
L 620.474403 103.87042 
L 621.315734 82.679486 
L 622.132319 68.439817 
L 622.948905 103.236067 
L 623.81498 103.939179 
L 624.60682 128.293005 
L 625.423406 139.017117 
L 626.277109 144.943659 
L 627.068949 116.825858 
L 628.739237 79.28592 
L 629.555822 75.655026 
L 630.372408 78.829008 
L 631.213738 126.383293 
L 632.030324 122.040415 
L 632.846909 140.270297 
L 633.688239 128.244209 
L 634.504825 110.646462 
L 635.32141 98.267709 
L 636.16274 91.524938 
L 636.979326 88.384226 
L 637.795911 95.99646 
L 638.649614 106.587491 
L 639.453827 109.482003 
L 640.270412 120.585396 
L 641.111743 135.73667 
L 641.928328 122.224511 
L 642.744913 104.684433 
L 643.598616 74.534928 
L 644.402829 66.78074 
L 645.219414 111.631262 
L 646.073117 126.021756 
L 646.87733 125.930817 
L 647.693916 140.152742 
L 648.535246 121.831922 
L 649.351831 97.588996 
L 650.168417 80.973831 
L 651.009747 94.049041 
L 651.826332 90.074355 
L 652.642918 98.493947 
L 653.471876 120.891483 
L 654.300834 133.740455 
L 655.117419 133.370046 
L 655.958749 125.633603 
L 656.775335 92.163727 
L 657.59192 73.871741 
L 658.43325 60.27086 
L 659.249836 120.556562 
L 660.066421 123.111718 
L 660.907752 134.532287 
L 661.724337 126.29679 
L 664.198838 73.485806 
L 665.015423 88.055959 
L 665.869126 126.31897 
L 666.673339 121.290726 
L 667.489924 119.230188 
L 668.343627 125.671309 
L 669.14784 121.636736 
L 669.964426 116.284661 
L 670.818128 92.569624 
L 671.622341 85.372159 
L 672.438927 48.16936 
L 673.267885 135.903022 
L 674.096842 124.981506 
L 674.913428 130.79271 
L 675.742386 140.383416 
L 676.571344 121.816396 
L 677.387929 95.801274 
L 678.229259 86.472295 
L 679.045845 74.514965 
L 679.86243 106.955682 
L 680.70376 107.272858 
L 681.520346 118.584745 
L 682.336931 124.710908 
L 683.190634 134.572211 
L 683.994847 129.725844 
L 685.665135 74.641392 
L 686.469348 73.52573 
L 687.285933 92.285718 
L 688.127264 124.466926 
L 688.943849 122.608228 
L 689.760434 143.688261 
L 692.234936 86.722931 
L 693.063893 88.209002 
L 693.892851 100.388134 
L 694.709437 101.672365 
L 695.550767 123.080665 
L 696.367352 133.381136 
L 697.183938 133.496473 
L 698.829481 94.45272 
L 699.658439 78.937691 
L 700.499769 66.558939 
L 701.316355 104.926196 
L 702.13294 132.755656 
L 702.97427 149.827732 
L 703.790856 133.083922 
L 704.607441 103.582078 
L 705.461144 87.17097 
L 706.265357 91.797754 
L 707.081942 102.564008 
L 707.923273 80.712105 
L 708.739858 111.668968 
L 709.556443 134.636534 
L 710.397774 143.084961 
L 711.214359 128.57913 
L 712.030944 87.638972 
L 712.859902 70.121074 
L 713.68886 49.957081 
L 714.505446 108.85874 
L 715.334403 114.547954 
L 716.163361 155.046726 
L 716.979947 144.622046 
L 717.808905 130.652975 
L 718.637862 96.970169 
L 719.454448 79.110697 
L 720.295778 71.624889 
L 721.112363 93.984719 
L 721.928949 81.279917 
L 721.928949 81.279917 
" style="fill:none;stroke:#1f77b4;stroke-linecap:square;stroke-width:1.5;"/>
   </g>
   <g id="line2d_16">
    <path clip-path="url(#p4a46274c02)" d="M 113.201676 278.199901 
L 114.043007 282.509508 
L 114.847219 285.750031 
L 115.676177 282.343157 
L 116.517508 290.334672 
L 117.32172 295.220964 
L 118.150678 292.588178 
L 118.992009 285.998449 
L 119.796222 273.362406 
L 121.46651 263.733995 
L 122.270723 262.077136 
L 123.099681 273.752777 
L 123.941011 278.210992 
L 124.745224 290.76275 
L 125.574182 275.669144 
L 126.415512 271.880771 
L 127.219725 290.906921 
L 128.048683 270.061997 
L 128.890013 279.987623 
L 129.694226 285.357442 
L 130.523184 301.167467 
L 131.401632 325.328326 
L 132.168727 325.199681 
L 132.997685 255.873342 
L 133.888505 279.83458 
L 134.643228 260.158551 
L 135.472186 258.767855 
L 137.130102 286.728177 
L 137.946687 294.801759 
L 138.763273 280.695171 
L 139.59223 255.451919 
L 140.421188 266.149415 
L 141.262519 263.443434 
L 142.066732 261.642405 
L 142.895689 292.075816 
L 143.761765 309.748975 
L 144.541233 320.819098 
L 146.236266 269.254639 
L 147.015734 267.074328 
L 147.844692 269.864594 
L 148.710767 282.970856 
L 149.490235 291.37714 
L 150.319193 272.555048 
L 151.148151 268.751149 
L 151.964736 273.082936 
L 152.793694 267.00557 
L 153.684514 263.097424 
L 154.439237 264.760936 
L 155.268195 287.657526 
L 156.109525 275.950832 
L 156.913738 277.159651 
L 157.742696 281.43377 
L 158.584026 293.045089 
L 159.388239 278.091219 
L 160.217197 267.391505 
L 161.108018 258.397446 
L 161.86274 273.408985 
L 162.691698 276.228084 
L 163.582519 283.567503 
L 164.337242 246.127376 
L 165.166199 253.025409 
L 166.00753 249.673985 
L 166.811743 249.312448 
L 167.640701 268.036948 
L 168.482031 290.547602 
L 169.286244 301.438065 
L 170.115202 307.049648 
L 171.006022 267.502405 
L 171.760745 263.572079 
L 173.418661 240.010085 
L 174.235246 230.545806 
L 175.064204 250.321646 
L 175.905534 253.333713 
L 176.72212 247.074469 
L 177.538705 245.781365 
L 178.441898 250.519049 
L 179.184248 259.397771 
L 180.013206 243.545604 
L 180.879281 250.975961 
L 181.658749 262.87784 
L 182.487707 281.047835 
L 183.366155 282.405262 
L 184.13325 269.920044 
L 184.962208 265.872163 
L 185.865401 244.749987 
L 187.436709 259.482056 
L 188.339902 249.838118 
L 189.082253 253.455704 
L 189.911211 251.34637 
L 190.777286 257.259603 
L 191.556754 283.707238 
L 192.385712 260.038778 
L 193.227042 268.054692 
L 194.031255 256.820436 
L 194.860213 264.612329 
L 195.689171 266.422231 
L 196.505756 272.459673 
L 197.334714 269.367758 
L 198.176044 273.262596 
L 198.980257 274.946071 
L 199.809215 254.132199 
L 200.650545 274.495813 
L 202.283716 267.704245 
L 203.112674 259.315705 
L 203.929259 259.781488 
L 204.758217 269.134866 
L 205.61192 307.333555 
L 206.40376 276.327895 
L 207.232718 279.153649 
L 208.074049 273.484397 
L 208.890634 265.530588 
L 209.707219 266.014116 
L 210.536177 276.605147 
L 211.365135 291.818526 
L 213.010678 270.11523 
L 213.827264 265.690286 
L 214.656222 284.707563 
L 215.485179 276.039553 
L 216.301765 274.84626 
L 217.130723 265.889907 
L 217.959681 263.864858 
L 218.776266 266.464374 
L 219.605224 270.70744 
L 220.446554 289.491826 
L 221.250767 256.34578 
L 222.079725 285.109024 
L 222.933428 251.310881 
L 223.725268 257.077726 
L 224.554226 260.699747 
L 225.395556 271.461566 
L 226.199769 288.963938 
L 227.028727 312.328529 
L 227.870058 251.623622 
L 228.67427 272.164677 
L 229.503228 267.633268 
L 230.332186 263.867076 
L 231.161144 267.28504 
L 231.977729 282.580485 
L 232.806687 265.410815 
L 233.635645 261.121171 
L 234.45223 258.053653 
L 235.293561 251.656892 
L 236.097774 259.612919 
L 236.926732 246.36914 
L 237.768062 252.783645 
L 240.254936 329.72 
L 241.046776 307.242616 
L 241.875734 274.251831 
L 242.717064 271.525888 
L 243.521277 254.660087 
L 244.350235 263.809407 
L 245.203938 278.483808 
L 245.995778 282.942022 
L 246.824736 264.177598 
L 247.666066 275.87542 
L 248.470279 274.431491 
L 249.299237 255.735825 
L 250.128195 264.437106 
L 250.957153 264.166508 
L 251.773738 287.404672 
L 252.602696 306.16466 
L 253.419281 311.272753 
L 254.248239 301.27615 
L 255.077197 276.771498 
L 255.906155 274.580098 
L 256.72274 267.092072 
L 257.551698 267.728643 
L 258.368284 263.580951 
L 259.197242 261.731125 
L 260.038572 274.85735 
L 261.671743 253.630927 
L 262.513073 253.480102 
L 263.329658 256.294766 
L 264.146244 265.690286 
L 264.975202 290.310274 
L 265.791787 292.166754 
L 266.608372 290.598616 
L 267.462075 280.171719 
L 268.266288 260.47351 
L 269.082873 265.067023 
L 269.936576 260.276106 
L 270.753162 258.71684 
L 271.569747 266.606327 
L 272.386332 262.174729 
L 273.227663 263.689634 
L 274.044248 256.292548 
L 274.873206 251.102388 
L 275.702164 249.476581 
L 276.518749 252.938906 
L 277.347707 266.703919 
L 278.176665 283.294686 
L 278.99325 287.839403 
L 279.834581 293.752637 
L 280.651166 262.121496 
L 281.467752 254.424977 
L 282.321454 260.389225 
L 283.125667 255.254516 
L 283.942253 251.925272 
L 284.783583 270.587667 
L 285.600168 276.45654 
L 286.416754 262.826826 
L 287.245712 261.779922 
L 288.074669 251.734523 
L 288.891255 252.95665 
L 289.732585 245.776929 
L 291.365756 274.435927 
L 292.182341 270.152936 
L 293.011299 279.572854 
L 293.840257 266.462156 
L 294.669215 282.666988 
L 295.4858 269.764783 
L 296.302386 262.001723 
L 297.143716 271.712202 
L 297.972674 269.310089 
L 298.789259 270.922588 
L 299.63059 247.176498 
L 300.447175 241.121311 
L 301.26376 243.947065 
L 302.105091 252.881238 
L 302.921676 252.271283 
L 303.738262 264.885145 
L 304.591964 283.957874 
L 305.396177 297.055264 
L 306.212763 287.573241 
L 307.054093 254.615727 
L 307.870678 273.943527 
L 308.687264 254.917377 
L 309.528594 253.96363 
L 310.345179 260.821738 
L 311.161765 262.722579 
L 312.819681 242.024044 
L 313.636266 253.577695 
L 314.465224 256.396794 
L 315.294182 249.634061 
L 316.110767 261.325228 
L 316.939725 279.470825 
L 317.768683 289.7225 
L 318.585268 284.113135 
L 319.426599 279.359924 
L 320.243184 246.080797 
L 321.059769 247.773144 
L 321.9011 246.730676 
L 322.717685 254.507044 
L 323.53427 247.562433 
L 324.387973 267.176357 
L 326.008771 252.457596 
L 326.850102 254.726628 
L 327.666687 253.107475 
L 328.483273 252.544099 
L 329.324603 248.04596 
L 330.141188 273.422293 
L 330.957774 288.99499 
L 331.786732 284.53234 
L 333.432275 253.42687 
L 334.261233 250.581154 
L 335.090191 237.412787 
L 335.906776 245.377686 
L 336.723361 258.193388 
L 337.564692 265.275516 
L 338.381277 259.666151 
L 339.210235 246.085233 
L 340.039193 260.533396 
L 340.855778 242.341221 
L 341.697109 246.959132 
L 342.513694 260.01438 
L 343.330279 283.139425 
L 344.988195 275.174526 
L 345.80478 246.267111 
L 346.646111 258.821087 
L 347.462696 252.470904 
L 348.279281 255.378725 
L 349.120612 253.054243 
L 349.937197 255.431957 
L 350.753783 258.987438 
L 352.411698 247.360593 
L 353.228284 251.359678 
L 354.057242 237.78985 
L 354.886199 249.809284 
L 355.702785 270.536653 
L 356.531743 297.529919 
L 357.360701 273.129515 
L 358.177286 276.436578 
L 359.018616 264.073351 
L 359.835202 250.181911 
L 360.651787 244.942955 
L 361.493117 251.989595 
L 362.309703 253.065333 
L 363.126288 262.125932 
L 363.955246 263.869294 
L 364.784204 237.315194 
L 365.600789 258.754546 
L 366.454492 241.970812 
L 367.258705 246.668572 
L 368.07529 267.537894 
L 368.916621 279.732551 
L 369.733206 285.051356 
L 370.549791 258.122412 
L 371.378749 264.020119 
L 373.024293 233.134232 
L 373.840878 244.452773 
L 374.682208 261.012488 
L 375.498794 256.234879 
L 376.340124 252.062789 
L 377.156709 256.407885 
L 377.973295 259.797014 
L 378.802253 241.638109 
L 379.631211 241.030373 
L 380.447796 241.054771 
L 381.301499 251.468361 
L 382.105712 255.846726 
L 382.922297 255.644887 
L 383.776 252.029519 
L 384.580213 251.632494 
L 385.396798 253.187324 
L 386.238128 243.971463 
L 387.042341 245.155884 
L 387.871299 236.02209 
L 388.71263 251.233251 
L 389.529215 262.638294 
L 390.3458 264.188688 
L 391.174758 264.275191 
L 392.003716 260.781814 
L 392.820301 248.52727 
L 393.661632 250.749723 
L 394.478217 246.522183 
L 395.294803 259.362283 
L 396.136133 256.662956 
L 396.952718 247.870737 
L 397.769304 224.111339 
L 398.598262 245.206899 
L 400.243805 256.126196 
L 401.085135 248.788996 
L 401.90172 266.315766 
L 402.718306 260.094229 
L 403.572009 250.676529 
L 404.376222 275.105768 
L 405.192807 262.944381 
L 406.04651 262.525175 
L 406.83835 261.225417 
L 407.667308 254.218702 
L 408.508638 259.686114 
L 409.325224 276.505336 
L 410.141809 264.539135 
L 410.970767 265.53946 
L 411.799725 250.59668 
L 412.61631 246.473386 
L 413.445268 245.466407 
L 414.274226 244.761077 
L 415.090811 251.634712 
L 415.919769 260.120845 
L 416.748727 257.9117 
L 417.565313 256.565364 
L 418.406643 238.914385 
L 419.223228 249.977853 
L 420.039814 249.130571 
L 420.868771 243.918231 
L 421.697729 246.799435 
L 422.514315 250.882804 
L 423.368018 253.222812 
L 424.159858 267.367106 
L 424.988816 258.856575 
L 425.830146 262.323336 
L 426.634359 238.413113 
L 427.463317 235.877919 
L 428.304647 250.727543 
L 429.121233 254.385053 
L 429.937818 264.148764 
L 430.779148 255.729171 
L 431.595734 262.003941 
L 432.412319 232.003044 
L 433.25365 242.631781 
L 434.070235 246.934734 
L 434.88682 250.219617 
L 435.728151 251.1778 
L 436.544736 248.873281 
L 437.361321 253.100821 
L 438.202652 253.107475 
L 439.019237 253.96363 
L 439.835822 256.035258 
L 440.677153 248.309905 
L 441.493738 249.507634 
L 442.310324 260.220656 
L 443.968239 271.909605 
L 444.784825 275.833277 
L 445.626155 281.038963 
L 446.44274 259.293525 
L 447.259326 253.240556 
L 448.113029 257.275129 
L 448.917242 249.527596 
L 449.733827 249.53425 
L 450.575157 246.426808 
L 451.391743 258.11354 
L 452.208328 257.421518 
L 453.049658 250.193001 
L 453.853871 279.257896 
L 454.670457 258.528309 
L 455.52416 251.315318 
L 456.328372 260.945947 
L 457.998661 277.401415 
L 458.802873 288.081167 
L 459.631831 258.91868 
L 460.473162 250.539012 
L 461.277375 274.120968 
L 462.106332 265.047061 
L 462.960035 266.706137 
L 463.751876 265.375327 
L 464.580834 263.148438 
L 465.446909 274.779719 
L 466.226377 246.118504 
L 467.055335 257.658846 
L 467.958528 246.058617 
L 468.700878 241.873219 
L 470.395911 290.157231 
L 471.175379 295.551448 
L 472.004337 308.646621 
L 472.85804 265.515062 
L 473.64988 283.483218 
L 474.478838 263.248249 
L 476.136754 243.765188 
L 477.856532 268.673518 
L 478.611255 258.931988 
L 479.42784 250.270632 
L 480.269171 267.078764 
L 481.085756 241.844385 
L 482.756044 268.598106 
L 483.560257 283.571939 
L 484.376842 289.103673 
L 485.230545 284.964853 
L 486.034758 266.712791 
L 486.851344 266.575274 
L 487.754536 255.04824 
L 488.509259 251.020321 
L 489.325845 253.391381 
L 490.167175 261.496015 
L 490.98376 259.439914 
L 491.800346 262.097098 
L 492.629304 237.829774 
L 493.458262 254.214266 
L 494.274847 248.176823 
L 495.116177 253.233902 
L 495.932763 267.269514 
L 496.749348 283.325739 
L 497.590678 279.597252 
L 498.407264 276.9933 
L 499.223849 272.28445 
L 500.065179 272.204602 
L 500.881765 257.204153 
L 501.69835 252.97883 
L 502.564426 255.119217 
L 503.356266 252.796953 
L 504.172851 253.189542 
L 505.026554 246.91699 
L 505.830767 242.152689 
L 506.647352 246.874848 
L 507.488683 238.060448 
L 508.305268 243.933757 
L 509.963184 266.457719 
L 510.779769 269.753693 
L 511.596355 284.288358 
L 512.437685 281.963876 
L 513.25427 253.116347 
L 514.070856 260.054304 
L 514.899814 258.339777 
L 515.728771 255.553948 
L 516.545357 250.634386 
L 517.386687 253.879345 
L 518.203273 260.313812 
L 519.019858 249.339064 
L 519.861188 244.168867 
L 520.677774 247.367247 
L 521.494359 238.497397 
L 522.360434 253.42687 
L 523.152275 248.380881 
L 523.96886 246.409064 
L 524.810191 255.296658 
L 525.626776 249.82481 
L 526.443361 262.849006 
L 527.284692 267.389287 
L 528.101277 276.252483 
L 528.917862 250.38375 
L 529.771565 243.518988 
L 530.575778 257.288437 
L 531.392363 266.136107 
L 532.233694 263.578733 
L 533.050279 255.49628 
L 533.866865 244.459427 
L 534.695822 243.547822 
L 535.52478 261.964017 
L 536.341366 271.080067 
L 537.182696 284.474671 
L 538.815867 263.891474 
L 539.657197 257.434826 
L 540.473783 252.257975 
L 542.144071 260.863881 
L 542.948284 276.212558 
L 543.764869 244.85867 
L 544.618572 259.47762 
L 545.422785 281.236367 
L 546.23937 265.845547 
L 547.080701 268.984041 
L 547.897286 266.905759 
L 548.713871 267.129779 
L 549.567574 260.056522 
L 550.371787 266.02077 
L 551.188372 258.876537 
L 552.029703 267.63105 
L 552.846288 262.54292 
L 553.662873 258.268801 
L 554.504204 246.746203 
L 555.320789 248.999708 
L 556.137375 246.46895 
L 556.978705 249.418913 
L 557.79529 274.801899 
L 558.611876 283.427767 
L 559.453206 269.771437 
L 560.269791 258.869883 
L 561.086377 256.232661 
L 561.927707 262.236833 
L 562.744293 251.073554 
L 563.560878 249.85808 
L 564.402208 226.659841 
L 565.218794 228.445344 
L 566.035379 255.755788 
L 566.889082 265.095857 
L 567.693295 242.126073 
L 568.50988 254.728846 
L 569.363583 250.228489 
L 570.167796 246.819397 
L 570.984381 245.135922 
L 571.825712 253.446832 
L 572.642297 259.624009 
L 573.458882 273.133951 
L 574.300213 269.272383 
L 575.116798 250.239579 
L 575.933383 263.34806 
L 576.774714 252.317861 
L 577.591299 247.988292 
L 578.407885 253.500064 
L 579.249215 262.567318 
L 580.0658 263.966886 
L 580.882386 253.442396 
L 581.748461 238.144733 
L 582.540301 249.713909 
L 583.356887 244.758859 
L 584.198217 250.410367 
L 585.014803 265.736864 
L 585.831388 274.985995 
L 586.685091 282.797851 
L 587.476931 285.313082 
L 588.305889 264.428234 
L 589.147219 261.061284 
L 589.963805 254.700011 
L 590.78039 254.822002 
L 591.62172 254.708884 
L 592.438306 253.801715 
L 593.254891 261.203237 
L 594.096222 254.562494 
L 594.912807 250.904984 
L 595.729392 261.620224 
L 596.570723 247.546907 
L 597.387308 242.782606 
L 599.045224 271.006872 
L 599.861809 290.552038 
L 600.678395 288.899615 
L 602.33631 259.142699 
L 603.152896 253.699686 
L 604.006599 253.712994 
L 604.810811 249.651805 
L 605.627397 253.262736 
L 606.4811 254.316295 
L 607.27294 262.569536 
L 608.101898 251.712343 
L 608.955601 245.246823 
L 609.759814 258.719058 
L 610.576399 248.285506 
L 611.430102 240.229669 
L 612.234315 251.211071 
L 613.0509 266.868053 
L 613.879858 280.293709 
L 614.708816 290.696209 
L 615.525401 282.414134 
L 616.354359 250.975961 
L 617.183317 261.405077 
L 617.999902 247.930624 
L 618.841233 245.559563 
L 619.657818 248.695839 
L 620.474403 250.811828 
L 621.315734 262.924418 
L 622.132319 267.238461 
L 622.948905 247.691078 
L 623.81498 254.016862 
L 624.60682 249.532032 
L 625.423406 249.230382 
L 626.277109 256.638558 
L 627.068949 269.496403 
L 627.897907 267.684283 
L 628.739237 265.024881 
L 630.372408 281.021219 
L 631.213738 268.555964 
L 632.030324 268.66021 
L 632.846909 264.989392 
L 633.688239 256.385704 
L 634.504825 254.553622 
L 635.32141 255.376507 
L 636.16274 261.87086 
L 636.979326 263.416818 
L 637.795911 258.821087 
L 638.649614 253.140746 
L 639.453827 250.124242 
L 641.111743 254.830874 
L 641.928328 266.484336 
L 643.598616 284.417003 
L 644.402829 283.680621 
L 645.219414 264.093313 
L 646.073117 263.126258 
L 646.87733 263.756175 
L 647.693916 253.686378 
L 648.535246 251.847642 
L 649.351831 261.50267 
L 650.168417 266.710573 
L 651.009747 255.301094 
L 651.826332 256.731715 
L 653.471876 240.262939 
L 654.300834 240.677708 
L 655.958749 273.33579 
L 656.775335 278.108963 
L 657.59192 282.074777 
L 658.43325 287.358094 
L 659.249836 247.566869 
L 660.066421 252.533009 
L 660.907752 248.924295 
L 661.724337 249.986725 
L 662.540922 253.979156 
L 663.394625 256.61416 
L 664.198838 268.901974 
L 665.015423 252.479776 
L 665.869126 250.763031 
L 666.673339 260.894933 
L 667.489924 260.591065 
L 668.343627 250.190783 
L 669.14784 248.398625 
L 669.964426 257.514675 
L 670.818128 269.350014 
L 671.622341 274.458107 
L 672.438927 285.333044 
L 673.267885 257.0622 
L 674.096842 268.29202 
L 674.913428 264.370566 
L 675.742386 252.490867 
L 676.571344 250.288376 
L 677.387929 251.714561 
L 678.229259 255.143615 
L 679.045845 262.815736 
L 679.86243 252.601767 
L 680.70376 251.918618 
L 681.520346 250.947127 
L 682.336931 260.542268 
L 683.994847 265.535024 
L 684.811432 266.014116 
L 685.665135 269.232459 
L 686.469348 270.372519 
L 687.285933 268.946335 
L 688.127264 260.460202 
L 688.943849 263.587606 
L 689.760434 254.389489 
L 690.601765 251.463925 
L 691.41835 251.84986 
L 692.234936 256.407885 
L 693.063893 255.84229 
L 693.892851 251.962978 
L 694.709437 252.841313 
L 696.367352 247.71104 
L 697.183938 258.375266 
L 698.012896 273.493269 
L 698.829481 281.349486 
L 699.658439 284.397041 
L 700.499769 281.331741 
L 701.316355 260.857227 
L 702.13294 260.049868 
L 702.97427 252.825787 
L 703.790856 253.948104 
L 704.607441 260.872753 
L 705.461144 262.427583 
L 706.265357 262.999831 
L 707.081942 259.031799 
L 708.739858 244.439465 
L 709.556443 256.332472 
L 710.397774 256.88254 
L 711.214359 268.023639 
L 712.030944 277.385889 
L 712.859902 283.651787 
L 713.68886 294.007708 
L 714.505446 260.965909 
L 715.334403 274.027811 
L 716.163361 264.514737 
L 716.979947 261.090118 
L 717.808905 263.847113 
L 718.637862 256.937991 
L 719.454448 255.407559 
L 720.295778 248.618209 
L 721.112363 240.067753 
L 721.928949 255.143615 
L 721.928949 255.143615 
" style="fill:none;stroke:#ff7f0e;stroke-linecap:square;stroke-width:1.5;"/>
   </g>
   <g id="line2d_17">
    <path clip-path="url(#p4a46274c02)" d="M 113.201676 233.364906 
L 114.043007 237.168805 
L 114.847219 236.864937 
L 115.676177 235.072779 
L 116.517508 231.169069 
L 117.32172 232.837018 
L 118.150678 229.283755 
L 118.992009 241.174544 
L 119.796222 250.951563 
L 120.625179 254.356219 
L 121.46651 250.669875 
L 122.270723 245.202463 
L 123.099681 246.996838 
L 123.941011 245.681554 
L 124.745224 231.987517 
L 125.574182 230.96723 
L 126.415512 226.555594 
L 127.219725 216.301701 
L 128.048683 222.521021 
L 128.890013 225.322376 
L 129.694226 239.04303 
L 130.523184 233.258441 
L 131.401632 221.684829 
L 132.168727 219.928159 
L 133.888505 235.316761 
L 134.643228 236.330395 
L 135.472186 227.480507 
L 136.375379 233.078782 
L 137.130102 230.481484 
L 137.946687 224.100249 
L 138.763273 222.829325 
L 139.59223 230.097767 
L 140.421188 223.335033 
L 141.262519 220.280824 
L 142.066732 224.5128 
L 142.895689 230.128819 
L 143.761765 212.777272 
L 144.541233 206.99712 
L 145.370191 216.66102 
L 146.236266 222.183882 
L 147.015734 230.468176 
L 147.844692 230.16209 
L 148.710767 217.093533 
L 149.490235 221.67152 
L 150.319193 216.44809 
L 151.148151 216.539029 
L 151.964736 206.979376 
L 152.793694 211.246841 
L 153.684514 218.841331 
L 154.439237 220.790968 
L 155.268195 211.530747 
L 156.109525 226.777396 
L 156.913738 207.112457 
L 157.742696 217.72345 
L 158.584026 220.085638 
L 159.388239 219.24501 
L 160.217197 228.760303 
L 161.108018 227.325246 
L 161.86274 220.29635 
L 162.691698 210.499369 
L 163.582519 191.976709 
L 164.337242 186.58471 
L 165.166199 210.042457 
L 166.00753 226.189621 
L 166.811743 225.215912 
L 167.640701 222.733951 
L 168.482031 215.469945 
L 169.286244 211.606159 
L 170.115202 219.934813 
L 171.006022 219.735192 
L 171.760745 233.928282 
L 172.589703 236.243892 
L 174.235246 209.135288 
L 175.064204 215.5875 
L 175.905534 218.841331 
L 176.72212 216.310573 
L 177.538705 206.325061 
L 178.441898 211.44868 
L 179.184248 218.011792 
L 180.013206 208.995553 
L 180.879281 204.426438 
L 181.658749 214.587174 
L 182.487707 234.005913 
L 183.366155 223.552399 
L 184.13325 206.724304 
L 184.962208 212.870429 
L 185.865401 204.348808 
L 186.607752 194.802463 
L 187.436709 209.63656 
L 188.339902 228.700416 
L 189.082253 227.351862 
L 189.911211 223.794163 
L 190.777286 209.765205 
L 191.556754 190.439623 
L 192.385712 188.760584 
L 193.227042 191.04736 
L 194.031255 218.73043 
L 194.860213 216.456963 
L 195.689171 214.995289 
L 196.505756 211.076053 
L 197.334714 205.834879 
L 198.176044 208.869126 
L 198.980257 210.508241 
L 199.809215 198.342418 
L 201.467131 219.023208 
L 202.283716 223.164246 
L 203.112674 224.778962 
L 203.929259 218.067243 
L 204.758217 194.913364 
L 205.61192 188.935808 
L 206.40376 182.337207 
L 208.074049 205.99014 
L 208.890634 211.725932 
L 209.707219 210.100126 
L 211.365135 200.090215 
L 212.18172 211.428718 
L 213.010678 215.813738 
L 213.827264 211.595069 
L 214.656222 221.509605 
L 215.485179 224.599303 
L 216.301765 209.332692 
L 217.130723 224.042581 
L 217.959681 224.763436 
L 218.776266 224.472876 
L 219.605224 218.43987 
L 220.446554 208.374509 
L 221.250767 195.026482 
L 223.725268 220.782096 
L 225.395556 228.057191 
L 226.199769 207.784516 
L 227.028727 207.012646 
L 227.870058 209.627688 
L 228.67427 231.171287 
L 229.503228 224.053671 
L 230.332186 228.766957 
L 231.161144 226.533414 
L 231.977729 223.878447 
L 232.806687 214.722473 
L 233.635645 211.269021 
L 234.45223 209.829528 
L 235.293561 211.35996 
L 236.097774 209.984789 
L 236.926732 217.188908 
L 237.768062 221.463027 
L 238.584647 224.317615 
L 239.401233 220.54255 
L 240.254936 199.362706 
L 241.046776 213.864101 
L 241.875734 226.475745 
L 242.717064 229.791681 
L 243.521277 242.693885 
L 245.203938 215.166077 
L 245.995778 203.954001 
L 246.824736 197.315476 
L 247.666066 188.76502 
L 248.470279 207.383055 
L 249.299237 219.810604 
L 250.128195 227.296412 
L 250.957153 204.87226 
L 251.773738 215.944601 
L 252.602696 220.580256 
L 253.419281 206.129875 
L 254.248239 208.525334 
L 255.077197 219.2561 
L 256.72274 224.570469 
L 257.551698 220.804276 
L 258.368284 220.074548 
L 259.197242 216.931618 
L 260.038572 200.795545 
L 260.855157 199.806309 
L 262.513073 220.145525 
L 263.329658 232.734989 
L 264.146244 218.890127 
L 264.975202 208.988899 
L 265.791787 205.73285 
L 266.608372 208.219247 
L 267.462075 216.516849 
L 268.266288 217.21996 
L 269.082873 219.140763 
L 269.936576 221.707009 
L 270.753162 220.790968 
L 271.569747 219.034298 
L 272.386332 206.345023 
L 273.227663 197.091456 
L 274.044248 197.1092 
L 275.702164 224.284344 
L 276.518749 230.035663 
L 277.347707 211.96326 
L 278.176665 203.510397 
L 278.99325 196.936195 
L 279.834581 201.826923 
L 280.651166 213.915115 
L 281.467752 221.518477 
L 282.321454 213.680005 
L 283.125667 224.914261 
L 284.783583 213.864101 
L 285.600168 217.244359 
L 286.416754 204.998687 
L 287.245712 198.271441 
L 288.074669 219.271626 
L 288.891255 227.518213 
L 289.732585 226.78405 
L 290.549171 209.736371 
L 291.365756 199.688754 
L 292.182341 215.092882 
L 293.011299 236.361447 
L 293.840257 238.093718 
L 294.669215 222.569817 
L 295.4858 217.514957 
L 296.302386 222.558727 
L 297.143716 222.132868 
L 297.972674 208.478755 
L 298.789259 213.626773 
L 299.63059 203.055704 
L 300.447175 206.957196 
L 301.26376 219.260536 
L 302.105091 225.169333 
L 302.921676 224.785616 
L 303.738262 205.641912 
L 304.591964 206.69547 
L 305.396177 206.418218 
L 306.212763 216.390422 
L 307.054093 214.755744 
L 307.870678 234.480569 
L 308.687264 222.529893 
L 309.528594 226.163005 
L 310.345179 218.124911 
L 311.161765 214.403079 
L 311.990723 196.390563 
L 312.819681 192.772977 
L 315.294182 222.166138 
L 316.110767 218.455396 
L 316.939725 218.031755 
L 317.768683 210.421738 
L 318.585268 198.402304 
L 319.426599 199.708716 
L 320.243184 213.103321 
L 321.059769 224.259946 
L 321.9011 225.189295 
L 322.717685 222.973496 
L 323.53427 211.901156 
L 324.387973 204.577264 
L 325.192186 194.988776 
L 326.008771 187.416466 
L 326.850102 203.805394 
L 327.666687 214.88217 
L 328.483273 229.041991 
L 329.324603 232.699501 
L 330.141188 190.761236 
L 330.957774 182.519085 
L 331.786732 184.703831 
L 332.615689 200.043637 
L 333.432275 209.749679 
L 334.261233 198.262569 
L 335.090191 226.182967 
L 335.906776 228.587297 
L 336.723361 222.607524 
L 337.564692 199.025567 
L 338.381277 172.294026 
L 339.210235 178.375829 
L 340.039193 200.899791 
L 341.697109 229.798335 
L 342.513694 217.213306 
L 343.330279 201.026218 
L 344.17161 188.600887 
L 344.988195 188.521039 
L 346.646111 214.527288 
L 347.462696 214.283306 
L 348.279281 217.503867 
L 349.120612 206.875129 
L 349.937197 205.240451 
L 350.753783 190.106921 
L 351.58274 177.282347 
L 352.411698 178.25162 
L 354.057242 228.418728 
L 354.886199 219.027644 
L 355.702785 204.801283 
L 356.531743 194.130404 
L 357.360701 181.884732 
L 358.177286 193.123424 
L 359.018616 211.783601 
L 359.835202 222.929136 
L 360.651787 215.827046 
L 361.493117 213.73102 
L 362.309703 192.810683 
L 363.126288 194.625021 
L 363.955246 183.095769 
L 364.784204 176.069091 
L 365.600789 194.77141 
L 366.454492 211.000641 
L 367.258705 219.422451 
L 368.916621 194.833515 
L 370.549791 184.808078 
L 371.378749 198.122834 
L 372.207707 192.730835 
L 373.024293 215.59859 
L 373.840878 229.410182 
L 374.682208 211.131504 
L 375.498794 208.296878 
L 376.340124 210.87865 
L 377.156709 199.196354 
L 377.973295 190.690259 
L 378.802253 187.527367 
L 379.631211 206.746484 
L 380.447796 211.244623 
L 382.105712 180.212347 
L 382.922297 184.439887 
L 383.776 196.772062 
L 384.580213 198.526513 
L 385.396798 194.68269 
L 386.238128 194.820207 
L 387.042341 195.354749 
L 387.871299 189.006784 
L 388.71263 191.258072 
L 389.529215 198.604144 
L 390.3458 200.265439 
L 392.003716 207.817786 
L 392.820301 212.730694 
L 393.661632 219.455722 
L 394.478217 198.588618 
L 396.136133 174.423323 
L 396.952718 186.757715 
L 397.769304 201.421025 
L 398.598262 207.116893 
L 399.427219 199.183046 
L 400.243805 193.11677 
L 401.085135 191.111682 
L 401.90172 198.286967 
L 402.718306 176.17112 
L 403.572009 172.338387 
L 404.376222 209.598854 
L 405.192807 203.550322 
L 406.04651 194.369949 
L 406.83835 190.171243 
L 407.667308 191.912387 
L 408.508638 184.630637 
L 409.325224 158.863933 
L 410.141809 185.26499 
L 410.970767 189.581251 
L 411.799725 196.390563 
L 412.61631 200.753402 
L 413.445268 208.434395 
L 414.274226 207.5117 
L 415.919769 191.777088 
L 416.748727 201.077233 
L 417.565313 191.579684 
L 418.406643 194.097133 
L 419.223228 206.032283 
L 420.039814 204.59279 
L 420.868771 198.539821 
L 421.697729 208.911269 
L 422.514315 206.928362 
L 423.368018 202.077558 
L 424.159858 192.136406 
L 424.988816 173.522808 
L 425.830146 175.330492 
L 426.634359 199.196354 
L 427.463317 202.312668 
L 428.304647 206.611185 
L 429.121233 212.054199 
L 429.937818 197.313258 
L 430.779148 169.412822 
L 431.595734 181.135042 
L 432.412319 204.552865 
L 433.25365 195.680797 
L 434.070235 219.859401 
L 434.88682 208.807022 
L 435.728151 203.153297 
L 436.544736 220.595782 
L 437.361321 221.729189 
L 438.202652 199.611124 
L 439.019237 190.430751 
L 439.835822 188.771675 
L 441.493738 212.528854 
L 442.310324 209.718627 
L 443.164026 209.618816 
L 443.968239 205.542101 
L 444.784825 196.2597 
L 445.626155 207.542752 
L 446.44274 194.028375 
L 447.259326 195.887073 
L 448.113029 208.347892 
L 448.917242 221.908848 
L 449.733827 222.241551 
L 450.575157 213.801996 
L 451.391743 212.335887 
L 452.208328 200.363031 
L 453.049658 176.829871 
L 453.853871 183.665799 
L 454.670457 193.267595 
L 455.52416 208.678377 
L 456.328372 218.692724 
L 457.144958 216.90722 
L 457.998661 205.142858 
L 458.802873 190.861047 
L 459.631831 184.655035 
L 460.473162 216.150876 
L 461.277375 221.287804 
L 462.106332 224.126865 
L 462.960035 214.161315 
L 463.751876 199.622214 
L 464.580834 192.32272 
L 465.446909 193.076845 
L 466.226377 187.758041 
L 467.055335 201.855757 
L 467.958528 211.865667 
L 468.700878 226.446911 
L 469.529836 211.417628 
L 470.395911 203.80983 
L 471.175379 195.088587 
L 472.004337 188.986822 
L 472.85804 196.863 
L 473.64988 208.79815 
L 474.478838 200.582615 
L 475.344913 211.794691 
L 476.953339 205.704016 
L 477.856532 194.667164 
L 478.611255 179.52698 
L 479.42784 179.327358 
L 480.269171 201.341177 
L 481.085756 216.614442 
L 482.756044 199.453644 
L 483.560257 196.880745 
L 484.376842 193.467216 
L 485.230545 188.636375 
L 486.851344 207.487302 
L 487.754536 217.927508 
L 488.509259 221.227917 
L 490.98376 191.482091 
L 491.800346 183.96745 
L 492.629304 183.027011 
L 493.458262 207.367529 
L 494.274847 216.159748 
L 495.116177 217.370786 
L 495.932763 201.700496 
L 496.749348 193.229889 
L 497.590678 195.430162 
L 498.407264 201.032872 
L 500.065179 209.228445 
L 500.881765 216.86286 
L 501.69835 220.87747 
L 502.564426 213.948385 
L 503.356266 205.504395 
L 504.172851 201.354485 
L 505.026554 189.020092 
L 505.830767 187.072674 
L 506.647352 199.770821 
L 507.488683 219.313768 
L 508.305268 216.565645 
L 509.121854 203.678967 
L 509.963184 203.379534 
L 510.779769 209.181867 
L 511.596355 193.030267 
L 512.437685 188.567617 
L 513.25427 202.816158 
L 514.070856 197.359836 
L 514.899814 200.542691 
L 515.728771 215.347954 
L 516.545357 212.338105 
L 517.386687 209.776295 
L 518.203273 211.759203 
L 519.019858 203.239799 
L 519.861188 196.747664 
L 520.677774 189.48144 
L 521.494359 175.949318 
L 522.360434 181.112862 
L 523.152275 197.244499 
L 523.96886 204.375424 
L 524.810191 203.568066 
L 525.626776 213.555796 
L 527.284692 191.666187 
L 528.101277 190.967511 
L 528.917862 183.528282 
L 529.771565 199.948262 
L 530.575778 202.55665 
L 531.392363 206.668854 
L 532.233694 195.942523 
L 533.050279 202.973637 
L 533.866865 221.214609 
L 534.695822 216.969324 
L 535.52478 192.014415 
L 536.341366 160.920035 
L 537.182696 178.366957 
L 537.999281 179.143263 
L 538.815867 199.207444 
L 539.657197 210.06242 
L 540.473783 204.273395 
L 541.290368 194.778065 
L 542.144071 188.432318 
L 542.948284 195.81166 
L 543.764869 186.538131 
L 544.618572 187.695936 
L 545.422785 199.812963 
L 546.23937 209.798476 
L 547.080701 197.122508 
L 547.897286 199.183046 
L 548.713871 210.772185 
L 549.567574 219.506736 
L 551.188372 196.984991 
L 552.029703 187.438646 
L 552.846288 187.942136 
L 553.662873 192.637678 
L 554.504204 206.353895 
L 555.320789 209.13307 
L 556.137375 215.041868 
L 556.978705 215.85588 
L 557.79529 198.087346 
L 558.611876 188.756148 
L 559.453206 199.273985 
L 560.269791 211.94108 
L 561.086377 213.231966 
L 561.927707 205.932472 
L 562.744293 212.482276 
L 563.560878 197.943175 
L 564.402208 188.399048 
L 565.218794 203.428331 
L 566.035379 214.203457 
L 566.889082 190.257746 
L 567.693295 178.437933 
L 568.50988 191.266944 
L 569.363583 209.987007 
L 570.167796 217.426236 
L 570.984381 207.99301 
L 571.825712 205.056355 
L 572.642297 200.405174 
L 573.458882 194.9178 
L 574.300213 205.373532 
L 575.116798 212.823851 
L 575.933383 214.030452 
L 576.774714 210.264259 
L 577.591299 217.938598 
L 578.407885 213.455986 
L 579.249215 205.182782 
L 580.0658 194.860131 
L 580.882386 188.006459 
L 581.748461 196.28188 
L 582.540301 206.462578 
L 583.356887 219.453503 
L 584.198217 211.794691 
L 585.014803 202.361465 
L 585.831388 201.363357 
L 586.685091 203.803176 
L 587.476931 203.069012 
L 588.305889 200.831033 
L 589.147219 209.851708 
L 589.963805 213.757636 
L 590.78039 221.80682 
L 591.62172 217.144548 
L 592.438306 207.73572 
L 593.254891 207.19896 
L 594.096222 193.354098 
L 594.912807 192.795157 
L 595.729392 198.568656 
L 597.387308 213.755418 
L 598.203893 209.676485 
L 599.045224 209.840618 
L 599.861809 204.339936 
L 600.678395 187.298911 
L 601.532097 194.968814 
L 602.33631 204.810155 
L 603.152896 207.644781 
L 604.006599 218.2713 
L 604.810811 224.353103 
L 605.627397 217.157856 
L 606.4811 204.90553 
L 607.27294 198.737225 
L 608.101898 180.043778 
L 608.955601 169.718909 
L 609.759814 179.041234 
L 610.576399 201.520836 
L 611.430102 218.885691 
L 612.234315 211.20248 
L 613.0509 196.430487 
L 614.708816 182.743104 
L 615.525401 210.512677 
L 616.354359 205.863713 
L 617.183317 203.568066 
L 617.999902 209.718627 
L 618.841233 219.187341 
L 619.657818 217.843223 
L 620.474403 205.19609 
L 621.315734 199.753077 
L 622.132319 187.88225 
L 622.948905 193.225453 
L 623.81498 206.846295 
L 624.60682 212.382465 
L 625.423406 213.258582 
L 626.277109 211.477514 
L 627.068949 210.357416 
L 627.897907 200.227732 
L 628.739237 195.618693 
L 629.555822 203.698929 
L 630.372408 189.477004 
L 631.213738 207.383055 
L 632.030324 205.016431 
L 632.846909 218.706032 
L 633.688239 214.766834 
L 634.504825 216.758613 
L 635.32141 210.583654 
L 636.16274 205.384622 
L 636.979326 198.142796 
L 637.795911 192.755233 
L 638.649614 186.154414 
L 640.270412 219.418015 
L 641.111743 206.21416 
L 641.928328 204.031631 
L 642.744913 208.849164 
L 643.598616 196.993863 
L 644.402829 195.115203 
L 645.219414 201.283508 
L 646.073117 217.90311 
L 646.87733 216.463617 
L 647.693916 229.414618 
L 648.535246 227.380696 
L 649.351831 218.348931 
L 650.168417 206.260738 
L 651.009747 195.873765 
L 651.826332 187.463044 
L 652.642918 196.195377 
L 654.300834 223.501385 
L 656.775335 202.576612 
L 657.59192 202.541124 
L 658.43325 204.774667 
L 659.249836 208.452139 
L 660.066421 220.078984 
L 660.907752 219.874927 
L 661.724337 223.496948 
L 662.540922 217.703488 
L 663.394625 205.09628 
L 664.198838 207.088059 
L 665.015423 202.345938 
L 665.869126 192.866134 
L 667.489924 204.41313 
L 668.343627 205.597551 
L 669.14784 211.053873 
L 669.964426 210.860906 
L 670.818128 205.027521 
L 671.622341 204.858952 
L 672.438927 202.971419 
L 673.267885 211.271239 
L 674.096842 205.584243 
L 674.913428 208.403343 
L 675.742386 216.308355 
L 676.571344 215.130588 
L 677.387929 212.360285 
L 678.229259 211.346651 
L 679.045845 197.912123 
L 679.86243 191.484309 
L 680.70376 202.984727 
L 681.520346 221.219045 
L 682.336931 208.044024 
L 683.190634 196.638981 
L 683.994847 196.00241 
L 684.811432 198.732789 
L 685.665135 202.434659 
L 686.469348 200.451752 
L 687.285933 203.288596 
L 688.127264 208.634017 
L 688.943849 215.718363 
L 689.760434 218.821369 
L 690.601765 214.509544 
L 691.41835 207.267718 
L 692.234936 207.103585 
L 693.892851 188.776111 
L 694.709437 192.387042 
L 695.550767 208.230338 
L 696.367352 207.216704 
L 697.183938 199.613342 
L 698.012896 196.126619 
L 698.829481 195.907035 
L 699.658439 197.231191 
L 700.499769 213.207568 
L 701.316355 203.572502 
L 702.97427 230.086677 
L 703.790856 229.824951 
L 704.607441 214.460747 
L 705.461144 204.960981 
L 706.265357 194.343333 
L 707.081942 172.20087 
L 707.923273 192.296104 
L 708.739858 222.631922 
L 709.556443 228.986541 
L 710.397774 221.62716 
L 711.214359 205.981268 
L 712.030944 202.827248 
L 712.859902 205.231579 
L 713.68886 217.74563 
L 714.505446 201.385537 
L 715.334403 212.777272 
L 716.163361 229.882619 
L 716.979947 232.459955 
L 718.637862 204.319974 
L 719.454448 206.211942 
L 720.295778 196.661161 
L 721.112363 193.156694 
L 721.928949 207.085841 
L 721.928949 207.085841 
" style="fill:none;stroke:#2ca02c;stroke-linecap:square;stroke-width:1.5;"/>
   </g>
  </g>
 </g>
 <defs>
  <clipPath id="p4a46274c02">
   <rect height="332.64" width="669.6" x="82.765313" y="12.2"/>
  </clipPath>
 </defs>
</svg>
