<?xml version="1.0" encoding="utf-8" standalone="no"?>
<!DOCTYPE svg PUBLIC "-//W3C//DTD SVG 1.1//EN"
  "http://www.w3.org/Graphics/SVG/1.1/DTD/svg11.dtd">
<!-- Created with matplotlib (https://matplotlib.org/) -->
<svg height="403.155469pt" version="1.1" viewBox="0 0 408.96125 403.155469" width="408.96125pt" xmlns="http://www.w3.org/2000/svg" xmlns:xlink="http://www.w3.org/1999/xlink">
 <defs>
  <style type="text/css">
*{stroke-linecap:butt;stroke-linejoin:round;}
  </style>
 </defs>
 <g id="figure_1">
  <g id="patch_1">
   <path d="M 0 403.155469 
L 408.96125 403.155469 
L 408.96125 0 
L 0 0 
z
" style="fill:#ffffff;"/>
  </g>
  <g id="axes_1">
   <g id="patch_2">
    <path d="M 61.96125 346.678594 
L 396.76125 346.678594 
L 396.76125 14.038594 
L 61.96125 14.038594 
z
" style="fill:#ffffff;"/>
   </g>
   <g id="matplotlib.axis_1">
    <g id="xtick_1">
     <g id="line2d_1">
      <defs>
       <path d="M 0 5 
L 0 -5 
" id="m82216961f0" style="stroke:#525252;stroke-width:4;"/>
      </defs>
      <g>
       <use style="fill:#525252;stroke:#525252;stroke-width:4;" x="76.893107" xlink:href="#m82216961f0" y="346.678594"/>
      </g>
     </g>
     <g id="text_1">
      <!-- 0 -->
      <defs>
       <path d="M 31.78125 66.40625 
Q 24.171875 66.40625 20.328125 58.90625 
Q 16.5 51.421875 16.5 36.375 
Q 16.5 21.390625 20.328125 13.890625 
Q 24.171875 6.390625 31.78125 6.390625 
Q 39.453125 6.390625 43.28125 13.890625 
Q 47.125 21.390625 47.125 36.375 
Q 47.125 51.421875 43.28125 58.90625 
Q 39.453125 66.40625 31.78125 66.40625 
z
M 31.78125 74.21875 
Q 44.046875 74.21875 50.515625 64.515625 
Q 56.984375 54.828125 56.984375 36.375 
Q 56.984375 17.96875 50.515625 8.265625 
Q 44.046875 -1.421875 31.78125 -1.421875 
Q 19.53125 -1.421875 13.0625 8.265625 
Q 6.59375 17.96875 6.59375 36.375 
Q 6.59375 54.828125 13.0625 64.515625 
Q 19.53125 74.21875 31.78125 74.21875 
z
" id="DejaVuSans-48"/>
      </defs>
      <g transform="translate(71.166857 368.855781)scale(0.18 -0.18)">
       <use xlink:href="#DejaVuSans-48"/>
      </g>
     </g>
    </g>
    <g id="xtick_2">
     <g id="line2d_2">
      <g>
       <use style="fill:#525252;stroke:#525252;stroke-width:4;" x="134.158137" xlink:href="#m82216961f0" y="346.678594"/>
      </g>
     </g>
     <g id="text_2">
      <!-- 200 -->
      <defs>
       <path d="M 19.1875 8.296875 
L 53.609375 8.296875 
L 53.609375 0 
L 7.328125 0 
L 7.328125 8.296875 
Q 12.9375 14.109375 22.625 23.890625 
Q 32.328125 33.6875 34.8125 36.53125 
Q 39.546875 41.84375 41.421875 45.53125 
Q 43.3125 49.21875 43.3125 52.78125 
Q 43.3125 58.59375 39.234375 62.25 
Q 35.15625 65.921875 28.609375 65.921875 
Q 23.96875 65.921875 18.8125 64.3125 
Q 13.671875 62.703125 7.8125 59.421875 
L 7.8125 69.390625 
Q 13.765625 71.78125 18.9375 73 
Q 24.125 74.21875 28.421875 74.21875 
Q 39.75 74.21875 46.484375 68.546875 
Q 53.21875 62.890625 53.21875 53.421875 
Q 53.21875 48.921875 51.53125 44.890625 
Q 49.859375 40.875 45.40625 35.40625 
Q 44.1875 33.984375 37.640625 27.21875 
Q 31.109375 20.453125 19.1875 8.296875 
z
" id="DejaVuSans-50"/>
      </defs>
      <g transform="translate(116.979387 368.855781)scale(0.18 -0.18)">
       <use xlink:href="#DejaVuSans-50"/>
       <use x="63.623047" xlink:href="#DejaVuSans-48"/>
       <use x="127.246094" xlink:href="#DejaVuSans-48"/>
      </g>
     </g>
    </g>
    <g id="xtick_3">
     <g id="line2d_3">
      <g>
       <use style="fill:#525252;stroke:#525252;stroke-width:4;" x="191.423167" xlink:href="#m82216961f0" y="346.678594"/>
      </g>
     </g>
     <g id="text_3">
      <!-- 400 -->
      <defs>
       <path d="M 37.796875 64.3125 
L 12.890625 25.390625 
L 37.796875 25.390625 
z
M 35.203125 72.90625 
L 47.609375 72.90625 
L 47.609375 25.390625 
L 58.015625 25.390625 
L 58.015625 17.1875 
L 47.609375 17.1875 
L 47.609375 0 
L 37.796875 0 
L 37.796875 17.1875 
L 4.890625 17.1875 
L 4.890625 26.703125 
z
" id="DejaVuSans-52"/>
      </defs>
      <g transform="translate(174.244417 368.855781)scale(0.18 -0.18)">
       <use xlink:href="#DejaVuSans-52"/>
       <use x="63.623047" xlink:href="#DejaVuSans-48"/>
       <use x="127.246094" xlink:href="#DejaVuSans-48"/>
      </g>
     </g>
    </g>
    <g id="xtick_4">
     <g id="line2d_4">
      <g>
       <use style="fill:#525252;stroke:#525252;stroke-width:4;" x="248.688198" xlink:href="#m82216961f0" y="346.678594"/>
      </g>
     </g>
     <g id="text_4">
      <!-- 600 -->
      <defs>
       <path d="M 33.015625 40.375 
Q 26.375 40.375 22.484375 35.828125 
Q 18.609375 31.296875 18.609375 23.390625 
Q 18.609375 15.53125 22.484375 10.953125 
Q 26.375 6.390625 33.015625 6.390625 
Q 39.65625 6.390625 43.53125 10.953125 
Q 47.40625 15.53125 47.40625 23.390625 
Q 47.40625 31.296875 43.53125 35.828125 
Q 39.65625 40.375 33.015625 40.375 
z
M 52.59375 71.296875 
L 52.59375 62.3125 
Q 48.875 64.0625 45.09375 64.984375 
Q 41.3125 65.921875 37.59375 65.921875 
Q 27.828125 65.921875 22.671875 59.328125 
Q 17.53125 52.734375 16.796875 39.40625 
Q 19.671875 43.65625 24.015625 45.921875 
Q 28.375 48.1875 33.59375 48.1875 
Q 44.578125 48.1875 50.953125 41.515625 
Q 57.328125 34.859375 57.328125 23.390625 
Q 57.328125 12.15625 50.6875 5.359375 
Q 44.046875 -1.421875 33.015625 -1.421875 
Q 20.359375 -1.421875 13.671875 8.265625 
Q 6.984375 17.96875 6.984375 36.375 
Q 6.984375 53.65625 15.1875 63.9375 
Q 23.390625 74.21875 37.203125 74.21875 
Q 40.921875 74.21875 44.703125 73.484375 
Q 48.484375 72.75 52.59375 71.296875 
z
" id="DejaVuSans-54"/>
      </defs>
      <g transform="translate(231.509448 368.855781)scale(0.18 -0.18)">
       <use xlink:href="#DejaVuSans-54"/>
       <use x="63.623047" xlink:href="#DejaVuSans-48"/>
       <use x="127.246094" xlink:href="#DejaVuSans-48"/>
      </g>
     </g>
    </g>
    <g id="xtick_5">
     <g id="line2d_5">
      <g>
       <use style="fill:#525252;stroke:#525252;stroke-width:4;" x="305.953228" xlink:href="#m82216961f0" y="346.678594"/>
      </g>
     </g>
     <g id="text_5">
      <!-- 800 -->
      <defs>
       <path d="M 31.78125 34.625 
Q 24.75 34.625 20.71875 30.859375 
Q 16.703125 27.09375 16.703125 20.515625 
Q 16.703125 13.921875 20.71875 10.15625 
Q 24.75 6.390625 31.78125 6.390625 
Q 38.8125 6.390625 42.859375 10.171875 
Q 46.921875 13.96875 46.921875 20.515625 
Q 46.921875 27.09375 42.890625 30.859375 
Q 38.875 34.625 31.78125 34.625 
z
M 21.921875 38.8125 
Q 15.578125 40.375 12.03125 44.71875 
Q 8.5 49.078125 8.5 55.328125 
Q 8.5 64.0625 14.71875 69.140625 
Q 20.953125 74.21875 31.78125 74.21875 
Q 42.671875 74.21875 48.875 69.140625 
Q 55.078125 64.0625 55.078125 55.328125 
Q 55.078125 49.078125 51.53125 44.71875 
Q 48 40.375 41.703125 38.8125 
Q 48.828125 37.15625 52.796875 32.3125 
Q 56.78125 27.484375 56.78125 20.515625 
Q 56.78125 9.90625 50.3125 4.234375 
Q 43.84375 -1.421875 31.78125 -1.421875 
Q 19.734375 -1.421875 13.25 4.234375 
Q 6.78125 9.90625 6.78125 20.515625 
Q 6.78125 27.484375 10.78125 32.3125 
Q 14.796875 37.15625 21.921875 38.8125 
z
M 18.3125 54.390625 
Q 18.3125 48.734375 21.84375 45.5625 
Q 25.390625 42.390625 31.78125 42.390625 
Q 38.140625 42.390625 41.71875 45.5625 
Q 45.3125 48.734375 45.3125 54.390625 
Q 45.3125 60.0625 41.71875 63.234375 
Q 38.140625 66.40625 31.78125 66.40625 
Q 25.390625 66.40625 21.84375 63.234375 
Q 18.3125 60.0625 18.3125 54.390625 
z
" id="DejaVuSans-56"/>
      </defs>
      <g transform="translate(288.774478 368.855781)scale(0.18 -0.18)">
       <use xlink:href="#DejaVuSans-56"/>
       <use x="63.623047" xlink:href="#DejaVuSans-48"/>
       <use x="127.246094" xlink:href="#DejaVuSans-48"/>
      </g>
     </g>
    </g>
    <g id="xtick_6">
     <g id="line2d_6">
      <g>
       <use style="fill:#525252;stroke:#525252;stroke-width:4;" x="363.218258" xlink:href="#m82216961f0" y="346.678594"/>
      </g>
     </g>
     <g id="text_6">
      <!-- 1000 -->
      <defs>
       <path d="M 12.40625 8.296875 
L 28.515625 8.296875 
L 28.515625 63.921875 
L 10.984375 60.40625 
L 10.984375 69.390625 
L 28.421875 72.90625 
L 38.28125 72.90625 
L 38.28125 8.296875 
L 54.390625 8.296875 
L 54.390625 0 
L 12.40625 0 
z
" id="DejaVuSans-49"/>
      </defs>
      <g transform="translate(340.313258 368.855781)scale(0.18 -0.18)">
       <use xlink:href="#DejaVuSans-49"/>
       <use x="63.623047" xlink:href="#DejaVuSans-48"/>
       <use x="127.246094" xlink:href="#DejaVuSans-48"/>
       <use x="190.869141" xlink:href="#DejaVuSans-48"/>
      </g>
     </g>
    </g>
    <g id="text_7">
     <!-- Sample -->
     <defs>
      <path d="M 53.515625 70.515625 
L 53.515625 60.890625 
Q 47.90625 63.578125 42.921875 64.890625 
Q 37.9375 66.21875 33.296875 66.21875 
Q 25.25 66.21875 20.875 63.09375 
Q 16.5 59.96875 16.5 54.203125 
Q 16.5 49.359375 19.40625 46.890625 
Q 22.3125 44.4375 30.421875 42.921875 
L 36.375 41.703125 
Q 47.40625 39.59375 52.65625 34.296875 
Q 57.90625 29 57.90625 20.125 
Q 57.90625 9.515625 50.796875 4.046875 
Q 43.703125 -1.421875 29.984375 -1.421875 
Q 24.8125 -1.421875 18.96875 -0.25 
Q 13.140625 0.921875 6.890625 3.21875 
L 6.890625 13.375 
Q 12.890625 10.015625 18.65625 8.296875 
Q 24.421875 6.59375 29.984375 6.59375 
Q 38.421875 6.59375 43.015625 9.90625 
Q 47.609375 13.234375 47.609375 19.390625 
Q 47.609375 24.75 44.3125 27.78125 
Q 41.015625 30.8125 33.5 32.328125 
L 27.484375 33.5 
Q 16.453125 35.6875 11.515625 40.375 
Q 6.59375 45.0625 6.59375 53.421875 
Q 6.59375 63.09375 13.40625 68.65625 
Q 20.21875 74.21875 32.171875 74.21875 
Q 37.3125 74.21875 42.625 73.28125 
Q 47.953125 72.359375 53.515625 70.515625 
z
" id="DejaVuSans-83"/>
      <path d="M 34.28125 27.484375 
Q 23.390625 27.484375 19.1875 25 
Q 14.984375 22.515625 14.984375 16.5 
Q 14.984375 11.71875 18.140625 8.90625 
Q 21.296875 6.109375 26.703125 6.109375 
Q 34.1875 6.109375 38.703125 11.40625 
Q 43.21875 16.703125 43.21875 25.484375 
L 43.21875 27.484375 
z
M 52.203125 31.203125 
L 52.203125 0 
L 43.21875 0 
L 43.21875 8.296875 
Q 40.140625 3.328125 35.546875 0.953125 
Q 30.953125 -1.421875 24.3125 -1.421875 
Q 15.921875 -1.421875 10.953125 3.296875 
Q 6 8.015625 6 15.921875 
Q 6 25.140625 12.171875 29.828125 
Q 18.359375 34.515625 30.609375 34.515625 
L 43.21875 34.515625 
L 43.21875 35.40625 
Q 43.21875 41.609375 39.140625 45 
Q 35.0625 48.390625 27.6875 48.390625 
Q 23 48.390625 18.546875 47.265625 
Q 14.109375 46.140625 10.015625 43.890625 
L 10.015625 52.203125 
Q 14.9375 54.109375 19.578125 55.046875 
Q 24.21875 56 28.609375 56 
Q 40.484375 56 46.34375 49.84375 
Q 52.203125 43.703125 52.203125 31.203125 
z
" id="DejaVuSans-97"/>
      <path d="M 52 44.1875 
Q 55.375 50.25 60.0625 53.125 
Q 64.75 56 71.09375 56 
Q 79.640625 56 84.28125 50.015625 
Q 88.921875 44.046875 88.921875 33.015625 
L 88.921875 0 
L 79.890625 0 
L 79.890625 32.71875 
Q 79.890625 40.578125 77.09375 44.375 
Q 74.3125 48.1875 68.609375 48.1875 
Q 61.625 48.1875 57.5625 43.546875 
Q 53.515625 38.921875 53.515625 30.90625 
L 53.515625 0 
L 44.484375 0 
L 44.484375 32.71875 
Q 44.484375 40.625 41.703125 44.40625 
Q 38.921875 48.1875 33.109375 48.1875 
Q 26.21875 48.1875 22.15625 43.53125 
Q 18.109375 38.875 18.109375 30.90625 
L 18.109375 0 
L 9.078125 0 
L 9.078125 54.6875 
L 18.109375 54.6875 
L 18.109375 46.1875 
Q 21.1875 51.21875 25.484375 53.609375 
Q 29.78125 56 35.6875 56 
Q 41.65625 56 45.828125 52.96875 
Q 50 49.953125 52 44.1875 
z
" id="DejaVuSans-109"/>
      <path d="M 18.109375 8.203125 
L 18.109375 -20.796875 
L 9.078125 -20.796875 
L 9.078125 54.6875 
L 18.109375 54.6875 
L 18.109375 46.390625 
Q 20.953125 51.265625 25.265625 53.625 
Q 29.59375 56 35.59375 56 
Q 45.5625 56 51.78125 48.09375 
Q 58.015625 40.1875 58.015625 27.296875 
Q 58.015625 14.40625 51.78125 6.484375 
Q 45.5625 -1.421875 35.59375 -1.421875 
Q 29.59375 -1.421875 25.265625 0.953125 
Q 20.953125 3.328125 18.109375 8.203125 
z
M 48.6875 27.296875 
Q 48.6875 37.203125 44.609375 42.84375 
Q 40.53125 48.484375 33.40625 48.484375 
Q 26.265625 48.484375 22.1875 42.84375 
Q 18.109375 37.203125 18.109375 27.296875 
Q 18.109375 17.390625 22.1875 11.75 
Q 26.265625 6.109375 33.40625 6.109375 
Q 40.53125 6.109375 44.609375 11.75 
Q 48.6875 17.390625 48.6875 27.296875 
z
" id="DejaVuSans-112"/>
      <path d="M 9.421875 75.984375 
L 18.40625 75.984375 
L 18.40625 0 
L 9.421875 0 
z
" id="DejaVuSans-108"/>
      <path d="M 56.203125 29.59375 
L 56.203125 25.203125 
L 14.890625 25.203125 
Q 15.484375 15.921875 20.484375 11.0625 
Q 25.484375 6.203125 34.421875 6.203125 
Q 39.59375 6.203125 44.453125 7.46875 
Q 49.3125 8.734375 54.109375 11.28125 
L 54.109375 2.78125 
Q 49.265625 0.734375 44.1875 -0.34375 
Q 39.109375 -1.421875 33.890625 -1.421875 
Q 20.796875 -1.421875 13.15625 6.1875 
Q 5.515625 13.8125 5.515625 26.8125 
Q 5.515625 40.234375 12.765625 48.109375 
Q 20.015625 56 32.328125 56 
Q 43.359375 56 49.78125 48.890625 
Q 56.203125 41.796875 56.203125 29.59375 
z
M 47.21875 32.234375 
Q 47.125 39.59375 43.09375 43.984375 
Q 39.0625 48.390625 32.421875 48.390625 
Q 24.90625 48.390625 20.390625 44.140625 
Q 15.875 39.890625 15.1875 32.171875 
z
" id="DejaVuSans-101"/>
     </defs>
     <g transform="translate(191.864375 391.796094)scale(0.2 -0.2)">
      <use xlink:href="#DejaVuSans-83"/>
      <use x="63.476562" xlink:href="#DejaVuSans-97"/>
      <use x="124.755859" xlink:href="#DejaVuSans-109"/>
      <use x="222.167969" xlink:href="#DejaVuSans-112"/>
      <use x="285.644531" xlink:href="#DejaVuSans-108"/>
      <use x="313.427734" xlink:href="#DejaVuSans-101"/>
     </g>
    </g>
   </g>
   <g id="matplotlib.axis_2">
    <g id="ytick_1">
     <g id="line2d_7">
      <defs>
       <path d="M 5 0 
L -5 -0 
" id="mae04b7bd46" style="stroke:#525252;stroke-width:4;"/>
      </defs>
      <g>
       <use style="fill:#525252;stroke:#525252;stroke-width:4;" x="61.96125" xlink:href="#mae04b7bd46" y="346.678594"/>
      </g>
     </g>
     <g id="text_8">
      <!-- 50 -->
      <defs>
       <path d="M 10.796875 72.90625 
L 49.515625 72.90625 
L 49.515625 64.59375 
L 19.828125 64.59375 
L 19.828125 46.734375 
Q 21.96875 47.46875 24.109375 47.828125 
Q 26.265625 48.1875 28.421875 48.1875 
Q 40.625 48.1875 47.75 41.5 
Q 54.890625 34.8125 54.890625 23.390625 
Q 54.890625 11.625 47.5625 5.09375 
Q 40.234375 -1.421875 26.90625 -1.421875 
Q 22.3125 -1.421875 17.546875 -0.640625 
Q 12.796875 0.140625 7.71875 1.703125 
L 7.71875 11.625 
Q 12.109375 9.234375 16.796875 8.0625 
Q 21.484375 6.890625 26.703125 6.890625 
Q 35.15625 6.890625 40.078125 11.328125 
Q 45.015625 15.765625 45.015625 23.390625 
Q 45.015625 31 40.078125 35.4375 
Q 35.15625 39.890625 26.703125 39.890625 
Q 22.75 39.890625 18.8125 39.015625 
Q 14.890625 38.140625 10.796875 36.28125 
z
" id="DejaVuSans-53"/>
      </defs>
      <g transform="translate(30.55625 353.517187)scale(0.18 -0.18)">
       <use xlink:href="#DejaVuSans-53"/>
       <use x="63.623047" xlink:href="#DejaVuSans-48"/>
      </g>
     </g>
    </g>
    <g id="ytick_2">
     <g id="line2d_8">
      <g>
       <use style="fill:#525252;stroke:#525252;stroke-width:4;" x="61.96125" xlink:href="#mae04b7bd46" y="291.238594"/>
      </g>
     </g>
     <g id="text_9">
      <!-- 55 -->
      <g transform="translate(30.55625 298.077187)scale(0.18 -0.18)">
       <use xlink:href="#DejaVuSans-53"/>
       <use x="63.623047" xlink:href="#DejaVuSans-53"/>
      </g>
     </g>
    </g>
    <g id="ytick_3">
     <g id="line2d_9">
      <g>
       <use style="fill:#525252;stroke:#525252;stroke-width:4;" x="61.96125" xlink:href="#mae04b7bd46" y="235.798594"/>
      </g>
     </g>
     <g id="text_10">
      <!-- 60 -->
      <g transform="translate(30.55625 242.637187)scale(0.18 -0.18)">
       <use xlink:href="#DejaVuSans-54"/>
       <use x="63.623047" xlink:href="#DejaVuSans-48"/>
      </g>
     </g>
    </g>
    <g id="ytick_4">
     <g id="line2d_10">
      <g>
       <use style="fill:#525252;stroke:#525252;stroke-width:4;" x="61.96125" xlink:href="#mae04b7bd46" y="180.358594"/>
      </g>
     </g>
     <g id="text_11">
      <!-- 65 -->
      <g transform="translate(30.55625 187.197187)scale(0.18 -0.18)">
       <use xlink:href="#DejaVuSans-54"/>
       <use x="63.623047" xlink:href="#DejaVuSans-53"/>
      </g>
     </g>
    </g>
    <g id="ytick_5">
     <g id="line2d_11">
      <g>
       <use style="fill:#525252;stroke:#525252;stroke-width:4;" x="61.96125" xlink:href="#mae04b7bd46" y="124.918594"/>
      </g>
     </g>
     <g id="text_12">
      <!-- 70 -->
      <defs>
       <path d="M 8.203125 72.90625 
L 55.078125 72.90625 
L 55.078125 68.703125 
L 28.609375 0 
L 18.3125 0 
L 43.21875 64.59375 
L 8.203125 64.59375 
z
" id="DejaVuSans-55"/>
      </defs>
      <g transform="translate(30.55625 131.757187)scale(0.18 -0.18)">
       <use xlink:href="#DejaVuSans-55"/>
       <use x="63.623047" xlink:href="#DejaVuSans-48"/>
      </g>
     </g>
    </g>
    <g id="ytick_6">
     <g id="line2d_12">
      <g>
       <use style="fill:#525252;stroke:#525252;stroke-width:4;" x="61.96125" xlink:href="#mae04b7bd46" y="69.478594"/>
      </g>
     </g>
     <g id="text_13">
      <!-- 75 -->
      <g transform="translate(30.55625 76.317187)scale(0.18 -0.18)">
       <use xlink:href="#DejaVuSans-55"/>
       <use x="63.623047" xlink:href="#DejaVuSans-53"/>
      </g>
     </g>
    </g>
    <g id="ytick_7">
     <g id="line2d_13">
      <g>
       <use style="fill:#525252;stroke:#525252;stroke-width:4;" x="61.96125" xlink:href="#mae04b7bd46" y="14.038594"/>
      </g>
     </g>
     <g id="text_14">
      <!-- 80 -->
      <g transform="translate(30.55625 20.877187)scale(0.18 -0.18)">
       <use xlink:href="#DejaVuSans-56"/>
       <use x="63.623047" xlink:href="#DejaVuSans-48"/>
      </g>
     </g>
    </g>
    <g id="text_15">
     <!-- Sampling Interval (ms) -->
     <defs>
      <path d="M 9.421875 54.6875 
L 18.40625 54.6875 
L 18.40625 0 
L 9.421875 0 
z
M 9.421875 75.984375 
L 18.40625 75.984375 
L 18.40625 64.59375 
L 9.421875 64.59375 
z
" id="DejaVuSans-105"/>
      <path d="M 54.890625 33.015625 
L 54.890625 0 
L 45.90625 0 
L 45.90625 32.71875 
Q 45.90625 40.484375 42.875 44.328125 
Q 39.84375 48.1875 33.796875 48.1875 
Q 26.515625 48.1875 22.3125 43.546875 
Q 18.109375 38.921875 18.109375 30.90625 
L 18.109375 0 
L 9.078125 0 
L 9.078125 54.6875 
L 18.109375 54.6875 
L 18.109375 46.1875 
Q 21.34375 51.125 25.703125 53.5625 
Q 30.078125 56 35.796875 56 
Q 45.21875 56 50.046875 50.171875 
Q 54.890625 44.34375 54.890625 33.015625 
z
" id="DejaVuSans-110"/>
      <path d="M 45.40625 27.984375 
Q 45.40625 37.75 41.375 43.109375 
Q 37.359375 48.484375 30.078125 48.484375 
Q 22.859375 48.484375 18.828125 43.109375 
Q 14.796875 37.75 14.796875 27.984375 
Q 14.796875 18.265625 18.828125 12.890625 
Q 22.859375 7.515625 30.078125 7.515625 
Q 37.359375 7.515625 41.375 12.890625 
Q 45.40625 18.265625 45.40625 27.984375 
z
M 54.390625 6.78125 
Q 54.390625 -7.171875 48.1875 -13.984375 
Q 42 -20.796875 29.203125 -20.796875 
Q 24.46875 -20.796875 20.265625 -20.09375 
Q 16.0625 -19.390625 12.109375 -17.921875 
L 12.109375 -9.1875 
Q 16.0625 -11.328125 19.921875 -12.34375 
Q 23.78125 -13.375 27.78125 -13.375 
Q 36.625 -13.375 41.015625 -8.765625 
Q 45.40625 -4.15625 45.40625 5.171875 
L 45.40625 9.625 
Q 42.625 4.78125 38.28125 2.390625 
Q 33.9375 0 27.875 0 
Q 17.828125 0 11.671875 7.65625 
Q 5.515625 15.328125 5.515625 27.984375 
Q 5.515625 40.671875 11.671875 48.328125 
Q 17.828125 56 27.875 56 
Q 33.9375 56 38.28125 53.609375 
Q 42.625 51.21875 45.40625 46.390625 
L 45.40625 54.6875 
L 54.390625 54.6875 
z
" id="DejaVuSans-103"/>
      <path id="DejaVuSans-32"/>
      <path d="M 9.8125 72.90625 
L 19.671875 72.90625 
L 19.671875 0 
L 9.8125 0 
z
" id="DejaVuSans-73"/>
      <path d="M 18.3125 70.21875 
L 18.3125 54.6875 
L 36.8125 54.6875 
L 36.8125 47.703125 
L 18.3125 47.703125 
L 18.3125 18.015625 
Q 18.3125 11.328125 20.140625 9.421875 
Q 21.96875 7.515625 27.59375 7.515625 
L 36.8125 7.515625 
L 36.8125 0 
L 27.59375 0 
Q 17.1875 0 13.234375 3.875 
Q 9.28125 7.765625 9.28125 18.015625 
L 9.28125 47.703125 
L 2.6875 47.703125 
L 2.6875 54.6875 
L 9.28125 54.6875 
L 9.28125 70.21875 
z
" id="DejaVuSans-116"/>
      <path d="M 41.109375 46.296875 
Q 39.59375 47.171875 37.8125 47.578125 
Q 36.03125 48 33.890625 48 
Q 26.265625 48 22.1875 43.046875 
Q 18.109375 38.09375 18.109375 28.8125 
L 18.109375 0 
L 9.078125 0 
L 9.078125 54.6875 
L 18.109375 54.6875 
L 18.109375 46.1875 
Q 20.953125 51.171875 25.484375 53.578125 
Q 30.03125 56 36.53125 56 
Q 37.453125 56 38.578125 55.875 
Q 39.703125 55.765625 41.0625 55.515625 
z
" id="DejaVuSans-114"/>
      <path d="M 2.984375 54.6875 
L 12.5 54.6875 
L 29.59375 8.796875 
L 46.6875 54.6875 
L 56.203125 54.6875 
L 35.6875 0 
L 23.484375 0 
z
" id="DejaVuSans-118"/>
      <path d="M 31 75.875 
Q 24.46875 64.65625 21.28125 53.65625 
Q 18.109375 42.671875 18.109375 31.390625 
Q 18.109375 20.125 21.3125 9.0625 
Q 24.515625 -2 31 -13.1875 
L 23.1875 -13.1875 
Q 15.875 -1.703125 12.234375 9.375 
Q 8.59375 20.453125 8.59375 31.390625 
Q 8.59375 42.28125 12.203125 53.3125 
Q 15.828125 64.359375 23.1875 75.875 
z
" id="DejaVuSans-40"/>
      <path d="M 44.28125 53.078125 
L 44.28125 44.578125 
Q 40.484375 46.53125 36.375 47.5 
Q 32.28125 48.484375 27.875 48.484375 
Q 21.1875 48.484375 17.84375 46.4375 
Q 14.5 44.390625 14.5 40.28125 
Q 14.5 37.15625 16.890625 35.375 
Q 19.28125 33.59375 26.515625 31.984375 
L 29.59375 31.296875 
Q 39.15625 29.25 43.1875 25.515625 
Q 47.21875 21.78125 47.21875 15.09375 
Q 47.21875 7.46875 41.1875 3.015625 
Q 35.15625 -1.421875 24.609375 -1.421875 
Q 20.21875 -1.421875 15.453125 -0.5625 
Q 10.6875 0.296875 5.421875 2 
L 5.421875 11.28125 
Q 10.40625 8.6875 15.234375 7.390625 
Q 20.0625 6.109375 24.8125 6.109375 
Q 31.15625 6.109375 34.5625 8.28125 
Q 37.984375 10.453125 37.984375 14.40625 
Q 37.984375 18.0625 35.515625 20.015625 
Q 33.0625 21.96875 24.703125 23.78125 
L 21.578125 24.515625 
Q 13.234375 26.265625 9.515625 29.90625 
Q 5.8125 33.546875 5.8125 39.890625 
Q 5.8125 47.609375 11.28125 51.796875 
Q 16.75 56 26.8125 56 
Q 31.78125 56 36.171875 55.265625 
Q 40.578125 54.546875 44.28125 53.078125 
z
" id="DejaVuSans-115"/>
      <path d="M 8.015625 75.875 
L 15.828125 75.875 
Q 23.140625 64.359375 26.78125 53.3125 
Q 30.421875 42.28125 30.421875 31.390625 
Q 30.421875 20.453125 26.78125 9.375 
Q 23.140625 -1.703125 15.828125 -13.1875 
L 8.015625 -13.1875 
Q 14.5 -2 17.703125 9.0625 
Q 20.90625 20.125 20.90625 31.390625 
Q 20.90625 42.671875 17.703125 53.65625 
Q 14.5 64.65625 8.015625 75.875 
z
" id="DejaVuSans-41"/>
     </defs>
     <g transform="translate(22.396875 294.572656)rotate(-90)scale(0.2 -0.2)">
      <use xlink:href="#DejaVuSans-83"/>
      <use x="63.476562" xlink:href="#DejaVuSans-97"/>
      <use x="124.755859" xlink:href="#DejaVuSans-109"/>
      <use x="222.167969" xlink:href="#DejaVuSans-112"/>
      <use x="285.644531" xlink:href="#DejaVuSans-108"/>
      <use x="313.427734" xlink:href="#DejaVuSans-105"/>
      <use x="341.210938" xlink:href="#DejaVuSans-110"/>
      <use x="404.589844" xlink:href="#DejaVuSans-103"/>
      <use x="468.066406" xlink:href="#DejaVuSans-32"/>
      <use x="499.853516" xlink:href="#DejaVuSans-73"/>
      <use x="529.345703" xlink:href="#DejaVuSans-110"/>
      <use x="592.724609" xlink:href="#DejaVuSans-116"/>
      <use x="631.933594" xlink:href="#DejaVuSans-101"/>
      <use x="693.457031" xlink:href="#DejaVuSans-114"/>
      <use x="734.570312" xlink:href="#DejaVuSans-118"/>
      <use x="793.75" xlink:href="#DejaVuSans-97"/>
      <use x="855.029297" xlink:href="#DejaVuSans-108"/>
      <use x="882.8125" xlink:href="#DejaVuSans-32"/>
      <use x="914.599609" xlink:href="#DejaVuSans-40"/>
      <use x="953.613281" xlink:href="#DejaVuSans-109"/>
      <use x="1051.025391" xlink:href="#DejaVuSans-115"/>
      <use x="1103.125" xlink:href="#DejaVuSans-41"/>
     </g>
    </g>
   </g>
   <g id="line2d_14">
    <path clip-path="url(#p6a5e7cfd8b)" d="M 77.179432 335.590594 
L 77.465757 113.830594 
L 77.752082 213.622594 
L 78.038407 158.182594 
L 78.324732 124.918594 
L 78.611058 202.534594 
L 79.183708 124.918594 
L 79.470033 202.534594 
L 80.042683 124.918594 
L 80.329008 202.534594 
L 80.901659 124.918594 
L 81.187984 202.534594 
L 81.760634 124.918594 
L 82.046959 202.534594 
L 82.61961 124.918594 
L 82.905935 202.534594 
L 83.478585 124.918594 
L 83.76491 202.534594 
L 84.337561 124.918594 
L 84.623886 202.534594 
L 85.196536 124.918594 
L 85.482861 202.534594 
L 86.055512 124.918594 
L 86.341837 202.534594 
L 86.628162 158.182594 
L 86.914487 136.006594 
L 87.200812 191.446594 
L 87.773462 124.918594 
L 88.059788 202.534594 
L 88.346113 158.182594 
L 88.632438 136.006594 
L 88.918763 191.446594 
L 89.491413 124.918594 
L 89.777738 202.534594 
L 90.350389 124.918594 
L 90.636714 202.534594 
L 91.209364 124.918594 
L 91.495689 202.534594 
L 92.06834 124.918594 
L 92.354665 202.534594 
L 92.927315 124.918594 
L 93.21364 202.534594 
L 93.499965 158.182594 
L 93.786291 136.006594 
L 94.072616 191.446594 
L 94.645266 124.918594 
L 94.931591 202.534594 
L 95.504242 124.918594 
L 95.790567 202.534594 
L 96.363217 124.918594 
L 96.649542 202.534594 
L 97.222192 124.918594 
L 97.508518 202.534594 
L 98.081168 124.918594 
L 98.367493 202.534594 
L 98.940143 124.918594 
L 99.226469 202.534594 
L 99.799119 124.918594 
L 100.085444 202.534594 
L 100.658094 113.830594 
L 100.944419 213.622594 
L 101.230745 158.182594 
L 101.51707 124.918594 
L 101.803395 202.534594 
L 102.376045 124.918594 
L 102.66237 202.534594 
L 103.235021 124.918594 
L 103.521346 202.534594 
L 104.093996 124.918594 
L 104.380321 202.534594 
L 104.952972 124.918594 
L 105.239297 202.534594 
L 105.525622 158.182594 
L 105.811947 136.006594 
L 106.098272 191.446594 
L 106.670922 124.918594 
L 106.957248 202.534594 
L 107.529898 124.918594 
L 107.816223 202.534594 
L 108.102548 158.182594 
L 108.388873 136.006594 
L 108.675199 191.446594 
L 109.247849 124.918594 
L 109.534174 202.534594 
L 110.106824 124.918594 
L 110.393149 202.534594 
L 110.679475 158.182594 
L 110.9658 136.006594 
L 111.252125 191.446594 
L 111.824775 136.006594 
L 112.1111 191.446594 
L 112.683751 136.006594 
L 112.970076 191.446594 
L 113.542726 136.006594 
L 113.829051 191.446594 
L 114.401702 136.006594 
L 114.688027 191.446594 
L 115.260677 136.006594 
L 115.547002 191.446594 
L 116.119652 136.006594 
L 116.405978 191.446594 
L 116.978628 136.006594 
L 117.264953 191.446594 
L 117.837603 124.918594 
L 118.123929 202.534594 
L 118.696579 124.918594 
L 118.982904 202.534594 
L 119.269229 158.182594 
L 119.555554 136.006594 
L 119.841879 191.446594 
L 120.41453 136.006594 
L 120.700855 191.446594 
L 121.273505 136.006594 
L 121.55983 191.446594 
L 122.132481 136.006594 
L 122.418806 191.446594 
L 122.991456 136.006594 
L 123.277781 191.446594 
L 123.850432 136.006594 
L 124.136757 191.446594 
L 124.709407 124.918594 
L 124.995732 202.534594 
L 125.282057 158.182594 
L 125.568382 136.006594 
L 125.854708 191.446594 
L 126.427358 136.006594 
L 126.713683 191.446594 
L 127.286333 136.006594 
L 127.572659 191.446594 
L 128.145309 124.918594 
L 128.431634 202.534594 
L 128.717959 158.182594 
L 129.004284 136.006594 
L 129.290609 191.446594 
L 129.576935 158.182594 
L 129.86326 147.094594 
L 130.149585 180.358594 
L 130.722235 136.006594 
L 131.00856 191.446594 
L 131.581211 136.006594 
L 131.867536 191.446594 
L 132.440186 136.006594 
L 132.726511 191.446594 
L 133.299162 136.006594 
L 133.585487 191.446594 
L 134.158137 124.918594 
L 134.444462 202.534594 
L 134.730787 158.182594 
L 135.017112 136.006594 
L 135.303438 191.446594 
L 135.876088 136.006594 
L 136.162413 191.446594 
L 136.735063 136.006594 
L 137.021389 191.446594 
L 137.594039 136.006594 
L 137.880364 191.446594 
L 138.453014 136.006594 
L 138.739339 191.446594 
L 139.31199 136.006594 
L 139.598315 191.446594 
L 140.170965 124.918594 
L 140.45729 202.534594 
L 141.029941 124.918594 
L 141.316266 202.534594 
L 141.888916 124.918594 
L 142.175241 202.534594 
L 142.461566 158.182594 
L 142.747892 136.006594 
L 143.034217 191.446594 
L 143.606867 136.006594 
L 143.893192 191.446594 
L 144.465842 124.918594 
L 144.752168 202.534594 
L 145.038493 158.182594 
L 145.324818 136.006594 
L 145.611143 191.446594 
L 146.183793 124.918594 
L 146.470119 202.534594 
L 147.042769 124.918594 
L 147.329094 202.534594 
L 147.615419 158.182594 
L 147.901744 136.006594 
L 148.188069 191.446594 
L 148.76072 124.918594 
L 149.047045 202.534594 
L 149.619695 124.918594 
L 149.90602 202.534594 
L 150.478671 124.918594 
L 150.764996 202.534594 
L 151.051321 169.270594 
L 151.337646 113.830594 
L 151.623971 202.534594 
L 152.196622 124.918594 
L 152.482947 202.534594 
L 153.055597 124.918594 
L 153.341922 202.534594 
L 153.914573 124.918594 
L 154.200898 202.534594 
L 154.773548 124.918594 
L 155.059873 202.534594 
L 155.632523 124.918594 
L 155.918849 202.534594 
L 156.491499 124.918594 
L 156.777824 202.534594 
L 157.350474 124.918594 
L 157.636799 202.534594 
L 157.923125 158.182594 
L 158.20945 136.006594 
L 158.495775 180.358594 
L 158.7821 169.270594 
L 159.068425 136.006594 
L 159.35475 191.446594 
L 159.927401 124.918594 
L 160.213726 202.534594 
L 160.786376 124.918594 
L 161.072701 202.534594 
L 161.645352 124.918594 
L 161.931677 202.534594 
L 162.504327 124.918594 
L 162.790652 202.534594 
L 163.363303 124.918594 
L 163.649628 202.534594 
L 164.222278 124.918594 
L 164.508603 202.534594 
L 165.081253 124.918594 
L 165.367579 202.534594 
L 165.940229 124.918594 
L 166.226554 202.534594 
L 166.512879 158.182594 
L 166.799204 136.006594 
L 167.085529 191.446594 
L 167.65818 124.918594 
L 167.944505 202.534594 
L 168.517155 124.918594 
L 168.80348 202.534594 
L 169.376131 124.918594 
L 169.662456 202.534594 
L 170.235106 124.918594 
L 170.521431 202.534594 
L 171.094082 124.918594 
L 171.380407 202.534594 
L 171.953057 124.918594 
L 172.239382 202.534594 
L 172.812033 124.918594 
L 173.098358 202.534594 
L 173.384683 158.182594 
L 173.671008 158.182594 
L 173.957333 169.270594 
L 174.243658 158.182594 
L 174.529983 169.270594 
L 174.816309 158.182594 
L 175.388959 158.182594 
L 175.675284 169.270594 
L 175.961609 158.182594 
L 176.247934 169.270594 
L 176.534259 147.094594 
L 176.820585 169.270594 
L 177.10691 158.182594 
L 177.393235 158.182594 
L 177.67956 169.270594 
L 177.965885 158.182594 
L 178.25221 169.270594 
L 178.538536 158.182594 
L 178.824861 158.182594 
L 179.111186 169.270594 
L 179.397511 158.182594 
L 179.683836 169.270594 
L 179.970161 147.094594 
L 180.256486 169.270594 
L 180.542812 158.182594 
L 180.829137 169.270594 
L 181.115462 158.182594 
L 181.401787 169.270594 
L 181.688112 147.094594 
L 181.974437 169.270594 
L 182.260763 169.270594 
L 182.547088 158.182594 
L 182.833413 158.182594 
L 183.119738 169.270594 
L 183.406063 158.182594 
L 183.692388 158.182594 
L 183.978713 169.270594 
L 184.265039 158.182594 
L 184.551364 158.182594 
L 184.837689 169.270594 
L 185.124014 158.182594 
L 185.410339 158.182594 
L 185.696664 169.270594 
L 185.98299 147.094594 
L 186.269315 169.270594 
L 186.55564 169.270594 
L 186.841965 147.094594 
L 187.12829 169.270594 
L 187.414615 158.182594 
L 187.70094 169.270594 
L 187.987266 158.182594 
L 188.273591 169.270594 
L 188.559916 147.094594 
L 188.846241 169.270594 
L 189.132566 169.270594 
L 189.418891 158.182594 
L 189.991542 158.182594 
L 190.277867 169.270594 
L 190.564192 158.182594 
L 190.850517 169.270594 
L 191.136842 158.182594 
L 191.423167 158.182594 
L 191.709493 169.270594 
L 191.995818 158.182594 
L 192.568468 158.182594 
L 192.854793 169.270594 
L 193.141118 158.182594 
L 193.713769 158.182594 
L 194.000094 169.270594 
L 194.286419 158.182594 
L 194.572744 158.182594 
L 194.859069 169.270594 
L 195.145394 158.182594 
L 195.43172 169.270594 
L 195.718045 158.182594 
L 196.00437 158.182594 
L 196.290695 169.270594 
L 196.57702 158.182594 
L 196.863345 169.270594 
L 197.14967 147.094594 
L 197.435996 169.270594 
L 197.722321 158.182594 
L 198.008646 158.182594 
L 198.294971 169.270594 
L 198.581296 169.270594 
L 198.867621 158.182594 
L 199.440272 158.182594 
L 199.726597 169.270594 
L 200.012922 158.182594 
L 200.299247 158.182594 
L 200.585572 169.270594 
L 200.871897 158.182594 
L 201.158223 169.270594 
L 201.444548 158.182594 
L 201.730873 158.182594 
L 202.017198 169.270594 
L 202.303523 147.094594 
L 202.589848 169.270594 
L 202.876173 158.182594 
L 203.162499 158.182594 
L 203.448824 169.270594 
L 203.735149 169.270594 
L 204.021474 158.182594 
L 204.594124 158.182594 
L 204.88045 169.270594 
L 205.166775 158.182594 
L 205.4531 158.182594 
L 205.739425 169.270594 
L 206.02575 158.182594 
L 206.312075 169.270594 
L 206.5984 147.094594 
L 206.884726 169.270594 
L 207.171051 169.270594 
L 207.457376 158.182594 
L 207.743701 158.182594 
L 208.030026 169.270594 
L 208.316351 147.094594 
L 208.602676 169.270594 
L 208.889002 169.270594 
L 209.175327 158.182594 
L 210.034302 158.182594 
L 210.320627 169.270594 
L 210.606953 169.270594 
L 210.893278 147.094594 
L 211.179603 169.270594 
L 211.465928 169.270594 
L 211.752253 158.182594 
L 212.038578 158.182594 
L 212.324903 169.270594 
L 212.611229 147.094594 
L 212.897554 169.270594 
L 213.183879 169.270594 
L 213.470204 158.182594 
L 213.756529 158.182594 
L 214.042854 169.270594 
L 214.32918 158.182594 
L 214.615505 158.182594 
L 214.90183 169.270594 
L 215.188155 147.094594 
L 215.47448 169.270594 
L 215.760805 158.182594 
L 216.04713 158.182594 
L 216.333456 169.270594 
L 216.619781 158.182594 
L 216.906106 158.182594 
L 217.192431 169.270594 
L 217.478756 169.270594 
L 217.765081 147.094594 
L 218.051407 169.270594 
L 218.337732 169.270594 
L 218.624057 147.094594 
L 218.910382 169.270594 
L 219.196707 169.270594 
L 219.483032 147.094594 
L 219.769357 169.270594 
L 220.055683 169.270594 
L 220.342008 158.182594 
L 220.628333 158.182594 
L 220.914658 169.270594 
L 221.200983 158.182594 
L 221.487308 158.182594 
L 221.773633 169.270594 
L 222.059959 147.094594 
L 222.346284 169.270594 
L 222.632609 169.270594 
L 222.918934 158.182594 
L 223.205259 158.182594 
L 223.491584 169.270594 
L 223.77791 147.094594 
L 224.064235 169.270594 
L 224.35056 169.270594 
L 224.636885 158.182594 
L 225.49586 158.182594 
L 225.782186 169.270594 
L 226.068511 169.270594 
L 226.354836 147.094594 
L 226.641161 169.270594 
L 226.927486 169.270594 
L 227.213811 158.182594 
L 227.500137 158.182594 
L 227.786462 169.270594 
L 228.072787 158.182594 
L 228.645437 158.182594 
L 228.931762 169.270594 
L 229.218087 158.182594 
L 229.504413 169.270594 
L 229.790738 158.182594 
L 230.077063 158.182594 
L 230.363388 169.270594 
L 230.649713 147.094594 
L 230.936038 169.270594 
L 231.222363 169.270594 
L 231.508689 147.094594 
L 231.795014 169.270594 
L 232.081339 169.270594 
L 232.367664 158.182594 
L 232.653989 169.270594 
L 232.940314 158.182594 
L 233.512965 158.182594 
L 233.79929 169.270594 
L 234.085615 158.182594 
L 234.37194 158.182594 
L 234.658265 169.270594 
L 234.94459 158.182594 
L 235.230916 158.182594 
L 235.517241 169.270594 
L 235.803566 158.182594 
L 236.089891 158.182594 
L 236.376216 169.270594 
L 236.662541 158.182594 
L 236.948867 158.182594 
L 237.235192 169.270594 
L 237.521517 158.182594 
L 237.807842 158.182594 
L 238.094167 169.270594 
L 238.380492 158.182594 
L 238.666817 158.182594 
L 238.953143 169.270594 
L 239.239468 158.182594 
L 239.525793 158.182594 
L 239.812118 169.270594 
L 240.098443 158.182594 
L 240.384768 158.182594 
L 240.671093 169.270594 
L 240.957419 147.094594 
L 241.243744 169.270594 
L 241.530069 169.270594 
L 241.816394 158.182594 
L 242.102719 158.182594 
L 242.389044 169.270594 
L 242.67537 158.182594 
L 242.961695 158.182594 
L 243.24802 169.270594 
L 243.534345 147.094594 
L 243.82067 169.270594 
L 244.106995 169.270594 
L 244.39332 147.094594 
L 244.679646 169.270594 
L 244.965971 169.270594 
L 245.252296 158.182594 
L 245.538621 158.182594 
L 245.824946 169.270594 
L 246.111271 158.182594 
L 246.397597 158.182594 
L 246.683922 169.270594 
L 246.970247 158.182594 
L 247.256572 158.182594 
L 247.542897 169.270594 
L 247.829222 147.094594 
L 248.115547 169.270594 
L 248.401873 169.270594 
L 248.688198 158.182594 
L 248.974523 158.182594 
L 249.260848 169.270594 
L 249.547173 158.182594 
L 249.833498 158.182594 
L 250.119824 169.270594 
L 250.406149 158.182594 
L 250.692474 158.182594 
L 250.978799 169.270594 
L 251.265124 147.094594 
L 251.551449 169.270594 
L 251.837774 169.270594 
L 252.1241 147.094594 
L 252.410425 169.270594 
L 252.69675 169.270594 
L 252.983075 158.182594 
L 253.2694 158.182594 
L 253.555725 169.270594 
L 253.84205 147.094594 
L 254.128376 169.270594 
L 254.414701 169.270594 
L 254.701026 158.182594 
L 254.987351 158.182594 
L 255.273676 169.270594 
L 255.560001 158.182594 
L 255.846327 158.182594 
L 256.132652 169.270594 
L 256.418977 147.094594 
L 256.705302 169.270594 
L 256.991627 169.270594 
L 257.277952 158.182594 
L 257.564277 158.182594 
L 257.850603 169.270594 
L 258.136928 147.094594 
L 258.423253 169.270594 
L 258.709578 169.270594 
L 258.995903 158.182594 
L 259.282228 158.182594 
L 259.568554 169.270594 
L 259.854879 158.182594 
L 260.141204 158.182594 
L 260.427529 169.270594 
L 260.713854 158.182594 
L 261.000179 158.182594 
L 261.286504 169.270594 
L 261.57283 147.094594 
L 261.859155 169.270594 
L 262.14548 169.270594 
L 262.431805 147.094594 
L 262.71813 169.270594 
L 263.004455 169.270594 
L 263.29078 147.094594 
L 263.577106 169.270594 
L 263.863431 169.270594 
L 264.149756 158.182594 
L 264.436081 158.182594 
L 264.722406 169.270594 
L 265.008731 158.182594 
L 265.295057 158.182594 
L 265.581382 169.270594 
L 265.867707 158.182594 
L 266.154032 158.182594 
L 266.440357 169.270594 
L 266.726682 158.182594 
L 267.013007 158.182594 
L 267.299333 169.270594 
L 267.585658 158.182594 
L 267.871983 158.182594 
L 268.158308 169.270594 
L 268.444633 147.094594 
L 268.730958 169.270594 
L 269.017284 169.270594 
L 269.303609 147.094594 
L 269.589934 169.270594 
L 269.876259 169.270594 
L 270.162584 147.094594 
L 270.448909 169.270594 
L 270.735234 169.270594 
L 271.02156 158.182594 
L 271.307885 158.182594 
L 271.59421 169.270594 
L 271.880535 158.182594 
L 272.16686 158.182594 
L 272.453185 169.270594 
L 272.73951 147.094594 
L 273.025836 169.270594 
L 273.312161 169.270594 
L 273.598486 147.094594 
L 273.884811 169.270594 
L 274.171136 169.270594 
L 274.457461 158.182594 
L 274.743787 158.182594 
L 275.030112 169.270594 
L 275.316437 147.094594 
L 275.602762 169.270594 
L 275.889087 169.270594 
L 276.175412 147.094594 
L 276.461737 169.270594 
L 276.748063 169.270594 
L 277.034388 158.182594 
L 277.320713 158.182594 
L 277.607038 169.270594 
L 277.893363 147.094594 
L 278.179688 169.270594 
L 278.466014 169.270594 
L 278.752339 147.094594 
L 279.038664 169.270594 
L 279.324989 169.270594 
L 279.611314 158.182594 
L 279.897639 158.182594 
L 280.183964 169.270594 
L 280.47029 147.094594 
L 280.756615 169.270594 
L 281.04294 169.270594 
L 281.329265 158.182594 
L 281.61559 158.182594 
L 281.901915 169.270594 
L 282.188241 158.182594 
L 282.474566 158.182594 
L 282.760891 169.270594 
L 283.047216 158.182594 
L 283.333541 158.182594 
L 283.619866 169.270594 
L 283.906191 147.094594 
L 284.192517 169.270594 
L 284.478842 169.270594 
L 284.765167 158.182594 
L 285.051492 158.182594 
L 285.337817 169.270594 
L 285.624142 147.094594 
L 285.910467 169.270594 
L 286.196793 169.270594 
L 286.483118 158.182594 
L 286.769443 158.182594 
L 287.055768 169.270594 
L 287.342093 158.182594 
L 287.628418 158.182594 
L 287.914744 169.270594 
L 288.201069 147.094594 
L 288.487394 169.270594 
L 288.773719 169.270594 
L 289.060044 147.094594 
L 289.346369 169.270594 
L 289.632694 169.270594 
L 289.91902 147.094594 
L 290.205345 169.270594 
L 290.49167 169.270594 
L 290.777995 147.094594 
L 291.06432 169.270594 
L 291.350645 158.182594 
L 291.636971 158.182594 
L 291.923296 169.270594 
L 292.209621 169.270594 
L 292.495946 158.182594 
L 292.782271 158.182594 
L 293.068596 169.270594 
L 293.354921 158.182594 
L 293.641247 158.182594 
L 293.927572 169.270594 
L 294.213897 158.182594 
L 294.786547 158.182594 
L 295.072872 169.270594 
L 295.359197 158.182594 
L 295.645523 169.270594 
L 295.931848 158.182594 
L 296.218173 169.270594 
L 296.504498 158.182594 
L 296.790823 158.182594 
L 297.077148 169.270594 
L 297.363474 158.182594 
L 297.936124 158.182594 
L 298.222449 169.270594 
L 298.508774 158.182594 
L 298.795099 158.182594 
L 299.081424 169.270594 
L 299.36775 158.182594 
L 299.654075 158.182594 
L 299.9404 169.270594 
L 300.226725 158.182594 
L 300.51305 158.182594 
L 300.799375 169.270594 
L 301.085701 158.182594 
L 301.372026 158.182594 
L 301.658351 169.270594 
L 301.944676 158.182594 
L 302.231001 158.182594 
L 302.517326 169.270594 
L 302.803651 158.182594 
L 303.089977 158.182594 
L 303.376302 169.270594 
L 303.662627 147.094594 
L 303.948952 169.270594 
L 304.235277 169.270594 
L 304.521602 158.182594 
L 304.807927 158.182594 
L 305.094253 169.270594 
L 305.380578 147.094594 
L 305.666903 169.270594 
L 305.953228 169.270594 
L 306.239553 158.182594 
L 306.525878 158.182594 
L 306.812204 169.270594 
L 307.098529 147.094594 
L 307.384854 169.270594 
L 307.671179 169.270594 
L 307.957504 158.182594 
L 308.243829 158.182594 
L 308.530154 169.270594 
L 308.81648 158.182594 
L 309.102805 158.182594 
L 309.38913 169.270594 
L 309.675455 158.182594 
L 309.96178 158.182594 
L 310.248105 169.270594 
L 310.534431 158.182594 
L 310.820756 169.270594 
L 311.107081 158.182594 
L 311.679731 158.182594 
L 311.966056 169.270594 
L 312.252381 147.094594 
L 312.538707 169.270594 
L 312.825032 169.270594 
L 313.111357 158.182594 
L 313.397682 158.182594 
L 313.684007 169.270594 
L 313.970332 158.182594 
L 314.256658 158.182594 
L 314.542983 169.270594 
L 314.829308 158.182594 
L 315.115633 158.182594 
L 315.401958 169.270594 
L 315.688283 158.182594 
L 315.974608 158.182594 
L 316.260934 169.270594 
L 316.547259 147.094594 
L 316.833584 169.270594 
L 317.119909 169.270594 
L 317.406234 158.182594 
L 317.692559 158.182594 
L 317.978884 169.270594 
L 318.26521 158.182594 
L 318.551535 158.182594 
L 318.83786 169.270594 
L 319.124185 158.182594 
L 319.41051 158.182594 
L 319.696835 169.270594 
L 319.983161 158.182594 
L 320.269486 158.182594 
L 320.555811 169.270594 
L 320.842136 147.094594 
L 321.128461 169.270594 
L 321.414786 169.270594 
L 321.701111 147.094594 
L 321.987437 169.270594 
L 322.273762 169.270594 
L 322.560087 158.182594 
L 322.846412 158.182594 
L 323.132737 169.270594 
L 323.419062 158.182594 
L 323.705388 158.182594 
L 323.991713 169.270594 
L 324.278038 147.094594 
L 324.564363 169.270594 
L 324.850688 169.270594 
L 325.137013 158.182594 
L 325.423338 158.182594 
L 325.709664 169.270594 
L 325.995989 158.182594 
L 326.282314 158.182594 
L 326.568639 169.270594 
L 326.854964 147.094594 
L 327.141289 169.270594 
L 327.427614 169.270594 
L 327.71394 158.182594 
L 328.000265 158.182594 
L 328.28659 169.270594 
L 328.572915 147.094594 
L 328.85924 169.270594 
L 329.145565 169.270594 
L 329.431891 147.094594 
L 329.718216 169.270594 
L 330.004541 158.182594 
L 330.290866 158.182594 
L 330.577191 169.270594 
L 330.863516 169.270594 
L 331.149841 158.182594 
L 331.436167 158.182594 
L 331.722492 169.270594 
L 332.008817 158.182594 
L 332.295142 158.182594 
L 332.581467 169.270594 
L 332.867792 158.182594 
L 333.154118 158.182594 
L 333.440443 169.270594 
L 333.726768 158.182594 
L 334.013093 158.182594 
L 334.299418 169.270594 
L 334.585743 158.182594 
L 334.872068 158.182594 
L 335.158394 169.270594 
L 335.444719 158.182594 
L 336.303694 158.182594 
L 336.590019 169.270594 
L 336.876345 169.270594 
L 337.16267 158.182594 
L 337.448995 158.182594 
L 337.73532 169.270594 
L 338.021645 158.182594 
L 338.30797 158.182594 
L 338.594295 169.270594 
L 338.880621 158.182594 
L 339.166946 158.182594 
L 339.453271 169.270594 
L 339.739596 147.094594 
L 340.025921 169.270594 
L 340.312246 169.270594 
L 340.598571 147.094594 
L 340.884897 169.270594 
L 341.171222 169.270594 
L 341.457547 158.182594 
L 341.743872 158.182594 
L 342.030197 169.270594 
L 342.316522 158.182594 
L 342.602848 158.182594 
L 342.889173 169.270594 
L 343.175498 147.094594 
L 343.461823 169.270594 
L 343.748148 169.270594 
L 344.034473 147.094594 
L 344.320798 169.270594 
L 344.607124 169.270594 
L 344.893449 147.094594 
L 345.179774 169.270594 
L 345.466099 169.270594 
L 345.752424 147.094594 
L 346.038749 180.358594 
L 346.325075 158.182594 
L 346.6114 147.094594 
L 346.897725 169.270594 
L 347.18405 158.182594 
L 347.470375 169.270594 
L 347.7567 158.182594 
L 348.043025 169.270594 
L 348.329351 147.094594 
L 348.615676 169.270594 
L 348.902001 169.270594 
L 349.188326 147.094594 
L 349.474651 169.270594 
L 349.760976 169.270594 
L 350.047301 147.094594 
L 350.333627 169.270594 
L 350.619952 169.270594 
L 350.906277 147.094594 
L 351.192602 169.270594 
L 351.478927 169.270594 
L 351.765252 147.094594 
L 352.051578 169.270594 
L 352.337903 169.270594 
L 352.624228 147.094594 
L 352.910553 169.270594 
L 353.196878 158.182594 
L 353.483203 169.270594 
L 353.769528 158.182594 
L 354.055854 169.270594 
L 354.342179 158.182594 
L 354.628504 158.182594 
L 354.914829 169.270594 
L 355.201154 147.094594 
L 355.487479 169.270594 
L 355.773805 169.270594 
L 356.06013 158.182594 
L 356.346455 158.182594 
L 356.63278 169.270594 
L 356.919105 147.094594 
L 357.20543 169.270594 
L 357.491755 169.270594 
L 357.778081 158.182594 
L 358.064406 158.182594 
L 358.350731 169.270594 
L 358.637056 147.094594 
L 358.923381 169.270594 
L 359.209706 169.270594 
L 359.496031 147.094594 
L 359.782357 169.270594 
L 360.068682 169.270594 
L 360.355007 147.094594 
L 360.641332 169.270594 
L 360.927657 169.270594 
L 361.213982 147.094594 
L 361.500308 169.270594 
L 361.786633 169.270594 
L 362.072958 147.094594 
L 362.359283 169.270594 
L 362.645608 169.270594 
L 362.931933 147.094594 
L 363.218258 169.270594 
L 363.504584 169.270594 
L 363.790909 147.094594 
L 364.077234 169.270594 
L 364.363559 169.270594 
L 364.649884 158.182594 
L 364.936209 158.182594 
L 365.222535 169.270594 
L 365.50886 147.094594 
L 365.795185 169.270594 
L 366.08151 169.270594 
L 366.367835 158.182594 
L 366.65416 158.182594 
L 366.940485 169.270594 
L 367.226811 158.182594 
L 367.513136 158.182594 
L 367.799461 169.270594 
L 368.085786 147.094594 
L 368.372111 169.270594 
L 368.658436 169.270594 
L 368.944762 158.182594 
L 369.231087 158.182594 
L 369.517412 169.270594 
L 369.803737 147.094594 
L 370.090062 169.270594 
L 370.376387 169.270594 
L 370.662712 158.182594 
L 370.949038 158.182594 
L 371.235363 169.270594 
L 371.521688 158.182594 
L 371.808013 158.182594 
L 372.094338 169.270594 
L 372.380663 158.182594 
L 372.666988 158.182594 
L 372.953314 169.270594 
L 373.239639 158.182594 
L 373.525964 158.182594 
L 373.812289 169.270594 
L 374.098614 147.094594 
L 374.384939 169.270594 
L 374.671265 169.270594 
L 374.95759 147.094594 
L 375.243915 169.270594 
L 375.53024 169.270594 
L 375.816565 158.182594 
L 376.10289 158.182594 
L 376.389215 169.270594 
L 376.675541 158.182594 
L 376.961866 158.182594 
L 377.248191 169.270594 
L 377.534516 158.182594 
L 377.820841 158.182594 
L 378.107166 169.270594 
L 378.393492 158.182594 
L 378.679817 158.182594 
L 378.966142 169.270594 
L 379.252467 147.094594 
L 379.538792 169.270594 
L 379.825117 169.270594 
L 380.111442 158.182594 
L 380.397768 158.182594 
L 380.684093 169.270594 
L 380.970418 158.182594 
L 381.256743 158.182594 
L 381.543068 169.270594 
L 381.543068 169.270594 
" style="fill:none;stroke:#1f77b4;stroke-linecap:square;stroke-width:1.5;"/>
   </g>
  </g>
 </g>
 <defs>
  <clipPath id="p6a5e7cfd8b">
   <rect height="332.64" width="334.8" x="61.96125" y="14.038594"/>
  </clipPath>
 </defs>
</svg>
