<?xml version="1.0" encoding="utf-8" standalone="no"?>
<!DOCTYPE svg PUBLIC "-//W3C//DTD SVG 1.1//EN"
  "http://www.w3.org/Graphics/SVG/1.1/DTD/svg11.dtd">
<!-- Created with matplotlib (https://matplotlib.org/) -->
<svg height="403.155469pt" version="1.1" viewBox="0 0 775.219853 403.155469" width="775.219853pt" xmlns="http://www.w3.org/2000/svg" xmlns:xlink="http://www.w3.org/1999/xlink">
 <defs>
  <style type="text/css">
*{stroke-linecap:butt;stroke-linejoin:round;}
  </style>
 </defs>
 <g id="figure_1">
  <g id="patch_1">
   <path d="M 0 403.155469 
L 775.219853 403.155469 
L 775.219853 0 
L 0 0 
z
" style="fill:#ffffff;"/>
  </g>
  <g id="axes_1">
   <g id="patch_2">
    <path d="M 77.044688 346.678594 
L 746.644688 346.678594 
L 746.644688 14.038594 
L 77.044688 14.038594 
z
" style="fill:#ffffff;"/>
   </g>
   <g id="matplotlib.axis_1">
    <g id="xtick_1">
     <g id="line2d_1">
      <defs>
       <path d="M 0 5 
L 0 -5 
" id="mfa9aa3cffb" style="stroke:#525252;stroke-width:4;"/>
      </defs>
      <g>
       <use style="fill:#525252;stroke:#525252;stroke-width:4;" x="133.368222" xlink:href="#mfa9aa3cffb" y="346.678594"/>
      </g>
     </g>
     <g id="text_1">
      <!-- 10000 -->
      <defs>
       <path d="M 12.40625 8.296875 
L 28.515625 8.296875 
L 28.515625 63.921875 
L 10.984375 60.40625 
L 10.984375 69.390625 
L 28.421875 72.90625 
L 38.28125 72.90625 
L 38.28125 8.296875 
L 54.390625 8.296875 
L 54.390625 0 
L 12.40625 0 
z
" id="DejaVuSans-49"/>
       <path d="M 31.78125 66.40625 
Q 24.171875 66.40625 20.328125 58.90625 
Q 16.5 51.421875 16.5 36.375 
Q 16.5 21.390625 20.328125 13.890625 
Q 24.171875 6.390625 31.78125 6.390625 
Q 39.453125 6.390625 43.28125 13.890625 
Q 47.125 21.390625 47.125 36.375 
Q 47.125 51.421875 43.28125 58.90625 
Q 39.453125 66.40625 31.78125 66.40625 
z
M 31.78125 74.21875 
Q 44.046875 74.21875 50.515625 64.515625 
Q 56.984375 54.828125 56.984375 36.375 
Q 56.984375 17.96875 50.515625 8.265625 
Q 44.046875 -1.421875 31.78125 -1.421875 
Q 19.53125 -1.421875 13.0625 8.265625 
Q 6.59375 17.96875 6.59375 36.375 
Q 6.59375 54.828125 13.0625 64.515625 
Q 19.53125 74.21875 31.78125 74.21875 
z
" id="DejaVuSans-48"/>
      </defs>
      <g transform="translate(104.736972 368.855781)scale(0.18 -0.18)">
       <use xlink:href="#DejaVuSans-49"/>
       <use x="63.623047" xlink:href="#DejaVuSans-48"/>
       <use x="127.246094" xlink:href="#DejaVuSans-48"/>
       <use x="190.869141" xlink:href="#DejaVuSans-48"/>
       <use x="254.492188" xlink:href="#DejaVuSans-48"/>
      </g>
     </g>
    </g>
    <g id="xtick_2">
     <g id="line2d_2">
      <g>
       <use style="fill:#525252;stroke:#525252;stroke-width:4;" x="234.371619" xlink:href="#mfa9aa3cffb" y="346.678594"/>
      </g>
     </g>
     <g id="text_2">
      <!-- 20000 -->
      <defs>
       <path d="M 19.1875 8.296875 
L 53.609375 8.296875 
L 53.609375 0 
L 7.328125 0 
L 7.328125 8.296875 
Q 12.9375 14.109375 22.625 23.890625 
Q 32.328125 33.6875 34.8125 36.53125 
Q 39.546875 41.84375 41.421875 45.53125 
Q 43.3125 49.21875 43.3125 52.78125 
Q 43.3125 58.59375 39.234375 62.25 
Q 35.15625 65.921875 28.609375 65.921875 
Q 23.96875 65.921875 18.8125 64.3125 
Q 13.671875 62.703125 7.8125 59.421875 
L 7.8125 69.390625 
Q 13.765625 71.78125 18.9375 73 
Q 24.125 74.21875 28.421875 74.21875 
Q 39.75 74.21875 46.484375 68.546875 
Q 53.21875 62.890625 53.21875 53.421875 
Q 53.21875 48.921875 51.53125 44.890625 
Q 49.859375 40.875 45.40625 35.40625 
Q 44.1875 33.984375 37.640625 27.21875 
Q 31.109375 20.453125 19.1875 8.296875 
z
" id="DejaVuSans-50"/>
      </defs>
      <g transform="translate(205.740369 368.855781)scale(0.18 -0.18)">
       <use xlink:href="#DejaVuSans-50"/>
       <use x="63.623047" xlink:href="#DejaVuSans-48"/>
       <use x="127.246094" xlink:href="#DejaVuSans-48"/>
       <use x="190.869141" xlink:href="#DejaVuSans-48"/>
       <use x="254.492188" xlink:href="#DejaVuSans-48"/>
      </g>
     </g>
    </g>
    <g id="xtick_3">
     <g id="line2d_3">
      <g>
       <use style="fill:#525252;stroke:#525252;stroke-width:4;" x="335.375016" xlink:href="#mfa9aa3cffb" y="346.678594"/>
      </g>
     </g>
     <g id="text_3">
      <!-- 30000 -->
      <defs>
       <path d="M 40.578125 39.3125 
Q 47.65625 37.796875 51.625 33 
Q 55.609375 28.21875 55.609375 21.1875 
Q 55.609375 10.40625 48.1875 4.484375 
Q 40.765625 -1.421875 27.09375 -1.421875 
Q 22.515625 -1.421875 17.65625 -0.515625 
Q 12.796875 0.390625 7.625 2.203125 
L 7.625 11.71875 
Q 11.71875 9.328125 16.59375 8.109375 
Q 21.484375 6.890625 26.8125 6.890625 
Q 36.078125 6.890625 40.9375 10.546875 
Q 45.796875 14.203125 45.796875 21.1875 
Q 45.796875 27.640625 41.28125 31.265625 
Q 36.765625 34.90625 28.71875 34.90625 
L 20.21875 34.90625 
L 20.21875 43.015625 
L 29.109375 43.015625 
Q 36.375 43.015625 40.234375 45.921875 
Q 44.09375 48.828125 44.09375 54.296875 
Q 44.09375 59.90625 40.109375 62.90625 
Q 36.140625 65.921875 28.71875 65.921875 
Q 24.65625 65.921875 20.015625 65.03125 
Q 15.375 64.15625 9.8125 62.3125 
L 9.8125 71.09375 
Q 15.4375 72.65625 20.34375 73.4375 
Q 25.25 74.21875 29.59375 74.21875 
Q 40.828125 74.21875 47.359375 69.109375 
Q 53.90625 64.015625 53.90625 55.328125 
Q 53.90625 49.265625 50.4375 45.09375 
Q 46.96875 40.921875 40.578125 39.3125 
z
" id="DejaVuSans-51"/>
      </defs>
      <g transform="translate(306.743766 368.855781)scale(0.18 -0.18)">
       <use xlink:href="#DejaVuSans-51"/>
       <use x="63.623047" xlink:href="#DejaVuSans-48"/>
       <use x="127.246094" xlink:href="#DejaVuSans-48"/>
       <use x="190.869141" xlink:href="#DejaVuSans-48"/>
       <use x="254.492188" xlink:href="#DejaVuSans-48"/>
      </g>
     </g>
    </g>
    <g id="xtick_4">
     <g id="line2d_4">
      <g>
       <use style="fill:#525252;stroke:#525252;stroke-width:4;" x="436.378413" xlink:href="#mfa9aa3cffb" y="346.678594"/>
      </g>
     </g>
     <g id="text_4">
      <!-- 40000 -->
      <defs>
       <path d="M 37.796875 64.3125 
L 12.890625 25.390625 
L 37.796875 25.390625 
z
M 35.203125 72.90625 
L 47.609375 72.90625 
L 47.609375 25.390625 
L 58.015625 25.390625 
L 58.015625 17.1875 
L 47.609375 17.1875 
L 47.609375 0 
L 37.796875 0 
L 37.796875 17.1875 
L 4.890625 17.1875 
L 4.890625 26.703125 
z
" id="DejaVuSans-52"/>
      </defs>
      <g transform="translate(407.747163 368.855781)scale(0.18 -0.18)">
       <use xlink:href="#DejaVuSans-52"/>
       <use x="63.623047" xlink:href="#DejaVuSans-48"/>
       <use x="127.246094" xlink:href="#DejaVuSans-48"/>
       <use x="190.869141" xlink:href="#DejaVuSans-48"/>
       <use x="254.492188" xlink:href="#DejaVuSans-48"/>
      </g>
     </g>
    </g>
    <g id="xtick_5">
     <g id="line2d_5">
      <g>
       <use style="fill:#525252;stroke:#525252;stroke-width:4;" x="537.38181" xlink:href="#mfa9aa3cffb" y="346.678594"/>
      </g>
     </g>
     <g id="text_5">
      <!-- 50000 -->
      <defs>
       <path d="M 10.796875 72.90625 
L 49.515625 72.90625 
L 49.515625 64.59375 
L 19.828125 64.59375 
L 19.828125 46.734375 
Q 21.96875 47.46875 24.109375 47.828125 
Q 26.265625 48.1875 28.421875 48.1875 
Q 40.625 48.1875 47.75 41.5 
Q 54.890625 34.8125 54.890625 23.390625 
Q 54.890625 11.625 47.5625 5.09375 
Q 40.234375 -1.421875 26.90625 -1.421875 
Q 22.3125 -1.421875 17.546875 -0.640625 
Q 12.796875 0.140625 7.71875 1.703125 
L 7.71875 11.625 
Q 12.109375 9.234375 16.796875 8.0625 
Q 21.484375 6.890625 26.703125 6.890625 
Q 35.15625 6.890625 40.078125 11.328125 
Q 45.015625 15.765625 45.015625 23.390625 
Q 45.015625 31 40.078125 35.4375 
Q 35.15625 39.890625 26.703125 39.890625 
Q 22.75 39.890625 18.8125 39.015625 
Q 14.890625 38.140625 10.796875 36.28125 
z
" id="DejaVuSans-53"/>
      </defs>
      <g transform="translate(508.75056 368.855781)scale(0.18 -0.18)">
       <use xlink:href="#DejaVuSans-53"/>
       <use x="63.623047" xlink:href="#DejaVuSans-48"/>
       <use x="127.246094" xlink:href="#DejaVuSans-48"/>
       <use x="190.869141" xlink:href="#DejaVuSans-48"/>
       <use x="254.492188" xlink:href="#DejaVuSans-48"/>
      </g>
     </g>
    </g>
    <g id="xtick_6">
     <g id="line2d_6">
      <g>
       <use style="fill:#525252;stroke:#525252;stroke-width:4;" x="638.385207" xlink:href="#mfa9aa3cffb" y="346.678594"/>
      </g>
     </g>
     <g id="text_6">
      <!-- 60000 -->
      <defs>
       <path d="M 33.015625 40.375 
Q 26.375 40.375 22.484375 35.828125 
Q 18.609375 31.296875 18.609375 23.390625 
Q 18.609375 15.53125 22.484375 10.953125 
Q 26.375 6.390625 33.015625 6.390625 
Q 39.65625 6.390625 43.53125 10.953125 
Q 47.40625 15.53125 47.40625 23.390625 
Q 47.40625 31.296875 43.53125 35.828125 
Q 39.65625 40.375 33.015625 40.375 
z
M 52.59375 71.296875 
L 52.59375 62.3125 
Q 48.875 64.0625 45.09375 64.984375 
Q 41.3125 65.921875 37.59375 65.921875 
Q 27.828125 65.921875 22.671875 59.328125 
Q 17.53125 52.734375 16.796875 39.40625 
Q 19.671875 43.65625 24.015625 45.921875 
Q 28.375 48.1875 33.59375 48.1875 
Q 44.578125 48.1875 50.953125 41.515625 
Q 57.328125 34.859375 57.328125 23.390625 
Q 57.328125 12.15625 50.6875 5.359375 
Q 44.046875 -1.421875 33.015625 -1.421875 
Q 20.359375 -1.421875 13.671875 8.265625 
Q 6.984375 17.96875 6.984375 36.375 
Q 6.984375 53.65625 15.1875 63.9375 
Q 23.390625 74.21875 37.203125 74.21875 
Q 40.921875 74.21875 44.703125 73.484375 
Q 48.484375 72.75 52.59375 71.296875 
z
" id="DejaVuSans-54"/>
      </defs>
      <g transform="translate(609.753957 368.855781)scale(0.18 -0.18)">
       <use xlink:href="#DejaVuSans-54"/>
       <use x="63.623047" xlink:href="#DejaVuSans-48"/>
       <use x="127.246094" xlink:href="#DejaVuSans-48"/>
       <use x="190.869141" xlink:href="#DejaVuSans-48"/>
       <use x="254.492188" xlink:href="#DejaVuSans-48"/>
      </g>
     </g>
    </g>
    <g id="xtick_7">
     <g id="line2d_7">
      <g>
       <use style="fill:#525252;stroke:#525252;stroke-width:4;" x="739.388603" xlink:href="#mfa9aa3cffb" y="346.678594"/>
      </g>
     </g>
     <g id="text_7">
      <!-- 70000 -->
      <defs>
       <path d="M 8.203125 72.90625 
L 55.078125 72.90625 
L 55.078125 68.703125 
L 28.609375 0 
L 18.3125 0 
L 43.21875 64.59375 
L 8.203125 64.59375 
z
" id="DejaVuSans-55"/>
      </defs>
      <g transform="translate(710.757353 368.855781)scale(0.18 -0.18)">
       <use xlink:href="#DejaVuSans-55"/>
       <use x="63.623047" xlink:href="#DejaVuSans-48"/>
       <use x="127.246094" xlink:href="#DejaVuSans-48"/>
       <use x="190.869141" xlink:href="#DejaVuSans-48"/>
       <use x="254.492188" xlink:href="#DejaVuSans-48"/>
      </g>
     </g>
    </g>
    <g id="text_8">
     <!-- Time (ms) -->
     <defs>
      <path d="M -0.296875 72.90625 
L 61.375 72.90625 
L 61.375 64.59375 
L 35.5 64.59375 
L 35.5 0 
L 25.59375 0 
L 25.59375 64.59375 
L -0.296875 64.59375 
z
" id="DejaVuSans-84"/>
      <path d="M 9.421875 54.6875 
L 18.40625 54.6875 
L 18.40625 0 
L 9.421875 0 
z
M 9.421875 75.984375 
L 18.40625 75.984375 
L 18.40625 64.59375 
L 9.421875 64.59375 
z
" id="DejaVuSans-105"/>
      <path d="M 52 44.1875 
Q 55.375 50.25 60.0625 53.125 
Q 64.75 56 71.09375 56 
Q 79.640625 56 84.28125 50.015625 
Q 88.921875 44.046875 88.921875 33.015625 
L 88.921875 0 
L 79.890625 0 
L 79.890625 32.71875 
Q 79.890625 40.578125 77.09375 44.375 
Q 74.3125 48.1875 68.609375 48.1875 
Q 61.625 48.1875 57.5625 43.546875 
Q 53.515625 38.921875 53.515625 30.90625 
L 53.515625 0 
L 44.484375 0 
L 44.484375 32.71875 
Q 44.484375 40.625 41.703125 44.40625 
Q 38.921875 48.1875 33.109375 48.1875 
Q 26.21875 48.1875 22.15625 43.53125 
Q 18.109375 38.875 18.109375 30.90625 
L 18.109375 0 
L 9.078125 0 
L 9.078125 54.6875 
L 18.109375 54.6875 
L 18.109375 46.1875 
Q 21.1875 51.21875 25.484375 53.609375 
Q 29.78125 56 35.6875 56 
Q 41.65625 56 45.828125 52.96875 
Q 50 49.953125 52 44.1875 
z
" id="DejaVuSans-109"/>
      <path d="M 56.203125 29.59375 
L 56.203125 25.203125 
L 14.890625 25.203125 
Q 15.484375 15.921875 20.484375 11.0625 
Q 25.484375 6.203125 34.421875 6.203125 
Q 39.59375 6.203125 44.453125 7.46875 
Q 49.3125 8.734375 54.109375 11.28125 
L 54.109375 2.78125 
Q 49.265625 0.734375 44.1875 -0.34375 
Q 39.109375 -1.421875 33.890625 -1.421875 
Q 20.796875 -1.421875 13.15625 6.1875 
Q 5.515625 13.8125 5.515625 26.8125 
Q 5.515625 40.234375 12.765625 48.109375 
Q 20.015625 56 32.328125 56 
Q 43.359375 56 49.78125 48.890625 
Q 56.203125 41.796875 56.203125 29.59375 
z
M 47.21875 32.234375 
Q 47.125 39.59375 43.09375 43.984375 
Q 39.0625 48.390625 32.421875 48.390625 
Q 24.90625 48.390625 20.390625 44.140625 
Q 15.875 39.890625 15.1875 32.171875 
z
" id="DejaVuSans-101"/>
      <path id="DejaVuSans-32"/>
      <path d="M 31 75.875 
Q 24.46875 64.65625 21.28125 53.65625 
Q 18.109375 42.671875 18.109375 31.390625 
Q 18.109375 20.125 21.3125 9.0625 
Q 24.515625 -2 31 -13.1875 
L 23.1875 -13.1875 
Q 15.875 -1.703125 12.234375 9.375 
Q 8.59375 20.453125 8.59375 31.390625 
Q 8.59375 42.28125 12.203125 53.3125 
Q 15.828125 64.359375 23.1875 75.875 
z
" id="DejaVuSans-40"/>
      <path d="M 44.28125 53.078125 
L 44.28125 44.578125 
Q 40.484375 46.53125 36.375 47.5 
Q 32.28125 48.484375 27.875 48.484375 
Q 21.1875 48.484375 17.84375 46.4375 
Q 14.5 44.390625 14.5 40.28125 
Q 14.5 37.15625 16.890625 35.375 
Q 19.28125 33.59375 26.515625 31.984375 
L 29.59375 31.296875 
Q 39.15625 29.25 43.1875 25.515625 
Q 47.21875 21.78125 47.21875 15.09375 
Q 47.21875 7.46875 41.1875 3.015625 
Q 35.15625 -1.421875 24.609375 -1.421875 
Q 20.21875 -1.421875 15.453125 -0.5625 
Q 10.6875 0.296875 5.421875 2 
L 5.421875 11.28125 
Q 10.40625 8.6875 15.234375 7.390625 
Q 20.0625 6.109375 24.8125 6.109375 
Q 31.15625 6.109375 34.5625 8.28125 
Q 37.984375 10.453125 37.984375 14.40625 
Q 37.984375 18.0625 35.515625 20.015625 
Q 33.0625 21.96875 24.703125 23.78125 
L 21.578125 24.515625 
Q 13.234375 26.265625 9.515625 29.90625 
Q 5.8125 33.546875 5.8125 39.890625 
Q 5.8125 47.609375 11.28125 51.796875 
Q 16.75 56 26.8125 56 
Q 31.78125 56 36.171875 55.265625 
Q 40.578125 54.546875 44.28125 53.078125 
z
" id="DejaVuSans-115"/>
      <path d="M 8.015625 75.875 
L 15.828125 75.875 
Q 23.140625 64.359375 26.78125 53.3125 
Q 30.421875 42.28125 30.421875 31.390625 
Q 30.421875 20.453125 26.78125 9.375 
Q 23.140625 -1.703125 15.828125 -13.1875 
L 8.015625 -13.1875 
Q 14.5 -2 17.703125 9.0625 
Q 20.90625 20.125 20.90625 31.390625 
Q 20.90625 42.671875 17.703125 53.65625 
Q 14.5 64.65625 8.015625 75.875 
z
" id="DejaVuSans-41"/>
     </defs>
     <g transform="translate(361.138438 391.796094)scale(0.2 -0.2)">
      <use xlink:href="#DejaVuSans-84"/>
      <use x="61.037109" xlink:href="#DejaVuSans-105"/>
      <use x="88.820312" xlink:href="#DejaVuSans-109"/>
      <use x="186.232422" xlink:href="#DejaVuSans-101"/>
      <use x="247.755859" xlink:href="#DejaVuSans-32"/>
      <use x="279.542969" xlink:href="#DejaVuSans-40"/>
      <use x="318.556641" xlink:href="#DejaVuSans-109"/>
      <use x="415.96875" xlink:href="#DejaVuSans-115"/>
      <use x="468.068359" xlink:href="#DejaVuSans-41"/>
     </g>
    </g>
   </g>
   <g id="matplotlib.axis_2">
    <g id="ytick_1">
     <g id="line2d_8">
      <defs>
       <path d="M 5 0 
L -5 -0 
" id="m4a88d738d6" style="stroke:#525252;stroke-width:4;"/>
      </defs>
      <g>
       <use style="fill:#525252;stroke:#525252;stroke-width:4;" x="77.044688" xlink:href="#m4a88d738d6" y="346.678594"/>
      </g>
     </g>
     <g id="text_9">
      <!-- −10 -->
      <defs>
       <path d="M 10.59375 35.5 
L 73.1875 35.5 
L 73.1875 27.203125 
L 10.59375 27.203125 
z
" id="DejaVuSans-8722"/>
      </defs>
      <g transform="translate(30.55625 353.517187)scale(0.18 -0.18)">
       <use xlink:href="#DejaVuSans-8722"/>
       <use x="83.789062" xlink:href="#DejaVuSans-49"/>
       <use x="147.412109" xlink:href="#DejaVuSans-48"/>
      </g>
     </g>
    </g>
    <g id="ytick_2">
     <g id="line2d_9">
      <g>
       <use style="fill:#525252;stroke:#525252;stroke-width:4;" x="77.044688" xlink:href="#m4a88d738d6" y="299.158594"/>
      </g>
     </g>
     <g id="text_10">
      <!-- −5 -->
      <g transform="translate(42.00875 305.997187)scale(0.18 -0.18)">
       <use xlink:href="#DejaVuSans-8722"/>
       <use x="83.789062" xlink:href="#DejaVuSans-53"/>
      </g>
     </g>
    </g>
    <g id="ytick_3">
     <g id="line2d_10">
      <g>
       <use style="fill:#525252;stroke:#525252;stroke-width:4;" x="77.044688" xlink:href="#m4a88d738d6" y="251.638594"/>
      </g>
     </g>
     <g id="text_11">
      <!-- 0 -->
      <g transform="translate(57.092188 258.477187)scale(0.18 -0.18)">
       <use xlink:href="#DejaVuSans-48"/>
      </g>
     </g>
    </g>
    <g id="ytick_4">
     <g id="line2d_11">
      <g>
       <use style="fill:#525252;stroke:#525252;stroke-width:4;" x="77.044688" xlink:href="#m4a88d738d6" y="204.118594"/>
      </g>
     </g>
     <g id="text_12">
      <!-- 5 -->
      <g transform="translate(57.092188 210.957187)scale(0.18 -0.18)">
       <use xlink:href="#DejaVuSans-53"/>
      </g>
     </g>
    </g>
    <g id="ytick_5">
     <g id="line2d_12">
      <g>
       <use style="fill:#525252;stroke:#525252;stroke-width:4;" x="77.044688" xlink:href="#m4a88d738d6" y="156.598594"/>
      </g>
     </g>
     <g id="text_13">
      <!-- 10 -->
      <g transform="translate(45.639688 163.437187)scale(0.18 -0.18)">
       <use xlink:href="#DejaVuSans-49"/>
       <use x="63.623047" xlink:href="#DejaVuSans-48"/>
      </g>
     </g>
    </g>
    <g id="ytick_6">
     <g id="line2d_13">
      <g>
       <use style="fill:#525252;stroke:#525252;stroke-width:4;" x="77.044688" xlink:href="#m4a88d738d6" y="109.078594"/>
      </g>
     </g>
     <g id="text_14">
      <!-- 15 -->
      <g transform="translate(45.639688 115.917187)scale(0.18 -0.18)">
       <use xlink:href="#DejaVuSans-49"/>
       <use x="63.623047" xlink:href="#DejaVuSans-53"/>
      </g>
     </g>
    </g>
    <g id="ytick_7">
     <g id="line2d_14">
      <g>
       <use style="fill:#525252;stroke:#525252;stroke-width:4;" x="77.044688" xlink:href="#m4a88d738d6" y="61.558594"/>
      </g>
     </g>
     <g id="text_15">
      <!-- 20 -->
      <g transform="translate(45.639688 68.397187)scale(0.18 -0.18)">
       <use xlink:href="#DejaVuSans-50"/>
       <use x="63.623047" xlink:href="#DejaVuSans-48"/>
      </g>
     </g>
    </g>
    <g id="ytick_8">
     <g id="line2d_15">
      <g>
       <use style="fill:#525252;stroke:#525252;stroke-width:4;" x="77.044688" xlink:href="#m4a88d738d6" y="14.038594"/>
      </g>
     </g>
     <g id="text_16">
      <!-- 25 -->
      <g transform="translate(45.639688 20.877187)scale(0.18 -0.18)">
       <use xlink:href="#DejaVuSans-50"/>
       <use x="63.623047" xlink:href="#DejaVuSans-53"/>
      </g>
     </g>
    </g>
    <g id="text_17">
     <!-- Acceleration -->
     <defs>
      <path d="M 34.1875 63.1875 
L 20.796875 26.90625 
L 47.609375 26.90625 
z
M 28.609375 72.90625 
L 39.796875 72.90625 
L 67.578125 0 
L 57.328125 0 
L 50.6875 18.703125 
L 17.828125 18.703125 
L 11.1875 0 
L 0.78125 0 
z
" id="DejaVuSans-65"/>
      <path d="M 48.78125 52.59375 
L 48.78125 44.1875 
Q 44.96875 46.296875 41.140625 47.34375 
Q 37.3125 48.390625 33.40625 48.390625 
Q 24.65625 48.390625 19.8125 42.84375 
Q 14.984375 37.3125 14.984375 27.296875 
Q 14.984375 17.28125 19.8125 11.734375 
Q 24.65625 6.203125 33.40625 6.203125 
Q 37.3125 6.203125 41.140625 7.25 
Q 44.96875 8.296875 48.78125 10.40625 
L 48.78125 2.09375 
Q 45.015625 0.34375 40.984375 -0.53125 
Q 36.96875 -1.421875 32.421875 -1.421875 
Q 20.0625 -1.421875 12.78125 6.34375 
Q 5.515625 14.109375 5.515625 27.296875 
Q 5.515625 40.671875 12.859375 48.328125 
Q 20.21875 56 33.015625 56 
Q 37.15625 56 41.109375 55.140625 
Q 45.0625 54.296875 48.78125 52.59375 
z
" id="DejaVuSans-99"/>
      <path d="M 9.421875 75.984375 
L 18.40625 75.984375 
L 18.40625 0 
L 9.421875 0 
z
" id="DejaVuSans-108"/>
      <path d="M 41.109375 46.296875 
Q 39.59375 47.171875 37.8125 47.578125 
Q 36.03125 48 33.890625 48 
Q 26.265625 48 22.1875 43.046875 
Q 18.109375 38.09375 18.109375 28.8125 
L 18.109375 0 
L 9.078125 0 
L 9.078125 54.6875 
L 18.109375 54.6875 
L 18.109375 46.1875 
Q 20.953125 51.171875 25.484375 53.578125 
Q 30.03125 56 36.53125 56 
Q 37.453125 56 38.578125 55.875 
Q 39.703125 55.765625 41.0625 55.515625 
z
" id="DejaVuSans-114"/>
      <path d="M 34.28125 27.484375 
Q 23.390625 27.484375 19.1875 25 
Q 14.984375 22.515625 14.984375 16.5 
Q 14.984375 11.71875 18.140625 8.90625 
Q 21.296875 6.109375 26.703125 6.109375 
Q 34.1875 6.109375 38.703125 11.40625 
Q 43.21875 16.703125 43.21875 25.484375 
L 43.21875 27.484375 
z
M 52.203125 31.203125 
L 52.203125 0 
L 43.21875 0 
L 43.21875 8.296875 
Q 40.140625 3.328125 35.546875 0.953125 
Q 30.953125 -1.421875 24.3125 -1.421875 
Q 15.921875 -1.421875 10.953125 3.296875 
Q 6 8.015625 6 15.921875 
Q 6 25.140625 12.171875 29.828125 
Q 18.359375 34.515625 30.609375 34.515625 
L 43.21875 34.515625 
L 43.21875 35.40625 
Q 43.21875 41.609375 39.140625 45 
Q 35.0625 48.390625 27.6875 48.390625 
Q 23 48.390625 18.546875 47.265625 
Q 14.109375 46.140625 10.015625 43.890625 
L 10.015625 52.203125 
Q 14.9375 54.109375 19.578125 55.046875 
Q 24.21875 56 28.609375 56 
Q 40.484375 56 46.34375 49.84375 
Q 52.203125 43.703125 52.203125 31.203125 
z
" id="DejaVuSans-97"/>
      <path d="M 18.3125 70.21875 
L 18.3125 54.6875 
L 36.8125 54.6875 
L 36.8125 47.703125 
L 18.3125 47.703125 
L 18.3125 18.015625 
Q 18.3125 11.328125 20.140625 9.421875 
Q 21.96875 7.515625 27.59375 7.515625 
L 36.8125 7.515625 
L 36.8125 0 
L 27.59375 0 
Q 17.1875 0 13.234375 3.875 
Q 9.28125 7.765625 9.28125 18.015625 
L 9.28125 47.703125 
L 2.6875 47.703125 
L 2.6875 54.6875 
L 9.28125 54.6875 
L 9.28125 70.21875 
z
" id="DejaVuSans-116"/>
      <path d="M 30.609375 48.390625 
Q 23.390625 48.390625 19.1875 42.75 
Q 14.984375 37.109375 14.984375 27.296875 
Q 14.984375 17.484375 19.15625 11.84375 
Q 23.34375 6.203125 30.609375 6.203125 
Q 37.796875 6.203125 41.984375 11.859375 
Q 46.1875 17.53125 46.1875 27.296875 
Q 46.1875 37.015625 41.984375 42.703125 
Q 37.796875 48.390625 30.609375 48.390625 
z
M 30.609375 56 
Q 42.328125 56 49.015625 48.375 
Q 55.71875 40.765625 55.71875 27.296875 
Q 55.71875 13.875 49.015625 6.21875 
Q 42.328125 -1.421875 30.609375 -1.421875 
Q 18.84375 -1.421875 12.171875 6.21875 
Q 5.515625 13.875 5.515625 27.296875 
Q 5.515625 40.765625 12.171875 48.375 
Q 18.84375 56 30.609375 56 
z
" id="DejaVuSans-111"/>
      <path d="M 54.890625 33.015625 
L 54.890625 0 
L 45.90625 0 
L 45.90625 32.71875 
Q 45.90625 40.484375 42.875 44.328125 
Q 39.84375 48.1875 33.796875 48.1875 
Q 26.515625 48.1875 22.3125 43.546875 
Q 18.109375 38.921875 18.109375 30.90625 
L 18.109375 0 
L 9.078125 0 
L 9.078125 54.6875 
L 18.109375 54.6875 
L 18.109375 46.1875 
Q 21.34375 51.125 25.703125 53.5625 
Q 30.078125 56 35.796875 56 
Q 45.21875 56 50.046875 50.171875 
Q 54.890625 44.34375 54.890625 33.015625 
z
" id="DejaVuSans-110"/>
     </defs>
     <g transform="translate(22.396875 242.672656)rotate(-90)scale(0.2 -0.2)">
      <use xlink:href="#DejaVuSans-65"/>
      <use x="68.392578" xlink:href="#DejaVuSans-99"/>
      <use x="123.373047" xlink:href="#DejaVuSans-99"/>
      <use x="178.353516" xlink:href="#DejaVuSans-101"/>
      <use x="239.876953" xlink:href="#DejaVuSans-108"/>
      <use x="267.660156" xlink:href="#DejaVuSans-101"/>
      <use x="329.183594" xlink:href="#DejaVuSans-114"/>
      <use x="370.296875" xlink:href="#DejaVuSans-97"/>
      <use x="431.576172" xlink:href="#DejaVuSans-116"/>
      <use x="470.785156" xlink:href="#DejaVuSans-105"/>
      <use x="498.568359" xlink:href="#DejaVuSans-111"/>
      <use x="559.75" xlink:href="#DejaVuSans-110"/>
     </g>
    </g>
   </g>
   <g id="line2d_16">
    <path clip-path="url(#p8bd5b3a8c5)" d="M 107.481051 232.936547 
L 108.177975 232.246566 
L 109.501119 241.98028 
L 110.228344 243.257812 
L 110.844464 259.528564 
L 111.521187 246.933918 
L 112.258512 242.589171 
L 112.864532 254.883639 
L 113.541255 255.853881 
L 114.238178 256.249375 
L 114.8947 252.763903 
L 115.561323 258.293711 
L 116.308748 265.519308 
L 116.904668 224.284041 
L 117.581391 256.775753 
L 118.288415 258.908292 
L 118.924736 226.988483 
L 120.318583 250.639899 
L 120.944804 242.900729 
L 121.621527 241.812408 
L 122.338651 259.78464 
L 122.964872 255.673205 
L 123.641595 246.289461 
L 124.358719 198.854322 
L 125.661663 235.670864 
L 126.378787 239.665642 
L 127.005008 258.569704 
L 127.681731 257.447239 
L 128.378654 260.742077 
L 129.025076 259.0093 
L 129.701798 272.845912 
L 130.429023 222.258199 
L 131.045144 275.547509 
L 131.721866 211.715002 
L 132.41879 241.562023 
L 133.065212 240.260306 
L 133.741934 246.68211 
L 134.489359 242.266231 
L 135.09538 239.843472 
L 135.762002 255.227919 
L 136.509427 240.837899 
L 137.115448 255.274866 
L 137.78207 189.049476 
L 138.478994 243.429952 
L 139.125415 238.81348 
L 139.802138 254.358684 
L 140.559664 251.257326 
L 141.155584 263.324172 
L 141.822206 266.481014 
L 142.51913 282.4146 
L 143.175652 224.370822 
L 143.842274 234.534174 
L 145.185619 247.064801 
L 145.862342 241.354318 
L 146.609767 244.03742 
L 147.205687 240.339974 
L 147.88241 255.623413 
L 148.599534 257.198277 
L 149.225755 255.640485 
L 149.902478 162.638135 
L 150.639803 229.896362 
L 151.255923 241.623197 
L 151.922546 241.98597 
L 152.669971 239.608736 
L 153.265891 256.817009 
L 153.942614 258.006338 
L 154.669838 281.986384 
L 155.285959 97.68032 
L 155.962682 238.884612 
L 156.710107 245.839907 
L 157.306027 244.021771 
L 157.98275 246.107363 
L 158.699874 238.591548 
L 159.336195 240.103816 
L 160.002818 256.542439 
L 160.699741 232.629257 
L 161.346163 171.304868 
L 162.022885 224.919962 
L 163.366231 244.124201 
L 164.042953 240.135114 
L 164.739877 252.954537 
L 165.386299 253.328692 
L 166.063021 285.284068 
L 166.770045 110.910887 
L 167.406367 286.304102 
L 168.083089 217.510844 
L 168.830514 229.277513 
L 169.426434 241.111046 
L 170.103157 247.377782 
L 170.78998 237.90868 
L 171.446502 264.485047 
L 172.123225 238.247268 
L 172.820149 190.217465 
L 173.46657 200.955564 
L 174.143293 238.271453 
L 174.900819 240.210514 
L 175.486638 247.330835 
L 176.163361 248.786197 
L 176.910786 234.093155 
L 177.506706 278.123912 
L 178.183429 159.313422 
L 178.880352 259.03633 
L 179.526774 213.686784 
L 180.203497 229.872177 
L 180.920621 234.956698 
L 181.546842 248.626861 
L 182.223565 236.838853 
L 182.940689 246.922537 
L 183.57701 243.458405 
L 184.243633 222.034845 
L 184.980958 183.555235 
L 185.586978 243.829714 
L 186.263701 234.363457 
L 186.970725 240.948865 
L 187.607046 239.356929 
L 188.283769 255.759986 
L 188.980692 259.608232 
L 189.637214 280.950701 
L 190.303837 132.074103 
L 191.00076 264.30864 
L 191.647182 242.421299 
L 192.323905 206.629059 
L 193.061229 234.185627 
L 193.66725 239.536182 
L 194.343973 242.563563 
L 195.091398 239.585974 
L 195.687318 242.587748 
L 196.36404 251.45365 
L 197.111466 175.939834 
L 197.717486 231.220841 
L 198.384108 226.756592 
L 199.131534 242.71294 
L 199.727454 242.392846 
L 200.404176 246.704873 
L 201.1112 252.418201 
L 201.747522 290.663076 
L 202.424244 100.420327 
L 203.090867 234.818702 
L 203.77769 272.592682 
L 204.444312 225.756475 
L 205.161436 236.490306 
L 205.787657 235.225578 
L 206.46438 237.049404 
L 207.181504 255.919322 
L 207.807725 219.883811 
L 208.484448 169.786909 
L 209.201572 223.983864 
L 209.837894 218.298988 
L 210.494416 237.534525 
L 211.22164 235.205661 
L 211.847861 243.977669 
L 212.524584 238.325514 
L 213.241708 313.819413 
L 213.867929 124.626574 
L 214.544652 305.703243 
L 215.261776 218.072788 
L 215.887997 218.436984 
L 216.56472 234.622378 
L 217.281844 241.122427 
L 217.908065 227.115098 
L 218.584788 246.635163 
L 219.281711 231.250717 
L 219.938233 242.896461 
L 220.604856 169.283294 
L 221.33208 220.603667 
L 221.948201 227.904664 
L 222.624924 239.281529 
L 223.352148 238.796408 
L 223.968269 239.961551 
L 224.644992 242.63754 
L 225.392417 261.279836 
L 225.988337 146.516761 
L 226.66506 188.510295 
L 227.361983 247.625322 
L 228.008405 223.278233 
L 228.685127 226.546041 
L 229.392151 235.322317 
L 230.038573 228.274551 
L 230.705195 243.697408 
L 231.452621 223.466022 
L 232.048541 194.034413 
L 232.725263 206.801198 
L 233.462588 217.680139 
L 234.078709 229.179351 
L 234.745331 230.361566 
L 235.472556 239.803638 
L 236.098777 243.609205 
L 236.765399 239.245963 
L 237.482523 260.261224 
L 238.108744 106.480781 
L 238.785467 192.142299 
L 239.502591 251.137824 
L 240.128812 219.007463 
L 240.805535 232.292091 
L 241.512559 233.269445 
L 242.14888 221.40746 
L 242.825603 240.049755 
L 243.522526 229.121022 
L 244.168948 228.7426 
L 244.845671 175.033611 
L 245.582996 219.731588 
L 246.189016 229.121022 
L 246.865739 231.057238 
L 247.582863 234.114495 
L 248.209084 243.56368 
L 248.885807 234.69351 
L 249.58273 261.989734 
L 250.229152 135.814228 
L 250.905875 240.072518 
L 251.602798 233.332042 
L 252.25932 206.168123 
L 252.925943 239.01834 
L 253.643067 236.538676 
L 254.269288 224.087716 
L 254.946011 247.830182 
L 255.683335 225.797732 
L 256.289356 203.695572 
L 256.966079 187.377873 
L 257.642801 220.929452 
L 258.309424 222.869935 
L 258.986147 227.244558 
L 259.723471 240.744004 
L 260.329492 238.235887 
L 261.006214 234.401868 
L 261.723339 209.464383 
L 262.34956 246.397582 
L 263.026282 189.96708 
L 263.733306 235.931208 
L 264.369628 231.03163 
L 265.04635 230.920664 
L 265.763474 225.17746 
L 266.389696 227.820728 
L 267.066418 249.301194 
L 267.763342 236.574242 
L 268.419864 163.736414 
L 269.086486 225.930037 
L 269.823811 221.635082 
L 270.429831 231.141174 
L 271.106554 236.703702 
L 271.823678 240.685676 
L 272.449899 241.613238 
L 273.126622 264.648651 
L 273.833646 113.305192 
L 274.469967 231.940698 
L 275.14669 242.445484 
L 275.863814 211.265448 
L 276.490035 239.49777 
L 277.904083 226.957185 
L 278.520204 250.866099 
L 279.186826 215.610195 
L 279.883749 170.353121 
L 280.540271 213.390874 
L 281.913918 231.152555 
L 282.550239 222.739052 
L 283.226962 250.234446 
L 283.964287 232.367491 
L 284.570307 248.537235 
L 285.24703 211.972501 
L 285.964154 268.819836 
L 286.590375 213.884531 
L 287.267098 228.482256 
L 287.974121 237.390838 
L 288.610443 234.307974 
L 289.287166 227.483562 
L 289.973989 229.415509 
L 290.640611 239.595933 
L 291.307234 233.609457 
L 292.054659 169.964739 
L 292.660679 230.354453 
L 293.327302 225.261396 
L 294.670647 233.461502 
L 295.347369 233.930974 
L 296.064494 242.600552 
L 296.690715 267.153923 
L 297.367437 217.69152 
L 298.104762 184.297854 
L 298.710783 243.794148 
L 299.387505 225.617056 
L 300.104629 223.562762 
L 300.730851 234.034827 
L 301.407573 218.648958 
L 302.144898 253.350032 
L 302.761019 216.68429 
L 303.427641 196.155571 
L 304.124565 187.291091 
L 304.781087 225.735135 
L 305.447709 213.720927 
L 306.164833 233.820008 
L 306.791054 233.916747 
L 307.467777 233.790132 
L 308.184901 221.020501 
L 308.811122 225.335373 
L 309.487845 290.409845 
L 310.204969 202.718217 
L 311.507913 235.717812 
L 312.214937 238.452129 
L 312.851258 223.84729 
L 313.527981 232.191083 
L 314.235005 237.676789 
L 314.881426 229.691502 
L 315.548049 164.577196 
L 316.244972 206.068538 
L 316.901494 229.271822 
L 317.568117 228.483679 
L 318.315542 221.323524 
L 318.911462 242.038608 
L 319.588185 224.318184 
L 320.264907 253.384175 
L 320.94163 53.912751 
L 321.608253 229.095415 
L 322.355678 226.533237 
L 322.951598 206.993255 
L 323.628321 243.363088 
L 324.325244 236.867306 
L 324.981766 223.582679 
L 325.648389 245.127163 
L 326.355412 233.378989 
L 327.001834 189.345386 
L 327.668456 179.394008 
L 328.36538 203.197647 
L 329.021902 216.702784 
L 329.688524 235.633876 
L 330.43595 244.37174 
L 331.04197 235.106076 
L 331.708592 247.520046 
L 332.415616 239.006959 
L 333.051938 253.503677 
L 333.72866 218.819675 
L 334.425584 210.391946 
L 335.082106 225.617056 
L 335.748728 231.331808 
L 336.486053 231.990491 
L 337.092073 229.663049 
L 337.768796 242.146729 
L 338.48592 234.471578 
L 339.112141 150.902765 
L 339.788864 211.636757 
L 340.505988 216.459512 
L 341.14231 235.165827 
L 341.808932 233.926706 
L 342.526056 234.959544 
L 343.162378 248.656737 
L 343.829 200.336715 
L 344.525923 264.196251 
L 345.182446 212.315357 
L 345.849068 231.701694 
L 346.556092 237.994038 
L 347.202513 233.189777 
L 347.859036 219.846822 
L 348.58626 234.663634 
L 349.212481 242.276189 
L 349.889204 236.110461 
L 350.606328 143.17213 
L 351.232549 230.071347 
L 351.909272 222.922573 
L 352.606195 228.497905 
L 353.252617 227.321381 
L 353.92934 236.743536 
L 354.676765 238.546023 
L 355.272685 262.213089 
L 355.949408 127.883001 
L 356.656431 208.102915 
L 357.292753 232.053087 
L 357.969476 208.129946 
L 358.6967 236.248457 
L 359.312821 236.434823 
L 359.989544 225.652622 
L 360.696567 226.127785 
L 361.353089 229.772592 
L 362.009611 239.406721 
L 362.726736 152.003889 
L 363.363057 224.285464 
L 364.029679 225.200222 
L 364.726603 230.592034 
L 365.383125 237.463393 
L 366.049747 228.395475 
L 366.776972 238.776491 
L 367.393093 238.133457 
L 368.069815 233.639332 
L 368.756638 237.545906 
L 369.41316 227.834954 
L 370.089883 232.515445 
L 370.827208 236.517336 
L 371.433228 227.251671 
L 372.109951 237.817631 
L 372.796774 241.994506 
L 373.463397 232.667668 
L 374.130019 152.547338 
L 374.826943 226.497671 
L 375.473364 220.209595 
L 376.150087 231.119834 
L 377.493432 234.660789 
L 378.170155 238.230197 
L 378.877179 263.329862 
L 379.5236 172.15703 
L 380.190223 222.955294 
L 380.927548 242.675952 
L 381.533568 197.174183 
L 382.210291 236.870151 
L 382.917315 232.925166 
L 383.563736 225.042309 
L 384.230359 232.374604 
L 384.967684 226.861868 
L 385.583804 227.136437 
L 386.250427 165.843347 
L 386.967551 227.273011 
L 387.593772 206.567885 
L 388.270495 239.72397 
L 388.987619 232.600804 
L 389.62394 228.477988 
L 390.290563 221.945218 
L 390.987486 240.495042 
L 391.654108 206.846723 
L 392.310631 232.252257 
L 393.007554 211.983882 
L 393.653976 215.415293 
L 394.330698 229.505136 
L 395.047823 232.634947 
L 395.684144 224.739286 
L 396.350766 246.798767 
L 397.694112 180.714219 
L 398.370834 205.259055 
L 399.108159 223.806033 
L 399.72428 224.99963 
L 400.390902 233.343423 
L 401.097926 230.589189 
L 401.744348 231.723034 
L 402.41097 246.124435 
L 403.158395 127.520227 
L 403.764416 232.828426 
L 404.431038 248.23848 
L 405.168363 218.536569 
L 405.774383 238.563095 
L 406.451106 239.819287 
L 407.198531 225.298384 
L 407.794451 233.576736 
L 408.471174 246.90262 
L 409.218599 193.121077 
L 409.82462 175.729283 
L 410.491242 220.347592 
L 411.208366 228.778166 
L 411.834587 222.914037 
L 412.51131 230.599147 
L 413.228434 236.625457 
L 413.854655 243.925031 
L 414.531378 256.842617 
L 415.238402 218.755656 
L 415.884823 214.062361 
L 416.551446 237.302634 
L 417.298871 224.079181 
L 417.894791 228.921853 
L 418.571514 230.947694 
L 419.318939 233.838502 
L 419.924959 243.528114 
L 420.591582 222.525656 
L 421.339007 145.364421 
L 421.945027 210.586848 
L 422.61165 231.078577 
L 423.359075 224.517354 
L 423.954995 239.331321 
L 424.631718 237.497536 
L 425.328641 248.705107 
L 425.985163 270.586757 
L 426.651785 220.027497 
L 427.36891 214.894606 
L 427.995131 236.033638 
L 428.671853 217.681561 
L 429.399078 229.371407 
L 430.025299 237.592853 
L 430.691921 227.645743 
L 431.429246 248.202914 
L 432.045367 224.380781 
L 432.711989 180.940419 
L 433.429113 215.233195 
L 434.065435 223.19003 
L 434.732057 235.525755 
L 435.479482 231.666128 
L 436.085503 235.036366 
L 436.752125 224.92423 
L 437.449049 278.668784 
L 438.105571 51.591 
L 438.772193 219.357433 
L 439.519618 247.897046 
L 440.115538 221.388965 
L 440.792261 241.055563 
L 441.519486 229.847992 
L 442.135606 237.789178 
L 442.812329 236.150295 
L 443.559754 236.909985 
L 444.155674 164.476188 
L 444.832397 203.694149 
L 445.569722 219.519614 
L 446.185842 226.231637 
L 446.852465 239.162027 
L 447.59989 230.425585 
L 448.20591 240.748272 
L 448.872533 290.010083 
L 449.569456 130.894733 
L 450.215878 227.312845 
L 450.892601 248.449031 
L 451.589524 214.289984 
L 452.235946 244.090057 
L 452.912669 228.418238 
L 453.649993 227.335607 
L 454.266114 239.405299 
L 454.932737 232.898136 
L 455.63976 161.545546 
L 456.286182 210.906942 
L 456.952805 216.798101 
L 457.649728 220.670531 
L 458.30625 241.341514 
L 458.972873 235.710698 
L 459.700097 250.696805 
L 460.326318 270.085987 
L 460.99294 50.689045 
L 461.689864 202.012587 
L 462.336286 260.966855 
L 463.013008 199.396349 
L 463.760434 238.864695 
L 464.366454 237.712355 
L 465.033076 229.931928 
L 465.760301 234.386219 
L 466.386522 225.015279 
L 467.053144 184.367563 
L 467.790469 183.33757 
L 468.396489 233.97223 
L 469.073212 218.297565 
L 469.770136 229.253328 
L 470.416557 245.155616 
L 471.09328 227.702649 
L 471.790204 250.662662 
L 472.436625 151.854512 
L 473.113348 260.403489 
L 474.466794 218.808294 
L 475.133416 244.39308 
L 475.830339 232.100034 
L 476.486862 231.866721 
L 477.153484 231.987645 
L 477.850407 227.430924 
L 478.506929 181.944804 
L 479.173552 189.011065 
L 479.890676 225.385166 
L 480.526997 215.398222 
L 481.18352 236.494574 
L 481.930945 239.425216 
L 482.547065 240.257461 
L 483.213688 275.977146 
L 483.910611 59.589091 
L 484.567133 206.212225 
L 485.233756 253.698579 
L 485.981181 200.325334 
L 486.577101 241.694329 
L 487.253824 229.361449 
L 487.950747 231.162513 
L 488.607269 240.887691 
L 489.273892 215.83924 
L 490.011216 154.248818 
L 490.627337 225.351022 
L 491.29396 212.612689 
L 491.980783 231.562275 
L 492.647405 234.120185 
L 493.314027 235.545672 
L 494.010951 233.105842 
L 494.667473 256.428628 
L 495.334095 61.445638 
L 496.081521 223.777581 
L 496.687541 267.060029 
L 497.354163 200.437723 
L 498.091488 240.578978 
L 498.697509 235.481653 
L 499.374231 225.433535 
L 500.121656 251.197575 
L 500.717576 216.401184 
L 501.394299 158.081414 
L 502.060922 220.447177 
L 502.747745 228.254634 
L 503.414367 225.183151 
L 504.111291 228.991562 
L 505.434435 250.082224 
L 506.131359 254.035745 
L 506.77778 183.528204 
L 507.454503 212.86592 
L 508.212029 230.240641 
L 508.797848 214.080855 
L 509.474571 235.94828 
L 510.171494 233.581004 
L 510.828017 230.57923 
L 511.494639 243.195216 
L 512.221863 228.825113 
L 512.848084 174.005042 
L 513.514707 195.074364 
L 514.231831 232.431509 
L 514.868152 222.169996 
L 515.534775 236.375072 
L 516.2721 235.786098 
L 516.88822 228.33857 
L 517.554843 267.213674 
L 518.251766 56.666985 
L 518.908288 226.647049 
L 519.574911 244.146963 
L 520.302135 205.788278 
L 520.918256 236.069204 
L 521.594979 239.534759 
L 522.352504 221.474324 
L 522.938324 244.912344 
L 523.615047 223.44895 
L 524.31197 154.763814 
L 524.958392 209.435931 
L 525.635115 224.160271 
L 526.321938 219.710248 
L 526.98856 241.271804 
L 527.655182 243.107012 
L 528.352106 252.483643 
L 529.008628 256.358919 
L 529.67525 206.119753 
L 530.412575 213.141912 
L 531.018596 234.684974 
L 531.695318 217.318788 
L 532.442743 232.165476 
L 533.038663 233.478574 
L 533.715386 233.282249 
L 534.41231 236.305363 
L 535.068832 207.97061 
L 535.735454 184.576691 
L 536.472779 195.062983 
L 537.0889 231.573657 
L 537.755522 236.642529 
L 538.502947 238.581589 
L 539.108968 236.390721 
L 539.77559 241.461016 
L 540.472514 255.920745 
L 541.118935 195.626349 
L 541.795658 208.016134 
L 542.512782 252.946001 
L 543.149104 207.935044 
L 543.815726 227.930271 
L 544.502549 232.405902 
L 545.169171 232.772943 
L 545.835794 236.248457 
L 546.542818 232.213845 
L 547.179139 148.415987 
L 547.855862 219.659033 
L 548.593187 211.448969 
L 549.199207 237.277027 
L 549.87593 232.771521 
L 550.613255 238.68971 
L 551.219275 251.113639 
L 551.895998 256.953583 
L 552.633323 242.83671 
L 553.239343 198.289534 
L 553.916066 242.900729 
L 554.612989 218.338822 
L 555.259411 232.181125 
L 555.936134 226.375324 
L 556.643157 229.84657 
L 557.289579 238.21028 
L 557.956202 216.970241 
L 558.673326 175.878661 
L 559.299547 206.704459 
L 559.976269 215.68844 
L 560.723695 217.737044 
L 561.319615 231.88237 
L 561.996337 235.154446 
L 562.693261 247.238363 
L 563.349783 249.969835 
L 564.016405 149.831515 
L 564.713329 234.403291 
L 566.036473 223.498743 
L 566.783898 236.097657 
L 567.389919 235.355038 
L 568.056541 222.820143 
L 568.803966 255.075696 
L 569.409987 221.977939 
L 570.076609 193.744194 
L 570.793733 186.635254 
L 571.419954 241.038491 
L 572.096677 220.509773 
L 573.450123 242.792608 
L 574.116745 226.713913 
L 574.823769 245.598058 
L 575.470191 119.803819 
L 576.136813 205.123904 
L 576.853937 256.139832 
L 577.490258 211.824546 
L 578.156881 234.299438 
L 578.863905 244.400193 
L 579.510326 223.036384 
L 580.176949 244.64062 
L 581.520294 179.43811 
L 582.88384 228.422505 
L 583.550462 227.386822 
L 584.217085 233.81574 
L 585.57053 243.717325 
L 586.237153 263.742428 
L 586.944176 0.286276 
L 587.590598 201.775006 
L 588.257221 268.90235 
L 588.944044 198.60536 
L 589.600566 259.468813 
L 590.277289 231.86103 
L 590.984312 231.274902 
L 591.630734 239.910336 
L 592.297356 218.522343 
L 592.99428 179.879129 
L 593.650802 189.578699 
L 594.317424 234.784559 
L 595.034549 225.763588 
L 595.66077 235.796057 
L 596.337492 233.956581 
L 597.034416 235.089004 
L 597.690938 224.616939 
L 598.35756 211.094731 
L 599.084785 239.028299 
L 599.700905 226.647049 
L 600.377628 222.677879 
L 601.731074 243.970556 
L 602.397696 224.643969 
L 603.11482 232.073004 
L 603.751142 246.571144 
L 604.417764 218.722935 
L 605.134888 173.50854 
L 605.77121 227.598796 
L 606.437832 218.058561 
L 607.165057 226.961453 
L 607.791278 237.295521 
L 608.4579 227.080954 
L 609.175024 234.229728 
L 609.811346 207.909436 
L 610.477968 226.464951 
L 611.164791 230.182313 
L 611.831413 228.428196 
L 612.498036 229.902053 
L 613.21516 235.612536 
L 613.851481 224.956951 
L 614.518104 238.618578 
L 615.204927 224.382203 
L 615.871549 242.502389 
L 616.538172 158.075724 
L 617.235095 221.713328 
L 617.891617 213.490459 
L 618.55824 234.272408 
L 619.285464 232.827004 
L 619.911685 236.646797 
L 620.578308 238.459242 
L 621.305532 232.309162 
L 621.931753 258.554055 
L 622.598376 213.37238 
L 623.3357 231.788475 
L 623.951821 223.390622 
L 624.628544 232.728842 
L 625.345668 231.715921 
L 625.971889 232.442891 
L 626.638511 233.516985 
L 627.345535 202.253013 
L 627.991957 149.121617 
L 628.66868 232.605072 
L 629.355503 221.398924 
L 630.012025 233.211117 
L 630.678647 238.854736 
L 631.375571 225.434958 
L 632.032093 242.859472 
L 632.698715 206.481104 
L 633.44614 204.725564 
L 634.052161 241.496582 
L 634.718783 218.740007 
L 635.50661 234.830083 
L 636.738851 230.502407 
L 637.496377 246.812993 
L 638.092297 222.440298 
L 638.758919 244.966405 
L 639.486144 171.340434 
L 640.112365 224.729328 
L 640.778987 215.42952 
L 642.132433 244.431491 
L 642.799055 235.386336 
L 643.485878 242.024382 
L 644.1525 73.926473 
L 644.829223 248.491711 
L 645.546347 252.896209 
L 646.172568 204.958878 
L 646.839191 244.284959 
L 647.546215 239.149223 
L 648.192636 235.93263 
L 648.859259 234.455928 
L 649.556182 209.818621 
L 650.212704 239.410989 
L 650.879327 160.845607 
L 651.616652 239.844895 
L 652.232772 226.270049 
L 652.899395 238.433634 
L 653.616519 244.680454 
L 654.25284 225.282735 
L 654.919463 245.929533 
L 655.616386 48.808313 
L 656.272908 227.715453 
L 656.939531 246.562609 
L 657.646554 202.173345 
L 658.292976 242.345899 
L 658.959598 234.076083 
L 659.656522 226.921619 
L 660.323144 245.804341 
L 662.333112 180.776816 
L 662.999734 251.57173 
L 663.696658 212.66675 
L 664.34308 235.643834 
L 665.019802 240.685676 
L 665.757127 232.906672 
L 666.373248 233.114377 
L 667.03987 207.610681 
L 667.736794 267.411421 
L 668.393316 243.646193 
L 669.059938 231.949234 
L 669.756862 229.099683 
L 670.413384 241.039914 
L 671.080006 227.214683 
L 671.78703 234.511412 
L 672.483953 224.581373 
L 673.100074 219.439946 
L 673.817198 176.72371 
L 674.45352 224.964064 
L 675.120142 214.759456 
L 675.827166 238.048099 
L 676.473588 234.272408 
L 677.14021 235.534291 
L 677.867434 234.352076 
L 678.493655 247.552767 
L 679.160278 275.335535 
L 679.897603 217.931946 
L 680.513723 230.106913 
L 681.180346 223.888547 
L 681.927771 236.927057 
L 682.533791 234.404713 
L 683.200414 232.653442 
L 683.897337 253.075462 
L 684.57406 239.446555 
L 685.220482 143.759681 
L 685.947706 216.036988 
L 686.573927 224.786234 
L 687.24055 225.827607 
L 687.927373 240.887691 
L 688.583895 233.370453 
L 689.260618 245.753125 
L 689.92724 253.428277 
L 690.603963 258.245341 
L 691.280685 203.283006 
L 691.967509 239.968665 
L 692.624031 211.852999 
L 693.300753 234.417517 
L 693.967376 243.431374 
L 694.644099 222.598211 
L 695.320821 251.102258 
L 696.664167 173.626619 
L 698.007512 217.946173 
L 698.684234 215.445169 
L 699.360957 236.727887 
L 700.04778 222.518543 
L 700.704302 230.795472 
L 701.381025 214.021105 
L 702.047648 203.035466 
L 702.72437 222.902656 
L 703.401093 220.717479 
L 704.067716 221.699101 
L 704.754539 212.616957 
L 705.421161 213.582931 
L 706.097884 219.593592 
L 706.774607 246.023427 
L 707.441229 226.627132 
L 708.128052 194.219356 
L 708.794675 218.49958 
L 709.461297 216.018493 
L 710.14812 217.105392 
L 710.814742 217.651686 
L 711.491465 221.00343 
L 712.168188 220.523999 
L 712.83481 219.223705 
L 713.501433 219.336094 
L 714.168055 215.126497 
L 714.854878 220.279305 
L 715.531601 215.95732 
L 716.208324 213.422172 
L 716.208324 213.422172 
" style="fill:none;stroke:#1f77b4;stroke-linecap:square;stroke-width:1.5;"/>
   </g>
   <g id="line2d_17">
    <path clip-path="url(#p8bd5b3a8c5)" d="M 107.481051 159.906663 
L 108.177975 160.926697 
L 108.824396 158.094218 
L 109.501119 157.516625 
L 110.228344 162.996641 
L 110.844464 152.61847 
L 111.521187 171.461358 
L 112.258512 104.604316 
L 112.864532 159.849758 
L 113.541255 188.52879 
L 114.238178 190.163405 
L 114.8947 198.492971 
L 115.561323 170.074283 
L 116.308748 150.613968 
L 116.904668 131.458099 
L 117.581391 184.350491 
L 118.288415 117.611528 
L 118.924736 184.670586 
L 119.601459 147.871115 
L 120.318583 168.180747 
L 120.944804 160.710456 
L 121.621527 162.79178 
L 122.338651 157.418463 
L 122.964872 144.072662 
L 123.641595 141.829156 
L 124.358719 151.631157 
L 124.98494 137.554118 
L 125.661663 160.90678 
L 126.378787 163.229954 
L 127.005008 181.690151 
L 127.681731 193.082665 
L 128.378654 185.349186 
L 129.025076 167.504992 
L 129.701798 139.514519 
L 130.429023 79.513186 
L 131.045144 226.244441 
L 131.721866 139.918549 
L 132.41879 176.797687 
L 133.065212 160.398897 
L 133.741934 165.668362 
L 134.489359 164.62272 
L 135.09538 155.503588 
L 135.762002 147.659142 
L 136.509427 149.768919 
L 137.115448 154.930263 
L 137.78207 123.543944 
L 138.478994 147.422983 
L 139.125415 164.831849 
L 139.802138 187.561393 
L 140.559664 197.729013 
L 141.155584 182.367329 
L 141.822206 154.608746 
L 142.51913 149.564059 
L 143.175652 173.445943 
L 143.842274 159.370327 
L 144.5998 175.595555 
L 145.185619 155.687108 
L 145.862342 167.906177 
L 146.609767 164.961309 
L 147.205687 160.592377 
L 147.88241 146.192398 
L 148.599534 145.640413 
L 149.225755 145.738576 
L 149.902478 115.891555 
L 150.639803 152.555874 
L 151.255923 153.466365 
L 151.922546 190.327009 
L 152.669971 201.985557 
L 153.265891 196.782956 
L 153.942614 150.43187 
L 154.669838 137.427503 
L 155.285959 157.047154 
L 155.962682 184.46288 
L 156.710107 181.788314 
L 157.306027 157.222139 
L 157.98275 162.706422 
L 158.699874 161.431735 
L 159.336195 161.273822 
L 160.002818 148.117232 
L 160.699741 105.786531 
L 161.346163 154.658538 
L 162.022885 148.105851 
L 162.75011 163.471803 
L 163.366231 171.977777 
L 164.042953 198.007851 
L 164.739877 212.969772 
L 165.386299 163.155977 
L 166.063021 158.344603 
L 166.770045 8.880454 
L 167.406367 198.337904 
L 168.083089 175.841672 
L 168.830514 171.469894 
L 169.426434 168.954664 
L 170.103157 163.323848 
L 170.78998 162.460305 
L 171.446502 151.78907 
L 172.123225 135.21245 
L 172.820149 144.698625 
L 173.46657 140.628447 
L 174.143293 167.459468 
L 174.900819 188.239993 
L 175.486638 209.280863 
L 176.163361 205.725681 
L 176.910786 172.674872 
L 177.506706 130.442333 
L 178.183429 60.139653 
L 178.880352 222.437452 
L 179.526774 142.117953 
L 180.203497 172.56106 
L 180.920621 163.69089 
L 181.546842 164.861724 
L 182.223565 175.370777 
L 182.940689 144.717119 
L 183.57701 139.974032 
L 184.243633 156.80815 
L 184.980958 125.268186 
L 185.586978 166.241686 
L 186.263701 175.934144 
L 186.970725 187.717884 
L 187.607046 201.302689 
L 188.283769 172.046064 
L 188.980692 176.719442 
L 189.637214 175.781921 
L 190.303837 33.554749 
L 191.00076 238.634227 
L 191.647182 136.953764 
L 192.323905 187.37645 
L 193.061229 168.5108 
L 194.343973 163.278324 
L 195.091398 136.085952 
L 195.687318 153.982784 
L 196.36404 127.202978 
L 197.111466 120.559242 
L 197.717486 148.526953 
L 198.384108 164.469075 
L 199.131534 203.938843 
L 199.727454 201.979866 
L 200.404176 209.161361 
L 201.1112 138.111794 
L 201.747522 126.69225 
L 202.424244 175.604091 
L 203.090867 187.716461 
L 203.77769 151.602704 
L 204.444312 166.396754 
L 205.161436 173.985125 
L 205.787657 161.20838 
L 206.46438 157.826761 
L 207.181504 152.00958 
L 207.807725 109.378702 
L 208.484448 142.79513 
L 209.201572 151.793338 
L 209.837894 165.588694 
L 210.494416 192.025643 
L 211.22164 202.688342 
L 211.847861 207.770017 
L 212.524584 146.627727 
L 213.241708 193.085511 
L 213.867929 45.476486 
L 214.544652 201.099251 
L 215.261776 142.971538 
L 215.887997 186.565544 
L 216.56472 168.335815 
L 217.281844 173.739008 
L 217.908065 165.824852 
L 218.584788 147.528259 
L 219.281711 147.1413 
L 219.938233 135.744518 
L 220.604856 119.054087 
L 221.33208 169.451166 
L 221.948201 167.694203 
L 222.624924 193.057058 
L 223.352148 209.812931 
L 223.968269 191.396835 
L 224.644992 146.597851 
L 225.392417 148.34201 
L 225.988337 207.229414 
L 226.66506 186.108876 
L 227.361983 153.358244 
L 228.008405 165.284249 
L 228.685127 170.021645 
L 229.392151 168.170788 
L 230.038573 169.123958 
L 230.705195 143.266024 
L 231.452621 123.087276 
L 232.048541 168.505109 
L 232.725263 152.915802 
L 233.462588 154.332753 
L 234.078709 177.072257 
L 234.745331 196.650651 
L 235.472556 200.456217 
L 236.098777 188.117646 
L 236.765399 122.525333 
L 237.482523 174.474513 
L 238.108744 177.783578 
L 238.785467 204.735523 
L 239.502591 152.547338 
L 240.128812 168.142336 
L 240.805535 164.706656 
L 241.512559 172.06029 
L 242.14888 164.34815 
L 242.825603 147.185402 
L 243.522526 150.692214 
L 244.168948 152.055104 
L 244.845671 126.26688 
L 245.582996 160.522667 
L 246.189016 172.118619 
L 246.865739 198.936836 
L 247.582863 208.801432 
L 248.209084 184.46288 
L 248.885807 164.254256 
L 249.58273 165.305588 
L 250.229152 188.471884 
L 250.905875 199.433338 
L 251.602798 149.599625 
L 252.25932 172.115774 
L 253.643067 164.473343 
L 254.269288 166.3242 
L 255.683335 136.54262 
L 256.289356 156.675844 
L 256.966079 129.915956 
L 257.642801 163.477494 
L 258.309424 173.925374 
L 258.986147 201.786387 
L 259.723471 208.92947 
L 260.329492 186.650903 
L 261.006214 120.815317 
L 261.723339 93.372561 
L 262.34956 210.194199 
L 263.026282 168.490883 
L 263.733306 183.94077 
L 264.369628 156.576259 
L 265.04635 172.064558 
L 265.763474 168.375649 
L 267.066418 139.991104 
L 267.763342 109.482554 
L 268.419864 144.967504 
L 269.086486 163.692313 
L 269.823811 167.513528 
L 270.429831 193.239156 
L 271.106554 209.343459 
L 271.823678 196.943715 
L 272.449899 155.337138 
L 273.126622 168.388453 
L 273.833646 126.833091 
L 274.469967 203.415311 
L 275.14669 140.934315 
L 275.863814 177.941491 
L 276.490035 166.530483 
L 277.166758 168.843698 
L 277.904083 160.47572 
L 278.520204 148.376153 
L 279.186826 118.570389 
L 279.883749 161.915433 
L 280.540271 148.619425 
L 281.206894 152.974131 
L 281.913918 184.218186 
L 282.550239 207.357451 
L 283.226962 210.871376 
L 283.964287 175.123238 
L 284.570307 125.584012 
L 285.24703 91.389398 
L 285.964154 201.565877 
L 286.590375 194.179522 
L 287.267098 166.032558 
L 287.974121 164.874528 
L 288.610443 171.208128 
L 289.287166 173.226857 
L 289.973989 151.875851 
L 290.640611 143.19916 
L 291.307234 138.1687 
L 292.054659 119.458117 
L 292.660679 159.538199 
L 293.327302 164.501796 
L 294.074727 198.128775 
L 294.670647 210.696391 
L 295.347369 188.750722 
L 296.064494 130.944526 
L 296.690715 157.483905 
L 297.367437 194.637613 
L 298.104762 174.460287 
L 298.710783 151.40638 
L 299.387505 168.621766 
L 300.104629 174.851513 
L 300.730851 165.574467 
L 301.407573 164.32112 
L 302.144898 138.192885 
L 302.761019 128.511808 
L 303.427641 155.081063 
L 304.124565 153.028191 
L 304.781087 159.738792 
L 305.447709 177.442144 
L 306.164833 204.135168 
L 306.791054 209.573927 
L 307.467777 185.174201 
L 308.184901 104.463475 
L 308.811122 95.126678 
L 309.487845 232.660555 
L 310.204969 136.798696 
L 310.83119 184.760212 
L 311.507913 162.451769 
L 312.214937 168.247611 
L 312.851258 165.002565 
L 313.527981 154.14212 
L 314.235005 149.366312 
L 314.881426 125.446016 
L 315.548049 127.969782 
L 316.244972 157.76132 
L 316.901494 161.350645 
L 317.568117 186.282439 
L 318.315542 199.406307 
L 318.911462 200.693798 
L 319.588185 171.600777 
L 320.264907 151.717938 
L 320.94163 56.543215 
L 321.608253 233.583849 
L 322.355678 155.382663 
L 322.951598 185.716227 
L 323.628321 165.184664 
L 324.325244 168.540675 
L 324.981766 168.648796 
L 325.648389 155.506433 
L 326.355412 128.479088 
L 327.001834 165.523252 
L 327.668456 139.787666 
L 328.36538 171.680445 
L 329.021902 183.603604 
L 329.688524 198.687873 
L 330.43595 197.511349 
L 331.04197 190.086582 
L 331.708592 120.193623 
L 332.415616 178.284347 
L 333.051938 147.624998 
L 333.72866 138.917009 
L 334.425584 183.393053 
L 335.082106 154.314259 
L 335.748728 165.985611 
L 336.486053 167.204815 
L 337.092073 165.180396 
L 337.768796 136.175579 
L 338.48592 145.505262 
L 339.112141 100.747535 
L 339.788864 163.084845 
L 341.14231 210.58827 
L 341.808932 205.381402 
L 342.526056 186.300933 
L 343.162378 152.91438 
L 343.829 90.215719 
L 344.525923 211.743455 
L 345.182446 177.087906 
L 345.849068 171.410143 
L 346.556092 174.238355 
L 347.202513 165.873222 
L 347.859036 169.353004 
L 349.889204 129.080865 
L 350.606328 128.13054 
L 351.232549 155.946029 
L 351.909272 160.176965 
L 352.606195 203.181998 
L 353.252617 212.023716 
L 355.272685 139.35376 
L 355.949408 103.370886 
L 356.656431 191.527718 
L 357.292753 142.960157 
L 357.969476 163.500256 
L 358.6967 160.87406 
L 359.312821 173.037645 
L 359.989544 169.123958 
L 360.696567 138.858681 
L 361.353089 132.761239 
L 362.009611 142.793707 
L 362.726736 129.142039 
L 363.363057 156.842293 
L 364.029679 172.084475 
L 364.726603 213.430708 
L 365.383125 212.302553 
L 366.049747 188.762103 
L 366.776972 115.564347 
L 367.393093 112.259551 
L 368.069815 280.688935 
L 368.756638 145.200817 
L 369.41316 192.119537 
L 370.089883 151.598436 
L 370.827208 168.249034 
L 371.433228 162.420471 
L 372.109951 163.123256 
L 372.796774 133.831065 
L 373.463397 139.501715 
L 374.130019 138.039239 
L 374.826943 160.155626 
L 375.473364 168.194973 
L 376.150087 191.301518 
L 376.867211 200.846021 
L 377.493432 205.266168 
L 378.170155 148.51984 
L 378.877179 167.311513 
L 379.5236 173.253887 
L 380.190223 172.172679 
L 380.927548 189.711005 
L 381.533568 164.436354 
L 382.210291 165.755143 
L 382.917315 168.146603 
L 383.563736 161.497177 
L 384.230359 141.810662 
L 384.967684 141.194658 
L 385.583804 139.767749 
L 386.250427 123.438668 
L 386.967551 177.918729 
L 387.593772 179.21191 
L 388.270495 199.184375 
L 388.987619 193.577745 
L 389.62394 179.927499 
L 390.290563 147.937979 
L 390.987486 152.210172 
L 391.654108 182.576457 
L 392.310631 129.699714 
L 393.007554 189.348231 
L 393.653976 149.401878 
L 394.330698 171.1498 
L 395.047823 175.282574 
L 395.684144 163.316735 
L 397.027489 116.025283 
L 397.694112 146.822628 
L 398.370834 158.407199 
L 399.108159 161.545546 
L 399.72428 187.032171 
L 400.390902 206.195153 
L 401.097926 203.684191 
L 401.744348 164.04086 
L 402.41097 137.189922 
L 403.158395 55.794906 
L 403.764416 266.867972 
L 404.431038 129.614356 
L 405.168363 189.89168 
L 405.774383 152.61278 
L 406.451106 171.852585 
L 407.794451 157.922078 
L 408.471174 145.653217 
L 409.218599 154.944489 
L 409.82462 137.585417 
L 411.834587 202.770855 
L 412.51131 194.745733 
L 413.228434 178.419498 
L 413.854655 158.390127 
L 414.531378 122.684668 
L 415.238402 272.57561 
L 415.884823 114.468913 
L 416.551446 187.672359 
L 417.298871 147.343315 
L 417.894791 171.454245 
L 418.571514 170.59497 
L 419.318939 156.988825 
L 419.924959 130.810797 
L 420.591582 129.287148 
L 421.945027 149.522802 
L 422.61165 160.994984 
L 423.359075 199.934107 
L 423.954995 207.434274 
L 424.631718 190.749533 
L 425.328641 149.127308 
L 425.985163 168.432554 
L 426.651785 176.47617 
L 427.36891 124.874114 
L 427.995131 176.521695 
L 428.671853 166.220347 
L 429.399078 173.620928 
L 430.025299 159.31769 
L 430.691921 162.443233 
L 431.429246 139.868756 
L 432.045367 124.767416 
L 432.711989 159.311999 
L 433.429113 151.286878 
L 434.065435 158.020241 
L 434.732057 188.272714 
L 435.479482 212.510259 
L 436.085503 196.504118 
L 436.752125 152.402229 
L 437.449049 170.880921 
L 438.105571 99.596618 
L 438.772193 193.290371 
L 439.519618 154.940221 
L 440.115538 190.346926 
L 440.792261 160.528358 
L 441.519486 166.553245 
L 442.135606 164.180279 
L 442.812329 142.41244 
L 443.559754 105.422335 
L 444.155674 157.785505 
L 444.832397 160.583841 
L 445.569722 170.159641 
L 446.185842 190.418058 
L 446.852465 208.499832 
L 447.59989 195.161145 
L 448.20591 121.795517 
L 448.872533 192.283141 
L 449.569456 154.21752 
L 450.215878 164.018098 
L 450.892601 168.212045 
L 451.589524 188.221499 
L 452.235946 166.369724 
L 452.912669 171.610736 
L 453.649993 157.495286 
L 454.266114 138.187194 
L 454.932737 105.999928 
L 455.63976 145.53087 
L 456.286182 156.822376 
L 456.952805 163.500256 
L 457.649728 187.431933 
L 458.30625 202.941572 
L 458.972873 203.278738 
L 459.700097 159.826995 
L 460.326318 171.983468 
L 460.99294 134.240786 
L 461.689864 140.043741 
L 462.336286 162.983837 
L 463.013008 174.776113 
L 463.760434 170.8482 
L 464.366454 171.377423 
L 465.033076 166.241686 
L 465.760301 140.873141 
L 466.386522 130.388273 
L 467.053144 141.381024 
L 467.790469 159.064459 
L 468.396489 165.941509 
L 469.073212 184.211072 
L 469.770136 211.810319 
L 471.09328 184.114333 
L 471.790204 140.967036 
L 472.436625 54.98969 
L 473.113348 259.145873 
L 473.800171 146.065783 
L 474.466794 191.197665 
L 475.133416 168.759762 
L 475.830339 175.12466 
L 476.486862 163.032207 
L 477.850407 126.538605 
L 478.506929 141.210307 
L 479.173552 168.869305 
L 479.890676 164.76783 
L 480.526997 189.86465 
L 481.18352 209.859878 
L 481.930945 202.066647 
L 482.547065 138.286779 
L 483.213688 195.620658 
L 483.910611 107.510773 
L 484.567133 148.864119 
L 485.233756 148.913912 
L 485.981181 166.201852 
L 487.253824 173.426026 
L 487.950747 163.582769 
L 488.607269 134.179613 
L 489.273892 112.013434 
L 490.011216 153.681184 
L 491.29396 164.176011 
L 491.980783 192.571937 
L 492.647405 211.594078 
L 493.314027 198.800262 
L 494.010951 128.793491 
L 494.667473 167.978732 
L 495.334095 109.34029 
L 496.081521 165.863264 
L 496.687541 148.75173 
L 497.354163 192.85362 
L 498.091488 165.648445 
L 498.697509 177.725249 
L 499.374231 150.478817 
L 500.121656 133.296152 
L 500.717576 108.856592 
L 501.394299 160.258056 
L 502.060922 146.858195 
L 502.747745 165.958581 
L 503.414367 200.092021 
L 504.111291 206.841032 
L 504.767813 197.212594 
L 505.434435 136.615175 
L 506.131359 174.103204 
L 506.77778 178.102249 
L 507.454503 158.707376 
L 508.212029 181.409891 
L 508.797848 165.228766 
L 509.474571 166.455083 
L 510.171494 164.780633 
L 510.828017 166.632913 
L 511.494639 142.142138 
L 512.221863 137.457379 
L 512.848084 149.268149 
L 513.514707 156.466716 
L 514.231831 154.406731 
L 514.868152 194.271994 
L 515.534775 218.289029 
L 516.2721 210.150097 
L 516.88822 134.118439 
L 517.554843 189.03525 
L 518.251766 120.802514 
L 518.908288 183.148359 
L 519.574911 185.979416 
L 520.302135 168.534985 
L 520.918256 165.675475 
L 521.594979 163.631139 
L 522.352504 166.853422 
L 522.938324 134.715948 
L 523.615047 115.278396 
L 524.31197 135.031775 
L 524.958392 163.725033 
L 525.635115 169.436939 
L 526.98856 209.444466 
L 527.655182 193.545024 
L 528.352106 152.267078 
L 529.008628 170.520992 
L 529.67525 197.852783 
L 530.412575 126.421948 
L 531.018596 172.562483 
L 531.695318 165.242992 
L 532.442743 165.294207 
L 533.038663 166.610151 
L 533.715386 161.865641 
L 535.068832 121.351653 
L 535.735454 149.482968 
L 536.472779 173.086015 
L 537.0889 161.912588 
L 537.755522 184.51125 
L 538.502947 218.749965 
L 539.108968 198.535651 
L 539.77559 140.557315 
L 541.118935 194.077092 
L 541.795658 121.114072 
L 542.512782 187.55428 
L 543.149104 167.193434 
L 543.815726 168.606117 
L 544.502549 162.744833 
L 545.169171 163.215728 
L 545.835794 138.641017 
L 546.542818 122.484076 
L 547.855862 154.997127 
L 548.593187 163.912822 
L 549.199207 203.308613 
L 549.87593 210.218384 
L 550.613255 187.285401 
L 551.219275 129.466401 
L 551.895998 150.649534 
L 552.633323 227.053924 
L 553.239343 129.351167 
L 553.916066 178.465023 
L 554.612989 164.16463 
L 555.259411 176.77777 
L 555.936134 170.767109 
L 556.643157 156.192146 
L 557.956202 124.398952 
L 558.673326 147.179712 
L 559.299547 161.884135 
L 559.976269 170.666102 
L 560.723695 184.418778 
L 561.319615 199.623972 
L 561.996337 191.661446 
L 562.693261 168.061245 
L 563.349783 167.514951 
L 564.016405 72.283322 
L 564.713329 200.919998 
L 565.369851 163.892905 
L 566.036473 170.979083 
L 566.783898 175.44191 
L 567.389919 176.139004 
L 568.056541 166.467886 
L 568.803966 148.037564 
L 569.409987 141.218843 
L 570.076609 145.038636 
L 570.793733 153.509044 
L 571.419954 165.392369 
L 572.096677 183.535318 
L 572.813801 219.061524 
L 573.450123 201.388047 
L 574.116745 162.367833 
L 574.823769 170.075705 
L 575.470191 38.120006 
L 576.136813 214.659871 
L 576.853937 155.184916 
L 577.490258 169.671675 
L 578.156881 167.4552 
L 578.863905 163.993913 
L 579.510326 172.166989 
L 580.873872 114.63963 
L 581.520294 154.442297 
L 582.197017 163.572811 
L 582.88384 160.521244 
L 584.217085 216.61458 
L 584.924109 202.055266 
L 585.57053 157.108327 
L 586.237153 167.456622 
L 586.944176 55.709547 
L 587.590598 165.002565 
L 588.257221 143.840772 
L 588.944044 178.336985 
L 589.600566 162.669433 
L 590.277289 172.918143 
L 591.630734 147.502651 
L 592.297356 128.117737 
L 592.99428 147.720315 
L 593.650802 146.721621 
L 594.317424 158.81692 
L 595.034549 183.772899 
L 595.66077 214.88038 
L 596.337492 206.555081 
L 597.034416 167.782407 
L 597.690938 142.021213 
L 598.35756 89.383474 
L 599.084785 278.708618 
L 599.700905 133.577835 
L 600.377628 189.405137 
L 601.064451 166.011218 
L 601.731074 171.590819 
L 602.397696 166.587388 
L 603.11482 150.043489 
L 603.751142 142.247413 
L 604.417764 138.787549 
L 605.134888 136.903971 
L 605.77121 165.233033 
L 606.437832 168.953241 
L 607.165057 204.22764 
L 607.791278 205.707187 
L 608.4579 184.575269 
L 609.811346 102.340894 
L 610.477968 247.308073 
L 611.164791 140.545934 
L 611.831413 187.551435 
L 612.498036 155.126587 
L 613.21516 173.481509 
L 613.851481 159.351833 
L 614.518104 153.69541 
L 615.204927 144.786828 
L 615.871549 156.002935 
L 616.538172 108.313143 
L 617.235095 161.18135 
L 617.891617 178.028272 
L 618.55824 211.009372 
L 619.285464 207.639134 
L 619.911685 183.166853 
L 620.578308 122.279216 
L 621.305532 117.180468 
L 621.931753 246.938186 
L 622.598376 125.591125 
L 623.3357 191.835009 
L 623.951821 155.421074 
L 624.628544 182.374442 
L 625.345668 160.326343 
L 625.971889 160.973644 
L 626.638511 137.925428 
L 627.345535 136.839952 
L 627.991957 146.872421 
L 628.66868 175.39923 
L 629.355503 168.590468 
L 630.012025 209.330655 
L 630.678647 197.140039 
L 631.375571 188.22719 
L 632.032093 125.158642 
L 632.698715 26.676277 
L 633.44614 251.898937 
L 634.052161 144.40556 
L 634.718783 192.01853 
L 635.50661 155.496474 
L 636.072229 168.896336 
L 636.738851 179.460872 
L 637.496377 149.945327 
L 638.092297 144.546402 
L 638.758919 144.251915 
L 639.486144 113.1046 
L 640.112365 181.037159 
L 640.778987 166.190471 
L 641.718319 207.522478 
L 642.132433 197.122968 
L 642.799055 197.07602 
L 643.485878 130.162073 
L 644.1525 41.871512 
L 644.829223 246.110208 
L 645.546347 130.926031 
L 646.172568 194.427062 
L 646.839191 163.192965 
L 647.546215 165.706773 
L 648.192636 173.576826 
L 648.859259 147.529681 
L 649.556182 137.714877 
L 650.212704 133.178073 
L 650.879327 135.865443 
L 651.616652 165.93155 
L 652.232772 182.937808 
L 652.899395 215.614463 
L 653.616519 198.460251 
L 654.25284 173.736162 
L 654.919463 156.435418 
L 655.616386 71.297431 
L 656.272908 228.064 
L 656.939531 157.943418 
L 657.646554 176.029461 
L 658.292976 168.610385 
L 658.959598 174.441793 
L 659.656522 167.771026 
L 660.323144 145.62761 
L 661.67659 136.960877 
L 662.999734 161.236833 
L 664.34308 208.64921 
L 665.019802 207.575115 
L 665.757127 159.128478 
L 666.373248 148.252383 
L 667.03987 88.290885 
L 667.736794 260.01084 
L 668.393316 139.824654 
L 669.059938 189.210235 
L 669.756862 154.628663 
L 670.413384 171.691826 
L 671.080006 163.551471 
L 671.78703 152.116278 
L 673.100074 141.840538 
L 673.817198 130.910382 
L 674.45352 171.202438 
L 675.120142 174.855781 
L 675.827166 206.133979 
L 676.473588 208.585191 
L 677.867434 136.94665 
L 678.493655 147.579474 
L 679.160278 248.781929 
L 679.897603 148.575323 
L 680.513723 184.003367 
L 681.180346 157.670271 
L 681.927771 171.417256 
L 682.533791 161.716263 
L 683.200414 157.183727 
L 683.897337 135.218141 
L 684.57406 135.767281 
L 685.220482 106.82506 
L 685.947706 170.843932 
L 686.573927 164.04655 
L 687.24055 204.988753 
L 687.927373 214.705395 
L 688.583895 187.837386 
L 689.260618 134.390164 
L 690.603963 208.97784 
L 691.280685 141.654172 
L 691.967509 180.910544 
L 692.624031 160.608026 
L 693.300753 166.32989 
L 693.967376 169.592007 
L 694.644099 166.760951 
L 696.037945 116.544547 
L 696.664167 158.851063 
L 697.340889 152.958482 
L 698.007512 163.296818 
L 698.684234 180.324416 
L 699.360957 176.732246 
L 700.04778 185.179891 
L 700.704302 162.86149 
L 701.381025 188.813318 
L 702.047648 192.009994 
L 702.72437 139.949847 
L 703.401093 161.086033 
L 704.067716 170.681751 
L 704.754539 158.526701 
L 705.421161 188.819009 
L 706.097884 129.699714 
L 706.774607 163.231377 
L 707.441229 137.686424 
L 708.128052 181.149548 
L 709.461297 159.519705 
L 710.14812 168.084007 
L 710.814742 166.436588 
L 711.491465 163.915667 
L 712.168188 164.836116 
L 712.83481 163.769135 
L 713.501433 161.521361 
L 714.168055 162.823079 
L 714.854878 165.355381 
L 715.531601 166.890411 
L 716.208324 166.136411 
L 716.208324 166.136411 
" style="fill:none;stroke:#ff7f0e;stroke-linecap:square;stroke-width:1.5;"/>
   </g>
   <g id="line2d_18">
    <path clip-path="url(#p8bd5b3a8c5)" d="M 107.481051 259.426134 
L 108.177975 257.085888 
L 108.824396 253.442503 
L 109.501119 254.876526 
L 110.228344 256.091462 
L 110.844464 258.288021 
L 111.521187 268.044497 
L 112.258512 293.256551 
L 112.864532 277.711346 
L 113.541255 290.476709 
L 114.238178 293.694725 
L 114.8947 298.079306 
L 115.561323 305.703243 
L 116.308748 325.54198 
L 116.904668 310.494699 
L 117.581391 248.614058 
L 118.288415 207.617795 
L 118.924736 258.188436 
L 119.601459 231.047279 
L 120.318583 244.469903 
L 120.944804 249.611329 
L 121.621527 247.693609 
L 122.338651 241.597589 
L 122.964872 251.339839 
L 123.641595 245.235284 
L 124.358719 215.668523 
L 124.98494 248.934152 
L 125.661663 273.390784 
L 126.378787 264.837863 
L 128.378654 291.13966 
L 129.025076 299.398095 
L 129.701798 309.665299 
L 130.429023 238.631382 
L 131.045144 231.367374 
L 131.721866 210.474459 
L 132.41879 247.929767 
L 133.065212 243.499661 
L 133.741934 241.67868 
L 134.489359 244.253661 
L 135.09538 242.475359 
L 135.762002 244.585137 
L 136.509427 261.821862 
L 137.115448 237.786332 
L 137.78207 266.937682 
L 138.478994 262.039526 
L 139.125415 249.575763 
L 139.802138 273.13044 
L 141.155584 297.592763 
L 141.822206 312.93453 
L 142.51913 335.436452 
L 143.175652 258.453047 
L 143.842274 222.656539 
L 144.5998 255.243568 
L 145.862342 240.97874 
L 146.609767 246.733326 
L 147.205687 246.669307 
L 147.88241 240.755385 
L 148.599534 262.911606 
L 149.225755 228.376981 
L 149.902478 260.187247 
L 150.639803 255.960579 
L 151.255923 251.578843 
L 152.669971 271.215565 
L 153.265891 287.920223 
L 153.942614 302.313088 
L 154.669838 337.735441 
L 155.285959 228.401166 
L 155.962682 242.122544 
L 156.710107 242.779804 
L 157.306027 237.416446 
L 157.98275 247.709258 
L 158.699874 245.689107 
L 159.336195 246.935341 
L 160.699741 237.496114 
L 161.346163 239.177676 
L 162.022885 258.758915 
L 162.75011 258.628032 
L 163.366231 247.845831 
L 164.042953 276.234644 
L 164.739877 280.225154 
L 165.386299 314.470983 
L 166.063021 340.441305 
L 166.770045 250.22022 
L 167.406367 219.55518 
L 168.083089 204.944651 
L 168.830514 245.058876 
L 169.426434 251.410971 
L 170.103157 242.018691 
L 170.78998 251.460764 
L 171.446502 251.809311 
L 172.123225 233.206849 
L 172.820149 221.13858 
L 173.46657 251.388209 
L 174.143293 241.902035 
L 174.900819 259.888492 
L 175.486638 280.242226 
L 176.163361 283.815901 
L 176.910786 328.276297 
L 177.506706 290.348672 
L 178.183429 220.881082 
L 178.880352 231.886638 
L 179.526774 206.509557 
L 180.203497 253.519326 
L 180.920621 251.484948 
L 181.546842 246.208371 
L 182.223565 247.319454 
L 182.940689 251.539009 
L 183.57701 258.684938 
L 184.243633 211.278252 
L 184.980958 246.039076 
L 185.586978 266.116817 
L 186.263701 251.336994 
L 186.970725 273.998252 
L 187.607046 274.12629 
L 188.283769 293.609366 
L 188.980692 317.559538 
L 189.637214 336.11932 
L 190.303837 257.563896 
L 191.00076 241.069789 
L 191.647182 228.657241 
L 192.323905 269.993516 
L 193.061229 254.350149 
L 193.66725 247.865748 
L 194.343973 249.865982 
L 195.091398 244.010389 
L 195.687318 260.995308 
L 196.36404 232.054509 
L 197.111466 247.044884 
L 197.717486 262.644149 
L 198.384108 259.219851 
L 199.131534 258.629455 
L 199.727454 270.256704 
L 200.404176 291.624781 
L 201.747522 358.02231 
L 202.424244 205.947613 
L 203.090867 252.779552 
L 203.77769 234.100268 
L 204.444312 241.032801 
L 205.161436 243.230782 
L 205.787657 246.77885 
L 206.46438 248.552884 
L 207.181504 245.229593 
L 207.807725 235.767604 
L 208.484448 232.438623 
L 209.201572 258.130107 
L 209.837894 242.725744 
L 210.494416 275.551776 
L 211.22164 256.462771 
L 211.847861 294.192649 
L 212.524584 307.181367 
L 213.241708 342.063117 
L 213.867929 242.539378 
L 214.544652 244.078676 
L 215.261776 209.925319 
L 215.887997 237.824744 
L 216.56472 250.474873 
L 217.281844 246.165692 
L 217.908065 251.346952 
L 218.584788 240.825095 
L 219.281711 259.804557 
L 219.938233 216.072554 
L 220.604856 243.76285 
L 221.33208 266.179414 
L 221.948201 253.520749 
L 222.624924 265.052681 
L 223.352148 271.979523 
L 223.968269 297.101951 
L 224.644992 317.124209 
L 225.392417 357.562797 
L 225.988337 188.487533 
L 226.66506 239.790834 
L 227.361983 221.654999 
L 228.008405 251.418084 
L 228.685127 249.641205 
L 229.392151 248.902854 
L 230.038573 248.966873 
L 230.705195 245.303571 
L 231.452621 248.717911 
L 232.048541 225.951377 
L 232.725263 245.623665 
L 233.462588 259.777526 
L 234.078709 247.595446 
L 234.745331 280.499724 
L 235.472556 290.112513 
L 236.098777 289.947487 
L 236.765399 309.380771 
L 237.482523 318.58384 
L 238.108744 201.948568 
L 238.785467 228.657241 
L 239.502591 250.257209 
L 240.128812 249.123363 
L 240.805535 249.991175 
L 241.512559 245.718982 
L 242.14888 253.628869 
L 242.825603 245.131431 
L 243.522526 253.78536 
L 244.168948 221.354822 
L 244.845671 255.661824 
L 245.582996 262.688251 
L 246.189016 251.578843 
L 246.865739 293.717487 
L 247.582863 272.914199 
L 248.885807 328.469776 
L 249.58273 338.644509 
L 250.229152 214.92875 
L 250.905875 224.134664 
L 251.602798 219.67895 
L 252.25932 234.636604 
L 252.925943 243.48828 
L 254.269288 251.880443 
L 254.946011 244.666227 
L 255.683335 243.555144 
L 256.289356 234.615264 
L 256.966079 264.971591 
L 257.642801 248.178729 
L 258.309424 255.71873 
L 258.986147 272.336606 
L 259.723471 284.981045 
L 260.329492 313.331447 
L 261.006214 305.233771 
L 261.723339 286.629887 
L 262.34956 279.15106 
L 263.026282 241.449635 
L 263.733306 241.042759 
L 264.369628 239.997118 
L 265.04635 245.424495 
L 265.763474 253.480915 
L 266.389696 253.63456 
L 267.066418 253.684352 
L 267.763342 228.948883 
L 268.419864 243.622008 
L 269.823811 262.282798 
L 270.429831 274.432157 
L 271.823678 294.347717 
L 272.449899 331.831478 
L 273.126622 329.06444 
L 273.833646 190.023986 
L 274.469967 228.664355 
L 275.14669 219.22086 
L 275.863814 251.649975 
L 276.490035 254.206462 
L 277.166758 248.155967 
L 277.904083 256.330466 
L 278.520204 248.249861 
L 279.186826 243.141155 
L 279.883749 229.052736 
L 280.540271 266.978938 
L 281.206894 264.210478 
L 281.913918 257.322047 
L 282.550239 279.365879 
L 283.226962 291.523774 
L 283.964287 317.462798 
L 284.570307 310.359548 
L 285.24703 291.923536 
L 285.964154 290.150925 
L 286.590375 244.997703 
L 287.267098 236.42771 
L 287.974121 249.959877 
L 288.610443 251.805043 
L 289.287166 249.195918 
L 289.973989 244.141273 
L 290.640611 252.65436 
L 291.307234 238.095046 
L 292.054659 259.692168 
L 292.660679 259.118843 
L 293.327302 257.943741 
L 294.074727 283.255381 
L 294.670647 272.989599 
L 295.347369 294.905393 
L 296.064494 325.785251 
L 296.690715 345.505909 
L 297.367437 190.281484 
L 298.104762 243.153959 
L 298.710783 235.860076 
L 299.387505 250.52182 
L 300.104629 256.636334 
L 300.730851 253.357145 
L 301.407573 255.240722 
L 302.144898 251.469299 
L 302.761019 239.714012 
L 303.427641 231.708808 
L 304.124565 274.854682 
L 304.781087 256.546707 
L 305.447709 249.497518 
L 306.164833 274.231565 
L 306.791054 287.221705 
L 307.467777 313.186337 
L 308.811122 281.438667 
L 309.487845 304.42002 
L 310.204969 229.818117 
L 310.83119 233.967962 
L 311.507913 234.335004 
L 312.214937 240.968782 
L 312.851258 249.092065 
L 313.527981 248.295386 
L 314.235005 258.518489 
L 315.548049 230.943426 
L 316.244972 247.998054 
L 316.901494 256.030288 
L 317.568117 262.318364 
L 318.315542 266.395655 
L 319.588185 320.842994 
L 320.264907 328.748614 
L 320.94163 171.936521 
L 321.608253 304.44705 
L 322.355678 250.170428 
L 322.951598 238.62 
L 323.628321 264.044029 
L 324.981766 249.230062 
L 326.355412 263.171949 
L 327.001834 247.096099 
L 327.668456 259.727734 
L 328.36538 254.7115 
L 329.021902 267.343134 
L 329.688524 273.931388 
L 330.43595 283.414717 
L 331.04197 314.611824 
L 331.708592 295.746174 
L 332.415616 312.395349 
L 333.051938 251.735333 
L 333.72866 227.702649 
L 334.425584 279.745724 
L 335.082106 225.368094 
L 335.748728 246.187031 
L 336.486053 255.839654 
L 337.092073 249.282699 
L 337.768796 248.629707 
L 338.48592 210.195621 
L 339.112141 266.876508 
L 339.788864 243.452714 
L 340.505988 242.469669 
L 341.14231 290.505162 
L 341.808932 280.636298 
L 342.526056 307.013495 
L 343.162378 343.194117 
L 343.829 321.032206 
L 344.525923 233.983611 
L 345.182446 245.333446 
L 345.849068 240.950287 
L 346.556092 254.882217 
L 347.202513 263.009768 
L 347.859036 247.592601 
L 348.58626 249.043695 
L 349.212481 249.867405 
L 349.889204 229.546392 
L 350.606328 248.454722 
L 351.232549 238.647031 
L 352.606195 283.362079 
L 353.252617 262.692519 
L 353.92934 292.933612 
L 354.676765 335.342558 
L 355.272685 316.421424 
L 355.949408 227.093758 
L 356.656431 241.644536 
L 357.292753 212.399293 
L 357.969476 257.038941 
L 358.6967 246.144352 
L 359.312821 253.324424 
L 359.989544 251.291469 
L 360.696567 248.508782 
L 361.353089 263.422334 
L 362.009611 228.992985 
L 362.726736 271.696418 
L 363.363057 253.86076 
L 364.029679 255.882334 
L 364.726603 293.629283 
L 365.383125 278.88218 
L 366.049747 323.753719 
L 366.776972 313.096711 
L 367.393093 301.755412 
L 368.069815 301.877759 
L 368.756638 197.141462 
L 369.41316 242.101204 
L 370.089883 258.464428 
L 370.827208 236.266951 
L 371.433228 251.062424 
L 372.109951 248.985367 
L 372.796774 255.838232 
L 373.463397 235.605423 
L 374.130019 241.429718 
L 374.826943 237.672521 
L 376.150087 272.464644 
L 376.867211 280.545248 
L 377.493432 299.413744 
L 378.170155 334.995433 
L 378.877179 343.243909 
L 379.5236 193.162333 
L 380.190223 265.113855 
L 380.927548 265.772538 
L 381.533568 239.816442 
L 382.210291 257.957968 
L 382.917315 252.852107 
L 383.563736 246.572567 
L 384.230359 252.018439 
L 384.967684 259.123111 
L 385.583804 214.526142 
L 386.250427 255.468345 
L 386.967551 219.791339 
L 387.593772 257.545402 
L 388.270495 282.734694 
L 388.987619 289.009966 
L 389.62394 312.236013 
L 390.290563 311.487703 
L 390.987486 311.867549 
L 392.310631 211.690818 
L 393.007554 281.610807 
L 393.653976 219.855358 
L 394.330698 251.548967 
L 395.047823 252.510673 
L 395.684144 249.171733 
L 396.350766 256.313394 
L 397.027489 243.94068 
L 397.694112 236.609808 
L 398.370834 245.559646 
L 399.108159 252.462303 
L 399.72428 261.231466 
L 400.390902 283.992309 
L 401.097926 288.086672 
L 401.744348 329.287795 
L 402.41097 314.416922 
L 403.158395 200.585677 
L 403.764416 315.210756 
L 404.431038 201.76647 
L 405.168363 244.69468 
L 405.774383 234.030559 
L 406.451106 239.815019 
L 407.198531 253.0527 
L 407.794451 255.138292 
L 408.471174 251.079496 
L 409.218599 227.951611 
L 409.82462 263.147764 
L 410.491242 248.763435 
L 411.208366 246.663616 
L 411.834587 285.427754 
L 412.51131 276.408207 
L 413.228434 294.781623 
L 413.854655 324.857689 
L 414.531378 371.228692 
L 415.238402 244.401616 
L 415.884823 211.742033 
L 416.551446 262.807753 
L 417.298871 212.722233 
L 417.894791 237.443476 
L 418.571514 254.392828 
L 419.318939 254.536515 
L 419.924959 251.709726 
L 420.591582 240.386921 
L 421.339007 253.163666 
L 421.945027 245.694797 
L 422.61165 233.064585 
L 423.359075 275.874716 
L 423.954995 282.635109 
L 424.631718 304.604963 
L 425.328641 316.639089 
L 425.985163 362.073993 
L 426.651785 187.414861 
L 427.36891 208.023248 
L 427.995131 264.876274 
L 428.671853 231.956347 
L 430.025299 247.05342 
L 430.691921 259.290983 
L 431.429246 257.155598 
L 432.711989 220.744509 
L 433.429113 253.325847 
L 434.065435 256.043092 
L 434.732057 255.624836 
L 435.479482 274.405127 
L 436.085503 284.807483 
L 436.752125 333.78761 
L 437.449049 352.099853 
L 438.105571 152.568678 
L 438.772193 306.088778 
L 439.519618 262.54741 
L 440.115538 254.005869 
L 440.792261 236.403525 
L 441.519486 262.554523 
L 442.135606 245.212522 
L 442.812329 254.902134 
L 443.559754 237.405065 
L 444.155674 238.94294 
L 444.832397 241.254733 
L 445.569722 242.80968 
L 446.185842 273.968376 
L 446.852465 276.435237 
L 447.59989 300.05251 
L 448.20591 300.07954 
L 448.872533 339.253399 
L 449.569456 169.448321 
L 450.215878 254.811085 
L 450.892601 277.145135 
L 451.589524 236.914253 
L 452.235946 250.160469 
L 452.912669 252.100952 
L 453.649993 261.511726 
L 454.266114 262.991274 
L 454.932737 237.010993 
L 455.63976 219.227973 
L 456.286182 246.245359 
L 456.952805 251.325613 
L 457.649728 264.499274 
L 458.30625 282.105886 
L 458.972873 285.925679 
L 459.700097 329.58655 
L 460.326318 332.238354 
L 460.99294 162.754792 
L 461.689864 224.511664 
L 462.336286 257.056013 
L 463.013008 225.002475 
L 463.760434 258.243919 
L 464.366454 255.815469 
L 465.033076 256.882451 
L 465.760301 253.496564 
L 466.386522 244.892427 
L 467.053144 217.927678 
L 467.790469 257.384643 
L 468.396489 242.279035 
L 469.073212 245.512699 
L 469.770136 282.225388 
L 470.416557 286.881694 
L 471.09328 341.626366 
L 471.790204 323.567353 
L 472.436625 226.147702 
L 473.113348 328.724429 
L 473.800171 204.391244 
L 474.466794 247.734865 
L 475.133416 258.817243 
L 475.830339 244.67334 
L 476.486862 241.914838 
L 477.153484 246.740439 
L 477.850407 245.903925 
L 478.506929 210.585425 
L 479.173552 253.805277 
L 479.890676 247.865748 
L 480.526997 245.629356 
L 481.18352 283.532796 
L 481.930945 300.275865 
L 482.547065 321.709383 
L 483.213688 333.966863 
L 483.910611 157.051422 
L 484.567133 242.512348 
L 485.233756 259.9895 
L 485.981181 234.487227 
L 486.577101 260.296791 
L 487.253824 254.654594 
L 487.950747 250.331186 
L 488.607269 256.391639 
L 489.273892 234.993687 
L 490.011216 231.933585 
L 490.627337 252.055428 
L 491.29396 258.113036 
L 491.980783 263.048179 
L 493.314027 294.37048 
L 494.010951 321.345187 
L 494.667473 341.677581 
L 495.334095 135.494133 
L 496.081521 271.720603 
L 496.687541 228.8934 
L 497.354163 253.185005 
L 498.091488 246.252473 
L 498.697509 249.341028 
L 499.374231 258.046172 
L 500.121656 252.267401 
L 500.717576 236.42771 
L 501.394299 263.07521 
L 502.060922 259.918368 
L 502.747745 243.232205 
L 503.414367 280.735882 
L 504.111291 270.754629 
L 504.767813 293.139895 
L 505.434435 332.366391 
L 506.131359 343.100222 
L 506.77778 197.205481 
L 507.454503 245.588099 
L 508.212029 243.582174 
L 508.797848 253.600417 
L 509.474571 245.686261 
L 510.171494 256.858266 
L 510.828017 253.183583 
L 511.494639 255.262062 
L 512.221863 257.028983 
L 512.848084 205.48241 
L 513.514707 253.401247 
L 514.868152 242.922069 
L 515.534775 280.65906 
L 516.2721 295.559808 
L 516.88822 339.653162 
L 517.554843 346.653981 
L 518.251766 158.115558 
L 518.908288 276.199078 
L 519.574911 270.145738 
L 520.302135 225.028083 
L 520.918256 281.331969 
L 521.594979 255.354534 
L 522.352504 243.146846 
L 522.938324 249.333914 
L 523.615047 253.523594 
L 524.31197 230.064234 
L 524.958392 262.043794 
L 525.635115 241.310216 
L 526.321938 263.547527 
L 527.655182 296.753404 
L 528.352106 350.876381 
L 529.008628 366.260828 
L 529.67525 241.610393 
L 530.412575 228.307271 
L 531.018596 263.954402 
L 531.695318 238.733812 
L 532.442743 252.007058 
L 533.038663 256.071545 
L 533.715386 252.869179 
L 534.41231 265.897731 
L 535.068832 227.002709 
L 535.735454 228.682849 
L 536.472779 245.142812 
L 537.0889 243.620586 
L 537.755522 253.638828 
L 538.502947 277.091075 
L 539.108968 303.707276 
L 539.77559 316.701685 
L 540.472514 352.085627 
L 541.118935 188.188778 
L 541.795658 201.198836 
L 542.512782 284.318094 
L 543.149104 211.537172 
L 543.815726 256.235149 
L 544.502549 250.469182 
L 545.169171 257.421632 
L 545.835794 254.498103 
L 546.542818 238.288525 
L 547.179139 263.198979 
L 547.855862 239.309982 
L 548.593187 265.409764 
L 549.199207 270.763165 
L 549.87593 280.347501 
L 550.613255 305.319129 
L 551.219275 306.236733 
L 551.895998 355.844246 
L 552.633323 264.714093 
L 553.239343 221.398924 
L 553.916066 249.44488 
L 554.612989 229.44823 
L 555.936134 254.582039 
L 556.643157 243.917918 
L 557.289579 273.769207 
L 557.956202 239.392495 
L 558.673326 212.783406 
L 559.299547 247.545654 
L 559.976269 249.446303 
L 560.723695 248.457567 
L 561.319615 278.668784 
L 561.996337 287.436524 
L 562.693261 344.638098 
L 563.349783 326.02141 
L 564.016405 247.62959 
L 564.713329 275.169086 
L 565.369851 234.862804 
L 566.036473 225.011011 
L 566.783898 264.072481 
L 567.389919 249.378016 
L 568.056541 245.697642 
L 568.803966 252.637288 
L 569.409987 260.056364 
L 570.076609 210.030595 
L 570.793733 251.790816 
L 571.419954 218.751388 
L 572.096677 250.582994 
L 572.813801 278.237724 
L 573.450123 283.943939 
L 574.116745 342.07592 
L 574.823769 338.486596 
L 575.470191 187.693699 
L 576.136813 260.039292 
L 576.853937 237.75788 
L 577.490258 227.31569 
L 578.156881 249.723718 
L 578.863905 251.792239 
L 580.176949 253.624601 
L 580.873872 248.399239 
L 581.520294 218.075633 
L 582.197017 255.688854 
L 582.88384 247.027812 
L 583.550462 256.373145 
L 584.217085 279.542286 
L 584.924109 284.83309 
L 585.57053 338.136626 
L 586.237153 338.313033 
L 586.944176 131.073986 
L 587.590598 230.102645 
L 588.257221 237.353849 
L 588.944044 259.345043 
L 589.600566 238.577321 
L 590.277289 252.423892 
L 590.984312 257.120032 
L 591.630734 254.444043 
L 592.99428 216.749731 
L 593.650802 259.450319 
L 594.317424 238.645608 
L 595.034549 250.463492 
L 595.66077 283.473045 
L 596.337492 290.135275 
L 597.034416 323.082232 
L 597.690938 316.4513 
L 598.35756 324.947315 
L 599.084785 320.723493 
L 599.700905 193.981775 
L 600.377628 251.029703 
L 601.064451 251.078073 
L 601.731074 234.185627 
L 602.397696 253.776824 
L 603.11482 251.581688 
L 603.751142 255.129756 
L 604.417764 217.296025 
L 605.134888 269.524044 
L 605.77121 240.716974 
L 607.165057 278.863686 
L 607.791278 282.265222 
L 608.4579 314.805304 
L 609.175024 294.80154 
L 609.811346 284.897109 
L 610.477968 289.00143 
L 611.164791 205.6389 
L 611.831413 246.316492 
L 612.498036 238.665525 
L 613.21516 247.453182 
L 613.851481 263.933062 
L 614.518104 254.81393 
L 615.204927 269.125704 
L 615.871549 210.640908 
L 616.538172 271.179999 
L 617.235095 247.362133 
L 617.891617 267.646157 
L 618.55824 282.379033 
L 619.285464 276.736837 
L 619.911685 305.181133 
L 620.578308 296.816 
L 621.305532 321.732145 
L 621.931753 278.145252 
L 622.598376 204.243289 
L 623.3357 259.352157 
L 623.951821 233.940932 
L 624.628544 235.796057 
L 625.345668 262.150493 
L 626.638511 250.615714 
L 627.345535 214.897452 
L 627.991957 259.773258 
L 628.66868 240.617389 
L 629.355503 244.275001 
L 630.012025 285.375117 
L 630.678647 283.719162 
L 631.375571 301.180665 
L 632.698715 293.048845 
L 633.44614 347.760796 
L 634.052161 233.265177 
L 634.718783 254.149556 
L 635.50661 249.443458 
L 636.072229 241.863623 
L 636.738851 250.279971 
L 637.496377 248.754899 
L 638.092297 268.136968 
L 638.758919 217.084052 
L 639.486144 279.725807 
L 640.112365 229.515094 
L 640.778987 240.243235 
L 642.132433 301.277405 
L 642.799055 307.33359 
L 643.485878 300.355533 
L 644.1525 244.307722 
L 644.829223 314.337254 
L 645.546347 260.518723 
L 646.172568 245.854133 
L 646.839191 241.505118 
L 647.546215 247.62959 
L 648.192636 261.622693 
L 648.859259 248.036465 
L 649.556182 262.738044 
L 650.212704 199.108975 
L 650.879327 270.377629 
L 651.616652 208.313466 
L 652.232772 247.111748 
L 652.899395 281.410215 
L 653.616519 291.512393 
L 654.25284 324.338425 
L 654.919463 320.127406 
L 655.616386 188.723692 
L 656.272908 281.361845 
L 656.939531 244.626393 
L 657.646554 238.274299 
L 658.292976 253.351454 
L 658.959598 242.365816 
L 659.656522 251.691231 
L 660.323144 255.481149 
L 660.979666 261.794832 
L 661.67659 200.130432 
L 662.333112 255.640485 
L 662.999734 215.193361 
L 663.696658 246.488631 
L 664.34308 282.556864 
L 665.019802 282.837124 
L 665.757127 338.583335 
L 666.373248 319.835764 
L 667.03987 294.420272 
L 667.736794 347.810589 
L 668.393316 212.540135 
L 669.059938 254.983224 
L 669.756862 238.129189 
L 670.413384 230.142479 
L 671.080006 256.104266 
L 671.78703 257.286481 
L 672.483953 261.693825 
L 673.100074 204.913353 
L 673.817198 263.116466 
L 674.45352 245.010507 
L 675.827166 280.418633 
L 676.473588 278.641754 
L 677.14021 302.288903 
L 677.867434 309.093397 
L 678.493655 342.656358 
L 679.160278 293.386012 
L 679.897603 230.0998 
L 680.513723 246.329295 
L 681.180346 242.35728 
L 681.927771 242.700137 
L 682.533791 257.010488 
L 683.200414 264.311485 
L 683.897337 255.052934 
L 684.57406 221.00912 
L 685.220482 254.624718 
L 685.947706 239.631499 
L 686.573927 257.330583 
L 687.24055 271.919772 
L 687.927373 282.835701 
L 688.583895 308.817405 
L 689.260618 327.596274 
L 689.92724 356.646616 
L 690.603963 281.734577 
L 691.280685 250.285662 
L 691.967509 242.574944 
L 692.624031 245.925265 
L 693.300753 274.652667 
L 693.967376 244.603631 
L 694.644099 257.364726 
L 695.320821 251.827805 
L 696.037945 236.93417 
L 696.664167 220.992048 
L 697.340889 257.455775 
L 698.007512 256.913749 
L 698.684234 248.441918 
L 699.360957 279.85669 
L 700.04778 295.179963 
L 700.704302 248.06065 
L 701.381025 229.350068 
L 702.047648 253.064081 
L 702.72437 219.132656 
L 703.401093 246.300842 
L 704.067716 242.899306 
L 704.754539 245.127163 
L 705.421161 226.005437 
L 706.097884 261.718009 
L 706.774607 255.125488 
L 707.441229 242.475359 
L 708.128052 236.956932 
L 708.794675 242.722899 
L 709.461297 243.077137 
L 710.14812 240.916144 
L 711.491465 248.976831 
L 712.168188 248.10902 
L 712.83481 248.056382 
L 713.501433 247.773277 
L 714.168055 243.442755 
L 714.854878 245.740322 
L 715.531601 248.578492 
L 716.208324 245.276541 
L 716.208324 245.276541 
" style="fill:none;stroke:#2ca02c;stroke-linecap:square;stroke-width:1.5;"/>
   </g>
   <g id="legend_1">
    <g id="patch_3">
     <path d="M 674.774688 97.293594 
L 735.444687 97.293594 
Q 738.644687 97.293594 738.644687 94.093594 
L 738.644687 25.238594 
Q 738.644687 22.038594 735.444687 22.038594 
L 674.774688 22.038594 
Q 671.574687 22.038594 671.574687 25.238594 
L 671.574687 94.093594 
Q 671.574687 97.293594 674.774688 97.293594 
z
" style="fill:#ffffff;opacity:0.4;stroke:#cccccc;stroke-linejoin:miter;"/>
    </g>
    <g id="line2d_19">
     <path d="M 677.974687 34.996094 
L 709.974687 34.996094 
" style="fill:none;stroke:#1f77b4;stroke-linecap:square;stroke-width:1.5;"/>
    </g>
    <g id="line2d_20"/>
    <g id="text_18">
     <!-- x -->
     <defs>
      <path d="M 54.890625 54.6875 
L 35.109375 28.078125 
L 55.90625 0 
L 45.3125 0 
L 29.390625 21.484375 
L 13.484375 0 
L 2.875 0 
L 24.125 28.609375 
L 4.6875 54.6875 
L 15.28125 54.6875 
L 29.78125 35.203125 
L 44.28125 54.6875 
z
" id="DejaVuSans-120"/>
     </defs>
     <g transform="translate(722.774687 40.596094)scale(0.16 -0.16)">
      <use xlink:href="#DejaVuSans-120"/>
     </g>
    </g>
    <g id="line2d_21">
     <path d="M 677.974687 58.481094 
L 709.974687 58.481094 
" style="fill:none;stroke:#ff7f0e;stroke-linecap:square;stroke-width:1.5;"/>
    </g>
    <g id="line2d_22"/>
    <g id="text_19">
     <!-- y -->
     <defs>
      <path d="M 32.171875 -5.078125 
Q 28.375 -14.84375 24.75 -17.8125 
Q 21.140625 -20.796875 15.09375 -20.796875 
L 7.90625 -20.796875 
L 7.90625 -13.28125 
L 13.1875 -13.28125 
Q 16.890625 -13.28125 18.9375 -11.515625 
Q 21 -9.765625 23.484375 -3.21875 
L 25.09375 0.875 
L 2.984375 54.6875 
L 12.5 54.6875 
L 29.59375 11.921875 
L 46.6875 54.6875 
L 56.203125 54.6875 
z
" id="DejaVuSans-121"/>
     </defs>
     <g transform="translate(722.774687 64.081094)scale(0.16 -0.16)">
      <use xlink:href="#DejaVuSans-121"/>
     </g>
    </g>
    <g id="line2d_23">
     <path d="M 677.974687 81.966094 
L 709.974687 81.966094 
" style="fill:none;stroke:#2ca02c;stroke-linecap:square;stroke-width:1.5;"/>
    </g>
    <g id="line2d_24"/>
    <g id="text_20">
     <!-- z -->
     <defs>
      <path d="M 5.515625 54.6875 
L 48.1875 54.6875 
L 48.1875 46.484375 
L 14.40625 7.171875 
L 48.1875 7.171875 
L 48.1875 0 
L 4.296875 0 
L 4.296875 8.203125 
L 38.09375 47.515625 
L 5.515625 47.515625 
z
" id="DejaVuSans-122"/>
     </defs>
     <g transform="translate(722.774687 87.566094)scale(0.16 -0.16)">
      <use xlink:href="#DejaVuSans-122"/>
     </g>
    </g>
   </g>
  </g>
 </g>
 <defs>
  <clipPath id="p8bd5b3a8c5">
   <rect height="332.64" width="669.6" x="77.044688" y="14.038594"/>
  </clipPath>
 </defs>
</svg>
