<?xml version="1.0" encoding="utf-8" standalone="no"?>
<!DOCTYPE svg PUBLIC "-//W3C//DTD SVG 1.1//EN"
  "http://www.w3.org/Graphics/SVG/1.1/DTD/svg11.dtd">
<!-- Created with matplotlib (https://matplotlib.org/) -->
<svg height="403.155469pt" version="1.1" viewBox="0 0 758.844687 403.155469" width="758.844687pt" xmlns="http://www.w3.org/2000/svg" xmlns:xlink="http://www.w3.org/1999/xlink">
 <defs>
  <style type="text/css">
*{stroke-linecap:butt;stroke-linejoin:round;}
  </style>
 </defs>
 <g id="figure_1">
  <g id="patch_1">
   <path d="M 0 403.155469 
L 758.844687 403.155469 
L 758.844687 0 
L 0 0 
z
" style="fill:#ffffff;"/>
  </g>
  <g id="axes_1">
   <g id="patch_2">
    <path d="M 77.044688 346.678594 
L 746.644688 346.678594 
L 746.644688 14.038594 
L 77.044688 14.038594 
z
" style="fill:#ffffff;"/>
   </g>
   <g id="matplotlib.axis_1">
    <g id="xtick_1">
     <g id="line2d_1">
      <defs>
       <path d="M 0 5 
L 0 -5 
" id="m43a6dff1e2" style="stroke:#525252;stroke-width:4;"/>
      </defs>
      <g>
       <use style="fill:#525252;stroke:#525252;stroke-width:4;" x="106.43204" xlink:href="#m43a6dff1e2" y="346.678594"/>
      </g>
     </g>
     <g id="text_1">
      <!-- 0 -->
      <defs>
       <path d="M 31.78125 66.40625 
Q 24.171875 66.40625 20.328125 58.90625 
Q 16.5 51.421875 16.5 36.375 
Q 16.5 21.390625 20.328125 13.890625 
Q 24.171875 6.390625 31.78125 6.390625 
Q 39.453125 6.390625 43.28125 13.890625 
Q 47.125 21.390625 47.125 36.375 
Q 47.125 51.421875 43.28125 58.90625 
Q 39.453125 66.40625 31.78125 66.40625 
z
M 31.78125 74.21875 
Q 44.046875 74.21875 50.515625 64.515625 
Q 56.984375 54.828125 56.984375 36.375 
Q 56.984375 17.96875 50.515625 8.265625 
Q 44.046875 -1.421875 31.78125 -1.421875 
Q 19.53125 -1.421875 13.0625 8.265625 
Q 6.59375 17.96875 6.59375 36.375 
Q 6.59375 54.828125 13.0625 64.515625 
Q 19.53125 74.21875 31.78125 74.21875 
z
" id="DejaVuSans-48"/>
      </defs>
      <g transform="translate(100.70579 368.855781)scale(0.18 -0.18)">
       <use xlink:href="#DejaVuSans-48"/>
      </g>
     </g>
    </g>
    <g id="xtick_2">
     <g id="line2d_2">
      <g>
       <use style="fill:#525252;stroke:#525252;stroke-width:4;" x="192.416541" xlink:href="#m43a6dff1e2" y="346.678594"/>
      </g>
     </g>
     <g id="text_2">
      <!-- 10000 -->
      <defs>
       <path d="M 12.40625 8.296875 
L 28.515625 8.296875 
L 28.515625 63.921875 
L 10.984375 60.40625 
L 10.984375 69.390625 
L 28.421875 72.90625 
L 38.28125 72.90625 
L 38.28125 8.296875 
L 54.390625 8.296875 
L 54.390625 0 
L 12.40625 0 
z
" id="DejaVuSans-49"/>
      </defs>
      <g transform="translate(163.785291 368.855781)scale(0.18 -0.18)">
       <use xlink:href="#DejaVuSans-49"/>
       <use x="63.623047" xlink:href="#DejaVuSans-48"/>
       <use x="127.246094" xlink:href="#DejaVuSans-48"/>
       <use x="190.869141" xlink:href="#DejaVuSans-48"/>
       <use x="254.492188" xlink:href="#DejaVuSans-48"/>
      </g>
     </g>
    </g>
    <g id="xtick_3">
     <g id="line2d_3">
      <g>
       <use style="fill:#525252;stroke:#525252;stroke-width:4;" x="278.401042" xlink:href="#m43a6dff1e2" y="346.678594"/>
      </g>
     </g>
     <g id="text_3">
      <!-- 20000 -->
      <defs>
       <path d="M 19.1875 8.296875 
L 53.609375 8.296875 
L 53.609375 0 
L 7.328125 0 
L 7.328125 8.296875 
Q 12.9375 14.109375 22.625 23.890625 
Q 32.328125 33.6875 34.8125 36.53125 
Q 39.546875 41.84375 41.421875 45.53125 
Q 43.3125 49.21875 43.3125 52.78125 
Q 43.3125 58.59375 39.234375 62.25 
Q 35.15625 65.921875 28.609375 65.921875 
Q 23.96875 65.921875 18.8125 64.3125 
Q 13.671875 62.703125 7.8125 59.421875 
L 7.8125 69.390625 
Q 13.765625 71.78125 18.9375 73 
Q 24.125 74.21875 28.421875 74.21875 
Q 39.75 74.21875 46.484375 68.546875 
Q 53.21875 62.890625 53.21875 53.421875 
Q 53.21875 48.921875 51.53125 44.890625 
Q 49.859375 40.875 45.40625 35.40625 
Q 44.1875 33.984375 37.640625 27.21875 
Q 31.109375 20.453125 19.1875 8.296875 
z
" id="DejaVuSans-50"/>
      </defs>
      <g transform="translate(249.769792 368.855781)scale(0.18 -0.18)">
       <use xlink:href="#DejaVuSans-50"/>
       <use x="63.623047" xlink:href="#DejaVuSans-48"/>
       <use x="127.246094" xlink:href="#DejaVuSans-48"/>
       <use x="190.869141" xlink:href="#DejaVuSans-48"/>
       <use x="254.492188" xlink:href="#DejaVuSans-48"/>
      </g>
     </g>
    </g>
    <g id="xtick_4">
     <g id="line2d_4">
      <g>
       <use style="fill:#525252;stroke:#525252;stroke-width:4;" x="364.385542" xlink:href="#m43a6dff1e2" y="346.678594"/>
      </g>
     </g>
     <g id="text_4">
      <!-- 30000 -->
      <defs>
       <path d="M 40.578125 39.3125 
Q 47.65625 37.796875 51.625 33 
Q 55.609375 28.21875 55.609375 21.1875 
Q 55.609375 10.40625 48.1875 4.484375 
Q 40.765625 -1.421875 27.09375 -1.421875 
Q 22.515625 -1.421875 17.65625 -0.515625 
Q 12.796875 0.390625 7.625 2.203125 
L 7.625 11.71875 
Q 11.71875 9.328125 16.59375 8.109375 
Q 21.484375 6.890625 26.8125 6.890625 
Q 36.078125 6.890625 40.9375 10.546875 
Q 45.796875 14.203125 45.796875 21.1875 
Q 45.796875 27.640625 41.28125 31.265625 
Q 36.765625 34.90625 28.71875 34.90625 
L 20.21875 34.90625 
L 20.21875 43.015625 
L 29.109375 43.015625 
Q 36.375 43.015625 40.234375 45.921875 
Q 44.09375 48.828125 44.09375 54.296875 
Q 44.09375 59.90625 40.109375 62.90625 
Q 36.140625 65.921875 28.71875 65.921875 
Q 24.65625 65.921875 20.015625 65.03125 
Q 15.375 64.15625 9.8125 62.3125 
L 9.8125 71.09375 
Q 15.4375 72.65625 20.34375 73.4375 
Q 25.25 74.21875 29.59375 74.21875 
Q 40.828125 74.21875 47.359375 69.109375 
Q 53.90625 64.015625 53.90625 55.328125 
Q 53.90625 49.265625 50.4375 45.09375 
Q 46.96875 40.921875 40.578125 39.3125 
z
" id="DejaVuSans-51"/>
      </defs>
      <g transform="translate(335.754292 368.855781)scale(0.18 -0.18)">
       <use xlink:href="#DejaVuSans-51"/>
       <use x="63.623047" xlink:href="#DejaVuSans-48"/>
       <use x="127.246094" xlink:href="#DejaVuSans-48"/>
       <use x="190.869141" xlink:href="#DejaVuSans-48"/>
       <use x="254.492188" xlink:href="#DejaVuSans-48"/>
      </g>
     </g>
    </g>
    <g id="xtick_5">
     <g id="line2d_5">
      <g>
       <use style="fill:#525252;stroke:#525252;stroke-width:4;" x="450.370043" xlink:href="#m43a6dff1e2" y="346.678594"/>
      </g>
     </g>
     <g id="text_5">
      <!-- 40000 -->
      <defs>
       <path d="M 37.796875 64.3125 
L 12.890625 25.390625 
L 37.796875 25.390625 
z
M 35.203125 72.90625 
L 47.609375 72.90625 
L 47.609375 25.390625 
L 58.015625 25.390625 
L 58.015625 17.1875 
L 47.609375 17.1875 
L 47.609375 0 
L 37.796875 0 
L 37.796875 17.1875 
L 4.890625 17.1875 
L 4.890625 26.703125 
z
" id="DejaVuSans-52"/>
      </defs>
      <g transform="translate(421.738793 368.855781)scale(0.18 -0.18)">
       <use xlink:href="#DejaVuSans-52"/>
       <use x="63.623047" xlink:href="#DejaVuSans-48"/>
       <use x="127.246094" xlink:href="#DejaVuSans-48"/>
       <use x="190.869141" xlink:href="#DejaVuSans-48"/>
       <use x="254.492188" xlink:href="#DejaVuSans-48"/>
      </g>
     </g>
    </g>
    <g id="xtick_6">
     <g id="line2d_6">
      <g>
       <use style="fill:#525252;stroke:#525252;stroke-width:4;" x="536.354544" xlink:href="#m43a6dff1e2" y="346.678594"/>
      </g>
     </g>
     <g id="text_6">
      <!-- 50000 -->
      <defs>
       <path d="M 10.796875 72.90625 
L 49.515625 72.90625 
L 49.515625 64.59375 
L 19.828125 64.59375 
L 19.828125 46.734375 
Q 21.96875 47.46875 24.109375 47.828125 
Q 26.265625 48.1875 28.421875 48.1875 
Q 40.625 48.1875 47.75 41.5 
Q 54.890625 34.8125 54.890625 23.390625 
Q 54.890625 11.625 47.5625 5.09375 
Q 40.234375 -1.421875 26.90625 -1.421875 
Q 22.3125 -1.421875 17.546875 -0.640625 
Q 12.796875 0.140625 7.71875 1.703125 
L 7.71875 11.625 
Q 12.109375 9.234375 16.796875 8.0625 
Q 21.484375 6.890625 26.703125 6.890625 
Q 35.15625 6.890625 40.078125 11.328125 
Q 45.015625 15.765625 45.015625 23.390625 
Q 45.015625 31 40.078125 35.4375 
Q 35.15625 39.890625 26.703125 39.890625 
Q 22.75 39.890625 18.8125 39.015625 
Q 14.890625 38.140625 10.796875 36.28125 
z
" id="DejaVuSans-53"/>
      </defs>
      <g transform="translate(507.723294 368.855781)scale(0.18 -0.18)">
       <use xlink:href="#DejaVuSans-53"/>
       <use x="63.623047" xlink:href="#DejaVuSans-48"/>
       <use x="127.246094" xlink:href="#DejaVuSans-48"/>
       <use x="190.869141" xlink:href="#DejaVuSans-48"/>
       <use x="254.492188" xlink:href="#DejaVuSans-48"/>
      </g>
     </g>
    </g>
    <g id="xtick_7">
     <g id="line2d_7">
      <g>
       <use style="fill:#525252;stroke:#525252;stroke-width:4;" x="622.339044" xlink:href="#m43a6dff1e2" y="346.678594"/>
      </g>
     </g>
     <g id="text_7">
      <!-- 60000 -->
      <defs>
       <path d="M 33.015625 40.375 
Q 26.375 40.375 22.484375 35.828125 
Q 18.609375 31.296875 18.609375 23.390625 
Q 18.609375 15.53125 22.484375 10.953125 
Q 26.375 6.390625 33.015625 6.390625 
Q 39.65625 6.390625 43.53125 10.953125 
Q 47.40625 15.53125 47.40625 23.390625 
Q 47.40625 31.296875 43.53125 35.828125 
Q 39.65625 40.375 33.015625 40.375 
z
M 52.59375 71.296875 
L 52.59375 62.3125 
Q 48.875 64.0625 45.09375 64.984375 
Q 41.3125 65.921875 37.59375 65.921875 
Q 27.828125 65.921875 22.671875 59.328125 
Q 17.53125 52.734375 16.796875 39.40625 
Q 19.671875 43.65625 24.015625 45.921875 
Q 28.375 48.1875 33.59375 48.1875 
Q 44.578125 48.1875 50.953125 41.515625 
Q 57.328125 34.859375 57.328125 23.390625 
Q 57.328125 12.15625 50.6875 5.359375 
Q 44.046875 -1.421875 33.015625 -1.421875 
Q 20.359375 -1.421875 13.671875 8.265625 
Q 6.984375 17.96875 6.984375 36.375 
Q 6.984375 53.65625 15.1875 63.9375 
Q 23.390625 74.21875 37.203125 74.21875 
Q 40.921875 74.21875 44.703125 73.484375 
Q 48.484375 72.75 52.59375 71.296875 
z
" id="DejaVuSans-54"/>
      </defs>
      <g transform="translate(593.707794 368.855781)scale(0.18 -0.18)">
       <use xlink:href="#DejaVuSans-54"/>
       <use x="63.623047" xlink:href="#DejaVuSans-48"/>
       <use x="127.246094" xlink:href="#DejaVuSans-48"/>
       <use x="190.869141" xlink:href="#DejaVuSans-48"/>
       <use x="254.492188" xlink:href="#DejaVuSans-48"/>
      </g>
     </g>
    </g>
    <g id="xtick_8">
     <g id="line2d_8">
      <g>
       <use style="fill:#525252;stroke:#525252;stroke-width:4;" x="708.323545" xlink:href="#m43a6dff1e2" y="346.678594"/>
      </g>
     </g>
     <g id="text_8">
      <!-- 70000 -->
      <defs>
       <path d="M 8.203125 72.90625 
L 55.078125 72.90625 
L 55.078125 68.703125 
L 28.609375 0 
L 18.3125 0 
L 43.21875 64.59375 
L 8.203125 64.59375 
z
" id="DejaVuSans-55"/>
      </defs>
      <g transform="translate(679.692295 368.855781)scale(0.18 -0.18)">
       <use xlink:href="#DejaVuSans-55"/>
       <use x="63.623047" xlink:href="#DejaVuSans-48"/>
       <use x="127.246094" xlink:href="#DejaVuSans-48"/>
       <use x="190.869141" xlink:href="#DejaVuSans-48"/>
       <use x="254.492188" xlink:href="#DejaVuSans-48"/>
      </g>
     </g>
    </g>
    <g id="text_9">
     <!-- Time (ms) -->
     <defs>
      <path d="M -0.296875 72.90625 
L 61.375 72.90625 
L 61.375 64.59375 
L 35.5 64.59375 
L 35.5 0 
L 25.59375 0 
L 25.59375 64.59375 
L -0.296875 64.59375 
z
" id="DejaVuSans-84"/>
      <path d="M 9.421875 54.6875 
L 18.40625 54.6875 
L 18.40625 0 
L 9.421875 0 
z
M 9.421875 75.984375 
L 18.40625 75.984375 
L 18.40625 64.59375 
L 9.421875 64.59375 
z
" id="DejaVuSans-105"/>
      <path d="M 52 44.1875 
Q 55.375 50.25 60.0625 53.125 
Q 64.75 56 71.09375 56 
Q 79.640625 56 84.28125 50.015625 
Q 88.921875 44.046875 88.921875 33.015625 
L 88.921875 0 
L 79.890625 0 
L 79.890625 32.71875 
Q 79.890625 40.578125 77.09375 44.375 
Q 74.3125 48.1875 68.609375 48.1875 
Q 61.625 48.1875 57.5625 43.546875 
Q 53.515625 38.921875 53.515625 30.90625 
L 53.515625 0 
L 44.484375 0 
L 44.484375 32.71875 
Q 44.484375 40.625 41.703125 44.40625 
Q 38.921875 48.1875 33.109375 48.1875 
Q 26.21875 48.1875 22.15625 43.53125 
Q 18.109375 38.875 18.109375 30.90625 
L 18.109375 0 
L 9.078125 0 
L 9.078125 54.6875 
L 18.109375 54.6875 
L 18.109375 46.1875 
Q 21.1875 51.21875 25.484375 53.609375 
Q 29.78125 56 35.6875 56 
Q 41.65625 56 45.828125 52.96875 
Q 50 49.953125 52 44.1875 
z
" id="DejaVuSans-109"/>
      <path d="M 56.203125 29.59375 
L 56.203125 25.203125 
L 14.890625 25.203125 
Q 15.484375 15.921875 20.484375 11.0625 
Q 25.484375 6.203125 34.421875 6.203125 
Q 39.59375 6.203125 44.453125 7.46875 
Q 49.3125 8.734375 54.109375 11.28125 
L 54.109375 2.78125 
Q 49.265625 0.734375 44.1875 -0.34375 
Q 39.109375 -1.421875 33.890625 -1.421875 
Q 20.796875 -1.421875 13.15625 6.1875 
Q 5.515625 13.8125 5.515625 26.8125 
Q 5.515625 40.234375 12.765625 48.109375 
Q 20.015625 56 32.328125 56 
Q 43.359375 56 49.78125 48.890625 
Q 56.203125 41.796875 56.203125 29.59375 
z
M 47.21875 32.234375 
Q 47.125 39.59375 43.09375 43.984375 
Q 39.0625 48.390625 32.421875 48.390625 
Q 24.90625 48.390625 20.390625 44.140625 
Q 15.875 39.890625 15.1875 32.171875 
z
" id="DejaVuSans-101"/>
      <path id="DejaVuSans-32"/>
      <path d="M 31 75.875 
Q 24.46875 64.65625 21.28125 53.65625 
Q 18.109375 42.671875 18.109375 31.390625 
Q 18.109375 20.125 21.3125 9.0625 
Q 24.515625 -2 31 -13.1875 
L 23.1875 -13.1875 
Q 15.875 -1.703125 12.234375 9.375 
Q 8.59375 20.453125 8.59375 31.390625 
Q 8.59375 42.28125 12.203125 53.3125 
Q 15.828125 64.359375 23.1875 75.875 
z
" id="DejaVuSans-40"/>
      <path d="M 44.28125 53.078125 
L 44.28125 44.578125 
Q 40.484375 46.53125 36.375 47.5 
Q 32.28125 48.484375 27.875 48.484375 
Q 21.1875 48.484375 17.84375 46.4375 
Q 14.5 44.390625 14.5 40.28125 
Q 14.5 37.15625 16.890625 35.375 
Q 19.28125 33.59375 26.515625 31.984375 
L 29.59375 31.296875 
Q 39.15625 29.25 43.1875 25.515625 
Q 47.21875 21.78125 47.21875 15.09375 
Q 47.21875 7.46875 41.1875 3.015625 
Q 35.15625 -1.421875 24.609375 -1.421875 
Q 20.21875 -1.421875 15.453125 -0.5625 
Q 10.6875 0.296875 5.421875 2 
L 5.421875 11.28125 
Q 10.40625 8.6875 15.234375 7.390625 
Q 20.0625 6.109375 24.8125 6.109375 
Q 31.15625 6.109375 34.5625 8.28125 
Q 37.984375 10.453125 37.984375 14.40625 
Q 37.984375 18.0625 35.515625 20.015625 
Q 33.0625 21.96875 24.703125 23.78125 
L 21.578125 24.515625 
Q 13.234375 26.265625 9.515625 29.90625 
Q 5.8125 33.546875 5.8125 39.890625 
Q 5.8125 47.609375 11.28125 51.796875 
Q 16.75 56 26.8125 56 
Q 31.78125 56 36.171875 55.265625 
Q 40.578125 54.546875 44.28125 53.078125 
z
" id="DejaVuSans-115"/>
      <path d="M 8.015625 75.875 
L 15.828125 75.875 
Q 23.140625 64.359375 26.78125 53.3125 
Q 30.421875 42.28125 30.421875 31.390625 
Q 30.421875 20.453125 26.78125 9.375 
Q 23.140625 -1.703125 15.828125 -13.1875 
L 8.015625 -13.1875 
Q 14.5 -2 17.703125 9.0625 
Q 20.90625 20.125 20.90625 31.390625 
Q 20.90625 42.671875 17.703125 53.65625 
Q 14.5 64.65625 8.015625 75.875 
z
" id="DejaVuSans-41"/>
     </defs>
     <g transform="translate(361.138438 391.796094)scale(0.2 -0.2)">
      <use xlink:href="#DejaVuSans-84"/>
      <use x="61.037109" xlink:href="#DejaVuSans-105"/>
      <use x="88.820312" xlink:href="#DejaVuSans-109"/>
      <use x="186.232422" xlink:href="#DejaVuSans-101"/>
      <use x="247.755859" xlink:href="#DejaVuSans-32"/>
      <use x="279.542969" xlink:href="#DejaVuSans-40"/>
      <use x="318.556641" xlink:href="#DejaVuSans-109"/>
      <use x="415.96875" xlink:href="#DejaVuSans-115"/>
      <use x="468.068359" xlink:href="#DejaVuSans-41"/>
     </g>
    </g>
   </g>
   <g id="matplotlib.axis_2">
    <g id="ytick_1">
     <g id="line2d_9">
      <defs>
       <path d="M 5 0 
L -5 -0 
" id="m518f350a1a" style="stroke:#525252;stroke-width:4;"/>
      </defs>
      <g>
       <use style="fill:#525252;stroke:#525252;stroke-width:4;" x="77.044688" xlink:href="#m518f350a1a" y="346.678594"/>
      </g>
     </g>
     <g id="text_10">
      <!-- −10 -->
      <defs>
       <path d="M 10.59375 35.5 
L 73.1875 35.5 
L 73.1875 27.203125 
L 10.59375 27.203125 
z
" id="DejaVuSans-8722"/>
      </defs>
      <g transform="translate(30.55625 353.517187)scale(0.18 -0.18)">
       <use xlink:href="#DejaVuSans-8722"/>
       <use x="83.789062" xlink:href="#DejaVuSans-49"/>
       <use x="147.412109" xlink:href="#DejaVuSans-48"/>
      </g>
     </g>
    </g>
    <g id="ytick_2">
     <g id="line2d_10">
      <g>
       <use style="fill:#525252;stroke:#525252;stroke-width:4;" x="77.044688" xlink:href="#m518f350a1a" y="299.158594"/>
      </g>
     </g>
     <g id="text_11">
      <!-- −5 -->
      <g transform="translate(42.00875 305.997187)scale(0.18 -0.18)">
       <use xlink:href="#DejaVuSans-8722"/>
       <use x="83.789062" xlink:href="#DejaVuSans-53"/>
      </g>
     </g>
    </g>
    <g id="ytick_3">
     <g id="line2d_11">
      <g>
       <use style="fill:#525252;stroke:#525252;stroke-width:4;" x="77.044688" xlink:href="#m518f350a1a" y="251.638594"/>
      </g>
     </g>
     <g id="text_12">
      <!-- 0 -->
      <g transform="translate(57.092188 258.477187)scale(0.18 -0.18)">
       <use xlink:href="#DejaVuSans-48"/>
      </g>
     </g>
    </g>
    <g id="ytick_4">
     <g id="line2d_12">
      <g>
       <use style="fill:#525252;stroke:#525252;stroke-width:4;" x="77.044688" xlink:href="#m518f350a1a" y="204.118594"/>
      </g>
     </g>
     <g id="text_13">
      <!-- 5 -->
      <g transform="translate(57.092188 210.957187)scale(0.18 -0.18)">
       <use xlink:href="#DejaVuSans-53"/>
      </g>
     </g>
    </g>
    <g id="ytick_5">
     <g id="line2d_13">
      <g>
       <use style="fill:#525252;stroke:#525252;stroke-width:4;" x="77.044688" xlink:href="#m518f350a1a" y="156.598594"/>
      </g>
     </g>
     <g id="text_14">
      <!-- 10 -->
      <g transform="translate(45.639688 163.437187)scale(0.18 -0.18)">
       <use xlink:href="#DejaVuSans-49"/>
       <use x="63.623047" xlink:href="#DejaVuSans-48"/>
      </g>
     </g>
    </g>
    <g id="ytick_6">
     <g id="line2d_14">
      <g>
       <use style="fill:#525252;stroke:#525252;stroke-width:4;" x="77.044688" xlink:href="#m518f350a1a" y="109.078594"/>
      </g>
     </g>
     <g id="text_15">
      <!-- 15 -->
      <g transform="translate(45.639688 115.917187)scale(0.18 -0.18)">
       <use xlink:href="#DejaVuSans-49"/>
       <use x="63.623047" xlink:href="#DejaVuSans-53"/>
      </g>
     </g>
    </g>
    <g id="ytick_7">
     <g id="line2d_15">
      <g>
       <use style="fill:#525252;stroke:#525252;stroke-width:4;" x="77.044688" xlink:href="#m518f350a1a" y="61.558594"/>
      </g>
     </g>
     <g id="text_16">
      <!-- 20 -->
      <g transform="translate(45.639688 68.397187)scale(0.18 -0.18)">
       <use xlink:href="#DejaVuSans-50"/>
       <use x="63.623047" xlink:href="#DejaVuSans-48"/>
      </g>
     </g>
    </g>
    <g id="ytick_8">
     <g id="line2d_16">
      <g>
       <use style="fill:#525252;stroke:#525252;stroke-width:4;" x="77.044688" xlink:href="#m518f350a1a" y="14.038594"/>
      </g>
     </g>
     <g id="text_17">
      <!-- 25 -->
      <g transform="translate(45.639688 20.877187)scale(0.18 -0.18)">
       <use xlink:href="#DejaVuSans-50"/>
       <use x="63.623047" xlink:href="#DejaVuSans-53"/>
      </g>
     </g>
    </g>
    <g id="text_18">
     <!-- Acceleration -->
     <defs>
      <path d="M 34.1875 63.1875 
L 20.796875 26.90625 
L 47.609375 26.90625 
z
M 28.609375 72.90625 
L 39.796875 72.90625 
L 67.578125 0 
L 57.328125 0 
L 50.6875 18.703125 
L 17.828125 18.703125 
L 11.1875 0 
L 0.78125 0 
z
" id="DejaVuSans-65"/>
      <path d="M 48.78125 52.59375 
L 48.78125 44.1875 
Q 44.96875 46.296875 41.140625 47.34375 
Q 37.3125 48.390625 33.40625 48.390625 
Q 24.65625 48.390625 19.8125 42.84375 
Q 14.984375 37.3125 14.984375 27.296875 
Q 14.984375 17.28125 19.8125 11.734375 
Q 24.65625 6.203125 33.40625 6.203125 
Q 37.3125 6.203125 41.140625 7.25 
Q 44.96875 8.296875 48.78125 10.40625 
L 48.78125 2.09375 
Q 45.015625 0.34375 40.984375 -0.53125 
Q 36.96875 -1.421875 32.421875 -1.421875 
Q 20.0625 -1.421875 12.78125 6.34375 
Q 5.515625 14.109375 5.515625 27.296875 
Q 5.515625 40.671875 12.859375 48.328125 
Q 20.21875 56 33.015625 56 
Q 37.15625 56 41.109375 55.140625 
Q 45.0625 54.296875 48.78125 52.59375 
z
" id="DejaVuSans-99"/>
      <path d="M 9.421875 75.984375 
L 18.40625 75.984375 
L 18.40625 0 
L 9.421875 0 
z
" id="DejaVuSans-108"/>
      <path d="M 41.109375 46.296875 
Q 39.59375 47.171875 37.8125 47.578125 
Q 36.03125 48 33.890625 48 
Q 26.265625 48 22.1875 43.046875 
Q 18.109375 38.09375 18.109375 28.8125 
L 18.109375 0 
L 9.078125 0 
L 9.078125 54.6875 
L 18.109375 54.6875 
L 18.109375 46.1875 
Q 20.953125 51.171875 25.484375 53.578125 
Q 30.03125 56 36.53125 56 
Q 37.453125 56 38.578125 55.875 
Q 39.703125 55.765625 41.0625 55.515625 
z
" id="DejaVuSans-114"/>
      <path d="M 34.28125 27.484375 
Q 23.390625 27.484375 19.1875 25 
Q 14.984375 22.515625 14.984375 16.5 
Q 14.984375 11.71875 18.140625 8.90625 
Q 21.296875 6.109375 26.703125 6.109375 
Q 34.1875 6.109375 38.703125 11.40625 
Q 43.21875 16.703125 43.21875 25.484375 
L 43.21875 27.484375 
z
M 52.203125 31.203125 
L 52.203125 0 
L 43.21875 0 
L 43.21875 8.296875 
Q 40.140625 3.328125 35.546875 0.953125 
Q 30.953125 -1.421875 24.3125 -1.421875 
Q 15.921875 -1.421875 10.953125 3.296875 
Q 6 8.015625 6 15.921875 
Q 6 25.140625 12.171875 29.828125 
Q 18.359375 34.515625 30.609375 34.515625 
L 43.21875 34.515625 
L 43.21875 35.40625 
Q 43.21875 41.609375 39.140625 45 
Q 35.0625 48.390625 27.6875 48.390625 
Q 23 48.390625 18.546875 47.265625 
Q 14.109375 46.140625 10.015625 43.890625 
L 10.015625 52.203125 
Q 14.9375 54.109375 19.578125 55.046875 
Q 24.21875 56 28.609375 56 
Q 40.484375 56 46.34375 49.84375 
Q 52.203125 43.703125 52.203125 31.203125 
z
" id="DejaVuSans-97"/>
      <path d="M 18.3125 70.21875 
L 18.3125 54.6875 
L 36.8125 54.6875 
L 36.8125 47.703125 
L 18.3125 47.703125 
L 18.3125 18.015625 
Q 18.3125 11.328125 20.140625 9.421875 
Q 21.96875 7.515625 27.59375 7.515625 
L 36.8125 7.515625 
L 36.8125 0 
L 27.59375 0 
Q 17.1875 0 13.234375 3.875 
Q 9.28125 7.765625 9.28125 18.015625 
L 9.28125 47.703125 
L 2.6875 47.703125 
L 2.6875 54.6875 
L 9.28125 54.6875 
L 9.28125 70.21875 
z
" id="DejaVuSans-116"/>
      <path d="M 30.609375 48.390625 
Q 23.390625 48.390625 19.1875 42.75 
Q 14.984375 37.109375 14.984375 27.296875 
Q 14.984375 17.484375 19.15625 11.84375 
Q 23.34375 6.203125 30.609375 6.203125 
Q 37.796875 6.203125 41.984375 11.859375 
Q 46.1875 17.53125 46.1875 27.296875 
Q 46.1875 37.015625 41.984375 42.703125 
Q 37.796875 48.390625 30.609375 48.390625 
z
M 30.609375 56 
Q 42.328125 56 49.015625 48.375 
Q 55.71875 40.765625 55.71875 27.296875 
Q 55.71875 13.875 49.015625 6.21875 
Q 42.328125 -1.421875 30.609375 -1.421875 
Q 18.84375 -1.421875 12.171875 6.21875 
Q 5.515625 13.875 5.515625 27.296875 
Q 5.515625 40.765625 12.171875 48.375 
Q 18.84375 56 30.609375 56 
z
" id="DejaVuSans-111"/>
      <path d="M 54.890625 33.015625 
L 54.890625 0 
L 45.90625 0 
L 45.90625 32.71875 
Q 45.90625 40.484375 42.875 44.328125 
Q 39.84375 48.1875 33.796875 48.1875 
Q 26.515625 48.1875 22.3125 43.546875 
Q 18.109375 38.921875 18.109375 30.90625 
L 18.109375 0 
L 9.078125 0 
L 9.078125 54.6875 
L 18.109375 54.6875 
L 18.109375 46.1875 
Q 21.34375 51.125 25.703125 53.5625 
Q 30.078125 56 35.796875 56 
Q 45.21875 56 50.046875 50.171875 
Q 54.890625 44.34375 54.890625 33.015625 
z
" id="DejaVuSans-110"/>
     </defs>
     <g transform="translate(22.396875 242.672656)rotate(-90)scale(0.2 -0.2)">
      <use xlink:href="#DejaVuSans-65"/>
      <use x="68.392578" xlink:href="#DejaVuSans-99"/>
      <use x="123.373047" xlink:href="#DejaVuSans-99"/>
      <use x="178.353516" xlink:href="#DejaVuSans-101"/>
      <use x="239.876953" xlink:href="#DejaVuSans-108"/>
      <use x="267.660156" xlink:href="#DejaVuSans-101"/>
      <use x="329.183594" xlink:href="#DejaVuSans-114"/>
      <use x="370.296875" xlink:href="#DejaVuSans-97"/>
      <use x="431.576172" xlink:href="#DejaVuSans-116"/>
      <use x="470.785156" xlink:href="#DejaVuSans-105"/>
      <use x="498.568359" xlink:href="#DejaVuSans-111"/>
      <use x="559.75" xlink:href="#DejaVuSans-110"/>
     </g>
    </g>
   </g>
   <g id="line2d_17">
    <path clip-path="url(#pafb03812f7)" d="M 107.481051 250.466337 
L 108.014155 249.736522 
L 108.590251 246.948144 
L 109.192143 234.797362 
L 109.733845 240.263152 
L 110.309941 223.41623 
L 110.911833 228.502173 
L 111.453535 240.305831 
L 112.029631 202.100791 
L 112.631523 170.727275 
L 113.173225 160.646437 
L 113.749321 140.158975 
L 114.351213 137.438884 
L 114.892915 128.957095 
L 115.469011 130.617318 
L 116.612605 169.348736 
L 117.188701 176.625547 
L 117.790593 171.20386 
L 118.332295 169.860887 
L 118.908391 172.047487 
L 119.510283 173.636577 
L 120.051985 173.031955 
L 120.628081 171.310558 
L 121.229973 172.983585 
L 121.771675 170.434211 
L 122.949663 168.983117 
L 123.491365 169.654604 
L 124.067461 169.024373 
L 124.669353 169.710087 
L 125.211055 171.00469 
L 125.787151 170.677483 
L 126.380444 172.387498 
L 127.506841 170.862426 
L 128.108733 169.46966 
L 128.650435 168.929056 
L 129.226531 169.377188 
L 129.819824 170.432788 
L 130.370125 171.118502 
L 130.946221 170.562249 
L 131.548113 170.82117 
L 132.089815 171.193902 
L 132.665911 170.852468 
L 133.267803 169.912102 
L 133.809505 171.846894 
L 134.385601 170.307596 
L 134.987493 171.536758 
L 135.529195 171.159758 
L 136.105291 170.97766 
L 136.707183 170.944939 
L 137.248885 170.687441 
L 137.824981 170.246422 
L 138.426873 170.114117 
L 138.968575 168.863615 
L 139.544671 170.831128 
L 140.137965 172.265151 
L 140.688265 170.604928 
L 141.264361 173.477242 
L 141.866253 171.610736 
L 142.407955 172.6578 
L 142.984051 170.842509 
L 143.585943 170.182404 
L 144.127645 171.213819 
L 144.703741 171.108543 
L 145.305633 170.509611 
L 145.847335 171.064441 
L 146.423432 173.946713 
L 147.025323 170.346007 
L 147.567025 171.713166 
L 148.143122 172.751694 
L 148.745013 171.579438 
L 149.286715 172.585245 
L 149.862812 171.879615 
L 150.464703 172.212513 
L 151.582502 171.3006 
L 152.184393 171.744464 
L 152.726095 172.686253 
L 153.302192 172.176947 
L 153.912682 171.798524 
L 154.445785 170.200898 
L 155.021882 167.135105 
L 155.623773 166.318509 
L 156.165475 171.407298 
L 156.741572 170.12123 
L 157.343463 172.014766 
L 157.885165 170.165332 
L 158.461262 170.297638 
L 159.063153 167.995803 
L 159.604855 170.021645 
L 160.782843 177.045227 
L 161.324545 175.702253 
L 161.900642 167.422479 
L 163.044235 173.795913 
L 163.620332 178.810725 
L 164.763926 157.84241 
L 165.340022 141.032477 
L 166.483616 165.861841 
L 167.059712 170.410026 
L 168.203306 187.540054 
L 168.779402 188.900099 
L 169.372695 189.201699 
L 169.922996 183.213801 
L 170.499092 167.510683 
L 171.100983 154.945912 
L 171.642686 175.525845 
L 172.218782 169.611924 
L 172.820673 170.889456 
L 173.362376 181.784046 
L 173.938472 177.362476 
L 175.082066 175.902845 
L 175.658162 164.24003 
L 176.251455 138.581266 
L 176.801756 147.282142 
L 177.377852 154.171995 
L 178.521446 192.031333 
L 179.097542 196.169798 
L 179.690835 195.768613 
L 180.241136 186.936854 
L 180.817232 172.104392 
L 181.410525 160.499905 
L 181.960826 171.916604 
L 182.536922 171.358928 
L 183.130215 172.28649 
L 183.680516 173.4118 
L 184.256612 166.760951 
L 184.849905 167.472271 
L 185.400206 165.858996 
L 186.569595 137.488677 
L 187.119896 148.539757 
L 187.695992 166.913173 
L 188.297883 175.338057 
L 189.415682 196.8925 
L 190.017573 204.156508 
L 190.559276 196.346205 
L 191.135372 174.889925 
L 191.728665 148.627961 
L 192.278966 153.733821 
L 192.855062 166.578852 
L 193.448355 173.925374 
L 193.998656 176.912921 
L 194.574752 168.074049 
L 195.168045 166.50203 
L 195.718346 167.160713 
L 196.887735 144.082621 
L 197.438036 160.794392 
L 198.014132 170.895147 
L 198.607425 171.669064 
L 199.157726 180.055536 
L 199.733822 190.974311 
L 200.327115 199.979632 
L 200.877416 191.120843 
L 201.453512 166.063856 
L 202.055403 151.086285 
L 202.597106 172.275109 
L 203.173202 170.708781 
L 203.766495 169.893607 
L 204.316796 173.482932 
L 204.892892 174.050566 
L 206.036486 166.079505 
L 207.205875 134.045884 
L 207.756176 148.531221 
L 208.332272 154.854863 
L 208.934164 176.740781 
L 209.475866 190.992805 
L 210.051962 200.040806 
L 210.645255 202.319877 
L 211.195556 192.425405 
L 211.771652 172.440136 
L 212.356347 143.321507 
L 212.915246 161.399014 
L 213.491342 162.642403 
L 214.084635 165.984188 
L 215.211032 179.661465 
L 215.804325 181.865136 
L 216.354626 170.592124 
L 216.930722 147.275029 
L 217.524015 144.123877 
L 218.074316 149.003538 
L 218.650412 173.344936 
L 219.243705 189.052322 
L 219.794006 196.549643 
L 220.370102 200.063568 
L 220.971994 190.978579 
L 221.513696 171.445709 
L 222.089792 157.657467 
L 222.683085 173.396151 
L 223.233386 159.558116 
L 224.953076 184.223876 
L 225.529172 183.375982 
L 226.122465 173.620928 
L 226.672766 156.345791 
L 227.248862 126.336589 
L 228.392456 161.77886 
L 228.968552 178.012623 
L 230.112146 202.373938 
L 230.688242 200.346673 
L 231.831836 164.527403 
L 232.407932 157.462565 
L 233.009824 163.047856 
L 233.551526 165.890294 
L 234.127622 181.619019 
L 234.729514 188.779175 
L 235.271216 182.781318 
L 236.449204 155.106671 
L 236.990906 137.430349 
L 238.160295 153.928723 
L 239.286692 182.853872 
L 239.879985 194.21082 
L 240.430286 195.205247 
L 241.006382 185.18985 
L 241.608274 171.008958 
L 242.149976 151.863048 
L 242.726072 169.37292 
L 243.319365 167.317203 
L 243.869666 179.675691 
L 244.445762 181.923465 
L 245.047654 178.83491 
L 245.589356 168.16652 
L 246.165452 161.370561 
L 246.767344 156.266123 
L 247.309046 130.751046 
L 247.885142 145.650372 
L 248.478435 157.421308 
L 249.028736 174.06337 
L 249.604832 178.110785 
L 250.206724 186.379178 
L 250.748426 189.952854 
L 251.324522 186.713499 
L 251.926414 163.451886 
L 252.468116 158.060074 
L 253.044212 168.96889 
L 253.646104 169.335932 
L 254.187806 170.357388 
L 254.755304 170.755728 
L 255.365794 165.547437 
L 255.907496 163.231377 
L 256.483592 153.661267 
L 257.085484 131.786729 
L 257.627186 136.313575 
L 258.203282 165.159056 
L 258.805174 176.358091 
L 259.346876 179.288732 
L 259.922972 186.252563 
L 260.524864 188.848884 
L 261.066566 183.959265 
L 262.244554 140.864605 
L 262.786256 163.79332 
L 263.362352 160.990716 
L 264.505946 187.118952 
L 265.082042 186.064774 
L 266.225636 167.446664 
L 266.801732 143.237572 
L 267.403624 128.359586 
L 267.945326 151.124697 
L 268.521423 168.853656 
L 269.673615 188.18451 
L 270.241113 189.570163 
L 270.834406 180.736982 
L 271.384706 168.321588 
L 271.960803 146.065783 
L 272.562694 172.652109 
L 273.104396 164.833271 
L 273.680493 168.207777 
L 274.282384 176.641196 
L 274.824086 181.805385 
L 275.400183 174.026381 
L 277.119873 155.163576 
L 277.721764 146.600696 
L 278.263466 149.724817 
L 278.839563 172.646419 
L 279.441454 174.426143 
L 279.983156 168.801019 
L 280.559253 189.747994 
L 281.161144 182.946344 
L 282.278943 137.766092 
L 282.880834 167.468003 
L 283.422536 177.254355 
L 283.998633 173.656494 
L 285.142226 171.393072 
L 285.718323 172.940906 
L 286.311616 172.445826 
L 286.861917 152.683912 
L 287.438013 149.137266 
L 288.039904 154.583138 
L 289.157703 180.048423 
L 289.759594 182.88517 
L 290.301297 179.578951 
L 290.877393 184.300699 
L 291.479284 167.324317 
L 292.020987 159.737369 
L 292.597083 156.990248 
L 293.198974 192.638801 
L 293.740677 189.568741 
L 294.316773 174.522883 
L 294.918664 183.727374 
L 295.460367 174.848668 
L 296.036463 172.219626 
L 296.638354 159.309154 
L 297.180057 144.82524 
L 297.756153 148.236734 
L 298.358044 159.134169 
L 298.899747 176.251393 
L 299.475843 184.38748 
L 300.051939 189.604307 
L 300.619437 190.614382 
L 301.195533 187.245567 
L 301.76303 163.201501 
L 302.339127 149.719127 
L 302.915223 167.247494 
L 303.491319 159.011822 
L 304.058817 166.345539 
L 304.634913 184.006212 
L 305.202411 185.801586 
L 305.787105 185.359144 
L 306.354603 176.749317 
L 306.930699 152.88735 
L 307.506795 134.912273 
L 308.074293 149.30087 
L 308.650389 172.467166 
L 309.793983 189.176092 
L 310.370079 191.537677 
L 310.937577 184.817118 
L 311.513673 170.698822 
L 312.081171 150.815983 
L 312.665865 163.49172 
L 313.233363 160.142822 
L 314.376957 194.99185 
L 314.953053 194.401454 
L 316.105245 163.160245 
L 316.672743 152.908689 
L 317.240241 140.335383 
L 317.816337 148.723278 
L 319.536027 191.361269 
L 320.112123 197.733281 
L 320.679621 187.907095 
L 321.255717 172.333438 
L 321.831813 159.781471 
L 322.399311 167.08389 
L 322.975407 157.01301 
L 324.119001 180.628861 
L 324.703695 182.979065 
L 325.271193 176.124778 
L 325.838691 172.475702 
L 326.990883 139.412088 
L 327.566979 159.997712 
L 328.710573 176.817604 
L 329.278071 188.045092 
L 329.862765 191.211892 
L 330.430263 184.118601 
L 332.149953 147.703244 
L 332.726049 168.863615 
L 333.293547 171.054483 
L 333.869643 178.496321 
L 334.437141 193.314556 
L 335.013237 185.229684 
L 335.589333 178.800766 
L 336.732927 145.12684 
L 337.309023 142.554704 
L 338.452617 179.23894 
L 339.028713 183.287778 
L 339.604809 181.546465 
L 340.748403 167.682822 
L 341.900595 144.758376 
L 342.468093 171.3006 
L 343.044189 186.586884 
L 343.611687 182.80977 
L 344.187783 186.389137 
L 344.763879 184.101529 
L 345.331377 175.525845 
L 345.907473 164.24572 
L 346.474971 164.161784 
L 347.059665 142.247413 
L 347.627163 161.219761 
L 348.203259 165.685433 
L 348.779355 166.364034 
L 349.346853 186.84865 
L 349.914351 185.253869 
L 350.490447 189.113495 
L 351.642639 168.308785 
L 352.210137 170.09989 
L 352.786233 143.364187 
L 353.362329 162.626754 
L 353.929827 171.657683 
L 354.505923 176.844634 
L 355.073421 180.305921 
L 355.649517 171.5268 
L 356.225613 155.85498 
L 356.793111 133.58068 
L 357.377806 143.833658 
L 357.945303 172.206823 
L 359.097496 192.335779 
L 359.664993 189.049476 
L 360.232491 176.562951 
L 360.808587 167.927517 
L 361.384683 157.195108 
L 361.960779 150.286761 
L 362.528277 176.231476 
L 363.104373 164.555856 
L 363.680469 179.961642 
L 364.247967 180.497978 
L 364.824063 176.932838 
L 365.391561 174.423298 
L 365.976256 156.365708 
L 366.543753 142.668515 
L 367.687347 166.235996 
L 368.263443 184.021861 
L 368.830941 182.203725 
L 369.415636 184.036087 
L 369.983133 182.239291 
L 370.550631 170.458396 
L 371.126727 150.093282 
L 371.702823 166.958698 
L 372.27892 170.899415 
L 372.855016 170.606351 
L 373.422513 176.557261 
L 373.990011 188.029442 
L 374.574706 187.615454 
L 376.285797 133.906465 
L 377.429391 170.72443 
L 378.014086 180.266087 
L 379.149081 187.833118 
L 379.725177 181.960453 
L 380.301273 170.540909 
L 380.868771 162.061965 
L 381.444867 161.390478 
L 382.020963 156.000089 
L 382.588461 168.567705 
L 383.173156 184.569578 
L 383.740653 196.407379 
L 384.892846 172.095857 
L 385.460343 156.025697 
L 386.03644 129.760888 
L 386.612536 162.842996 
L 387.180033 162.60826 
L 387.747531 168.862192 
L 388.332226 177.536038 
L 388.899723 188.520254 
L 389.467221 185.979416 
L 390.619414 147.956474 
L 391.186911 166.685551 
L 391.771606 167.561898 
L 392.339104 175.998162 
L 393.482697 198.771809 
L 394.058794 186.677933 
L 395.778484 128.840439 
L 396.930676 171.905223 
L 398.065671 189.664058 
L 398.641767 195.148341 
L 399.217864 183.845454 
L 399.785361 165.982766 
L 400.370056 142.06247 
L 400.937554 170.350275 
L 401.505051 163.585614 
L 402.081147 183.542431 
L 402.657244 193.720009 
L 403.23334 187.295359 
L 404.376934 165.839079 
L 404.944431 140.838998 
L 405.529126 146.353157 
L 406.096624 150.010768 
L 406.664121 171.632075 
L 407.240217 184.795778 
L 407.816314 195.358892 
L 408.383811 191.977273 
L 408.959908 175.669532 
L 409.536004 153.026768 
L 410.1121 146.226542 
L 410.679598 176.617012 
L 411.255694 177.82768 
L 411.823191 183.273552 
L 412.399288 191.638684 
L 412.975384 189.129144 
L 413.542881 176.732246 
L 414.127576 157.178037 
L 414.695074 128.928642 
L 415.262571 147.6691 
L 415.847266 157.162388 
L 416.414764 170.37446 
L 416.982261 186.67082 
L 417.558358 198.522847 
L 418.125855 189.544556 
L 418.701951 177.780732 
L 419.278048 169.806826 
L 419.854144 154.704063 
L 420.997738 172.828517 
L 421.573834 188.662518 
L 422.141331 194.317518 
L 422.717428 185.79305 
L 424.437118 133.993247 
L 425.013214 145.318896 
L 426.156808 174.976706 
L 426.732904 182.198035 
L 427.300402 192.926175 
L 427.876498 193.192209 
L 428.452594 189.21308 
L 429.596188 138.540009 
L 430.172284 168.014298 
L 430.739782 180.284582 
L 431.315878 185.424586 
L 431.891974 188.63691 
L 432.459472 188.961273 
L 433.035568 166.898947 
L 433.611664 150.898497 
L 434.179162 118.015559 
L 434.763856 141.399519 
L 436.474948 190.016873 
L 437.051044 196.970745 
L 437.618542 195.559484 
L 438.770734 158.647625 
L 439.338232 143.19347 
L 441.057922 184.340533 
L 441.642616 191.456586 
L 442.210114 186.161514 
L 442.777612 168.382762 
L 443.929804 125.505767 
L 445.073398 158.427116 
L 445.649494 171.40303 
L 446.216992 194.812598 
L 446.793088 200.469021 
L 447.369184 190.309937 
L 447.936682 174.685064 
L 448.521376 153.863282 
L 449.088874 165.352535 
L 449.656372 161.904052 
L 450.232468 175.458981 
L 450.808564 180.163657 
L 451.376062 182.731525 
L 451.952158 179.480789 
L 453.095752 143.997262 
L 453.671848 127.511691 
L 454.247944 160.437309 
L 454.815442 177.58014 
L 455.967634 190.708277 
L 456.535132 190.923095 
L 457.119826 176.305453 
L 457.687324 165.191777 
L 458.254822 138.850145 
L 458.830918 167.906177 
L 459.407014 175.737819 
L 459.974512 189.641295 
L 460.559206 183.573729 
L 461.126704 170.089932 
L 461.694202 149.800217 
L 462.270298 153.951486 
L 462.846394 145.617651 
L 463.989988 178.620091 
L 464.566084 187.131756 
L 465.133582 187.524405 
L 466.285774 179.214755 
L 467.429368 145.644681 
L 468.005464 163.764867 
L 468.572962 167.880569 
L 469.157656 183.171121 
L 469.725154 189.784982 
L 470.292652 186.248295 
L 470.868748 185.573963 
L 471.444844 173.095974 
L 472.012342 154.972942 
L 472.588438 131.227631 
L 473.164534 144.85796 
L 474.308128 178.627204 
L 474.884224 186.45031 
L 475.451722 190.729616 
L 476.036416 187.537208 
L 476.603914 177.430763 
L 477.171412 155.924689 
L 477.756107 162.302392 
L 478.323604 163.622603 
L 478.891102 180.416887 
L 479.475797 188.624107 
L 480.043294 188.530212 
L 480.610792 174.578366 
L 481.762984 132.288922 
L 482.330482 133.631896 
L 482.906578 158.417158 
L 483.482674 176.53023 
L 484.050172 183.329035 
L 484.626268 191.617345 
L 485.202364 192.816631 
L 485.769862 176.141849 
L 486.345958 148.892572 
L 486.922054 178.641431 
L 487.489552 169.074166 
L 488.641744 186.24545 
L 489.209242 193.273299 
L 490.361434 162.272516 
L 490.928932 136.070303 
L 491.513627 117.496294 
L 492.081124 153.49055 
L 492.648622 176.895849 
L 493.233317 189.429322 
L 493.800814 185.689197 
L 494.368312 184.935197 
L 494.944408 180.031351 
L 495.520504 166.036826 
L 496.088002 159.780048 
L 496.664098 171.498347 
L 497.240194 174.051989 
L 497.807692 179.210487 
L 498.392387 192.910526 
L 498.959884 182.111253 
L 499.527382 152.43495 
L 500.112077 143.766794 
L 500.679574 124.781642 
L 501.247072 146.60781 
L 501.823168 154.775195 
L 502.399264 175.719325 
L 502.966762 183.080072 
L 503.551457 187.050665 
L 504.118954 195.094281 
L 504.686452 189.15902 
L 505.838644 155.364169 
L 506.406142 168.250456 
L 506.982238 168.056977 
L 507.558334 176.181683 
L 508.125832 176.486129 
L 508.710527 174.719208 
L 509.845522 147.543908 
L 510.430217 141.859032 
L 510.997714 152.691025 
L 511.565212 143.799515 
L 512.141308 167.472271 
L 513.284902 194.825401 
L 513.869597 196.856934 
L 514.437095 190.527601 
L 515.580688 148.566787 
L 516.156785 169.883649 
L 516.724282 160.858411 
L 517.876475 185.979416 
L 518.443972 179.075336 
L 519.020068 170.109849 
L 520.163662 135.064496 
L 520.748357 130.304337 
L 521.315855 161.066116 
L 521.883352 169.451166 
L 522.459448 182.623404 
L 523.035545 191.079586 
L 523.603042 194.960552 
L 524.187737 187.030748 
L 525.322732 148.363349 
L 525.898828 181.230638 
L 526.474925 167.452354 
L 527.618518 184.384635 
L 528.194615 171.744464 
L 528.762112 156.583372 
L 529.346807 150.002232 
L 529.914305 120.805359 
L 530.481802 149.539874 
L 531.066497 166.014064 
L 531.633995 178.10794 
L 532.201492 186.52571 
L 532.786187 193.021492 
L 533.353685 196.249466 
L 533.921182 188.424937 
L 535.073375 137.256786 
L 535.649471 172.996389 
L 536.225567 169.210739 
L 536.793065 179.553344 
L 537.360562 183.923699 
L 537.936659 174.820215 
L 539.080252 150.729202 
L 539.656349 127.046488 
L 540.799942 170.607773 
L 541.952135 192.17502 
L 542.528231 193.849469 
L 543.095729 189.204544 
L 544.239322 143.493647 
L 544.815419 165.910211 
L 545.959012 177.432185 
L 546.535109 188.363763 
L 547.102606 181.370057 
L 547.678702 172.6578 
L 549.398392 128.847552 
L 549.974489 155.768199 
L 551.694179 191.122265 
L 552.270275 192.355696 
L 552.837773 194.328899 
L 553.989965 156.725637 
L 554.557463 172.376117 
L 555.133559 151.006617 
L 555.709655 163.06635 
L 556.277153 185.788782 
L 556.853249 190.026831 
L 557.429345 180.714219 
L 557.996843 164.534516 
L 558.572939 154.526233 
L 559.149035 139.75779 
L 559.716533 154.512006 
L 560.301227 160.822844 
L 560.868725 176.912921 
L 561.436223 188.454812 
L 562.588415 199.198602 
L 563.740607 164.31543 
L 564.308105 135.905277 
L 564.875603 169.325973 
L 565.451699 171.016072 
L 566.027795 184.763057 
L 566.595293 185.295125 
L 567.179987 186.033476 
L 567.747485 181.253401 
L 568.314983 167.512105 
L 568.891079 129.682642 
L 569.467175 141.967153 
L 570.034673 146.815515 
L 570.610769 180.106751 
L 571.754363 196.930911 
L 572.330459 196.310639 
L 572.906555 181.749902 
L 574.050149 146.270644 
L 574.617647 164.784901 
L 575.193743 168.924788 
L 575.769839 188.292631 
L 576.345935 195.708862 
L 576.913433 184.86122 
L 577.498127 167.052592 
L 578.065625 158.047271 
L 578.633123 145.257723 
L 579.209219 151.83175 
L 579.785315 139.735028 
L 580.352813 171.566634 
L 580.928909 184.955114 
L 581.505005 190.126416 
L 582.072503 192.704243 
L 582.648599 193.604775 
L 583.792193 149.764651 
L 584.368289 170.192362 
L 584.944385 157.155274 
L 586.096577 189.573009 
L 587.231573 177.884585 
L 588.383765 157.065648 
L 588.951263 122.67471 
L 589.527359 154.312837 
L 590.103455 162.356452 
L 590.670953 172.050332 
L 591.247049 193.562096 
L 591.823145 202.403813 
L 592.390643 201.61567 
L 594.110333 142.031172 
L 594.695027 159.809924 
L 595.262525 161.478682 
L 596.414717 192.402643 
L 596.982215 185.825771 
L 598.125809 167.753954 
L 598.701905 146.303364 
L 599.269403 136.824303 
L 599.845499 150.448942 
L 600.989093 188.952737 
L 601.573788 196.862624 
L 602.141285 197.397537 
L 602.708783 183.451382 
L 603.284879 160.154203 
L 603.860975 141.524711 
L 604.428473 171.376 
L 605.004569 168.966045 
L 605.580665 177.170419 
L 606.148163 188.883027 
L 606.732858 191.817937 
L 607.300355 178.712563 
L 608.443949 142.14356 
L 609.020045 122.6804 
L 609.587543 152.130504 
L 610.739735 190.041058 
L 611.307233 194.838205 
L 611.891928 196.955096 
L 612.459425 195.011767 
L 613.035521 163.21715 
L 613.611618 142.381141 
L 614.179115 158.895165 
L 614.746613 171.576592 
L 615.322709 172.63646 
L 615.898805 187.614031 
L 616.466303 189.790673 
L 617.042399 184.543971 
L 617.618495 165.715309 
L 618.185993 152.417878 
L 618.762089 125.76042 
L 619.338185 148.845625 
L 619.905683 159.761554 
L 621.057875 190.988537 
L 621.625373 196.091552 
L 622.201469 196.59659 
L 622.777565 169.89503 
L 623.345063 154.47644 
L 623.921159 148.721855 
L 624.497255 173.285185 
L 625.073352 167.876302 
L 626.216945 197.669262 
L 626.784443 187.449005 
L 627.360539 179.196261 
L 629.080229 129.258695 
L 630.223823 164.907249 
L 630.799919 178.86194 
L 631.376015 188.625529 
L 631.943513 189.51468 
L 632.528208 189.168978 
L 633.663203 162.649516 
L 634.247898 160.875482 
L 634.815395 166.662788 
L 635.382893 168.287445 
L 635.958989 179.018431 
L 637.102583 180.39128 
L 638.254776 165.52183 
L 638.822273 152.508927 
L 639.406968 143.524945 
L 639.974466 146.373074 
L 640.541963 165.489109 
L 641.126658 179.909004 
L 641.694156 187.151673 
L 642.261653 190.938745 
L 642.846348 197.805836 
L 643.413846 182.171004 
L 643.981343 170.226505 
L 644.566038 139.163126 
L 645.124937 162.685082 
L 645.701033 164.148981 
L 646.285728 180.460989 
L 646.853226 191.127956 
L 647.429322 179.578951 
L 647.996819 170.647607 
L 648.572916 166.105113 
L 649.140413 151.921376 
L 649.725108 154.815029 
L 650.292606 142.659979 
L 650.860103 155.455218 
L 651.444798 162.366411 
L 652.012296 189.490495 
L 652.579793 189.268563 
L 653.164488 191.401103 
L 654.299483 171.489811 
L 654.884178 156.880705 
L 655.451676 174.160109 
L 656.019173 170.550868 
L 656.603868 169.981811 
L 657.171366 169.651758 
L 657.738863 175.094785 
L 658.323558 176.487551 
L 659.467152 158.19238 
L 660.03465 152.867433 
L 660.610746 159.340452 
L 661.178243 164.176011 
L 661.75434 161.936773 
L 662.330436 165.883181 
L 662.897933 164.829003 
L 663.482628 170.970547 
L 664.050126 172.181215 
L 664.617623 177.423649 
L 665.19372 180.096793 
L 665.769816 180.229099 
L 667.489506 172.979317 
L 668.057003 164.025211 
L 668.6331 162.520056 
L 669.776693 165.346845 
L 670.361388 169.398528 
L 670.928886 171.569479 
L 671.496383 173.117313 
L 672.081078 173.084592 
L 672.648576 176.733668 
L 673.216074 175.012272 
L 673.800768 172.770189 
L 674.368266 171.458513 
L 674.935764 172.134268 
L 675.520458 173.571136 
L 676.087956 170.856736 
L 677.240148 173.743275 
L 677.807646 175.585596 
L 678.375144 173.552642 
L 678.959838 172.161298 
L 679.527336 171.226623 
L 680.094834 171.946479 
L 680.679528 173.047604 
L 681.247026 172.903917 
L 681.814524 172.313521 
L 682.966716 172.989275 
L 683.534214 173.620928 
L 684.118908 172.871196 
L 684.686406 174.621045 
L 685.253904 172.575287 
L 685.83 171.545294 
L 686.406096 171.333321 
L 687.54969 174.956789 
L 688.125786 174.766155 
L 688.693284 176.558683 
L 689.277978 176.288381 
L 689.845476 172.744581 
L 690.412974 172.219626 
L 690.98907 172.653532 
L 691.565166 173.521343 
L 692.132664 174.996623 
L 692.717358 174.202789 
L 693.284856 176.210136 
L 693.852354 175.867279 
L 694.42845 172.13569 
L 695.004546 172.800064 
L 695.572044 171.895264 
L 696.14814 173.838592 
L 696.724236 172.878309 
L 697.291734 178.981442 
L 697.86783 166.746724 
L 698.443926 175.774808 
L 699.011424 175.346593 
L 699.58752 168.011452 
L 700.163616 174.305219 
L 700.731114 172.38323 
L 701.315808 171.933675 
L 701.883306 172.350509 
L 702.450804 170.808366 
L 703.035498 174.44037 
L 703.602996 172.112928 
L 704.170494 172.155607 
L 704.74659 175.229936 
L 705.322686 170.151105 
L 705.890184 173.844283 
L 706.46628 169.855196 
L 707.042376 162.988105 
L 707.609874 124.679212 
L 708.18597 156.802459 
L 709.329564 180.930461 
L 709.90566 207.033089 
L 710.481756 227.450841 
L 711.049254 240.096702 
L 711.633948 235.759068 
L 712.201446 240.112351 
L 713.34504 240.556216 
L 713.921136 246.130125 
L 714.488634 241.586208 
L 715.06473 240.486506 
L 715.640826 254.445466 
L 716.208324 248.248439 
L 716.208324 248.248439 
" style="fill:none;stroke:#1f77b4;stroke-linecap:square;stroke-width:1.5;"/>
   </g>
   <g id="line2d_18">
    <path clip-path="url(#pafb03812f7)" d="M 107.481051 230.14817 
L 108.014155 227.270166 
L 108.590251 228.391207 
L 109.192143 223.589792 
L 109.733845 226.062343 
L 110.309941 233.404596 
L 110.911833 217.404146 
L 111.453535 213.42644 
L 112.029631 235.557053 
L 112.631523 249.858869 
L 113.173225 251.170545 
L 113.749321 262.891689 
L 114.351213 280.439973 
L 114.892915 290.739898 
L 115.469011 289.199177 
L 116.070903 288.372623 
L 116.612605 294.554 
L 117.188701 295.289506 
L 117.790593 295.602487 
L 118.332295 297.097683 
L 118.908391 297.451921 
L 119.510283 298.602838 
L 120.051985 298.453461 
L 120.628081 296.567038 
L 121.229973 296.732065 
L 121.771675 295.349257 
L 122.347771 295.943921 
L 122.949663 295.268166 
L 124.067461 295.286661 
L 124.669353 295.478717 
L 125.211055 295.979487 
L 125.787151 295.606755 
L 126.380444 296.299582 
L 126.930745 295.605332 
L 127.506841 295.791698 
L 128.108733 294.518434 
L 128.650435 294.545464 
L 129.226531 295.500057 
L 129.819824 295.663661 
L 130.370125 295.263898 
L 130.946221 296.208532 
L 131.548113 296.291046 
L 132.089815 295.90551 
L 132.665911 296.511555 
L 133.267803 295.566921 
L 133.809505 296.786125 
L 134.385601 296.275397 
L 134.987493 296.639593 
L 135.529195 296.366446 
L 136.105291 296.61114 
L 136.707183 296.41197 
L 137.248885 296.047774 
L 137.824981 296.323766 
L 138.968575 295.908355 
L 139.544671 297.703729 
L 140.137965 297.942733 
L 140.688265 297.258442 
L 141.866253 297.776284 
L 142.407955 298.531706 
L 142.984051 296.898514 
L 143.585943 296.269706 
L 144.127645 296.271129 
L 145.305633 297.853106 
L 145.847335 297.278359 
L 146.423432 299.514752 
L 147.025323 296.641016 
L 148.143122 299.315582 
L 148.745013 299.435084 
L 149.286715 298.965612 
L 149.862812 298.759329 
L 150.464703 299.580193 
L 151.006405 298.332536 
L 151.582502 298.71665 
L 152.184393 297.288317 
L 152.726095 299.287129 
L 153.302192 299.318427 
L 153.912682 298.693887 
L 154.445785 297.925661 
L 155.021882 294.666389 
L 155.623773 292.218023 
L 156.165475 293.011857 
L 156.741572 291.131125 
L 157.343463 291.79123 
L 157.885165 290.798226 
L 158.461262 294.117249 
L 159.063153 294.622287 
L 159.604855 301.724114 
L 160.180952 301.115223 
L 160.782843 293.358981 
L 161.324545 301.261755 
L 161.900642 296.271129 
L 162.502533 293.294962 
L 163.044235 294.929578 
L 163.620332 288.358396 
L 164.213625 298.838997 
L 164.763926 304.105616 
L 165.340022 317.23233 
L 165.941913 283.110271 
L 166.483616 282.558286 
L 167.059712 305.471352 
L 167.661603 300.385408 
L 168.203306 294.758861 
L 168.779402 292.664732 
L 169.372695 291.400004 
L 169.922996 299.52471 
L 171.100983 332.601127 
L 171.642686 286.934332 
L 172.218782 293.431536 
L 172.820673 297.046468 
L 173.362376 291.673151 
L 173.938472 290.193604 
L 174.531765 289.3514 
L 175.082066 295.214106 
L 176.251455 320.423315 
L 176.801756 289.92757 
L 177.971145 306.080243 
L 178.521446 296.754827 
L 179.097542 292.563725 
L 179.690835 295.271012 
L 180.241136 303.836737 
L 180.817232 317.841221 
L 181.410525 327.889338 
L 181.960826 302.320201 
L 182.536922 299.988491 
L 183.130215 291.983287 
L 183.680516 290.314528 
L 184.849905 287.749506 
L 185.400206 291.038653 
L 185.976302 295.25394 
L 186.569595 318.327764 
L 187.119896 291.491053 
L 187.695992 306.128612 
L 188.297883 305.004726 
L 188.839586 297.238525 
L 189.415682 296.63817 
L 190.017573 293.330529 
L 190.559276 300.723997 
L 191.728665 322.735108 
L 192.278966 301.947469 
L 192.855062 290.937645 
L 193.448355 286.572981 
L 193.998656 292.676113 
L 194.574752 287.641385 
L 195.168045 285.514536 
L 196.294442 301.577582 
L 196.887735 321.877255 
L 197.438036 291.560762 
L 198.014132 295.330763 
L 198.607425 295.340721 
L 199.157726 296.662355 
L 199.733822 297.11191 
L 200.327115 296.20711 
L 200.877416 308.727779 
L 201.453512 313.381239 
L 202.055403 323.282825 
L 202.597106 295.386246 
L 203.173202 291.256317 
L 203.766495 289.724132 
L 204.316796 286.989815 
L 204.892892 279.954852 
L 206.036486 290.963253 
L 206.612582 308.137382 
L 207.205875 319.669315 
L 207.756176 286.316905 
L 208.332272 301.240416 
L 208.934164 303.402831 
L 210.051962 291.266276 
L 210.645255 293.243747 
L 211.195556 305.989193 
L 211.771652 310.389424 
L 212.356347 332.228395 
L 212.915246 288.146423 
L 213.491342 286.925796 
L 214.084635 288.041147 
L 214.634936 292.981981 
L 215.211032 288.085249 
L 215.804325 284.838781 
L 216.354626 292.540962 
L 216.930722 314.01716 
L 217.524015 306.68202 
L 218.074316 286.409377 
L 218.650412 300.337038 
L 219.243705 295.9866 
L 219.794006 292.86817 
L 220.370102 293.246593 
L 220.971994 302.806744 
L 221.513696 321.000908 
L 222.089792 326.415482 
L 222.683085 298.941427 
L 223.233386 291.472559 
L 223.809482 291.193721 
L 224.402775 294.993597 
L 224.953076 290.121049 
L 225.529172 286.629887 
L 226.122465 292.472676 
L 226.672766 302.424054 
L 227.248862 332.92549 
L 227.842155 283.360656 
L 228.392456 301.136563 
L 228.968552 296.86437 
L 229.561845 294.512744 
L 230.688242 297.616948 
L 231.281535 307.063288 
L 231.831836 311.412303 
L 232.407932 319.736179 
L 233.009824 296.860102 
L 233.551526 290.334445 
L 234.127622 291.553649 
L 234.729514 293.186842 
L 235.271216 286.581517 
L 235.847312 287.612932 
L 236.990906 306.155643 
L 237.567002 293.273623 
L 238.160295 291.738593 
L 238.710596 297.700884 
L 239.286692 293.139895 
L 239.879985 292.869593 
L 240.430286 294.771664 
L 241.608274 309.111892 
L 242.149976 320.719225 
L 242.726072 292.105634 
L 243.319365 289.846479 
L 243.869666 291.337408 
L 244.445762 288.669955 
L 245.047654 287.605819 
L 245.589356 287.070905 
L 246.165452 289.527808 
L 246.767344 298.615642 
L 247.309046 313.994398 
L 247.885142 285.904339 
L 248.478435 288.27446 
L 249.028736 298.011019 
L 249.604832 293.859751 
L 250.206724 290.951872 
L 250.748426 301.109533 
L 251.324522 307.828669 
L 251.926414 300.17628 
L 252.468116 314.183609 
L 253.044212 279.074237 
L 253.646104 285.38792 
L 254.187806 278.159478 
L 254.755304 280.155445 
L 255.365794 274.514671 
L 255.907496 276.075309 
L 256.483592 290.446834 
L 257.085484 302.055589 
L 257.627186 295.763246 
L 258.203282 278.035709 
L 258.805174 288.24743 
L 259.346876 286.380924 
L 259.922972 283.219815 
L 260.524864 286.76646 
L 261.066566 293.257974 
L 261.642662 307.68925 
L 262.244554 319.888402 
L 262.786256 277.230494 
L 263.362352 274.390901 
L 263.964244 287.314177 
L 264.505946 287.314177 
L 265.683934 280.192433 
L 266.225636 286.949981 
L 266.801732 296.430465 
L 267.403624 312.480707 
L 267.945326 274.776437 
L 268.521423 284.605468 
L 269.114716 287.851936 
L 269.673615 282.757456 
L 270.241113 285.612698 
L 270.834406 294.314997 
L 271.384706 306.876922 
L 271.960803 312.923149 
L 272.562694 293.910966 
L 273.104396 281.356154 
L 273.680493 287.132079 
L 274.282384 287.338362 
L 274.824086 287.914532 
L 275.400183 280.235113 
L 276.002074 282.970852 
L 276.543776 289.382698 
L 277.119873 292.405811 
L 277.721764 304.279178 
L 278.263466 289.862128 
L 278.839563 286.281339 
L 279.441454 280.875301 
L 279.983156 281.832739 
L 280.559253 268.592214 
L 281.161144 273.742176 
L 281.702846 282.191245 
L 282.278943 297.377944 
L 282.880834 271.980946 
L 283.422536 276.031207 
L 283.998633 293.043155 
L 284.600524 284.081935 
L 285.142226 284.473162 
L 285.718323 287.979973 
L 286.311616 289.741204 
L 286.861917 296.121751 
L 287.438013 298.870295 
L 288.039904 302.756952 
L 288.581607 286.624196 
L 289.157703 286.21163 
L 289.759594 281.605116 
L 290.301297 290.012928 
L 290.877393 296.689385 
L 291.479284 297.589917 
L 292.020987 304.710239 
L 292.597083 334.935682 
L 293.198974 287.64423 
L 293.740677 295.088914 
L 294.316773 298.64125 
L 294.918664 281.656332 
L 295.460367 281.11146 
L 296.638354 294.765974 
L 297.756153 303.537982 
L 298.358044 298.763597 
L 298.899747 289.876355 
L 299.475843 284.5258 
L 300.051939 290.95614 
L 300.619437 299.011136 
L 301.195533 301.50645 
L 301.76303 309.027956 
L 302.339127 314.829488 
L 302.915223 276.638675 
L 303.491319 281.148448 
L 304.058817 287.504811 
L 304.634913 289.941796 
L 305.202411 282.107309 
L 305.787105 283.14726 
L 306.354603 295.904087 
L 306.930699 301.147944 
L 307.506795 313.74259 
L 308.074293 278.759833 
L 308.650389 289.237589 
L 309.217887 285.739313 
L 309.793983 286.767883 
L 310.370079 294.373325 
L 310.937577 296.439 
L 312.081171 318.989292 
L 312.665865 294.659276 
L 313.233363 284.532913 
L 313.809459 289.872087 
L 314.376957 281.350464 
L 314.953053 277.729841 
L 315.520551 287.295683 
L 316.105245 302.877876 
L 316.672743 304.42002 
L 317.240241 318.098719 
L 317.816337 281.815667 
L 318.392433 290.082638 
L 318.959931 289.281691 
L 319.536027 287.955789 
L 320.112123 290.347249 
L 320.679621 296.272551 
L 321.255717 307.131575 
L 321.831813 312.768081 
L 322.399311 307.307982 
L 322.975407 276.106607 
L 323.551503 286.728049 
L 324.119001 286.658339 
L 324.703695 282.141452 
L 325.271193 283.67506 
L 325.838691 290.290343 
L 326.423385 306.205435 
L 326.990883 318.172696 
L 327.566979 286.839015 
L 328.134477 286.666875 
L 328.710573 293.2722 
L 329.278071 285.927102 
L 329.862765 286.968475 
L 331.573857 308.000809 
L 332.149953 331.433139 
L 332.726049 283.552713 
L 333.293547 281.717505 
L 333.869643 290.028577 
L 334.437141 291.799766 
L 335.013237 284.586973 
L 335.589333 282.895452 
L 336.156831 299.028208 
L 336.732927 297.335265 
L 337.309023 311.894579 
L 337.885119 282.494267 
L 338.452617 288.617317 
L 339.028713 287.797875 
L 339.604809 282.461547 
L 340.180905 285.901494 
L 340.748403 300.883333 
L 341.324499 301.810895 
L 341.900595 314.429726 
L 342.468093 295.108831 
L 343.044189 296.565616 
L 343.611687 285.446249 
L 344.187783 294.393242 
L 344.763879 292.282042 
L 345.331377 289.002853 
L 345.907473 288.749623 
L 346.474971 292.375936 
L 347.059665 307.135843 
L 347.627163 276.81366 
L 348.203259 281.030369 
L 348.779355 299.413744 
L 349.346853 298.11345 
L 349.914351 304.649065 
L 350.490447 304.202356 
L 351.066543 298.390865 
L 351.642639 295.403317 
L 352.210137 295.246827 
L 352.786233 308.999503 
L 353.362329 290.803917 
L 353.929827 288.201906 
L 354.505923 281.883954 
L 355.073421 280.829777 
L 355.649517 281.102924 
L 356.225613 275.143478 
L 356.793111 293.242325 
L 357.377806 292.99763 
L 357.945303 290.032845 
L 358.521399 283.316554 
L 359.097496 280.074354 
L 359.664993 289.978785 
L 360.232491 289.790996 
L 360.808587 301.237571 
L 361.384683 309.450481 
L 361.960779 323.289938 
L 362.528277 278.902097 
L 363.104373 283.716317 
L 363.680469 294.054653 
L 364.247967 285.248502 
L 364.824063 280.125569 
L 365.391561 285.392188 
L 365.976256 298.039472 
L 366.543753 313.910462 
L 367.111251 286.634155 
L 367.687347 289.539189 
L 368.263443 289.513581 
L 368.830941 280.967773 
L 369.415636 278.156633 
L 369.983133 289.742626 
L 370.550631 306.733235 
L 371.126727 315.994632 
L 371.702823 293.051691 
L 372.27892 278.482418 
L 372.855016 290.478132 
L 373.990011 285.708015 
L 374.574706 281.260837 
L 375.709701 301.708465 
L 376.285797 323.26433 
L 376.861893 285.927102 
L 377.429391 283.323667 
L 378.014086 288.04826 
L 378.581583 283.199898 
L 379.149081 281.425864 
L 379.725177 290.3316 
L 380.301273 307.515688 
L 380.868771 314.967485 
L 381.444867 310.059371 
L 382.020963 275.88752 
L 383.173156 290.296034 
L 383.740653 290.92911 
L 384.31675 285.027992 
L 384.892846 288.098053 
L 385.460343 309.072058 
L 386.03644 318.811462 
L 386.612536 271.457414 
L 387.180033 268.896659 
L 388.332226 283.606773 
L 388.899723 285.230007 
L 389.467221 290.894966 
L 390.051916 310.733703 
L 390.619414 322.094919 
L 391.771606 281.845543 
L 392.339104 287.814947 
L 392.906601 290.017196 
L 393.482697 286.585785 
L 394.058794 286.282762 
L 394.626291 292.550921 
L 395.778484 315.079873 
L 396.345981 277.106724 
L 396.930676 284.135996 
L 397.498174 284.155913 
L 398.065671 285.494619 
L 398.641767 288.662841 
L 399.785361 311.207443 
L 400.370056 330.276531 
L 400.937554 295.288083 
L 401.505051 279.017331 
L 402.081147 288.095207 
L 402.657244 287.161955 
L 403.23334 280.882415 
L 403.809436 283.004996 
L 404.376934 292.563725 
L 404.944431 314.875013 
L 405.529126 304.892337 
L 406.096624 286.291298 
L 406.664121 282.266645 
L 407.240217 275.859067 
L 407.816314 282.633686 
L 408.959908 297.780551 
L 409.536004 308.468858 
L 410.1121 329.624961 
L 410.679598 281.502686 
L 411.255694 291.458332 
L 411.823191 287.736702 
L 412.399288 286.79349 
L 412.975384 282.815784 
L 413.542881 287.8434 
L 414.127576 298.699578 
L 414.695074 324.524791 
L 415.262571 289.120932 
L 415.847266 285.746426 
L 416.414764 290.456792 
L 416.982261 289.449562 
L 417.558358 290.271849 
L 418.125855 291.355902 
L 418.701951 300.544744 
L 419.278048 306.800099 
L 419.854144 325.349923 
L 420.421641 283.252535 
L 420.997738 292.799883 
L 421.573834 292.937879 
L 422.141331 285.165988 
L 422.717428 279.833928 
L 423.293524 282.49569 
L 423.861021 297.211495 
L 424.437118 309.151726 
L 425.580711 288.934566 
L 426.156808 296.495906 
L 426.732904 285.410683 
L 427.300402 286.874581 
L 427.876498 290.867936 
L 428.452594 303.905024 
L 429.020092 312.904654 
L 429.596188 334.343863 
L 430.172284 282.933864 
L 430.739782 290.280385 
L 431.315878 286.898766 
L 431.891974 284.73066 
L 432.459472 276.095226 
L 433.035568 281.255147 
L 433.611664 295.744751 
L 434.179162 300.546167 
L 434.763856 271.537082 
L 435.331354 279.206543 
L 435.898852 279.816856 
L 436.474948 275.873293 
L 437.051044 276.564697 
L 437.618542 285.639728 
L 438.194638 305.953627 
L 438.770734 306.515571 
L 439.338232 318.203994 
L 439.922926 281.866882 
L 440.490424 281.957932 
L 441.057922 284.053483 
L 441.642616 284.559943 
L 442.210114 280.199547 
L 442.777612 287.553181 
L 443.929804 315.203643 
L 444.497302 281.531139 
L 445.073398 282.751766 
L 445.649494 288.583174 
L 446.216992 283.238309 
L 446.793088 280.334697 
L 447.369184 285.961245 
L 447.936682 308.481662 
L 448.521376 316.020239 
L 449.088874 306.899684 
L 449.656372 287.171913 
L 450.232468 284.611158 
L 450.808564 280.243648 
L 451.376062 281.909562 
L 451.952158 278.012946 
L 453.095752 309.715092 
L 453.671848 322.033745 
L 454.247944 280.114188 
L 454.815442 289.093902 
L 455.400136 285.979739 
L 455.967634 287.388155 
L 456.535132 291.287615 
L 457.687324 310.442062 
L 458.254822 322.557278 
L 458.830918 286.614238 
L 459.407014 285.342396 
L 459.974512 281.535407 
L 460.559206 281.403101 
L 461.126704 276.224686 
L 461.694202 274.319769 
L 462.270298 288.913226 
L 462.846394 314.22202 
L 463.413892 290.967521 
L 463.989988 284.254075 
L 464.566084 288.005581 
L 465.133582 281.758762 
L 465.718276 278.646022 
L 466.285774 286.720936 
L 466.853272 311.338326 
L 467.429368 318.418813 
L 468.005464 298.730876 
L 468.572962 285.588513 
L 469.157656 290.148079 
L 469.725154 290.960408 
L 470.292652 287.069483 
L 471.444844 297.312502 
L 472.588438 318.470028 
L 473.164534 276.41532 
L 473.732032 285.420641 
L 474.308128 287.304219 
L 474.884224 285.679562 
L 475.451722 288.413879 
L 476.603914 313.246088 
L 477.171412 318.205417 
L 478.323604 284.968241 
L 478.891102 280.317626 
L 479.475797 284.678022 
L 480.043294 282.699128 
L 480.610792 284.120347 
L 481.186888 295.519974 
L 481.762984 313.315798 
L 482.330482 290.15946 
L 482.906578 283.814479 
L 483.482674 288.6728 
L 484.050172 283.817324 
L 484.626268 286.76646 
L 485.202364 293.4984 
L 485.769862 313.623088 
L 486.345958 325.89764 
L 486.922054 309.917107 
L 487.489552 283.734811 
L 488.065648 288.429528 
L 488.641744 284.22989 
L 489.209242 284.961128 
L 489.793937 289.331483 
L 490.361434 299.501948 
L 491.513627 314.29173 
L 492.081124 275.948693 
L 492.648622 275.652784 
L 493.233317 278.357226 
L 493.800814 283.968124 
L 494.368312 292.154004 
L 494.944408 296.050619 
L 496.088002 322.702387 
L 496.664098 296.565616 
L 497.240194 283.488694 
L 497.807692 291.777004 
L 498.392387 287.760887 
L 498.959884 279.842464 
L 499.527382 277.987339 
L 500.112077 280.107075 
L 500.679574 290.549264 
L 501.247072 270.689187 
L 501.823168 290.462483 
L 502.399264 284.357928 
L 502.966762 282.879803 
L 504.118954 293.077298 
L 504.686452 302.801054 
L 505.271147 305.706088 
L 505.838644 318.019051 
L 506.406142 281.932324 
L 506.982238 282.017683 
L 507.558334 279.084196 
L 508.125832 278.556395 
L 508.710527 274.107795 
L 509.278024 277.007139 
L 509.845522 290.475287 
L 510.430217 293.617902 
L 510.997714 292.905159 
L 511.565212 293.778661 
L 512.141308 288.608781 
L 512.717404 290.170842 
L 513.284902 287.1648 
L 513.869597 289.584713 
L 514.437095 297.20865 
L 515.004592 307.002114 
L 515.580688 322.084961 
L 516.156785 274.674007 
L 516.724282 285.567173 
L 517.300378 284.111811 
L 517.876475 279.038671 
L 518.443972 275.16055 
L 519.020068 273.497482 
L 520.163662 302.03425 
L 520.748357 301.374144 
L 521.315855 276.826463 
L 521.883352 298.888789 
L 522.459448 287.739547 
L 523.035545 285.70517 
L 523.603042 287.777958 
L 524.187737 300.369759 
L 524.755235 308.329439 
L 525.322732 326.435399 
L 525.898828 271.155814 
L 526.474925 280.758645 
L 527.042422 283.19563 
L 528.194615 272.026471 
L 528.762112 276.961614 
L 529.346807 287.352589 
L 529.914305 318.208262 
L 530.481802 278.536479 
L 531.633995 295.216951 
L 532.201492 287.538955 
L 532.786187 289.194909 
L 533.921182 300.22465 
L 534.505877 302.463888 
L 535.073375 331.682101 
L 535.649471 268.055878 
L 536.225567 283.167177 
L 536.793065 278.493799 
L 537.360562 277.930433 
L 537.936659 277.651595 
L 538.512755 282.128649 
L 539.080252 291.668883 
L 539.656349 309.986816 
L 540.232445 267.616282 
L 540.799942 284.38069 
L 541.376039 288.329943 
L 541.952135 281.552479 
L 542.528231 287.277189 
L 543.095729 294.103023 
L 543.671825 305.864001 
L 544.239322 309.235662 
L 544.815419 296.678004 
L 545.382916 280.003222 
L 545.959012 279.091309 
L 546.535109 281.539675 
L 547.678702 273.917161 
L 548.830895 298.247178 
L 549.398392 319.009209 
L 549.974489 273.537316 
L 550.550585 293.041732 
L 551.118083 287.550336 
L 551.694179 283.939671 
L 552.270275 290.239128 
L 552.837773 292.697453 
L 553.413869 312.204715 
L 553.989965 309.295413 
L 554.557463 288.254543 
L 555.133559 286.149034 
L 555.709655 284.9782 
L 556.277153 284.713588 
L 556.853249 280.755799 
L 557.429345 279.230728 
L 557.996843 289.734091 
L 559.149035 318.600911 
L 559.716533 273.456225 
L 560.301227 290.944759 
L 560.868725 294.583876 
L 561.436223 286.844705 
L 562.012319 287.921645 
L 562.588415 286.03949 
L 563.155913 302.032827 
L 563.740607 307.03768 
L 564.308105 330.430176 
L 564.875603 269.965063 
L 565.451699 283.731966 
L 566.595293 292.223713 
L 567.179987 282.181286 
L 567.747485 289.197755 
L 568.314983 292.199528 
L 568.891079 313.954564 
L 569.467175 294.982215 
L 570.034673 290.116781 
L 570.610769 289.837943 
L 571.186865 290.546419 
L 571.754363 289.539189 
L 573.474053 304.801288 
L 574.050149 328.701667 
L 574.617647 282.019105 
L 575.193743 284.467471 
L 575.769839 283.764686 
L 576.345935 281.918098 
L 576.913433 276.778093 
L 577.498127 281.755916 
L 578.065625 289.384121 
L 578.633123 301.846461 
L 579.209219 296.552812 
L 579.785315 294.384706 
L 580.928909 286.096396 
L 581.505005 283.272452 
L 582.072503 284.271147 
L 582.648599 291.0102 
L 583.224695 304.030216 
L 583.792193 314.192145 
L 584.368289 292.381627 
L 584.944385 288.348438 
L 585.511883 281.71466 
L 586.096577 285.901494 
L 586.664075 280.523909 
L 587.231573 279.38295 
L 587.807669 287.382464 
L 588.383765 297.656782 
L 588.951263 316.57507 
L 589.527359 274.184618 
L 590.103455 295.046234 
L 590.670953 299.332653 
L 591.247049 287.328404 
L 592.390643 286.056562 
L 592.966739 298.158974 
L 593.542835 304.429978 
L 594.110333 325.842157 
L 594.695027 278.461079 
L 595.262525 279.481113 
L 595.830023 282.226811 
L 596.414717 286.496158 
L 596.982215 283.278143 
L 597.549713 283.767532 
L 598.701905 306.814326 
L 599.269403 307.369156 
L 599.845499 282.324973 
L 600.421595 293.730291 
L 601.573788 283.559826 
L 602.141285 286.059407 
L 602.708783 293.468525 
L 603.860975 326.670134 
L 604.428473 283.719162 
L 605.004569 284.830245 
L 605.580665 281.862615 
L 606.148163 287.551758 
L 606.732858 282.932441 
L 607.300355 281.074471 
L 607.867853 294.487136 
L 608.443949 300.651442 
L 609.020045 303.027254 
L 609.587543 274.947154 
L 610.172238 296.003672 
L 610.739735 288.725438 
L 611.307233 283.056211 
L 611.891928 287.467822 
L 612.459425 288.125083 
L 613.035521 305.815631 
L 613.611618 311.425107 
L 614.179115 290.641736 
L 614.746613 285.905762 
L 615.322709 286.941445 
L 615.898805 284.648147 
L 616.466303 281.401679 
L 617.042399 275.891788 
L 617.618495 295.992291 
L 618.185993 306.094469 
L 618.762089 319.602451 
L 619.338185 282.521298 
L 619.905683 289.85786 
L 620.481779 288.634389 
L 621.057875 284.710743 
L 622.201469 289.320102 
L 622.777565 299.285706 
L 623.345063 303.89222 
L 623.921159 315.365824 
L 624.497255 269.630742 
L 625.073352 291.050034 
L 625.649448 292.996208 
L 626.216945 283.734811 
L 626.784443 281.423018 
L 627.360539 283.367769 
L 629.080229 316.404353 
L 629.656325 276.032629 
L 630.223823 288.378313 
L 630.799919 284.458935 
L 631.943513 290.535038 
L 632.528208 292.225136 
L 633.095705 303.464005 
L 633.663203 303.496725 
L 634.247898 310.525998 
L 634.815395 287.056679 
L 635.382893 287.452173 
L 635.958989 288.92034 
L 637.102583 281.805709 
L 637.678679 287.069483 
L 639.406968 309.672413 
L 639.974466 288.635811 
L 640.541963 290.158038 
L 641.126658 293.098638 
L 641.694156 292.277774 
L 642.261653 294.757438 
L 642.846348 289.863551 
L 643.413846 303.212197 
L 643.981343 296.946883 
L 644.566038 321.981108 
L 645.124937 277.577618 
L 645.701033 288.02123 
L 646.285728 288.09094 
L 646.853226 287.750928 
L 647.429322 287.611509 
L 647.996819 285.877309 
L 648.572916 280.673286 
L 649.140413 287.853358 
L 649.725108 283.337894 
L 650.292606 309.173065 
L 650.860103 280.152599 
L 651.444798 305.368922 
L 652.012296 292.953529 
L 652.579793 291.196566 
L 653.164488 296.616831 
L 653.731986 295.75471 
L 654.299483 296.154472 
L 654.884178 299.504793 
L 656.019173 282.672098 
L 656.603868 293.39597 
L 657.171366 294.019087 
L 657.738863 292.952106 
L 658.323558 287.045298 
L 659.467152 281.441513 
L 660.03465 280.737305 
L 660.610746 281.421596 
L 661.178243 282.992192 
L 661.75434 288.534804 
L 663.482628 298.131944 
L 664.050126 297.759212 
L 664.617623 297.251329 
L 665.19372 296.337993 
L 665.769816 295.10314 
L 666.337313 294.276585 
L 666.922008 291.273389 
L 667.489506 289.473747 
L 668.6331 289.432491 
L 669.209196 289.145117 
L 669.776693 290.182223 
L 670.361388 292.789925 
L 671.496383 294.3278 
L 672.081078 295.034853 
L 672.648576 295.921159 
L 673.216074 293.74594 
L 673.800768 294.046117 
L 674.368266 293.795732 
L 674.935764 294.353408 
L 675.520458 293.077298 
L 676.655454 293.481329 
L 677.240148 293.327683 
L 677.807646 294.87694 
L 678.375144 292.687495 
L 678.959838 292.428574 
L 679.527336 293.267932 
L 680.094834 293.064495 
L 680.679528 293.331951 
L 681.247026 293.913812 
L 681.814524 293.979253 
L 682.39062 293.757321 
L 683.534214 294.751747 
L 684.118908 294.333491 
L 684.686406 295.364906 
L 685.253904 293.717487 
L 685.83 292.636279 
L 686.406096 293.737404 
L 686.973594 295.262476 
L 687.54969 295.0064 
L 688.125786 295.942499 
L 688.693284 295.794544 
L 689.277978 296.404857 
L 689.845476 293.166925 
L 690.412974 292.377359 
L 690.98907 295.335031 
L 691.565166 294.561114 
L 692.132664 294.39751 
L 692.717358 296.211378 
L 693.284856 295.837223 
L 693.852354 294.666389 
L 694.42845 294.039004 
L 695.004546 292.832604 
L 695.572044 294.037581 
L 696.14814 294.562536 
L 696.724236 294.919619 
L 697.86783 290.569181 
L 699.011424 295.757555 
L 699.58752 297.643978 
L 700.731114 290.209253 
L 701.315808 289.327215 
L 701.883306 293.420155 
L 702.450804 291.505279 
L 703.035498 291.304687 
L 703.602996 293.596563 
L 704.170494 291.192298 
L 704.74659 291.674574 
L 705.322686 293.883936 
L 705.890184 290.059875 
L 706.46628 290.843751 
L 707.042376 289.258928 
L 707.609874 282.812939 
L 708.18597 285.818981 
L 708.762066 256.673322 
L 709.329564 275.321308 
L 709.90566 279.446969 
L 710.481756 267.640466 
L 711.049254 262.756538 
L 712.201446 247.520046 
L 712.768944 243.898001 
L 713.34504 241.919106 
L 713.921136 242.922069 
L 714.488634 241.389884 
L 715.06473 242.108318 
L 715.640826 253.341496 
L 716.208324 244.684722 
L 716.208324 244.684722 
" style="fill:none;stroke:#ff7f0e;stroke-linecap:square;stroke-width:1.5;"/>
   </g>
   <g id="line2d_19">
    <path clip-path="url(#pafb03812f7)" d="M 107.481051 161.316501 
L 108.014155 170.653298 
L 108.590251 168.051286 
L 109.192143 175.178721 
L 110.309941 196.94656 
L 110.911833 167.554785 
L 111.453535 197.3449 
L 112.029631 189.507567 
L 112.631523 202.365402 
L 113.173225 186.685046 
L 113.749321 228.761094 
L 114.351213 226.927309 
L 114.892915 224.466139 
L 115.469011 220.085826 
L 116.070903 234.043362 
L 116.612605 239.741042 
L 117.188701 241.193559 
L 117.790593 236.305363 
L 118.332295 235.396295 
L 118.908391 238.669793 
L 119.510283 240.853548 
L 120.051985 240.748272 
L 120.628081 240.983008 
L 121.229973 243.216555 
L 121.771675 242.20648 
L 122.347771 241.87785 
L 122.949663 242.476782 
L 123.491365 243.629122 
L 124.067461 242.138193 
L 124.669353 241.507963 
L 125.211055 241.486623 
L 125.787151 240.937484 
L 126.380444 240.009921 
L 126.930745 242.368661 
L 127.506841 241.709978 
L 128.108733 242.121121 
L 128.650435 243.226514 
L 129.226531 242.751352 
L 129.819824 241.677257 
L 130.370125 240.295872 
L 130.946221 241.371389 
L 131.548113 241.122427 
L 132.089815 242.691601 
L 132.665911 240.803755 
L 133.267803 242.377197 
L 133.809505 241.079748 
L 134.385601 240.647265 
L 134.987493 241.534993 
L 135.529195 240.630193 
L 136.105291 241.782533 
L 136.707183 241.832325 
L 137.248885 241.291721 
L 137.824981 241.251887 
L 138.426873 241.051295 
L 138.968575 241.079748 
L 139.544671 241.461016 
L 140.137965 242.264808 
L 140.688265 242.586325 
L 141.264361 242.286148 
L 142.407955 241.30168 
L 143.585943 245.975058 
L 144.127645 244.563797 
L 144.703741 244.119933 
L 145.305633 243.411457 
L 145.847335 245.115782 
L 146.423432 241.02711 
L 147.025323 243.314718 
L 147.567025 243.769963 
L 148.143122 242.714363 
L 148.745013 243.030189 
L 149.286715 244.169725 
L 149.862812 243.458405 
L 150.464703 243.040148 
L 151.006405 243.718748 
L 151.582502 243.944948 
L 152.184393 247.125975 
L 152.726095 245.225325 
L 153.302192 245.309261 
L 153.912682 241.967476 
L 154.445785 241.239084 
L 155.021882 243.124084 
L 155.623773 243.300491 
L 156.165475 243.943525 
L 156.741572 241.801027 
L 157.343463 243.796993 
L 157.885165 247.769009 
L 158.461262 249.814767 
L 159.604855 248.622594 
L 160.180952 249.982639 
L 160.782843 250.54316 
L 161.324545 242.25485 
L 161.900642 243.758582 
L 162.502533 251.080918 
L 163.044235 248.367941 
L 163.620332 246.973752 
L 164.213625 246.700605 
L 165.340022 228.961687 
L 165.941913 232.703234 
L 166.483616 234.004951 
L 167.661603 230.314619 
L 168.203306 231.40294 
L 168.779402 231.099917 
L 169.922996 235.235536 
L 170.499092 230.18089 
L 171.100983 228.903358 
L 171.642686 237.265646 
L 172.218782 243.050106 
L 172.820673 241.553487 
L 173.362376 227.696958 
L 173.938472 236.784793 
L 174.531765 242.566408 
L 175.082066 238.496231 
L 176.251455 225.984098 
L 176.801756 228.739755 
L 177.377852 227.502056 
L 177.971145 224.333833 
L 178.521446 231.25214 
L 179.097542 235.39914 
L 180.241136 232.358955 
L 180.817232 231.996181 
L 181.410525 233.066008 
L 181.960826 235.608268 
L 182.536922 236.747804 
L 183.130215 239.493502 
L 184.256612 235.969619 
L 184.849905 238.866117 
L 185.400206 237.077857 
L 185.976302 239.258767 
L 186.569595 226.139166 
L 187.119896 230.172355 
L 187.695992 230.8538 
L 188.297883 225.870286 
L 188.839586 233.704774 
L 189.415682 234.436012 
L 190.017573 233.709042 
L 190.559276 233.879759 
L 191.135372 230.122562 
L 191.728665 235.157291 
L 192.278966 230.775555 
L 192.855062 232.128487 
L 193.448355 243.377314 
L 193.998656 233.758834 
L 194.574752 234.427476 
L 195.168045 237.056517 
L 195.718346 236.1318 
L 196.294442 234.093155 
L 196.887735 225.922924 
L 197.438036 230.505253 
L 198.014132 232.061623 
L 198.607425 237.040868 
L 199.157726 230.758483 
L 199.733822 231.165358 
L 200.327115 229.795355 
L 200.877416 229.162279 
L 201.453512 232.798551 
L 202.055403 240.687099 
L 202.597106 219.676105 
L 203.766495 245.659231 
L 204.316796 231.02594 
L 204.892892 227.81646 
L 205.486185 237.592853 
L 206.036486 240.682831 
L 206.612582 234.359189 
L 207.205875 220.489856 
L 207.756176 226.978524 
L 208.332272 231.212306 
L 208.934164 227.422388 
L 209.475866 228.97449 
L 210.051962 234.390487 
L 210.645255 234.421785 
L 211.195556 229.118177 
L 211.771652 226.274317 
L 212.356347 233.182664 
L 212.915246 233.831389 
L 213.491342 236.690898 
L 214.084635 242.876544 
L 214.634936 233.824276 
L 215.211032 228.708456 
L 215.804325 235.128838 
L 216.354626 237.116268 
L 216.930722 221.218248 
L 217.524015 211.746301 
L 218.074316 228.761094 
L 218.650412 225.591449 
L 219.243705 228.099566 
L 219.794006 232.230917 
L 220.370102 231.529555 
L 220.971994 229.74983 
L 221.513696 219.825482 
L 222.089792 226.2544 
L 222.683085 229.000098 
L 223.233386 236.935593 
L 223.809482 241.896344 
L 224.402775 238.58728 
L 224.953076 227.799388 
L 225.529172 230.038626 
L 226.122465 238.292793 
L 227.248862 224.164539 
L 227.842155 226.823456 
L 228.392456 225.494709 
L 228.968552 227.943075 
L 229.561845 232.73311 
L 230.112146 229.381366 
L 230.688242 230.691619 
L 231.281535 228.894822 
L 231.831836 229.334419 
L 232.407932 236.847389 
L 233.009824 231.374487 
L 233.551526 248.709375 
L 234.127622 245.800073 
L 234.729514 230.614796 
L 235.271216 228.894822 
L 235.847312 232.949351 
L 236.449204 233.448698 
L 236.990906 233.488532 
L 237.567002 218.977588 
L 238.160295 229.486641 
L 239.286692 237.272759 
L 239.879985 233.838502 
L 240.430286 232.956464 
L 241.608274 225.429268 
L 242.149976 229.54497 
L 242.726072 231.977687 
L 243.319365 241.244774 
L 243.869666 241.034223 
L 245.047654 231.797011 
L 246.165452 235.934053 
L 246.767344 228.621675 
L 247.309046 227.901819 
L 247.885142 223.878588 
L 248.478435 230.97757 
L 249.028736 231.385868 
L 249.604832 236.793329 
L 250.206724 236.045019 
L 250.748426 229.229143 
L 251.324522 225.894471 
L 251.926414 223.817415 
L 252.468116 237.049404 
L 253.044212 231.485453 
L 253.646104 234.517102 
L 254.187806 245.455793 
L 254.755304 239.547563 
L 255.365794 239.980046 
L 255.907496 237.397951 
L 256.483592 235.773295 
L 257.085484 228.436732 
L 257.627186 219.546645 
L 258.203282 229.159434 
L 258.805174 229.990256 
L 259.346876 232.596536 
L 259.922972 234.077506 
L 260.524864 232.859725 
L 261.066566 232.432932 
L 261.642662 227.228909 
L 262.244554 228.943192 
L 262.786256 224.793347 
L 263.362352 234.256759 
L 263.964244 240.817982 
L 264.505946 233.265177 
L 265.082042 229.6474 
L 265.683934 236.293981 
L 266.801732 230.808275 
L 267.403624 225.067917 
L 267.945326 229.014324 
L 268.521423 225.05369 
L 269.673615 234.286634 
L 270.241113 235.286751 
L 270.834406 232.861147 
L 271.384706 226.049539 
L 271.960803 230.266249 
L 272.562694 221.327792 
L 273.104396 231.43566 
L 273.680493 248.367941 
L 274.282384 238.661257 
L 274.824086 225.6512 
L 276.002074 246.346367 
L 276.543776 243.203752 
L 277.119873 237.484732 
L 277.721764 227.170581 
L 278.263466 233.414555 
L 278.839563 230.418472 
L 279.441454 230.195117 
L 279.983156 255.021635 
L 280.559253 243.787035 
L 281.161144 215.862003 
L 281.702846 221.091633 
L 282.880834 227.052502 
L 283.422536 236.673827 
L 283.998633 234.350653 
L 284.600524 239.021185 
L 285.142226 237.739385 
L 285.718323 238.137725 
L 286.311616 233.977921 
L 286.861917 242.15811 
L 287.438013 235.784676 
L 288.039904 217.459629 
L 288.581607 228.052619 
L 289.157703 228.849298 
L 290.301297 234.236842 
L 290.877393 224.682381 
L 291.479284 224.594177 
L 292.020987 238.160487 
L 292.597083 231.742951 
L 293.198974 207.616372 
L 293.740677 232.558125 
L 294.316773 235.561321 
L 294.918664 236.343774 
L 295.460367 235.547095 
L 297.180057 223.646698 
L 297.756153 215.53195 
L 298.358044 222.874203 
L 298.899747 223.912732 
L 299.475843 231.696004 
L 300.051939 230.509521 
L 301.195533 225.592871 
L 301.76303 231.764291 
L 302.339127 235.74911 
L 302.915223 229.690079 
L 303.491319 232.569506 
L 304.058817 238.699668 
L 304.634913 226.634245 
L 305.202411 227.100871 
L 305.787105 236.806132 
L 306.354603 230.014441 
L 306.930699 227.573188 
L 307.506795 211.329467 
L 308.074293 222.01066 
L 309.217887 232.053087 
L 309.793983 234.09031 
L 310.370079 229.317347 
L 310.937577 226.35683 
L 311.513673 226.13063 
L 312.081171 227.176271 
L 312.665865 219.660456 
L 313.809459 238.18894 
L 314.376957 231.775672 
L 314.953053 232.612185 
L 315.520551 240.647265 
L 316.105245 235.861498 
L 317.240241 218.050026 
L 317.816337 220.740241 
L 318.392433 231.189543 
L 318.959931 230.633291 
L 319.536027 230.788358 
L 320.112123 230.582075 
L 320.679621 231.319004 
L 321.255717 230.55789 
L 322.399311 223.140237 
L 322.975407 230.57923 
L 323.551503 243.977669 
L 324.119001 237.756457 
L 324.703695 229.907743 
L 325.271193 242.940563 
L 325.838691 238.21028 
L 326.423385 229.973185 
L 326.990883 224.238517 
L 327.566979 222.404731 
L 328.134477 230.414204 
L 328.710573 230.651785 
L 329.278071 227.220373 
L 329.862765 229.082611 
L 330.430263 229.274668 
L 330.997761 229.951845 
L 331.573857 224.941301 
L 332.149953 232.462808 
L 332.726049 226.376747 
L 333.293547 243.640503 
L 333.869643 244.072986 
L 334.437141 231.491143 
L 335.013237 233.038977 
L 335.589333 241.778265 
L 336.156831 238.351121 
L 337.309023 217.516535 
L 337.885119 221.719018 
L 339.028713 228.34426 
L 339.604809 235.683668 
L 340.180905 228.910472 
L 340.748403 225.184573 
L 341.900595 239.57317 
L 342.468093 227.378287 
L 343.044189 233.710464 
L 343.611687 248.642511 
L 344.187783 238.548868 
L 344.763879 232.825581 
L 345.331377 241.470974 
L 345.907473 246.517084 
L 346.474971 233.038977 
L 347.059665 225.241479 
L 347.627163 221.472901 
L 348.203259 236.1318 
L 348.779355 253.940428 
L 349.346853 230.508098 
L 349.914351 238.496231 
L 350.490447 210.953889 
L 351.066543 250.669775 
L 351.642639 234.647985 
L 352.210137 231.760023 
L 352.786233 223.030694 
L 353.362329 216.534912 
L 353.929827 213.42644 
L 354.505923 223.953988 
L 355.073421 224.992517 
L 355.649517 229.485219 
L 356.225613 241.052718 
L 356.793111 239.597355 
L 357.377806 221.064603 
L 357.945303 224.20295 
L 358.521399 228.850721 
L 359.097496 236.941283 
L 359.664993 230.343072 
L 360.232491 239.937367 
L 360.808587 230.301815 
L 361.384683 234.003528 
L 361.960779 231.539513 
L 362.528277 233.1912 
L 363.104373 242.823906 
L 363.680469 241.418336 
L 364.247967 229.611834 
L 364.824063 243.479744 
L 365.391561 235.938321 
L 365.976256 234.114495 
L 366.543753 227.166313 
L 367.111251 223.162999 
L 367.687347 227.123634 
L 368.263443 227.271588 
L 368.830941 237.762148 
L 369.415636 240.415374 
L 369.983133 235.125993 
L 370.550631 231.385868 
L 371.126727 225.934305 
L 371.702823 223.369282 
L 372.855016 243.963442 
L 373.422513 238.843355 
L 373.990011 230.920664 
L 374.574706 234.31651 
L 375.142203 234.022023 
L 375.709701 232.76014 
L 376.285797 224.548652 
L 376.861893 222.753279 
L 377.429391 223.504433 
L 378.014086 230.660321 
L 378.581583 230.427007 
L 379.149081 232.872528 
L 379.725177 233.940932 
L 380.868771 223.623935 
L 381.444867 225.866018 
L 382.588461 244.262197 
L 383.740653 221.518426 
L 384.31675 235.979578 
L 384.892846 242.596284 
L 385.460343 235.138796 
L 386.03644 209.480033 
L 387.180033 229.253328 
L 387.747531 238.422253 
L 388.332226 229.665894 
L 388.899723 233.359072 
L 389.467221 230.668857 
L 390.051916 226.661275 
L 390.619414 219.354588 
L 391.186911 219.828328 
L 391.771606 223.484516 
L 392.339104 240.426755 
L 392.906601 239.787989 
L 393.482697 228.311539 
L 394.058794 231.943543 
L 394.626291 240.230431 
L 395.202387 229.367139 
L 395.778484 214.116422 
L 396.345981 218.927795 
L 397.498174 234.181359 
L 398.065671 233.566777 
L 398.641767 230.752792 
L 399.217864 228.924698 
L 399.785361 228.072536 
L 400.370056 226.035313 
L 400.937554 213.654063 
L 402.081147 244.082944 
L 402.657244 234.104536 
L 403.23334 229.805313 
L 403.809436 240.549102 
L 404.376934 237.479042 
L 404.944431 222.232592 
L 405.529126 216.11381 
L 406.096624 221.021924 
L 406.664121 232.371759 
L 407.240217 233.498491 
L 407.816314 231.577925 
L 408.959908 223.440415 
L 409.536004 221.932414 
L 410.1121 227.065305 
L 410.679598 220.284995 
L 411.255694 241.247619 
L 411.823191 242.694446 
L 412.399288 228.584687 
L 412.975384 231.939275 
L 413.542881 234.177091 
L 414.127576 234.300861 
L 414.695074 220.745931 
L 415.262571 218.748543 
L 416.414764 232.993453 
L 416.982261 229.584804 
L 417.558358 227.502056 
L 418.125855 230.518057 
L 418.701951 230.991796 
L 419.854144 228.355641 
L 420.421641 228.756826 
L 420.997738 233.085925 
L 421.573834 233.44443 
L 422.141331 224.679535 
L 423.293524 239.132151 
L 424.437118 229.941887 
L 425.013214 213.328278 
L 425.580711 222.300879 
L 426.156808 224.340947 
L 426.732904 229.088302 
L 427.300402 228.172121 
L 427.876498 229.779706 
L 428.452594 225.082143 
L 429.020092 224.084871 
L 429.596188 227.8378 
L 430.172284 226.132052 
L 431.315878 242.882235 
L 431.891974 230.236373 
L 432.459472 230.351607 
L 433.035568 228.233294 
L 433.611664 241.63031 
L 434.179162 208.413051 
L 434.763856 205.071266 
L 435.331354 222.255354 
L 435.898852 224.77912 
L 436.474948 229.772592 
L 437.051044 233.114377 
L 437.618542 228.542007 
L 438.194638 222.537037 
L 438.770734 218.17095 
L 439.338232 222.935377 
L 439.922926 224.201528 
L 440.490424 232.697543 
L 441.057922 244.39308 
L 441.642616 231.902287 
L 442.210114 231.03163 
L 442.777612 237.242883 
L 443.353708 228.472298 
L 443.929804 222.623818 
L 444.497302 214.499112 
L 445.073398 225.959913 
L 445.649494 227.74106 
L 446.216992 227.034007 
L 446.793088 235.286751 
L 447.369184 234.177091 
L 447.936682 228.048351 
L 448.521376 218.873735 
L 449.088874 220.744509 
L 449.656372 221.211135 
L 450.808564 239.779453 
L 451.376062 226.73952 
L 451.952158 234.107381 
L 452.528254 236.140336 
L 453.671848 217.31452 
L 454.247944 220.148422 
L 454.815442 226.06092 
L 455.400136 236.53014 
L 455.967634 229.645977 
L 456.535132 230.215034 
L 457.119826 228.56477 
L 457.687324 226.501939 
L 458.254822 234.380528 
L 458.830918 228.22049 
L 459.407014 234.508566 
L 459.974512 242.687333 
L 460.559206 236.500264 
L 461.126704 224.288309 
L 461.694202 237.210163 
L 462.270298 233.192623 
L 462.846394 227.637207 
L 463.413892 217.995965 
L 463.989988 226.803539 
L 464.566084 230.115449 
L 465.133582 230.018709 
L 465.718276 231.883792 
L 466.285774 235.175785 
L 466.853272 226.193226 
L 468.005464 211.618263 
L 468.572962 227.595951 
L 469.157656 238.363925 
L 469.725154 241.728472 
L 470.292652 232.283555 
L 470.868748 239.662797 
L 471.444844 229.442539 
L 472.588438 220.706097 
L 473.164534 220.020384 
L 473.732032 226.834837 
L 474.308128 226.351139 
L 474.884224 235.315204 
L 475.451722 236.338083 
L 476.603914 225.914388 
L 477.171412 216.657259 
L 477.756107 232.548166 
L 478.323604 233.047513 
L 478.891102 235.359306 
L 479.475797 233.949468 
L 480.043294 232.057355 
L 480.610792 234.216925 
L 481.186888 231.300509 
L 481.762984 221.320679 
L 482.330482 217.328746 
L 482.906578 219.582211 
L 483.482674 227.66566 
L 484.050172 230.680238 
L 484.626268 235.086159 
L 485.202364 233.342 
L 485.769862 228.946038 
L 486.345958 222.165728 
L 486.922054 218.296143 
L 487.489552 232.206732 
L 488.065648 235.012181 
L 488.641744 238.429366 
L 489.209242 240.664336 
L 489.793937 235.871457 
L 490.361434 242.040031 
L 491.513627 208.330538 
L 492.081124 216.551984 
L 492.648622 221.541188 
L 493.233317 231.116989 
L 493.800814 228.394053 
L 494.368312 227.769513 
L 494.944408 225.555883 
L 495.520504 219.07575 
L 496.088002 222.871358 
L 496.664098 216.995848 
L 497.240194 233.76737 
L 497.807692 242.947676 
L 498.392387 232.949351 
L 498.959884 218.722935 
L 499.527382 228.453804 
L 500.112077 221.620856 
L 501.247072 204.742636 
L 501.823168 217.818135 
L 502.399264 220.043146 
L 502.966762 223.086177 
L 503.551457 229.633173 
L 504.118954 227.658547 
L 504.686452 222.474441 
L 505.271147 215.732542 
L 505.838644 223.063415 
L 506.406142 220.115701 
L 506.982238 220.844094 
L 507.558334 234.682129 
L 508.125832 228.388362 
L 508.710527 228.221913 
L 509.278024 226.230215 
L 509.845522 224.818954 
L 510.430217 212.92567 
L 510.997714 204.85787 
L 512.141308 228.017053 
L 512.717404 224.406388 
L 513.869597 230.933468 
L 514.437095 228.39263 
L 515.004592 218.896497 
L 515.580688 224.548652 
L 516.156785 214.846237 
L 516.724282 224.005203 
L 517.300378 227.896128 
L 517.876475 226.076569 
L 518.443972 218.515229 
L 519.020068 227.950188 
L 519.596165 225.83472 
L 520.163662 219.637694 
L 520.748357 201.7181 
L 521.315855 217.469588 
L 521.883352 212.944165 
L 522.459448 225.329683 
L 523.035545 228.113792 
L 523.603042 230.293279 
L 524.187737 224.754935 
L 524.755235 218.280493 
L 525.322732 225.110596 
L 525.898828 213.466274 
L 526.474925 228.046928 
L 527.042422 234.232574 
L 527.618518 221.66069 
L 528.194615 218.940599 
L 528.762112 230.273362 
L 529.346807 225.434958 
L 529.914305 211.386372 
L 530.481802 207.117025 
L 531.066497 225.513203 
L 531.633995 222.804494 
L 532.201492 227.220373 
L 532.786187 229.752675 
L 533.921182 220.304912 
L 534.505877 224.383626 
L 535.073375 231.282015 
L 535.649471 217.284644 
L 536.793065 240.152185 
L 537.360562 224.02512 
L 537.936659 219.715939 
L 538.512755 218.358739 
L 539.080252 217.949018 
L 539.656349 209.313583 
L 540.232445 205.441153 
L 540.799942 221.765965 
L 541.376039 222.165728 
L 541.952135 229.327306 
L 542.528231 227.292928 
L 543.095729 224.494592 
L 543.671825 220.016116 
L 544.239322 221.011965 
L 544.815419 219.030226 
L 545.382916 223.899928 
L 545.959012 233.676321 
L 546.535109 233.642177 
L 547.102606 213.979848 
L 548.254799 231.227955 
L 548.830895 223.403426 
L 549.398392 212.860229 
L 549.974489 209.659285 
L 550.550585 221.646464 
L 551.118083 224.870169 
L 551.694179 226.009705 
L 552.270275 228.909049 
L 552.837773 229.708573 
L 553.413869 222.029154 
L 553.989965 222.537037 
L 554.557463 212.786252 
L 555.133559 228.293045 
L 555.709655 236.574242 
L 556.853249 224.377935 
L 557.429345 232.107147 
L 557.996843 232.176857 
L 559.149035 213.912984 
L 559.716533 207.816964 
L 560.301227 224.9726 
L 560.868725 222.589675 
L 561.436223 223.505856 
L 562.012319 226.652739 
L 562.588415 228.055464 
L 563.155913 227.800811 
L 563.740607 225.471947 
L 564.308105 223.857249 
L 564.875603 218.998927 
L 565.451699 232.755872 
L 566.027795 235.003646 
L 566.595293 226.861868 
L 567.179987 213.524603 
L 567.747485 229.641709 
L 568.314983 228.781011 
L 568.891079 234.04194 
L 569.467175 188.827544 
L 570.034673 202.952953 
L 570.610769 223.783271 
L 571.186865 225.154698 
L 571.754363 229.988834 
L 572.330459 231.693158 
L 572.906555 229.2704 
L 573.474053 225.163234 
L 574.050149 225.792041 
L 574.617647 217.613275 
L 575.193743 231.738683 
L 575.769839 238.304174 
L 576.345935 221.891158 
L 576.913433 223.559916 
L 577.498127 228.442422 
L 578.065625 227.177694 
L 578.633123 214.85335 
L 579.209219 205.678734 
L 579.785315 213.629878 
L 580.352813 224.616939 
L 580.928909 224.588486 
L 581.505005 227.43946 
L 582.072503 230.892211 
L 582.648599 224.441954 
L 583.224695 221.553992 
L 583.792193 222.485822 
L 584.368289 216.125191 
L 584.944385 227.092336 
L 585.511883 241.089706 
L 586.096577 232.202464 
L 586.664075 217.618965 
L 587.231573 227.467913 
L 587.807669 223.312377 
L 588.383765 221.820026 
L 588.951263 210.593961 
L 589.527359 203.578915 
L 590.103455 223.639584 
L 590.670953 229.0442 
L 591.247049 229.867909 
L 591.823145 228.103834 
L 592.390643 231.145441 
L 592.966739 226.553154 
L 593.542835 219.876697 
L 594.110333 223.537154 
L 594.695027 218.815407 
L 595.262525 228.093875 
L 595.830023 240.571865 
L 596.414717 227.300041 
L 596.982215 222.500048 
L 597.549713 232.556702 
L 598.125809 230.075615 
L 599.269403 211.699353 
L 599.845499 220.589441 
L 600.421595 219.782803 
L 600.989093 227.19192 
L 601.573788 226.295656 
L 602.141285 233.349113 
L 602.708783 233.194045 
L 603.284879 219.442792 
L 603.860975 220.437218 
L 604.428473 215.294369 
L 605.580665 241.680103 
L 606.732858 224.123283 
L 607.300355 230.650362 
L 607.867853 234.080351 
L 608.443949 215.770954 
L 609.020045 207.893787 
L 609.587543 220.223822 
L 610.172238 218.594897 
L 610.739735 227.551849 
L 611.307233 230.759906 
L 611.891928 231.639098 
L 612.459425 226.756592 
L 613.035521 226.674079 
L 613.611618 224.643969 
L 614.179115 223.333716 
L 614.746613 230.061389 
L 615.322709 232.142713 
L 615.898805 237.797714 
L 616.466303 232.445736 
L 617.042399 237.248574 
L 617.618495 239.210397 
L 618.185993 225.665426 
L 618.762089 219.088554 
L 619.338185 219.155418 
L 619.905683 231.186698 
L 620.481779 228.079649 
L 621.057875 228.470875 
L 621.625373 229.993102 
L 622.201469 230.461151 
L 622.777565 228.499328 
L 623.345063 223.299573 
L 623.921159 227.800811 
L 624.497255 226.721026 
L 625.073352 239.031144 
L 625.649448 238.722431 
L 626.216945 227.927426 
L 626.784443 225.092101 
L 627.360539 235.643834 
L 627.936635 233.697661 
L 628.504133 220.70752 
L 629.080229 216.024184 
L 630.799919 228.11806 
L 631.376015 226.645626 
L 631.943513 227.968683 
L 632.528208 231.172472 
L 633.095705 226.113558 
L 633.663203 226.642781 
L 634.247898 230.563581 
L 634.815395 226.584453 
L 635.382893 235.205661 
L 635.958989 240.413952 
L 636.535086 228.113792 
L 637.102583 228.840762 
L 637.678679 233.761679 
L 638.254776 232.79286 
L 638.822273 222.211252 
L 639.406968 217.724241 
L 639.974466 219.885233 
L 640.541963 227.375441 
L 641.126658 233.024751 
L 641.694156 230.779823 
L 642.846348 234.39191 
L 643.413846 227.71403 
L 643.981343 225.762166 
L 644.566038 228.244675 
L 645.124937 227.739637 
L 645.701033 237.008148 
L 646.285728 242.741393 
L 646.853226 226.124939 
L 647.429322 222.165728 
L 647.996819 232.775789 
L 648.572916 227.378287 
L 649.140413 235.562744 
L 649.725108 233.750298 
L 650.292606 222.909769 
L 650.860103 218.966207 
L 651.444798 228.056887 
L 652.012296 214.622882 
L 652.579793 221.171301 
L 653.164488 223.89566 
L 653.731986 225.288426 
L 654.299483 228.971645 
L 654.884178 237.867423 
L 655.451676 224.548652 
L 656.019173 233.290785 
L 656.603868 235.067664 
L 657.171366 240.806601 
L 657.738863 232.812777 
L 658.323558 230.940581 
L 658.891056 224.340947 
L 659.467152 229.87929 
L 660.03465 227.231754 
L 660.610746 227.957302 
L 661.178243 223.951143 
L 661.75434 225.591449 
L 662.330436 228.610294 
L 662.897933 227.81646 
L 663.482628 228.89909 
L 664.050126 231.190966 
L 664.617623 232.972113 
L 665.19372 229.637441 
L 665.769816 232.718883 
L 666.337313 228.159317 
L 666.922008 230.895057 
L 667.489506 228.852143 
L 668.057003 230.404245 
L 668.6331 228.994407 
L 669.209196 223.484516 
L 669.776693 225.183151 
L 670.361388 224.057841 
L 670.928886 226.116403 
L 671.496383 225.595717 
L 672.081078 228.477988 
L 672.648576 227.371173 
L 673.216074 227.853449 
L 673.800768 228.771053 
L 674.368266 226.173309 
L 674.935764 226.837683 
L 675.520458 226.73952 
L 676.087956 226.880362 
L 676.655454 226.291388 
L 677.240148 223.467445 
L 677.807646 225.885935 
L 678.375144 225.658313 
L 678.959838 226.570226 
L 679.527336 225.211603 
L 680.094834 226.867558 
L 680.679528 225.942841 
L 681.247026 226.275739 
L 681.814524 226.994173 
L 682.966716 225.582913 
L 683.534214 225.695302 
L 684.118908 227.169158 
L 684.686406 224.422037 
L 685.253904 224.346637 
L 685.83 226.638513 
L 686.406096 225.617056 
L 686.973594 223.865784 
L 687.54969 225.981252 
L 688.125786 225.83472 
L 688.693284 224.257011 
L 689.277978 223.69649 
L 689.845476 226.503362 
L 690.412974 228.458071 
L 690.98907 223.690799 
L 691.565166 223.588369 
L 692.132664 226.008283 
L 692.717358 224.689494 
L 693.284856 224.379358 
L 693.852354 225.792041 
L 694.42845 226.349717 
L 695.004546 224.533003 
L 695.572044 227.281547 
L 696.14814 221.75743 
L 696.724236 227.436615 
L 697.291734 227.668505 
L 697.86783 225.001052 
L 698.443926 220.283573 
L 699.011424 222.222633 
L 699.58752 227.547581 
L 700.163616 224.723637 
L 700.731114 222.53846 
L 701.315808 227.678464 
L 701.883306 222.482977 
L 702.450804 225.436381 
L 703.035498 227.661392 
L 703.602996 225.723754 
L 704.170494 222.758969 
L 704.74659 226.250132 
L 705.322686 225.907275 
L 705.890184 223.716407 
L 706.46628 226.972834 
L 707.042376 227.494943 
L 707.609874 214.087969 
L 708.762066 160.977912 
L 709.329564 176.604208 
L 709.90566 134.622054 
L 710.481756 173.760347 
L 711.049254 186.278171 
L 711.633948 188.063586 
L 712.201446 182.695959 
L 712.768944 169.904988 
L 713.34504 163.675241 
L 713.921136 162.167241 
L 715.06473 171.616426 
L 715.640826 131.616012 
L 716.208324 162.171509 
L 716.208324 162.171509 
" style="fill:none;stroke:#2ca02c;stroke-linecap:square;stroke-width:1.5;"/>
   </g>
   <g id="legend_1">
    <g id="patch_3">
     <path d="M 674.774688 97.293594 
L 735.444687 97.293594 
Q 738.644687 97.293594 738.644687 94.093594 
L 738.644687 25.238594 
Q 738.644687 22.038594 735.444687 22.038594 
L 674.774688 22.038594 
Q 671.574687 22.038594 671.574687 25.238594 
L 671.574687 94.093594 
Q 671.574687 97.293594 674.774688 97.293594 
z
" style="fill:#ffffff;opacity:0.4;stroke:#cccccc;stroke-linejoin:miter;"/>
    </g>
    <g id="line2d_20">
     <path d="M 677.974687 34.996094 
L 709.974687 34.996094 
" style="fill:none;stroke:#1f77b4;stroke-linecap:square;stroke-width:1.5;"/>
    </g>
    <g id="line2d_21"/>
    <g id="text_19">
     <!-- x -->
     <defs>
      <path d="M 54.890625 54.6875 
L 35.109375 28.078125 
L 55.90625 0 
L 45.3125 0 
L 29.390625 21.484375 
L 13.484375 0 
L 2.875 0 
L 24.125 28.609375 
L 4.6875 54.6875 
L 15.28125 54.6875 
L 29.78125 35.203125 
L 44.28125 54.6875 
z
" id="DejaVuSans-120"/>
     </defs>
     <g transform="translate(722.774687 40.596094)scale(0.16 -0.16)">
      <use xlink:href="#DejaVuSans-120"/>
     </g>
    </g>
    <g id="line2d_22">
     <path d="M 677.974687 58.481094 
L 709.974687 58.481094 
" style="fill:none;stroke:#ff7f0e;stroke-linecap:square;stroke-width:1.5;"/>
    </g>
    <g id="line2d_23"/>
    <g id="text_20">
     <!-- y -->
     <defs>
      <path d="M 32.171875 -5.078125 
Q 28.375 -14.84375 24.75 -17.8125 
Q 21.140625 -20.796875 15.09375 -20.796875 
L 7.90625 -20.796875 
L 7.90625 -13.28125 
L 13.1875 -13.28125 
Q 16.890625 -13.28125 18.9375 -11.515625 
Q 21 -9.765625 23.484375 -3.21875 
L 25.09375 0.875 
L 2.984375 54.6875 
L 12.5 54.6875 
L 29.59375 11.921875 
L 46.6875 54.6875 
L 56.203125 54.6875 
z
" id="DejaVuSans-121"/>
     </defs>
     <g transform="translate(722.774687 64.081094)scale(0.16 -0.16)">
      <use xlink:href="#DejaVuSans-121"/>
     </g>
    </g>
    <g id="line2d_24">
     <path d="M 677.974687 81.966094 
L 709.974687 81.966094 
" style="fill:none;stroke:#2ca02c;stroke-linecap:square;stroke-width:1.5;"/>
    </g>
    <g id="line2d_25"/>
    <g id="text_21">
     <!-- z -->
     <defs>
      <path d="M 5.515625 54.6875 
L 48.1875 54.6875 
L 48.1875 46.484375 
L 14.40625 7.171875 
L 48.1875 7.171875 
L 48.1875 0 
L 4.296875 0 
L 4.296875 8.203125 
L 38.09375 47.515625 
L 5.515625 47.515625 
z
" id="DejaVuSans-122"/>
     </defs>
     <g transform="translate(722.774687 87.566094)scale(0.16 -0.16)">
      <use xlink:href="#DejaVuSans-122"/>
     </g>
    </g>
   </g>
  </g>
 </g>
 <defs>
  <clipPath id="pafb03812f7">
   <rect height="332.64" width="669.6" x="77.044688" y="14.038594"/>
  </clipPath>
 </defs>
</svg>
