<?xml version="1.0" encoding="utf-8" standalone="no"?>
<!DOCTYPE svg PUBLIC "-//W3C//DTD SVG 1.1//EN"
  "http://www.w3.org/Graphics/SVG/1.1/DTD/svg11.dtd">
<!-- Created with matplotlib (https://matplotlib.org/) -->
<svg height="401.316875pt" version="1.1" viewBox="0 0 760.31978 401.316875" width="760.31978pt" xmlns="http://www.w3.org/2000/svg" xmlns:xlink="http://www.w3.org/1999/xlink">
 <defs>
  <style type="text/css">
*{stroke-linecap:butt;stroke-linejoin:round;}
  </style>
 </defs>
 <g id="figure_1">
  <g id="patch_1">
   <path d="M 0 401.316875 
L 760.31978 401.316875 
L 760.31978 0 
L 0 0 
z
" style="fill:#ffffff;"/>
  </g>
  <g id="axes_1">
   <g id="patch_2">
    <path d="M 61.96125 344.84 
L 731.56125 344.84 
L 731.56125 12.2 
L 61.96125 12.2 
z
" style="fill:#ffffff;"/>
   </g>
   <g id="matplotlib.axis_1">
    <g id="xtick_1">
     <g id="line2d_1">
      <defs>
       <path d="M 0 5 
L 0 -5 
" id="m0a294af5ef" style="stroke:#525252;stroke-width:4;"/>
      </defs>
      <g>
       <use style="fill:#525252;stroke:#525252;stroke-width:4;" x="113.674309" xlink:href="#m0a294af5ef" y="344.84"/>
      </g>
     </g>
     <g id="text_1">
      <!-- 10000 -->
      <defs>
       <path d="M 12.40625 8.296875 
L 28.515625 8.296875 
L 28.515625 63.921875 
L 10.984375 60.40625 
L 10.984375 69.390625 
L 28.421875 72.90625 
L 38.28125 72.90625 
L 38.28125 8.296875 
L 54.390625 8.296875 
L 54.390625 0 
L 12.40625 0 
z
" id="DejaVuSans-49"/>
       <path d="M 31.78125 66.40625 
Q 24.171875 66.40625 20.328125 58.90625 
Q 16.5 51.421875 16.5 36.375 
Q 16.5 21.390625 20.328125 13.890625 
Q 24.171875 6.390625 31.78125 6.390625 
Q 39.453125 6.390625 43.28125 13.890625 
Q 47.125 21.390625 47.125 36.375 
Q 47.125 51.421875 43.28125 58.90625 
Q 39.453125 66.40625 31.78125 66.40625 
z
M 31.78125 74.21875 
Q 44.046875 74.21875 50.515625 64.515625 
Q 56.984375 54.828125 56.984375 36.375 
Q 56.984375 17.96875 50.515625 8.265625 
Q 44.046875 -1.421875 31.78125 -1.421875 
Q 19.53125 -1.421875 13.0625 8.265625 
Q 6.59375 17.96875 6.59375 36.375 
Q 6.59375 54.828125 13.0625 64.515625 
Q 19.53125 74.21875 31.78125 74.21875 
z
" id="DejaVuSans-48"/>
      </defs>
      <g transform="translate(85.043059 367.017187)scale(0.18 -0.18)">
       <use xlink:href="#DejaVuSans-49"/>
       <use x="63.623047" xlink:href="#DejaVuSans-48"/>
       <use x="127.246094" xlink:href="#DejaVuSans-48"/>
       <use x="190.869141" xlink:href="#DejaVuSans-48"/>
       <use x="254.492188" xlink:href="#DejaVuSans-48"/>
      </g>
     </g>
    </g>
    <g id="xtick_2">
     <g id="line2d_2">
      <g>
       <use style="fill:#525252;stroke:#525252;stroke-width:4;" x="215.476679" xlink:href="#m0a294af5ef" y="344.84"/>
      </g>
     </g>
     <g id="text_2">
      <!-- 20000 -->
      <defs>
       <path d="M 19.1875 8.296875 
L 53.609375 8.296875 
L 53.609375 0 
L 7.328125 0 
L 7.328125 8.296875 
Q 12.9375 14.109375 22.625 23.890625 
Q 32.328125 33.6875 34.8125 36.53125 
Q 39.546875 41.84375 41.421875 45.53125 
Q 43.3125 49.21875 43.3125 52.78125 
Q 43.3125 58.59375 39.234375 62.25 
Q 35.15625 65.921875 28.609375 65.921875 
Q 23.96875 65.921875 18.8125 64.3125 
Q 13.671875 62.703125 7.8125 59.421875 
L 7.8125 69.390625 
Q 13.765625 71.78125 18.9375 73 
Q 24.125 74.21875 28.421875 74.21875 
Q 39.75 74.21875 46.484375 68.546875 
Q 53.21875 62.890625 53.21875 53.421875 
Q 53.21875 48.921875 51.53125 44.890625 
Q 49.859375 40.875 45.40625 35.40625 
Q 44.1875 33.984375 37.640625 27.21875 
Q 31.109375 20.453125 19.1875 8.296875 
z
" id="DejaVuSans-50"/>
      </defs>
      <g transform="translate(186.845429 367.017187)scale(0.18 -0.18)">
       <use xlink:href="#DejaVuSans-50"/>
       <use x="63.623047" xlink:href="#DejaVuSans-48"/>
       <use x="127.246094" xlink:href="#DejaVuSans-48"/>
       <use x="190.869141" xlink:href="#DejaVuSans-48"/>
       <use x="254.492188" xlink:href="#DejaVuSans-48"/>
      </g>
     </g>
    </g>
    <g id="xtick_3">
     <g id="line2d_3">
      <g>
       <use style="fill:#525252;stroke:#525252;stroke-width:4;" x="317.279049" xlink:href="#m0a294af5ef" y="344.84"/>
      </g>
     </g>
     <g id="text_3">
      <!-- 30000 -->
      <defs>
       <path d="M 40.578125 39.3125 
Q 47.65625 37.796875 51.625 33 
Q 55.609375 28.21875 55.609375 21.1875 
Q 55.609375 10.40625 48.1875 4.484375 
Q 40.765625 -1.421875 27.09375 -1.421875 
Q 22.515625 -1.421875 17.65625 -0.515625 
Q 12.796875 0.390625 7.625 2.203125 
L 7.625 11.71875 
Q 11.71875 9.328125 16.59375 8.109375 
Q 21.484375 6.890625 26.8125 6.890625 
Q 36.078125 6.890625 40.9375 10.546875 
Q 45.796875 14.203125 45.796875 21.1875 
Q 45.796875 27.640625 41.28125 31.265625 
Q 36.765625 34.90625 28.71875 34.90625 
L 20.21875 34.90625 
L 20.21875 43.015625 
L 29.109375 43.015625 
Q 36.375 43.015625 40.234375 45.921875 
Q 44.09375 48.828125 44.09375 54.296875 
Q 44.09375 59.90625 40.109375 62.90625 
Q 36.140625 65.921875 28.71875 65.921875 
Q 24.65625 65.921875 20.015625 65.03125 
Q 15.375 64.15625 9.8125 62.3125 
L 9.8125 71.09375 
Q 15.4375 72.65625 20.34375 73.4375 
Q 25.25 74.21875 29.59375 74.21875 
Q 40.828125 74.21875 47.359375 69.109375 
Q 53.90625 64.015625 53.90625 55.328125 
Q 53.90625 49.265625 50.4375 45.09375 
Q 46.96875 40.921875 40.578125 39.3125 
z
" id="DejaVuSans-51"/>
      </defs>
      <g transform="translate(288.647799 367.017187)scale(0.18 -0.18)">
       <use xlink:href="#DejaVuSans-51"/>
       <use x="63.623047" xlink:href="#DejaVuSans-48"/>
       <use x="127.246094" xlink:href="#DejaVuSans-48"/>
       <use x="190.869141" xlink:href="#DejaVuSans-48"/>
       <use x="254.492188" xlink:href="#DejaVuSans-48"/>
      </g>
     </g>
    </g>
    <g id="xtick_4">
     <g id="line2d_4">
      <g>
       <use style="fill:#525252;stroke:#525252;stroke-width:4;" x="419.08142" xlink:href="#m0a294af5ef" y="344.84"/>
      </g>
     </g>
     <g id="text_4">
      <!-- 40000 -->
      <defs>
       <path d="M 37.796875 64.3125 
L 12.890625 25.390625 
L 37.796875 25.390625 
z
M 35.203125 72.90625 
L 47.609375 72.90625 
L 47.609375 25.390625 
L 58.015625 25.390625 
L 58.015625 17.1875 
L 47.609375 17.1875 
L 47.609375 0 
L 37.796875 0 
L 37.796875 17.1875 
L 4.890625 17.1875 
L 4.890625 26.703125 
z
" id="DejaVuSans-52"/>
      </defs>
      <g transform="translate(390.45017 367.017187)scale(0.18 -0.18)">
       <use xlink:href="#DejaVuSans-52"/>
       <use x="63.623047" xlink:href="#DejaVuSans-48"/>
       <use x="127.246094" xlink:href="#DejaVuSans-48"/>
       <use x="190.869141" xlink:href="#DejaVuSans-48"/>
       <use x="254.492188" xlink:href="#DejaVuSans-48"/>
      </g>
     </g>
    </g>
    <g id="xtick_5">
     <g id="line2d_5">
      <g>
       <use style="fill:#525252;stroke:#525252;stroke-width:4;" x="520.88379" xlink:href="#m0a294af5ef" y="344.84"/>
      </g>
     </g>
     <g id="text_5">
      <!-- 50000 -->
      <defs>
       <path d="M 10.796875 72.90625 
L 49.515625 72.90625 
L 49.515625 64.59375 
L 19.828125 64.59375 
L 19.828125 46.734375 
Q 21.96875 47.46875 24.109375 47.828125 
Q 26.265625 48.1875 28.421875 48.1875 
Q 40.625 48.1875 47.75 41.5 
Q 54.890625 34.8125 54.890625 23.390625 
Q 54.890625 11.625 47.5625 5.09375 
Q 40.234375 -1.421875 26.90625 -1.421875 
Q 22.3125 -1.421875 17.546875 -0.640625 
Q 12.796875 0.140625 7.71875 1.703125 
L 7.71875 11.625 
Q 12.109375 9.234375 16.796875 8.0625 
Q 21.484375 6.890625 26.703125 6.890625 
Q 35.15625 6.890625 40.078125 11.328125 
Q 45.015625 15.765625 45.015625 23.390625 
Q 45.015625 31 40.078125 35.4375 
Q 35.15625 39.890625 26.703125 39.890625 
Q 22.75 39.890625 18.8125 39.015625 
Q 14.890625 38.140625 10.796875 36.28125 
z
" id="DejaVuSans-53"/>
      </defs>
      <g transform="translate(492.25254 367.017187)scale(0.18 -0.18)">
       <use xlink:href="#DejaVuSans-53"/>
       <use x="63.623047" xlink:href="#DejaVuSans-48"/>
       <use x="127.246094" xlink:href="#DejaVuSans-48"/>
       <use x="190.869141" xlink:href="#DejaVuSans-48"/>
       <use x="254.492188" xlink:href="#DejaVuSans-48"/>
      </g>
     </g>
    </g>
    <g id="xtick_6">
     <g id="line2d_6">
      <g>
       <use style="fill:#525252;stroke:#525252;stroke-width:4;" x="622.68616" xlink:href="#m0a294af5ef" y="344.84"/>
      </g>
     </g>
     <g id="text_6">
      <!-- 60000 -->
      <defs>
       <path d="M 33.015625 40.375 
Q 26.375 40.375 22.484375 35.828125 
Q 18.609375 31.296875 18.609375 23.390625 
Q 18.609375 15.53125 22.484375 10.953125 
Q 26.375 6.390625 33.015625 6.390625 
Q 39.65625 6.390625 43.53125 10.953125 
Q 47.40625 15.53125 47.40625 23.390625 
Q 47.40625 31.296875 43.53125 35.828125 
Q 39.65625 40.375 33.015625 40.375 
z
M 52.59375 71.296875 
L 52.59375 62.3125 
Q 48.875 64.0625 45.09375 64.984375 
Q 41.3125 65.921875 37.59375 65.921875 
Q 27.828125 65.921875 22.671875 59.328125 
Q 17.53125 52.734375 16.796875 39.40625 
Q 19.671875 43.65625 24.015625 45.921875 
Q 28.375 48.1875 33.59375 48.1875 
Q 44.578125 48.1875 50.953125 41.515625 
Q 57.328125 34.859375 57.328125 23.390625 
Q 57.328125 12.15625 50.6875 5.359375 
Q 44.046875 -1.421875 33.015625 -1.421875 
Q 20.359375 -1.421875 13.671875 8.265625 
Q 6.984375 17.96875 6.984375 36.375 
Q 6.984375 53.65625 15.1875 63.9375 
Q 23.390625 74.21875 37.203125 74.21875 
Q 40.921875 74.21875 44.703125 73.484375 
Q 48.484375 72.75 52.59375 71.296875 
z
" id="DejaVuSans-54"/>
      </defs>
      <g transform="translate(594.05491 367.017187)scale(0.18 -0.18)">
       <use xlink:href="#DejaVuSans-54"/>
       <use x="63.623047" xlink:href="#DejaVuSans-48"/>
       <use x="127.246094" xlink:href="#DejaVuSans-48"/>
       <use x="190.869141" xlink:href="#DejaVuSans-48"/>
       <use x="254.492188" xlink:href="#DejaVuSans-48"/>
      </g>
     </g>
    </g>
    <g id="xtick_7">
     <g id="line2d_7">
      <g>
       <use style="fill:#525252;stroke:#525252;stroke-width:4;" x="724.48853" xlink:href="#m0a294af5ef" y="344.84"/>
      </g>
     </g>
     <g id="text_7">
      <!-- 70000 -->
      <defs>
       <path d="M 8.203125 72.90625 
L 55.078125 72.90625 
L 55.078125 68.703125 
L 28.609375 0 
L 18.3125 0 
L 43.21875 64.59375 
L 8.203125 64.59375 
z
" id="DejaVuSans-55"/>
      </defs>
      <g transform="translate(695.85728 367.017187)scale(0.18 -0.18)">
       <use xlink:href="#DejaVuSans-55"/>
       <use x="63.623047" xlink:href="#DejaVuSans-48"/>
       <use x="127.246094" xlink:href="#DejaVuSans-48"/>
       <use x="190.869141" xlink:href="#DejaVuSans-48"/>
       <use x="254.492188" xlink:href="#DejaVuSans-48"/>
      </g>
     </g>
    </g>
    <g id="text_8">
     <!-- Time (ms) -->
     <defs>
      <path d="M -0.296875 72.90625 
L 61.375 72.90625 
L 61.375 64.59375 
L 35.5 64.59375 
L 35.5 0 
L 25.59375 0 
L 25.59375 64.59375 
L -0.296875 64.59375 
z
" id="DejaVuSans-84"/>
      <path d="M 9.421875 54.6875 
L 18.40625 54.6875 
L 18.40625 0 
L 9.421875 0 
z
M 9.421875 75.984375 
L 18.40625 75.984375 
L 18.40625 64.59375 
L 9.421875 64.59375 
z
" id="DejaVuSans-105"/>
      <path d="M 52 44.1875 
Q 55.375 50.25 60.0625 53.125 
Q 64.75 56 71.09375 56 
Q 79.640625 56 84.28125 50.015625 
Q 88.921875 44.046875 88.921875 33.015625 
L 88.921875 0 
L 79.890625 0 
L 79.890625 32.71875 
Q 79.890625 40.578125 77.09375 44.375 
Q 74.3125 48.1875 68.609375 48.1875 
Q 61.625 48.1875 57.5625 43.546875 
Q 53.515625 38.921875 53.515625 30.90625 
L 53.515625 0 
L 44.484375 0 
L 44.484375 32.71875 
Q 44.484375 40.625 41.703125 44.40625 
Q 38.921875 48.1875 33.109375 48.1875 
Q 26.21875 48.1875 22.15625 43.53125 
Q 18.109375 38.875 18.109375 30.90625 
L 18.109375 0 
L 9.078125 0 
L 9.078125 54.6875 
L 18.109375 54.6875 
L 18.109375 46.1875 
Q 21.1875 51.21875 25.484375 53.609375 
Q 29.78125 56 35.6875 56 
Q 41.65625 56 45.828125 52.96875 
Q 50 49.953125 52 44.1875 
z
" id="DejaVuSans-109"/>
      <path d="M 56.203125 29.59375 
L 56.203125 25.203125 
L 14.890625 25.203125 
Q 15.484375 15.921875 20.484375 11.0625 
Q 25.484375 6.203125 34.421875 6.203125 
Q 39.59375 6.203125 44.453125 7.46875 
Q 49.3125 8.734375 54.109375 11.28125 
L 54.109375 2.78125 
Q 49.265625 0.734375 44.1875 -0.34375 
Q 39.109375 -1.421875 33.890625 -1.421875 
Q 20.796875 -1.421875 13.15625 6.1875 
Q 5.515625 13.8125 5.515625 26.8125 
Q 5.515625 40.234375 12.765625 48.109375 
Q 20.015625 56 32.328125 56 
Q 43.359375 56 49.78125 48.890625 
Q 56.203125 41.796875 56.203125 29.59375 
z
M 47.21875 32.234375 
Q 47.125 39.59375 43.09375 43.984375 
Q 39.0625 48.390625 32.421875 48.390625 
Q 24.90625 48.390625 20.390625 44.140625 
Q 15.875 39.890625 15.1875 32.171875 
z
" id="DejaVuSans-101"/>
      <path id="DejaVuSans-32"/>
      <path d="M 31 75.875 
Q 24.46875 64.65625 21.28125 53.65625 
Q 18.109375 42.671875 18.109375 31.390625 
Q 18.109375 20.125 21.3125 9.0625 
Q 24.515625 -2 31 -13.1875 
L 23.1875 -13.1875 
Q 15.875 -1.703125 12.234375 9.375 
Q 8.59375 20.453125 8.59375 31.390625 
Q 8.59375 42.28125 12.203125 53.3125 
Q 15.828125 64.359375 23.1875 75.875 
z
" id="DejaVuSans-40"/>
      <path d="M 44.28125 53.078125 
L 44.28125 44.578125 
Q 40.484375 46.53125 36.375 47.5 
Q 32.28125 48.484375 27.875 48.484375 
Q 21.1875 48.484375 17.84375 46.4375 
Q 14.5 44.390625 14.5 40.28125 
Q 14.5 37.15625 16.890625 35.375 
Q 19.28125 33.59375 26.515625 31.984375 
L 29.59375 31.296875 
Q 39.15625 29.25 43.1875 25.515625 
Q 47.21875 21.78125 47.21875 15.09375 
Q 47.21875 7.46875 41.1875 3.015625 
Q 35.15625 -1.421875 24.609375 -1.421875 
Q 20.21875 -1.421875 15.453125 -0.5625 
Q 10.6875 0.296875 5.421875 2 
L 5.421875 11.28125 
Q 10.40625 8.6875 15.234375 7.390625 
Q 20.0625 6.109375 24.8125 6.109375 
Q 31.15625 6.109375 34.5625 8.28125 
Q 37.984375 10.453125 37.984375 14.40625 
Q 37.984375 18.0625 35.515625 20.015625 
Q 33.0625 21.96875 24.703125 23.78125 
L 21.578125 24.515625 
Q 13.234375 26.265625 9.515625 29.90625 
Q 5.8125 33.546875 5.8125 39.890625 
Q 5.8125 47.609375 11.28125 51.796875 
Q 16.75 56 26.8125 56 
Q 31.78125 56 36.171875 55.265625 
Q 40.578125 54.546875 44.28125 53.078125 
z
" id="DejaVuSans-115"/>
      <path d="M 8.015625 75.875 
L 15.828125 75.875 
Q 23.140625 64.359375 26.78125 53.3125 
Q 30.421875 42.28125 30.421875 31.390625 
Q 30.421875 20.453125 26.78125 9.375 
Q 23.140625 -1.703125 15.828125 -13.1875 
L 8.015625 -13.1875 
Q 14.5 -2 17.703125 9.0625 
Q 20.90625 20.125 20.90625 31.390625 
Q 20.90625 42.671875 17.703125 53.65625 
Q 14.5 64.65625 8.015625 75.875 
z
" id="DejaVuSans-41"/>
     </defs>
     <g transform="translate(346.055 389.9575)scale(0.2 -0.2)">
      <use xlink:href="#DejaVuSans-84"/>
      <use x="61.037109" xlink:href="#DejaVuSans-105"/>
      <use x="88.820312" xlink:href="#DejaVuSans-109"/>
      <use x="186.232422" xlink:href="#DejaVuSans-101"/>
      <use x="247.755859" xlink:href="#DejaVuSans-32"/>
      <use x="279.542969" xlink:href="#DejaVuSans-40"/>
      <use x="318.556641" xlink:href="#DejaVuSans-109"/>
      <use x="415.96875" xlink:href="#DejaVuSans-115"/>
      <use x="468.068359" xlink:href="#DejaVuSans-41"/>
     </g>
    </g>
   </g>
   <g id="matplotlib.axis_2">
    <g id="ytick_1">
     <g id="line2d_8">
      <defs>
       <path d="M 5 0 
L -5 -0 
" id="mde9b2e0b95" style="stroke:#525252;stroke-width:4;"/>
      </defs>
      <g>
       <use style="fill:#525252;stroke:#525252;stroke-width:4;" x="61.96125" xlink:href="#mde9b2e0b95" y="311.576"/>
      </g>
     </g>
     <g id="text_9">
      <!-- 6 -->
      <g transform="translate(42.00875 318.414594)scale(0.18 -0.18)">
       <use xlink:href="#DejaVuSans-54"/>
      </g>
     </g>
    </g>
    <g id="ytick_2">
     <g id="line2d_9">
      <g>
       <use style="fill:#525252;stroke:#525252;stroke-width:4;" x="61.96125" xlink:href="#mde9b2e0b95" y="245.048"/>
      </g>
     </g>
     <g id="text_10">
      <!-- 8 -->
      <defs>
       <path d="M 31.78125 34.625 
Q 24.75 34.625 20.71875 30.859375 
Q 16.703125 27.09375 16.703125 20.515625 
Q 16.703125 13.921875 20.71875 10.15625 
Q 24.75 6.390625 31.78125 6.390625 
Q 38.8125 6.390625 42.859375 10.171875 
Q 46.921875 13.96875 46.921875 20.515625 
Q 46.921875 27.09375 42.890625 30.859375 
Q 38.875 34.625 31.78125 34.625 
z
M 21.921875 38.8125 
Q 15.578125 40.375 12.03125 44.71875 
Q 8.5 49.078125 8.5 55.328125 
Q 8.5 64.0625 14.71875 69.140625 
Q 20.953125 74.21875 31.78125 74.21875 
Q 42.671875 74.21875 48.875 69.140625 
Q 55.078125 64.0625 55.078125 55.328125 
Q 55.078125 49.078125 51.53125 44.71875 
Q 48 40.375 41.703125 38.8125 
Q 48.828125 37.15625 52.796875 32.3125 
Q 56.78125 27.484375 56.78125 20.515625 
Q 56.78125 9.90625 50.3125 4.234375 
Q 43.84375 -1.421875 31.78125 -1.421875 
Q 19.734375 -1.421875 13.25 4.234375 
Q 6.78125 9.90625 6.78125 20.515625 
Q 6.78125 27.484375 10.78125 32.3125 
Q 14.796875 37.15625 21.921875 38.8125 
z
M 18.3125 54.390625 
Q 18.3125 48.734375 21.84375 45.5625 
Q 25.390625 42.390625 31.78125 42.390625 
Q 38.140625 42.390625 41.71875 45.5625 
Q 45.3125 48.734375 45.3125 54.390625 
Q 45.3125 60.0625 41.71875 63.234375 
Q 38.140625 66.40625 31.78125 66.40625 
Q 25.390625 66.40625 21.84375 63.234375 
Q 18.3125 60.0625 18.3125 54.390625 
z
" id="DejaVuSans-56"/>
      </defs>
      <g transform="translate(42.00875 251.886594)scale(0.18 -0.18)">
       <use xlink:href="#DejaVuSans-56"/>
      </g>
     </g>
    </g>
    <g id="ytick_3">
     <g id="line2d_10">
      <g>
       <use style="fill:#525252;stroke:#525252;stroke-width:4;" x="61.96125" xlink:href="#mde9b2e0b95" y="178.52"/>
      </g>
     </g>
     <g id="text_11">
      <!-- 10 -->
      <g transform="translate(30.55625 185.358594)scale(0.18 -0.18)">
       <use xlink:href="#DejaVuSans-49"/>
       <use x="63.623047" xlink:href="#DejaVuSans-48"/>
      </g>
     </g>
    </g>
    <g id="ytick_4">
     <g id="line2d_11">
      <g>
       <use style="fill:#525252;stroke:#525252;stroke-width:4;" x="61.96125" xlink:href="#mde9b2e0b95" y="111.992"/>
      </g>
     </g>
     <g id="text_12">
      <!-- 12 -->
      <g transform="translate(30.55625 118.830594)scale(0.18 -0.18)">
       <use xlink:href="#DejaVuSans-49"/>
       <use x="63.623047" xlink:href="#DejaVuSans-50"/>
      </g>
     </g>
    </g>
    <g id="ytick_5">
     <g id="line2d_12">
      <g>
       <use style="fill:#525252;stroke:#525252;stroke-width:4;" x="61.96125" xlink:href="#mde9b2e0b95" y="45.464"/>
      </g>
     </g>
     <g id="text_13">
      <!-- 14 -->
      <g transform="translate(30.55625 52.302594)scale(0.18 -0.18)">
       <use xlink:href="#DejaVuSans-49"/>
       <use x="63.623047" xlink:href="#DejaVuSans-52"/>
      </g>
     </g>
    </g>
    <g id="text_14">
     <!-- Acc Mag Moving Average -->
     <defs>
      <path d="M 34.1875 63.1875 
L 20.796875 26.90625 
L 47.609375 26.90625 
z
M 28.609375 72.90625 
L 39.796875 72.90625 
L 67.578125 0 
L 57.328125 0 
L 50.6875 18.703125 
L 17.828125 18.703125 
L 11.1875 0 
L 0.78125 0 
z
" id="DejaVuSans-65"/>
      <path d="M 48.78125 52.59375 
L 48.78125 44.1875 
Q 44.96875 46.296875 41.140625 47.34375 
Q 37.3125 48.390625 33.40625 48.390625 
Q 24.65625 48.390625 19.8125 42.84375 
Q 14.984375 37.3125 14.984375 27.296875 
Q 14.984375 17.28125 19.8125 11.734375 
Q 24.65625 6.203125 33.40625 6.203125 
Q 37.3125 6.203125 41.140625 7.25 
Q 44.96875 8.296875 48.78125 10.40625 
L 48.78125 2.09375 
Q 45.015625 0.34375 40.984375 -0.53125 
Q 36.96875 -1.421875 32.421875 -1.421875 
Q 20.0625 -1.421875 12.78125 6.34375 
Q 5.515625 14.109375 5.515625 27.296875 
Q 5.515625 40.671875 12.859375 48.328125 
Q 20.21875 56 33.015625 56 
Q 37.15625 56 41.109375 55.140625 
Q 45.0625 54.296875 48.78125 52.59375 
z
" id="DejaVuSans-99"/>
      <path d="M 9.8125 72.90625 
L 24.515625 72.90625 
L 43.109375 23.296875 
L 61.8125 72.90625 
L 76.515625 72.90625 
L 76.515625 0 
L 66.890625 0 
L 66.890625 64.015625 
L 48.09375 14.015625 
L 38.1875 14.015625 
L 19.390625 64.015625 
L 19.390625 0 
L 9.8125 0 
z
" id="DejaVuSans-77"/>
      <path d="M 34.28125 27.484375 
Q 23.390625 27.484375 19.1875 25 
Q 14.984375 22.515625 14.984375 16.5 
Q 14.984375 11.71875 18.140625 8.90625 
Q 21.296875 6.109375 26.703125 6.109375 
Q 34.1875 6.109375 38.703125 11.40625 
Q 43.21875 16.703125 43.21875 25.484375 
L 43.21875 27.484375 
z
M 52.203125 31.203125 
L 52.203125 0 
L 43.21875 0 
L 43.21875 8.296875 
Q 40.140625 3.328125 35.546875 0.953125 
Q 30.953125 -1.421875 24.3125 -1.421875 
Q 15.921875 -1.421875 10.953125 3.296875 
Q 6 8.015625 6 15.921875 
Q 6 25.140625 12.171875 29.828125 
Q 18.359375 34.515625 30.609375 34.515625 
L 43.21875 34.515625 
L 43.21875 35.40625 
Q 43.21875 41.609375 39.140625 45 
Q 35.0625 48.390625 27.6875 48.390625 
Q 23 48.390625 18.546875 47.265625 
Q 14.109375 46.140625 10.015625 43.890625 
L 10.015625 52.203125 
Q 14.9375 54.109375 19.578125 55.046875 
Q 24.21875 56 28.609375 56 
Q 40.484375 56 46.34375 49.84375 
Q 52.203125 43.703125 52.203125 31.203125 
z
" id="DejaVuSans-97"/>
      <path d="M 45.40625 27.984375 
Q 45.40625 37.75 41.375 43.109375 
Q 37.359375 48.484375 30.078125 48.484375 
Q 22.859375 48.484375 18.828125 43.109375 
Q 14.796875 37.75 14.796875 27.984375 
Q 14.796875 18.265625 18.828125 12.890625 
Q 22.859375 7.515625 30.078125 7.515625 
Q 37.359375 7.515625 41.375 12.890625 
Q 45.40625 18.265625 45.40625 27.984375 
z
M 54.390625 6.78125 
Q 54.390625 -7.171875 48.1875 -13.984375 
Q 42 -20.796875 29.203125 -20.796875 
Q 24.46875 -20.796875 20.265625 -20.09375 
Q 16.0625 -19.390625 12.109375 -17.921875 
L 12.109375 -9.1875 
Q 16.0625 -11.328125 19.921875 -12.34375 
Q 23.78125 -13.375 27.78125 -13.375 
Q 36.625 -13.375 41.015625 -8.765625 
Q 45.40625 -4.15625 45.40625 5.171875 
L 45.40625 9.625 
Q 42.625 4.78125 38.28125 2.390625 
Q 33.9375 0 27.875 0 
Q 17.828125 0 11.671875 7.65625 
Q 5.515625 15.328125 5.515625 27.984375 
Q 5.515625 40.671875 11.671875 48.328125 
Q 17.828125 56 27.875 56 
Q 33.9375 56 38.28125 53.609375 
Q 42.625 51.21875 45.40625 46.390625 
L 45.40625 54.6875 
L 54.390625 54.6875 
z
" id="DejaVuSans-103"/>
      <path d="M 30.609375 48.390625 
Q 23.390625 48.390625 19.1875 42.75 
Q 14.984375 37.109375 14.984375 27.296875 
Q 14.984375 17.484375 19.15625 11.84375 
Q 23.34375 6.203125 30.609375 6.203125 
Q 37.796875 6.203125 41.984375 11.859375 
Q 46.1875 17.53125 46.1875 27.296875 
Q 46.1875 37.015625 41.984375 42.703125 
Q 37.796875 48.390625 30.609375 48.390625 
z
M 30.609375 56 
Q 42.328125 56 49.015625 48.375 
Q 55.71875 40.765625 55.71875 27.296875 
Q 55.71875 13.875 49.015625 6.21875 
Q 42.328125 -1.421875 30.609375 -1.421875 
Q 18.84375 -1.421875 12.171875 6.21875 
Q 5.515625 13.875 5.515625 27.296875 
Q 5.515625 40.765625 12.171875 48.375 
Q 18.84375 56 30.609375 56 
z
" id="DejaVuSans-111"/>
      <path d="M 2.984375 54.6875 
L 12.5 54.6875 
L 29.59375 8.796875 
L 46.6875 54.6875 
L 56.203125 54.6875 
L 35.6875 0 
L 23.484375 0 
z
" id="DejaVuSans-118"/>
      <path d="M 54.890625 33.015625 
L 54.890625 0 
L 45.90625 0 
L 45.90625 32.71875 
Q 45.90625 40.484375 42.875 44.328125 
Q 39.84375 48.1875 33.796875 48.1875 
Q 26.515625 48.1875 22.3125 43.546875 
Q 18.109375 38.921875 18.109375 30.90625 
L 18.109375 0 
L 9.078125 0 
L 9.078125 54.6875 
L 18.109375 54.6875 
L 18.109375 46.1875 
Q 21.34375 51.125 25.703125 53.5625 
Q 30.078125 56 35.796875 56 
Q 45.21875 56 50.046875 50.171875 
Q 54.890625 44.34375 54.890625 33.015625 
z
" id="DejaVuSans-110"/>
      <path d="M 41.109375 46.296875 
Q 39.59375 47.171875 37.8125 47.578125 
Q 36.03125 48 33.890625 48 
Q 26.265625 48 22.1875 43.046875 
Q 18.109375 38.09375 18.109375 28.8125 
L 18.109375 0 
L 9.078125 0 
L 9.078125 54.6875 
L 18.109375 54.6875 
L 18.109375 46.1875 
Q 20.953125 51.171875 25.484375 53.578125 
Q 30.03125 56 36.53125 56 
Q 37.453125 56 38.578125 55.875 
Q 39.703125 55.765625 41.0625 55.515625 
z
" id="DejaVuSans-114"/>
     </defs>
     <g transform="translate(22.396875 304.77)rotate(-90)scale(0.2 -0.2)">
      <use xlink:href="#DejaVuSans-65"/>
      <use x="68.392578" xlink:href="#DejaVuSans-99"/>
      <use x="123.373047" xlink:href="#DejaVuSans-99"/>
      <use x="178.353516" xlink:href="#DejaVuSans-32"/>
      <use x="210.140625" xlink:href="#DejaVuSans-77"/>
      <use x="296.419922" xlink:href="#DejaVuSans-97"/>
      <use x="357.699219" xlink:href="#DejaVuSans-103"/>
      <use x="421.175781" xlink:href="#DejaVuSans-32"/>
      <use x="452.962891" xlink:href="#DejaVuSans-77"/>
      <use x="539.242188" xlink:href="#DejaVuSans-111"/>
      <use x="600.423828" xlink:href="#DejaVuSans-118"/>
      <use x="659.603516" xlink:href="#DejaVuSans-105"/>
      <use x="687.386719" xlink:href="#DejaVuSans-110"/>
      <use x="750.765625" xlink:href="#DejaVuSans-103"/>
      <use x="814.242188" xlink:href="#DejaVuSans-32"/>
      <use x="846.029297" xlink:href="#DejaVuSans-65"/>
      <use x="914.359375" xlink:href="#DejaVuSans-118"/>
      <use x="973.539062" xlink:href="#DejaVuSans-101"/>
      <use x="1035.0625" xlink:href="#DejaVuSans-114"/>
      <use x="1076.175781" xlink:href="#DejaVuSans-97"/>
      <use x="1137.455078" xlink:href="#DejaVuSans-103"/>
      <use x="1200.931641" xlink:href="#DejaVuSans-101"/>
     </g>
    </g>
   </g>
   <g id="line2d_13">
    <path clip-path="url(#pfcf9680811)" d="M 92.397614 148.260024 
L 93.008428 147.697522 
L 93.690504 158.145578 
L 94.39294 175.596129 
L 95.054655 183.567077 
L 95.726551 222.064855 
L 96.479889 200.740934 
L 97.080523 157.086835 
L 97.762599 162.039512 
L 98.475215 112.569234 
L 99.11657 131.063977 
L 99.798646 144.591687 
L 100.521443 181.561923 
L 101.152617 164.889433 
L 101.834693 201.137427 
L 102.55749 184.727633 
L 103.188665 184.007077 
L 104.593538 146.451451 
L 105.224712 125.343096 
L 105.906788 125.653786 
L 106.629585 137.872412 
L 107.26076 163.598603 
L 107.942836 200.807462 
L 108.645272 230.157782 
L 109.296807 228.502136 
L 109.978883 202.020167 
L 110.71186 130.813069 
L 111.332854 148.431175 
L 112.01493 114.917732 
L 112.717367 129.909841 
L 113.368902 154.908404 
L 114.050978 216.796541 
L 114.804315 183.554333 
L 115.41513 203.356825 
L 116.087025 183.285747 
L 116.840363 175.838038 
L 117.451177 168.084868 
L 118.123073 129.195418 
L 118.825509 123.759113 
L 119.477044 135.313955 
L 120.15912 160.02775 
L 120.922638 183.445487 
L 121.523272 225.054214 
L 122.195167 217.584872 
L 122.897604 184.103348 
L 123.559319 173.287967 
L 124.231215 149.554675 
L 124.994733 154.529131 
L 125.585186 168.271033 
L 126.267262 203.671147 
L 127.0206 200.830944 
L 127.621234 205.265255 
L 128.30331 184.795801 
L 129.026106 177.342831 
L 129.657281 160.916569 
L 130.339357 108.13757 
L 131.082514 101.380383 
L 131.703509 106.559968 
L 133.128742 174.934742 
L 133.729376 242.536964 
L 134.411452 234.255153 
L 135.144429 200.984303 
L 135.765423 117.450562 
L 136.447499 107.424618 
L 137.200837 104.151343 
L 137.801471 116.456251 
L 138.483547 156.370934 
L 139.206343 219.961449 
L 139.847698 204.432247 
L 140.519594 181.025223 
L 141.22203 144.639899 
L 141.873566 118.491064 
L 142.555641 107.415559 
L 143.288619 108.401205 
L 143.909613 125.188951 
L 145.294125 241.452708 
L 145.94566 240.491044 
L 146.627736 210.172885 
L 147.340353 69.824072 
L 147.981708 62.050439 
L 148.663784 28.984957 
L 149.417121 46.5178 
L 150.017755 81.357613 
L 150.699831 215.521948 
L 151.392087 202.214119 
L 152.053803 198.483027 
L 152.735878 173.880953 
L 153.438315 143.299722 
L 154.08985 120.13401 
L 154.771926 123.24275 
L 155.535444 148.251092 
L 156.807973 245.021128 
L 157.561311 252.443934 
L 158.161945 221.526669 
L 158.844021 116.624693 
L 159.546457 127.314028 
L 160.197992 79.541035 
L 160.880068 100.113383 
L 161.602865 128.421176 
L 162.23404 217.886557 
L 162.916115 188.634525 
L 163.638912 200.786507 
L 164.280267 179.684837 
L 164.952163 167.285405 
L 165.69532 127.627447 
L 166.306134 121.217986 
L 166.98821 141.780087 
L 167.700827 172.319795 
L 169.024258 245.347459 
L 169.726694 236.147402 
L 170.388409 208.419583 
L 171.060305 82.263792 
L 171.762741 107.095613 
L 172.414277 88.018943 
L 173.096353 101.693045 
L 173.83951 124.288174 
L 174.450324 237.786327 
L 175.1324 190.302116 
L 175.885737 190.930505 
L 176.486371 178.369478 
L 177.168447 149.680701 
L 177.921785 104.322357 
L 178.532599 92.530475 
L 179.204495 110.353885 
L 179.957832 144.997612 
L 181.240542 260.515236 
L 181.953159 239.735898 
L 182.594514 185.339225 
L 183.27659 96.937709 
L 183.948485 88.346054 
L 184.640741 56.737238 
L 185.312637 88.698835 
L 186.666608 209.375319 
L 187.348684 189.158097 
L 188.071481 191.79995 
L 189.384732 111.384831 
L 190.107529 103.144784 
L 190.748884 104.738965 
L 191.410599 128.655151 
L 192.774751 248.145078 
L 193.456827 237.133188 
L 194.179623 214.96256 
L 194.810798 91.372952 
L 195.492874 75.599514 
L 196.215671 33.917434 
L 196.846845 65.550764 
L 197.528921 93.098287 
L 198.251718 207.562834 
L 198.882893 197.163451 
L 199.564969 208.609343 
L 200.267405 185.906948 
L 200.929121 160.348199 
L 201.601016 106.110563 
L 202.333993 106.252331 
L 202.954988 118.526506 
L 203.637064 150.324245 
L 204.370041 201.629653 
L 204.991035 257.566008 
L 205.673111 233.022923 
L 206.426449 190.314861 
L 207.027083 141.965428 
L 207.709158 111.509191 
L 208.411595 92.986542 
L 209.06313 116.237863 
L 209.745206 160.237352 
L 210.457822 191.97114 
L 211.109358 196.142198 
L 211.781253 191.930328 
L 212.534591 163.410807 
L 213.817301 133.700031 
L 214.560458 121.392776 
L 215.181452 143.000021 
L 215.853348 189.192283 
L 217.2175 240.44571 
L 217.889395 213.427998 
L 218.612192 196.250235 
L 219.243367 123.007883 
L 219.925443 113.169455 
L 220.64824 96.026363 
L 221.279414 132.634565 
L 221.96149 142.046687 
L 222.674107 203.921403 
L 223.315462 194.661198 
L 223.997538 190.325948 
L 224.699974 180.688159 
L 225.351509 168.437487 
L 226.033585 122.87237 
L 226.776742 119.531482 
L 227.387557 135.385572 
L 228.069632 158.443095 
L 228.792429 197.388306 
L 229.423604 241.23574 
L 230.10568 226.946288 
L 230.808116 198.694504 
L 231.459651 152.192771 
L 232.141727 145.758904 
L 232.844164 128.858273 
L 233.505879 145.949165 
L 234.177775 172.697087 
L 234.900571 206.586583 
L 235.531746 185.920574 
L 236.213822 192.260104 
L 237.567794 158.656036 
L 238.249869 123.823778 
L 238.931945 121.186463 
L 239.603841 132.707494 
L 240.285917 174.009838 
L 241.639888 244.114377 
L 242.321964 209.812754 
L 243.044761 150.650666 
L 243.675936 157.100485 
L 244.358012 122.971709 
L 245.070628 137.184841 
L 245.711983 168.305798 
L 246.394059 227.822281 
L 247.116856 201.666408 
L 247.748031 205.138198 
L 249.132543 143.420233 
L 249.794258 104.224697 
L 250.466154 101.249094 
L 251.209311 107.630041 
L 251.820125 139.644372 
L 252.502201 202.343754 
L 253.224998 250.084731 
L 253.856173 226.226892 
L 254.538249 209.087903 
L 255.250865 117.891258 
L 255.89222 116.658176 
L 256.574296 84.832462 
L 257.297093 114.01418 
L 257.928268 133.910723 
L 258.610343 211.95491 
L 259.353501 185.61468 
L 259.974495 194.293257 
L 260.646391 156.430474 
L 261.348827 130.42607 
L 262.010543 112.078705 
L 262.682438 105.774006 
L 263.395055 128.613595 
L 264.03641 183.504072 
L 264.718486 229.778723 
L 265.461643 235.518482 
L 266.072457 210.649378 
L 266.754533 141.183689 
L 267.47733 137.152354 
L 268.108505 128.736962 
L 268.790581 137.681814 
L 269.503197 173.489088 
L 270.144552 234.846215 
L 270.826628 223.212732 
L 271.518884 199.8257 
L 272.19078 186.432501 
L 272.862675 167.009851 
L 273.616013 115.692921 
L 274.226827 106.775648 
L 274.898723 114.631666 
L 275.65206 144.842822 
L 276.93477 245.14599 
L 278.288742 182.349453 
L 278.970818 165.258901 
L 279.713975 128.051274 
L 280.324789 111.665515 
L 281.729662 186.477442 
L 282.360836 188.230411 
L 283.042912 194.787033 
L 283.78607 186.604434 
L 284.407064 157.526551 
L 285.781396 113.165446 
L 286.443112 111.628481 
L 287.115007 132.70366 
L 288.468979 222.488552 
L 289.151055 241.870403 
L 289.873851 199.067086 
L 290.505026 144.376826 
L 291.187102 135.523932 
L 291.909899 87.334452 
L 292.541073 98.502411 
L 293.935766 197.133548 
L 294.577121 181.14935 
L 295.259197 200.220853 
L 295.971813 181.2666 
L 296.623349 156.037919 
L 297.295244 108.75215 
L 297.997681 99.37454 
L 298.659396 103.821356 
L 299.331292 127.128241 
L 300.084629 173.402659 
L 300.685263 233.492481 
L 301.367339 230.089422 
L 302.049415 206.915365 
L 302.731491 53.736576 
L 303.403386 55.121502 
L 304.156724 32.245704 
L 304.757358 52.267914 
L 305.439434 79.215062 
L 306.14187 222.349993 
L 306.803586 203.137482 
L 307.475481 205.254175 
L 308.188098 174.199501 
L 308.839633 161.144189 
L 309.511529 126.916667 
L 310.213965 122.786273 
L 310.87568 135.657009 
L 311.547576 181.436334 
L 312.300914 211.673889 
L 312.911728 242.335503 
L 313.583623 210.715402 
L 314.29624 198.111256 
L 314.937595 167.03782 
L 315.619671 127.394953 
L 316.322107 130.927574 
L 316.983823 155.145639 
L 317.655718 160.666034 
L 318.398876 172.733254 
L 319.00969 194.138418 
L 319.691766 172.199516 
L 320.414562 164.42122 
L 321.045737 98.712187 
L 321.727813 91.206628 
L 322.45061 101.688751 
L 323.76386 182.074833 
L 324.486657 248.441921 
L 325.128012 222.42792 
L 325.799908 146.282663 
L 326.502344 155.721187 
L 327.16406 136.733396 
L 327.835955 139.462853 
L 328.548572 178.674016 
L 329.200107 244.88129 
L 329.861822 214.845754 
L 330.594799 204.775503 
L 331.225974 184.238287 
L 331.90805 151.45257 
L 332.630847 98.291084 
L 333.262022 90.840889 
L 333.944097 92.760358 
L 334.646534 127.988785 
L 335.980145 243.611495 
L 336.733482 227.20322 
L 337.334116 203.474559 
L 338.016192 110.855344 
L 338.728809 91.877609 
L 339.370164 63.706369 
L 340.05224 80.470906 
L 340.785217 106.958655 
L 341.406211 187.183347 
L 342.088287 179.049234 
L 342.800904 180.114607 
L 344.124334 150.275828 
L 344.847131 94.910409 
L 345.488486 86.385588 
L 346.160382 108.597956 
L 348.196429 237.081854 
L 348.929406 201.260312 
L 349.550401 155.907051 
L 350.232477 155.757878 
L 350.924733 106.407112 
L 351.586448 129.963123 
L 352.268524 163.410815 
L 353.011681 207.229238 
L 353.622496 185.016772 
L 354.304571 206.561792 
L 354.996828 169.134141 
L 355.668723 160.191719 
L 356.340619 114.721448 
L 357.043055 112.338484 
L 357.69459 112.582878 
L 359.099463 185.876097 
L 359.730638 243.541672 
L 361.12533 192.333346 
L 361.776865 151.052518 
L 362.448761 134.131699 
L 363.191918 137.324487 
L 364.484809 184.550776 
L 365.197425 212.864095 
L 365.84896 206.866769 
L 366.520856 173.717556 
L 367.264013 166.755858 
L 367.885008 143.646666 
L 368.556903 95.532068 
L 369.2797 102.671876 
L 369.910875 120.868862 
L 371.957102 231.23949 
L 372.628998 203.632149 
L 373.331434 181.742392 
L 374.00333 167.441424 
L 374.665046 126.738491 
L 375.367482 138.643822 
L 376.019017 145.877594 
L 376.701093 169.190414 
L 377.42389 171.900588 
L 378.065245 198.088768 
L 378.73714 174.896645 
L 379.419216 155.589813 
L 380.091112 124.811142 
L 380.773188 106.878822 
L 381.516345 105.522467 
L 382.13734 135.122658 
L 382.809235 192.45166 
L 383.521852 236.999981 
L 384.173387 226.896811 
L 384.845283 201.448707 
L 385.59862 84.634057 
L 386.209434 78.113032 
L 386.88133 30.470642 
L 387.624487 64.306839 
L 388.235301 84.765627 
L 388.917377 193.893969 
L 389.670715 177.639905 
L 390.271349 203.092555 
L 390.953425 178.11013 
L 391.706762 168.273489 
L 392.317577 129.095338 
L 392.989472 124.936919 
L 393.712269 139.131895 
L 395.02552 202.172575 
L 395.748316 238.003575 
L 396.379491 222.865417 
L 397.061567 152.35998 
L 397.774184 170.799857 
L 398.425719 113.265157 
L 399.097614 127.126989 
L 399.850952 130.017954 
L 400.451586 194.003841 
L 401.133662 163.175974 
L 401.886999 199.128504 
L 402.497814 160.907118 
L 403.169709 152.794343 
L 403.923047 104.255511 
L 404.533861 85.684233 
L 405.205757 86.782367 
L 405.959094 127.300733 
L 407.241804 227.292351 
L 407.94424 219.453273 
L 409.277851 159.701928 
L 410.000648 101.162054 
L 410.631823 104.016543 
L 411.313899 123.206078 
L 412.046876 163.602286 
L 412.678051 170.811546 
L 413.349946 203.235505 
L 414.093104 179.362498 
L 415.385994 127.084191 
L 416.10879 117.796041 
L 416.750145 114.112606 
L 417.422041 146.630993 
L 418.786193 240.860159 
L 419.458088 223.498173 
L 420.160525 199.869272 
L 420.82224 56.656289 
L 421.494136 31.029394 
L 422.247473 9.375924 
L 422.848107 53.59947 
L 423.530183 80.703857 
L 424.26316 207.814543 
L 424.884155 205.930562 
L 425.566231 196.842171 
L 426.319568 141.365062 
L 426.920202 116.352056 
L 427.602278 105.90704 
L 428.345435 106.436217 
L 428.96643 134.732751 
L 429.638325 202.174835 
L 430.391663 238.125855 
L 431.002477 213.217399 
L 431.674373 196.036542 
L 432.376809 122.097238 
L 433.028344 94.312965 
L 433.71042 87.352765 
L 434.412857 132.121765 
L 435.064392 150.989543 
L 435.746468 215.558399 
L 436.489625 210.840589 
L 437.110619 191.677735 
L 437.782515 140.920804 
L 438.495132 100.80755 
L 439.146667 86.803417 
L 439.818562 88.871554 
L 440.520999 118.437321 
L 441.85461 237.958031 
L 442.587587 225.984022 
L 443.218762 211.958907 
L 443.890657 88.276269 
L 444.593094 41.551418 
L 445.244629 22.004078 
L 445.926705 38.638702 
L 446.680042 61.564205 
L 447.290856 178.854563 
L 447.962752 204.642317 
L 448.695729 188.676892 
L 449.326904 169.325897 
L 449.9988 133.327801 
L 450.741957 109.794171 
L 451.352771 109.98327 
L 452.034847 135.636195 
L 453.388818 231.915567 
L 454.070894 232.030393 
L 454.773331 201.232104 
L 455.424866 98.670986 
L 456.106942 82.596462 
L 456.799198 46.775451 
L 458.142989 113.010915 
L 458.845425 212.907514 
L 459.507141 203.555575 
L 460.179037 208.795476 
L 461.543188 130.370137 
L 462.215084 113.192349 
L 462.937881 113.525041 
L 463.579236 139.495575 
L 464.240951 190.490611 
L 464.994289 236.949481 
L 465.615283 215.9979 
L 466.287179 207.82152 
L 466.989615 77.479167 
L 467.651331 36.85357 
L 468.323226 14.053992 
L 469.076564 36.887566 
L 469.677198 50.567534 
L 470.359274 174.254419 
L 471.06171 189.879464 
L 471.723425 179.406382 
L 472.395321 148.625666 
L 473.138478 109.031536 
L 473.759473 98.292306 
L 474.431368 94.387502 
L 475.123624 132.625428 
L 475.79552 198.398374 
L 476.467416 247.185307 
L 477.169852 215.171561 
L 477.831568 196.266795 
L 478.503463 55.575105 
L 479.867615 1.033695 
L 480.539511 46.171882 
L 481.282668 71.465786 
L 481.893482 203.566075 
L 483.328896 186.660382 
L 483.92953 137.745314 
L 484.611605 106.656012 
L 485.283501 82.89519 
L 485.975757 93.734294 
L 486.647653 131.191169 
L 487.350089 197.087062 
L 488.011805 240.369468 
L 489.386137 197.239894 
L 490.719748 129.768384 
L 491.483265 126.68133 
L 492.073719 159.087405 
L 492.755795 182.262426 
L 493.458231 199.896102 
L 494.119947 209.197534 
L 494.791842 183.980508 
L 495.524819 168.354302 
L 496.155994 133.566486 
L 496.82789 118.266117 
L 497.550687 110.147102 
L 498.192042 141.508549 
L 499.607095 242.202022 
L 500.228089 215.646884 
L 500.899985 204.685816 
L 501.602421 73.321793 
L 502.264136 52.207024 
L 502.936032 47.891952 
L 503.669009 82.954571 
L 504.290004 98.757993 
L 504.972079 213.43796 
L 505.735597 204.017509 
L 506.326051 170.059885 
L 507.008127 141.581388 
L 507.710563 98.982778 
L 508.362098 92.571842 
L 509.044174 94.745286 
L 509.73643 126.339441 
L 511.080222 243.222268 
L 511.782658 213.564312 
L 512.444373 176.313631 
L 513.116269 176.896169 
L 513.859426 119.703745 
L 514.470241 114.272996 
L 515.905654 183.27478 
L 516.506288 172.153812 
L 517.188364 201.150268 
L 517.8908 178.830775 
L 518.552516 146.80774 
L 519.224411 121.730516 
L 519.967569 114.755588 
L 520.588563 114.298917 
L 521.260459 145.714494 
L 522.013796 212.923263 
L 522.62461 246.817424 
L 523.296506 224.339193 
L 524.650478 173.252404 
L 525.332553 101.163178 
L 526.05535 103.942569 
L 526.696705 122.10088 
L 527.368601 153.779374 
L 528.060857 161.757354 
L 528.732753 200.940227 
L 529.404648 171.449887 
L 530.117265 151.78473 
L 530.75862 105.283424 
L 531.440696 97.176704 
L 532.183853 92.365219 
L 534.2199 236.378891 
L 534.830715 214.483585 
L 535.51279 181.066733 
L 536.255948 198.370997 
L 536.866762 140.278486 
L 537.548838 148.028447 
L 538.251274 174.366406 
L 538.902809 221.517008 
L 539.584885 182.615788 
L 540.297502 209.632574 
L 542.34373 116.167375 
L 542.974904 105.190896 
L 543.65698 111.900452 
L 544.410318 139.01273 
L 545.010952 188.423648 
L 545.693028 232.520672 
L 547.057179 198.682898 
L 547.729075 107.037386 
L 548.431511 109.38308 
L 549.093227 95.170886 
L 549.765122 120.113842 
L 550.51846 143.600028 
L 551.129274 233.903912 
L 551.80117 211.781954 
L 552.554507 203.666937 
L 553.165321 186.053128 
L 553.837217 151.409485 
L 554.560014 123.102891 
L 555.191189 121.142751 
L 555.873265 141.285319 
L 557.237416 236.517704 
L 557.909312 228.264637 
L 558.621929 209.794619 
L 559.273464 80.945035 
L 559.945359 71.451231 
L 560.668156 45.438655 
L 561.981407 93.392848 
L 562.694023 213.103605 
L 563.345559 195.985468 
L 564.017454 189.312911 
L 565.371426 127.424616 
L 566.053502 119.363826 
L 566.745758 112.592344 
L 567.417653 141.426066 
L 568.089549 207.826266 
L 568.802166 253.089985 
L 570.125596 213.744303 
L 570.838213 21.352809 
L 571.223085 -1 
M 573.52219 -1 
L 574.197691 178.945284 
L 575.561843 187.425204 
L 577.59789 103.482357 
L 578.269786 103.608753 
L 578.992583 126.142665 
L 579.623758 180.634973 
L 580.305833 229.042534 
L 581.00827 236.565877 
L 581.669985 212.100842 
L 582.341881 135.125512 
L 583.074858 118.241317 
L 583.695852 67.926009 
L 585.070184 127.727019 
L 585.74208 197.950255 
L 586.413976 188.153805 
L 587.136772 209.350622 
L 587.778127 180.707035 
L 588.450023 156.233626 
L 589.17282 115.863538 
L 589.814175 115.099164 
L 590.48607 124.753633 
L 591.219047 159.46039 
L 591.850222 205.26036 
L 592.522118 236.489678 
L 593.244915 216.737356 
L 593.88627 168.146476 
L 594.558165 178.452764 
L 595.250421 132.882558 
L 595.922317 151.766064 
L 596.594213 164.919822 
L 597.317009 220.354559 
L 597.958364 184.241446 
L 598.63026 200.539644 
L 599.322516 170.241487 
L 599.994412 166.967817 
L 600.666307 102.301623 
L 601.368744 103.334328 
L 602.030459 113.425858 
L 602.702355 153.903204 
L 603.435332 189.196107 
L 604.066507 248.044596 
L 604.738402 218.449254 
L 605.471379 170.555841 
L 606.102554 188.77842 
L 606.77445 128.606263 
L 607.517607 145.911458 
L 608.138601 170.989366 
L 608.820677 226.522045 
L 609.543474 180.143252 
L 610.174649 213.189896 
L 610.846544 177.02064 
L 611.559161 157.118573 
L 612.210696 105.822994 
L 612.892772 116.113821 
L 613.585028 118.981678 
L 615.621076 249.116088 
L 616.282791 210.355079 
L 616.954687 109.227337 
L 618.318838 43.046135 
L 618.990734 54.587789 
L 619.784793 80.555198 
L 620.354886 183.972263 
L 621.026781 206.189313 
L 621.790299 211.382529 
L 622.390933 180.526661 
L 623.062829 169.759762 
L 623.795806 115.754797 
L 624.426981 113.299839 
L 625.098876 119.143498 
L 626.045638 157.840093 
L 626.463028 185.088244 
L 627.134924 243.135147 
L 627.82718 206.381165 
L 628.499075 79.31548 
L 629.181151 75.058965 
L 629.903948 42.183553 
L 630.535123 46.088791 
L 631.207018 75.423261 
L 631.919635 207.090231 
L 632.57117 195.029883 
L 633.243066 205.856416 
L 634.607218 143.814223 
L 635.279113 100.841329 
L 636.022271 89.286375 
L 636.643265 111.82922 
L 637.315161 163.138921 
L 638.037958 207.47019 
L 638.679312 234.455556 
L 639.351208 219.992725 
L 640.053644 76.330798 
L 640.71536 78.930358 
L 641.387256 59.845522 
L 642.099872 72.747292 
L 642.751407 96.444875 
L 643.423303 235.671737 
L 644.125739 205.863166 
L 644.797635 197.360479 
L 645.45935 181.438395 
L 646.823502 112.88394 
L 647.495398 105.857515 
L 648.197834 125.504265 
L 648.849369 166.639938 
L 649.531445 223.806512 
L 650.274602 221.093255 
L 650.895597 201.662028 
L 651.567493 134.232009 
L 652.269929 104.482149 
L 652.931644 59.939693 
L 653.60354 103.888607 
L 654.305976 121.195924 
L 654.967692 184.924455 
L 655.639587 189.331891 
L 656.352204 201.637142 
L 657.05464 171.063729 
L 657.675635 154.90166 
L 658.398432 113.543035 
L 659.039787 118.104854 
L 659.711682 128.821419 
L 660.424299 166.404876 
L 661.075834 215.32676 
L 661.74773 249.598047 
L 662.480707 218.493453 
L 663.111881 181.761155 
L 663.783777 186.970363 
L 664.526934 147.177158 
L 665.147929 162.863185 
L 665.819824 184.576443 
L 666.573162 223.959126 
L 667.183976 193.419983 
L 667.855872 202.785789 
L 668.558308 171.074917 
L 669.240384 155.639197 
L 669.891919 86.649763 
L 670.624896 88.478806 
L 671.256071 92.245948 
L 672.620223 183.512515 
L 673.281938 248.61528 
L 674.63591 183.856933 
L 675.317986 186.948755 
L 676.000061 137.51063 
L 676.692318 148.251989 
L 678.036109 206.966066 
L 678.708004 185.874415 
L 679.39008 207.057766 
L 682.108204 104.471291 
L 682.780099 101.107825 
L 683.462175 122.426683 
L 684.144251 165.342663 
L 684.836507 193.635375 
L 685.498223 208.73475 
L 686.180298 221.441466 
L 686.852194 223.608784 
L 687.53427 196.730416 
L 688.216346 188.879998 
L 688.888241 192.033031 
L 689.580498 174.795889 
L 690.252393 174.199967 
L 690.934469 169.536732 
L 691.616545 174.563555 
L 692.288441 153.376526 
L 692.980697 159.728444 
L 693.652592 152.00041 
L 694.324488 171.142135 
L 695.016744 169.469599 
L 695.68864 187.012023 
L 696.370716 186.407975 
L 697.052792 183.995733 
L 697.724687 187.782717 
L 699.068478 181.356825 
L 699.760735 182.030224 
L 700.44281 182.22195 
L 701.124886 182.121221 
L 701.124886 182.121221 
" style="fill:none;stroke:#1f77b4;stroke-linecap:square;stroke-width:1.5;"/>
   </g>
  </g>
 </g>
 <defs>
  <clipPath id="pfcf9680811">
   <rect height="332.64" width="669.6" x="61.96125" y="12.2"/>
  </clipPath>
 </defs>
</svg>
