<?xml version="1.0" encoding="utf-8" standalone="no"?>
<!DOCTYPE svg PUBLIC "-//W3C//DTD SVG 1.1//EN"
  "http://www.w3.org/Graphics/SVG/1.1/DTD/svg11.dtd">
<!-- Created with matplotlib (https://matplotlib.org/) -->
<svg height="401.316875pt" version="1.1" viewBox="0 0 743.76125 401.316875" width="743.76125pt" xmlns="http://www.w3.org/2000/svg" xmlns:xlink="http://www.w3.org/1999/xlink">
 <defs>
  <style type="text/css">
*{stroke-linecap:butt;stroke-linejoin:round;}
  </style>
 </defs>
 <g id="figure_1">
  <g id="patch_1">
   <path d="M 0 401.316875 
L 743.76125 401.316875 
L 743.76125 0 
L 0 0 
z
" style="fill:#ffffff;"/>
  </g>
  <g id="axes_1">
   <g id="patch_2">
    <path d="M 61.96125 344.84 
L 731.56125 344.84 
L 731.56125 12.2 
L 61.96125 12.2 
z
" style="fill:#ffffff;"/>
   </g>
   <g id="matplotlib.axis_1">
    <g id="xtick_1">
     <g id="line2d_1">
      <defs>
       <path d="M 0 5 
L 0 -5 
" id="m342cb076f8" style="stroke:#525252;stroke-width:4;"/>
      </defs>
      <g>
       <use style="fill:#525252;stroke:#525252;stroke-width:4;" x="128.685669" xlink:href="#m342cb076f8" y="344.84"/>
      </g>
     </g>
     <g id="text_1">
      <!-- 10000 -->
      <defs>
       <path d="M 12.40625 8.296875 
L 28.515625 8.296875 
L 28.515625 63.921875 
L 10.984375 60.40625 
L 10.984375 69.390625 
L 28.421875 72.90625 
L 38.28125 72.90625 
L 38.28125 8.296875 
L 54.390625 8.296875 
L 54.390625 0 
L 12.40625 0 
z
" id="DejaVuSans-49"/>
       <path d="M 31.78125 66.40625 
Q 24.171875 66.40625 20.328125 58.90625 
Q 16.5 51.421875 16.5 36.375 
Q 16.5 21.390625 20.328125 13.890625 
Q 24.171875 6.390625 31.78125 6.390625 
Q 39.453125 6.390625 43.28125 13.890625 
Q 47.125 21.390625 47.125 36.375 
Q 47.125 51.421875 43.28125 58.90625 
Q 39.453125 66.40625 31.78125 66.40625 
z
M 31.78125 74.21875 
Q 44.046875 74.21875 50.515625 64.515625 
Q 56.984375 54.828125 56.984375 36.375 
Q 56.984375 17.96875 50.515625 8.265625 
Q 44.046875 -1.421875 31.78125 -1.421875 
Q 19.53125 -1.421875 13.0625 8.265625 
Q 6.59375 17.96875 6.59375 36.375 
Q 6.59375 54.828125 13.0625 64.515625 
Q 19.53125 74.21875 31.78125 74.21875 
z
" id="DejaVuSans-48"/>
      </defs>
      <g transform="translate(100.054419 367.017187)scale(0.18 -0.18)">
       <use xlink:href="#DejaVuSans-49"/>
       <use x="63.623047" xlink:href="#DejaVuSans-48"/>
       <use x="127.246094" xlink:href="#DejaVuSans-48"/>
       <use x="190.869141" xlink:href="#DejaVuSans-48"/>
       <use x="254.492188" xlink:href="#DejaVuSans-48"/>
      </g>
     </g>
    </g>
    <g id="xtick_2">
     <g id="line2d_2">
      <g>
       <use style="fill:#525252;stroke:#525252;stroke-width:4;" x="230.934346" xlink:href="#m342cb076f8" y="344.84"/>
      </g>
     </g>
     <g id="text_2">
      <!-- 20000 -->
      <defs>
       <path d="M 19.1875 8.296875 
L 53.609375 8.296875 
L 53.609375 0 
L 7.328125 0 
L 7.328125 8.296875 
Q 12.9375 14.109375 22.625 23.890625 
Q 32.328125 33.6875 34.8125 36.53125 
Q 39.546875 41.84375 41.421875 45.53125 
Q 43.3125 49.21875 43.3125 52.78125 
Q 43.3125 58.59375 39.234375 62.25 
Q 35.15625 65.921875 28.609375 65.921875 
Q 23.96875 65.921875 18.8125 64.3125 
Q 13.671875 62.703125 7.8125 59.421875 
L 7.8125 69.390625 
Q 13.765625 71.78125 18.9375 73 
Q 24.125 74.21875 28.421875 74.21875 
Q 39.75 74.21875 46.484375 68.546875 
Q 53.21875 62.890625 53.21875 53.421875 
Q 53.21875 48.921875 51.53125 44.890625 
Q 49.859375 40.875 45.40625 35.40625 
Q 44.1875 33.984375 37.640625 27.21875 
Q 31.109375 20.453125 19.1875 8.296875 
z
" id="DejaVuSans-50"/>
      </defs>
      <g transform="translate(202.303096 367.017187)scale(0.18 -0.18)">
       <use xlink:href="#DejaVuSans-50"/>
       <use x="63.623047" xlink:href="#DejaVuSans-48"/>
       <use x="127.246094" xlink:href="#DejaVuSans-48"/>
       <use x="190.869141" xlink:href="#DejaVuSans-48"/>
       <use x="254.492188" xlink:href="#DejaVuSans-48"/>
      </g>
     </g>
    </g>
    <g id="xtick_3">
     <g id="line2d_3">
      <g>
       <use style="fill:#525252;stroke:#525252;stroke-width:4;" x="333.183023" xlink:href="#m342cb076f8" y="344.84"/>
      </g>
     </g>
     <g id="text_3">
      <!-- 30000 -->
      <defs>
       <path d="M 40.578125 39.3125 
Q 47.65625 37.796875 51.625 33 
Q 55.609375 28.21875 55.609375 21.1875 
Q 55.609375 10.40625 48.1875 4.484375 
Q 40.765625 -1.421875 27.09375 -1.421875 
Q 22.515625 -1.421875 17.65625 -0.515625 
Q 12.796875 0.390625 7.625 2.203125 
L 7.625 11.71875 
Q 11.71875 9.328125 16.59375 8.109375 
Q 21.484375 6.890625 26.8125 6.890625 
Q 36.078125 6.890625 40.9375 10.546875 
Q 45.796875 14.203125 45.796875 21.1875 
Q 45.796875 27.640625 41.28125 31.265625 
Q 36.765625 34.90625 28.71875 34.90625 
L 20.21875 34.90625 
L 20.21875 43.015625 
L 29.109375 43.015625 
Q 36.375 43.015625 40.234375 45.921875 
Q 44.09375 48.828125 44.09375 54.296875 
Q 44.09375 59.90625 40.109375 62.90625 
Q 36.140625 65.921875 28.71875 65.921875 
Q 24.65625 65.921875 20.015625 65.03125 
Q 15.375 64.15625 9.8125 62.3125 
L 9.8125 71.09375 
Q 15.4375 72.65625 20.34375 73.4375 
Q 25.25 74.21875 29.59375 74.21875 
Q 40.828125 74.21875 47.359375 69.109375 
Q 53.90625 64.015625 53.90625 55.328125 
Q 53.90625 49.265625 50.4375 45.09375 
Q 46.96875 40.921875 40.578125 39.3125 
z
" id="DejaVuSans-51"/>
      </defs>
      <g transform="translate(304.551773 367.017187)scale(0.18 -0.18)">
       <use xlink:href="#DejaVuSans-51"/>
       <use x="63.623047" xlink:href="#DejaVuSans-48"/>
       <use x="127.246094" xlink:href="#DejaVuSans-48"/>
       <use x="190.869141" xlink:href="#DejaVuSans-48"/>
       <use x="254.492188" xlink:href="#DejaVuSans-48"/>
      </g>
     </g>
    </g>
    <g id="xtick_4">
     <g id="line2d_4">
      <g>
       <use style="fill:#525252;stroke:#525252;stroke-width:4;" x="435.4317" xlink:href="#m342cb076f8" y="344.84"/>
      </g>
     </g>
     <g id="text_4">
      <!-- 40000 -->
      <defs>
       <path d="M 37.796875 64.3125 
L 12.890625 25.390625 
L 37.796875 25.390625 
z
M 35.203125 72.90625 
L 47.609375 72.90625 
L 47.609375 25.390625 
L 58.015625 25.390625 
L 58.015625 17.1875 
L 47.609375 17.1875 
L 47.609375 0 
L 37.796875 0 
L 37.796875 17.1875 
L 4.890625 17.1875 
L 4.890625 26.703125 
z
" id="DejaVuSans-52"/>
      </defs>
      <g transform="translate(406.80045 367.017187)scale(0.18 -0.18)">
       <use xlink:href="#DejaVuSans-52"/>
       <use x="63.623047" xlink:href="#DejaVuSans-48"/>
       <use x="127.246094" xlink:href="#DejaVuSans-48"/>
       <use x="190.869141" xlink:href="#DejaVuSans-48"/>
       <use x="254.492188" xlink:href="#DejaVuSans-48"/>
      </g>
     </g>
    </g>
    <g id="xtick_5">
     <g id="line2d_5">
      <g>
       <use style="fill:#525252;stroke:#525252;stroke-width:4;" x="537.680376" xlink:href="#m342cb076f8" y="344.84"/>
      </g>
     </g>
     <g id="text_5">
      <!-- 50000 -->
      <defs>
       <path d="M 10.796875 72.90625 
L 49.515625 72.90625 
L 49.515625 64.59375 
L 19.828125 64.59375 
L 19.828125 46.734375 
Q 21.96875 47.46875 24.109375 47.828125 
Q 26.265625 48.1875 28.421875 48.1875 
Q 40.625 48.1875 47.75 41.5 
Q 54.890625 34.8125 54.890625 23.390625 
Q 54.890625 11.625 47.5625 5.09375 
Q 40.234375 -1.421875 26.90625 -1.421875 
Q 22.3125 -1.421875 17.546875 -0.640625 
Q 12.796875 0.140625 7.71875 1.703125 
L 7.71875 11.625 
Q 12.109375 9.234375 16.796875 8.0625 
Q 21.484375 6.890625 26.703125 6.890625 
Q 35.15625 6.890625 40.078125 11.328125 
Q 45.015625 15.765625 45.015625 23.390625 
Q 45.015625 31 40.078125 35.4375 
Q 35.15625 39.890625 26.703125 39.890625 
Q 22.75 39.890625 18.8125 39.015625 
Q 14.890625 38.140625 10.796875 36.28125 
z
" id="DejaVuSans-53"/>
      </defs>
      <g transform="translate(509.049126 367.017187)scale(0.18 -0.18)">
       <use xlink:href="#DejaVuSans-53"/>
       <use x="63.623047" xlink:href="#DejaVuSans-48"/>
       <use x="127.246094" xlink:href="#DejaVuSans-48"/>
       <use x="190.869141" xlink:href="#DejaVuSans-48"/>
       <use x="254.492188" xlink:href="#DejaVuSans-48"/>
      </g>
     </g>
    </g>
    <g id="xtick_6">
     <g id="line2d_6">
      <g>
       <use style="fill:#525252;stroke:#525252;stroke-width:4;" x="639.929053" xlink:href="#m342cb076f8" y="344.84"/>
      </g>
     </g>
     <g id="text_6">
      <!-- 60000 -->
      <defs>
       <path d="M 33.015625 40.375 
Q 26.375 40.375 22.484375 35.828125 
Q 18.609375 31.296875 18.609375 23.390625 
Q 18.609375 15.53125 22.484375 10.953125 
Q 26.375 6.390625 33.015625 6.390625 
Q 39.65625 6.390625 43.53125 10.953125 
Q 47.40625 15.53125 47.40625 23.390625 
Q 47.40625 31.296875 43.53125 35.828125 
Q 39.65625 40.375 33.015625 40.375 
z
M 52.59375 71.296875 
L 52.59375 62.3125 
Q 48.875 64.0625 45.09375 64.984375 
Q 41.3125 65.921875 37.59375 65.921875 
Q 27.828125 65.921875 22.671875 59.328125 
Q 17.53125 52.734375 16.796875 39.40625 
Q 19.671875 43.65625 24.015625 45.921875 
Q 28.375 48.1875 33.59375 48.1875 
Q 44.578125 48.1875 50.953125 41.515625 
Q 57.328125 34.859375 57.328125 23.390625 
Q 57.328125 12.15625 50.6875 5.359375 
Q 44.046875 -1.421875 33.015625 -1.421875 
Q 20.359375 -1.421875 13.671875 8.265625 
Q 6.984375 17.96875 6.984375 36.375 
Q 6.984375 53.65625 15.1875 63.9375 
Q 23.390625 74.21875 37.203125 74.21875 
Q 40.921875 74.21875 44.703125 73.484375 
Q 48.484375 72.75 52.59375 71.296875 
z
" id="DejaVuSans-54"/>
      </defs>
      <g transform="translate(611.297803 367.017187)scale(0.18 -0.18)">
       <use xlink:href="#DejaVuSans-54"/>
       <use x="63.623047" xlink:href="#DejaVuSans-48"/>
       <use x="127.246094" xlink:href="#DejaVuSans-48"/>
       <use x="190.869141" xlink:href="#DejaVuSans-48"/>
       <use x="254.492188" xlink:href="#DejaVuSans-48"/>
      </g>
     </g>
    </g>
    <g id="text_7">
     <!-- Time (ms) -->
     <defs>
      <path d="M -0.296875 72.90625 
L 61.375 72.90625 
L 61.375 64.59375 
L 35.5 64.59375 
L 35.5 0 
L 25.59375 0 
L 25.59375 64.59375 
L -0.296875 64.59375 
z
" id="DejaVuSans-84"/>
      <path d="M 9.421875 54.6875 
L 18.40625 54.6875 
L 18.40625 0 
L 9.421875 0 
z
M 9.421875 75.984375 
L 18.40625 75.984375 
L 18.40625 64.59375 
L 9.421875 64.59375 
z
" id="DejaVuSans-105"/>
      <path d="M 52 44.1875 
Q 55.375 50.25 60.0625 53.125 
Q 64.75 56 71.09375 56 
Q 79.640625 56 84.28125 50.015625 
Q 88.921875 44.046875 88.921875 33.015625 
L 88.921875 0 
L 79.890625 0 
L 79.890625 32.71875 
Q 79.890625 40.578125 77.09375 44.375 
Q 74.3125 48.1875 68.609375 48.1875 
Q 61.625 48.1875 57.5625 43.546875 
Q 53.515625 38.921875 53.515625 30.90625 
L 53.515625 0 
L 44.484375 0 
L 44.484375 32.71875 
Q 44.484375 40.625 41.703125 44.40625 
Q 38.921875 48.1875 33.109375 48.1875 
Q 26.21875 48.1875 22.15625 43.53125 
Q 18.109375 38.875 18.109375 30.90625 
L 18.109375 0 
L 9.078125 0 
L 9.078125 54.6875 
L 18.109375 54.6875 
L 18.109375 46.1875 
Q 21.1875 51.21875 25.484375 53.609375 
Q 29.78125 56 35.6875 56 
Q 41.65625 56 45.828125 52.96875 
Q 50 49.953125 52 44.1875 
z
" id="DejaVuSans-109"/>
      <path d="M 56.203125 29.59375 
L 56.203125 25.203125 
L 14.890625 25.203125 
Q 15.484375 15.921875 20.484375 11.0625 
Q 25.484375 6.203125 34.421875 6.203125 
Q 39.59375 6.203125 44.453125 7.46875 
Q 49.3125 8.734375 54.109375 11.28125 
L 54.109375 2.78125 
Q 49.265625 0.734375 44.1875 -0.34375 
Q 39.109375 -1.421875 33.890625 -1.421875 
Q 20.796875 -1.421875 13.15625 6.1875 
Q 5.515625 13.8125 5.515625 26.8125 
Q 5.515625 40.234375 12.765625 48.109375 
Q 20.015625 56 32.328125 56 
Q 43.359375 56 49.78125 48.890625 
Q 56.203125 41.796875 56.203125 29.59375 
z
M 47.21875 32.234375 
Q 47.125 39.59375 43.09375 43.984375 
Q 39.0625 48.390625 32.421875 48.390625 
Q 24.90625 48.390625 20.390625 44.140625 
Q 15.875 39.890625 15.1875 32.171875 
z
" id="DejaVuSans-101"/>
      <path id="DejaVuSans-32"/>
      <path d="M 31 75.875 
Q 24.46875 64.65625 21.28125 53.65625 
Q 18.109375 42.671875 18.109375 31.390625 
Q 18.109375 20.125 21.3125 9.0625 
Q 24.515625 -2 31 -13.1875 
L 23.1875 -13.1875 
Q 15.875 -1.703125 12.234375 9.375 
Q 8.59375 20.453125 8.59375 31.390625 
Q 8.59375 42.28125 12.203125 53.3125 
Q 15.828125 64.359375 23.1875 75.875 
z
" id="DejaVuSans-40"/>
      <path d="M 44.28125 53.078125 
L 44.28125 44.578125 
Q 40.484375 46.53125 36.375 47.5 
Q 32.28125 48.484375 27.875 48.484375 
Q 21.1875 48.484375 17.84375 46.4375 
Q 14.5 44.390625 14.5 40.28125 
Q 14.5 37.15625 16.890625 35.375 
Q 19.28125 33.59375 26.515625 31.984375 
L 29.59375 31.296875 
Q 39.15625 29.25 43.1875 25.515625 
Q 47.21875 21.78125 47.21875 15.09375 
Q 47.21875 7.46875 41.1875 3.015625 
Q 35.15625 -1.421875 24.609375 -1.421875 
Q 20.21875 -1.421875 15.453125 -0.5625 
Q 10.6875 0.296875 5.421875 2 
L 5.421875 11.28125 
Q 10.40625 8.6875 15.234375 7.390625 
Q 20.0625 6.109375 24.8125 6.109375 
Q 31.15625 6.109375 34.5625 8.28125 
Q 37.984375 10.453125 37.984375 14.40625 
Q 37.984375 18.0625 35.515625 20.015625 
Q 33.0625 21.96875 24.703125 23.78125 
L 21.578125 24.515625 
Q 13.234375 26.265625 9.515625 29.90625 
Q 5.8125 33.546875 5.8125 39.890625 
Q 5.8125 47.609375 11.28125 51.796875 
Q 16.75 56 26.8125 56 
Q 31.78125 56 36.171875 55.265625 
Q 40.578125 54.546875 44.28125 53.078125 
z
" id="DejaVuSans-115"/>
      <path d="M 8.015625 75.875 
L 15.828125 75.875 
Q 23.140625 64.359375 26.78125 53.3125 
Q 30.421875 42.28125 30.421875 31.390625 
Q 30.421875 20.453125 26.78125 9.375 
Q 23.140625 -1.703125 15.828125 -13.1875 
L 8.015625 -13.1875 
Q 14.5 -2 17.703125 9.0625 
Q 20.90625 20.125 20.90625 31.390625 
Q 20.90625 42.671875 17.703125 53.65625 
Q 14.5 64.65625 8.015625 75.875 
z
" id="DejaVuSans-41"/>
     </defs>
     <g transform="translate(346.055 389.9575)scale(0.2 -0.2)">
      <use xlink:href="#DejaVuSans-84"/>
      <use x="61.037109" xlink:href="#DejaVuSans-105"/>
      <use x="88.820312" xlink:href="#DejaVuSans-109"/>
      <use x="186.232422" xlink:href="#DejaVuSans-101"/>
      <use x="247.755859" xlink:href="#DejaVuSans-32"/>
      <use x="279.542969" xlink:href="#DejaVuSans-40"/>
      <use x="318.556641" xlink:href="#DejaVuSans-109"/>
      <use x="415.96875" xlink:href="#DejaVuSans-115"/>
      <use x="468.068359" xlink:href="#DejaVuSans-41"/>
     </g>
    </g>
   </g>
   <g id="matplotlib.axis_2">
    <g id="ytick_1">
     <g id="line2d_7">
      <defs>
       <path d="M 5 0 
L -5 -0 
" id="m0014ca24cc" style="stroke:#525252;stroke-width:4;"/>
      </defs>
      <g>
       <use style="fill:#525252;stroke:#525252;stroke-width:4;" x="61.96125" xlink:href="#m0014ca24cc" y="311.576"/>
      </g>
     </g>
     <g id="text_8">
      <!-- 6 -->
      <g transform="translate(42.00875 318.414594)scale(0.18 -0.18)">
       <use xlink:href="#DejaVuSans-54"/>
      </g>
     </g>
    </g>
    <g id="ytick_2">
     <g id="line2d_8">
      <g>
       <use style="fill:#525252;stroke:#525252;stroke-width:4;" x="61.96125" xlink:href="#m0014ca24cc" y="245.048"/>
      </g>
     </g>
     <g id="text_9">
      <!-- 8 -->
      <defs>
       <path d="M 31.78125 34.625 
Q 24.75 34.625 20.71875 30.859375 
Q 16.703125 27.09375 16.703125 20.515625 
Q 16.703125 13.921875 20.71875 10.15625 
Q 24.75 6.390625 31.78125 6.390625 
Q 38.8125 6.390625 42.859375 10.171875 
Q 46.921875 13.96875 46.921875 20.515625 
Q 46.921875 27.09375 42.890625 30.859375 
Q 38.875 34.625 31.78125 34.625 
z
M 21.921875 38.8125 
Q 15.578125 40.375 12.03125 44.71875 
Q 8.5 49.078125 8.5 55.328125 
Q 8.5 64.0625 14.71875 69.140625 
Q 20.953125 74.21875 31.78125 74.21875 
Q 42.671875 74.21875 48.875 69.140625 
Q 55.078125 64.0625 55.078125 55.328125 
Q 55.078125 49.078125 51.53125 44.71875 
Q 48 40.375 41.703125 38.8125 
Q 48.828125 37.15625 52.796875 32.3125 
Q 56.78125 27.484375 56.78125 20.515625 
Q 56.78125 9.90625 50.3125 4.234375 
Q 43.84375 -1.421875 31.78125 -1.421875 
Q 19.734375 -1.421875 13.25 4.234375 
Q 6.78125 9.90625 6.78125 20.515625 
Q 6.78125 27.484375 10.78125 32.3125 
Q 14.796875 37.15625 21.921875 38.8125 
z
M 18.3125 54.390625 
Q 18.3125 48.734375 21.84375 45.5625 
Q 25.390625 42.390625 31.78125 42.390625 
Q 38.140625 42.390625 41.71875 45.5625 
Q 45.3125 48.734375 45.3125 54.390625 
Q 45.3125 60.0625 41.71875 63.234375 
Q 38.140625 66.40625 31.78125 66.40625 
Q 25.390625 66.40625 21.84375 63.234375 
Q 18.3125 60.0625 18.3125 54.390625 
z
" id="DejaVuSans-56"/>
      </defs>
      <g transform="translate(42.00875 251.886594)scale(0.18 -0.18)">
       <use xlink:href="#DejaVuSans-56"/>
      </g>
     </g>
    </g>
    <g id="ytick_3">
     <g id="line2d_9">
      <g>
       <use style="fill:#525252;stroke:#525252;stroke-width:4;" x="61.96125" xlink:href="#m0014ca24cc" y="178.52"/>
      </g>
     </g>
     <g id="text_10">
      <!-- 10 -->
      <g transform="translate(30.55625 185.358594)scale(0.18 -0.18)">
       <use xlink:href="#DejaVuSans-49"/>
       <use x="63.623047" xlink:href="#DejaVuSans-48"/>
      </g>
     </g>
    </g>
    <g id="ytick_4">
     <g id="line2d_10">
      <g>
       <use style="fill:#525252;stroke:#525252;stroke-width:4;" x="61.96125" xlink:href="#m0014ca24cc" y="111.992"/>
      </g>
     </g>
     <g id="text_11">
      <!-- 12 -->
      <g transform="translate(30.55625 118.830594)scale(0.18 -0.18)">
       <use xlink:href="#DejaVuSans-49"/>
       <use x="63.623047" xlink:href="#DejaVuSans-50"/>
      </g>
     </g>
    </g>
    <g id="ytick_5">
     <g id="line2d_11">
      <g>
       <use style="fill:#525252;stroke:#525252;stroke-width:4;" x="61.96125" xlink:href="#m0014ca24cc" y="45.464"/>
      </g>
     </g>
     <g id="text_12">
      <!-- 14 -->
      <g transform="translate(30.55625 52.302594)scale(0.18 -0.18)">
       <use xlink:href="#DejaVuSans-49"/>
       <use x="63.623047" xlink:href="#DejaVuSans-52"/>
      </g>
     </g>
    </g>
    <g id="text_13">
     <!-- Acc Mag Moving Average -->
     <defs>
      <path d="M 34.1875 63.1875 
L 20.796875 26.90625 
L 47.609375 26.90625 
z
M 28.609375 72.90625 
L 39.796875 72.90625 
L 67.578125 0 
L 57.328125 0 
L 50.6875 18.703125 
L 17.828125 18.703125 
L 11.1875 0 
L 0.78125 0 
z
" id="DejaVuSans-65"/>
      <path d="M 48.78125 52.59375 
L 48.78125 44.1875 
Q 44.96875 46.296875 41.140625 47.34375 
Q 37.3125 48.390625 33.40625 48.390625 
Q 24.65625 48.390625 19.8125 42.84375 
Q 14.984375 37.3125 14.984375 27.296875 
Q 14.984375 17.28125 19.8125 11.734375 
Q 24.65625 6.203125 33.40625 6.203125 
Q 37.3125 6.203125 41.140625 7.25 
Q 44.96875 8.296875 48.78125 10.40625 
L 48.78125 2.09375 
Q 45.015625 0.34375 40.984375 -0.53125 
Q 36.96875 -1.421875 32.421875 -1.421875 
Q 20.0625 -1.421875 12.78125 6.34375 
Q 5.515625 14.109375 5.515625 27.296875 
Q 5.515625 40.671875 12.859375 48.328125 
Q 20.21875 56 33.015625 56 
Q 37.15625 56 41.109375 55.140625 
Q 45.0625 54.296875 48.78125 52.59375 
z
" id="DejaVuSans-99"/>
      <path d="M 9.8125 72.90625 
L 24.515625 72.90625 
L 43.109375 23.296875 
L 61.8125 72.90625 
L 76.515625 72.90625 
L 76.515625 0 
L 66.890625 0 
L 66.890625 64.015625 
L 48.09375 14.015625 
L 38.1875 14.015625 
L 19.390625 64.015625 
L 19.390625 0 
L 9.8125 0 
z
" id="DejaVuSans-77"/>
      <path d="M 34.28125 27.484375 
Q 23.390625 27.484375 19.1875 25 
Q 14.984375 22.515625 14.984375 16.5 
Q 14.984375 11.71875 18.140625 8.90625 
Q 21.296875 6.109375 26.703125 6.109375 
Q 34.1875 6.109375 38.703125 11.40625 
Q 43.21875 16.703125 43.21875 25.484375 
L 43.21875 27.484375 
z
M 52.203125 31.203125 
L 52.203125 0 
L 43.21875 0 
L 43.21875 8.296875 
Q 40.140625 3.328125 35.546875 0.953125 
Q 30.953125 -1.421875 24.3125 -1.421875 
Q 15.921875 -1.421875 10.953125 3.296875 
Q 6 8.015625 6 15.921875 
Q 6 25.140625 12.171875 29.828125 
Q 18.359375 34.515625 30.609375 34.515625 
L 43.21875 34.515625 
L 43.21875 35.40625 
Q 43.21875 41.609375 39.140625 45 
Q 35.0625 48.390625 27.6875 48.390625 
Q 23 48.390625 18.546875 47.265625 
Q 14.109375 46.140625 10.015625 43.890625 
L 10.015625 52.203125 
Q 14.9375 54.109375 19.578125 55.046875 
Q 24.21875 56 28.609375 56 
Q 40.484375 56 46.34375 49.84375 
Q 52.203125 43.703125 52.203125 31.203125 
z
" id="DejaVuSans-97"/>
      <path d="M 45.40625 27.984375 
Q 45.40625 37.75 41.375 43.109375 
Q 37.359375 48.484375 30.078125 48.484375 
Q 22.859375 48.484375 18.828125 43.109375 
Q 14.796875 37.75 14.796875 27.984375 
Q 14.796875 18.265625 18.828125 12.890625 
Q 22.859375 7.515625 30.078125 7.515625 
Q 37.359375 7.515625 41.375 12.890625 
Q 45.40625 18.265625 45.40625 27.984375 
z
M 54.390625 6.78125 
Q 54.390625 -7.171875 48.1875 -13.984375 
Q 42 -20.796875 29.203125 -20.796875 
Q 24.46875 -20.796875 20.265625 -20.09375 
Q 16.0625 -19.390625 12.109375 -17.921875 
L 12.109375 -9.1875 
Q 16.0625 -11.328125 19.921875 -12.34375 
Q 23.78125 -13.375 27.78125 -13.375 
Q 36.625 -13.375 41.015625 -8.765625 
Q 45.40625 -4.15625 45.40625 5.171875 
L 45.40625 9.625 
Q 42.625 4.78125 38.28125 2.390625 
Q 33.9375 0 27.875 0 
Q 17.828125 0 11.671875 7.65625 
Q 5.515625 15.328125 5.515625 27.984375 
Q 5.515625 40.671875 11.671875 48.328125 
Q 17.828125 56 27.875 56 
Q 33.9375 56 38.28125 53.609375 
Q 42.625 51.21875 45.40625 46.390625 
L 45.40625 54.6875 
L 54.390625 54.6875 
z
" id="DejaVuSans-103"/>
      <path d="M 30.609375 48.390625 
Q 23.390625 48.390625 19.1875 42.75 
Q 14.984375 37.109375 14.984375 27.296875 
Q 14.984375 17.484375 19.15625 11.84375 
Q 23.34375 6.203125 30.609375 6.203125 
Q 37.796875 6.203125 41.984375 11.859375 
Q 46.1875 17.53125 46.1875 27.296875 
Q 46.1875 37.015625 41.984375 42.703125 
Q 37.796875 48.390625 30.609375 48.390625 
z
M 30.609375 56 
Q 42.328125 56 49.015625 48.375 
Q 55.71875 40.765625 55.71875 27.296875 
Q 55.71875 13.875 49.015625 6.21875 
Q 42.328125 -1.421875 30.609375 -1.421875 
Q 18.84375 -1.421875 12.171875 6.21875 
Q 5.515625 13.875 5.515625 27.296875 
Q 5.515625 40.765625 12.171875 48.375 
Q 18.84375 56 30.609375 56 
z
" id="DejaVuSans-111"/>
      <path d="M 2.984375 54.6875 
L 12.5 54.6875 
L 29.59375 8.796875 
L 46.6875 54.6875 
L 56.203125 54.6875 
L 35.6875 0 
L 23.484375 0 
z
" id="DejaVuSans-118"/>
      <path d="M 54.890625 33.015625 
L 54.890625 0 
L 45.90625 0 
L 45.90625 32.71875 
Q 45.90625 40.484375 42.875 44.328125 
Q 39.84375 48.1875 33.796875 48.1875 
Q 26.515625 48.1875 22.3125 43.546875 
Q 18.109375 38.921875 18.109375 30.90625 
L 18.109375 0 
L 9.078125 0 
L 9.078125 54.6875 
L 18.109375 54.6875 
L 18.109375 46.1875 
Q 21.34375 51.125 25.703125 53.5625 
Q 30.078125 56 35.796875 56 
Q 45.21875 56 50.046875 50.171875 
Q 54.890625 44.34375 54.890625 33.015625 
z
" id="DejaVuSans-110"/>
      <path d="M 41.109375 46.296875 
Q 39.59375 47.171875 37.8125 47.578125 
Q 36.03125 48 33.890625 48 
Q 26.265625 48 22.1875 43.046875 
Q 18.109375 38.09375 18.109375 28.8125 
L 18.109375 0 
L 9.078125 0 
L 9.078125 54.6875 
L 18.109375 54.6875 
L 18.109375 46.1875 
Q 20.953125 51.171875 25.484375 53.578125 
Q 30.03125 56 36.53125 56 
Q 37.453125 56 38.578125 55.875 
Q 39.703125 55.765625 41.0625 55.515625 
z
" id="DejaVuSans-114"/>
     </defs>
     <g transform="translate(22.396875 304.77)rotate(-90)scale(0.2 -0.2)">
      <use xlink:href="#DejaVuSans-65"/>
      <use x="68.392578" xlink:href="#DejaVuSans-99"/>
      <use x="123.373047" xlink:href="#DejaVuSans-99"/>
      <use x="178.353516" xlink:href="#DejaVuSans-32"/>
      <use x="210.140625" xlink:href="#DejaVuSans-77"/>
      <use x="296.419922" xlink:href="#DejaVuSans-97"/>
      <use x="357.699219" xlink:href="#DejaVuSans-103"/>
      <use x="421.175781" xlink:href="#DejaVuSans-32"/>
      <use x="452.962891" xlink:href="#DejaVuSans-77"/>
      <use x="539.242188" xlink:href="#DejaVuSans-111"/>
      <use x="600.423828" xlink:href="#DejaVuSans-118"/>
      <use x="659.603516" xlink:href="#DejaVuSans-105"/>
      <use x="687.386719" xlink:href="#DejaVuSans-110"/>
      <use x="750.765625" xlink:href="#DejaVuSans-103"/>
      <use x="814.242188" xlink:href="#DejaVuSans-32"/>
      <use x="846.029297" xlink:href="#DejaVuSans-65"/>
      <use x="914.359375" xlink:href="#DejaVuSans-118"/>
      <use x="973.539062" xlink:href="#DejaVuSans-101"/>
      <use x="1035.0625" xlink:href="#DejaVuSans-114"/>
      <use x="1076.175781" xlink:href="#DejaVuSans-97"/>
      <use x="1137.455078" xlink:href="#DejaVuSans-103"/>
      <use x="1200.931641" xlink:href="#DejaVuSans-101"/>
     </g>
    </g>
   </g>
   <g id="line2d_12">
    <path clip-path="url(#p8762de07e6)" d="M 92.397614 188.887435 
L 93.113354 192.284884 
L 94.442587 197.130948 
L 95.148103 193.984768 
L 95.802495 185.105623 
L 96.487561 157.3688 
L 97.203301 146.26183 
L 97.847468 138.439833 
L 98.532534 135.877281 
L 99.248275 149.354941 
L 99.892442 184.857908 
L 100.577508 203.949239 
L 101.937415 225.540075 
L 102.622481 211.993826 
L 103.338222 178.193208 
L 103.982389 173.015928 
L 104.667455 161.679402 
L 105.383196 156.026351 
L 106.027362 173.121823 
L 106.712428 203.327597 
L 107.417944 203.821216 
L 108.072336 206.691125 
L 108.757402 198.359966 
L 109.462918 162.79734 
L 110.802375 124.309252 
L 111.507891 117.220587 
L 112.162283 136.543039 
L 112.847349 181.330593 
L 113.552865 209.608655 
L 114.207256 227.501609 
L 114.892323 222.711476 
L 115.597838 192.761331 
L 116.25223 175.261865 
L 116.937296 160.005343 
L 117.642812 156.851482 
L 118.297203 168.727271 
L 118.98227 187.07565 
L 119.687785 189.418102 
L 120.342177 188.983379 
L 121.027243 175.185112 
L 121.732759 142.792121 
L 122.387151 129.815366 
L 123.072217 122.545978 
L 123.787957 121.776462 
L 124.432124 140.923845 
L 125.11719 184.124334 
L 125.832931 216.965193 
L 126.477098 235.737477 
L 127.162164 233.862957 
L 128.522071 175.657533 
L 129.207137 154.639192 
L 129.912653 147.944187 
L 130.567045 156.471395 
L 131.252111 180.019536 
L 131.957627 193.496046 
L 132.612018 193.646123 
L 133.297084 177.085532 
L 134.0026 146.355191 
L 134.656992 140.159498 
L 135.342058 139.397004 
L 136.047574 141.637782 
L 136.701965 157.147625 
L 137.387031 193.88135 
L 138.092547 214.752466 
L 138.746939 220.137129 
L 139.432005 209.708158 
L 140.147746 183.916556 
L 141.476979 157.394939 
L 142.182494 154.454144 
L 142.836886 167.73407 
L 143.521952 194.326711 
L 144.227468 198.779001 
L 144.881859 196.79475 
L 145.566926 178.658032 
L 146.272441 142.847339 
L 146.926833 124.939605 
L 147.611899 110.294054 
L 148.32764 110.705781 
L 148.971807 136.751503 
L 149.656873 187.20207 
L 150.362389 218.535235 
L 151.01678 237.56467 
L 151.701846 232.237804 
L 152.397137 192.209712 
L 153.74682 148.971614 
L 154.452336 141.964785 
L 155.106727 149.453369 
L 155.791793 186.126462 
L 156.497309 200.088958 
L 157.151701 203.56057 
L 159.196674 137.192181 
L 159.88174 125.433532 
L 160.587256 133.624059 
L 161.926714 211.878282 
L 162.642455 231.780246 
L 163.286621 221.359685 
L 163.971687 191.597768 
L 164.677203 175.709575 
L 165.331595 153.205444 
L 166.016661 145.825025 
L 166.722177 163.218591 
L 167.376568 192.303754 
L 168.061635 202.453393 
L 168.76715 211.088246 
L 169.421542 199.236816 
L 170.106608 153.026534 
L 171.466515 112.248169 
L 172.151582 111.87461 
L 172.857097 135.062658 
L 173.511489 192.418711 
L 174.196555 221.316483 
L 174.902071 230.267328 
L 175.556463 217.40234 
L 176.241529 189.063466 
L 176.957269 166.957087 
L 177.601436 151.470824 
L 178.286502 160.06247 
L 179.002243 180.886048 
L 179.64641 206.547 
L 180.331476 214.011178 
L 181.047216 204.063456 
L 181.691383 171.136072 
L 182.376449 143.333045 
L 183.081965 124.138827 
L 183.736357 120.270565 
L 184.421423 138.97634 
L 185.78133 208.588669 
L 186.466396 224.008656 
L 187.182137 219.769808 
L 187.826304 190.550733 
L 189.216886 162.15017 
L 189.871277 164.264014 
L 190.556343 179.750271 
L 191.272084 207.581085 
L 191.916251 208.527796 
L 192.601317 204.33237 
L 193.317058 186.195778 
L 193.961224 145.75381 
L 194.64629 123.91093 
L 195.351806 116.373852 
L 196.006198 120.94412 
L 196.691264 136.834029 
L 197.407005 179.052589 
L 198.051171 201.879383 
L 198.736238 211.356783 
L 199.451978 203.085873 
L 200.096145 183.891978 
L 200.781211 175.744813 
L 201.496952 169.865189 
L 202.141118 172.608051 
L 202.81596 185.085453 
L 203.541925 201.646817 
L 204.186092 199.255008 
L 204.871158 188.06588 
L 206.231066 126.937698 
L 206.916132 124.60484 
L 207.631872 129.054964 
L 208.276039 145.913538 
L 209.676846 223.328999 
L 210.321013 231.330279 
L 211.006079 216.437469 
L 211.72182 181.725484 
L 213.051052 152.779582 
L 213.766793 149.997806 
L 214.41096 172.228661 
L 215.096026 211.244825 
L 215.811767 220.26534 
L 216.455933 221.631531 
L 217.140999 198.243536 
L 217.85674 153.41655 
L 218.500907 132.937028 
L 219.185973 125.572221 
L 219.891489 131.932134 
L 220.556105 164.37928 
L 221.230946 211.556813 
L 221.936462 226.072461 
L 222.590854 218.932914 
L 223.27592 191.000671 
L 224.635827 160.810416 
L 225.320894 156.703006 
L 226.036634 170.086843 
L 226.680801 198.825333 
L 227.365867 206.203464 
L 228.081608 209.137785 
L 228.725774 203.787549 
L 229.410841 188.654573 
L 230.126581 162.658004 
L 230.770748 144.230094 
L 231.455814 144.881558 
L 232.171555 154.028762 
L 232.815722 166.245985 
L 233.500788 204.999348 
L 234.216528 225.87209 
L 234.860695 218.021087 
L 235.545761 189.697836 
L 236.261502 188.449893 
L 236.905669 177.914907 
L 237.590735 171.316644 
L 238.306475 180.734773 
L 238.950642 207.301996 
L 239.635708 208.903594 
L 240.341224 201.945513 
L 240.995616 188.689143 
L 242.396423 150.563196 
L 243.040589 146.097405 
L 243.725655 150.952754 
L 245.770629 214.893009 
L 246.48637 210.9376 
L 247.130536 193.945805 
L 247.815602 158.893567 
L 248.531343 159.962748 
L 249.860576 170.659168 
L 250.576317 192.477163 
L 251.220483 223.159077 
L 251.90555 217.826591 
L 252.62129 199.089653 
L 253.265457 179.235995 
L 253.950523 147.462699 
L 254.666264 130.721094 
L 255.31043 131.143814 
L 255.995497 150.342637 
L 257.355404 209.206116 
L 258.04047 224.759691 
L 258.715311 211.934358 
L 259.400378 181.487835 
L 260.085444 171.486186 
L 260.77051 158.684189 
L 261.445351 153.140615 
L 262.130417 171.084717 
L 262.805258 202.153894 
L 263.500549 213.24188 
L 264.175391 219.840025 
L 264.860457 206.098657 
L 265.545523 166.49361 
L 266.220364 143.145032 
L 266.90543 131.804412 
L 267.580272 137.492981 
L 268.265338 164.987228 
L 268.950404 207.811681 
L 269.625245 225.738162 
L 270.310311 218.441662 
L 270.985153 188.917103 
L 271.680444 168.347211 
L 272.355285 152.263186 
L 273.040351 151.629079 
L 273.715192 175.791061 
L 274.400258 216.372931 
L 275.0751 231.573123 
L 275.770391 229.17372 
L 276.445232 208.517661 
L 277.120073 161.66162 
L 277.805139 129.536757 
L 278.490205 117.434386 
L 279.165047 130.149349 
L 279.850113 159.092247 
L 280.535179 204.096685 
L 281.21002 225.932702 
L 281.895086 225.708147 
L 283.254994 184.024736 
L 283.94006 162.774994 
L 284.625126 155.925618 
L 285.299967 169.000322 
L 285.995258 193.398325 
L 286.6701 209.275503 
L 287.344941 216.883374 
L 288.040232 201.781224 
L 288.715073 164.730492 
L 289.400139 147.776973 
L 290.074981 140.414043 
L 290.760047 141.081606 
L 291.434888 165.940255 
L 292.130179 207.780228 
L 292.80502 221.664584 
L 293.479862 219.960236 
L 294.164928 204.493213 
L 294.849994 165.177203 
L 295.53506 152.087711 
L 296.209901 149.433719 
L 296.894967 158.177338 
L 297.569809 183.818572 
L 298.254875 223.017224 
L 298.939941 231.675267 
L 299.614782 220.59334 
L 300.299848 195.813545 
L 300.984914 156.905782 
L 301.669981 140.117069 
L 302.344822 136.133423 
L 303.029888 151.154392 
L 304.40002 208.483861 
L 305.074861 208.169815 
L 305.759928 191.082612 
L 306.444994 160.43151 
L 307.119835 149.02369 
L 307.804901 153.488364 
L 308.479742 170.373334 
L 309.164809 191.984792 
L 309.849875 222.440683 
L 310.524716 228.820927 
L 311.209782 219.007804 
L 311.884623 203.935826 
L 312.579914 171.47546 
L 313.254756 159.19108 
L 313.939822 154.461353 
L 314.624888 152.579237 
L 315.299729 163.629568 
L 315.97457 191.285242 
L 316.659637 196.416953 
L 317.344703 200.62778 
L 318.029769 202.1175 
L 318.70461 193.652505 
L 319.389676 165.749334 
L 320.074742 157.2559 
L 320.749584 150.432871 
L 321.43465 157.677103 
L 322.109491 166.797804 
L 322.794557 193.1452 
L 323.479623 196.083186 
L 324.849756 151.271678 
L 325.524597 143.682809 
L 326.209663 150.045582 
L 326.894729 172.306861 
L 327.56957 206.835274 
L 328.244412 230.931208 
L 328.929478 225.875957 
L 329.614544 202.753682 
L 330.29961 161.910056 
L 330.974451 157.812633 
L 331.659517 152.074166 
L 332.344584 163.065518 
L 333.019425 184.361549 
L 333.704491 216.120613 
L 334.379332 213.711577 
L 335.074623 203.778515 
L 335.749465 173.006506 
L 336.424306 155.372731 
L 337.109372 144.012247 
L 337.794438 147.147093 
L 338.469279 168.685359 
L 339.16457 206.759718 
L 339.839412 224.974505 
L 340.514253 222.467381 
L 341.199319 193.279982 
L 341.884385 178.040942 
L 342.569451 168.646945 
L 343.254517 162.1291 
L 343.929359 173.147639 
L 344.6042 206.652857 
L 345.299491 224.693483 
L 345.974332 220.771031 
L 346.649173 206.151053 
L 347.33424 166.945845 
L 348.019306 144.382632 
L 348.694147 131.293874 
L 349.389438 138.069432 
L 350.064279 161.634758 
L 350.739121 208.935041 
L 351.424187 226.900617 
L 352.109253 220.12635 
L 354.154226 156.574486 
L 354.829068 151.469934 
L 355.524359 166.510032 
L 356.884266 217.826654 
L 357.569332 226.332863 
L 358.244173 209.661403 
L 358.92924 163.545819 
L 359.614306 148.073508 
L 360.289147 136.092725 
L 360.963988 136.549931 
L 361.659279 156.926003 
L 362.334121 207.052108 
L 363.008962 218.919543 
L 363.704253 209.872033 
L 364.379094 180.378989 
L 365.749226 152.962729 
L 366.424068 149.273044 
L 367.098909 170.191741 
L 367.783975 213.532842 
L 368.469041 232.242491 
L 369.143882 231.097916 
L 369.828949 204.982287 
L 370.514015 158.24346 
L 371.188856 127.902422 
L 371.884147 118.504758 
L 372.558988 129.475615 
L 373.233829 163.779649 
L 373.918896 214.545594 
L 374.603962 232.02343 
L 375.278803 219.895327 
L 375.974094 179.540314 
L 377.323777 143.883712 
L 378.008843 149.691428 
L 378.693909 175.444936 
L 379.378975 219.761602 
L 380.064041 231.622249 
L 380.738882 230.671967 
L 382.109015 156.220489 
L 382.783856 129.844166 
L 383.458697 126.36303 
L 384.143763 142.277859 
L 384.828829 186.80557 
L 385.503671 220.454539 
L 386.188737 233.336854 
L 386.873803 212.462956 
L 387.558869 170.439458 
L 388.23371 156.921405 
L 388.918776 150.370207 
L 389.593618 161.166994 
L 390.278684 192.223352 
L 390.96375 234.803896 
L 391.638591 235.931597 
L 392.333882 220.222897 
L 393.008724 172.480593 
L 393.683565 143.047258 
L 394.378856 121.410461 
L 395.053697 116.538754 
L 395.728538 136.566552 
L 396.413604 189.80498 
L 397.088446 216.84859 
L 397.773512 225.620172 
L 398.458578 219.220651 
L 399.143644 187.26926 
L 399.818485 169.435521 
L 400.503552 159.530072 
L 401.188618 168.965909 
L 401.863459 189.574974 
L 402.548525 224.435573 
L 403.233591 228.448519 
L 403.908433 214.037001 
L 405.278565 139.909177 
L 405.953406 119.1788 
L 406.638472 116.936531 
L 407.323538 138.616676 
L 407.99838 180.86353 
L 408.683446 214.883654 
L 409.368512 227.594443 
L 410.043353 216.079926 
L 410.728419 172.906366 
L 411.413485 158.572869 
L 412.088327 152.151097 
L 412.773393 159.229583 
L 413.458459 183.770303 
L 414.1333 233.856959 
L 414.818366 233.921987 
L 415.503432 214.639924 
L 416.178274 163.409457 
L 416.873565 130.508332 
L 417.548406 108.396322 
L 418.223247 113.137 
L 418.908313 141.622745 
L 419.59338 201.710552 
L 420.268221 237.959572 
L 420.953287 241.445979 
L 421.638353 222.511737 
L 422.313194 180.015224 
L 423.008485 152.554124 
L 423.683327 140.299019 
L 424.358168 155.787731 
L 425.053459 184.951822 
L 425.7283 224.217785 
L 426.403141 231.424787 
L 427.088208 209.609718 
L 427.773274 161.207861 
L 428.448115 128.122409 
L 429.133181 109.069277 
L 429.818247 109.278869 
L 430.493088 143.35546 
L 431.178155 201.659053 
L 431.863221 234.019462 
L 432.538062 236.1405 
L 433.233353 215.099274 
L 434.583036 160.643493 
L 435.268102 151.279083 
L 435.953168 165.728609 
L 436.628009 195.333237 
L 437.313075 215.08686 
L 437.998141 213.992469 
L 438.672983 186.674149 
L 439.358049 138.462084 
L 440.043115 123.535059 
L 440.717956 117.905844 
L 441.413247 135.561052 
L 442.088088 171.143814 
L 442.76293 220.952661 
L 443.458221 226.414105 
L 444.133062 211.933304 
L 444.807903 172.168665 
L 445.492969 158.358504 
L 446.178036 151.930887 
L 446.852877 168.302462 
L 447.548168 190.503096 
L 448.223009 221.92402 
L 448.89785 213.797168 
L 449.582916 198.833994 
L 450.267983 159.61788 
L 450.942824 140.130579 
L 451.62789 144.133609 
L 452.987797 186.357017 
L 453.683088 220.962382 
L 454.35793 236.022096 
L 455.032771 217.950452 
L 455.717837 181.289681 
L 456.402903 157.932858 
L 457.077744 145.665677 
L 457.773035 147.396187 
L 458.447877 172.312299 
L 459.122718 209.159835 
L 459.807784 229.337506 
L 460.49285 229.331287 
L 461.167692 204.409948 
L 461.852758 157.38104 
L 462.537824 131.315277 
L 463.212665 117.958681 
L 463.897731 123.858534 
L 464.582797 151.815813 
L 465.257639 199.674076 
L 465.95293 221.151761 
L 466.627771 219.657392 
L 467.302612 194.023331 
L 468.672744 158.31795 
L 469.347586 161.760611 
L 470.042877 180.312897 
L 470.717718 214.408688 
L 471.392559 226.840481 
L 472.077625 216.724812 
L 473.437533 136.428277 
L 474.122599 114.949016 
L 474.807665 113.769787 
L 475.482506 136.184355 
L 476.167572 182.548951 
L 476.852639 220.566364 
L 477.52748 222.956015 
L 478.212546 192.823303 
L 479.572453 164.810592 
L 480.25752 158.233518 
L 480.942586 176.457575 
L 481.617427 219.89609 
L 482.312718 230.744571 
L 482.987559 222.946536 
L 483.6624 189.945439 
L 484.357691 133.940101 
L 485.032533 106.688761 
L 485.707374 106.412147 
L 486.402665 128.170786 
L 487.077506 165.957343 
L 487.752348 216.808461 
L 488.437414 229.98404 
L 489.12248 212.730718 
L 489.797321 178.499512 
L 490.482387 163.693932 
L 491.167453 160.795825 
L 491.842295 164.257207 
L 493.212427 216.760249 
L 493.887268 211.831984 
L 494.582559 190.985723 
L 495.2574 152.554212 
L 495.932242 120.94519 
L 496.617308 101.509454 
L 497.302374 113.218556 
L 497.977215 137.692567 
L 498.672506 180.357262 
L 499.347347 210.107781 
L 500.022189 226.794729 
L 500.71748 216.97786 
L 501.392321 189.109909 
L 502.067162 177.251849 
L 502.752228 163.23708 
L 503.437295 165.893763 
L 504.112136 179.460607 
L 504.807427 205.287835 
L 505.482268 203.784835 
L 506.157109 189.656954 
L 507.527242 136.803523 
L 508.202083 110.679983 
L 508.887149 111.650742 
L 509.572215 132.580637 
L 510.942347 202.465774 
L 511.617189 231.241369 
L 512.29203 225.742433 
L 512.977096 195.393054 
L 513.662162 180.364443 
L 514.337004 158.669236 
L 515.02207 152.550725 
L 515.707136 171.569971 
L 516.381977 202.782586 
L 517.067043 206.20927 
L 517.752109 201.004239 
L 518.426951 171.23099 
L 519.122242 125.931792 
L 520.471924 103.818699 
L 521.15699 122.019691 
L 521.842056 162.348778 
L 522.516898 211.198747 
L 523.212189 221.525674 
L 523.88703 217.80845 
L 524.561871 184.183322 
L 525.246937 177.830014 
L 525.932003 162.693079 
L 526.606845 164.088626 
L 527.291911 184.859475 
L 527.976977 213.941001 
L 529.347109 188.07711 
L 530.021951 139.823476 
L 530.696792 114.236148 
L 531.392083 108.874702 
L 532.066924 116.194802 
L 532.741765 139.020877 
L 533.437056 194.487763 
L 534.111898 222.369192 
L 534.786739 229.856449 
L 535.48203 219.404193 
L 536.156871 175.428401 
L 537.527003 153.842892 
L 538.201845 159.363271 
L 538.876686 178.56214 
L 539.561752 216.308865 
L 540.246818 207.340018 
L 540.921659 191.607893 
L 541.606726 145.293568 
L 542.291792 120.168603 
L 542.966633 116.528158 
L 543.651699 127.015622 
L 544.336765 157.43976 
L 545.021831 207.709327 
L 545.696673 231.06616 
L 546.381739 222.628588 
L 547.05658 193.864805 
L 547.741646 171.479784 
L 548.416487 159.718331 
L 549.101554 159.089998 
L 549.78662 181.597044 
L 550.461461 211.306018 
L 551.146527 221.98208 
L 551.831593 213.3959 
L 552.516659 186.225991 
L 553.191501 135.079143 
L 553.876567 118.930063 
L 554.561633 110.929366 
L 555.236474 122.273709 
L 555.92154 154.978099 
L 556.606607 204.694784 
L 557.281448 227.859897 
L 557.966514 225.082633 
L 558.65158 204.21336 
L 559.326421 188.577491 
L 560.011487 164.348871 
L 560.696554 148.949807 
L 561.371395 166.983409 
L 562.056461 195.968196 
L 562.741527 207.865853 
L 563.416368 216.177937 
L 564.101435 203.607028 
L 564.786501 162.18711 
L 565.461342 137.42847 
L 566.156633 120.685912 
L 566.831474 124.949681 
L 567.506315 150.275924 
L 568.191382 194.261474 
L 568.876448 223.49446 
L 569.551289 232.439016 
L 570.24658 221.433671 
L 570.921421 175.843213 
L 571.596263 163.576357 
L 572.281329 148.314862 
L 572.966395 156.556453 
L 573.641236 174.090545 
L 574.336527 216.75427 
L 575.011368 222.12185 
L 575.68621 216.980786 
L 577.056342 138.488826 
L 577.731183 110.471595 
L 578.416249 108.380795 
L 579.101315 120.916207 
L 580.461223 211.181837 
L 581.146289 235.146577 
L 581.82113 221.167987 
L 582.506196 182.784892 
L 583.181038 163.103054 
L 583.866104 150.198556 
L 584.55117 160.916566 
L 585.236236 185.766228 
L 585.911077 225.244187 
L 586.606368 229.001533 
L 587.28121 220.146556 
L 589.326183 116.215682 
L 590.001024 116.203398 
L 590.686091 133.040331 
L 592.731064 237.092446 
L 593.41613 232.135893 
L 594.090971 201.85127 
L 594.776038 184.724045 
L 595.461104 161.059854 
L 596.135945 153.849843 
L 596.831236 172.276057 
L 597.506077 201.460068 
L 598.180919 212.187302 
L 598.865985 218.517258 
L 599.551051 201.855669 
L 600.225892 148.236086 
L 600.910958 127.583264 
L 601.596024 113.076218 
L 602.270866 112.904702 
L 602.955932 139.337821 
L 603.640998 199.0474 
L 604.315839 231.791379 
L 605.000905 242.166496 
L 605.685971 231.081731 
L 606.360813 186.453412 
L 607.730945 137.804416 
L 608.405786 142.509701 
L 609.101077 169.402661 
L 609.775918 209.086352 
L 610.45076 221.75394 
L 611.135826 222.211173 
L 611.820892 193.39376 
L 612.495733 150.822819 
L 613.180799 128.715123 
L 613.865866 119.308223 
L 614.540707 133.239196 
L 615.235998 171.386342 
L 615.910839 218.240873 
L 616.58568 237.918213 
L 617.270746 225.721268 
L 617.955813 183.614936 
L 619.31572 147.910529 
L 620.000786 148.688617 
L 620.675627 176.086154 
L 621.370918 220.849792 
L 622.04576 229.509658 
L 622.720601 223.137135 
L 623.405667 192.176893 
L 624.090733 142.629099 
L 624.765574 118.816998 
L 625.460865 107.946222 
L 626.135707 125.856006 
L 626.810548 165.774136 
L 627.505839 219.80204 
L 628.18068 244.378073 
L 628.865746 237.562279 
L 629.550813 201.435487 
L 630.225654 176.003641 
L 630.900495 161.056059 
L 631.585561 149.234408 
L 632.270627 172.552051 
L 632.945469 211.869532 
L 633.630535 234.085028 
L 634.315601 228.645469 
L 634.990442 209.448733 
L 635.675508 158.097124 
L 636.360574 129.488196 
L 637.035416 109.321938 
L 637.720482 116.026296 
L 638.405548 146.309411 
L 639.080389 200.409492 
L 639.765455 229.91721 
L 640.450522 232.846392 
L 641.125363 214.653323 
L 641.810429 179.294937 
L 642.495495 168.976085 
L 643.180561 152.56822 
L 643.865627 164.076845 
L 645.21531 230.282514 
L 645.900376 232.717265 
L 646.585442 227.951537 
L 647.260283 198.571102 
L 647.94535 145.477451 
L 648.630416 121.314381 
L 649.305257 109.064935 
L 649.990323 120.969226 
L 650.675389 153.404006 
L 651.35023 199.565294 
L 652.045521 222.553794 
L 652.720363 225.00036 
L 653.395204 209.069208 
L 654.090495 185.531184 
L 654.765336 172.660558 
L 655.440178 162.20311 
L 656.125244 170.807845 
L 656.81031 186.955062 
L 657.485151 207.651692 
L 658.170217 212.696825 
L 658.855283 208.526645 
L 659.530125 185.628492 
L 660.225416 154.557951 
L 660.900257 129.813959 
L 661.575098 123.349053 
L 662.270389 132.615854 
L 662.94523 157.874787 
L 664.315363 226.642575 
L 664.990204 232.012913 
L 665.665045 223.765283 
L 666.360336 184.788703 
L 667.024953 171.589609 
L 667.710019 152.243815 
L 668.40531 158.756517 
L 669.080151 173.983881 
L 669.765217 208.244938 
L 670.440058 212.27657 
L 671.125125 213.91982 
L 672.495257 175.186242 
L 673.170098 146.64365 
L 673.844939 135.740486 
L 674.54023 126.429597 
L 675.889913 159.709007 
L 676.585204 192.192733 
L 677.260045 205.511077 
L 677.934886 214.182448 
L 678.630177 197.559331 
L 679.305019 189.8597 
L 679.97986 183.834068 
L 680.675151 179.131293 
L 681.349992 180.192313 
L 682.024834 192.831134 
L 682.720125 196.527166 
L 683.394966 192.419226 
L 684.080032 187.330917 
L 684.754873 178.304273 
L 686.114781 162.781889 
L 686.799847 158.707374 
L 687.484913 160.887621 
L 688.159754 165.034467 
L 688.855045 167.827372 
L 689.529886 169.808094 
L 691.57486 194.798861 
L 692.249701 199.944583 
L 692.944992 203.767857 
L 693.619833 202.982411 
L 694.294675 195.571725 
L 694.979741 185.9795 
L 696.339648 171.598107 
L 697.034939 167.540042 
L 697.709781 170.206177 
L 699.079913 179.441135 
L 699.754754 184.905002 
L 700.429595 188.682977 
L 701.124886 189.759037 
L 701.124886 189.759037 
" style="fill:none;stroke:#1f77b4;stroke-linecap:square;stroke-width:1.5;"/>
   </g>
  </g>
 </g>
 <defs>
  <clipPath id="p8762de07e6">
   <rect height="332.64" width="669.6" x="61.96125" y="12.2"/>
  </clipPath>
 </defs>
</svg>
