<?xml version="1.0" encoding="utf-8" standalone="no"?>
<!DOCTYPE svg PUBLIC "-//W3C//DTD SVG 1.1//EN"
  "http://www.w3.org/Graphics/SVG/1.1/DTD/svg11.dtd">
<!-- Created with matplotlib (https://matplotlib.org/) -->
<svg height="403.155469pt" version="1.1" viewBox="0 0 758.844687 403.155469" width="758.844687pt" xmlns="http://www.w3.org/2000/svg" xmlns:xlink="http://www.w3.org/1999/xlink">
 <defs>
  <style type="text/css">
*{stroke-linecap:butt;stroke-linejoin:round;}
  </style>
 </defs>
 <g id="figure_1">
  <g id="patch_1">
   <path d="M 0 403.155469 
L 758.844687 403.155469 
L 758.844687 0 
L 0 0 
z
" style="fill:#ffffff;"/>
  </g>
  <g id="axes_1">
   <g id="patch_2">
    <path d="M 77.044688 346.678594 
L 746.644688 346.678594 
L 746.644688 14.038594 
L 77.044688 14.038594 
z
" style="fill:#ffffff;"/>
   </g>
   <g id="matplotlib.axis_1">
    <g id="xtick_1">
     <g id="line2d_1">
      <defs>
       <path d="M 0 5 
L 0 -5 
" id="md908e964b9" style="stroke:#525252;stroke-width:4;"/>
      </defs>
      <g>
       <use style="fill:#525252;stroke:#525252;stroke-width:4;" x="148.224518" xlink:href="#md908e964b9" y="346.678594"/>
      </g>
     </g>
     <g id="text_1">
      <!-- 10000 -->
      <defs>
       <path d="M 12.40625 8.296875 
L 28.515625 8.296875 
L 28.515625 63.921875 
L 10.984375 60.40625 
L 10.984375 69.390625 
L 28.421875 72.90625 
L 38.28125 72.90625 
L 38.28125 8.296875 
L 54.390625 8.296875 
L 54.390625 0 
L 12.40625 0 
z
" id="DejaVuSans-49"/>
       <path d="M 31.78125 66.40625 
Q 24.171875 66.40625 20.328125 58.90625 
Q 16.5 51.421875 16.5 36.375 
Q 16.5 21.390625 20.328125 13.890625 
Q 24.171875 6.390625 31.78125 6.390625 
Q 39.453125 6.390625 43.28125 13.890625 
Q 47.125 21.390625 47.125 36.375 
Q 47.125 51.421875 43.28125 58.90625 
Q 39.453125 66.40625 31.78125 66.40625 
z
M 31.78125 74.21875 
Q 44.046875 74.21875 50.515625 64.515625 
Q 56.984375 54.828125 56.984375 36.375 
Q 56.984375 17.96875 50.515625 8.265625 
Q 44.046875 -1.421875 31.78125 -1.421875 
Q 19.53125 -1.421875 13.0625 8.265625 
Q 6.59375 17.96875 6.59375 36.375 
Q 6.59375 54.828125 13.0625 64.515625 
Q 19.53125 74.21875 31.78125 74.21875 
z
" id="DejaVuSans-48"/>
      </defs>
      <g transform="translate(119.593268 368.855781)scale(0.18 -0.18)">
       <use xlink:href="#DejaVuSans-49"/>
       <use x="63.623047" xlink:href="#DejaVuSans-48"/>
       <use x="127.246094" xlink:href="#DejaVuSans-48"/>
       <use x="190.869141" xlink:href="#DejaVuSans-48"/>
       <use x="254.492188" xlink:href="#DejaVuSans-48"/>
      </g>
     </g>
    </g>
    <g id="xtick_2">
     <g id="line2d_2">
      <g>
       <use style="fill:#525252;stroke:#525252;stroke-width:4;" x="249.677372" xlink:href="#md908e964b9" y="346.678594"/>
      </g>
     </g>
     <g id="text_2">
      <!-- 20000 -->
      <defs>
       <path d="M 19.1875 8.296875 
L 53.609375 8.296875 
L 53.609375 0 
L 7.328125 0 
L 7.328125 8.296875 
Q 12.9375 14.109375 22.625 23.890625 
Q 32.328125 33.6875 34.8125 36.53125 
Q 39.546875 41.84375 41.421875 45.53125 
Q 43.3125 49.21875 43.3125 52.78125 
Q 43.3125 58.59375 39.234375 62.25 
Q 35.15625 65.921875 28.609375 65.921875 
Q 23.96875 65.921875 18.8125 64.3125 
Q 13.671875 62.703125 7.8125 59.421875 
L 7.8125 69.390625 
Q 13.765625 71.78125 18.9375 73 
Q 24.125 74.21875 28.421875 74.21875 
Q 39.75 74.21875 46.484375 68.546875 
Q 53.21875 62.890625 53.21875 53.421875 
Q 53.21875 48.921875 51.53125 44.890625 
Q 49.859375 40.875 45.40625 35.40625 
Q 44.1875 33.984375 37.640625 27.21875 
Q 31.109375 20.453125 19.1875 8.296875 
z
" id="DejaVuSans-50"/>
      </defs>
      <g transform="translate(221.046122 368.855781)scale(0.18 -0.18)">
       <use xlink:href="#DejaVuSans-50"/>
       <use x="63.623047" xlink:href="#DejaVuSans-48"/>
       <use x="127.246094" xlink:href="#DejaVuSans-48"/>
       <use x="190.869141" xlink:href="#DejaVuSans-48"/>
       <use x="254.492188" xlink:href="#DejaVuSans-48"/>
      </g>
     </g>
    </g>
    <g id="xtick_3">
     <g id="line2d_3">
      <g>
       <use style="fill:#525252;stroke:#525252;stroke-width:4;" x="351.130227" xlink:href="#md908e964b9" y="346.678594"/>
      </g>
     </g>
     <g id="text_3">
      <!-- 30000 -->
      <defs>
       <path d="M 40.578125 39.3125 
Q 47.65625 37.796875 51.625 33 
Q 55.609375 28.21875 55.609375 21.1875 
Q 55.609375 10.40625 48.1875 4.484375 
Q 40.765625 -1.421875 27.09375 -1.421875 
Q 22.515625 -1.421875 17.65625 -0.515625 
Q 12.796875 0.390625 7.625 2.203125 
L 7.625 11.71875 
Q 11.71875 9.328125 16.59375 8.109375 
Q 21.484375 6.890625 26.8125 6.890625 
Q 36.078125 6.890625 40.9375 10.546875 
Q 45.796875 14.203125 45.796875 21.1875 
Q 45.796875 27.640625 41.28125 31.265625 
Q 36.765625 34.90625 28.71875 34.90625 
L 20.21875 34.90625 
L 20.21875 43.015625 
L 29.109375 43.015625 
Q 36.375 43.015625 40.234375 45.921875 
Q 44.09375 48.828125 44.09375 54.296875 
Q 44.09375 59.90625 40.109375 62.90625 
Q 36.140625 65.921875 28.71875 65.921875 
Q 24.65625 65.921875 20.015625 65.03125 
Q 15.375 64.15625 9.8125 62.3125 
L 9.8125 71.09375 
Q 15.4375 72.65625 20.34375 73.4375 
Q 25.25 74.21875 29.59375 74.21875 
Q 40.828125 74.21875 47.359375 69.109375 
Q 53.90625 64.015625 53.90625 55.328125 
Q 53.90625 49.265625 50.4375 45.09375 
Q 46.96875 40.921875 40.578125 39.3125 
z
" id="DejaVuSans-51"/>
      </defs>
      <g transform="translate(322.498977 368.855781)scale(0.18 -0.18)">
       <use xlink:href="#DejaVuSans-51"/>
       <use x="63.623047" xlink:href="#DejaVuSans-48"/>
       <use x="127.246094" xlink:href="#DejaVuSans-48"/>
       <use x="190.869141" xlink:href="#DejaVuSans-48"/>
       <use x="254.492188" xlink:href="#DejaVuSans-48"/>
      </g>
     </g>
    </g>
    <g id="xtick_4">
     <g id="line2d_4">
      <g>
       <use style="fill:#525252;stroke:#525252;stroke-width:4;" x="452.583081" xlink:href="#md908e964b9" y="346.678594"/>
      </g>
     </g>
     <g id="text_4">
      <!-- 40000 -->
      <defs>
       <path d="M 37.796875 64.3125 
L 12.890625 25.390625 
L 37.796875 25.390625 
z
M 35.203125 72.90625 
L 47.609375 72.90625 
L 47.609375 25.390625 
L 58.015625 25.390625 
L 58.015625 17.1875 
L 47.609375 17.1875 
L 47.609375 0 
L 37.796875 0 
L 37.796875 17.1875 
L 4.890625 17.1875 
L 4.890625 26.703125 
z
" id="DejaVuSans-52"/>
      </defs>
      <g transform="translate(423.951831 368.855781)scale(0.18 -0.18)">
       <use xlink:href="#DejaVuSans-52"/>
       <use x="63.623047" xlink:href="#DejaVuSans-48"/>
       <use x="127.246094" xlink:href="#DejaVuSans-48"/>
       <use x="190.869141" xlink:href="#DejaVuSans-48"/>
       <use x="254.492188" xlink:href="#DejaVuSans-48"/>
      </g>
     </g>
    </g>
    <g id="xtick_5">
     <g id="line2d_5">
      <g>
       <use style="fill:#525252;stroke:#525252;stroke-width:4;" x="554.035936" xlink:href="#md908e964b9" y="346.678594"/>
      </g>
     </g>
     <g id="text_5">
      <!-- 50000 -->
      <defs>
       <path d="M 10.796875 72.90625 
L 49.515625 72.90625 
L 49.515625 64.59375 
L 19.828125 64.59375 
L 19.828125 46.734375 
Q 21.96875 47.46875 24.109375 47.828125 
Q 26.265625 48.1875 28.421875 48.1875 
Q 40.625 48.1875 47.75 41.5 
Q 54.890625 34.8125 54.890625 23.390625 
Q 54.890625 11.625 47.5625 5.09375 
Q 40.234375 -1.421875 26.90625 -1.421875 
Q 22.3125 -1.421875 17.546875 -0.640625 
Q 12.796875 0.140625 7.71875 1.703125 
L 7.71875 11.625 
Q 12.109375 9.234375 16.796875 8.0625 
Q 21.484375 6.890625 26.703125 6.890625 
Q 35.15625 6.890625 40.078125 11.328125 
Q 45.015625 15.765625 45.015625 23.390625 
Q 45.015625 31 40.078125 35.4375 
Q 35.15625 39.890625 26.703125 39.890625 
Q 22.75 39.890625 18.8125 39.015625 
Q 14.890625 38.140625 10.796875 36.28125 
z
" id="DejaVuSans-53"/>
      </defs>
      <g transform="translate(525.404686 368.855781)scale(0.18 -0.18)">
       <use xlink:href="#DejaVuSans-53"/>
       <use x="63.623047" xlink:href="#DejaVuSans-48"/>
       <use x="127.246094" xlink:href="#DejaVuSans-48"/>
       <use x="190.869141" xlink:href="#DejaVuSans-48"/>
       <use x="254.492188" xlink:href="#DejaVuSans-48"/>
      </g>
     </g>
    </g>
    <g id="xtick_6">
     <g id="line2d_6">
      <g>
       <use style="fill:#525252;stroke:#525252;stroke-width:4;" x="655.48879" xlink:href="#md908e964b9" y="346.678594"/>
      </g>
     </g>
     <g id="text_6">
      <!-- 60000 -->
      <defs>
       <path d="M 33.015625 40.375 
Q 26.375 40.375 22.484375 35.828125 
Q 18.609375 31.296875 18.609375 23.390625 
Q 18.609375 15.53125 22.484375 10.953125 
Q 26.375 6.390625 33.015625 6.390625 
Q 39.65625 6.390625 43.53125 10.953125 
Q 47.40625 15.53125 47.40625 23.390625 
Q 47.40625 31.296875 43.53125 35.828125 
Q 39.65625 40.375 33.015625 40.375 
z
M 52.59375 71.296875 
L 52.59375 62.3125 
Q 48.875 64.0625 45.09375 64.984375 
Q 41.3125 65.921875 37.59375 65.921875 
Q 27.828125 65.921875 22.671875 59.328125 
Q 17.53125 52.734375 16.796875 39.40625 
Q 19.671875 43.65625 24.015625 45.921875 
Q 28.375 48.1875 33.59375 48.1875 
Q 44.578125 48.1875 50.953125 41.515625 
Q 57.328125 34.859375 57.328125 23.390625 
Q 57.328125 12.15625 50.6875 5.359375 
Q 44.046875 -1.421875 33.015625 -1.421875 
Q 20.359375 -1.421875 13.671875 8.265625 
Q 6.984375 17.96875 6.984375 36.375 
Q 6.984375 53.65625 15.1875 63.9375 
Q 23.390625 74.21875 37.203125 74.21875 
Q 40.921875 74.21875 44.703125 73.484375 
Q 48.484375 72.75 52.59375 71.296875 
z
" id="DejaVuSans-54"/>
      </defs>
      <g transform="translate(626.85754 368.855781)scale(0.18 -0.18)">
       <use xlink:href="#DejaVuSans-54"/>
       <use x="63.623047" xlink:href="#DejaVuSans-48"/>
       <use x="127.246094" xlink:href="#DejaVuSans-48"/>
       <use x="190.869141" xlink:href="#DejaVuSans-48"/>
       <use x="254.492188" xlink:href="#DejaVuSans-48"/>
      </g>
     </g>
    </g>
    <g id="text_7">
     <!-- Time (ms) -->
     <defs>
      <path d="M -0.296875 72.90625 
L 61.375 72.90625 
L 61.375 64.59375 
L 35.5 64.59375 
L 35.5 0 
L 25.59375 0 
L 25.59375 64.59375 
L -0.296875 64.59375 
z
" id="DejaVuSans-84"/>
      <path d="M 9.421875 54.6875 
L 18.40625 54.6875 
L 18.40625 0 
L 9.421875 0 
z
M 9.421875 75.984375 
L 18.40625 75.984375 
L 18.40625 64.59375 
L 9.421875 64.59375 
z
" id="DejaVuSans-105"/>
      <path d="M 52 44.1875 
Q 55.375 50.25 60.0625 53.125 
Q 64.75 56 71.09375 56 
Q 79.640625 56 84.28125 50.015625 
Q 88.921875 44.046875 88.921875 33.015625 
L 88.921875 0 
L 79.890625 0 
L 79.890625 32.71875 
Q 79.890625 40.578125 77.09375 44.375 
Q 74.3125 48.1875 68.609375 48.1875 
Q 61.625 48.1875 57.5625 43.546875 
Q 53.515625 38.921875 53.515625 30.90625 
L 53.515625 0 
L 44.484375 0 
L 44.484375 32.71875 
Q 44.484375 40.625 41.703125 44.40625 
Q 38.921875 48.1875 33.109375 48.1875 
Q 26.21875 48.1875 22.15625 43.53125 
Q 18.109375 38.875 18.109375 30.90625 
L 18.109375 0 
L 9.078125 0 
L 9.078125 54.6875 
L 18.109375 54.6875 
L 18.109375 46.1875 
Q 21.1875 51.21875 25.484375 53.609375 
Q 29.78125 56 35.6875 56 
Q 41.65625 56 45.828125 52.96875 
Q 50 49.953125 52 44.1875 
z
" id="DejaVuSans-109"/>
      <path d="M 56.203125 29.59375 
L 56.203125 25.203125 
L 14.890625 25.203125 
Q 15.484375 15.921875 20.484375 11.0625 
Q 25.484375 6.203125 34.421875 6.203125 
Q 39.59375 6.203125 44.453125 7.46875 
Q 49.3125 8.734375 54.109375 11.28125 
L 54.109375 2.78125 
Q 49.265625 0.734375 44.1875 -0.34375 
Q 39.109375 -1.421875 33.890625 -1.421875 
Q 20.796875 -1.421875 13.15625 6.1875 
Q 5.515625 13.8125 5.515625 26.8125 
Q 5.515625 40.234375 12.765625 48.109375 
Q 20.015625 56 32.328125 56 
Q 43.359375 56 49.78125 48.890625 
Q 56.203125 41.796875 56.203125 29.59375 
z
M 47.21875 32.234375 
Q 47.125 39.59375 43.09375 43.984375 
Q 39.0625 48.390625 32.421875 48.390625 
Q 24.90625 48.390625 20.390625 44.140625 
Q 15.875 39.890625 15.1875 32.171875 
z
" id="DejaVuSans-101"/>
      <path id="DejaVuSans-32"/>
      <path d="M 31 75.875 
Q 24.46875 64.65625 21.28125 53.65625 
Q 18.109375 42.671875 18.109375 31.390625 
Q 18.109375 20.125 21.3125 9.0625 
Q 24.515625 -2 31 -13.1875 
L 23.1875 -13.1875 
Q 15.875 -1.703125 12.234375 9.375 
Q 8.59375 20.453125 8.59375 31.390625 
Q 8.59375 42.28125 12.203125 53.3125 
Q 15.828125 64.359375 23.1875 75.875 
z
" id="DejaVuSans-40"/>
      <path d="M 44.28125 53.078125 
L 44.28125 44.578125 
Q 40.484375 46.53125 36.375 47.5 
Q 32.28125 48.484375 27.875 48.484375 
Q 21.1875 48.484375 17.84375 46.4375 
Q 14.5 44.390625 14.5 40.28125 
Q 14.5 37.15625 16.890625 35.375 
Q 19.28125 33.59375 26.515625 31.984375 
L 29.59375 31.296875 
Q 39.15625 29.25 43.1875 25.515625 
Q 47.21875 21.78125 47.21875 15.09375 
Q 47.21875 7.46875 41.1875 3.015625 
Q 35.15625 -1.421875 24.609375 -1.421875 
Q 20.21875 -1.421875 15.453125 -0.5625 
Q 10.6875 0.296875 5.421875 2 
L 5.421875 11.28125 
Q 10.40625 8.6875 15.234375 7.390625 
Q 20.0625 6.109375 24.8125 6.109375 
Q 31.15625 6.109375 34.5625 8.28125 
Q 37.984375 10.453125 37.984375 14.40625 
Q 37.984375 18.0625 35.515625 20.015625 
Q 33.0625 21.96875 24.703125 23.78125 
L 21.578125 24.515625 
Q 13.234375 26.265625 9.515625 29.90625 
Q 5.8125 33.546875 5.8125 39.890625 
Q 5.8125 47.609375 11.28125 51.796875 
Q 16.75 56 26.8125 56 
Q 31.78125 56 36.171875 55.265625 
Q 40.578125 54.546875 44.28125 53.078125 
z
" id="DejaVuSans-115"/>
      <path d="M 8.015625 75.875 
L 15.828125 75.875 
Q 23.140625 64.359375 26.78125 53.3125 
Q 30.421875 42.28125 30.421875 31.390625 
Q 30.421875 20.453125 26.78125 9.375 
Q 23.140625 -1.703125 15.828125 -13.1875 
L 8.015625 -13.1875 
Q 14.5 -2 17.703125 9.0625 
Q 20.90625 20.125 20.90625 31.390625 
Q 20.90625 42.671875 17.703125 53.65625 
Q 14.5 64.65625 8.015625 75.875 
z
" id="DejaVuSans-41"/>
     </defs>
     <g transform="translate(361.138438 391.796094)scale(0.2 -0.2)">
      <use xlink:href="#DejaVuSans-84"/>
      <use x="61.037109" xlink:href="#DejaVuSans-105"/>
      <use x="88.820312" xlink:href="#DejaVuSans-109"/>
      <use x="186.232422" xlink:href="#DejaVuSans-101"/>
      <use x="247.755859" xlink:href="#DejaVuSans-32"/>
      <use x="279.542969" xlink:href="#DejaVuSans-40"/>
      <use x="318.556641" xlink:href="#DejaVuSans-109"/>
      <use x="415.96875" xlink:href="#DejaVuSans-115"/>
      <use x="468.068359" xlink:href="#DejaVuSans-41"/>
     </g>
    </g>
   </g>
   <g id="matplotlib.axis_2">
    <g id="ytick_1">
     <g id="line2d_7">
      <defs>
       <path d="M 5 0 
L -5 -0 
" id="m9641fb5e3d" style="stroke:#525252;stroke-width:4;"/>
      </defs>
      <g>
       <use style="fill:#525252;stroke:#525252;stroke-width:4;" x="77.044688" xlink:href="#m9641fb5e3d" y="346.678594"/>
      </g>
     </g>
     <g id="text_8">
      <!-- −10 -->
      <defs>
       <path d="M 10.59375 35.5 
L 73.1875 35.5 
L 73.1875 27.203125 
L 10.59375 27.203125 
z
" id="DejaVuSans-8722"/>
      </defs>
      <g transform="translate(30.55625 353.517187)scale(0.18 -0.18)">
       <use xlink:href="#DejaVuSans-8722"/>
       <use x="83.789062" xlink:href="#DejaVuSans-49"/>
       <use x="147.412109" xlink:href="#DejaVuSans-48"/>
      </g>
     </g>
    </g>
    <g id="ytick_2">
     <g id="line2d_8">
      <g>
       <use style="fill:#525252;stroke:#525252;stroke-width:4;" x="77.044688" xlink:href="#m9641fb5e3d" y="299.158594"/>
      </g>
     </g>
     <g id="text_9">
      <!-- −5 -->
      <g transform="translate(42.00875 305.997187)scale(0.18 -0.18)">
       <use xlink:href="#DejaVuSans-8722"/>
       <use x="83.789062" xlink:href="#DejaVuSans-53"/>
      </g>
     </g>
    </g>
    <g id="ytick_3">
     <g id="line2d_9">
      <g>
       <use style="fill:#525252;stroke:#525252;stroke-width:4;" x="77.044688" xlink:href="#m9641fb5e3d" y="251.638594"/>
      </g>
     </g>
     <g id="text_10">
      <!-- 0 -->
      <g transform="translate(57.092188 258.477187)scale(0.18 -0.18)">
       <use xlink:href="#DejaVuSans-48"/>
      </g>
     </g>
    </g>
    <g id="ytick_4">
     <g id="line2d_10">
      <g>
       <use style="fill:#525252;stroke:#525252;stroke-width:4;" x="77.044688" xlink:href="#m9641fb5e3d" y="204.118594"/>
      </g>
     </g>
     <g id="text_11">
      <!-- 5 -->
      <g transform="translate(57.092188 210.957187)scale(0.18 -0.18)">
       <use xlink:href="#DejaVuSans-53"/>
      </g>
     </g>
    </g>
    <g id="ytick_5">
     <g id="line2d_11">
      <g>
       <use style="fill:#525252;stroke:#525252;stroke-width:4;" x="77.044688" xlink:href="#m9641fb5e3d" y="156.598594"/>
      </g>
     </g>
     <g id="text_12">
      <!-- 10 -->
      <g transform="translate(45.639688 163.437187)scale(0.18 -0.18)">
       <use xlink:href="#DejaVuSans-49"/>
       <use x="63.623047" xlink:href="#DejaVuSans-48"/>
      </g>
     </g>
    </g>
    <g id="ytick_6">
     <g id="line2d_12">
      <g>
       <use style="fill:#525252;stroke:#525252;stroke-width:4;" x="77.044688" xlink:href="#m9641fb5e3d" y="109.078594"/>
      </g>
     </g>
     <g id="text_13">
      <!-- 15 -->
      <g transform="translate(45.639688 115.917187)scale(0.18 -0.18)">
       <use xlink:href="#DejaVuSans-49"/>
       <use x="63.623047" xlink:href="#DejaVuSans-53"/>
      </g>
     </g>
    </g>
    <g id="ytick_7">
     <g id="line2d_13">
      <g>
       <use style="fill:#525252;stroke:#525252;stroke-width:4;" x="77.044688" xlink:href="#m9641fb5e3d" y="61.558594"/>
      </g>
     </g>
     <g id="text_14">
      <!-- 20 -->
      <g transform="translate(45.639688 68.397187)scale(0.18 -0.18)">
       <use xlink:href="#DejaVuSans-50"/>
       <use x="63.623047" xlink:href="#DejaVuSans-48"/>
      </g>
     </g>
    </g>
    <g id="ytick_8">
     <g id="line2d_14">
      <g>
       <use style="fill:#525252;stroke:#525252;stroke-width:4;" x="77.044688" xlink:href="#m9641fb5e3d" y="14.038594"/>
      </g>
     </g>
     <g id="text_15">
      <!-- 25 -->
      <g transform="translate(45.639688 20.877187)scale(0.18 -0.18)">
       <use xlink:href="#DejaVuSans-50"/>
       <use x="63.623047" xlink:href="#DejaVuSans-53"/>
      </g>
     </g>
    </g>
    <g id="text_16">
     <!-- Acceleration -->
     <defs>
      <path d="M 34.1875 63.1875 
L 20.796875 26.90625 
L 47.609375 26.90625 
z
M 28.609375 72.90625 
L 39.796875 72.90625 
L 67.578125 0 
L 57.328125 0 
L 50.6875 18.703125 
L 17.828125 18.703125 
L 11.1875 0 
L 0.78125 0 
z
" id="DejaVuSans-65"/>
      <path d="M 48.78125 52.59375 
L 48.78125 44.1875 
Q 44.96875 46.296875 41.140625 47.34375 
Q 37.3125 48.390625 33.40625 48.390625 
Q 24.65625 48.390625 19.8125 42.84375 
Q 14.984375 37.3125 14.984375 27.296875 
Q 14.984375 17.28125 19.8125 11.734375 
Q 24.65625 6.203125 33.40625 6.203125 
Q 37.3125 6.203125 41.140625 7.25 
Q 44.96875 8.296875 48.78125 10.40625 
L 48.78125 2.09375 
Q 45.015625 0.34375 40.984375 -0.53125 
Q 36.96875 -1.421875 32.421875 -1.421875 
Q 20.0625 -1.421875 12.78125 6.34375 
Q 5.515625 14.109375 5.515625 27.296875 
Q 5.515625 40.671875 12.859375 48.328125 
Q 20.21875 56 33.015625 56 
Q 37.15625 56 41.109375 55.140625 
Q 45.0625 54.296875 48.78125 52.59375 
z
" id="DejaVuSans-99"/>
      <path d="M 9.421875 75.984375 
L 18.40625 75.984375 
L 18.40625 0 
L 9.421875 0 
z
" id="DejaVuSans-108"/>
      <path d="M 41.109375 46.296875 
Q 39.59375 47.171875 37.8125 47.578125 
Q 36.03125 48 33.890625 48 
Q 26.265625 48 22.1875 43.046875 
Q 18.109375 38.09375 18.109375 28.8125 
L 18.109375 0 
L 9.078125 0 
L 9.078125 54.6875 
L 18.109375 54.6875 
L 18.109375 46.1875 
Q 20.953125 51.171875 25.484375 53.578125 
Q 30.03125 56 36.53125 56 
Q 37.453125 56 38.578125 55.875 
Q 39.703125 55.765625 41.0625 55.515625 
z
" id="DejaVuSans-114"/>
      <path d="M 34.28125 27.484375 
Q 23.390625 27.484375 19.1875 25 
Q 14.984375 22.515625 14.984375 16.5 
Q 14.984375 11.71875 18.140625 8.90625 
Q 21.296875 6.109375 26.703125 6.109375 
Q 34.1875 6.109375 38.703125 11.40625 
Q 43.21875 16.703125 43.21875 25.484375 
L 43.21875 27.484375 
z
M 52.203125 31.203125 
L 52.203125 0 
L 43.21875 0 
L 43.21875 8.296875 
Q 40.140625 3.328125 35.546875 0.953125 
Q 30.953125 -1.421875 24.3125 -1.421875 
Q 15.921875 -1.421875 10.953125 3.296875 
Q 6 8.015625 6 15.921875 
Q 6 25.140625 12.171875 29.828125 
Q 18.359375 34.515625 30.609375 34.515625 
L 43.21875 34.515625 
L 43.21875 35.40625 
Q 43.21875 41.609375 39.140625 45 
Q 35.0625 48.390625 27.6875 48.390625 
Q 23 48.390625 18.546875 47.265625 
Q 14.109375 46.140625 10.015625 43.890625 
L 10.015625 52.203125 
Q 14.9375 54.109375 19.578125 55.046875 
Q 24.21875 56 28.609375 56 
Q 40.484375 56 46.34375 49.84375 
Q 52.203125 43.703125 52.203125 31.203125 
z
" id="DejaVuSans-97"/>
      <path d="M 18.3125 70.21875 
L 18.3125 54.6875 
L 36.8125 54.6875 
L 36.8125 47.703125 
L 18.3125 47.703125 
L 18.3125 18.015625 
Q 18.3125 11.328125 20.140625 9.421875 
Q 21.96875 7.515625 27.59375 7.515625 
L 36.8125 7.515625 
L 36.8125 0 
L 27.59375 0 
Q 17.1875 0 13.234375 3.875 
Q 9.28125 7.765625 9.28125 18.015625 
L 9.28125 47.703125 
L 2.6875 47.703125 
L 2.6875 54.6875 
L 9.28125 54.6875 
L 9.28125 70.21875 
z
" id="DejaVuSans-116"/>
      <path d="M 30.609375 48.390625 
Q 23.390625 48.390625 19.1875 42.75 
Q 14.984375 37.109375 14.984375 27.296875 
Q 14.984375 17.484375 19.15625 11.84375 
Q 23.34375 6.203125 30.609375 6.203125 
Q 37.796875 6.203125 41.984375 11.859375 
Q 46.1875 17.53125 46.1875 27.296875 
Q 46.1875 37.015625 41.984375 42.703125 
Q 37.796875 48.390625 30.609375 48.390625 
z
M 30.609375 56 
Q 42.328125 56 49.015625 48.375 
Q 55.71875 40.765625 55.71875 27.296875 
Q 55.71875 13.875 49.015625 6.21875 
Q 42.328125 -1.421875 30.609375 -1.421875 
Q 18.84375 -1.421875 12.171875 6.21875 
Q 5.515625 13.875 5.515625 27.296875 
Q 5.515625 40.765625 12.171875 48.375 
Q 18.84375 56 30.609375 56 
z
" id="DejaVuSans-111"/>
      <path d="M 54.890625 33.015625 
L 54.890625 0 
L 45.90625 0 
L 45.90625 32.71875 
Q 45.90625 40.484375 42.875 44.328125 
Q 39.84375 48.1875 33.796875 48.1875 
Q 26.515625 48.1875 22.3125 43.546875 
Q 18.109375 38.921875 18.109375 30.90625 
L 18.109375 0 
L 9.078125 0 
L 9.078125 54.6875 
L 18.109375 54.6875 
L 18.109375 46.1875 
Q 21.34375 51.125 25.703125 53.5625 
Q 30.078125 56 35.796875 56 
Q 45.21875 56 50.046875 50.171875 
Q 54.890625 44.34375 54.890625 33.015625 
z
" id="DejaVuSans-110"/>
     </defs>
     <g transform="translate(22.396875 242.672656)rotate(-90)scale(0.2 -0.2)">
      <use xlink:href="#DejaVuSans-65"/>
      <use x="68.392578" xlink:href="#DejaVuSans-99"/>
      <use x="123.373047" xlink:href="#DejaVuSans-99"/>
      <use x="178.353516" xlink:href="#DejaVuSans-101"/>
      <use x="239.876953" xlink:href="#DejaVuSans-108"/>
      <use x="267.660156" xlink:href="#DejaVuSans-101"/>
      <use x="329.183594" xlink:href="#DejaVuSans-114"/>
      <use x="370.296875" xlink:href="#DejaVuSans-97"/>
      <use x="431.576172" xlink:href="#DejaVuSans-116"/>
      <use x="470.785156" xlink:href="#DejaVuSans-105"/>
      <use x="498.568359" xlink:href="#DejaVuSans-111"/>
      <use x="559.75" xlink:href="#DejaVuSans-110"/>
     </g>
    </g>
   </g>
   <g id="line2d_15">
    <path clip-path="url(#p942a8fbd7c)" d="M 107.481051 170.165332 
L 108.160785 170.297638 
L 108.870955 167.995803 
L 109.510108 170.021645 
L 110.189842 173.768883 
L 110.900012 177.045227 
L 111.539165 175.702253 
L 112.218899 167.422479 
L 113.568222 173.795913 
L 114.247957 178.810725 
L 115.59728 157.84241 
L 116.277014 141.032477 
L 117.626337 165.861841 
L 118.306071 170.410026 
L 119.655394 187.540054 
L 120.335128 188.900099 
L 121.035153 189.201699 
L 121.684451 183.213801 
L 122.364185 167.510683 
L 123.074355 154.945912 
L 123.713508 175.525845 
L 124.393242 169.611924 
L 125.103412 170.889456 
L 125.742565 181.784046 
L 126.422299 177.362476 
L 127.771622 175.902845 
L 128.451356 164.24003 
L 129.151381 138.581266 
L 129.800679 147.282142 
L 130.480413 154.171995 
L 131.829736 192.031333 
L 132.50947 196.169798 
L 133.209495 195.768613 
L 133.858793 186.936854 
L 134.538527 172.104392 
L 135.238552 160.499905 
L 135.88785 171.916604 
L 136.567585 171.358928 
L 137.267609 172.28649 
L 137.916908 173.4118 
L 138.596642 166.760951 
L 139.296666 167.472271 
L 139.945965 165.858996 
L 141.325723 137.488677 
L 141.975022 148.539757 
L 142.654756 166.913173 
L 143.364926 175.338057 
L 144.683813 196.8925 
L 145.393983 204.156508 
L 146.033136 196.346205 
L 146.71287 174.889925 
L 147.412895 148.627961 
L 148.062193 153.733821 
L 148.741927 166.578852 
L 149.441952 173.925374 
L 150.09125 176.912921 
L 150.770984 168.074049 
L 151.471009 166.50203 
L 152.120307 167.160713 
L 153.500066 144.082621 
L 154.149364 160.794392 
L 154.829098 170.895147 
L 155.529123 171.669064 
L 156.178421 180.055536 
L 156.858155 190.974311 
L 157.55818 199.979632 
L 158.207478 191.120843 
L 158.887213 166.063856 
L 159.597383 151.086285 
L 160.236536 172.275109 
L 160.91627 170.708781 
L 161.616294 169.893607 
L 162.265593 173.482932 
L 162.945327 174.050566 
L 164.29465 166.079505 
L 164.974384 151.476089 
L 165.674409 134.045884 
L 166.323707 148.531221 
L 167.003441 154.854863 
L 167.713611 176.740781 
L 168.352764 190.992805 
L 169.032498 200.040806 
L 169.732523 202.319877 
L 170.381821 192.425405 
L 171.061555 172.440136 
L 171.751435 143.321507 
L 172.410878 161.399014 
L 173.090612 162.642403 
L 173.790637 165.984188 
L 175.119669 179.661465 
L 175.819694 181.865136 
L 176.468992 170.592124 
L 177.148726 147.275029 
L 177.848751 144.123877 
L 178.498049 149.003538 
L 179.177783 173.344936 
L 179.877808 189.052322 
L 180.527106 196.549643 
L 181.206841 200.063568 
L 181.917011 190.978579 
L 182.556164 171.445709 
L 183.235898 157.657467 
L 183.935922 173.396151 
L 184.585221 159.558116 
L 185.264955 168.185015 
L 185.964979 178.698336 
L 186.614278 184.223876 
L 187.294012 183.375982 
L 187.994037 173.620928 
L 188.643335 156.345791 
L 189.323069 126.336589 
L 190.672392 161.77886 
L 191.352126 178.012623 
L 192.701449 202.373938 
L 193.381183 200.346673 
L 194.730506 164.527403 
L 195.41024 157.462565 
L 196.12041 163.047856 
L 196.759563 165.890294 
L 197.439297 181.619019 
L 198.149467 188.779175 
L 198.78862 182.781318 
L 199.468354 170.340317 
L 200.178524 155.106671 
L 200.817677 137.430349 
L 202.197436 153.928723 
L 203.526469 182.853872 
L 204.226493 194.21082 
L 204.875792 195.205247 
L 205.555526 185.18985 
L 206.265696 171.008958 
L 206.904849 151.863048 
L 207.584583 169.37292 
L 208.284607 167.317203 
L 208.933906 179.675691 
L 209.61364 181.923465 
L 210.32381 178.83491 
L 210.962963 168.16652 
L 211.642697 161.370561 
L 212.352867 156.266123 
L 212.99202 130.751046 
L 213.671754 145.650372 
L 214.371779 157.421308 
L 215.021077 174.06337 
L 215.700811 178.110785 
L 216.410981 186.379178 
L 217.050134 189.952854 
L 217.729868 186.713499 
L 218.440038 163.451886 
L 219.079191 158.060074 
L 219.758925 168.96889 
L 220.469095 169.335932 
L 221.108248 170.357388 
L 221.777837 170.755728 
L 222.498152 165.547437 
L 223.137305 163.231377 
L 223.817039 153.661267 
L 224.527209 131.786729 
L 225.166362 136.313575 
L 225.846097 165.159056 
L 226.556267 176.358091 
L 227.19542 179.288732 
L 227.875154 186.252563 
L 228.585324 188.848884 
L 229.224477 183.959265 
L 230.614381 140.864605 
L 231.253534 163.79332 
L 231.933268 160.990716 
L 233.282591 187.118952 
L 233.962325 186.064774 
L 235.311648 167.446664 
L 235.991382 143.237572 
L 236.701552 128.359586 
L 237.340705 151.124697 
L 238.020439 168.853656 
L 239.379907 188.18451 
L 240.049496 189.570163 
L 240.749521 180.736982 
L 241.398819 168.321588 
L 242.078553 146.065783 
L 242.788723 172.652109 
L 243.427876 164.833271 
L 244.10761 168.207777 
L 244.81778 176.641196 
L 245.456933 181.805385 
L 246.136667 174.026381 
L 248.165725 155.163576 
L 248.875895 146.600696 
L 249.515048 149.724817 
L 250.194782 172.646419 
L 250.904952 174.426143 
L 251.544105 168.801019 
L 252.223839 189.747994 
L 252.934009 182.946344 
L 254.252896 137.766092 
L 254.963066 167.468003 
L 255.602219 177.254355 
L 256.281953 173.656494 
L 257.631276 171.393072 
L 258.31101 172.940906 
L 259.011035 172.445826 
L 259.660333 152.683912 
L 260.340067 149.137266 
L 261.050237 154.583138 
L 262.369124 180.048423 
L 263.079294 182.88517 
L 263.718447 179.578951 
L 264.398181 184.300699 
L 265.108351 167.324317 
L 265.747504 159.737369 
L 266.427238 156.990248 
L 267.137408 192.638801 
L 267.776561 189.568741 
L 268.456295 174.522883 
L 269.166465 183.727374 
L 269.805618 174.848668 
L 270.485353 172.219626 
L 271.195523 159.309154 
L 271.834676 144.82524 
L 272.51441 148.236734 
L 273.22458 159.134169 
L 273.863733 176.251393 
L 274.543467 184.38748 
L 275.223201 189.604307 
L 275.89279 190.614382 
L 276.572524 187.245567 
L 277.242113 163.201501 
L 277.921847 149.719127 
L 278.601581 167.247494 
L 279.281315 159.011822 
L 279.950904 166.345539 
L 280.630638 184.006212 
L 281.300227 185.801586 
L 281.990106 185.359144 
L 282.659695 176.749317 
L 283.339429 152.88735 
L 284.019163 134.912273 
L 284.688752 149.30087 
L 285.368486 172.467166 
L 286.717809 189.176092 
L 287.397543 191.537677 
L 288.067132 184.817118 
L 288.746866 170.698822 
L 289.416455 150.815983 
L 290.106335 163.49172 
L 290.775923 160.142822 
L 292.125246 194.99185 
L 292.804981 194.401454 
L 294.164449 163.160245 
L 294.834038 152.908689 
L 295.503627 140.335383 
L 296.183361 148.723278 
L 298.212418 191.361269 
L 298.892152 197.733281 
L 299.561741 187.907095 
L 300.241475 172.333438 
L 300.921209 159.781471 
L 301.590798 167.08389 
L 302.270532 157.01301 
L 303.619855 180.628861 
L 304.309734 182.979065 
L 304.979323 176.124778 
L 305.648912 172.475702 
L 307.00838 139.412088 
L 307.688114 159.997712 
L 309.037437 176.817604 
L 309.707026 188.045092 
L 310.396906 191.211892 
L 311.066494 184.118601 
L 313.095552 147.703244 
L 313.775286 168.863615 
L 314.444874 171.054483 
L 315.124609 178.496321 
L 315.794197 193.314556 
L 316.473932 185.229684 
L 317.153666 178.800766 
L 318.502989 145.12684 
L 319.182723 142.554704 
L 320.532046 179.23894 
L 321.21178 183.287778 
L 321.891514 181.546465 
L 323.240837 167.682822 
L 324.600305 144.758376 
L 325.269894 171.3006 
L 325.949628 186.586884 
L 326.619217 182.80977 
L 327.298951 186.389137 
L 327.978685 184.101529 
L 328.648274 175.525845 
L 329.328008 164.24572 
L 329.997597 164.161784 
L 330.687476 142.247413 
L 331.357065 161.219761 
L 332.036799 165.685433 
L 332.716534 166.364034 
L 333.386122 186.84865 
L 334.055711 185.253869 
L 334.735445 189.113495 
L 336.094914 168.308785 
L 336.764502 170.09989 
L 337.444237 143.364187 
L 338.123971 162.626754 
L 338.79356 171.657683 
L 339.473294 176.844634 
L 340.142883 180.305921 
L 340.822617 171.5268 
L 341.502351 155.85498 
L 342.17194 133.58068 
L 342.861819 143.833658 
L 343.531408 172.206823 
L 344.890876 192.335779 
L 345.560465 189.049476 
L 346.230054 176.562951 
L 346.909788 167.927517 
L 347.589522 157.195108 
L 348.269256 150.286761 
L 348.938845 176.231476 
L 349.618579 164.555856 
L 350.298313 179.961642 
L 350.967902 180.497978 
L 351.647636 176.932838 
L 352.317225 174.423298 
L 353.007104 156.365708 
L 353.676693 142.668515 
L 355.026016 166.235996 
L 355.70575 184.021861 
L 356.375339 182.203725 
L 357.065219 184.036087 
L 357.734808 182.239291 
L 358.404396 170.458396 
L 359.08413 150.093282 
L 359.763865 166.958698 
L 360.443599 170.899415 
L 361.123333 170.606351 
L 361.792922 176.557261 
L 362.462511 188.029442 
L 363.15239 187.615454 
L 365.171302 133.906465 
L 365.851036 154.146387 
L 366.520625 170.72443 
L 367.210504 180.266087 
L 368.549682 187.833118 
L 369.229416 181.960453 
L 369.90915 170.540909 
L 370.578739 162.061965 
L 371.258473 161.390478 
L 371.938207 156.000089 
L 372.607796 168.567705 
L 373.297675 184.569578 
L 373.967264 196.407379 
L 375.326732 172.095857 
L 375.996321 156.025697 
L 376.676055 129.760888 
L 377.35579 162.842996 
L 378.025378 162.60826 
L 378.694967 168.862192 
L 379.384847 177.536038 
L 380.054436 188.520254 
L 380.724024 185.979416 
L 382.083493 147.956474 
L 382.753081 166.685551 
L 383.442961 167.561898 
L 384.11255 175.998162 
L 385.461873 198.771809 
L 386.141607 186.677933 
L 387.49093 143.359919 
L 388.170664 128.840439 
L 389.530132 171.905223 
L 390.86931 189.664058 
L 391.549044 195.148341 
L 392.228778 183.845454 
L 392.898367 165.982766 
L 393.588246 142.06247 
L 394.257835 170.350275 
L 394.927424 163.585614 
L 395.607158 183.542431 
L 396.286892 193.720009 
L 396.966626 187.295359 
L 398.315949 165.839079 
L 398.985538 140.838998 
L 399.675418 146.353157 
L 400.345006 150.010768 
L 401.014595 171.632075 
L 401.694329 184.795778 
L 402.374064 195.358892 
L 403.043652 191.977273 
L 403.723386 175.669532 
L 404.403121 153.026768 
L 405.082855 146.226542 
L 405.752444 176.617012 
L 406.432178 177.82768 
L 407.101767 183.273552 
L 407.781501 191.638684 
L 408.461235 189.129144 
L 409.130824 176.732246 
L 409.820703 157.178037 
L 410.490292 128.928642 
L 411.159881 147.6691 
L 411.84976 157.162388 
L 412.519349 170.37446 
L 413.188938 186.67082 
L 413.868672 198.522847 
L 414.538261 189.544556 
L 415.217995 177.780732 
L 415.897729 169.806826 
L 416.577463 154.704063 
L 417.247052 164.530248 
L 417.926786 172.828517 
L 418.60652 188.662518 
L 419.276109 194.317518 
L 419.955843 185.79305 
L 421.9849 133.993247 
L 422.664634 145.318896 
L 424.013957 174.976706 
L 424.693692 182.198035 
L 425.36328 192.926175 
L 426.043014 193.192209 
L 426.722749 189.21308 
L 428.072072 138.540009 
L 428.751806 168.014298 
L 429.421395 180.284582 
L 430.101129 185.424586 
L 430.780863 188.63691 
L 431.450452 188.961273 
L 432.130186 166.898947 
L 432.80992 150.898497 
L 433.479509 118.015559 
L 434.169388 141.399519 
L 436.1883 190.016873 
L 436.868034 196.970745 
L 437.537623 195.559484 
L 438.897091 158.647625 
L 439.56668 143.19347 
L 440.926148 172.282223 
L 441.595737 184.340533 
L 442.285617 191.456586 
L 442.955205 186.161514 
L 443.624794 168.382762 
L 444.984262 125.505767 
L 446.333585 158.427116 
L 447.01332 171.40303 
L 447.682908 194.812598 
L 448.362643 200.469021 
L 449.042377 190.309937 
L 449.711965 174.685064 
L 450.401845 153.863282 
L 451.071434 165.352535 
L 451.741023 161.904052 
L 452.420757 175.458981 
L 453.100491 180.163657 
L 453.77008 182.731525 
L 454.449814 179.480789 
L 455.799137 143.997262 
L 456.478871 127.511691 
L 457.158605 160.437309 
L 457.828194 177.58014 
L 459.187662 190.708277 
L 459.857251 190.923095 
L 460.54713 176.305453 
L 461.216719 165.191777 
L 461.886308 138.850145 
L 462.566042 167.906177 
L 463.245776 175.737819 
L 463.915365 189.641295 
L 464.605245 183.573729 
L 465.274833 170.089932 
L 465.944422 149.800217 
L 466.624156 153.951486 
L 467.30389 145.617651 
L 468.653213 178.620091 
L 469.332948 187.131756 
L 470.002536 187.524405 
L 471.362005 179.214755 
L 472.711328 145.644681 
L 473.391062 163.764867 
L 474.060651 167.880569 
L 474.75053 183.171121 
L 475.420119 189.784982 
L 476.089708 186.248295 
L 476.769442 185.573963 
L 477.449176 173.095974 
L 478.118765 154.972942 
L 478.798499 131.227631 
L 479.478233 144.85796 
L 480.147822 163.400671 
L 480.827556 178.627204 
L 481.50729 186.45031 
L 482.176879 190.729616 
L 482.866758 187.537208 
L 483.536347 177.430763 
L 484.205936 155.924689 
L 484.895815 162.302392 
L 485.565404 163.622603 
L 486.234993 180.416887 
L 486.924873 188.624107 
L 487.594461 188.530212 
L 488.26405 174.578366 
L 489.623518 132.288922 
L 490.293107 133.631896 
L 490.972841 158.417158 
L 491.652576 176.53023 
L 492.322164 183.329035 
L 493.001899 191.617345 
L 493.681633 192.816631 
L 494.351221 176.141849 
L 495.030956 148.892572 
L 495.71069 178.641431 
L 496.380279 169.074166 
L 497.739747 186.24545 
L 498.409336 193.273299 
L 499.768804 162.272516 
L 500.438393 136.070303 
L 501.128272 117.496294 
L 501.797861 153.49055 
L 502.46745 176.895849 
L 503.157329 189.429322 
L 503.826918 185.689197 
L 504.496507 184.935197 
L 505.176241 180.031351 
L 505.855975 166.036826 
L 506.525564 159.780048 
L 507.205298 171.498347 
L 507.885032 174.051989 
L 508.554621 179.210487 
L 509.244501 192.910526 
L 509.914089 182.111253 
L 510.583678 152.43495 
L 511.273558 143.766794 
L 511.943146 124.781642 
L 512.612735 146.60781 
L 513.292469 154.775195 
L 513.972204 175.719325 
L 514.641792 183.080072 
L 515.331672 187.050665 
L 516.001261 195.094281 
L 516.670849 189.15902 
L 518.030318 155.364169 
L 518.699907 168.250456 
L 519.379641 168.056977 
L 520.059375 176.181683 
L 520.728964 176.486129 
L 521.418843 174.719208 
L 522.088432 162.281052 
L 522.758021 147.543908 
L 523.4479 141.859032 
L 524.117489 152.691025 
L 524.787078 143.799515 
L 525.466812 167.472271 
L 526.816135 194.825401 
L 527.506014 196.856934 
L 528.175603 190.527601 
L 528.845192 171.485543 
L 529.524926 148.566787 
L 530.20466 169.883649 
L 530.874249 160.858411 
L 532.233717 185.979416 
L 532.903306 179.075336 
L 533.58304 170.109849 
L 534.932363 135.064496 
L 535.622243 130.304337 
L 536.291832 161.066116 
L 536.96142 169.451166 
L 537.641155 182.623404 
L 538.320889 191.079586 
L 538.990477 194.960552 
L 539.680357 187.030748 
L 541.019535 148.363349 
L 541.699269 181.230638 
L 542.379003 167.452354 
L 543.728326 184.384635 
L 544.40806 171.744464 
L 545.077649 156.583372 
L 545.767528 150.002232 
L 546.437117 120.805359 
L 547.106706 149.539874 
L 547.796585 166.014064 
L 548.466174 178.10794 
L 549.135763 186.52571 
L 549.825642 193.021492 
L 550.495231 196.249466 
L 551.16482 188.424937 
L 552.524288 137.256786 
L 553.204022 172.996389 
L 553.883757 169.210739 
L 554.553345 179.553344 
L 555.222934 183.923699 
L 555.902668 174.820215 
L 557.251991 150.729202 
L 557.931725 127.046488 
L 559.281048 170.607773 
L 560.640517 192.17502 
L 561.320251 193.849469 
L 561.98984 189.204544 
L 562.669574 168.200664 
L 563.339163 143.493647 
L 564.018897 165.910211 
L 565.36822 177.432185 
L 566.047954 188.363763 
L 566.717543 181.370057 
L 567.397277 172.6578 
L 569.426334 128.847552 
L 570.106068 155.768199 
L 572.135125 191.122265 
L 572.814859 192.355696 
L 573.484448 194.328899 
L 574.843916 156.725637 
L 575.513505 172.376117 
L 576.193239 151.006617 
L 576.872973 163.06635 
L 577.542562 185.788782 
L 578.222296 190.026831 
L 578.90203 180.714219 
L 579.571619 164.534516 
L 580.251353 154.526233 
L 580.931088 139.75779 
L 581.600676 154.512006 
L 582.290556 160.822844 
L 582.960145 176.912921 
L 583.629734 188.454812 
L 584.989202 199.198602 
L 586.34867 164.31543 
L 587.018259 135.905277 
L 587.687848 169.325973 
L 588.367582 171.016072 
L 589.047316 184.763057 
L 589.716905 185.295125 
L 590.406784 186.033476 
L 591.076373 181.253401 
L 591.745962 167.512105 
L 592.425696 129.682642 
L 593.10543 141.967153 
L 593.775019 146.815515 
L 594.454753 180.106751 
L 595.804076 196.930911 
L 596.48381 196.310639 
L 597.163544 181.749902 
L 598.512867 146.270644 
L 599.182456 164.784901 
L 599.86219 168.924788 
L 600.541924 188.292631 
L 601.221658 195.708862 
L 601.891247 184.86122 
L 602.581127 167.052592 
L 603.250716 158.047271 
L 603.920304 145.257723 
L 604.600039 151.83175 
L 605.279773 139.735028 
L 605.949362 171.566634 
L 606.629096 184.955114 
L 607.30883 190.126416 
L 607.978419 192.704243 
L 608.658153 193.604775 
L 610.007476 149.764651 
L 610.68721 170.192362 
L 611.366944 157.155274 
L 612.726412 189.573009 
L 614.06559 177.884585 
L 615.425058 157.065648 
L 616.094647 122.67471 
L 616.774381 154.312837 
L 617.454115 162.356452 
L 618.123704 172.050332 
L 618.803438 193.562096 
L 619.483172 202.403813 
L 620.152761 201.61567 
L 622.181818 142.031172 
L 622.871698 159.809924 
L 623.541286 161.478682 
L 624.900755 192.402643 
L 625.570344 185.825771 
L 626.919667 167.753954 
L 627.599401 146.303364 
L 628.26899 136.824303 
L 628.948724 150.448942 
L 630.298047 188.952737 
L 630.987926 196.862624 
L 631.657515 197.397537 
L 632.327104 183.451382 
L 633.006838 160.154203 
L 633.686572 141.524711 
L 634.356161 171.376 
L 635.035895 168.966045 
L 635.715629 177.170419 
L 636.385218 188.883027 
L 637.075097 191.817937 
L 637.744686 178.712563 
L 639.094009 142.14356 
L 639.773743 122.6804 
L 640.443332 152.130504 
L 641.8028 190.041058 
L 642.472389 194.838205 
L 643.162269 196.955096 
L 643.831857 195.011767 
L 644.511592 163.21715 
L 645.191326 142.381141 
L 645.860915 158.895165 
L 646.530503 171.576592 
L 647.210237 172.63646 
L 647.889972 187.614031 
L 648.55956 189.790673 
L 649.239295 184.543971 
L 649.919029 165.715309 
L 650.588618 152.417878 
L 651.268352 125.76042 
L 651.948086 148.845625 
L 652.617675 159.761554 
L 653.977143 190.988537 
L 654.646732 196.091552 
L 655.326466 196.59659 
L 656.0062 169.89503 
L 656.675789 154.47644 
L 657.355523 148.721855 
L 658.035257 173.285185 
L 658.714991 167.876302 
L 660.064314 197.669262 
L 660.733903 187.449005 
L 661.413637 179.196261 
L 663.442694 129.258695 
L 664.122428 149.051908 
L 665.471751 178.86194 
L 666.151485 188.625529 
L 666.821074 189.51468 
L 667.510954 189.168978 
L 668.850131 162.649516 
L 669.540011 160.875482 
L 670.2096 166.662788 
L 670.879188 168.287445 
L 671.558923 179.018431 
L 672.238657 179.628744 
L 672.908246 180.39128 
L 674.267714 165.52183 
L 674.937303 152.508927 
L 675.627182 143.524945 
L 676.296771 146.373074 
L 676.96636 165.489109 
L 677.656239 179.909004 
L 678.325828 187.151673 
L 678.995417 190.938745 
L 679.685296 197.805836 
L 680.354885 182.171004 
L 681.024474 170.226505 
L 681.714353 139.163126 
L 682.373797 162.685082 
L 683.053531 164.148981 
L 683.74341 180.460989 
L 684.412999 191.127956 
L 685.092733 179.578951 
L 685.762322 170.647607 
L 686.442056 166.105113 
L 687.111645 151.921376 
L 687.801525 154.815029 
L 688.471113 142.659979 
L 689.140702 155.455218 
L 689.830582 162.366411 
L 690.500171 189.490495 
L 691.169759 189.268563 
L 691.859639 191.401103 
L 693.198816 171.489811 
L 693.888696 156.880705 
L 694.558285 174.160109 
L 695.227874 170.550868 
L 695.917753 169.981811 
L 696.587342 169.651758 
L 697.256931 175.094785 
L 697.94681 176.487551 
L 699.296133 158.19238 
L 699.965722 152.867433 
L 700.645456 159.340452 
L 701.315045 164.176011 
L 701.994779 161.936773 
L 702.674513 165.883181 
L 703.344102 164.829003 
L 704.033981 170.970547 
L 704.70357 172.181215 
L 705.373159 177.423649 
L 706.052893 180.096793 
L 706.732627 180.229099 
L 708.761684 172.979317 
L 709.431273 164.025211 
L 710.111007 162.520056 
L 710.790741 163.821773 
L 711.46033 165.346845 
L 712.15021 169.398528 
L 712.819799 171.569479 
L 713.489387 173.117313 
L 714.179267 173.084592 
L 714.848856 176.733668 
L 715.518444 175.012272 
L 716.208324 172.770189 
L 716.208324 172.770189 
" style="fill:none;stroke:#1f77b4;stroke-linecap:square;stroke-width:1.5;"/>
   </g>
   <g id="line2d_16">
    <path clip-path="url(#p942a8fbd7c)" d="M 107.481051 290.798226 
L 108.160785 294.117249 
L 108.870955 294.622287 
L 109.510108 301.724114 
L 110.189842 301.115223 
L 110.900012 293.358981 
L 111.539165 301.261755 
L 112.218899 296.271129 
L 112.929069 293.294962 
L 113.568222 294.929578 
L 114.247957 288.358396 
L 114.947981 298.838997 
L 115.59728 304.105616 
L 116.277014 317.23233 
L 116.987184 283.110271 
L 117.626337 282.558286 
L 118.306071 305.471352 
L 119.016241 300.385408 
L 119.655394 294.758861 
L 120.335128 292.664732 
L 121.035153 291.400004 
L 121.684451 299.52471 
L 123.074355 332.601127 
L 123.713508 286.934332 
L 124.393242 293.431536 
L 125.103412 297.046468 
L 125.742565 291.673151 
L 126.422299 290.193604 
L 127.122324 289.3514 
L 127.771622 295.214106 
L 128.451356 306.602352 
L 129.151381 320.423315 
L 129.800679 289.92757 
L 130.480413 298.718072 
L 131.180438 306.080243 
L 131.829736 296.754827 
L 132.50947 292.563725 
L 133.209495 295.271012 
L 133.858793 303.836737 
L 134.538527 317.841221 
L 135.238552 327.889338 
L 135.88785 302.320201 
L 136.567585 299.988491 
L 137.267609 291.983287 
L 137.916908 290.314528 
L 139.296666 287.749506 
L 139.945965 291.038653 
L 140.625699 295.25394 
L 141.325723 318.327764 
L 141.975022 291.491053 
L 142.654756 306.128612 
L 143.364926 305.004726 
L 144.004079 297.238525 
L 144.683813 296.63817 
L 145.393983 293.330529 
L 146.033136 300.723997 
L 147.412895 322.735108 
L 148.062193 301.947469 
L 148.741927 290.937645 
L 149.441952 286.572981 
L 150.09125 292.676113 
L 150.770984 287.641385 
L 151.471009 285.514536 
L 152.800041 301.577582 
L 153.500066 321.877255 
L 154.149364 291.560762 
L 154.829098 295.330763 
L 155.529123 295.340721 
L 156.178421 296.662355 
L 156.858155 297.11191 
L 157.55818 296.20711 
L 158.207478 308.727779 
L 158.887213 313.381239 
L 159.597383 323.282825 
L 160.236536 295.386246 
L 160.91627 291.256317 
L 161.616294 289.724132 
L 162.265593 286.989815 
L 162.945327 279.954852 
L 164.29465 290.963253 
L 164.974384 308.137382 
L 165.674409 319.669315 
L 166.323707 286.316905 
L 167.003441 301.240416 
L 167.713611 303.402831 
L 169.032498 291.266276 
L 169.732523 293.243747 
L 170.381821 305.989193 
L 171.061555 310.389424 
L 171.751435 332.228395 
L 172.410878 288.146423 
L 173.090612 286.925796 
L 173.790637 288.041147 
L 174.439935 292.981981 
L 175.119669 288.085249 
L 175.819694 284.838781 
L 176.468992 292.540962 
L 177.148726 314.01716 
L 177.848751 306.68202 
L 178.498049 286.409377 
L 179.177783 300.337038 
L 179.877808 295.9866 
L 180.527106 292.86817 
L 181.206841 293.246593 
L 181.917011 302.806744 
L 182.556164 321.000908 
L 183.235898 326.415482 
L 183.935922 298.941427 
L 184.585221 291.472559 
L 185.264955 291.193721 
L 185.964979 294.993597 
L 186.614278 290.121049 
L 187.294012 286.629887 
L 187.994037 292.472676 
L 188.643335 302.424054 
L 189.323069 332.92549 
L 190.023094 283.360656 
L 190.672392 301.136563 
L 191.352126 296.86437 
L 192.052151 294.512744 
L 193.381183 297.616948 
L 194.081208 307.063288 
L 194.730506 311.412303 
L 195.41024 319.736179 
L 196.12041 296.860102 
L 196.759563 290.334445 
L 197.439297 291.553649 
L 198.149467 293.186842 
L 198.78862 286.581517 
L 199.468354 287.612932 
L 200.817677 306.155643 
L 201.497411 293.273623 
L 202.197436 291.738593 
L 202.846734 297.700884 
L 203.526469 293.139895 
L 204.226493 292.869593 
L 204.875792 294.771664 
L 205.555526 301.223344 
L 206.265696 309.111892 
L 206.904849 320.719225 
L 207.584583 292.105634 
L 208.284607 289.846479 
L 208.933906 291.337408 
L 209.61364 288.669955 
L 210.32381 287.605819 
L 210.962963 287.070905 
L 211.642697 289.527808 
L 212.352867 298.615642 
L 212.99202 313.994398 
L 213.671754 285.904339 
L 214.371779 288.27446 
L 215.021077 298.011019 
L 215.700811 293.859751 
L 216.410981 290.951872 
L 217.050134 301.109533 
L 217.729868 307.828669 
L 218.440038 300.17628 
L 219.079191 314.183609 
L 219.758925 279.074237 
L 220.469095 285.38792 
L 221.108248 278.159478 
L 221.777837 280.155445 
L 222.498152 274.514671 
L 223.137305 276.075309 
L 223.817039 290.446834 
L 224.527209 302.055589 
L 225.166362 295.763246 
L 225.846097 278.035709 
L 226.556267 288.24743 
L 227.19542 286.380924 
L 227.875154 283.219815 
L 228.585324 286.76646 
L 229.224477 293.257974 
L 229.904211 307.68925 
L 230.614381 319.888402 
L 231.253534 277.230494 
L 231.933268 274.390901 
L 232.643438 287.314177 
L 233.282591 287.314177 
L 234.672495 280.192433 
L 235.311648 286.949981 
L 235.991382 296.430465 
L 236.701552 312.480707 
L 237.340705 274.776437 
L 238.020439 284.605468 
L 238.720464 287.851936 
L 239.379907 282.757456 
L 240.049496 285.612698 
L 240.749521 294.314997 
L 241.398819 306.876922 
L 242.078553 312.923149 
L 242.788723 293.910966 
L 243.427876 281.356154 
L 244.10761 287.132079 
L 244.81778 287.338362 
L 245.456933 287.914532 
L 246.136667 280.235113 
L 246.846837 282.970852 
L 247.48599 289.382698 
L 248.165725 292.405811 
L 248.875895 304.279178 
L 249.515048 289.862128 
L 250.194782 286.281339 
L 250.904952 280.875301 
L 251.544105 281.832739 
L 252.223839 268.592214 
L 252.934009 273.742176 
L 253.573162 282.191245 
L 254.252896 297.377944 
L 254.963066 271.980946 
L 255.602219 276.031207 
L 256.281953 293.043155 
L 256.992123 284.081935 
L 257.631276 284.473162 
L 258.31101 287.979973 
L 259.011035 289.741204 
L 259.660333 296.121751 
L 260.340067 298.870295 
L 261.050237 302.756952 
L 261.68939 286.624196 
L 262.369124 286.21163 
L 263.079294 281.605116 
L 263.718447 290.012928 
L 264.398181 296.689385 
L 265.108351 297.589917 
L 265.747504 304.710239 
L 266.427238 334.935682 
L 267.137408 287.64423 
L 267.776561 295.088914 
L 268.456295 298.64125 
L 269.166465 281.656332 
L 269.805618 281.11146 
L 271.195523 294.765974 
L 272.51441 303.537982 
L 273.22458 298.763597 
L 273.863733 289.876355 
L 274.543467 284.5258 
L 275.223201 290.95614 
L 275.89279 299.011136 
L 276.572524 301.50645 
L 277.242113 309.027956 
L 277.921847 314.829488 
L 278.601581 276.638675 
L 279.281315 281.148448 
L 279.950904 287.504811 
L 280.630638 289.941796 
L 281.300227 282.107309 
L 281.990106 283.14726 
L 282.659695 295.904087 
L 283.339429 301.147944 
L 284.019163 313.74259 
L 284.688752 278.759833 
L 285.368486 289.237589 
L 286.038075 285.739313 
L 286.717809 286.767883 
L 287.397543 294.373325 
L 288.067132 296.439 
L 289.416455 318.989292 
L 290.106335 294.659276 
L 290.775923 284.532913 
L 291.455658 289.872087 
L 292.125246 281.350464 
L 292.804981 277.729841 
L 293.474569 287.295683 
L 294.164449 302.877876 
L 294.834038 304.42002 
L 295.503627 318.098719 
L 296.183361 281.815667 
L 296.863095 290.082638 
L 297.532684 289.281691 
L 298.212418 287.955789 
L 298.892152 290.347249 
L 299.561741 296.272551 
L 300.241475 307.131575 
L 300.921209 312.768081 
L 301.590798 307.307982 
L 302.270532 276.106607 
L 302.950266 286.728049 
L 303.619855 286.658339 
L 304.309734 282.141452 
L 304.979323 283.67506 
L 305.648912 290.290343 
L 306.338791 306.205435 
L 307.00838 318.172696 
L 307.688114 286.839015 
L 308.357703 286.666875 
L 309.037437 293.2722 
L 309.707026 285.927102 
L 310.396906 286.968475 
L 312.415817 308.000809 
L 313.095552 331.433139 
L 313.775286 283.552713 
L 314.444874 281.717505 
L 315.124609 290.028577 
L 315.794197 291.799766 
L 316.473932 284.586973 
L 317.153666 282.895452 
L 317.823255 299.028208 
L 318.502989 297.335265 
L 319.182723 311.894579 
L 319.862457 282.494267 
L 320.532046 288.617317 
L 321.21178 287.797875 
L 321.891514 282.461547 
L 322.571248 285.901494 
L 323.240837 300.883333 
L 323.920571 301.810895 
L 324.600305 314.429726 
L 325.269894 295.108831 
L 325.949628 296.565616 
L 326.619217 285.446249 
L 327.298951 294.393242 
L 327.978685 292.282042 
L 328.648274 289.002853 
L 329.328008 288.749623 
L 329.997597 292.375936 
L 330.687476 307.135843 
L 331.357065 276.81366 
L 332.036799 281.030369 
L 332.716534 299.413744 
L 333.386122 298.11345 
L 334.055711 304.649065 
L 334.735445 304.202356 
L 335.41518 298.390865 
L 336.094914 295.403317 
L 336.764502 295.246827 
L 337.444237 308.999503 
L 338.123971 290.803917 
L 338.79356 288.201906 
L 339.473294 281.883954 
L 340.142883 280.829777 
L 340.822617 281.102924 
L 341.502351 275.143478 
L 342.17194 293.242325 
L 342.861819 292.99763 
L 343.531408 290.032845 
L 344.211142 283.316554 
L 344.890876 280.074354 
L 345.560465 289.978785 
L 346.230054 289.790996 
L 346.909788 301.237571 
L 347.589522 309.450481 
L 348.269256 323.289938 
L 348.938845 278.902097 
L 349.618579 283.716317 
L 350.298313 294.054653 
L 350.967902 285.248502 
L 351.647636 280.125569 
L 352.317225 285.392188 
L 353.007104 298.039472 
L 353.676693 313.910462 
L 354.346282 286.634155 
L 355.026016 289.539189 
L 355.70575 289.513581 
L 356.375339 280.967773 
L 357.065219 278.156633 
L 357.734808 289.742626 
L 358.404396 306.733235 
L 359.08413 315.994632 
L 359.763865 293.051691 
L 360.443599 278.482418 
L 361.123333 290.478132 
L 362.462511 285.708015 
L 363.15239 281.260837 
L 364.491568 301.708465 
L 365.171302 323.26433 
L 365.851036 285.927102 
L 366.520625 283.323667 
L 367.210504 288.04826 
L 367.880093 283.199898 
L 368.549682 281.425864 
L 369.229416 290.3316 
L 369.90915 307.515688 
L 370.578739 314.967485 
L 371.258473 310.059371 
L 371.938207 275.88752 
L 373.297675 290.296034 
L 373.967264 290.92911 
L 374.646998 285.027992 
L 375.326732 288.098053 
L 375.996321 309.072058 
L 376.676055 318.811462 
L 377.35579 271.457414 
L 378.025378 268.896659 
L 379.384847 283.606773 
L 380.054436 285.230007 
L 380.724024 290.894966 
L 381.413904 310.733703 
L 382.083493 322.094919 
L 382.753081 300.294359 
L 383.442961 281.845543 
L 384.11255 287.814947 
L 384.782139 290.017196 
L 385.461873 286.585785 
L 386.141607 286.282762 
L 386.811196 292.550921 
L 388.170664 315.079873 
L 388.840253 277.106724 
L 389.530132 284.135996 
L 390.199721 284.155913 
L 390.86931 285.494619 
L 391.549044 288.662841 
L 392.898367 311.207443 
L 393.588246 330.276531 
L 394.257835 295.288083 
L 394.927424 279.017331 
L 395.607158 288.095207 
L 396.286892 287.161955 
L 396.966626 280.882415 
L 397.646361 283.004996 
L 398.315949 292.563725 
L 398.985538 314.875013 
L 399.675418 304.892337 
L 400.345006 286.291298 
L 401.014595 282.266645 
L 401.694329 275.859067 
L 402.374064 282.633686 
L 403.723386 297.780551 
L 404.403121 308.468858 
L 405.082855 329.624961 
L 405.752444 281.502686 
L 406.432178 291.458332 
L 407.101767 287.736702 
L 407.781501 286.79349 
L 408.461235 282.815784 
L 409.130824 287.8434 
L 409.820703 298.699578 
L 410.490292 324.524791 
L 411.159881 289.120932 
L 411.84976 285.746426 
L 412.519349 290.456792 
L 413.188938 289.449562 
L 413.868672 290.271849 
L 414.538261 291.355902 
L 415.217995 300.544744 
L 415.897729 306.800099 
L 416.577463 325.349923 
L 417.247052 283.252535 
L 417.926786 292.799883 
L 418.60652 292.937879 
L 419.276109 285.165988 
L 419.955843 279.833928 
L 420.635577 282.49569 
L 421.305166 297.211495 
L 421.9849 309.151726 
L 423.334223 288.934566 
L 424.013957 296.495906 
L 424.693692 285.410683 
L 425.36328 286.874581 
L 426.043014 290.867936 
L 426.722749 303.905024 
L 427.392337 312.904654 
L 428.072072 334.343863 
L 428.751806 282.933864 
L 429.421395 290.280385 
L 430.101129 286.898766 
L 430.780863 284.73066 
L 431.450452 276.095226 
L 432.130186 281.255147 
L 432.80992 295.744751 
L 433.479509 300.546167 
L 434.169388 271.537082 
L 434.838977 279.206543 
L 435.508566 279.816856 
L 436.1883 275.873293 
L 436.868034 276.564697 
L 437.537623 285.639728 
L 438.217357 305.953627 
L 438.897091 306.515571 
L 439.56668 318.203994 
L 440.256559 281.866882 
L 440.926148 281.957932 
L 441.595737 284.053483 
L 442.285617 284.559943 
L 442.955205 280.199547 
L 443.624794 287.553181 
L 444.304528 300.253103 
L 444.984262 315.203643 
L 445.653851 281.531139 
L 446.333585 282.751766 
L 447.01332 288.583174 
L 447.682908 283.238309 
L 448.362643 280.334697 
L 449.042377 285.961245 
L 449.711965 308.481662 
L 450.401845 316.020239 
L 451.071434 306.899684 
L 451.741023 287.171913 
L 452.420757 284.611158 
L 453.100491 280.243648 
L 453.77008 281.909562 
L 454.449814 278.012946 
L 455.129548 295.498634 
L 456.478871 322.033745 
L 457.158605 280.114188 
L 457.828194 289.093902 
L 458.518073 285.979739 
L 459.187662 287.388155 
L 459.857251 291.287615 
L 461.216719 310.442062 
L 461.886308 322.557278 
L 462.566042 286.614238 
L 463.245776 285.342396 
L 463.915365 281.535407 
L 464.605245 281.403101 
L 465.274833 276.224686 
L 465.944422 274.319769 
L 466.624156 288.913226 
L 467.30389 314.22202 
L 467.973479 290.967521 
L 468.653213 284.254075 
L 469.332948 288.005581 
L 470.002536 281.758762 
L 470.692416 278.646022 
L 471.362005 286.720936 
L 472.031593 311.338326 
L 472.711328 318.418813 
L 473.391062 298.730876 
L 474.060651 285.588513 
L 474.75053 290.148079 
L 475.420119 290.960408 
L 476.089708 287.069483 
L 477.449176 297.312502 
L 478.798499 318.470028 
L 479.478233 276.41532 
L 480.147822 285.420641 
L 480.827556 287.304219 
L 481.50729 285.679562 
L 482.176879 288.413879 
L 483.536347 313.246088 
L 484.205936 318.205417 
L 484.895815 299.607223 
L 485.565404 284.968241 
L 486.234993 280.317626 
L 486.924873 284.678022 
L 487.594461 282.699128 
L 488.26405 284.120347 
L 488.943784 295.519974 
L 489.623518 313.315798 
L 490.293107 290.15946 
L 490.972841 283.814479 
L 491.652576 288.6728 
L 492.322164 283.817324 
L 493.001899 286.76646 
L 493.681633 293.4984 
L 494.351221 313.623088 
L 495.030956 325.89764 
L 495.71069 309.917107 
L 496.380279 283.734811 
L 497.060013 288.429528 
L 497.739747 284.22989 
L 498.409336 284.961128 
L 499.099215 289.331483 
L 499.768804 299.501948 
L 501.128272 314.29173 
L 501.797861 275.948693 
L 502.46745 275.652784 
L 503.157329 278.357226 
L 503.826918 283.968124 
L 504.496507 292.154004 
L 505.176241 296.050619 
L 506.525564 322.702387 
L 507.205298 296.565616 
L 507.885032 283.488694 
L 508.554621 291.777004 
L 509.244501 287.760887 
L 509.914089 279.842464 
L 510.583678 277.987339 
L 511.273558 280.107075 
L 511.943146 290.549264 
L 512.612735 270.689187 
L 513.292469 290.462483 
L 513.972204 284.357928 
L 514.641792 282.879803 
L 516.001261 293.077298 
L 516.670849 302.801054 
L 517.360729 305.706088 
L 518.030318 318.019051 
L 518.699907 281.932324 
L 519.379641 282.017683 
L 520.059375 279.084196 
L 520.728964 278.556395 
L 521.418843 274.107795 
L 522.088432 277.007139 
L 522.758021 290.475287 
L 523.4479 293.617902 
L 524.117489 292.905159 
L 524.787078 293.778661 
L 525.466812 288.608781 
L 526.146546 290.170842 
L 526.816135 287.1648 
L 527.506014 289.584713 
L 528.175603 297.20865 
L 528.845192 307.002114 
L 529.524926 322.084961 
L 530.20466 274.674007 
L 530.874249 285.567173 
L 531.553983 284.111811 
L 532.233717 279.038671 
L 532.903306 275.16055 
L 533.58304 273.497482 
L 534.932363 302.03425 
L 535.622243 301.374144 
L 536.291832 276.826463 
L 536.96142 298.888789 
L 537.641155 287.739547 
L 538.320889 285.70517 
L 538.990477 287.777958 
L 539.680357 300.369759 
L 540.349946 308.329439 
L 541.019535 326.435399 
L 541.699269 271.155814 
L 542.379003 280.758645 
L 543.048592 283.19563 
L 544.40806 272.026471 
L 545.077649 276.961614 
L 545.767528 287.352589 
L 546.437117 318.208262 
L 547.106706 278.536479 
L 548.466174 295.216951 
L 549.135763 287.538955 
L 549.825642 289.194909 
L 550.495231 294.260936 
L 551.16482 300.22465 
L 551.854699 302.463888 
L 552.524288 331.682101 
L 553.204022 268.055878 
L 553.883757 283.167177 
L 554.553345 278.493799 
L 555.222934 277.930433 
L 555.902668 277.651595 
L 556.582402 282.128649 
L 557.251991 291.668883 
L 557.931725 309.986816 
L 558.61146 267.616282 
L 559.281048 284.38069 
L 559.960783 288.329943 
L 560.640517 281.552479 
L 561.320251 287.277189 
L 561.98984 294.103023 
L 562.669574 305.864001 
L 563.339163 309.235662 
L 564.018897 296.678004 
L 564.688486 280.003222 
L 565.36822 279.091309 
L 566.047954 281.539675 
L 567.397277 273.917161 
L 568.756745 298.247178 
L 569.426334 319.009209 
L 570.106068 273.537316 
L 570.785802 293.041732 
L 571.455391 287.550336 
L 572.135125 283.939671 
L 572.814859 290.239128 
L 573.484448 292.697453 
L 574.164182 312.204715 
L 574.843916 309.295413 
L 575.513505 288.254543 
L 576.193239 286.149034 
L 576.872973 284.9782 
L 577.542562 284.713588 
L 578.222296 280.755799 
L 578.90203 279.230728 
L 579.571619 289.734091 
L 580.931088 318.600911 
L 581.600676 273.456225 
L 582.290556 290.944759 
L 582.960145 294.583876 
L 583.629734 286.844705 
L 584.309468 287.921645 
L 584.989202 286.03949 
L 585.658791 302.032827 
L 586.34867 307.03768 
L 587.018259 330.430176 
L 587.687848 269.965063 
L 588.367582 283.731966 
L 589.716905 292.223713 
L 590.406784 282.181286 
L 591.076373 289.197755 
L 591.745962 292.199528 
L 592.425696 313.954564 
L 593.10543 294.982215 
L 593.775019 290.116781 
L 594.454753 289.837943 
L 595.134487 290.546419 
L 595.804076 289.539189 
L 597.833133 304.801288 
L 598.512867 328.701667 
L 599.182456 282.019105 
L 599.86219 284.467471 
L 600.541924 283.764686 
L 601.221658 281.918098 
L 601.891247 276.778093 
L 602.581127 281.755916 
L 603.250716 289.384121 
L 603.920304 301.846461 
L 604.600039 296.552812 
L 605.279773 294.384706 
L 605.949362 289.867819 
L 606.629096 286.096396 
L 607.30883 283.272452 
L 607.978419 284.271147 
L 608.658153 291.0102 
L 609.337887 304.030216 
L 610.007476 314.192145 
L 610.68721 292.381627 
L 611.366944 288.348438 
L 612.036533 281.71466 
L 612.726412 285.901494 
L 613.396001 280.523909 
L 614.06559 279.38295 
L 614.745324 287.382464 
L 615.425058 297.656782 
L 616.094647 316.57507 
L 616.774381 274.184618 
L 617.454115 295.046234 
L 618.123704 299.332653 
L 618.803438 287.328404 
L 619.483172 286.602856 
L 620.152761 286.056562 
L 620.832495 298.158974 
L 621.512229 304.429978 
L 622.181818 325.842157 
L 622.871698 278.461079 
L 623.541286 279.481113 
L 624.210875 282.226811 
L 624.900755 286.496158 
L 625.570344 283.278143 
L 626.239932 283.767532 
L 627.599401 306.814326 
L 628.26899 307.369156 
L 628.948724 282.324973 
L 629.628458 293.730291 
L 630.987926 283.559826 
L 631.657515 286.059407 
L 632.327104 293.468525 
L 633.686572 326.670134 
L 634.356161 283.719162 
L 635.035895 284.830245 
L 635.715629 281.862615 
L 636.385218 287.551758 
L 637.075097 282.932441 
L 637.744686 281.074471 
L 638.414275 294.487136 
L 639.094009 300.651442 
L 639.773743 303.027254 
L 640.443332 274.947154 
L 641.133211 296.003672 
L 641.8028 288.725438 
L 642.472389 283.056211 
L 643.162269 287.467822 
L 643.831857 288.125083 
L 644.511592 305.815631 
L 645.191326 311.425107 
L 645.860915 290.641736 
L 646.530503 285.905762 
L 647.210237 286.941445 
L 647.889972 284.648147 
L 648.55956 281.401679 
L 649.239295 275.891788 
L 649.919029 295.992291 
L 650.588618 306.094469 
L 651.268352 319.602451 
L 651.948086 282.521298 
L 652.617675 289.85786 
L 653.297409 288.634389 
L 653.977143 284.710743 
L 654.646732 287.216015 
L 655.326466 289.320102 
L 656.0062 299.285706 
L 656.675789 303.89222 
L 657.355523 315.365824 
L 658.035257 269.630742 
L 658.714991 291.050034 
L 659.394725 292.996208 
L 660.064314 283.734811 
L 660.733903 281.423018 
L 661.413637 283.367769 
L 663.442694 316.404353 
L 664.122428 276.032629 
L 664.792017 288.378313 
L 665.471751 284.458935 
L 666.821074 290.535038 
L 667.510954 292.225136 
L 668.180543 303.464005 
L 668.850131 303.496725 
L 669.540011 310.525998 
L 670.2096 287.056679 
L 670.879188 287.452173 
L 671.558923 288.92034 
L 672.908246 281.805709 
L 673.58798 287.069483 
L 675.627182 309.672413 
L 676.296771 288.635811 
L 676.96636 290.158038 
L 677.656239 293.098638 
L 678.325828 292.277774 
L 678.995417 294.757438 
L 679.685296 289.863551 
L 680.354885 303.212197 
L 681.024474 296.946883 
L 681.714353 321.981108 
L 682.373797 277.577618 
L 683.053531 288.02123 
L 683.74341 288.09094 
L 684.412999 287.750928 
L 685.092733 287.611509 
L 685.762322 285.877309 
L 686.442056 280.673286 
L 687.111645 287.853358 
L 687.801525 283.337894 
L 688.471113 309.173065 
L 689.140702 280.152599 
L 689.830582 305.368922 
L 690.500171 292.953529 
L 691.169759 291.196566 
L 691.859639 296.616831 
L 692.529228 295.75471 
L 693.198816 296.154472 
L 693.888696 299.504793 
L 695.227874 282.672098 
L 695.917753 293.39597 
L 696.587342 294.019087 
L 697.256931 292.952106 
L 697.94681 287.045298 
L 699.296133 281.441513 
L 699.965722 280.737305 
L 700.645456 281.421596 
L 701.315045 282.992192 
L 701.994779 288.534804 
L 703.344102 294.95234 
L 704.033981 298.131944 
L 704.70357 297.759212 
L 705.373159 297.251329 
L 706.052893 296.337993 
L 706.732627 295.10314 
L 707.402216 294.276585 
L 708.092095 291.273389 
L 708.761684 289.473747 
L 710.111007 289.432491 
L 710.790741 289.145117 
L 711.46033 290.182223 
L 712.15021 292.789925 
L 712.819799 293.657736 
L 714.179267 295.034853 
L 714.848856 295.921159 
L 715.518444 293.74594 
L 716.208324 294.046117 
L 716.208324 294.046117 
" style="fill:none;stroke:#ff7f0e;stroke-linecap:square;stroke-width:1.5;"/>
   </g>
   <g id="line2d_17">
    <path clip-path="url(#p942a8fbd7c)" d="M 107.481051 247.769009 
L 108.160785 249.814767 
L 109.510108 248.622594 
L 110.189842 249.982639 
L 110.900012 250.54316 
L 111.539165 242.25485 
L 112.218899 243.758582 
L 112.929069 251.080918 
L 113.568222 248.367941 
L 114.247957 246.973752 
L 114.947981 246.700605 
L 116.277014 228.961687 
L 116.987184 232.703234 
L 117.626337 234.004951 
L 119.016241 230.314619 
L 119.655394 231.40294 
L 120.335128 231.099917 
L 121.684451 235.235536 
L 122.364185 230.18089 
L 123.074355 228.903358 
L 123.713508 237.265646 
L 124.393242 243.050106 
L 125.103412 241.553487 
L 125.742565 227.696958 
L 126.422299 236.784793 
L 127.122324 242.566408 
L 127.771622 238.496231 
L 129.151381 225.984098 
L 129.800679 228.739755 
L 130.480413 227.502056 
L 131.180438 224.333833 
L 131.829736 231.25214 
L 132.50947 235.39914 
L 133.858793 232.358955 
L 134.538527 231.996181 
L 135.238552 233.066008 
L 135.88785 235.608268 
L 136.567585 236.747804 
L 137.267609 239.493502 
L 138.596642 235.969619 
L 139.296666 238.866117 
L 139.945965 237.077857 
L 140.625699 239.258767 
L 141.325723 226.139166 
L 141.975022 230.172355 
L 142.654756 230.8538 
L 143.364926 225.870286 
L 144.004079 233.704774 
L 144.683813 234.436012 
L 145.393983 233.709042 
L 146.033136 233.879759 
L 146.71287 230.122562 
L 147.412895 235.157291 
L 148.062193 230.775555 
L 148.741927 232.128487 
L 149.441952 243.377314 
L 150.09125 233.758834 
L 150.770984 234.427476 
L 151.471009 237.056517 
L 152.120307 236.1318 
L 152.800041 234.093155 
L 153.500066 225.922924 
L 154.149364 230.505253 
L 154.829098 232.061623 
L 155.529123 237.040868 
L 156.178421 230.758483 
L 156.858155 231.165358 
L 157.55818 229.795355 
L 158.207478 229.162279 
L 158.887213 232.798551 
L 159.597383 240.687099 
L 160.236536 219.676105 
L 161.616294 245.659231 
L 162.265593 231.02594 
L 162.945327 227.81646 
L 163.645351 237.592853 
L 164.29465 240.682831 
L 164.974384 234.359189 
L 165.674409 220.489856 
L 166.323707 226.978524 
L 167.003441 231.212306 
L 167.713611 227.422388 
L 168.352764 228.97449 
L 169.032498 234.390487 
L 169.732523 234.421785 
L 170.381821 229.118177 
L 171.061555 226.274317 
L 171.751435 233.182664 
L 172.410878 233.831389 
L 173.090612 236.690898 
L 173.790637 242.876544 
L 174.439935 233.824276 
L 175.119669 228.708456 
L 175.819694 235.128838 
L 176.468992 237.116268 
L 177.148726 221.218248 
L 177.848751 211.746301 
L 178.498049 228.761094 
L 179.177783 225.591449 
L 179.877808 228.099566 
L 180.527106 232.230917 
L 181.206841 231.529555 
L 181.917011 229.74983 
L 182.556164 219.825482 
L 183.235898 226.2544 
L 183.935922 229.000098 
L 184.585221 236.935593 
L 185.264955 241.896344 
L 185.964979 238.58728 
L 186.614278 227.799388 
L 187.294012 230.038626 
L 187.994037 238.292793 
L 189.323069 224.164539 
L 190.023094 226.823456 
L 190.672392 225.494709 
L 191.352126 227.943075 
L 192.052151 232.73311 
L 192.701449 229.381366 
L 193.381183 230.691619 
L 194.081208 228.894822 
L 194.730506 229.334419 
L 195.41024 236.847389 
L 196.12041 231.374487 
L 196.759563 248.709375 
L 197.439297 245.800073 
L 198.149467 230.614796 
L 198.78862 228.894822 
L 199.468354 232.949351 
L 200.178524 233.448698 
L 200.817677 233.488532 
L 201.497411 218.977588 
L 202.197436 229.486641 
L 202.846734 233.687702 
L 203.526469 237.272759 
L 204.226493 233.838502 
L 204.875792 232.956464 
L 206.265696 225.429268 
L 206.904849 229.54497 
L 207.584583 231.977687 
L 208.284607 241.244774 
L 208.933906 241.034223 
L 209.61364 236.902872 
L 210.32381 231.797011 
L 211.642697 235.934053 
L 212.352867 228.621675 
L 212.99202 227.901819 
L 213.671754 223.878588 
L 214.371779 230.97757 
L 215.021077 231.385868 
L 215.700811 236.793329 
L 216.410981 236.045019 
L 217.050134 229.229143 
L 217.729868 225.894471 
L 218.440038 223.817415 
L 219.079191 237.049404 
L 219.758925 231.485453 
L 220.469095 234.517102 
L 221.108248 245.455793 
L 221.777837 239.547563 
L 222.498152 239.980046 
L 223.137305 237.397951 
L 223.817039 235.773295 
L 224.527209 228.436732 
L 225.166362 219.546645 
L 225.846097 229.159434 
L 226.556267 229.990256 
L 227.19542 232.596536 
L 227.875154 234.077506 
L 228.585324 232.859725 
L 229.224477 232.432932 
L 229.904211 227.228909 
L 230.614381 228.943192 
L 231.253534 224.793347 
L 231.933268 234.256759 
L 232.643438 240.817982 
L 233.282591 233.265177 
L 233.962325 229.6474 
L 234.672495 236.293981 
L 235.311648 233.351959 
L 235.991382 230.808275 
L 236.701552 225.067917 
L 237.340705 229.014324 
L 238.020439 225.05369 
L 239.379907 234.286634 
L 240.049496 235.286751 
L 240.749521 232.861147 
L 241.398819 226.049539 
L 242.078553 230.266249 
L 242.788723 221.327792 
L 243.427876 231.43566 
L 244.10761 248.367941 
L 244.81778 238.661257 
L 245.456933 225.6512 
L 246.136667 236.787638 
L 246.846837 246.346367 
L 247.48599 243.203752 
L 248.165725 237.484732 
L 248.875895 227.170581 
L 249.515048 233.414555 
L 250.194782 230.418472 
L 250.904952 230.195117 
L 251.544105 255.021635 
L 252.223839 243.787035 
L 252.934009 215.862003 
L 253.573162 221.091633 
L 254.963066 227.052502 
L 255.602219 236.673827 
L 256.281953 234.350653 
L 256.992123 239.021185 
L 257.631276 237.739385 
L 258.31101 238.137725 
L 259.011035 233.977921 
L 259.660333 242.15811 
L 260.340067 235.784676 
L 261.050237 217.459629 
L 261.68939 228.052619 
L 262.369124 228.849298 
L 263.718447 234.236842 
L 264.398181 224.682381 
L 265.108351 224.594177 
L 265.747504 238.160487 
L 266.427238 231.742951 
L 267.137408 207.616372 
L 267.776561 232.558125 
L 268.456295 235.561321 
L 269.166465 236.343774 
L 269.805618 235.547095 
L 271.834676 223.646698 
L 272.51441 215.53195 
L 273.22458 222.874203 
L 273.863733 223.912732 
L 274.543467 231.696004 
L 275.223201 230.509521 
L 276.572524 225.592871 
L 277.242113 231.764291 
L 277.921847 235.74911 
L 278.601581 229.690079 
L 279.281315 232.569506 
L 279.950904 238.699668 
L 280.630638 226.634245 
L 281.300227 227.100871 
L 281.990106 236.806132 
L 282.659695 230.014441 
L 283.339429 227.573188 
L 284.019163 211.329467 
L 284.688752 222.01066 
L 286.038075 232.053087 
L 286.717809 234.09031 
L 287.397543 229.317347 
L 288.067132 226.35683 
L 288.746866 226.13063 
L 289.416455 227.176271 
L 290.106335 219.660456 
L 290.775923 228.147936 
L 291.455658 238.18894 
L 292.125246 231.775672 
L 292.804981 232.612185 
L 293.474569 240.647265 
L 294.164449 235.861498 
L 295.503627 218.050026 
L 296.183361 220.740241 
L 296.863095 231.189543 
L 297.532684 230.633291 
L 298.212418 230.788358 
L 298.892152 230.582075 
L 299.561741 231.319004 
L 300.241475 230.55789 
L 301.590798 223.140237 
L 302.270532 230.57923 
L 302.950266 243.977669 
L 303.619855 237.756457 
L 304.309734 229.907743 
L 304.979323 242.940563 
L 305.648912 238.21028 
L 306.338791 229.973185 
L 307.00838 224.238517 
L 307.688114 222.404731 
L 308.357703 230.414204 
L 309.037437 230.651785 
L 309.707026 227.220373 
L 310.396906 229.082611 
L 311.066494 229.274668 
L 311.736083 229.951845 
L 312.415817 224.941301 
L 313.095552 232.462808 
L 313.775286 226.376747 
L 314.444874 243.640503 
L 315.124609 244.072986 
L 315.794197 231.491143 
L 316.473932 233.038977 
L 317.153666 241.778265 
L 317.823255 238.351121 
L 319.182723 217.516535 
L 319.862457 221.719018 
L 321.21178 228.34426 
L 321.891514 235.683668 
L 322.571248 228.910472 
L 323.240837 225.184573 
L 324.600305 239.57317 
L 325.269894 227.378287 
L 325.949628 233.710464 
L 326.619217 248.642511 
L 327.298951 238.548868 
L 327.978685 232.825581 
L 328.648274 241.470974 
L 329.328008 246.517084 
L 329.997597 233.038977 
L 330.687476 225.241479 
L 331.357065 221.472901 
L 332.036799 236.1318 
L 332.716534 253.940428 
L 333.386122 230.508098 
L 334.055711 238.496231 
L 334.735445 210.953889 
L 335.41518 250.669775 
L 336.094914 234.647985 
L 336.764502 231.760023 
L 337.444237 223.030694 
L 338.123971 216.534912 
L 338.79356 213.42644 
L 339.473294 223.953988 
L 340.142883 224.992517 
L 340.822617 229.485219 
L 341.502351 241.052718 
L 342.17194 239.597355 
L 342.861819 221.064603 
L 343.531408 224.20295 
L 344.211142 228.850721 
L 344.890876 236.941283 
L 345.560465 230.343072 
L 346.230054 239.937367 
L 346.909788 230.301815 
L 347.589522 234.003528 
L 348.269256 231.539513 
L 348.938845 233.1912 
L 349.618579 242.823906 
L 350.298313 241.418336 
L 350.967902 229.611834 
L 351.647636 243.479744 
L 352.317225 235.938321 
L 353.007104 234.114495 
L 353.676693 227.166313 
L 354.346282 223.162999 
L 355.026016 227.123634 
L 355.70575 227.271588 
L 356.375339 237.762148 
L 357.065219 240.415374 
L 357.734808 235.125993 
L 358.404396 231.385868 
L 359.08413 225.934305 
L 359.763865 223.369282 
L 361.123333 243.963442 
L 361.792922 238.843355 
L 362.462511 230.920664 
L 363.15239 234.31651 
L 363.821979 234.022023 
L 364.491568 232.76014 
L 365.171302 224.548652 
L 365.851036 222.753279 
L 366.520625 223.504433 
L 367.210504 230.660321 
L 367.880093 230.427007 
L 368.549682 232.872528 
L 369.229416 233.940932 
L 369.90915 229.166547 
L 370.578739 223.623935 
L 371.258473 225.866018 
L 372.607796 244.262197 
L 373.967264 221.518426 
L 374.646998 235.979578 
L 375.326732 242.596284 
L 375.996321 235.138796 
L 376.676055 209.480033 
L 378.025378 229.253328 
L 378.694967 238.422253 
L 379.384847 229.665894 
L 380.054436 233.359072 
L 380.724024 230.668857 
L 381.413904 226.661275 
L 382.083493 219.354588 
L 382.753081 219.828328 
L 383.442961 223.484516 
L 384.11255 240.426755 
L 384.782139 239.787989 
L 385.461873 228.311539 
L 386.141607 231.943543 
L 386.811196 240.230431 
L 387.49093 229.367139 
L 388.170664 214.116422 
L 388.840253 218.927795 
L 390.199721 234.181359 
L 390.86931 233.566777 
L 391.549044 230.752792 
L 392.228778 228.924698 
L 392.898367 228.072536 
L 393.588246 226.035313 
L 394.257835 213.654063 
L 395.607158 244.082944 
L 396.286892 234.104536 
L 396.966626 229.805313 
L 397.646361 240.549102 
L 398.315949 237.479042 
L 398.985538 222.232592 
L 399.675418 216.11381 
L 400.345006 221.021924 
L 401.014595 232.371759 
L 401.694329 233.498491 
L 402.374064 231.577925 
L 403.723386 223.440415 
L 404.403121 221.932414 
L 405.082855 227.065305 
L 405.752444 220.284995 
L 406.432178 241.247619 
L 407.101767 242.694446 
L 407.781501 228.584687 
L 408.461235 231.939275 
L 409.130824 234.177091 
L 409.820703 234.300861 
L 410.490292 220.745931 
L 411.159881 218.748543 
L 411.84976 226.728139 
L 412.519349 232.993453 
L 413.188938 229.584804 
L 413.868672 227.502056 
L 414.538261 230.518057 
L 415.217995 230.991796 
L 416.577463 228.355641 
L 417.247052 228.756826 
L 417.926786 233.085925 
L 418.60652 233.44443 
L 419.276109 224.679535 
L 420.635577 239.132151 
L 421.9849 229.941887 
L 422.664634 213.328278 
L 423.334223 222.300879 
L 424.013957 224.340947 
L 424.693692 229.088302 
L 425.36328 228.172121 
L 426.043014 229.779706 
L 426.722749 225.082143 
L 427.392337 224.084871 
L 428.072072 227.8378 
L 428.751806 226.132052 
L 430.101129 242.882235 
L 430.780863 230.236373 
L 431.450452 230.351607 
L 432.130186 228.233294 
L 432.80992 241.63031 
L 433.479509 208.413051 
L 434.169388 205.071266 
L 434.838977 222.255354 
L 435.508566 224.77912 
L 436.1883 229.772592 
L 436.868034 233.114377 
L 437.537623 228.542007 
L 438.217357 222.537037 
L 438.897091 218.17095 
L 439.56668 222.935377 
L 440.256559 224.201528 
L 440.926148 232.697543 
L 441.595737 244.39308 
L 442.285617 231.902287 
L 442.955205 231.03163 
L 443.624794 237.242883 
L 444.304528 228.472298 
L 444.984262 222.623818 
L 445.653851 214.499112 
L 446.333585 225.959913 
L 447.01332 227.74106 
L 447.682908 227.034007 
L 448.362643 235.286751 
L 449.042377 234.177091 
L 449.711965 228.048351 
L 450.401845 218.873735 
L 451.071434 220.744509 
L 451.741023 221.211135 
L 453.100491 239.779453 
L 453.77008 226.73952 
L 454.449814 234.107381 
L 455.129548 236.140336 
L 456.478871 217.31452 
L 457.158605 220.148422 
L 457.828194 226.06092 
L 458.518073 236.53014 
L 459.187662 229.645977 
L 459.857251 230.215034 
L 460.54713 228.56477 
L 461.216719 226.501939 
L 461.886308 234.380528 
L 462.566042 228.22049 
L 463.245776 234.508566 
L 463.915365 242.687333 
L 464.605245 236.500264 
L 465.274833 224.288309 
L 465.944422 237.210163 
L 466.624156 233.192623 
L 467.30389 227.637207 
L 467.973479 217.995965 
L 468.653213 226.803539 
L 469.332948 230.115449 
L 470.002536 230.018709 
L 470.692416 231.883792 
L 471.362005 235.175785 
L 472.031593 226.193226 
L 473.391062 211.618263 
L 474.060651 227.595951 
L 474.75053 238.363925 
L 475.420119 241.728472 
L 476.089708 232.283555 
L 476.769442 239.662797 
L 477.449176 229.442539 
L 478.798499 220.706097 
L 479.478233 220.020384 
L 480.147822 226.834837 
L 480.827556 226.351139 
L 481.50729 235.315204 
L 482.176879 236.338083 
L 482.866758 230.550777 
L 483.536347 225.914388 
L 484.205936 216.657259 
L 484.895815 232.548166 
L 485.565404 233.047513 
L 486.234993 235.359306 
L 486.924873 233.949468 
L 487.594461 232.057355 
L 488.26405 234.216925 
L 488.943784 231.300509 
L 489.623518 221.320679 
L 490.293107 217.328746 
L 490.972841 219.582211 
L 491.652576 227.66566 
L 492.322164 230.680238 
L 493.001899 235.086159 
L 493.681633 233.342 
L 494.351221 228.946038 
L 495.030956 222.165728 
L 495.71069 218.296143 
L 496.380279 232.206732 
L 497.060013 235.012181 
L 497.739747 238.429366 
L 498.409336 240.664336 
L 499.099215 235.871457 
L 499.768804 242.040031 
L 501.128272 208.330538 
L 501.797861 216.551984 
L 502.46745 221.541188 
L 503.157329 231.116989 
L 503.826918 228.394053 
L 504.496507 227.769513 
L 505.176241 225.555883 
L 505.855975 219.07575 
L 506.525564 222.871358 
L 507.205298 216.995848 
L 507.885032 233.76737 
L 508.554621 242.947676 
L 509.244501 232.949351 
L 509.914089 218.722935 
L 510.583678 228.453804 
L 511.273558 221.620856 
L 512.612735 204.742636 
L 513.292469 217.818135 
L 513.972204 220.043146 
L 514.641792 223.086177 
L 515.331672 229.633173 
L 516.001261 227.658547 
L 516.670849 222.474441 
L 517.360729 215.732542 
L 518.030318 223.063415 
L 518.699907 220.115701 
L 519.379641 220.844094 
L 520.059375 234.682129 
L 520.728964 228.388362 
L 521.418843 228.221913 
L 522.088432 226.230215 
L 522.758021 224.818954 
L 523.4479 212.92567 
L 524.117489 204.85787 
L 525.466812 228.017053 
L 526.146546 224.406388 
L 527.506014 230.933468 
L 528.175603 228.39263 
L 528.845192 218.896497 
L 529.524926 224.548652 
L 530.20466 214.846237 
L 530.874249 224.005203 
L 531.553983 227.896128 
L 532.233717 226.076569 
L 532.903306 218.515229 
L 533.58304 227.950188 
L 534.262774 225.83472 
L 534.932363 219.637694 
L 535.622243 201.7181 
L 536.291832 217.469588 
L 536.96142 212.944165 
L 537.641155 225.329683 
L 538.320889 228.113792 
L 538.990477 230.293279 
L 539.680357 224.754935 
L 540.349946 218.280493 
L 541.019535 225.110596 
L 541.699269 213.466274 
L 542.379003 228.046928 
L 543.048592 234.232574 
L 543.728326 221.66069 
L 544.40806 218.940599 
L 545.077649 230.273362 
L 545.767528 225.434958 
L 546.437117 211.386372 
L 547.106706 207.117025 
L 547.796585 225.513203 
L 548.466174 222.804494 
L 549.135763 227.220373 
L 549.825642 229.752675 
L 551.16482 220.304912 
L 551.854699 224.383626 
L 552.524288 231.282015 
L 553.204022 217.284644 
L 554.553345 240.152185 
L 555.222934 224.02512 
L 555.902668 219.715939 
L 556.582402 218.358739 
L 557.251991 217.949018 
L 557.931725 209.313583 
L 558.61146 205.441153 
L 559.281048 221.765965 
L 559.960783 222.165728 
L 560.640517 229.327306 
L 561.320251 227.292928 
L 561.98984 224.494592 
L 562.669574 220.016116 
L 563.339163 221.011965 
L 564.018897 219.030226 
L 564.688486 223.899928 
L 565.36822 233.676321 
L 566.047954 233.642177 
L 566.717543 213.979848 
L 568.077011 231.227955 
L 568.756745 223.403426 
L 569.426334 212.860229 
L 570.106068 209.659285 
L 570.785802 221.646464 
L 571.455391 224.870169 
L 572.135125 226.009705 
L 572.814859 228.909049 
L 573.484448 229.708573 
L 574.164182 222.029154 
L 574.843916 222.537037 
L 575.513505 212.786252 
L 576.193239 228.293045 
L 576.872973 236.574242 
L 578.222296 224.377935 
L 578.90203 232.107147 
L 579.571619 232.176857 
L 580.251353 222.154347 
L 580.931088 213.912984 
L 581.600676 207.816964 
L 582.290556 224.9726 
L 582.960145 222.589675 
L 583.629734 223.505856 
L 584.309468 226.652739 
L 584.989202 228.055464 
L 585.658791 227.800811 
L 586.34867 225.471947 
L 587.018259 223.857249 
L 587.687848 218.998927 
L 588.367582 232.755872 
L 589.047316 235.003646 
L 589.716905 226.861868 
L 590.406784 213.524603 
L 591.076373 229.641709 
L 591.745962 228.781011 
L 592.425696 234.04194 
L 593.10543 188.827544 
L 593.775019 202.952953 
L 594.454753 223.783271 
L 595.134487 225.154698 
L 595.804076 229.988834 
L 596.48381 231.693158 
L 597.163544 229.2704 
L 597.833133 225.163234 
L 598.512867 225.792041 
L 599.182456 217.613275 
L 599.86219 231.738683 
L 600.541924 238.304174 
L 601.221658 221.891158 
L 601.891247 223.559916 
L 602.581127 228.442422 
L 603.250716 227.177694 
L 603.920304 214.85335 
L 604.600039 205.678734 
L 605.279773 213.629878 
L 605.949362 224.616939 
L 606.629096 224.588486 
L 607.30883 227.43946 
L 607.978419 230.892211 
L 608.658153 224.441954 
L 609.337887 221.553992 
L 610.007476 222.485822 
L 610.68721 216.125191 
L 611.366944 227.092336 
L 612.036533 241.089706 
L 612.726412 232.202464 
L 613.396001 217.618965 
L 614.06559 227.467913 
L 614.745324 223.312377 
L 615.425058 221.820026 
L 616.094647 210.593961 
L 616.774381 203.578915 
L 617.454115 223.639584 
L 618.123704 229.0442 
L 618.803438 229.867909 
L 619.483172 228.103834 
L 620.152761 231.145441 
L 620.832495 226.553154 
L 621.512229 219.876697 
L 622.181818 223.537154 
L 622.871698 218.815407 
L 623.541286 228.093875 
L 624.210875 240.571865 
L 624.900755 227.300041 
L 625.570344 222.500048 
L 626.239932 232.556702 
L 626.919667 230.075615 
L 628.26899 211.699353 
L 628.948724 220.589441 
L 629.628458 219.782803 
L 630.298047 227.19192 
L 630.987926 226.295656 
L 631.657515 233.349113 
L 632.327104 233.194045 
L 633.006838 219.442792 
L 633.686572 220.437218 
L 634.356161 215.294369 
L 635.035895 227.459377 
L 635.715629 241.680103 
L 637.075097 224.123283 
L 637.744686 230.650362 
L 638.414275 234.080351 
L 639.094009 215.770954 
L 639.773743 207.893787 
L 640.443332 220.223822 
L 641.133211 218.594897 
L 641.8028 227.551849 
L 642.472389 230.759906 
L 643.162269 231.639098 
L 643.831857 226.756592 
L 644.511592 226.674079 
L 645.191326 224.643969 
L 645.860915 223.333716 
L 646.530503 230.061389 
L 647.210237 232.142713 
L 647.889972 237.797714 
L 648.55956 232.445736 
L 649.239295 237.248574 
L 649.919029 239.210397 
L 650.588618 225.665426 
L 651.268352 219.088554 
L 651.948086 219.155418 
L 652.617675 231.186698 
L 653.297409 228.079649 
L 653.977143 228.470875 
L 654.646732 229.993102 
L 655.326466 230.461151 
L 656.0062 228.499328 
L 656.675789 223.299573 
L 657.355523 227.800811 
L 658.035257 226.721026 
L 658.714991 239.031144 
L 659.394725 238.722431 
L 660.064314 227.927426 
L 660.733903 225.092101 
L 661.413637 235.643834 
L 662.093371 233.697661 
L 662.76296 220.70752 
L 663.442694 216.024184 
L 665.471751 228.11806 
L 666.151485 226.645626 
L 666.821074 227.968683 
L 667.510954 231.172472 
L 668.180543 226.113558 
L 668.850131 226.642781 
L 669.540011 230.563581 
L 670.2096 226.584453 
L 670.879188 235.205661 
L 671.558923 240.413952 
L 672.238657 228.113792 
L 672.908246 228.840762 
L 673.58798 233.761679 
L 674.267714 232.79286 
L 674.937303 222.211252 
L 675.627182 217.724241 
L 676.296771 219.885233 
L 676.96636 227.375441 
L 677.656239 233.024751 
L 678.325828 230.779823 
L 679.685296 234.39191 
L 680.354885 227.71403 
L 681.024474 225.762166 
L 681.714353 228.244675 
L 682.373797 227.739637 
L 683.053531 237.008148 
L 683.74341 242.741393 
L 684.412999 226.124939 
L 685.092733 222.165728 
L 685.762322 232.775789 
L 686.442056 227.378287 
L 687.111645 235.562744 
L 687.801525 233.750298 
L 688.471113 222.909769 
L 689.140702 218.966207 
L 689.830582 228.056887 
L 690.500171 214.622882 
L 691.169759 221.171301 
L 691.859639 223.89566 
L 692.529228 225.288426 
L 693.198816 228.971645 
L 693.888696 237.867423 
L 694.558285 224.548652 
L 695.227874 233.290785 
L 695.917753 235.067664 
L 696.587342 240.806601 
L 697.256931 232.812777 
L 697.94681 230.940581 
L 698.616399 224.340947 
L 699.296133 229.87929 
L 699.965722 227.231754 
L 700.645456 227.957302 
L 701.315045 223.951143 
L 701.994779 225.591449 
L 702.674513 228.610294 
L 703.344102 227.81646 
L 704.033981 228.89909 
L 704.70357 231.190966 
L 705.373159 232.972113 
L 706.052893 229.637441 
L 706.732627 232.718883 
L 707.402216 228.159317 
L 708.092095 230.895057 
L 708.761684 228.852143 
L 709.431273 230.404245 
L 710.111007 228.994407 
L 710.790741 223.484516 
L 711.46033 225.183151 
L 712.15021 224.057841 
L 712.819799 226.116403 
L 713.489387 225.595717 
L 714.179267 228.477988 
L 714.848856 227.371173 
L 715.518444 227.853449 
L 716.208324 228.771053 
L 716.208324 228.771053 
" style="fill:none;stroke:#2ca02c;stroke-linecap:square;stroke-width:1.5;"/>
   </g>
   <g id="legend_1">
    <g id="patch_3">
     <path d="M 674.774688 97.293594 
L 735.444687 97.293594 
Q 738.644687 97.293594 738.644687 94.093594 
L 738.644687 25.238594 
Q 738.644687 22.038594 735.444687 22.038594 
L 674.774688 22.038594 
Q 671.574687 22.038594 671.574687 25.238594 
L 671.574687 94.093594 
Q 671.574687 97.293594 674.774688 97.293594 
z
" style="fill:#ffffff;opacity:0.4;stroke:#cccccc;stroke-linejoin:miter;"/>
    </g>
    <g id="line2d_18">
     <path d="M 677.974687 34.996094 
L 709.974687 34.996094 
" style="fill:none;stroke:#1f77b4;stroke-linecap:square;stroke-width:1.5;"/>
    </g>
    <g id="line2d_19"/>
    <g id="text_17">
     <!-- x -->
     <defs>
      <path d="M 54.890625 54.6875 
L 35.109375 28.078125 
L 55.90625 0 
L 45.3125 0 
L 29.390625 21.484375 
L 13.484375 0 
L 2.875 0 
L 24.125 28.609375 
L 4.6875 54.6875 
L 15.28125 54.6875 
L 29.78125 35.203125 
L 44.28125 54.6875 
z
" id="DejaVuSans-120"/>
     </defs>
     <g transform="translate(722.774687 40.596094)scale(0.16 -0.16)">
      <use xlink:href="#DejaVuSans-120"/>
     </g>
    </g>
    <g id="line2d_20">
     <path d="M 677.974687 58.481094 
L 709.974687 58.481094 
" style="fill:none;stroke:#ff7f0e;stroke-linecap:square;stroke-width:1.5;"/>
    </g>
    <g id="line2d_21"/>
    <g id="text_18">
     <!-- y -->
     <defs>
      <path d="M 32.171875 -5.078125 
Q 28.375 -14.84375 24.75 -17.8125 
Q 21.140625 -20.796875 15.09375 -20.796875 
L 7.90625 -20.796875 
L 7.90625 -13.28125 
L 13.1875 -13.28125 
Q 16.890625 -13.28125 18.9375 -11.515625 
Q 21 -9.765625 23.484375 -3.21875 
L 25.09375 0.875 
L 2.984375 54.6875 
L 12.5 54.6875 
L 29.59375 11.921875 
L 46.6875 54.6875 
L 56.203125 54.6875 
z
" id="DejaVuSans-121"/>
     </defs>
     <g transform="translate(722.774687 64.081094)scale(0.16 -0.16)">
      <use xlink:href="#DejaVuSans-121"/>
     </g>
    </g>
    <g id="line2d_22">
     <path d="M 677.974687 81.966094 
L 709.974687 81.966094 
" style="fill:none;stroke:#2ca02c;stroke-linecap:square;stroke-width:1.5;"/>
    </g>
    <g id="line2d_23"/>
    <g id="text_19">
     <!-- z -->
     <defs>
      <path d="M 5.515625 54.6875 
L 48.1875 54.6875 
L 48.1875 46.484375 
L 14.40625 7.171875 
L 48.1875 7.171875 
L 48.1875 0 
L 4.296875 0 
L 4.296875 8.203125 
L 38.09375 47.515625 
L 5.515625 47.515625 
z
" id="DejaVuSans-122"/>
     </defs>
     <g transform="translate(722.774687 87.566094)scale(0.16 -0.16)">
      <use xlink:href="#DejaVuSans-122"/>
     </g>
    </g>
   </g>
  </g>
 </g>
 <defs>
  <clipPath id="p942a8fbd7c">
   <rect height="332.64" width="669.6" x="77.044688" y="14.038594"/>
  </clipPath>
 </defs>
</svg>
