<?xml version="1.0" encoding="utf-8" standalone="no"?>
<!DOCTYPE svg PUBLIC "-//W3C//DTD SVG 1.1//EN"
  "http://www.w3.org/Graphics/SVG/1.1/DTD/svg11.dtd">
<!-- Created with matplotlib (https://matplotlib.org/) -->
<svg height="403.155469pt" version="1.1" viewBox="0 0 743.76125 403.155469" width="743.76125pt" xmlns="http://www.w3.org/2000/svg" xmlns:xlink="http://www.w3.org/1999/xlink">
 <defs>
  <style type="text/css">
*{stroke-linecap:butt;stroke-linejoin:round;}
  </style>
 </defs>
 <g id="figure_1">
  <g id="patch_1">
   <path d="M 0 403.155469 
L 743.76125 403.155469 
L 743.76125 0 
L 0 0 
z
" style="fill:#ffffff;"/>
  </g>
  <g id="axes_1">
   <g id="patch_2">
    <path d="M 61.96125 346.678594 
L 731.56125 346.678594 
L 731.56125 14.038594 
L 61.96125 14.038594 
z
" style="fill:#ffffff;"/>
   </g>
   <g id="matplotlib.axis_1">
    <g id="xtick_1">
     <g id="line2d_1">
      <defs>
       <path d="M 0 5 
L 0 -5 
" id="m1b4d905284" style="stroke:#525252;stroke-width:4;"/>
      </defs>
      <g>
       <use style="fill:#525252;stroke:#525252;stroke-width:4;" x="131.2415" xlink:href="#m1b4d905284" y="346.678594"/>
      </g>
     </g>
     <g id="text_1">
      <!-- 10000 -->
      <defs>
       <path d="M 12.40625 8.296875 
L 28.515625 8.296875 
L 28.515625 63.921875 
L 10.984375 60.40625 
L 10.984375 69.390625 
L 28.421875 72.90625 
L 38.28125 72.90625 
L 38.28125 8.296875 
L 54.390625 8.296875 
L 54.390625 0 
L 12.40625 0 
z
" id="DejaVuSans-49"/>
       <path d="M 31.78125 66.40625 
Q 24.171875 66.40625 20.328125 58.90625 
Q 16.5 51.421875 16.5 36.375 
Q 16.5 21.390625 20.328125 13.890625 
Q 24.171875 6.390625 31.78125 6.390625 
Q 39.453125 6.390625 43.28125 13.890625 
Q 47.125 21.390625 47.125 36.375 
Q 47.125 51.421875 43.28125 58.90625 
Q 39.453125 66.40625 31.78125 66.40625 
z
M 31.78125 74.21875 
Q 44.046875 74.21875 50.515625 64.515625 
Q 56.984375 54.828125 56.984375 36.375 
Q 56.984375 17.96875 50.515625 8.265625 
Q 44.046875 -1.421875 31.78125 -1.421875 
Q 19.53125 -1.421875 13.0625 8.265625 
Q 6.59375 17.96875 6.59375 36.375 
Q 6.59375 54.828125 13.0625 64.515625 
Q 19.53125 74.21875 31.78125 74.21875 
z
" id="DejaVuSans-48"/>
      </defs>
      <g transform="translate(102.61025 368.855781)scale(0.18 -0.18)">
       <use xlink:href="#DejaVuSans-49"/>
       <use x="63.623047" xlink:href="#DejaVuSans-48"/>
       <use x="127.246094" xlink:href="#DejaVuSans-48"/>
       <use x="190.869141" xlink:href="#DejaVuSans-48"/>
       <use x="254.492188" xlink:href="#DejaVuSans-48"/>
      </g>
     </g>
    </g>
    <g id="xtick_2">
     <g id="line2d_2">
      <g>
       <use style="fill:#525252;stroke:#525252;stroke-width:4;" x="233.033657" xlink:href="#m1b4d905284" y="346.678594"/>
      </g>
     </g>
     <g id="text_2">
      <!-- 20000 -->
      <defs>
       <path d="M 19.1875 8.296875 
L 53.609375 8.296875 
L 53.609375 0 
L 7.328125 0 
L 7.328125 8.296875 
Q 12.9375 14.109375 22.625 23.890625 
Q 32.328125 33.6875 34.8125 36.53125 
Q 39.546875 41.84375 41.421875 45.53125 
Q 43.3125 49.21875 43.3125 52.78125 
Q 43.3125 58.59375 39.234375 62.25 
Q 35.15625 65.921875 28.609375 65.921875 
Q 23.96875 65.921875 18.8125 64.3125 
Q 13.671875 62.703125 7.8125 59.421875 
L 7.8125 69.390625 
Q 13.765625 71.78125 18.9375 73 
Q 24.125 74.21875 28.421875 74.21875 
Q 39.75 74.21875 46.484375 68.546875 
Q 53.21875 62.890625 53.21875 53.421875 
Q 53.21875 48.921875 51.53125 44.890625 
Q 49.859375 40.875 45.40625 35.40625 
Q 44.1875 33.984375 37.640625 27.21875 
Q 31.109375 20.453125 19.1875 8.296875 
z
" id="DejaVuSans-50"/>
      </defs>
      <g transform="translate(204.402407 368.855781)scale(0.18 -0.18)">
       <use xlink:href="#DejaVuSans-50"/>
       <use x="63.623047" xlink:href="#DejaVuSans-48"/>
       <use x="127.246094" xlink:href="#DejaVuSans-48"/>
       <use x="190.869141" xlink:href="#DejaVuSans-48"/>
       <use x="254.492188" xlink:href="#DejaVuSans-48"/>
      </g>
     </g>
    </g>
    <g id="xtick_3">
     <g id="line2d_3">
      <g>
       <use style="fill:#525252;stroke:#525252;stroke-width:4;" x="334.825813" xlink:href="#m1b4d905284" y="346.678594"/>
      </g>
     </g>
     <g id="text_3">
      <!-- 30000 -->
      <defs>
       <path d="M 40.578125 39.3125 
Q 47.65625 37.796875 51.625 33 
Q 55.609375 28.21875 55.609375 21.1875 
Q 55.609375 10.40625 48.1875 4.484375 
Q 40.765625 -1.421875 27.09375 -1.421875 
Q 22.515625 -1.421875 17.65625 -0.515625 
Q 12.796875 0.390625 7.625 2.203125 
L 7.625 11.71875 
Q 11.71875 9.328125 16.59375 8.109375 
Q 21.484375 6.890625 26.8125 6.890625 
Q 36.078125 6.890625 40.9375 10.546875 
Q 45.796875 14.203125 45.796875 21.1875 
Q 45.796875 27.640625 41.28125 31.265625 
Q 36.765625 34.90625 28.71875 34.90625 
L 20.21875 34.90625 
L 20.21875 43.015625 
L 29.109375 43.015625 
Q 36.375 43.015625 40.234375 45.921875 
Q 44.09375 48.828125 44.09375 54.296875 
Q 44.09375 59.90625 40.109375 62.90625 
Q 36.140625 65.921875 28.71875 65.921875 
Q 24.65625 65.921875 20.015625 65.03125 
Q 15.375 64.15625 9.8125 62.3125 
L 9.8125 71.09375 
Q 15.4375 72.65625 20.34375 73.4375 
Q 25.25 74.21875 29.59375 74.21875 
Q 40.828125 74.21875 47.359375 69.109375 
Q 53.90625 64.015625 53.90625 55.328125 
Q 53.90625 49.265625 50.4375 45.09375 
Q 46.96875 40.921875 40.578125 39.3125 
z
" id="DejaVuSans-51"/>
      </defs>
      <g transform="translate(306.194563 368.855781)scale(0.18 -0.18)">
       <use xlink:href="#DejaVuSans-51"/>
       <use x="63.623047" xlink:href="#DejaVuSans-48"/>
       <use x="127.246094" xlink:href="#DejaVuSans-48"/>
       <use x="190.869141" xlink:href="#DejaVuSans-48"/>
       <use x="254.492188" xlink:href="#DejaVuSans-48"/>
      </g>
     </g>
    </g>
    <g id="xtick_4">
     <g id="line2d_4">
      <g>
       <use style="fill:#525252;stroke:#525252;stroke-width:4;" x="436.617969" xlink:href="#m1b4d905284" y="346.678594"/>
      </g>
     </g>
     <g id="text_4">
      <!-- 40000 -->
      <defs>
       <path d="M 37.796875 64.3125 
L 12.890625 25.390625 
L 37.796875 25.390625 
z
M 35.203125 72.90625 
L 47.609375 72.90625 
L 47.609375 25.390625 
L 58.015625 25.390625 
L 58.015625 17.1875 
L 47.609375 17.1875 
L 47.609375 0 
L 37.796875 0 
L 37.796875 17.1875 
L 4.890625 17.1875 
L 4.890625 26.703125 
z
" id="DejaVuSans-52"/>
      </defs>
      <g transform="translate(407.986719 368.855781)scale(0.18 -0.18)">
       <use xlink:href="#DejaVuSans-52"/>
       <use x="63.623047" xlink:href="#DejaVuSans-48"/>
       <use x="127.246094" xlink:href="#DejaVuSans-48"/>
       <use x="190.869141" xlink:href="#DejaVuSans-48"/>
       <use x="254.492188" xlink:href="#DejaVuSans-48"/>
      </g>
     </g>
    </g>
    <g id="xtick_5">
     <g id="line2d_5">
      <g>
       <use style="fill:#525252;stroke:#525252;stroke-width:4;" x="538.410125" xlink:href="#m1b4d905284" y="346.678594"/>
      </g>
     </g>
     <g id="text_5">
      <!-- 50000 -->
      <defs>
       <path d="M 10.796875 72.90625 
L 49.515625 72.90625 
L 49.515625 64.59375 
L 19.828125 64.59375 
L 19.828125 46.734375 
Q 21.96875 47.46875 24.109375 47.828125 
Q 26.265625 48.1875 28.421875 48.1875 
Q 40.625 48.1875 47.75 41.5 
Q 54.890625 34.8125 54.890625 23.390625 
Q 54.890625 11.625 47.5625 5.09375 
Q 40.234375 -1.421875 26.90625 -1.421875 
Q 22.3125 -1.421875 17.546875 -0.640625 
Q 12.796875 0.140625 7.71875 1.703125 
L 7.71875 11.625 
Q 12.109375 9.234375 16.796875 8.0625 
Q 21.484375 6.890625 26.703125 6.890625 
Q 35.15625 6.890625 40.078125 11.328125 
Q 45.015625 15.765625 45.015625 23.390625 
Q 45.015625 31 40.078125 35.4375 
Q 35.15625 39.890625 26.703125 39.890625 
Q 22.75 39.890625 18.8125 39.015625 
Q 14.890625 38.140625 10.796875 36.28125 
z
" id="DejaVuSans-53"/>
      </defs>
      <g transform="translate(509.778875 368.855781)scale(0.18 -0.18)">
       <use xlink:href="#DejaVuSans-53"/>
       <use x="63.623047" xlink:href="#DejaVuSans-48"/>
       <use x="127.246094" xlink:href="#DejaVuSans-48"/>
       <use x="190.869141" xlink:href="#DejaVuSans-48"/>
       <use x="254.492188" xlink:href="#DejaVuSans-48"/>
      </g>
     </g>
    </g>
    <g id="xtick_6">
     <g id="line2d_6">
      <g>
       <use style="fill:#525252;stroke:#525252;stroke-width:4;" x="640.202281" xlink:href="#m1b4d905284" y="346.678594"/>
      </g>
     </g>
     <g id="text_6">
      <!-- 60000 -->
      <defs>
       <path d="M 33.015625 40.375 
Q 26.375 40.375 22.484375 35.828125 
Q 18.609375 31.296875 18.609375 23.390625 
Q 18.609375 15.53125 22.484375 10.953125 
Q 26.375 6.390625 33.015625 6.390625 
Q 39.65625 6.390625 43.53125 10.953125 
Q 47.40625 15.53125 47.40625 23.390625 
Q 47.40625 31.296875 43.53125 35.828125 
Q 39.65625 40.375 33.015625 40.375 
z
M 52.59375 71.296875 
L 52.59375 62.3125 
Q 48.875 64.0625 45.09375 64.984375 
Q 41.3125 65.921875 37.59375 65.921875 
Q 27.828125 65.921875 22.671875 59.328125 
Q 17.53125 52.734375 16.796875 39.40625 
Q 19.671875 43.65625 24.015625 45.921875 
Q 28.375 48.1875 33.59375 48.1875 
Q 44.578125 48.1875 50.953125 41.515625 
Q 57.328125 34.859375 57.328125 23.390625 
Q 57.328125 12.15625 50.6875 5.359375 
Q 44.046875 -1.421875 33.015625 -1.421875 
Q 20.359375 -1.421875 13.671875 8.265625 
Q 6.984375 17.96875 6.984375 36.375 
Q 6.984375 53.65625 15.1875 63.9375 
Q 23.390625 74.21875 37.203125 74.21875 
Q 40.921875 74.21875 44.703125 73.484375 
Q 48.484375 72.75 52.59375 71.296875 
z
" id="DejaVuSans-54"/>
      </defs>
      <g transform="translate(611.571031 368.855781)scale(0.18 -0.18)">
       <use xlink:href="#DejaVuSans-54"/>
       <use x="63.623047" xlink:href="#DejaVuSans-48"/>
       <use x="127.246094" xlink:href="#DejaVuSans-48"/>
       <use x="190.869141" xlink:href="#DejaVuSans-48"/>
       <use x="254.492188" xlink:href="#DejaVuSans-48"/>
      </g>
     </g>
    </g>
    <g id="text_7">
     <!-- Time (ms) -->
     <defs>
      <path d="M -0.296875 72.90625 
L 61.375 72.90625 
L 61.375 64.59375 
L 35.5 64.59375 
L 35.5 0 
L 25.59375 0 
L 25.59375 64.59375 
L -0.296875 64.59375 
z
" id="DejaVuSans-84"/>
      <path d="M 9.421875 54.6875 
L 18.40625 54.6875 
L 18.40625 0 
L 9.421875 0 
z
M 9.421875 75.984375 
L 18.40625 75.984375 
L 18.40625 64.59375 
L 9.421875 64.59375 
z
" id="DejaVuSans-105"/>
      <path d="M 52 44.1875 
Q 55.375 50.25 60.0625 53.125 
Q 64.75 56 71.09375 56 
Q 79.640625 56 84.28125 50.015625 
Q 88.921875 44.046875 88.921875 33.015625 
L 88.921875 0 
L 79.890625 0 
L 79.890625 32.71875 
Q 79.890625 40.578125 77.09375 44.375 
Q 74.3125 48.1875 68.609375 48.1875 
Q 61.625 48.1875 57.5625 43.546875 
Q 53.515625 38.921875 53.515625 30.90625 
L 53.515625 0 
L 44.484375 0 
L 44.484375 32.71875 
Q 44.484375 40.625 41.703125 44.40625 
Q 38.921875 48.1875 33.109375 48.1875 
Q 26.21875 48.1875 22.15625 43.53125 
Q 18.109375 38.875 18.109375 30.90625 
L 18.109375 0 
L 9.078125 0 
L 9.078125 54.6875 
L 18.109375 54.6875 
L 18.109375 46.1875 
Q 21.1875 51.21875 25.484375 53.609375 
Q 29.78125 56 35.6875 56 
Q 41.65625 56 45.828125 52.96875 
Q 50 49.953125 52 44.1875 
z
" id="DejaVuSans-109"/>
      <path d="M 56.203125 29.59375 
L 56.203125 25.203125 
L 14.890625 25.203125 
Q 15.484375 15.921875 20.484375 11.0625 
Q 25.484375 6.203125 34.421875 6.203125 
Q 39.59375 6.203125 44.453125 7.46875 
Q 49.3125 8.734375 54.109375 11.28125 
L 54.109375 2.78125 
Q 49.265625 0.734375 44.1875 -0.34375 
Q 39.109375 -1.421875 33.890625 -1.421875 
Q 20.796875 -1.421875 13.15625 6.1875 
Q 5.515625 13.8125 5.515625 26.8125 
Q 5.515625 40.234375 12.765625 48.109375 
Q 20.015625 56 32.328125 56 
Q 43.359375 56 49.78125 48.890625 
Q 56.203125 41.796875 56.203125 29.59375 
z
M 47.21875 32.234375 
Q 47.125 39.59375 43.09375 43.984375 
Q 39.0625 48.390625 32.421875 48.390625 
Q 24.90625 48.390625 20.390625 44.140625 
Q 15.875 39.890625 15.1875 32.171875 
z
" id="DejaVuSans-101"/>
      <path id="DejaVuSans-32"/>
      <path d="M 31 75.875 
Q 24.46875 64.65625 21.28125 53.65625 
Q 18.109375 42.671875 18.109375 31.390625 
Q 18.109375 20.125 21.3125 9.0625 
Q 24.515625 -2 31 -13.1875 
L 23.1875 -13.1875 
Q 15.875 -1.703125 12.234375 9.375 
Q 8.59375 20.453125 8.59375 31.390625 
Q 8.59375 42.28125 12.203125 53.3125 
Q 15.828125 64.359375 23.1875 75.875 
z
" id="DejaVuSans-40"/>
      <path d="M 44.28125 53.078125 
L 44.28125 44.578125 
Q 40.484375 46.53125 36.375 47.5 
Q 32.28125 48.484375 27.875 48.484375 
Q 21.1875 48.484375 17.84375 46.4375 
Q 14.5 44.390625 14.5 40.28125 
Q 14.5 37.15625 16.890625 35.375 
Q 19.28125 33.59375 26.515625 31.984375 
L 29.59375 31.296875 
Q 39.15625 29.25 43.1875 25.515625 
Q 47.21875 21.78125 47.21875 15.09375 
Q 47.21875 7.46875 41.1875 3.015625 
Q 35.15625 -1.421875 24.609375 -1.421875 
Q 20.21875 -1.421875 15.453125 -0.5625 
Q 10.6875 0.296875 5.421875 2 
L 5.421875 11.28125 
Q 10.40625 8.6875 15.234375 7.390625 
Q 20.0625 6.109375 24.8125 6.109375 
Q 31.15625 6.109375 34.5625 8.28125 
Q 37.984375 10.453125 37.984375 14.40625 
Q 37.984375 18.0625 35.515625 20.015625 
Q 33.0625 21.96875 24.703125 23.78125 
L 21.578125 24.515625 
Q 13.234375 26.265625 9.515625 29.90625 
Q 5.8125 33.546875 5.8125 39.890625 
Q 5.8125 47.609375 11.28125 51.796875 
Q 16.75 56 26.8125 56 
Q 31.78125 56 36.171875 55.265625 
Q 40.578125 54.546875 44.28125 53.078125 
z
" id="DejaVuSans-115"/>
      <path d="M 8.015625 75.875 
L 15.828125 75.875 
Q 23.140625 64.359375 26.78125 53.3125 
Q 30.421875 42.28125 30.421875 31.390625 
Q 30.421875 20.453125 26.78125 9.375 
Q 23.140625 -1.703125 15.828125 -13.1875 
L 8.015625 -13.1875 
Q 14.5 -2 17.703125 9.0625 
Q 20.90625 20.125 20.90625 31.390625 
Q 20.90625 42.671875 17.703125 53.65625 
Q 14.5 64.65625 8.015625 75.875 
z
" id="DejaVuSans-41"/>
     </defs>
     <g transform="translate(346.055 391.796094)scale(0.2 -0.2)">
      <use xlink:href="#DejaVuSans-84"/>
      <use x="61.037109" xlink:href="#DejaVuSans-105"/>
      <use x="88.820312" xlink:href="#DejaVuSans-109"/>
      <use x="186.232422" xlink:href="#DejaVuSans-101"/>
      <use x="247.755859" xlink:href="#DejaVuSans-32"/>
      <use x="279.542969" xlink:href="#DejaVuSans-40"/>
      <use x="318.556641" xlink:href="#DejaVuSans-109"/>
      <use x="415.96875" xlink:href="#DejaVuSans-115"/>
      <use x="468.068359" xlink:href="#DejaVuSans-41"/>
     </g>
    </g>
   </g>
   <g id="matplotlib.axis_2">
    <g id="ytick_1">
     <g id="line2d_7">
      <defs>
       <path d="M 5 0 
L -5 -0 
" id="mafc8fb2e77" style="stroke:#525252;stroke-width:4;"/>
      </defs>
      <g>
       <use style="fill:#525252;stroke:#525252;stroke-width:4;" x="61.96125" xlink:href="#mafc8fb2e77" y="346.678594"/>
      </g>
     </g>
     <g id="text_8">
      <!-- 0 -->
      <g transform="translate(42.00875 353.517187)scale(0.18 -0.18)">
       <use xlink:href="#DejaVuSans-48"/>
      </g>
     </g>
    </g>
    <g id="ytick_2">
     <g id="line2d_8">
      <g>
       <use style="fill:#525252;stroke:#525252;stroke-width:4;" x="61.96125" xlink:href="#mafc8fb2e77" y="291.238594"/>
      </g>
     </g>
     <g id="text_9">
      <!-- 5 -->
      <g transform="translate(42.00875 298.077187)scale(0.18 -0.18)">
       <use xlink:href="#DejaVuSans-53"/>
      </g>
     </g>
    </g>
    <g id="ytick_3">
     <g id="line2d_9">
      <g>
       <use style="fill:#525252;stroke:#525252;stroke-width:4;" x="61.96125" xlink:href="#mafc8fb2e77" y="235.798594"/>
      </g>
     </g>
     <g id="text_10">
      <!-- 10 -->
      <g transform="translate(30.55625 242.637187)scale(0.18 -0.18)">
       <use xlink:href="#DejaVuSans-49"/>
       <use x="63.623047" xlink:href="#DejaVuSans-48"/>
      </g>
     </g>
    </g>
    <g id="ytick_4">
     <g id="line2d_10">
      <g>
       <use style="fill:#525252;stroke:#525252;stroke-width:4;" x="61.96125" xlink:href="#mafc8fb2e77" y="180.358594"/>
      </g>
     </g>
     <g id="text_11">
      <!-- 15 -->
      <g transform="translate(30.55625 187.197187)scale(0.18 -0.18)">
       <use xlink:href="#DejaVuSans-49"/>
       <use x="63.623047" xlink:href="#DejaVuSans-53"/>
      </g>
     </g>
    </g>
    <g id="ytick_5">
     <g id="line2d_11">
      <g>
       <use style="fill:#525252;stroke:#525252;stroke-width:4;" x="61.96125" xlink:href="#mafc8fb2e77" y="124.918594"/>
      </g>
     </g>
     <g id="text_12">
      <!-- 20 -->
      <g transform="translate(30.55625 131.757187)scale(0.18 -0.18)">
       <use xlink:href="#DejaVuSans-50"/>
       <use x="63.623047" xlink:href="#DejaVuSans-48"/>
      </g>
     </g>
    </g>
    <g id="ytick_6">
     <g id="line2d_12">
      <g>
       <use style="fill:#525252;stroke:#525252;stroke-width:4;" x="61.96125" xlink:href="#mafc8fb2e77" y="69.478594"/>
      </g>
     </g>
     <g id="text_13">
      <!-- 25 -->
      <g transform="translate(30.55625 76.317187)scale(0.18 -0.18)">
       <use xlink:href="#DejaVuSans-50"/>
       <use x="63.623047" xlink:href="#DejaVuSans-53"/>
      </g>
     </g>
    </g>
    <g id="ytick_7">
     <g id="line2d_13">
      <g>
       <use style="fill:#525252;stroke:#525252;stroke-width:4;" x="61.96125" xlink:href="#mafc8fb2e77" y="14.038594"/>
      </g>
     </g>
     <g id="text_14">
      <!-- 30 -->
      <g transform="translate(30.55625 20.877187)scale(0.18 -0.18)">
       <use xlink:href="#DejaVuSans-51"/>
       <use x="63.623047" xlink:href="#DejaVuSans-48"/>
      </g>
     </g>
    </g>
    <g id="text_15">
     <!-- Acceleration Magnitude -->
     <defs>
      <path d="M 34.1875 63.1875 
L 20.796875 26.90625 
L 47.609375 26.90625 
z
M 28.609375 72.90625 
L 39.796875 72.90625 
L 67.578125 0 
L 57.328125 0 
L 50.6875 18.703125 
L 17.828125 18.703125 
L 11.1875 0 
L 0.78125 0 
z
" id="DejaVuSans-65"/>
      <path d="M 48.78125 52.59375 
L 48.78125 44.1875 
Q 44.96875 46.296875 41.140625 47.34375 
Q 37.3125 48.390625 33.40625 48.390625 
Q 24.65625 48.390625 19.8125 42.84375 
Q 14.984375 37.3125 14.984375 27.296875 
Q 14.984375 17.28125 19.8125 11.734375 
Q 24.65625 6.203125 33.40625 6.203125 
Q 37.3125 6.203125 41.140625 7.25 
Q 44.96875 8.296875 48.78125 10.40625 
L 48.78125 2.09375 
Q 45.015625 0.34375 40.984375 -0.53125 
Q 36.96875 -1.421875 32.421875 -1.421875 
Q 20.0625 -1.421875 12.78125 6.34375 
Q 5.515625 14.109375 5.515625 27.296875 
Q 5.515625 40.671875 12.859375 48.328125 
Q 20.21875 56 33.015625 56 
Q 37.15625 56 41.109375 55.140625 
Q 45.0625 54.296875 48.78125 52.59375 
z
" id="DejaVuSans-99"/>
      <path d="M 9.421875 75.984375 
L 18.40625 75.984375 
L 18.40625 0 
L 9.421875 0 
z
" id="DejaVuSans-108"/>
      <path d="M 41.109375 46.296875 
Q 39.59375 47.171875 37.8125 47.578125 
Q 36.03125 48 33.890625 48 
Q 26.265625 48 22.1875 43.046875 
Q 18.109375 38.09375 18.109375 28.8125 
L 18.109375 0 
L 9.078125 0 
L 9.078125 54.6875 
L 18.109375 54.6875 
L 18.109375 46.1875 
Q 20.953125 51.171875 25.484375 53.578125 
Q 30.03125 56 36.53125 56 
Q 37.453125 56 38.578125 55.875 
Q 39.703125 55.765625 41.0625 55.515625 
z
" id="DejaVuSans-114"/>
      <path d="M 34.28125 27.484375 
Q 23.390625 27.484375 19.1875 25 
Q 14.984375 22.515625 14.984375 16.5 
Q 14.984375 11.71875 18.140625 8.90625 
Q 21.296875 6.109375 26.703125 6.109375 
Q 34.1875 6.109375 38.703125 11.40625 
Q 43.21875 16.703125 43.21875 25.484375 
L 43.21875 27.484375 
z
M 52.203125 31.203125 
L 52.203125 0 
L 43.21875 0 
L 43.21875 8.296875 
Q 40.140625 3.328125 35.546875 0.953125 
Q 30.953125 -1.421875 24.3125 -1.421875 
Q 15.921875 -1.421875 10.953125 3.296875 
Q 6 8.015625 6 15.921875 
Q 6 25.140625 12.171875 29.828125 
Q 18.359375 34.515625 30.609375 34.515625 
L 43.21875 34.515625 
L 43.21875 35.40625 
Q 43.21875 41.609375 39.140625 45 
Q 35.0625 48.390625 27.6875 48.390625 
Q 23 48.390625 18.546875 47.265625 
Q 14.109375 46.140625 10.015625 43.890625 
L 10.015625 52.203125 
Q 14.9375 54.109375 19.578125 55.046875 
Q 24.21875 56 28.609375 56 
Q 40.484375 56 46.34375 49.84375 
Q 52.203125 43.703125 52.203125 31.203125 
z
" id="DejaVuSans-97"/>
      <path d="M 18.3125 70.21875 
L 18.3125 54.6875 
L 36.8125 54.6875 
L 36.8125 47.703125 
L 18.3125 47.703125 
L 18.3125 18.015625 
Q 18.3125 11.328125 20.140625 9.421875 
Q 21.96875 7.515625 27.59375 7.515625 
L 36.8125 7.515625 
L 36.8125 0 
L 27.59375 0 
Q 17.1875 0 13.234375 3.875 
Q 9.28125 7.765625 9.28125 18.015625 
L 9.28125 47.703125 
L 2.6875 47.703125 
L 2.6875 54.6875 
L 9.28125 54.6875 
L 9.28125 70.21875 
z
" id="DejaVuSans-116"/>
      <path d="M 30.609375 48.390625 
Q 23.390625 48.390625 19.1875 42.75 
Q 14.984375 37.109375 14.984375 27.296875 
Q 14.984375 17.484375 19.15625 11.84375 
Q 23.34375 6.203125 30.609375 6.203125 
Q 37.796875 6.203125 41.984375 11.859375 
Q 46.1875 17.53125 46.1875 27.296875 
Q 46.1875 37.015625 41.984375 42.703125 
Q 37.796875 48.390625 30.609375 48.390625 
z
M 30.609375 56 
Q 42.328125 56 49.015625 48.375 
Q 55.71875 40.765625 55.71875 27.296875 
Q 55.71875 13.875 49.015625 6.21875 
Q 42.328125 -1.421875 30.609375 -1.421875 
Q 18.84375 -1.421875 12.171875 6.21875 
Q 5.515625 13.875 5.515625 27.296875 
Q 5.515625 40.765625 12.171875 48.375 
Q 18.84375 56 30.609375 56 
z
" id="DejaVuSans-111"/>
      <path d="M 54.890625 33.015625 
L 54.890625 0 
L 45.90625 0 
L 45.90625 32.71875 
Q 45.90625 40.484375 42.875 44.328125 
Q 39.84375 48.1875 33.796875 48.1875 
Q 26.515625 48.1875 22.3125 43.546875 
Q 18.109375 38.921875 18.109375 30.90625 
L 18.109375 0 
L 9.078125 0 
L 9.078125 54.6875 
L 18.109375 54.6875 
L 18.109375 46.1875 
Q 21.34375 51.125 25.703125 53.5625 
Q 30.078125 56 35.796875 56 
Q 45.21875 56 50.046875 50.171875 
Q 54.890625 44.34375 54.890625 33.015625 
z
" id="DejaVuSans-110"/>
      <path d="M 9.8125 72.90625 
L 24.515625 72.90625 
L 43.109375 23.296875 
L 61.8125 72.90625 
L 76.515625 72.90625 
L 76.515625 0 
L 66.890625 0 
L 66.890625 64.015625 
L 48.09375 14.015625 
L 38.1875 14.015625 
L 19.390625 64.015625 
L 19.390625 0 
L 9.8125 0 
z
" id="DejaVuSans-77"/>
      <path d="M 45.40625 27.984375 
Q 45.40625 37.75 41.375 43.109375 
Q 37.359375 48.484375 30.078125 48.484375 
Q 22.859375 48.484375 18.828125 43.109375 
Q 14.796875 37.75 14.796875 27.984375 
Q 14.796875 18.265625 18.828125 12.890625 
Q 22.859375 7.515625 30.078125 7.515625 
Q 37.359375 7.515625 41.375 12.890625 
Q 45.40625 18.265625 45.40625 27.984375 
z
M 54.390625 6.78125 
Q 54.390625 -7.171875 48.1875 -13.984375 
Q 42 -20.796875 29.203125 -20.796875 
Q 24.46875 -20.796875 20.265625 -20.09375 
Q 16.0625 -19.390625 12.109375 -17.921875 
L 12.109375 -9.1875 
Q 16.0625 -11.328125 19.921875 -12.34375 
Q 23.78125 -13.375 27.78125 -13.375 
Q 36.625 -13.375 41.015625 -8.765625 
Q 45.40625 -4.15625 45.40625 5.171875 
L 45.40625 9.625 
Q 42.625 4.78125 38.28125 2.390625 
Q 33.9375 0 27.875 0 
Q 17.828125 0 11.671875 7.65625 
Q 5.515625 15.328125 5.515625 27.984375 
Q 5.515625 40.671875 11.671875 48.328125 
Q 17.828125 56 27.875 56 
Q 33.9375 56 38.28125 53.609375 
Q 42.625 51.21875 45.40625 46.390625 
L 45.40625 54.6875 
L 54.390625 54.6875 
z
" id="DejaVuSans-103"/>
      <path d="M 8.5 21.578125 
L 8.5 54.6875 
L 17.484375 54.6875 
L 17.484375 21.921875 
Q 17.484375 14.15625 20.5 10.265625 
Q 23.53125 6.390625 29.59375 6.390625 
Q 36.859375 6.390625 41.078125 11.03125 
Q 45.3125 15.671875 45.3125 23.6875 
L 45.3125 54.6875 
L 54.296875 54.6875 
L 54.296875 0 
L 45.3125 0 
L 45.3125 8.40625 
Q 42.046875 3.421875 37.71875 1 
Q 33.40625 -1.421875 27.6875 -1.421875 
Q 18.265625 -1.421875 13.375 4.4375 
Q 8.5 10.296875 8.5 21.578125 
z
M 31.109375 56 
z
" id="DejaVuSans-117"/>
      <path d="M 45.40625 46.390625 
L 45.40625 75.984375 
L 54.390625 75.984375 
L 54.390625 0 
L 45.40625 0 
L 45.40625 8.203125 
Q 42.578125 3.328125 38.25 0.953125 
Q 33.9375 -1.421875 27.875 -1.421875 
Q 17.96875 -1.421875 11.734375 6.484375 
Q 5.515625 14.40625 5.515625 27.296875 
Q 5.515625 40.1875 11.734375 48.09375 
Q 17.96875 56 27.875 56 
Q 33.9375 56 38.25 53.625 
Q 42.578125 51.265625 45.40625 46.390625 
z
M 14.796875 27.296875 
Q 14.796875 17.390625 18.875 11.75 
Q 22.953125 6.109375 30.078125 6.109375 
Q 37.203125 6.109375 41.296875 11.75 
Q 45.40625 17.390625 45.40625 27.296875 
Q 45.40625 37.203125 41.296875 42.84375 
Q 37.203125 48.484375 30.078125 48.484375 
Q 22.953125 48.484375 18.875 42.84375 
Q 14.796875 37.203125 14.796875 27.296875 
z
" id="DejaVuSans-100"/>
     </defs>
     <g transform="translate(22.396875 298.830469)rotate(-90)scale(0.2 -0.2)">
      <use xlink:href="#DejaVuSans-65"/>
      <use x="68.392578" xlink:href="#DejaVuSans-99"/>
      <use x="123.373047" xlink:href="#DejaVuSans-99"/>
      <use x="178.353516" xlink:href="#DejaVuSans-101"/>
      <use x="239.876953" xlink:href="#DejaVuSans-108"/>
      <use x="267.660156" xlink:href="#DejaVuSans-101"/>
      <use x="329.183594" xlink:href="#DejaVuSans-114"/>
      <use x="370.296875" xlink:href="#DejaVuSans-97"/>
      <use x="431.576172" xlink:href="#DejaVuSans-116"/>
      <use x="470.785156" xlink:href="#DejaVuSans-105"/>
      <use x="498.568359" xlink:href="#DejaVuSans-111"/>
      <use x="559.75" xlink:href="#DejaVuSans-110"/>
      <use x="623.128906" xlink:href="#DejaVuSans-32"/>
      <use x="654.916016" xlink:href="#DejaVuSans-77"/>
      <use x="741.195312" xlink:href="#DejaVuSans-97"/>
      <use x="802.474609" xlink:href="#DejaVuSans-103"/>
      <use x="865.951172" xlink:href="#DejaVuSans-110"/>
      <use x="929.330078" xlink:href="#DejaVuSans-105"/>
      <use x="957.113281" xlink:href="#DejaVuSans-116"/>
      <use x="996.322266" xlink:href="#DejaVuSans-117"/>
      <use x="1059.701172" xlink:href="#DejaVuSans-100"/>
      <use x="1123.177734" xlink:href="#DejaVuSans-101"/>
     </g>
    </g>
   </g>
   <g id="line2d_14">
    <path clip-path="url(#p2178b46b90)" d="M 92.397614 234.903756 
L 93.079621 239.026353 
L 93.792166 246.957859 
L 94.433457 240.282427 
L 95.115464 235.10163 
L 95.828009 240.566172 
L 96.4693 242.692727 
L 97.151307 251.36826 
L 98.505143 220.303055 
L 99.18715 194.338133 
L 99.899696 224.18111 
L 100.540986 238.331597 
L 101.222994 230.767875 
L 102.576829 253.509745 
L 103.258837 255.999995 
L 103.961203 257.703214 
L 104.612672 247.380985 
L 105.29468 220.18874 
L 106.007225 197.175382 
L 106.648515 247.371195 
L 107.330523 238.809004 
L 108.043068 237.959234 
L 108.684359 248.681194 
L 109.366366 247.518338 
L 110.068732 248.193893 
L 110.720202 243.592185 
L 111.402209 224.073968 
L 112.104575 189.410151 
L 112.756045 214.270039 
L 113.438052 217.295378 
L 114.140418 231.777744 
L 114.791888 256.278055 
L 115.473895 264.056075 
L 116.176261 261.400143 
L 116.827731 247.116968 
L 117.509739 223.794189 
L 118.212104 206.361146 
L 118.863574 234.890299 
L 119.545582 235.972605 
L 120.247948 241.860532 
L 120.899417 243.587172 
L 121.581425 236.941778 
L 122.283791 238.794385 
L 122.93526 235.248068 
L 123.617268 218.863421 
L 124.319634 189.598853 
L 124.971104 215.313854 
L 125.653111 226.678736 
L 126.365656 233.965541 
L 127.006947 250.775725 
L 127.688954 261.599668 
L 128.401499 270.04862 
L 129.04279 257.965877 
L 130.427163 199.39397 
L 131.76064 235.018053 
L 132.463006 246.807534 
L 133.114476 245.053355 
L 133.796484 238.640871 
L 134.498849 238.433233 
L 135.150319 235.268182 
L 135.832327 219.206547 
L 136.534693 193.836121 
L 137.186162 228.314716 
L 137.86817 237.162409 
L 138.570536 239.002812 
L 139.222005 245.056287 
L 139.904013 255.058996 
L 140.606379 263.099909 
L 141.257849 246.136847 
L 141.939856 221.621193 
L 142.652401 202.070282 
L 143.293692 234.569148 
L 143.975699 239.387062 
L 144.678065 241.235522 
L 146.011542 246.39135 
L 146.713908 241.989631 
L 147.365378 236.079977 
L 148.749751 184.069917 
L 149.401221 216.545126 
L 150.083229 217.580379 
L 151.437064 254.417195 
L 152.119072 268.154195 
L 152.821438 268.767068 
L 154.154915 227.888078 
L 154.847101 187.703709 
L 155.50875 231.225153 
L 156.190758 233.632614 
L 156.893124 237.618056 
L 157.544594 240.369051 
L 158.226601 248.82553 
L 158.928967 254.495981 
L 159.580437 239.418634 
L 160.262444 200.457338 
L 160.96481 198.275163 
L 162.298287 234.898233 
L 163.000653 253.069511 
L 163.652123 263.269447 
L 164.33413 265.88676 
L 165.046675 250.636095 
L 165.687966 217.530631 
L 166.369973 203.466316 
L 167.072339 236.789125 
L 167.723809 228.379875 
L 168.405817 238.335396 
L 169.108182 246.519909 
L 169.759652 251.941588 
L 170.44166 253.70519 
L 171.144026 242.771297 
L 171.795495 218.583012 
L 172.477503 169.502771 
L 173.179869 214.518509 
L 173.831339 223.164329 
L 174.513346 242.148698 
L 175.215712 257.229758 
L 175.867182 265.096192 
L 176.549189 262.681463 
L 177.251555 238.082405 
L 177.903025 220.70705 
L 178.585032 209.998302 
L 179.297577 228.252228 
L 179.938868 236.871024 
L 180.620875 252.401815 
L 181.33342 255.413015 
L 181.974711 252.766554 
L 182.656718 240.692525 
L 183.369264 220.291486 
L 184.010554 197.522842 
L 185.394927 220.77619 
L 186.046397 234.245422 
L 186.728405 251.467778 
L 187.430771 261.625571 
L 188.08224 260.992456 
L 188.764248 246.476169 
L 189.476793 227.180675 
L 190.118083 202.76932 
L 190.800091 237.286726 
L 191.502457 237.997029 
L 192.153927 249.999243 
L 192.835934 252.991102 
L 193.548479 249.15401 
L 194.18977 238.864578 
L 194.871777 231.004651 
L 195.584322 219.77159 
L 196.225613 185.587823 
L 196.90762 212.749212 
L 198.261456 238.621765 
L 198.943463 246.254772 
L 199.656009 255.952089 
L 200.297299 250.793868 
L 200.979307 242.098446 
L 201.691852 224.836916 
L 202.333142 214.264946 
L 203.01515 242.373482 
L 203.727695 240.994494 
L 204.368985 246.669884 
L 205.040814 245.632586 
L 206.404828 238.387132 
L 207.086836 222.345948 
L 207.799381 192.587279 
L 208.440672 197.834887 
L 209.122679 237.979122 
L 209.835224 245.804006 
L 210.476515 250.443571 
L 211.158522 259.52072 
L 211.871067 259.927214 
L 212.512358 251.314588 
L 213.90691 192.590262 
L 214.548201 235.432142 
L 215.230208 235.772623 
L 216.584044 258.034082 
L 217.266052 257.617203 
L 217.978597 250.466333 
L 218.619887 238.049608 
L 219.301895 207.698302 
L 220.01444 183.322439 
L 220.65573 223.484666 
L 221.337738 238.191655 
L 222.040104 248.649464 
L 222.701753 261.776879 
L 223.373581 261.951661 
L 224.075947 247.677413 
L 225.409424 202.095725 
L 226.121969 236.340278 
L 226.76326 237.07117 
L 227.445267 240.83173 
L 228.157812 248.598804 
L 228.799103 249.993207 
L 229.48111 248.637163 
L 230.193655 241.961706 
L 230.834946 231.91467 
L 231.516953 223.377177 
L 232.229498 206.665592 
L 232.870789 217.923979 
L 233.552797 243.04748 
L 234.265342 247.160011 
L 234.906632 243.739215 
L 235.58864 271.254531 
L 236.301185 252.711882 
L 236.942475 229.962475 
L 237.624483 199.954592 
L 238.337028 241.65931 
L 238.978318 253.696221 
L 239.660326 241.714777 
L 240.372871 245.659357 
L 241.014162 244.233298 
L 241.696169 244.328639 
L 242.398535 242.09942 
L 243.050005 219.620827 
L 243.732012 213.71594 
L 244.444557 212.63347 
L 245.085848 236.885653 
L 245.767855 250.191668 
L 246.4804 256.183 
L 247.121691 249.291604 
L 247.803698 247.062725 
L 248.516243 230.293305 
L 249.157534 221.87201 
L 249.839541 197.762604 
L 250.552087 251.073571 
L 251.193377 255.524207 
L 251.875385 239.65919 
L 252.58793 258.235335 
L 253.22922 248.899127 
L 253.911228 242.186095 
L 255.265063 206.569759 
L 255.947071 205.279841 
L 256.659616 220.996454 
L 257.300907 242.890627 
L 257.982914 256.294016 
L 258.664921 257.517778 
L 260.018757 246.919079 
L 260.690585 221.515072 
L 261.372593 205.549812 
L 262.0546 240.848364 
L 262.736608 231.100957 
L 263.408436 237.679789 
L 264.090443 251.421908 
L 264.762272 257.331774 
L 265.454458 259.32834 
L 266.126286 242.097865 
L 267.490301 185.413496 
L 268.16213 218.417477 
L 268.844137 240.427307 
L 269.515965 251.578813 
L 270.197973 260.601255 
L 270.87998 256.787586 
L 271.551808 248.294944 
L 272.233816 228.266474 
L 272.905644 202.371215 
L 273.597831 226.318101 
L 274.269659 229.980877 
L 274.951666 247.238099 
L 275.623495 268.536445 
L 276.305502 270.007665 
L 276.97733 251.651755 
L 277.669517 225.981872 
L 278.341345 212.811335 
L 279.013173 190.443043 
L 279.695181 216.466226 
L 281.731024 261.049498 
L 282.413031 265.45044 
L 283.08486 252.859588 
L 283.766867 231.106879 
L 284.448875 214.770396 
L 285.120703 223.980226 
L 285.80271 230.034204 
L 287.156546 252.898051 
L 287.848733 255.433735 
L 288.520561 250.442189 
L 289.192389 242.71399 
L 290.556404 191.146832 
L 291.238411 227.177869 
L 291.91024 238.170639 
L 292.592247 243.826595 
L 293.264075 257.704791 
L 293.956262 260.880122 
L 294.62809 250.318461 
L 295.981926 218.048224 
L 296.663933 192.178106 
L 297.345941 239.064303 
L 298.017769 245.895141 
L 298.699776 249.902758 
L 299.371605 260.783614 
L 300.053612 257.509193 
L 300.73562 253.494375 
L 301.407448 227.425262 
L 302.089455 208.603099 
L 302.771463 195.937343 
L 303.45347 229.528005 
L 304.125298 246.854965 
L 304.807306 252.460211 
L 305.489313 255.42825 
L 306.171321 244.661307 
L 306.843149 229.004595 
L 307.525156 218.376293 
L 308.207164 201.375041 
L 308.878992 236.415216 
L 309.560999 252.102431 
L 310.232828 257.146212 
L 310.914835 254.39539 
L 311.596843 252.134858 
L 312.268671 247.048957 
L 312.950678 235.747226 
L 313.622507 232.026247 
L 314.314693 200.29478 
L 314.986521 231.660891 
L 315.668529 239.16608 
L 316.350536 232.610365 
L 317.022365 250.443465 
L 317.694193 246.387571 
L 318.3762 240.213742 
L 319.058208 246.184125 
L 319.740215 235.093231 
L 320.412043 236.335141 
L 321.094051 199.882285 
L 321.776058 226.058019 
L 322.447886 234.812412 
L 323.129894 247.166949 
L 323.801722 251.53631 
L 324.48373 243.794612 
L 325.165737 230.954663 
L 325.837565 199.968079 
L 326.529752 207.325435 
L 327.20158 238.888194 
L 328.565595 268.056796 
L 329.909251 247.485326 
L 331.273266 215.862108 
L 331.955274 199.984086 
L 332.627102 250.686395 
L 333.309109 237.921215 
L 333.991117 248.781695 
L 334.662945 251.355492 
L 335.344953 252.915861 
L 336.016781 246.671334 
L 337.380796 197.495014 
L 338.052624 221.965866 
L 338.734631 233.981721 
L 339.416639 251.896077 
L 340.088467 257.263221 
L 340.780654 260.95228 
L 341.452482 252.323844 
L 342.806318 203.250411 
L 343.488325 231.864821 
L 344.170333 245.295619 
L 344.85234 241.460769 
L 345.524168 248.167413 
L 346.195996 259.092441 
L 346.888183 261.932531 
L 348.23184 217.094139 
L 348.913847 182.8254 
L 349.595854 221.487087 
L 350.267683 240.117935 
L 350.959869 250.050795 
L 352.303526 261.659203 
L 352.985533 251.429715 
L 353.667541 228.82749 
L 354.339369 214.585639 
L 355.021376 217.700255 
L 357.067399 253.894321 
L 357.739227 260.144824 
L 358.421234 257.668773 
L 359.103242 244.051027 
L 359.77507 215.13636 
L 360.457078 177.035015 
L 361.139085 234.357639 
L 361.810913 237.700802 
L 362.482741 244.813037 
L 363.174928 249.096479 
L 363.846756 260.578524 
L 364.518585 254.136697 
L 365.882599 195.657964 
L 366.554428 226.583896 
L 369.272278 267.893131 
L 369.954286 257.766646 
L 370.626114 235.489715 
L 371.308121 204.461172 
L 371.990129 179.588073 
L 372.661957 217.324734 
L 373.354144 242.103871 
L 374.025972 253.774477 
L 374.6978 261.634563 
L 375.379808 264.197981 
L 376.061815 246.45446 
L 376.733643 221.890366 
L 377.42583 186.516122 
L 378.097658 230.269501 
L 378.769486 236.135374 
L 379.451494 256.133986 
L 380.133501 264.81288 
L 380.815509 260.377231 
L 381.497516 250.037246 
L 382.169344 234.551572 
L 382.841173 193.938319 
L 383.533359 202.92275 
L 384.205188 216.416693 
L 384.877016 244.235352 
L 385.559023 261.076287 
L 386.241031 268.151171 
L 386.912859 259.004364 
L 387.594866 237.887219 
L 388.276874 209.445522 
L 388.958881 191.037124 
L 389.630709 245.621082 
L 390.312717 248.0857 
L 390.984545 255.881864 
L 391.666553 261.206118 
L 392.34856 262.004698 
L 393.020388 247.500583 
L 393.712575 221.904534 
L 394.384403 176.311357 
L 395.056231 212.150561 
L 396.420246 239.38107 
L 397.092075 255.284198 
L 397.774082 265.042071 
L 398.44591 257.223243 
L 399.127918 240.562673 
L 399.809925 228.715203 
L 400.491933 202.031878 
L 401.163761 235.319173 
L 401.845768 240.714161 
L 402.527776 256.289068 
L 403.199604 263.063644 
L 403.881611 260.132877 
L 404.563619 242.007417 
L 405.917454 191.819534 
L 406.599462 203.986805 
L 407.27129 225.582248 
L 409.307133 262.230958 
L 409.989141 260.687012 
L 410.671148 246.766896 
L 411.342976 219.079442 
L 412.024984 180.872605 
L 412.706991 238.341796 
L 413.378819 249.984057 
L 414.060827 258.564373 
L 414.742834 259.980643 
L 415.414663 264.350363 
L 416.09667 238.450177 
L 416.778677 217.847285 
L 417.450506 173.180261 
L 418.142692 205.145436 
L 419.486349 246.351307 
L 420.168356 265.323528 
L 420.850364 273.326605 
L 421.522192 265.56047 
L 422.204199 233.307691 
L 423.558035 194.496007 
L 424.250222 227.558105 
L 424.92205 245.135294 
L 425.593878 259.122211 
L 426.286065 263.401055 
L 426.957893 259.939277 
L 427.629721 239.569777 
L 428.993736 178.45245 
L 429.665564 208.258635 
L 430.347572 228.184058 
L 431.029579 239.919097 
L 431.701408 265.571163 
L 432.383415 275.625104 
L 433.065422 262.192652 
L 434.429437 204.850387 
L 435.101266 221.82064 
L 435.773094 228.615991 
L 436.455101 246.585302 
L 437.137109 255.801664 
L 437.808937 254.191433 
L 438.490944 254.743346 
L 440.526788 175.448221 
L 441.208795 229.313059 
L 441.880623 245.361321 
L 442.57281 256.217351 
L 443.244638 260.359373 
L 443.916466 258.462966 
L 445.280481 221.226653 
L 445.952309 189.942953 
L 446.634317 237.342438 
L 447.316324 247.75027 
L 447.988153 265.701425 
L 448.680339 258.22771 
L 450.023996 223.797685 
L 450.706003 222.811647 
L 451.388011 200.341235 
L 452.741846 248.982876 
L 453.423854 256.709487 
L 454.095682 260.272192 
L 454.787869 258.016842 
L 455.459697 250.848398 
L 456.131525 218.86347 
L 456.813532 195.608202 
L 457.49554 221.344154 
L 458.859555 253.73258 
L 459.531383 260.390324 
L 460.203211 257.020761 
L 460.885219 254.973606 
L 461.567226 237.561177 
L 462.239054 212.197014 
L 462.921062 182.008812 
L 463.603069 213.577823 
L 464.274898 232.712612 
L 464.956905 247.394265 
L 465.638912 258.792479 
L 466.310741 261.772582 
L 467.002927 249.373965 
L 467.674756 230.221998 
L 468.346584 204.670831 
L 469.03877 226.300353 
L 469.710599 234.75574 
L 470.382427 255.111732 
L 471.074614 261.142475 
L 471.746442 261.497149 
L 472.41827 247.020007 
L 473.782285 186.001875 
L 474.454113 196.424774 
L 475.136121 225.69838 
L 475.818128 245.054626 
L 476.489956 255.253907 
L 477.171964 263.276202 
L 477.853971 259.787128 
L 479.207807 194.833439 
L 479.889814 230.96849 
L 480.561643 240.873767 
L 481.24365 248.825337 
L 481.925657 260.05456 
L 482.597486 267.230965 
L 483.289672 249.049292 
L 483.961501 227.877042 
L 484.633329 193.823509 
L 485.325515 166.71233 
L 485.997344 221.812066 
L 486.669172 248.588267 
L 487.361359 264.141441 
L 488.033187 256.801103 
L 488.705015 251.464193 
L 489.387022 243.771365 
L 490.06903 219.83273 
L 490.740858 207.089431 
L 491.422866 232.125137 
L 492.104873 246.634014 
L 492.776701 249.540336 
L 493.468888 263.336661 
L 494.140716 251.090568 
L 494.812544 223.911364 
L 495.504731 211.890245 
L 496.176559 185.487817 
L 496.848387 210.654958 
L 497.530395 218.697676 
L 498.212402 243.426534 
L 498.884231 252.680263 
L 500.248246 260.239157 
L 500.920074 246.509255 
L 502.284089 206.233678 
L 502.955917 236.832207 
L 503.637924 236.881208 
L 504.319932 250.937061 
L 504.99176 249.676491 
L 505.683947 249.279059 
L 506.355775 234.327206 
L 507.027603 213.334741 
L 507.71979 202.310936 
L 508.391618 210.213564 
L 509.063446 205.739827 
L 509.745454 235.945137 
L 510.427461 248.217901 
L 511.099289 263.734411 
L 511.791476 265.265316 
L 512.463304 253.699153 
L 513.81714 197.635601 
L 514.499147 238.686727 
L 515.170976 229.106638 
L 516.53499 258.478988 
L 517.206819 249.656627 
L 517.888826 244.397866 
L 519.242662 193.879551 
L 519.934848 182.980324 
L 520.606677 229.980878 
L 521.278505 227.218461 
L 521.960512 250.766573 
L 522.64252 261.094697 
L 523.314348 264.396938 
L 524.006535 247.192423 
L 525.350191 194.724693 
L 526.032199 250.505851 
L 526.714206 239.168713 
L 527.386034 249.518335 
L 528.068042 255.641169 
L 530.114064 217.330718 
L 530.785892 169.09561 
L 531.457721 212.995622 
L 532.149907 234.25816 
L 532.821735 241.437529 
L 533.493564 255.374177 
L 534.18575 261.54042 
L 534.857579 259.464671 
L 535.529407 246.73692 
L 536.221593 224.017103 
L 536.893422 182.081189 
L 537.575429 244.741582 
L 538.257437 240.287662 
L 538.929265 255.937552 
L 539.601093 256.015218 
L 540.283101 244.992397 
L 541.636936 214.067453 
L 542.318944 178.74701 
L 543.000951 214.140277 
L 543.672779 238.924989 
L 544.354787 247.27261 
L 545.036794 264.77435 
L 545.718802 262.529621 
L 546.39063 253.068332 
L 547.744466 199.332972 
L 548.426473 227.465983 
L 549.098301 242.927198 
L 550.462316 262.374112 
L 551.134144 248.847929 
L 551.816152 245.259418 
L 552.498159 228.616899 
L 553.180167 206.737928 
L 553.851995 177.129365 
L 554.534002 221.932797 
L 555.21601 231.924923 
L 556.569845 261.245246 
L 557.251853 259.990507 
L 557.923681 260.541319 
L 558.605689 227.29615 
L 559.287696 212.742015 
L 559.959524 235.185463 
L 560.641532 219.609473 
L 561.323539 234.876212 
L 561.995367 257.352153 
L 562.677375 261.049994 
L 563.359382 255.014891 
L 565.395225 188.318955 
L 566.067054 219.785595 
L 566.75924 227.110626 
L 568.102897 256.135102 
L 568.784904 261.628205 
L 569.466912 268.507239 
L 570.13874 242.018219 
L 570.830927 222.226989 
L 571.502755 180.151006 
L 572.174583 241.183443 
L 572.85659 243.071415 
L 573.538598 255.754204 
L 574.210426 251.450476 
L 574.902613 251.257214 
L 575.574441 250.12941 
L 576.246269 234.502975 
L 576.928277 185.58488 
L 577.610284 190.799866 
L 578.282112 204.561831 
L 578.96412 246.644742 
L 580.317955 265.027781 
L 580.999963 261.799682 
L 581.68197 244.503064 
L 582.353799 223.347092 
L 583.035806 191.423503 
L 583.707634 232.224719 
L 584.389642 240.292185 
L 585.071649 262.366414 
L 585.753657 264.763196 
L 586.425485 257.220101 
L 587.117672 238.486962 
L 587.7895 225.53389 
L 588.461328 202.885454 
L 589.143335 208.188814 
L 589.825343 200.05732 
L 590.497171 238.466489 
L 591.179179 253.595445 
L 591.861186 261.184555 
L 592.533014 264.442631 
L 593.215022 258.924592 
L 594.568857 203.121073 
L 595.250865 232.639179 
L 595.932872 225.002313 
L 596.6047 246.907907 
L 597.296887 260.915925 
L 597.968715 251.76109 
L 598.640544 250.517904 
L 600.004558 219.138592 
L 600.676387 171.549953 
L 601.358394 217.339721 
L 602.71223 235.266378 
L 603.394237 263.193792 
L 604.076245 271.065918 
L 604.748073 271.91302 
L 606.783916 188.81326 
L 607.476103 228.681856 
L 608.147931 233.215421 
L 608.819759 251.473498 
L 609.511946 261.613369 
L 610.183774 254.952744 
L 610.855602 249.794503 
L 611.53761 233.977476 
L 612.219617 203.444476 
L 612.891445 190.661801 
L 613.573453 218.106584 
L 614.25546 234.116337 
L 614.927289 257.195764 
L 615.619475 267.023054 
L 616.291303 268.752686 
L 616.963132 250.90215 
L 617.645139 213.788095 
L 618.327147 187.018544 
L 618.998975 237.284387 
L 619.680982 238.984008 
L 620.36299 252.198962 
L 621.034818 259.450657 
L 621.727005 261.624607 
L 622.398833 251.717497 
L 623.070661 228.363137 
L 624.434676 176.871 
L 625.106504 221.937774 
L 625.798691 233.599536 
L 626.470519 258.212777 
L 627.142347 267.128775 
L 627.834534 266.917506 
L 628.506362 262.89783 
L 629.18837 222.239879 
L 629.870377 198.001458 
L 630.542205 224.742365 
L 631.214034 242.004869 
L 631.896041 243.195078 
L 632.578048 261.102618 
L 633.249877 263.530592 
L 633.931884 261.768192 
L 634.613892 232.938936 
L 635.28572 211.200519 
L 635.967727 175.516603 
L 636.649735 215.849047 
L 637.321563 228.157761 
L 638.685578 261.672378 
L 639.357406 265.683404 
L 640.039413 265.028576 
L 640.721421 233.039732 
L 641.393249 213.791083 
L 642.075257 202.741735 
L 642.757264 248.485317 
L 643.439271 237.682134 
L 644.793107 268.372092 
L 645.464935 258.503508 
L 646.146943 252.543236 
L 646.82895 229.739253 
L 648.182786 179.882674 
L 648.864793 218.231726 
L 649.536622 232.127492 
L 650.218629 249.579739 
L 650.900637 257.311348 
L 651.572465 256.818153 
L 652.264651 256.545893 
L 652.93648 236.205102 
L 653.608308 223.027819 
L 654.300495 218.081309 
L 654.972323 235.367109 
L 655.644151 239.116813 
L 656.326158 250.546328 
L 657.008166 249.939846 
L 657.679994 252.575693 
L 658.362002 243.775663 
L 659.044009 232.166513 
L 659.715837 212.382739 
L 660.408024 198.155611 
L 661.079852 211.335708 
L 661.75168 233.000819 
L 662.443867 247.611182 
L 663.115695 254.480962 
L 663.787524 257.037873 
L 664.47971 267.066425 
L 665.151538 241.951382 
L 665.823367 233.865132 
L 666.515553 189.519995 
L 667.177202 235.039381 
L 667.85921 234.823435 
L 668.551396 252.805886 
L 669.223225 259.244072 
L 669.905232 246.621758 
L 671.259068 237.562185 
L 671.930896 221.494305 
L 672.623083 225.999689 
L 673.294911 199.050771 
L 673.966739 223.586827 
L 674.658926 222.044037 
L 675.330754 249.491179 
L 676.002582 253.4685 
L 676.694769 253.190314 
L 677.366597 245.784068 
L 678.038425 236.496322 
L 678.730612 221.785983 
L 679.40244 240.635782 
L 680.074268 243.147594 
L 680.766455 237.94611 
L 681.438283 238.264688 
L 682.110112 242.850686 
L 682.802298 246.795835 
L 683.474126 236.301026 
L 684.827962 223.220281 
L 685.50997 230.205885 
L 686.181798 233.569996 
L 686.863805 229.510168 
L 687.545813 233.099341 
L 688.217641 230.13169 
L 688.909828 234.860727 
L 689.581656 236.871199 
L 690.253484 242.741642 
L 690.935492 244.968836 
L 691.617499 246.682 
L 692.289327 243.436931 
L 692.981514 243.243321 
L 693.653342 241.432566 
L 694.32517 232.617692 
L 695.007178 230.694959 
L 695.689185 230.531168 
L 696.361013 232.180095 
L 697.725028 237.061251 
L 698.396857 238.070817 
L 699.089043 238.546906 
L 699.760871 241.28654 
L 700.4327 240.96575 
L 701.124886 238.854683 
L 701.124886 238.854683 
" style="fill:none;stroke:#1f77b4;stroke-linecap:square;stroke-width:1.5;"/>
   </g>
  </g>
 </g>
 <defs>
  <clipPath id="p2178b46b90">
   <rect height="332.64" width="669.6" x="61.96125" y="14.038594"/>
  </clipPath>
 </defs>
</svg>
