<?xml version="1.0" encoding="utf-8" standalone="no"?>
<!DOCTYPE svg PUBLIC "-//W3C//DTD SVG 1.1//EN"
  "http://www.w3.org/Graphics/SVG/1.1/DTD/svg11.dtd">
<!-- Created with matplotlib (https://matplotlib.org/) -->
<svg height="403.155469pt" version="1.1" viewBox="0 0 760.213596 403.155469" width="760.213596pt" xmlns="http://www.w3.org/2000/svg" xmlns:xlink="http://www.w3.org/1999/xlink">
 <defs>
  <style type="text/css">
*{stroke-linecap:butt;stroke-linejoin:round;}
  </style>
 </defs>
 <g id="figure_1">
  <g id="patch_1">
   <path d="M 0 403.155469 
L 760.213596 403.155469 
L 760.213596 0 
L 0 0 
z
" style="fill:#ffffff;"/>
  </g>
  <g id="axes_1">
   <g id="patch_2">
    <path d="M 61.96125 346.678594 
L 731.56125 346.678594 
L 731.56125 14.038594 
L 61.96125 14.038594 
z
" style="fill:#ffffff;"/>
   </g>
   <g id="matplotlib.axis_1">
    <g id="xtick_1">
     <g id="line2d_1">
      <defs>
       <path d="M 0 5 
L 0 -5 
" id="mace720e320" style="stroke:#525252;stroke-width:4;"/>
      </defs>
      <g>
       <use style="fill:#525252;stroke:#525252;stroke-width:4;" x="116.344183" xlink:href="#mace720e320" y="346.678594"/>
      </g>
     </g>
     <g id="text_1">
      <!-- 10000 -->
      <defs>
       <path d="M 12.40625 8.296875 
L 28.515625 8.296875 
L 28.515625 63.921875 
L 10.984375 60.40625 
L 10.984375 69.390625 
L 28.421875 72.90625 
L 38.28125 72.90625 
L 38.28125 8.296875 
L 54.390625 8.296875 
L 54.390625 0 
L 12.40625 0 
z
" id="DejaVuSans-49"/>
       <path d="M 31.78125 66.40625 
Q 24.171875 66.40625 20.328125 58.90625 
Q 16.5 51.421875 16.5 36.375 
Q 16.5 21.390625 20.328125 13.890625 
Q 24.171875 6.390625 31.78125 6.390625 
Q 39.453125 6.390625 43.28125 13.890625 
Q 47.125 21.390625 47.125 36.375 
Q 47.125 51.421875 43.28125 58.90625 
Q 39.453125 66.40625 31.78125 66.40625 
z
M 31.78125 74.21875 
Q 44.046875 74.21875 50.515625 64.515625 
Q 56.984375 54.828125 56.984375 36.375 
Q 56.984375 17.96875 50.515625 8.265625 
Q 44.046875 -1.421875 31.78125 -1.421875 
Q 19.53125 -1.421875 13.0625 8.265625 
Q 6.59375 17.96875 6.59375 36.375 
Q 6.59375 54.828125 13.0625 64.515625 
Q 19.53125 74.21875 31.78125 74.21875 
z
" id="DejaVuSans-48"/>
      </defs>
      <g transform="translate(87.712933 368.855781)scale(0.18 -0.18)">
       <use xlink:href="#DejaVuSans-49"/>
       <use x="63.623047" xlink:href="#DejaVuSans-48"/>
       <use x="127.246094" xlink:href="#DejaVuSans-48"/>
       <use x="190.869141" xlink:href="#DejaVuSans-48"/>
       <use x="254.492188" xlink:href="#DejaVuSans-48"/>
      </g>
     </g>
    </g>
    <g id="xtick_2">
     <g id="line2d_2">
      <g>
       <use style="fill:#525252;stroke:#525252;stroke-width:4;" x="217.683877" xlink:href="#mace720e320" y="346.678594"/>
      </g>
     </g>
     <g id="text_2">
      <!-- 20000 -->
      <defs>
       <path d="M 19.1875 8.296875 
L 53.609375 8.296875 
L 53.609375 0 
L 7.328125 0 
L 7.328125 8.296875 
Q 12.9375 14.109375 22.625 23.890625 
Q 32.328125 33.6875 34.8125 36.53125 
Q 39.546875 41.84375 41.421875 45.53125 
Q 43.3125 49.21875 43.3125 52.78125 
Q 43.3125 58.59375 39.234375 62.25 
Q 35.15625 65.921875 28.609375 65.921875 
Q 23.96875 65.921875 18.8125 64.3125 
Q 13.671875 62.703125 7.8125 59.421875 
L 7.8125 69.390625 
Q 13.765625 71.78125 18.9375 73 
Q 24.125 74.21875 28.421875 74.21875 
Q 39.75 74.21875 46.484375 68.546875 
Q 53.21875 62.890625 53.21875 53.421875 
Q 53.21875 48.921875 51.53125 44.890625 
Q 49.859375 40.875 45.40625 35.40625 
Q 44.1875 33.984375 37.640625 27.21875 
Q 31.109375 20.453125 19.1875 8.296875 
z
" id="DejaVuSans-50"/>
      </defs>
      <g transform="translate(189.052627 368.855781)scale(0.18 -0.18)">
       <use xlink:href="#DejaVuSans-50"/>
       <use x="63.623047" xlink:href="#DejaVuSans-48"/>
       <use x="127.246094" xlink:href="#DejaVuSans-48"/>
       <use x="190.869141" xlink:href="#DejaVuSans-48"/>
       <use x="254.492188" xlink:href="#DejaVuSans-48"/>
      </g>
     </g>
    </g>
    <g id="xtick_3">
     <g id="line2d_3">
      <g>
       <use style="fill:#525252;stroke:#525252;stroke-width:4;" x="319.023571" xlink:href="#mace720e320" y="346.678594"/>
      </g>
     </g>
     <g id="text_3">
      <!-- 30000 -->
      <defs>
       <path d="M 40.578125 39.3125 
Q 47.65625 37.796875 51.625 33 
Q 55.609375 28.21875 55.609375 21.1875 
Q 55.609375 10.40625 48.1875 4.484375 
Q 40.765625 -1.421875 27.09375 -1.421875 
Q 22.515625 -1.421875 17.65625 -0.515625 
Q 12.796875 0.390625 7.625 2.203125 
L 7.625 11.71875 
Q 11.71875 9.328125 16.59375 8.109375 
Q 21.484375 6.890625 26.8125 6.890625 
Q 36.078125 6.890625 40.9375 10.546875 
Q 45.796875 14.203125 45.796875 21.1875 
Q 45.796875 27.640625 41.28125 31.265625 
Q 36.765625 34.90625 28.71875 34.90625 
L 20.21875 34.90625 
L 20.21875 43.015625 
L 29.109375 43.015625 
Q 36.375 43.015625 40.234375 45.921875 
Q 44.09375 48.828125 44.09375 54.296875 
Q 44.09375 59.90625 40.109375 62.90625 
Q 36.140625 65.921875 28.71875 65.921875 
Q 24.65625 65.921875 20.015625 65.03125 
Q 15.375 64.15625 9.8125 62.3125 
L 9.8125 71.09375 
Q 15.4375 72.65625 20.34375 73.4375 
Q 25.25 74.21875 29.59375 74.21875 
Q 40.828125 74.21875 47.359375 69.109375 
Q 53.90625 64.015625 53.90625 55.328125 
Q 53.90625 49.265625 50.4375 45.09375 
Q 46.96875 40.921875 40.578125 39.3125 
z
" id="DejaVuSans-51"/>
      </defs>
      <g transform="translate(290.392321 368.855781)scale(0.18 -0.18)">
       <use xlink:href="#DejaVuSans-51"/>
       <use x="63.623047" xlink:href="#DejaVuSans-48"/>
       <use x="127.246094" xlink:href="#DejaVuSans-48"/>
       <use x="190.869141" xlink:href="#DejaVuSans-48"/>
       <use x="254.492188" xlink:href="#DejaVuSans-48"/>
      </g>
     </g>
    </g>
    <g id="xtick_4">
     <g id="line2d_4">
      <g>
       <use style="fill:#525252;stroke:#525252;stroke-width:4;" x="420.363265" xlink:href="#mace720e320" y="346.678594"/>
      </g>
     </g>
     <g id="text_4">
      <!-- 40000 -->
      <defs>
       <path d="M 37.796875 64.3125 
L 12.890625 25.390625 
L 37.796875 25.390625 
z
M 35.203125 72.90625 
L 47.609375 72.90625 
L 47.609375 25.390625 
L 58.015625 25.390625 
L 58.015625 17.1875 
L 47.609375 17.1875 
L 47.609375 0 
L 37.796875 0 
L 37.796875 17.1875 
L 4.890625 17.1875 
L 4.890625 26.703125 
z
" id="DejaVuSans-52"/>
      </defs>
      <g transform="translate(391.732015 368.855781)scale(0.18 -0.18)">
       <use xlink:href="#DejaVuSans-52"/>
       <use x="63.623047" xlink:href="#DejaVuSans-48"/>
       <use x="127.246094" xlink:href="#DejaVuSans-48"/>
       <use x="190.869141" xlink:href="#DejaVuSans-48"/>
       <use x="254.492188" xlink:href="#DejaVuSans-48"/>
      </g>
     </g>
    </g>
    <g id="xtick_5">
     <g id="line2d_5">
      <g>
       <use style="fill:#525252;stroke:#525252;stroke-width:4;" x="521.702958" xlink:href="#mace720e320" y="346.678594"/>
      </g>
     </g>
     <g id="text_5">
      <!-- 50000 -->
      <defs>
       <path d="M 10.796875 72.90625 
L 49.515625 72.90625 
L 49.515625 64.59375 
L 19.828125 64.59375 
L 19.828125 46.734375 
Q 21.96875 47.46875 24.109375 47.828125 
Q 26.265625 48.1875 28.421875 48.1875 
Q 40.625 48.1875 47.75 41.5 
Q 54.890625 34.8125 54.890625 23.390625 
Q 54.890625 11.625 47.5625 5.09375 
Q 40.234375 -1.421875 26.90625 -1.421875 
Q 22.3125 -1.421875 17.546875 -0.640625 
Q 12.796875 0.140625 7.71875 1.703125 
L 7.71875 11.625 
Q 12.109375 9.234375 16.796875 8.0625 
Q 21.484375 6.890625 26.703125 6.890625 
Q 35.15625 6.890625 40.078125 11.328125 
Q 45.015625 15.765625 45.015625 23.390625 
Q 45.015625 31 40.078125 35.4375 
Q 35.15625 39.890625 26.703125 39.890625 
Q 22.75 39.890625 18.8125 39.015625 
Q 14.890625 38.140625 10.796875 36.28125 
z
" id="DejaVuSans-53"/>
      </defs>
      <g transform="translate(493.071708 368.855781)scale(0.18 -0.18)">
       <use xlink:href="#DejaVuSans-53"/>
       <use x="63.623047" xlink:href="#DejaVuSans-48"/>
       <use x="127.246094" xlink:href="#DejaVuSans-48"/>
       <use x="190.869141" xlink:href="#DejaVuSans-48"/>
       <use x="254.492188" xlink:href="#DejaVuSans-48"/>
      </g>
     </g>
    </g>
    <g id="xtick_6">
     <g id="line2d_6">
      <g>
       <use style="fill:#525252;stroke:#525252;stroke-width:4;" x="623.042652" xlink:href="#mace720e320" y="346.678594"/>
      </g>
     </g>
     <g id="text_6">
      <!-- 60000 -->
      <defs>
       <path d="M 33.015625 40.375 
Q 26.375 40.375 22.484375 35.828125 
Q 18.609375 31.296875 18.609375 23.390625 
Q 18.609375 15.53125 22.484375 10.953125 
Q 26.375 6.390625 33.015625 6.390625 
Q 39.65625 6.390625 43.53125 10.953125 
Q 47.40625 15.53125 47.40625 23.390625 
Q 47.40625 31.296875 43.53125 35.828125 
Q 39.65625 40.375 33.015625 40.375 
z
M 52.59375 71.296875 
L 52.59375 62.3125 
Q 48.875 64.0625 45.09375 64.984375 
Q 41.3125 65.921875 37.59375 65.921875 
Q 27.828125 65.921875 22.671875 59.328125 
Q 17.53125 52.734375 16.796875 39.40625 
Q 19.671875 43.65625 24.015625 45.921875 
Q 28.375 48.1875 33.59375 48.1875 
Q 44.578125 48.1875 50.953125 41.515625 
Q 57.328125 34.859375 57.328125 23.390625 
Q 57.328125 12.15625 50.6875 5.359375 
Q 44.046875 -1.421875 33.015625 -1.421875 
Q 20.359375 -1.421875 13.671875 8.265625 
Q 6.984375 17.96875 6.984375 36.375 
Q 6.984375 53.65625 15.1875 63.9375 
Q 23.390625 74.21875 37.203125 74.21875 
Q 40.921875 74.21875 44.703125 73.484375 
Q 48.484375 72.75 52.59375 71.296875 
z
" id="DejaVuSans-54"/>
      </defs>
      <g transform="translate(594.411402 368.855781)scale(0.18 -0.18)">
       <use xlink:href="#DejaVuSans-54"/>
       <use x="63.623047" xlink:href="#DejaVuSans-48"/>
       <use x="127.246094" xlink:href="#DejaVuSans-48"/>
       <use x="190.869141" xlink:href="#DejaVuSans-48"/>
       <use x="254.492188" xlink:href="#DejaVuSans-48"/>
      </g>
     </g>
    </g>
    <g id="xtick_7">
     <g id="line2d_7">
      <g>
       <use style="fill:#525252;stroke:#525252;stroke-width:4;" x="724.382346" xlink:href="#mace720e320" y="346.678594"/>
      </g>
     </g>
     <g id="text_7">
      <!-- 70000 -->
      <defs>
       <path d="M 8.203125 72.90625 
L 55.078125 72.90625 
L 55.078125 68.703125 
L 28.609375 0 
L 18.3125 0 
L 43.21875 64.59375 
L 8.203125 64.59375 
z
" id="DejaVuSans-55"/>
      </defs>
      <g transform="translate(695.751096 368.855781)scale(0.18 -0.18)">
       <use xlink:href="#DejaVuSans-55"/>
       <use x="63.623047" xlink:href="#DejaVuSans-48"/>
       <use x="127.246094" xlink:href="#DejaVuSans-48"/>
       <use x="190.869141" xlink:href="#DejaVuSans-48"/>
       <use x="254.492188" xlink:href="#DejaVuSans-48"/>
      </g>
     </g>
    </g>
    <g id="text_8">
     <!-- Time (ms) -->
     <defs>
      <path d="M -0.296875 72.90625 
L 61.375 72.90625 
L 61.375 64.59375 
L 35.5 64.59375 
L 35.5 0 
L 25.59375 0 
L 25.59375 64.59375 
L -0.296875 64.59375 
z
" id="DejaVuSans-84"/>
      <path d="M 9.421875 54.6875 
L 18.40625 54.6875 
L 18.40625 0 
L 9.421875 0 
z
M 9.421875 75.984375 
L 18.40625 75.984375 
L 18.40625 64.59375 
L 9.421875 64.59375 
z
" id="DejaVuSans-105"/>
      <path d="M 52 44.1875 
Q 55.375 50.25 60.0625 53.125 
Q 64.75 56 71.09375 56 
Q 79.640625 56 84.28125 50.015625 
Q 88.921875 44.046875 88.921875 33.015625 
L 88.921875 0 
L 79.890625 0 
L 79.890625 32.71875 
Q 79.890625 40.578125 77.09375 44.375 
Q 74.3125 48.1875 68.609375 48.1875 
Q 61.625 48.1875 57.5625 43.546875 
Q 53.515625 38.921875 53.515625 30.90625 
L 53.515625 0 
L 44.484375 0 
L 44.484375 32.71875 
Q 44.484375 40.625 41.703125 44.40625 
Q 38.921875 48.1875 33.109375 48.1875 
Q 26.21875 48.1875 22.15625 43.53125 
Q 18.109375 38.875 18.109375 30.90625 
L 18.109375 0 
L 9.078125 0 
L 9.078125 54.6875 
L 18.109375 54.6875 
L 18.109375 46.1875 
Q 21.1875 51.21875 25.484375 53.609375 
Q 29.78125 56 35.6875 56 
Q 41.65625 56 45.828125 52.96875 
Q 50 49.953125 52 44.1875 
z
" id="DejaVuSans-109"/>
      <path d="M 56.203125 29.59375 
L 56.203125 25.203125 
L 14.890625 25.203125 
Q 15.484375 15.921875 20.484375 11.0625 
Q 25.484375 6.203125 34.421875 6.203125 
Q 39.59375 6.203125 44.453125 7.46875 
Q 49.3125 8.734375 54.109375 11.28125 
L 54.109375 2.78125 
Q 49.265625 0.734375 44.1875 -0.34375 
Q 39.109375 -1.421875 33.890625 -1.421875 
Q 20.796875 -1.421875 13.15625 6.1875 
Q 5.515625 13.8125 5.515625 26.8125 
Q 5.515625 40.234375 12.765625 48.109375 
Q 20.015625 56 32.328125 56 
Q 43.359375 56 49.78125 48.890625 
Q 56.203125 41.796875 56.203125 29.59375 
z
M 47.21875 32.234375 
Q 47.125 39.59375 43.09375 43.984375 
Q 39.0625 48.390625 32.421875 48.390625 
Q 24.90625 48.390625 20.390625 44.140625 
Q 15.875 39.890625 15.1875 32.171875 
z
" id="DejaVuSans-101"/>
      <path id="DejaVuSans-32"/>
      <path d="M 31 75.875 
Q 24.46875 64.65625 21.28125 53.65625 
Q 18.109375 42.671875 18.109375 31.390625 
Q 18.109375 20.125 21.3125 9.0625 
Q 24.515625 -2 31 -13.1875 
L 23.1875 -13.1875 
Q 15.875 -1.703125 12.234375 9.375 
Q 8.59375 20.453125 8.59375 31.390625 
Q 8.59375 42.28125 12.203125 53.3125 
Q 15.828125 64.359375 23.1875 75.875 
z
" id="DejaVuSans-40"/>
      <path d="M 44.28125 53.078125 
L 44.28125 44.578125 
Q 40.484375 46.53125 36.375 47.5 
Q 32.28125 48.484375 27.875 48.484375 
Q 21.1875 48.484375 17.84375 46.4375 
Q 14.5 44.390625 14.5 40.28125 
Q 14.5 37.15625 16.890625 35.375 
Q 19.28125 33.59375 26.515625 31.984375 
L 29.59375 31.296875 
Q 39.15625 29.25 43.1875 25.515625 
Q 47.21875 21.78125 47.21875 15.09375 
Q 47.21875 7.46875 41.1875 3.015625 
Q 35.15625 -1.421875 24.609375 -1.421875 
Q 20.21875 -1.421875 15.453125 -0.5625 
Q 10.6875 0.296875 5.421875 2 
L 5.421875 11.28125 
Q 10.40625 8.6875 15.234375 7.390625 
Q 20.0625 6.109375 24.8125 6.109375 
Q 31.15625 6.109375 34.5625 8.28125 
Q 37.984375 10.453125 37.984375 14.40625 
Q 37.984375 18.0625 35.515625 20.015625 
Q 33.0625 21.96875 24.703125 23.78125 
L 21.578125 24.515625 
Q 13.234375 26.265625 9.515625 29.90625 
Q 5.8125 33.546875 5.8125 39.890625 
Q 5.8125 47.609375 11.28125 51.796875 
Q 16.75 56 26.8125 56 
Q 31.78125 56 36.171875 55.265625 
Q 40.578125 54.546875 44.28125 53.078125 
z
" id="DejaVuSans-115"/>
      <path d="M 8.015625 75.875 
L 15.828125 75.875 
Q 23.140625 64.359375 26.78125 53.3125 
Q 30.421875 42.28125 30.421875 31.390625 
Q 30.421875 20.453125 26.78125 9.375 
Q 23.140625 -1.703125 15.828125 -13.1875 
L 8.015625 -13.1875 
Q 14.5 -2 17.703125 9.0625 
Q 20.90625 20.125 20.90625 31.390625 
Q 20.90625 42.671875 17.703125 53.65625 
Q 14.5 64.65625 8.015625 75.875 
z
" id="DejaVuSans-41"/>
     </defs>
     <g transform="translate(346.055 391.796094)scale(0.2 -0.2)">
      <use xlink:href="#DejaVuSans-84"/>
      <use x="61.037109" xlink:href="#DejaVuSans-105"/>
      <use x="88.820312" xlink:href="#DejaVuSans-109"/>
      <use x="186.232422" xlink:href="#DejaVuSans-101"/>
      <use x="247.755859" xlink:href="#DejaVuSans-32"/>
      <use x="279.542969" xlink:href="#DejaVuSans-40"/>
      <use x="318.556641" xlink:href="#DejaVuSans-109"/>
      <use x="415.96875" xlink:href="#DejaVuSans-115"/>
      <use x="468.068359" xlink:href="#DejaVuSans-41"/>
     </g>
    </g>
   </g>
   <g id="matplotlib.axis_2">
    <g id="ytick_1">
     <g id="line2d_8">
      <defs>
       <path d="M 5 0 
L -5 -0 
" id="m067b660fd0" style="stroke:#525252;stroke-width:4;"/>
      </defs>
      <g>
       <use style="fill:#525252;stroke:#525252;stroke-width:4;" x="61.96125" xlink:href="#m067b660fd0" y="346.678594"/>
      </g>
     </g>
     <g id="text_9">
      <!-- 0 -->
      <g transform="translate(42.00875 353.517187)scale(0.18 -0.18)">
       <use xlink:href="#DejaVuSans-48"/>
      </g>
     </g>
    </g>
    <g id="ytick_2">
     <g id="line2d_9">
      <g>
       <use style="fill:#525252;stroke:#525252;stroke-width:4;" x="61.96125" xlink:href="#m067b660fd0" y="291.238594"/>
      </g>
     </g>
     <g id="text_10">
      <!-- 5 -->
      <g transform="translate(42.00875 298.077187)scale(0.18 -0.18)">
       <use xlink:href="#DejaVuSans-53"/>
      </g>
     </g>
    </g>
    <g id="ytick_3">
     <g id="line2d_10">
      <g>
       <use style="fill:#525252;stroke:#525252;stroke-width:4;" x="61.96125" xlink:href="#m067b660fd0" y="235.798594"/>
      </g>
     </g>
     <g id="text_11">
      <!-- 10 -->
      <g transform="translate(30.55625 242.637187)scale(0.18 -0.18)">
       <use xlink:href="#DejaVuSans-49"/>
       <use x="63.623047" xlink:href="#DejaVuSans-48"/>
      </g>
     </g>
    </g>
    <g id="ytick_4">
     <g id="line2d_11">
      <g>
       <use style="fill:#525252;stroke:#525252;stroke-width:4;" x="61.96125" xlink:href="#m067b660fd0" y="180.358594"/>
      </g>
     </g>
     <g id="text_12">
      <!-- 15 -->
      <g transform="translate(30.55625 187.197187)scale(0.18 -0.18)">
       <use xlink:href="#DejaVuSans-49"/>
       <use x="63.623047" xlink:href="#DejaVuSans-53"/>
      </g>
     </g>
    </g>
    <g id="ytick_5">
     <g id="line2d_12">
      <g>
       <use style="fill:#525252;stroke:#525252;stroke-width:4;" x="61.96125" xlink:href="#m067b660fd0" y="124.918594"/>
      </g>
     </g>
     <g id="text_13">
      <!-- 20 -->
      <g transform="translate(30.55625 131.757187)scale(0.18 -0.18)">
       <use xlink:href="#DejaVuSans-50"/>
       <use x="63.623047" xlink:href="#DejaVuSans-48"/>
      </g>
     </g>
    </g>
    <g id="ytick_6">
     <g id="line2d_13">
      <g>
       <use style="fill:#525252;stroke:#525252;stroke-width:4;" x="61.96125" xlink:href="#m067b660fd0" y="69.478594"/>
      </g>
     </g>
     <g id="text_14">
      <!-- 25 -->
      <g transform="translate(30.55625 76.317187)scale(0.18 -0.18)">
       <use xlink:href="#DejaVuSans-50"/>
       <use x="63.623047" xlink:href="#DejaVuSans-53"/>
      </g>
     </g>
    </g>
    <g id="ytick_7">
     <g id="line2d_14">
      <g>
       <use style="fill:#525252;stroke:#525252;stroke-width:4;" x="61.96125" xlink:href="#m067b660fd0" y="14.038594"/>
      </g>
     </g>
     <g id="text_15">
      <!-- 30 -->
      <g transform="translate(30.55625 20.877187)scale(0.18 -0.18)">
       <use xlink:href="#DejaVuSans-51"/>
       <use x="63.623047" xlink:href="#DejaVuSans-48"/>
      </g>
     </g>
    </g>
    <g id="text_16">
     <!-- Acceleration Magnitude -->
     <defs>
      <path d="M 34.1875 63.1875 
L 20.796875 26.90625 
L 47.609375 26.90625 
z
M 28.609375 72.90625 
L 39.796875 72.90625 
L 67.578125 0 
L 57.328125 0 
L 50.6875 18.703125 
L 17.828125 18.703125 
L 11.1875 0 
L 0.78125 0 
z
" id="DejaVuSans-65"/>
      <path d="M 48.78125 52.59375 
L 48.78125 44.1875 
Q 44.96875 46.296875 41.140625 47.34375 
Q 37.3125 48.390625 33.40625 48.390625 
Q 24.65625 48.390625 19.8125 42.84375 
Q 14.984375 37.3125 14.984375 27.296875 
Q 14.984375 17.28125 19.8125 11.734375 
Q 24.65625 6.203125 33.40625 6.203125 
Q 37.3125 6.203125 41.140625 7.25 
Q 44.96875 8.296875 48.78125 10.40625 
L 48.78125 2.09375 
Q 45.015625 0.34375 40.984375 -0.53125 
Q 36.96875 -1.421875 32.421875 -1.421875 
Q 20.0625 -1.421875 12.78125 6.34375 
Q 5.515625 14.109375 5.515625 27.296875 
Q 5.515625 40.671875 12.859375 48.328125 
Q 20.21875 56 33.015625 56 
Q 37.15625 56 41.109375 55.140625 
Q 45.0625 54.296875 48.78125 52.59375 
z
" id="DejaVuSans-99"/>
      <path d="M 9.421875 75.984375 
L 18.40625 75.984375 
L 18.40625 0 
L 9.421875 0 
z
" id="DejaVuSans-108"/>
      <path d="M 41.109375 46.296875 
Q 39.59375 47.171875 37.8125 47.578125 
Q 36.03125 48 33.890625 48 
Q 26.265625 48 22.1875 43.046875 
Q 18.109375 38.09375 18.109375 28.8125 
L 18.109375 0 
L 9.078125 0 
L 9.078125 54.6875 
L 18.109375 54.6875 
L 18.109375 46.1875 
Q 20.953125 51.171875 25.484375 53.578125 
Q 30.03125 56 36.53125 56 
Q 37.453125 56 38.578125 55.875 
Q 39.703125 55.765625 41.0625 55.515625 
z
" id="DejaVuSans-114"/>
      <path d="M 34.28125 27.484375 
Q 23.390625 27.484375 19.1875 25 
Q 14.984375 22.515625 14.984375 16.5 
Q 14.984375 11.71875 18.140625 8.90625 
Q 21.296875 6.109375 26.703125 6.109375 
Q 34.1875 6.109375 38.703125 11.40625 
Q 43.21875 16.703125 43.21875 25.484375 
L 43.21875 27.484375 
z
M 52.203125 31.203125 
L 52.203125 0 
L 43.21875 0 
L 43.21875 8.296875 
Q 40.140625 3.328125 35.546875 0.953125 
Q 30.953125 -1.421875 24.3125 -1.421875 
Q 15.921875 -1.421875 10.953125 3.296875 
Q 6 8.015625 6 15.921875 
Q 6 25.140625 12.171875 29.828125 
Q 18.359375 34.515625 30.609375 34.515625 
L 43.21875 34.515625 
L 43.21875 35.40625 
Q 43.21875 41.609375 39.140625 45 
Q 35.0625 48.390625 27.6875 48.390625 
Q 23 48.390625 18.546875 47.265625 
Q 14.109375 46.140625 10.015625 43.890625 
L 10.015625 52.203125 
Q 14.9375 54.109375 19.578125 55.046875 
Q 24.21875 56 28.609375 56 
Q 40.484375 56 46.34375 49.84375 
Q 52.203125 43.703125 52.203125 31.203125 
z
" id="DejaVuSans-97"/>
      <path d="M 18.3125 70.21875 
L 18.3125 54.6875 
L 36.8125 54.6875 
L 36.8125 47.703125 
L 18.3125 47.703125 
L 18.3125 18.015625 
Q 18.3125 11.328125 20.140625 9.421875 
Q 21.96875 7.515625 27.59375 7.515625 
L 36.8125 7.515625 
L 36.8125 0 
L 27.59375 0 
Q 17.1875 0 13.234375 3.875 
Q 9.28125 7.765625 9.28125 18.015625 
L 9.28125 47.703125 
L 2.6875 47.703125 
L 2.6875 54.6875 
L 9.28125 54.6875 
L 9.28125 70.21875 
z
" id="DejaVuSans-116"/>
      <path d="M 30.609375 48.390625 
Q 23.390625 48.390625 19.1875 42.75 
Q 14.984375 37.109375 14.984375 27.296875 
Q 14.984375 17.484375 19.15625 11.84375 
Q 23.34375 6.203125 30.609375 6.203125 
Q 37.796875 6.203125 41.984375 11.859375 
Q 46.1875 17.53125 46.1875 27.296875 
Q 46.1875 37.015625 41.984375 42.703125 
Q 37.796875 48.390625 30.609375 48.390625 
z
M 30.609375 56 
Q 42.328125 56 49.015625 48.375 
Q 55.71875 40.765625 55.71875 27.296875 
Q 55.71875 13.875 49.015625 6.21875 
Q 42.328125 -1.421875 30.609375 -1.421875 
Q 18.84375 -1.421875 12.171875 6.21875 
Q 5.515625 13.875 5.515625 27.296875 
Q 5.515625 40.765625 12.171875 48.375 
Q 18.84375 56 30.609375 56 
z
" id="DejaVuSans-111"/>
      <path d="M 54.890625 33.015625 
L 54.890625 0 
L 45.90625 0 
L 45.90625 32.71875 
Q 45.90625 40.484375 42.875 44.328125 
Q 39.84375 48.1875 33.796875 48.1875 
Q 26.515625 48.1875 22.3125 43.546875 
Q 18.109375 38.921875 18.109375 30.90625 
L 18.109375 0 
L 9.078125 0 
L 9.078125 54.6875 
L 18.109375 54.6875 
L 18.109375 46.1875 
Q 21.34375 51.125 25.703125 53.5625 
Q 30.078125 56 35.796875 56 
Q 45.21875 56 50.046875 50.171875 
Q 54.890625 44.34375 54.890625 33.015625 
z
" id="DejaVuSans-110"/>
      <path d="M 9.8125 72.90625 
L 24.515625 72.90625 
L 43.109375 23.296875 
L 61.8125 72.90625 
L 76.515625 72.90625 
L 76.515625 0 
L 66.890625 0 
L 66.890625 64.015625 
L 48.09375 14.015625 
L 38.1875 14.015625 
L 19.390625 64.015625 
L 19.390625 0 
L 9.8125 0 
z
" id="DejaVuSans-77"/>
      <path d="M 45.40625 27.984375 
Q 45.40625 37.75 41.375 43.109375 
Q 37.359375 48.484375 30.078125 48.484375 
Q 22.859375 48.484375 18.828125 43.109375 
Q 14.796875 37.75 14.796875 27.984375 
Q 14.796875 18.265625 18.828125 12.890625 
Q 22.859375 7.515625 30.078125 7.515625 
Q 37.359375 7.515625 41.375 12.890625 
Q 45.40625 18.265625 45.40625 27.984375 
z
M 54.390625 6.78125 
Q 54.390625 -7.171875 48.1875 -13.984375 
Q 42 -20.796875 29.203125 -20.796875 
Q 24.46875 -20.796875 20.265625 -20.09375 
Q 16.0625 -19.390625 12.109375 -17.921875 
L 12.109375 -9.1875 
Q 16.0625 -11.328125 19.921875 -12.34375 
Q 23.78125 -13.375 27.78125 -13.375 
Q 36.625 -13.375 41.015625 -8.765625 
Q 45.40625 -4.15625 45.40625 5.171875 
L 45.40625 9.625 
Q 42.625 4.78125 38.28125 2.390625 
Q 33.9375 0 27.875 0 
Q 17.828125 0 11.671875 7.65625 
Q 5.515625 15.328125 5.515625 27.984375 
Q 5.515625 40.671875 11.671875 48.328125 
Q 17.828125 56 27.875 56 
Q 33.9375 56 38.28125 53.609375 
Q 42.625 51.21875 45.40625 46.390625 
L 45.40625 54.6875 
L 54.390625 54.6875 
z
" id="DejaVuSans-103"/>
      <path d="M 8.5 21.578125 
L 8.5 54.6875 
L 17.484375 54.6875 
L 17.484375 21.921875 
Q 17.484375 14.15625 20.5 10.265625 
Q 23.53125 6.390625 29.59375 6.390625 
Q 36.859375 6.390625 41.078125 11.03125 
Q 45.3125 15.671875 45.3125 23.6875 
L 45.3125 54.6875 
L 54.296875 54.6875 
L 54.296875 0 
L 45.3125 0 
L 45.3125 8.40625 
Q 42.046875 3.421875 37.71875 1 
Q 33.40625 -1.421875 27.6875 -1.421875 
Q 18.265625 -1.421875 13.375 4.4375 
Q 8.5 10.296875 8.5 21.578125 
z
M 31.109375 56 
z
" id="DejaVuSans-117"/>
      <path d="M 45.40625 46.390625 
L 45.40625 75.984375 
L 54.390625 75.984375 
L 54.390625 0 
L 45.40625 0 
L 45.40625 8.203125 
Q 42.578125 3.328125 38.25 0.953125 
Q 33.9375 -1.421875 27.875 -1.421875 
Q 17.96875 -1.421875 11.734375 6.484375 
Q 5.515625 14.40625 5.515625 27.296875 
Q 5.515625 40.1875 11.734375 48.09375 
Q 17.96875 56 27.875 56 
Q 33.9375 56 38.25 53.625 
Q 42.578125 51.265625 45.40625 46.390625 
z
M 14.796875 27.296875 
Q 14.796875 17.390625 18.875 11.75 
Q 22.953125 6.109375 30.078125 6.109375 
Q 37.203125 6.109375 41.296875 11.75 
Q 45.40625 17.390625 45.40625 27.296875 
Q 45.40625 37.203125 41.296875 42.84375 
Q 37.203125 48.484375 30.078125 48.484375 
Q 22.953125 48.484375 18.875 42.84375 
Q 14.796875 37.203125 14.796875 27.296875 
z
" id="DejaVuSans-100"/>
     </defs>
     <g transform="translate(22.396875 298.830469)rotate(-90)scale(0.2 -0.2)">
      <use xlink:href="#DejaVuSans-65"/>
      <use x="68.392578" xlink:href="#DejaVuSans-99"/>
      <use x="123.373047" xlink:href="#DejaVuSans-99"/>
      <use x="178.353516" xlink:href="#DejaVuSans-101"/>
      <use x="239.876953" xlink:href="#DejaVuSans-108"/>
      <use x="267.660156" xlink:href="#DejaVuSans-101"/>
      <use x="329.183594" xlink:href="#DejaVuSans-114"/>
      <use x="370.296875" xlink:href="#DejaVuSans-97"/>
      <use x="431.576172" xlink:href="#DejaVuSans-116"/>
      <use x="470.785156" xlink:href="#DejaVuSans-105"/>
      <use x="498.568359" xlink:href="#DejaVuSans-111"/>
      <use x="559.75" xlink:href="#DejaVuSans-110"/>
      <use x="623.128906" xlink:href="#DejaVuSans-32"/>
      <use x="654.916016" xlink:href="#DejaVuSans-77"/>
      <use x="741.195312" xlink:href="#DejaVuSans-97"/>
      <use x="802.474609" xlink:href="#DejaVuSans-103"/>
      <use x="865.951172" xlink:href="#DejaVuSans-110"/>
      <use x="929.330078" xlink:href="#DejaVuSans-105"/>
      <use x="957.113281" xlink:href="#DejaVuSans-116"/>
      <use x="996.322266" xlink:href="#DejaVuSans-117"/>
      <use x="1059.701172" xlink:href="#DejaVuSans-100"/>
      <use x="1123.177734" xlink:href="#DejaVuSans-101"/>
     </g>
    </g>
   </g>
   <g id="line2d_15">
    <path clip-path="url(#p116dd4f2ca)" d="M 92.397614 236.228392 
L 93.127259 242.671969 
L 93.745432 230.529609 
L 94.424408 251.042687 
L 95.164187 168.087018 
L 95.772225 235.290889 
L 96.451201 260.085396 
L 97.150445 259.613861 
L 97.809153 264.3276 
L 99.227909 199.751021 
L 99.825813 187.328565 
L 100.504789 267.868322 
L 101.214167 181.877136 
L 101.852607 263.074553 
L 102.531583 222.297204 
L 103.251095 248.945626 
L 103.879401 240.080838 
L 104.558377 242.290458 
L 105.277889 235.724896 
L 105.906195 221.096278 
L 106.585171 218.198302 
L 107.304683 208.235453 
L 107.932989 207.109868 
L 108.611965 236.242713 
L 109.331476 241.460654 
L 109.959783 261.075286 
L 110.638759 270.250217 
L 111.338002 256.027067 
L 111.986576 233.483304 
L 112.665552 197.324038 
L 113.395198 142.39679 
L 114.01337 299.613728 
L 114.692346 200.171329 
L 115.39159 258.470153 
L 116.040164 238.98831 
L 116.71914 245.543684 
L 117.469054 244.210049 
L 118.077092 233.175482 
L 118.745934 225.018356 
L 119.495848 226.575462 
L 120.103886 232.621732 
L 120.772728 179.394301 
L 121.471972 224.114973 
L 122.799522 267.765119 
L 123.559569 271.651294 
L 124.157474 248.74218 
L 124.826316 211.666069 
L 125.52556 188.473886 
L 126.184268 249.739484 
L 126.85311 232.095808 
L 127.613157 257.032939 
L 128.200927 234.56924 
L 128.879903 247.474076 
L 129.629817 245.005811 
L 130.227721 239.486328 
L 130.906697 222.917182 
L 131.626209 222.147624 
L 132.254515 220.096972 
L 132.933491 157.040813 
L 133.673271 228.22435 
L 134.291443 231.549823 
L 134.960285 273.354588 
L 135.710199 282.847965 
L 136.308103 269.711183 
L 136.987079 214.42133 
L 137.716725 176.098407 
L 138.334897 134.131686 
L 139.013873 266.13806 
L 139.763787 264.255724 
L 140.361691 234.929511 
L 141.040667 242.622879 
L 141.760178 240.115876 
L 142.398619 240.256058 
L 143.067461 225.244016 
L 143.766704 174.287304 
L 145.094254 221.656702 
L 145.8239 241.898801 
L 146.442072 253.223592 
L 147.121048 276.546958 
L 147.820292 290.554762 
L 148.468866 220.053928 
L 149.147842 191.368536 
L 149.85722 19.308904 
L 150.49566 263.590903 
L 151.174636 235.445624 
L 151.92455 249.275334 
L 152.522454 249.434892 
L 153.20143 242.916128 
L 153.89054 241.411188 
L 154.549248 229.227138 
L 155.228224 208.271878 
L 155.927468 198.466173 
L 156.576042 204.306608 
L 157.255018 246.592421 
L 158.602836 286.837556 
L 159.281812 281.183889 
L 160.031725 216.677951 
L 160.629629 195.063647 
L 161.308605 96.071082 
L 162.007849 304.653114 
L 162.656423 201.562233 
L 163.335399 250.965198 
L 164.054911 242.243302 
L 164.683217 245.180049 
L 165.362193 255.899728 
L 166.081705 221.815536 
L 166.720145 215.795747 
L 167.388987 221.577583 
L 168.128767 179.083451 
L 168.736805 245.217293 
L 170.125159 266.695261 
L 170.763599 280.782692 
L 171.442575 241.591115 
L 172.141819 229.883866 
L 172.800527 209.872674 
L 173.469369 56.435609 
L 174.168613 322.169061 
L 174.817187 209.796664 
L 175.496163 252.674037 
L 176.235942 247.531222 
L 176.84398 245.599197 
L 177.522956 243.02871 
L 178.27287 210.843979 
L 178.870774 231.738992 
L 179.54975 199.716594 
L 180.299664 170.001955 
L 180.907702 223.375574 
L 181.576544 240.549661 
L 182.326458 289.478537 
L 183.603338 278.375744 
L 184.312716 188.743345 
L 184.951156 149.88854 
L 185.630132 142.142676 
L 186.298974 269.552754 
L 186.988084 225.694384 
L 187.656926 242.012674 
L 188.376438 253.855444 
L 189.004744 239.303245 
L 189.68372 235.857382 
L 190.403232 230.097473 
L 191.031538 175.619114 
L 191.710514 186.223806 
L 192.430025 225.569833 
L 193.068465 238.514351 
L 193.727173 269.957783 
L 194.456819 286.175468 
L 195.085125 274.817331 
L 195.764101 207.216683 
L 196.483613 201.563305 
L 197.111919 63.975102 
L 197.790895 259.886405 
L 198.510407 205.347197 
L 199.138713 259.938899 
L 199.817689 247.475844 
L 200.537201 254.749347 
L 201.165507 242.554099 
L 201.844483 224.423684 
L 202.543727 222.101575 
L 203.202435 204.877928 
L 203.871277 164.353287 
L 204.600923 242.79038 
L 205.219095 244.880642 
L 205.898071 275.097807 
L 206.627716 290.386942 
L 207.245889 257.580545 
L 207.924865 201.885237 
L 208.674778 173.70054 
L 209.272682 194.515419 
L 209.951658 239.626546 
L 210.650902 226.709463 
L 211.299476 240.63744 
L 211.978452 247.03302 
L 212.68783 247.405065 
L 213.336404 246.57831 
L 214.75516 193.104905 
L 215.353064 224.93509 
L 216.03204 219.985035 
L 216.77182 226.066218 
L 217.389992 255.701756 
L 218.058834 270.092008 
L 218.78848 270.711263 
L 219.416786 259.63124 
L 220.085628 181.036698 
L 220.80514 227.072151 
L 221.433446 148.021422 
L 222.112422 254.313883 
L 222.831934 231.05942 
L 223.46024 242.050367 
L 224.139216 242.759022 
L 224.848593 251.145947 
L 226.166009 223.834003 
L 226.865253 225.987385 
L 227.513827 222.341235 
L 228.192803 175.204086 
L 228.932583 233.312062 
L 229.540621 250.257486 
L 230.219597 264.41659 
L 230.939109 287.24992 
L 232.246391 209.496309 
L 232.945635 203.17118 
L 233.594209 186.913701 
L 234.273185 276.526809 
L 234.972429 220.115424 
L 235.631137 237.981128 
L 236.299979 247.751051 
L 237.019491 243.396195 
L 237.647797 242.083461 
L 238.326773 230.681307 
L 239.066552 208.734503 
L 239.674591 220.990897 
L 240.353567 185.34243 
L 241.032543 237.687937 
L 241.701385 249.883024 
L 242.38036 277.571744 
L 243.12014 282.200015 
L 243.728178 240.974211 
L 244.407154 180.518565 
L 245.126666 151.279544 
L 245.754972 288.321443 
L 246.433948 225.31872 
L 247.143326 264.662766 
L 247.781766 232.386825 
L 248.460742 250.473682 
L 249.180254 244.728322 
L 250.487536 216.372787 
L 251.18678 177.813529 
L 251.845488 185.147789 
L 252.51433 239.768983 
L 253.25411 241.739949 
L 253.862148 269.730005 
L 254.541124 282.312499 
L 255.260636 264.716084 
L 255.888942 200.005918 
L 256.567918 213.174967 
L 257.277295 117.735596 
L 257.915736 280.257363 
L 258.594711 211.673229 
L 259.314223 248.642114 
L 259.942529 246.335872 
L 260.621505 247.80924 
L 261.979457 226.137524 
L 262.648299 185.537476 
L 264.006251 217.230298 
L 264.675093 225.849149 
L 265.384471 264.203504 
L 266.022911 277.021604 
L 266.701887 280.119619 
L 268.049705 184.400643 
L 268.728681 148.427355 
L 269.448193 270.302712 
L 270.076499 266.093965 
L 270.755475 241.704651 
L 271.464853 244.079432 
L 272.103293 250.689234 
L 272.782269 250.913574 
L 273.471379 227.115579 
L 274.809062 211.708348 
L 275.558976 165.161018 
L 276.167014 236.051452 
L 276.835856 240.208943 
L 277.58577 269.734578 
L 278.183674 288.78399 
L 278.86265 255.257324 
L 279.582162 181.083951 
L 280.210468 190.515548 
L 280.889444 241.250325 
L 281.629224 226.771278 
L 282.237262 227.947725 
L 282.916238 245.170807 
L 283.63575 251.115237 
L 284.943032 237.698983 
L 286.300984 196.70767 
L 286.969826 214.690902 
L 287.66907 206.661098 
L 288.327778 235.137375 
L 288.99662 249.435357 
L 289.716131 281.883731 
L 290.344438 279.156327 
L 291.023413 238.964184 
L 291.742925 163.798513 
L 292.371231 158.284924 
L 293.050207 267.128908 
L 293.769719 198.840526 
L 294.398025 257.57745 
L 295.077001 239.071853 
L 295.786379 247.396811 
L 296.424819 240.488579 
L 297.103795 230.626365 
L 297.813173 225.987028 
L 299.130589 168.587196 
L 299.829833 224.859229 
L 300.488541 238.037724 
L 301.157383 264.831837 
L 301.907297 274.14808 
L 302.505201 268.736901 
L 303.184177 219.187462 
L 303.863153 199.414296 
L 304.542129 9.533856 
L 305.210971 276.456291 
L 305.960884 230.610571 
L 306.558789 252.557812 
L 307.237764 244.326209 
L 307.937008 248.092073 
L 308.595716 244.435439 
L 309.264558 234.138393 
L 309.973936 200.800022 
L 310.62251 222.567357 
L 311.291352 191.046203 
L 311.990596 237.55145 
L 312.649304 255.589618 
L 313.318146 277.098898 
L 314.06806 272.963281 
L 314.676098 242.148893 
L 315.34494 184.851281 
L 316.054318 234.582707 
L 316.692758 225.30984 
L 317.371734 206.891835 
L 318.070978 248.036596 
L 318.729686 225.214722 
L 319.398528 243.783365 
L 320.138308 245.421874 
L 320.746346 242.567109 
L 321.425322 211.471758 
L 322.144833 212.250896 
L 322.77314 134.26831 
L 323.452116 232.912608 
L 324.171627 260.037314 
L 324.810067 277.982914 
L 325.478909 279.716545 
L 326.198421 244.880122 
L 327.505703 133.128552 
L 328.204947 293.713787 
L 328.863655 248.070226 
L 329.532497 249.429218 
L 330.241875 254.907879 
L 330.890449 243.474009 
L 331.549157 243.65456 
L 332.278803 231.286475 
L 333.586085 200.265017 
L 334.305597 154.871533 
L 334.933903 231.237568 
L 335.612879 234.48559 
L 336.312123 273.914569 
L 336.960697 290.936161 
L 337.639673 256.904906 
L 338.389586 203.890444 
L 338.987491 194.937822 
L 339.666467 119.549211 
L 340.375844 259.306602 
L 341.014284 209.952838 
L 341.69326 231.831339 
L 342.422906 239.084069 
L 343.041078 253.257031 
L 343.720054 245.749747 
L 344.429432 211.72846 
L 345.08814 204.993164 
L 345.746848 216.190948 
L 346.46636 160.981331 
L 347.1048 231.541713 
L 347.773642 248.749074 
L 348.472886 276.039666 
L 349.131594 288.45651 
L 350.530082 171.839145 
L 351.148254 173.160304 
L 351.82723 275.791045 
L 352.51634 206.205234 
L 353.175048 271.069114 
L 353.854024 227.585297 
L 354.593803 246.191009 
L 355.201842 238.770268 
L 355.880818 242.113601 
L 356.569927 208.689696 
L 357.238769 212.68126 
L 357.907611 170.407223 
L 358.606855 234.798663 
L 359.255429 242.520923 
L 359.934405 268.457038 
L 360.653917 275.069283 
L 361.282223 266.516514 
L 361.961199 191.193722 
L 362.670577 200.778654 
L 363.319151 199.655659 
L 363.987993 246.867919 
L 364.727773 271.837826 
L 365.335811 225.939213 
L 366.014787 244.743645 
L 366.724165 246.844524 
L 367.372739 236.872375 
L 368.041581 216.589139 
L 368.781361 214.336383 
L 369.399533 206.228325 
L 370.068375 166.653526 
L 370.787886 248.772056 
L 371.416193 246.917448 
L 372.095169 274.191398 
L 372.81468 263.116269 
L 374.121962 202.759822 
L 374.821206 210.434519 
L 375.490048 250.356452 
L 376.148756 195.278047 
L 376.848 253.703831 
L 377.496574 214.816109 
L 378.17555 249.289219 
L 378.895062 254.87341 
L 379.533502 238.925013 
L 380.202344 215.050294 
L 380.88132 182.638055 
L 381.550162 197.991434 
L 382.229138 224.98621 
L 382.968918 236.664419 
L 383.58709 264.383946 
L 384.255932 278.186392 
L 384.96531 272.238635 
L 385.613884 208.147595 
L 386.282726 194.250913 
L 387.032639 69.692862 
L 387.640678 267.318018 
L 388.30952 192.834652 
L 389.049299 264.541256 
L 389.657337 228.348893 
L 390.336313 251.573432 
L 391.086227 240.227911 
L 391.684131 235.255734 
L 392.363107 222.903881 
L 393.113021 211.954491 
L 393.721059 186.276515 
L 394.389901 233.297213 
L 395.109413 258.914027 
L 395.737719 269.68864 
L 396.416695 270.237533 
L 397.136207 245.994847 
L 397.764513 208.06695 
L 398.443489 141.404967 
L 399.152867 300.421767 
L 399.801441 174.346367 
L 400.470283 269.097901 
L 401.220197 212.885224 
L 401.818101 248.048112 
L 402.497077 249.041989 
L 403.24699 234.267249 
L 403.855029 205.395591 
L 404.523871 199.363933 
L 405.273784 167.150059 
L 405.881822 218.089858 
L 406.550664 236.097473 
L 407.300578 272.926201 
L 407.898482 282.075647 
L 408.577458 251.091041 
L 409.276702 205.024728 
L 409.93541 183.85332 
L 410.604252 225.58478 
L 411.323764 184.509189 
L 411.95207 255.848522 
L 412.631046 237.007287 
L 413.360692 251.180334 
L 413.988998 237.600214 
L 414.65784 238.549121 
L 416.015792 194.751722 
L 416.684634 206.305386 
L 417.404146 222.119965 
L 418.042586 232.410062 
L 418.711428 270.257489 
L 419.461341 288.952274 
L 420.06938 269.153444 
L 420.738222 193.183322 
L 421.437465 193.02856 
L 422.096173 31.569183 
L 422.765015 246.240783 
L 423.514929 233.064327 
L 424.112833 266.889233 
L 424.791809 238.202538 
L 425.521455 243.420326 
L 426.139627 243.100815 
L 426.818603 217.917008 
L 427.568517 174.427384 
L 428.166421 196.514195 
L 428.845397 226.011967 
L 429.585177 243.982776 
L 430.872191 286.830857 
L 431.622105 256.432562 
L 432.230143 184.497874 
L 432.898985 215.348014 
L 433.598229 141.845725 
L 434.246803 240.523735 
L 434.925779 244.832229 
L 435.625023 259.112875 
L 436.273597 246.79431 
L 436.952573 249.460485 
L 437.692352 232.660717 
L 438.310524 212.894139 
L 438.979366 174.517991 
L 439.688744 179.938887 
L 440.337318 226.120262 
L 441.00616 236.107614 
L 441.705404 262.170417 
L 442.364112 278.593965 
L 443.032954 275.064095 
L 443.7626 206.163581 
L 444.390906 212.732422 
L 445.059748 56.032688 
L 445.758992 200.719212 
L 446.407566 242.485196 
L 447.086542 233.887955 
L 447.836456 250.941593 
L 448.444494 251.516618 
L 449.113336 243.698802 
L 449.842982 215.876154 
L 450.471288 201.636296 
L 451.14013 190.944766 
L 451.879909 212.293901 
L 452.487948 244.013968 
L 453.166924 258.631029 
L 453.866167 282.533742 
L 454.514741 270.51294 
L 455.193717 212.485277 
L 455.892961 192.683487 
L 456.541535 87.695832 
L 457.220511 255.742868 
L 457.909621 210.811256 
L 458.578463 266.304036 
L 459.247305 249.257168 
L 459.946549 254.190163 
L 460.605257 240.156304 
L 461.973343 197.870706 
L 462.632051 186.9816 
L 463.300893 225.560517 
L 464.020405 240.71079 
L 465.317553 282.862433 
L 466.067467 264.413051 
L 466.685639 190.641214 
L 467.354481 227.083491 
L 468.053725 45.591393 
L 468.712433 215.153104 
L 469.381275 226.413755 
L 470.131188 228.697171 
L 470.729093 249.883437 
L 471.408068 251.736201 
L 472.107312 241.194845 
L 473.434862 177.395976 
L 474.174642 183.893221 
L 474.792814 233.837484 
L 475.461656 234.686839 
L 476.150766 272.688495 
L 476.819608 287.017553 
L 477.48845 265.204776 
L 478.187694 180.48124 
L 478.846402 203.178897 
L 479.515244 38.202345 
L 480.265158 238.883831 
L 480.873196 222.436146 
L 481.542038 255.711553 
L 482.281818 245.335403 
L 482.889856 258.369494 
L 483.568832 224.534319 
L 484.318745 208.609504 
L 484.91665 174.18644 
L 485.595626 193.519898 
L 487.622419 271.037628 
L 488.321663 284.012928 
L 488.980371 265.657243 
L 489.649213 182.722338 
L 490.348457 206.762655 
L 490.997031 213.609109 
L 491.676007 228.988929 
L 492.436055 260.512153 
L 493.023825 236.732464 
L 493.702801 245.387691 
L 494.402045 242.998569 
L 495.060753 244.491316 
L 495.729595 218.483776 
L 496.459241 210.688787 
L 497.087547 187.407998 
L 497.756389 217.497953 
L 498.475901 230.959624 
L 499.114341 270.752855 
L 499.783183 292.114553 
L 500.522962 273.804686 
L 501.141135 173.23939 
L 501.809977 212.691178 
L 502.50922 51.812817 
L 503.167928 256.923272 
L 503.83677 266.612898 
L 504.566416 231.67709 
L 505.184588 239.030214 
L 505.863564 242.946094 
L 506.623612 241.222521 
L 507.211382 210.016857 
L 507.890358 184.212929 
L 508.589602 168.03253 
L 509.238176 232.261202 
L 509.917152 244.844928 
L 510.606262 262.673782 
L 511.275104 286.760048 
L 511.943946 260.290123 
L 512.64319 182.831274 
L 513.301898 182.760461 
L 513.97074 263.644679 
L 514.71052 191.439341 
L 515.318558 251.238873 
L 515.997534 237.182203 
L 516.747447 243.412504 
L 517.345352 245.109733 
L 518.024328 239.766768 
L 518.723571 214.039718 
L 519.382279 183.810479 
L 520.051121 201.617131 
L 520.790901 233.484853 
L 521.409073 239.005649 
L 522.827829 295.825093 
L 523.435867 258.1074 
L 524.104709 196.021133 
L 524.803953 192.995765 
L 525.452527 227.26425 
L 526.131503 175.676384 
L 526.851015 262.739718 
L 527.489455 226.284985 
L 528.158297 245.793256 
L 528.847407 240.560883 
L 529.516249 240.981172 
L 530.185091 213.589151 
L 530.894469 193.509724 
L 531.532909 168.291079 
L 532.211885 227.049683 
L 532.951664 232.96203 
L 533.559703 283.767335 
L 534.238679 283.897165 
L 534.978458 247.74824 
L 535.586497 190.557507 
L 536.265472 177.267276 
L 537.005252 312.607776 
L 537.61329 187.076314 
L 538.292266 260.66484 
L 538.99151 234.454105 
L 539.640084 255.851613 
L 540.31906 247.772411 
L 541.028438 232.104291 
L 542.345854 192.158942 
L 543.065366 189.455592 
L 543.693672 229.478281 
L 545.122562 258.767821 
L 545.720466 274.510471 
L 546.399442 262.950631 
L 547.098686 200.712587 
L 547.757394 215.656289 
L 548.426236 106.0253 
L 549.12548 278.419962 
L 549.784188 239.263641 
L 550.45303 242.28418 
L 551.202943 254.799931 
L 551.810982 256.531774 
L 554.506617 197.060527 
L 555.226129 209.354117 
L 555.854435 238.283132 
L 556.533411 259.309561 
L 557.252923 292.485909 
L 557.891363 276.22309 
L 558.560205 195.599006 
L 559.269583 207.499768 
L 559.918157 44.560254 
L 560.586999 276.662903 
L 561.306511 232.868796 
L 561.944951 236.644312 
L 562.613793 246.378116 
L 563.323171 244.078182 
L 563.971745 248.132675 
L 564.640587 221.747867 
L 565.339831 179.78175 
L 565.988405 200.09352 
L 566.667381 230.643533 
L 567.356491 236.846872 
L 568.025333 269.80407 
L 568.694175 290.44875 
L 569.403552 275.533053 
L 570.052126 196.905549 
L 570.720968 205.00872 
L 571.292139 -1 
M 571.546546 -1 
L 572.07892 227.381716 
L 572.747762 218.226201 
L 573.436872 240.742697 
L 574.09558 241.371686 
L 574.774556 251.979476 
L 575.483934 235.36635 
L 576.132508 224.374767 
L 576.80135 196.191497 
L 577.500594 193.824502 
L 578.159302 204.173115 
L 578.828144 235.57701 
L 580.175962 287.01201 
L 580.854938 274.50377 
L 581.554182 216.712019 
L 582.21289 194.801952 
L 582.881732 133.639071 
L 583.611377 258.871684 
L 584.22955 190.644925 
L 584.908526 266.593093 
L 585.597635 244.589228 
L 586.266477 250.677797 
L 586.935319 242.544268 
L 587.654831 225.972953 
L 588.293271 218.85378 
L 588.962113 203.800213 
L 589.681625 183.394317 
L 590.320065 241.270312 
L 590.988907 242.063734 
L 591.718553 276.698376 
L 592.346859 280.133496 
L 593.015701 235.44318 
L 593.735213 208.349775 
L 594.373653 161.078935 
L 595.042495 293.875523 
L 595.731605 204.183153 
L 596.400447 266.91569 
L 597.069289 230.272706 
L 597.788801 253.470163 
L 598.427241 233.687001 
L 599.096083 231.346818 
L 599.785193 216.41876 
L 600.454035 224.81659 
L 601.122877 145.693171 
L 601.82212 235.408177 
L 602.480828 248.166033 
L 603.14967 283.881004 
L 603.879316 283.638096 
L 604.507622 243.773986 
L 605.176464 186.082606 
L 605.90611 168.343679 
L 606.534416 314.251968 
L 607.203258 183.351167 
L 607.943038 272.615978 
L 608.56121 227.87912 
L 609.240186 260.898144 
L 609.959698 236.953981 
L 610.588004 238.428906 
L 611.256846 212.333885 
L 611.966224 194.709008 
L 612.614798 175.405513 
L 613.293774 254.105359 
L 613.982884 243.208668 
L 614.641592 279.987631 
L 615.310434 271.406599 
L 616.009678 247.944858 
L 616.668386 189.503678 
L 617.337228 74.662431 
L 618.087141 221.892274 
L 618.695179 219.199952 
L 619.364021 267.180948 
L 620.154471 232.782694 
L 620.721973 247.024206 
L 621.390815 258.920691 
L 622.150863 227.855311 
L 622.748767 215.754501 
L 623.417609 214.837862 
L 624.147255 157.015931 
L 624.775561 254.829094 
L 625.444403 237.594743 
L 626.386862 280.248827 
L 626.802355 260.251447 
L 627.471197 253.760769 
L 628.160307 193.572458 
L 628.829149 25.818602 
L 629.508125 273.154635 
L 630.227637 205.459094 
L 630.855943 260.269497 
L 631.524785 242.463241 
L 632.234163 245.263553 
L 632.882737 253.054055 
L 633.551579 223.503316 
L 634.250822 204.50447 
L 634.90953 194.824613 
L 635.578372 173.642063 
L 636.318152 233.7958 
L 637.605166 290.020639 
L 638.324678 268.710061 
L 638.963118 218.617672 
L 639.63196 209.691082 
L 640.331204 21.638178 
L 640.989912 294.353239 
L 641.658754 236.902002 
L 642.368132 240.120621 
L 643.016706 249.187055 
L 643.685548 253.682948 
L 644.384792 244.672286 
L 645.053634 222.730857 
L 645.712342 213.583815 
L 646.411586 187.129338 
L 647.070294 201.483239 
L 647.739136 232.961578 
L 648.43838 255.47544 
L 649.086954 282.143271 
L 649.76593 282.406962 
L 650.505709 196.961144 
L 651.123881 200.576199 
L 651.792723 143.092075 
L 652.491967 232.56017 
L 653.150675 208.169536 
L 653.819517 270.209335 
L 654.518761 229.421726 
L 655.177469 249.306294 
L 657.254933 219.253645 
L 658.592617 180.375253 
L 659.231057 247.508926 
L 659.899899 246.53923 
L 660.609277 281.89274 
L 661.257851 284.021418 
L 661.926693 237.494066 
L 662.656339 195.667935 
L 663.284645 185.318733 
L 663.953487 290.574754 
L 664.693266 217.699409 
L 665.311439 263.637445 
L 665.980281 231.856699 
L 666.730194 250.956539 
L 667.338232 239.676182 
L 668.007074 233.309085 
L 668.706318 210.785993 
L 669.385294 206.130499 
L 670.033868 135.974148 
L 670.763514 242.724587 
L 671.39182 239.587655 
L 672.060662 280.130094 
L 672.749772 288.897343 
L 673.40848 244.478757 
L 674.087456 183.547876 
L 674.756298 190.833788 
L 675.435274 285.283131 
L 676.11425 206.500467 
L 676.80336 262.381021 
L 677.462068 230.584415 
L 678.141044 241.654045 
L 678.809886 250.130378 
L 679.488862 241.806053 
L 680.167838 217.770856 
L 680.88735 180.159563 
L 681.515656 200.800445 
L 682.194632 215.041537 
L 682.863474 236.200276 
L 683.542449 253.302288 
L 684.221425 251.686196 
L 684.910535 247.954965 
L 685.569243 240.207162 
L 686.248219 257.378135 
L 686.917061 256.914484 
L 687.596037 206.888916 
L 688.275013 234.870936 
L 688.943855 245.462217 
L 689.632965 228.649565 
L 690.301807 255.921281 
L 690.980783 199.116856 
L 691.659759 243.248974 
L 692.328601 210.150502 
L 693.017711 239.236095 
L 693.686553 243.041224 
L 694.355395 231.019731 
L 695.044505 240.461414 
L 696.392323 238.229349 
L 697.071299 239.020822 
L 697.740141 237.33137 
L 698.408983 234.900555 
L 699.077825 234.238914 
L 699.766934 239.351681 
L 700.44591 239.340365 
L 701.124886 237.163488 
L 701.124886 237.163488 
" style="fill:none;stroke:#1f77b4;stroke-linecap:square;stroke-width:1.5;"/>
   </g>
  </g>
 </g>
 <defs>
  <clipPath id="p116dd4f2ca">
   <rect height="332.64" width="669.6" x="61.96125" y="14.038594"/>
  </clipPath>
 </defs>
</svg>
