<?xml version="1.0" encoding="utf-8" standalone="no"?>
<!DOCTYPE svg PUBLIC "-//W3C//DTD SVG 1.1//EN"
  "http://www.w3.org/Graphics/SVG/1.1/DTD/svg11.dtd">
<!-- Created with matplotlib (https://matplotlib.org/) -->
<svg height="403.155469pt" version="1.1" viewBox="0 0 408.96125 403.155469" width="408.96125pt" xmlns="http://www.w3.org/2000/svg" xmlns:xlink="http://www.w3.org/1999/xlink">
 <defs>
  <style type="text/css">
*{stroke-linecap:butt;stroke-linejoin:round;}
  </style>
 </defs>
 <g id="figure_1">
  <g id="patch_1">
   <path d="M 0 403.155469 
L 408.96125 403.155469 
L 408.96125 0 
L 0 0 
z
" style="fill:#ffffff;"/>
  </g>
  <g id="axes_1">
   <g id="patch_2">
    <path d="M 61.96125 346.678594 
L 396.76125 346.678594 
L 396.76125 14.038594 
L 61.96125 14.038594 
z
" style="fill:#ffffff;"/>
   </g>
   <g id="matplotlib.axis_1">
    <g id="xtick_1">
     <g id="line2d_1">
      <defs>
       <path d="M 0 5 
L 0 -5 
" id="mf39046f65f" style="stroke:#525252;stroke-width:4;"/>
      </defs>
      <g>
       <use style="fill:#525252;stroke:#525252;stroke-width:4;" x="76.909606" xlink:href="#mf39046f65f" y="346.678594"/>
      </g>
     </g>
     <g id="text_1">
      <!-- 0 -->
      <defs>
       <path d="M 31.78125 66.40625 
Q 24.171875 66.40625 20.328125 58.90625 
Q 16.5 51.421875 16.5 36.375 
Q 16.5 21.390625 20.328125 13.890625 
Q 24.171875 6.390625 31.78125 6.390625 
Q 39.453125 6.390625 43.28125 13.890625 
Q 47.125 21.390625 47.125 36.375 
Q 47.125 51.421875 43.28125 58.90625 
Q 39.453125 66.40625 31.78125 66.40625 
z
M 31.78125 74.21875 
Q 44.046875 74.21875 50.515625 64.515625 
Q 56.984375 54.828125 56.984375 36.375 
Q 56.984375 17.96875 50.515625 8.265625 
Q 44.046875 -1.421875 31.78125 -1.421875 
Q 19.53125 -1.421875 13.0625 8.265625 
Q 6.59375 17.96875 6.59375 36.375 
Q 6.59375 54.828125 13.0625 64.515625 
Q 19.53125 74.21875 31.78125 74.21875 
z
" id="DejaVuSans-48"/>
      </defs>
      <g transform="translate(71.183356 368.855781)scale(0.18 -0.18)">
       <use xlink:href="#DejaVuSans-48"/>
      </g>
     </g>
    </g>
    <g id="xtick_2">
     <g id="line2d_2">
      <g>
       <use style="fill:#525252;stroke:#525252;stroke-width:4;" x="144.366086" xlink:href="#mf39046f65f" y="346.678594"/>
      </g>
     </g>
     <g id="text_2">
      <!-- 250 -->
      <defs>
       <path d="M 19.1875 8.296875 
L 53.609375 8.296875 
L 53.609375 0 
L 7.328125 0 
L 7.328125 8.296875 
Q 12.9375 14.109375 22.625 23.890625 
Q 32.328125 33.6875 34.8125 36.53125 
Q 39.546875 41.84375 41.421875 45.53125 
Q 43.3125 49.21875 43.3125 52.78125 
Q 43.3125 58.59375 39.234375 62.25 
Q 35.15625 65.921875 28.609375 65.921875 
Q 23.96875 65.921875 18.8125 64.3125 
Q 13.671875 62.703125 7.8125 59.421875 
L 7.8125 69.390625 
Q 13.765625 71.78125 18.9375 73 
Q 24.125 74.21875 28.421875 74.21875 
Q 39.75 74.21875 46.484375 68.546875 
Q 53.21875 62.890625 53.21875 53.421875 
Q 53.21875 48.921875 51.53125 44.890625 
Q 49.859375 40.875 45.40625 35.40625 
Q 44.1875 33.984375 37.640625 27.21875 
Q 31.109375 20.453125 19.1875 8.296875 
z
" id="DejaVuSans-50"/>
       <path d="M 10.796875 72.90625 
L 49.515625 72.90625 
L 49.515625 64.59375 
L 19.828125 64.59375 
L 19.828125 46.734375 
Q 21.96875 47.46875 24.109375 47.828125 
Q 26.265625 48.1875 28.421875 48.1875 
Q 40.625 48.1875 47.75 41.5 
Q 54.890625 34.8125 54.890625 23.390625 
Q 54.890625 11.625 47.5625 5.09375 
Q 40.234375 -1.421875 26.90625 -1.421875 
Q 22.3125 -1.421875 17.546875 -0.640625 
Q 12.796875 0.140625 7.71875 1.703125 
L 7.71875 11.625 
Q 12.109375 9.234375 16.796875 8.0625 
Q 21.484375 6.890625 26.703125 6.890625 
Q 35.15625 6.890625 40.078125 11.328125 
Q 45.015625 15.765625 45.015625 23.390625 
Q 45.015625 31 40.078125 35.4375 
Q 35.15625 39.890625 26.703125 39.890625 
Q 22.75 39.890625 18.8125 39.015625 
Q 14.890625 38.140625 10.796875 36.28125 
z
" id="DejaVuSans-53"/>
      </defs>
      <g transform="translate(127.187336 368.855781)scale(0.18 -0.18)">
       <use xlink:href="#DejaVuSans-50"/>
       <use x="63.623047" xlink:href="#DejaVuSans-53"/>
       <use x="127.246094" xlink:href="#DejaVuSans-48"/>
      </g>
     </g>
    </g>
    <g id="xtick_3">
     <g id="line2d_3">
      <g>
       <use style="fill:#525252;stroke:#525252;stroke-width:4;" x="211.822565" xlink:href="#mf39046f65f" y="346.678594"/>
      </g>
     </g>
     <g id="text_3">
      <!-- 500 -->
      <g transform="translate(194.643815 368.855781)scale(0.18 -0.18)">
       <use xlink:href="#DejaVuSans-53"/>
       <use x="63.623047" xlink:href="#DejaVuSans-48"/>
       <use x="127.246094" xlink:href="#DejaVuSans-48"/>
      </g>
     </g>
    </g>
    <g id="xtick_4">
     <g id="line2d_4">
      <g>
       <use style="fill:#525252;stroke:#525252;stroke-width:4;" x="279.279045" xlink:href="#mf39046f65f" y="346.678594"/>
      </g>
     </g>
     <g id="text_4">
      <!-- 750 -->
      <defs>
       <path d="M 8.203125 72.90625 
L 55.078125 72.90625 
L 55.078125 68.703125 
L 28.609375 0 
L 18.3125 0 
L 43.21875 64.59375 
L 8.203125 64.59375 
z
" id="DejaVuSans-55"/>
      </defs>
      <g transform="translate(262.100295 368.855781)scale(0.18 -0.18)">
       <use xlink:href="#DejaVuSans-55"/>
       <use x="63.623047" xlink:href="#DejaVuSans-53"/>
       <use x="127.246094" xlink:href="#DejaVuSans-48"/>
      </g>
     </g>
    </g>
    <g id="xtick_5">
     <g id="line2d_5">
      <g>
       <use style="fill:#525252;stroke:#525252;stroke-width:4;" x="346.735525" xlink:href="#mf39046f65f" y="346.678594"/>
      </g>
     </g>
     <g id="text_5">
      <!-- 1000 -->
      <defs>
       <path d="M 12.40625 8.296875 
L 28.515625 8.296875 
L 28.515625 63.921875 
L 10.984375 60.40625 
L 10.984375 69.390625 
L 28.421875 72.90625 
L 38.28125 72.90625 
L 38.28125 8.296875 
L 54.390625 8.296875 
L 54.390625 0 
L 12.40625 0 
z
" id="DejaVuSans-49"/>
      </defs>
      <g transform="translate(323.830525 368.855781)scale(0.18 -0.18)">
       <use xlink:href="#DejaVuSans-49"/>
       <use x="63.623047" xlink:href="#DejaVuSans-48"/>
       <use x="127.246094" xlink:href="#DejaVuSans-48"/>
       <use x="190.869141" xlink:href="#DejaVuSans-48"/>
      </g>
     </g>
    </g>
    <g id="text_6">
     <!-- Sample -->
     <defs>
      <path d="M 53.515625 70.515625 
L 53.515625 60.890625 
Q 47.90625 63.578125 42.921875 64.890625 
Q 37.9375 66.21875 33.296875 66.21875 
Q 25.25 66.21875 20.875 63.09375 
Q 16.5 59.96875 16.5 54.203125 
Q 16.5 49.359375 19.40625 46.890625 
Q 22.3125 44.4375 30.421875 42.921875 
L 36.375 41.703125 
Q 47.40625 39.59375 52.65625 34.296875 
Q 57.90625 29 57.90625 20.125 
Q 57.90625 9.515625 50.796875 4.046875 
Q 43.703125 -1.421875 29.984375 -1.421875 
Q 24.8125 -1.421875 18.96875 -0.25 
Q 13.140625 0.921875 6.890625 3.21875 
L 6.890625 13.375 
Q 12.890625 10.015625 18.65625 8.296875 
Q 24.421875 6.59375 29.984375 6.59375 
Q 38.421875 6.59375 43.015625 9.90625 
Q 47.609375 13.234375 47.609375 19.390625 
Q 47.609375 24.75 44.3125 27.78125 
Q 41.015625 30.8125 33.5 32.328125 
L 27.484375 33.5 
Q 16.453125 35.6875 11.515625 40.375 
Q 6.59375 45.0625 6.59375 53.421875 
Q 6.59375 63.09375 13.40625 68.65625 
Q 20.21875 74.21875 32.171875 74.21875 
Q 37.3125 74.21875 42.625 73.28125 
Q 47.953125 72.359375 53.515625 70.515625 
z
" id="DejaVuSans-83"/>
      <path d="M 34.28125 27.484375 
Q 23.390625 27.484375 19.1875 25 
Q 14.984375 22.515625 14.984375 16.5 
Q 14.984375 11.71875 18.140625 8.90625 
Q 21.296875 6.109375 26.703125 6.109375 
Q 34.1875 6.109375 38.703125 11.40625 
Q 43.21875 16.703125 43.21875 25.484375 
L 43.21875 27.484375 
z
M 52.203125 31.203125 
L 52.203125 0 
L 43.21875 0 
L 43.21875 8.296875 
Q 40.140625 3.328125 35.546875 0.953125 
Q 30.953125 -1.421875 24.3125 -1.421875 
Q 15.921875 -1.421875 10.953125 3.296875 
Q 6 8.015625 6 15.921875 
Q 6 25.140625 12.171875 29.828125 
Q 18.359375 34.515625 30.609375 34.515625 
L 43.21875 34.515625 
L 43.21875 35.40625 
Q 43.21875 41.609375 39.140625 45 
Q 35.0625 48.390625 27.6875 48.390625 
Q 23 48.390625 18.546875 47.265625 
Q 14.109375 46.140625 10.015625 43.890625 
L 10.015625 52.203125 
Q 14.9375 54.109375 19.578125 55.046875 
Q 24.21875 56 28.609375 56 
Q 40.484375 56 46.34375 49.84375 
Q 52.203125 43.703125 52.203125 31.203125 
z
" id="DejaVuSans-97"/>
      <path d="M 52 44.1875 
Q 55.375 50.25 60.0625 53.125 
Q 64.75 56 71.09375 56 
Q 79.640625 56 84.28125 50.015625 
Q 88.921875 44.046875 88.921875 33.015625 
L 88.921875 0 
L 79.890625 0 
L 79.890625 32.71875 
Q 79.890625 40.578125 77.09375 44.375 
Q 74.3125 48.1875 68.609375 48.1875 
Q 61.625 48.1875 57.5625 43.546875 
Q 53.515625 38.921875 53.515625 30.90625 
L 53.515625 0 
L 44.484375 0 
L 44.484375 32.71875 
Q 44.484375 40.625 41.703125 44.40625 
Q 38.921875 48.1875 33.109375 48.1875 
Q 26.21875 48.1875 22.15625 43.53125 
Q 18.109375 38.875 18.109375 30.90625 
L 18.109375 0 
L 9.078125 0 
L 9.078125 54.6875 
L 18.109375 54.6875 
L 18.109375 46.1875 
Q 21.1875 51.21875 25.484375 53.609375 
Q 29.78125 56 35.6875 56 
Q 41.65625 56 45.828125 52.96875 
Q 50 49.953125 52 44.1875 
z
" id="DejaVuSans-109"/>
      <path d="M 18.109375 8.203125 
L 18.109375 -20.796875 
L 9.078125 -20.796875 
L 9.078125 54.6875 
L 18.109375 54.6875 
L 18.109375 46.390625 
Q 20.953125 51.265625 25.265625 53.625 
Q 29.59375 56 35.59375 56 
Q 45.5625 56 51.78125 48.09375 
Q 58.015625 40.1875 58.015625 27.296875 
Q 58.015625 14.40625 51.78125 6.484375 
Q 45.5625 -1.421875 35.59375 -1.421875 
Q 29.59375 -1.421875 25.265625 0.953125 
Q 20.953125 3.328125 18.109375 8.203125 
z
M 48.6875 27.296875 
Q 48.6875 37.203125 44.609375 42.84375 
Q 40.53125 48.484375 33.40625 48.484375 
Q 26.265625 48.484375 22.1875 42.84375 
Q 18.109375 37.203125 18.109375 27.296875 
Q 18.109375 17.390625 22.1875 11.75 
Q 26.265625 6.109375 33.40625 6.109375 
Q 40.53125 6.109375 44.609375 11.75 
Q 48.6875 17.390625 48.6875 27.296875 
z
" id="DejaVuSans-112"/>
      <path d="M 9.421875 75.984375 
L 18.40625 75.984375 
L 18.40625 0 
L 9.421875 0 
z
" id="DejaVuSans-108"/>
      <path d="M 56.203125 29.59375 
L 56.203125 25.203125 
L 14.890625 25.203125 
Q 15.484375 15.921875 20.484375 11.0625 
Q 25.484375 6.203125 34.421875 6.203125 
Q 39.59375 6.203125 44.453125 7.46875 
Q 49.3125 8.734375 54.109375 11.28125 
L 54.109375 2.78125 
Q 49.265625 0.734375 44.1875 -0.34375 
Q 39.109375 -1.421875 33.890625 -1.421875 
Q 20.796875 -1.421875 13.15625 6.1875 
Q 5.515625 13.8125 5.515625 26.8125 
Q 5.515625 40.234375 12.765625 48.109375 
Q 20.015625 56 32.328125 56 
Q 43.359375 56 49.78125 48.890625 
Q 56.203125 41.796875 56.203125 29.59375 
z
M 47.21875 32.234375 
Q 47.125 39.59375 43.09375 43.984375 
Q 39.0625 48.390625 32.421875 48.390625 
Q 24.90625 48.390625 20.390625 44.140625 
Q 15.875 39.890625 15.1875 32.171875 
z
" id="DejaVuSans-101"/>
     </defs>
     <g transform="translate(191.864375 391.796094)scale(0.2 -0.2)">
      <use xlink:href="#DejaVuSans-83"/>
      <use x="63.476562" xlink:href="#DejaVuSans-97"/>
      <use x="124.755859" xlink:href="#DejaVuSans-109"/>
      <use x="222.167969" xlink:href="#DejaVuSans-112"/>
      <use x="285.644531" xlink:href="#DejaVuSans-108"/>
      <use x="313.427734" xlink:href="#DejaVuSans-101"/>
     </g>
    </g>
   </g>
   <g id="matplotlib.axis_2">
    <g id="ytick_1">
     <g id="line2d_6">
      <defs>
       <path d="M 5 0 
L -5 -0 
" id="m91acc5d617" style="stroke:#525252;stroke-width:4;"/>
      </defs>
      <g>
       <use style="fill:#525252;stroke:#525252;stroke-width:4;" x="61.96125" xlink:href="#m91acc5d617" y="346.678594"/>
      </g>
     </g>
     <g id="text_7">
      <!-- 50 -->
      <g transform="translate(30.55625 353.517187)scale(0.18 -0.18)">
       <use xlink:href="#DejaVuSans-53"/>
       <use x="63.623047" xlink:href="#DejaVuSans-48"/>
      </g>
     </g>
    </g>
    <g id="ytick_2">
     <g id="line2d_7">
      <g>
       <use style="fill:#525252;stroke:#525252;stroke-width:4;" x="61.96125" xlink:href="#m91acc5d617" y="291.238594"/>
      </g>
     </g>
     <g id="text_8">
      <!-- 55 -->
      <g transform="translate(30.55625 298.077187)scale(0.18 -0.18)">
       <use xlink:href="#DejaVuSans-53"/>
       <use x="63.623047" xlink:href="#DejaVuSans-53"/>
      </g>
     </g>
    </g>
    <g id="ytick_3">
     <g id="line2d_8">
      <g>
       <use style="fill:#525252;stroke:#525252;stroke-width:4;" x="61.96125" xlink:href="#m91acc5d617" y="235.798594"/>
      </g>
     </g>
     <g id="text_9">
      <!-- 60 -->
      <defs>
       <path d="M 33.015625 40.375 
Q 26.375 40.375 22.484375 35.828125 
Q 18.609375 31.296875 18.609375 23.390625 
Q 18.609375 15.53125 22.484375 10.953125 
Q 26.375 6.390625 33.015625 6.390625 
Q 39.65625 6.390625 43.53125 10.953125 
Q 47.40625 15.53125 47.40625 23.390625 
Q 47.40625 31.296875 43.53125 35.828125 
Q 39.65625 40.375 33.015625 40.375 
z
M 52.59375 71.296875 
L 52.59375 62.3125 
Q 48.875 64.0625 45.09375 64.984375 
Q 41.3125 65.921875 37.59375 65.921875 
Q 27.828125 65.921875 22.671875 59.328125 
Q 17.53125 52.734375 16.796875 39.40625 
Q 19.671875 43.65625 24.015625 45.921875 
Q 28.375 48.1875 33.59375 48.1875 
Q 44.578125 48.1875 50.953125 41.515625 
Q 57.328125 34.859375 57.328125 23.390625 
Q 57.328125 12.15625 50.6875 5.359375 
Q 44.046875 -1.421875 33.015625 -1.421875 
Q 20.359375 -1.421875 13.671875 8.265625 
Q 6.984375 17.96875 6.984375 36.375 
Q 6.984375 53.65625 15.1875 63.9375 
Q 23.390625 74.21875 37.203125 74.21875 
Q 40.921875 74.21875 44.703125 73.484375 
Q 48.484375 72.75 52.59375 71.296875 
z
" id="DejaVuSans-54"/>
      </defs>
      <g transform="translate(30.55625 242.637187)scale(0.18 -0.18)">
       <use xlink:href="#DejaVuSans-54"/>
       <use x="63.623047" xlink:href="#DejaVuSans-48"/>
      </g>
     </g>
    </g>
    <g id="ytick_4">
     <g id="line2d_9">
      <g>
       <use style="fill:#525252;stroke:#525252;stroke-width:4;" x="61.96125" xlink:href="#m91acc5d617" y="180.358594"/>
      </g>
     </g>
     <g id="text_10">
      <!-- 65 -->
      <g transform="translate(30.55625 187.197187)scale(0.18 -0.18)">
       <use xlink:href="#DejaVuSans-54"/>
       <use x="63.623047" xlink:href="#DejaVuSans-53"/>
      </g>
     </g>
    </g>
    <g id="ytick_5">
     <g id="line2d_10">
      <g>
       <use style="fill:#525252;stroke:#525252;stroke-width:4;" x="61.96125" xlink:href="#m91acc5d617" y="124.918594"/>
      </g>
     </g>
     <g id="text_11">
      <!-- 70 -->
      <g transform="translate(30.55625 131.757187)scale(0.18 -0.18)">
       <use xlink:href="#DejaVuSans-55"/>
       <use x="63.623047" xlink:href="#DejaVuSans-48"/>
      </g>
     </g>
    </g>
    <g id="ytick_6">
     <g id="line2d_11">
      <g>
       <use style="fill:#525252;stroke:#525252;stroke-width:4;" x="61.96125" xlink:href="#m91acc5d617" y="69.478594"/>
      </g>
     </g>
     <g id="text_12">
      <!-- 75 -->
      <g transform="translate(30.55625 76.317187)scale(0.18 -0.18)">
       <use xlink:href="#DejaVuSans-55"/>
       <use x="63.623047" xlink:href="#DejaVuSans-53"/>
      </g>
     </g>
    </g>
    <g id="ytick_7">
     <g id="line2d_12">
      <g>
       <use style="fill:#525252;stroke:#525252;stroke-width:4;" x="61.96125" xlink:href="#m91acc5d617" y="14.038594"/>
      </g>
     </g>
     <g id="text_13">
      <!-- 80 -->
      <defs>
       <path d="M 31.78125 34.625 
Q 24.75 34.625 20.71875 30.859375 
Q 16.703125 27.09375 16.703125 20.515625 
Q 16.703125 13.921875 20.71875 10.15625 
Q 24.75 6.390625 31.78125 6.390625 
Q 38.8125 6.390625 42.859375 10.171875 
Q 46.921875 13.96875 46.921875 20.515625 
Q 46.921875 27.09375 42.890625 30.859375 
Q 38.875 34.625 31.78125 34.625 
z
M 21.921875 38.8125 
Q 15.578125 40.375 12.03125 44.71875 
Q 8.5 49.078125 8.5 55.328125 
Q 8.5 64.0625 14.71875 69.140625 
Q 20.953125 74.21875 31.78125 74.21875 
Q 42.671875 74.21875 48.875 69.140625 
Q 55.078125 64.0625 55.078125 55.328125 
Q 55.078125 49.078125 51.53125 44.71875 
Q 48 40.375 41.703125 38.8125 
Q 48.828125 37.15625 52.796875 32.3125 
Q 56.78125 27.484375 56.78125 20.515625 
Q 56.78125 9.90625 50.3125 4.234375 
Q 43.84375 -1.421875 31.78125 -1.421875 
Q 19.734375 -1.421875 13.25 4.234375 
Q 6.78125 9.90625 6.78125 20.515625 
Q 6.78125 27.484375 10.78125 32.3125 
Q 14.796875 37.15625 21.921875 38.8125 
z
M 18.3125 54.390625 
Q 18.3125 48.734375 21.84375 45.5625 
Q 25.390625 42.390625 31.78125 42.390625 
Q 38.140625 42.390625 41.71875 45.5625 
Q 45.3125 48.734375 45.3125 54.390625 
Q 45.3125 60.0625 41.71875 63.234375 
Q 38.140625 66.40625 31.78125 66.40625 
Q 25.390625 66.40625 21.84375 63.234375 
Q 18.3125 60.0625 18.3125 54.390625 
z
" id="DejaVuSans-56"/>
      </defs>
      <g transform="translate(30.55625 20.877187)scale(0.18 -0.18)">
       <use xlink:href="#DejaVuSans-56"/>
       <use x="63.623047" xlink:href="#DejaVuSans-48"/>
      </g>
     </g>
    </g>
    <g id="text_14">
     <!-- Sampling Interval (ms) -->
     <defs>
      <path d="M 9.421875 54.6875 
L 18.40625 54.6875 
L 18.40625 0 
L 9.421875 0 
z
M 9.421875 75.984375 
L 18.40625 75.984375 
L 18.40625 64.59375 
L 9.421875 64.59375 
z
" id="DejaVuSans-105"/>
      <path d="M 54.890625 33.015625 
L 54.890625 0 
L 45.90625 0 
L 45.90625 32.71875 
Q 45.90625 40.484375 42.875 44.328125 
Q 39.84375 48.1875 33.796875 48.1875 
Q 26.515625 48.1875 22.3125 43.546875 
Q 18.109375 38.921875 18.109375 30.90625 
L 18.109375 0 
L 9.078125 0 
L 9.078125 54.6875 
L 18.109375 54.6875 
L 18.109375 46.1875 
Q 21.34375 51.125 25.703125 53.5625 
Q 30.078125 56 35.796875 56 
Q 45.21875 56 50.046875 50.171875 
Q 54.890625 44.34375 54.890625 33.015625 
z
" id="DejaVuSans-110"/>
      <path d="M 45.40625 27.984375 
Q 45.40625 37.75 41.375 43.109375 
Q 37.359375 48.484375 30.078125 48.484375 
Q 22.859375 48.484375 18.828125 43.109375 
Q 14.796875 37.75 14.796875 27.984375 
Q 14.796875 18.265625 18.828125 12.890625 
Q 22.859375 7.515625 30.078125 7.515625 
Q 37.359375 7.515625 41.375 12.890625 
Q 45.40625 18.265625 45.40625 27.984375 
z
M 54.390625 6.78125 
Q 54.390625 -7.171875 48.1875 -13.984375 
Q 42 -20.796875 29.203125 -20.796875 
Q 24.46875 -20.796875 20.265625 -20.09375 
Q 16.0625 -19.390625 12.109375 -17.921875 
L 12.109375 -9.1875 
Q 16.0625 -11.328125 19.921875 -12.34375 
Q 23.78125 -13.375 27.78125 -13.375 
Q 36.625 -13.375 41.015625 -8.765625 
Q 45.40625 -4.15625 45.40625 5.171875 
L 45.40625 9.625 
Q 42.625 4.78125 38.28125 2.390625 
Q 33.9375 0 27.875 0 
Q 17.828125 0 11.671875 7.65625 
Q 5.515625 15.328125 5.515625 27.984375 
Q 5.515625 40.671875 11.671875 48.328125 
Q 17.828125 56 27.875 56 
Q 33.9375 56 38.28125 53.609375 
Q 42.625 51.21875 45.40625 46.390625 
L 45.40625 54.6875 
L 54.390625 54.6875 
z
" id="DejaVuSans-103"/>
      <path id="DejaVuSans-32"/>
      <path d="M 9.8125 72.90625 
L 19.671875 72.90625 
L 19.671875 0 
L 9.8125 0 
z
" id="DejaVuSans-73"/>
      <path d="M 18.3125 70.21875 
L 18.3125 54.6875 
L 36.8125 54.6875 
L 36.8125 47.703125 
L 18.3125 47.703125 
L 18.3125 18.015625 
Q 18.3125 11.328125 20.140625 9.421875 
Q 21.96875 7.515625 27.59375 7.515625 
L 36.8125 7.515625 
L 36.8125 0 
L 27.59375 0 
Q 17.1875 0 13.234375 3.875 
Q 9.28125 7.765625 9.28125 18.015625 
L 9.28125 47.703125 
L 2.6875 47.703125 
L 2.6875 54.6875 
L 9.28125 54.6875 
L 9.28125 70.21875 
z
" id="DejaVuSans-116"/>
      <path d="M 41.109375 46.296875 
Q 39.59375 47.171875 37.8125 47.578125 
Q 36.03125 48 33.890625 48 
Q 26.265625 48 22.1875 43.046875 
Q 18.109375 38.09375 18.109375 28.8125 
L 18.109375 0 
L 9.078125 0 
L 9.078125 54.6875 
L 18.109375 54.6875 
L 18.109375 46.1875 
Q 20.953125 51.171875 25.484375 53.578125 
Q 30.03125 56 36.53125 56 
Q 37.453125 56 38.578125 55.875 
Q 39.703125 55.765625 41.0625 55.515625 
z
" id="DejaVuSans-114"/>
      <path d="M 2.984375 54.6875 
L 12.5 54.6875 
L 29.59375 8.796875 
L 46.6875 54.6875 
L 56.203125 54.6875 
L 35.6875 0 
L 23.484375 0 
z
" id="DejaVuSans-118"/>
      <path d="M 31 75.875 
Q 24.46875 64.65625 21.28125 53.65625 
Q 18.109375 42.671875 18.109375 31.390625 
Q 18.109375 20.125 21.3125 9.0625 
Q 24.515625 -2 31 -13.1875 
L 23.1875 -13.1875 
Q 15.875 -1.703125 12.234375 9.375 
Q 8.59375 20.453125 8.59375 31.390625 
Q 8.59375 42.28125 12.203125 53.3125 
Q 15.828125 64.359375 23.1875 75.875 
z
" id="DejaVuSans-40"/>
      <path d="M 44.28125 53.078125 
L 44.28125 44.578125 
Q 40.484375 46.53125 36.375 47.5 
Q 32.28125 48.484375 27.875 48.484375 
Q 21.1875 48.484375 17.84375 46.4375 
Q 14.5 44.390625 14.5 40.28125 
Q 14.5 37.15625 16.890625 35.375 
Q 19.28125 33.59375 26.515625 31.984375 
L 29.59375 31.296875 
Q 39.15625 29.25 43.1875 25.515625 
Q 47.21875 21.78125 47.21875 15.09375 
Q 47.21875 7.46875 41.1875 3.015625 
Q 35.15625 -1.421875 24.609375 -1.421875 
Q 20.21875 -1.421875 15.453125 -0.5625 
Q 10.6875 0.296875 5.421875 2 
L 5.421875 11.28125 
Q 10.40625 8.6875 15.234375 7.390625 
Q 20.0625 6.109375 24.8125 6.109375 
Q 31.15625 6.109375 34.5625 8.28125 
Q 37.984375 10.453125 37.984375 14.40625 
Q 37.984375 18.0625 35.515625 20.015625 
Q 33.0625 21.96875 24.703125 23.78125 
L 21.578125 24.515625 
Q 13.234375 26.265625 9.515625 29.90625 
Q 5.8125 33.546875 5.8125 39.890625 
Q 5.8125 47.609375 11.28125 51.796875 
Q 16.75 56 26.8125 56 
Q 31.78125 56 36.171875 55.265625 
Q 40.578125 54.546875 44.28125 53.078125 
z
" id="DejaVuSans-115"/>
      <path d="M 8.015625 75.875 
L 15.828125 75.875 
Q 23.140625 64.359375 26.78125 53.3125 
Q 30.421875 42.28125 30.421875 31.390625 
Q 30.421875 20.453125 26.78125 9.375 
Q 23.140625 -1.703125 15.828125 -13.1875 
L 8.015625 -13.1875 
Q 14.5 -2 17.703125 9.0625 
Q 20.90625 20.125 20.90625 31.390625 
Q 20.90625 42.671875 17.703125 53.65625 
Q 14.5 64.65625 8.015625 75.875 
z
" id="DejaVuSans-41"/>
     </defs>
     <g transform="translate(22.396875 294.572656)rotate(-90)scale(0.2 -0.2)">
      <use xlink:href="#DejaVuSans-83"/>
      <use x="63.476562" xlink:href="#DejaVuSans-97"/>
      <use x="124.755859" xlink:href="#DejaVuSans-109"/>
      <use x="222.167969" xlink:href="#DejaVuSans-112"/>
      <use x="285.644531" xlink:href="#DejaVuSans-108"/>
      <use x="313.427734" xlink:href="#DejaVuSans-105"/>
      <use x="341.210938" xlink:href="#DejaVuSans-110"/>
      <use x="404.589844" xlink:href="#DejaVuSans-103"/>
      <use x="468.066406" xlink:href="#DejaVuSans-32"/>
      <use x="499.853516" xlink:href="#DejaVuSans-73"/>
      <use x="529.345703" xlink:href="#DejaVuSans-110"/>
      <use x="592.724609" xlink:href="#DejaVuSans-116"/>
      <use x="631.933594" xlink:href="#DejaVuSans-101"/>
      <use x="693.457031" xlink:href="#DejaVuSans-114"/>
      <use x="734.570312" xlink:href="#DejaVuSans-118"/>
      <use x="793.75" xlink:href="#DejaVuSans-97"/>
      <use x="855.029297" xlink:href="#DejaVuSans-108"/>
      <use x="882.8125" xlink:href="#DejaVuSans-32"/>
      <use x="914.599609" xlink:href="#DejaVuSans-40"/>
      <use x="953.613281" xlink:href="#DejaVuSans-109"/>
      <use x="1051.025391" xlink:href="#DejaVuSans-115"/>
      <use x="1103.125" xlink:href="#DejaVuSans-41"/>
     </g>
    </g>
   </g>
   <g id="line2d_13">
    <path clip-path="url(#p905e5ca7ca)" d="M 77.243342 404.155469 
L 77.449258 124.918594 
L 77.719084 202.534594 
L 78.258735 102.742594 
L 78.528561 224.710594 
L 78.798387 158.182594 
L 79.068213 124.918594 
L 79.338039 202.534594 
L 79.607865 158.182594 
L 79.877691 91.654594 
L 80.147517 235.798594 
L 80.417343 158.182594 
L 80.687169 113.830594 
L 80.956995 213.622594 
L 81.496647 113.830594 
L 81.766472 213.622594 
L 82.306124 113.830594 
L 82.57595 213.622594 
L 83.115602 91.654594 
L 83.385428 235.798594 
L 83.655254 158.182594 
L 83.92508 124.918594 
L 84.194906 202.534594 
L 84.464732 158.182594 
L 84.734558 136.006594 
L 85.004383 191.446594 
L 85.544035 113.830594 
L 85.813861 213.622594 
L 86.353513 113.830594 
L 86.623339 202.534594 
L 86.893165 169.270594 
L 87.162991 113.830594 
L 87.432817 213.622594 
L 87.972469 91.654594 
L 88.242294 235.798594 
L 88.51212 158.182594 
L 88.781946 124.918594 
L 89.051772 191.446594 
L 89.321598 169.270594 
L 89.591424 124.918594 
L 89.86125 202.534594 
L 90.400902 124.918594 
L 90.670728 191.446594 
L 90.940554 169.270594 
L 91.21038 113.830594 
L 91.480206 213.622594 
L 92.019857 113.830594 
L 92.289683 202.534594 
L 92.829335 124.918594 
L 93.099161 191.446594 
L 93.368987 169.270594 
L 93.638813 102.742594 
L 93.908639 224.710594 
L 94.448291 113.830594 
L 94.718117 213.622594 
L 95.257768 80.566594 
L 95.527594 246.886594 
L 96.067246 91.654594 
L 96.337072 235.798594 
L 96.606898 158.182594 
L 96.876724 136.006594 
L 97.14655 191.446594 
L 97.686202 113.830594 
L 97.956028 213.622594 
L 98.495679 113.830594 
L 98.765505 213.622594 
L 99.305157 124.918594 
L 99.574983 202.534594 
L 100.114635 102.742594 
L 100.384461 224.710594 
L 100.654287 158.182594 
L 100.924113 136.006594 
L 101.193939 191.446594 
L 101.463765 158.182594 
L 101.73359 80.566594 
L 102.003416 235.798594 
L 102.273242 169.270594 
L 102.543068 136.006594 
L 102.812894 191.446594 
L 103.08272 158.182594 
L 103.352546 80.566594 
L 103.622372 246.886594 
L 104.162024 102.742594 
L 104.43185 224.710594 
L 104.971501 80.566594 
L 105.241327 246.886594 
L 105.780979 102.742594 
L 106.050805 224.710594 
L 106.590457 113.830594 
L 106.860283 213.622594 
L 107.130109 158.182594 
L 107.399935 136.006594 
L 107.669761 191.446594 
L 107.939587 158.182594 
L 108.209412 102.742594 
L 108.479238 224.710594 
L 109.01889 91.654594 
L 109.288716 235.798594 
L 109.558542 158.182594 
L 109.828368 136.006594 
L 110.098194 180.358594 
L 110.36802 169.270594 
L 110.637846 80.566594 
L 110.907672 246.886594 
L 111.177498 158.182594 
L 111.447324 124.918594 
L 111.717149 202.534594 
L 112.256801 113.830594 
L 112.526627 213.622594 
L 113.066279 113.830594 
L 113.336105 213.622594 
L 113.875757 113.830594 
L 114.145583 213.622594 
L 114.685235 113.830594 
L 114.95506 213.622594 
L 115.224886 158.182594 
L 115.494712 136.006594 
L 115.764538 191.446594 
L 116.034364 158.182594 
L 116.30419 102.742594 
L 116.574016 224.710594 
L 116.843842 158.182594 
L 117.113668 136.006594 
L 117.383494 191.446594 
L 117.65332 158.182594 
L 117.923146 80.566594 
L 118.192971 235.798594 
L 118.732623 80.566594 
L 119.002449 235.798594 
L 119.272275 169.270594 
L 119.542101 136.006594 
L 119.811927 191.446594 
L 120.081753 158.182594 
L 120.351579 69.478594 
L 120.621405 246.886594 
L 120.891231 169.270594 
L 121.161057 136.006594 
L 121.430882 180.358594 
L 121.700708 169.270594 
L 121.970534 69.478594 
L 122.24036 257.974594 
L 122.780012 80.566594 
L 123.049838 246.886594 
L 123.319664 158.182594 
L 123.58949 113.830594 
L 123.859316 213.622594 
L 124.398968 91.654594 
L 124.668794 224.710594 
L 124.938619 169.270594 
L 125.208445 80.566594 
L 125.478271 246.886594 
L 126.017923 102.742594 
L 126.287749 224.710594 
L 126.827401 80.566594 
L 127.097227 246.886594 
L 127.367053 158.182594 
L 127.636879 113.830594 
L 127.906705 202.534594 
L 128.446356 136.006594 
L 128.716182 191.446594 
L 128.986008 158.182594 
L 129.255834 102.742594 
L 129.52566 224.710594 
L 129.795486 158.182594 
L 130.065312 136.006594 
L 130.335138 191.446594 
L 130.87479 124.918594 
L 131.144616 202.534594 
L 131.414441 158.182594 
L 131.684267 80.566594 
L 131.954093 246.886594 
L 132.223919 158.182594 
L 132.493745 147.094594 
L 132.763571 180.358594 
L 133.303223 136.006594 
L 133.573049 191.446594 
L 133.842875 158.182594 
L 134.112701 69.478594 
L 134.382527 257.974594 
L 134.922178 80.566594 
L 135.192004 246.886594 
L 135.46183 158.182594 
L 135.731656 136.006594 
L 136.001482 191.446594 
L 136.541134 113.830594 
L 136.81096 213.622594 
L 137.350612 113.830594 
L 137.620438 202.534594 
L 137.890264 169.270594 
L 138.160089 91.654594 
L 138.429915 235.798594 
L 138.699741 158.182594 
L 138.969567 124.918594 
L 139.239393 202.534594 
L 139.509219 158.182594 
L 139.779045 136.006594 
L 140.048871 180.358594 
L 140.318697 169.270594 
L 140.588523 136.006594 
L 140.858349 191.446594 
L 141.128175 158.182594 
L 141.398 91.654594 
L 141.667826 235.798594 
L 142.207478 80.566594 
L 142.477304 246.886594 
L 143.016956 80.566594 
L 143.286782 235.798594 
L 143.826434 80.566594 
L 144.09626 246.886594 
L 144.366086 158.182594 
L 144.635912 124.918594 
L 144.905737 202.534594 
L 145.175563 158.182594 
L 145.445389 169.270594 
L 145.715215 147.094594 
L 145.985041 169.270594 
L 146.254867 113.830594 
L 146.524693 213.622594 
L 147.064345 113.830594 
L 147.334171 213.622594 
L 147.873823 113.830594 
L 148.143648 202.534594 
L 148.413474 180.358594 
L 148.6833 102.742594 
L 148.953126 213.622594 
L 149.492778 113.830594 
L 149.762604 213.622594 
L 150.302256 113.830594 
L 150.572082 213.622594 
L 151.111734 113.830594 
L 151.381559 213.622594 
L 151.651385 158.182594 
L 151.921211 136.006594 
L 152.191037 180.358594 
L 152.460863 169.270594 
L 152.730689 102.742594 
L 153.000515 224.710594 
L 153.540167 102.742594 
L 153.809993 224.710594 
L 154.349645 80.566594 
L 154.619471 246.886594 
L 154.889296 158.182594 
L 155.159122 136.006594 
L 155.428948 191.446594 
L 155.9686 124.918594 
L 156.238426 191.446594 
L 156.508252 169.270594 
L 156.778078 80.566594 
L 157.047904 246.886594 
L 157.587556 91.654594 
L 157.857382 224.710594 
L 158.397033 102.742594 
L 158.666859 213.622594 
L 159.206511 113.830594 
L 159.476337 213.622594 
L 160.015989 113.830594 
L 160.285815 213.622594 
L 160.825467 124.918594 
L 161.095293 202.534594 
L 161.365118 158.182594 
L 161.634944 136.006594 
L 161.90477 191.446594 
L 162.174596 158.182594 
L 162.444422 91.654594 
L 162.714248 235.798594 
L 162.984074 158.182594 
L 163.2539 113.830594 
L 163.523726 213.622594 
L 163.793552 158.182594 
L 164.063378 136.006594 
L 164.333204 191.446594 
L 164.872855 136.006594 
L 165.142681 180.358594 
L 165.412507 169.270594 
L 165.682333 113.830594 
L 165.952159 213.622594 
L 166.491811 91.654594 
L 166.761637 235.798594 
L 167.031463 158.182594 
L 167.301289 158.182594 
L 167.571115 169.270594 
L 167.840941 158.182594 
L 168.110766 91.654594 
L 168.380592 235.798594 
L 168.650418 158.182594 
L 168.920244 113.830594 
L 169.19007 213.622594 
L 169.729722 124.918594 
L 169.999548 202.534594 
L 170.5392 113.830594 
L 170.809026 213.622594 
L 171.078852 158.182594 
L 171.348677 136.006594 
L 171.618503 180.358594 
L 171.888329 169.270594 
L 172.158155 91.654594 
L 172.427981 235.798594 
L 172.697807 158.182594 
L 172.967633 113.830594 
L 173.237459 213.622594 
L 173.777111 124.918594 
L 174.046937 202.534594 
L 174.586588 113.830594 
L 174.856414 213.622594 
L 175.396066 91.654594 
L 175.665892 224.710594 
L 176.205544 136.006594 
L 176.47537 180.358594 
L 176.745196 169.270594 
L 177.015022 124.918594 
L 177.284848 202.534594 
L 177.554674 158.182594 
L 177.8245 91.654594 
L 178.094325 235.798594 
L 178.364151 158.182594 
L 178.633977 113.830594 
L 178.903803 213.622594 
L 179.443455 124.918594 
L 179.713281 202.534594 
L 179.983107 158.182594 
L 180.252933 147.094594 
L 180.522759 169.270594 
L 180.792585 169.270594 
L 181.062411 80.566594 
L 181.332236 235.798594 
L 181.871888 80.566594 
L 182.141714 246.886594 
L 182.41154 158.182594 
L 182.681366 113.830594 
L 182.951192 213.622594 
L 183.490844 91.654594 
L 183.76067 235.798594 
L 184.030496 158.182594 
L 184.300322 113.830594 
L 184.570147 213.622594 
L 185.109799 91.654594 
L 185.379625 224.710594 
L 185.919277 136.006594 
L 186.189103 180.358594 
L 186.458929 169.270594 
L 186.728755 113.830594 
L 186.998581 213.622594 
L 187.538233 113.830594 
L 187.808059 213.622594 
L 188.34771 113.830594 
L 188.617536 213.622594 
L 189.157188 124.918594 
L 189.427014 202.534594 
L 189.966666 124.918594 
L 190.236492 191.446594 
L 190.506318 169.270594 
L 190.776144 136.006594 
L 191.04597 180.358594 
L 191.315795 169.270594 
L 191.585621 80.566594 
L 191.855447 246.886594 
L 192.125273 158.182594 
L 192.664925 158.182594 
L 192.934751 169.270594 
L 193.204577 80.566594 
L 193.474403 246.886594 
L 193.744229 158.182594 
L 194.014055 136.006594 
L 194.283881 180.358594 
L 194.553706 169.270594 
L 194.823532 124.918594 
L 195.093358 191.446594 
L 195.363184 169.270594 
L 195.63301 136.006594 
L 195.902836 180.358594 
L 196.172662 169.270594 
L 196.442488 80.566594 
L 196.712314 235.798594 
L 197.251966 124.918594 
L 197.521792 202.534594 
L 197.791618 158.182594 
L 198.061443 136.006594 
L 198.331269 180.358594 
L 198.601095 169.270594 
L 198.870921 91.654594 
L 199.140747 235.798594 
L 199.410573 158.182594 
L 199.680399 113.830594 
L 199.950225 213.622594 
L 200.489877 113.830594 
L 200.759703 202.534594 
L 201.029529 169.270594 
L 201.299354 113.830594 
L 201.56918 202.534594 
L 202.108832 136.006594 
L 202.378658 180.358594 
L 202.648484 169.270594 
L 202.91831 124.918594 
L 203.188136 191.446594 
L 203.457962 180.358594 
L 203.727788 102.742594 
L 203.997614 213.622594 
L 204.537265 113.830594 
L 204.807091 213.622594 
L 205.076917 158.182594 
L 205.346743 136.006594 
L 205.616569 191.446594 
L 205.886395 158.182594 
L 206.156221 80.566594 
L 206.426047 246.886594 
L 206.695873 158.182594 
L 206.965699 124.918594 
L 207.235525 202.534594 
L 207.775176 102.742594 
L 208.045002 224.710594 
L 208.314828 158.182594 
L 208.584654 124.918594 
L 208.85448 180.358594 
L 209.124306 180.358594 
L 209.394132 113.830594 
L 209.663958 202.534594 
L 210.20361 136.006594 
L 210.473436 180.358594 
L 210.743262 169.270594 
L 211.013088 102.742594 
L 211.282913 224.710594 
L 211.552739 158.182594 
L 211.822565 147.094594 
L 212.092391 180.358594 
L 212.362217 158.182594 
L 212.632043 91.654594 
L 212.901869 235.798594 
L 213.171695 158.182594 
L 213.441521 147.094594 
L 213.711347 169.270594 
L 213.981173 169.270594 
L 214.250999 136.006594 
L 214.520824 191.446594 
L 215.060476 113.830594 
L 215.330302 213.622594 
L 215.869954 124.918594 
L 216.13978 191.446594 
L 216.409606 169.270594 
L 216.679432 91.654594 
L 216.949258 235.798594 
L 217.219084 158.182594 
L 217.48891 124.918594 
L 217.758735 191.446594 
L 218.028561 169.270594 
L 218.298387 91.654594 
L 218.568213 224.710594 
L 219.107865 113.830594 
L 219.377691 213.622594 
L 219.917343 113.830594 
L 220.187169 202.534594 
L 220.726821 136.006594 
L 220.996647 169.270594 
L 221.266472 180.358594 
L 221.536298 136.006594 
L 221.806124 191.446594 
L 222.345776 113.830594 
L 222.615602 202.534594 
L 222.885428 169.270594 
L 223.155254 158.182594 
L 223.42508 169.270594 
L 223.694906 158.182594 
L 223.964732 91.654594 
L 224.234558 224.710594 
L 224.774209 124.918594 
L 225.044035 191.446594 
L 225.313861 169.270594 
L 225.583687 80.566594 
L 225.853513 235.798594 
L 226.393165 91.654594 
L 226.662991 235.798594 
L 227.202643 80.566594 
L 227.472469 246.886594 
L 228.01212 80.566594 
L 228.281946 235.798594 
L 228.821598 113.830594 
L 229.091424 213.622594 
L 229.631076 113.830594 
L 229.900902 213.622594 
L 230.440554 124.918594 
L 230.71038 191.446594 
L 230.980206 169.270594 
L 231.250031 80.566594 
L 231.519857 246.886594 
L 232.059509 80.566594 
L 232.329335 235.798594 
L 232.868987 80.566594 
L 233.138813 235.798594 
L 233.678465 80.566594 
L 233.948291 246.886594 
L 234.218117 158.182594 
L 234.487942 136.006594 
L 234.757768 180.358594 
L 235.027594 169.270594 
L 235.29742 113.830594 
L 235.567246 213.622594 
L 236.106898 102.742594 
L 236.376724 213.622594 
L 236.64655 169.270594 
L 236.916376 91.654594 
L 237.186202 224.710594 
L 237.725853 113.830594 
L 237.995679 202.534594 
L 238.265505 169.270594 
L 238.535331 80.566594 
L 238.805157 235.798594 
L 239.074983 169.270594 
L 239.344809 136.006594 
L 239.614635 180.358594 
L 239.884461 169.270594 
L 240.154287 80.566594 
L 240.424113 246.886594 
L 240.963765 102.742594 
L 241.23359 224.710594 
L 241.773242 80.566594 
L 242.043068 246.886594 
L 242.58272 91.654594 
L 242.852546 224.710594 
L 243.122372 169.270594 
L 243.392198 80.566594 
L 243.662024 235.798594 
L 243.93185 169.270594 
L 244.201676 136.006594 
L 244.471501 191.446594 
L 245.011153 136.006594 
L 245.280979 191.446594 
L 245.550805 158.182594 
L 245.820631 91.654594 
L 246.090457 224.710594 
L 246.630109 124.918594 
L 246.899935 191.446594 
L 247.169761 169.270594 
L 247.439587 136.006594 
L 247.709412 180.358594 
L 247.979238 169.270594 
L 248.249064 102.742594 
L 248.51889 213.622594 
L 249.058542 136.006594 
L 249.328368 191.446594 
L 249.598194 158.182594 
L 249.86802 80.566594 
L 250.137846 235.798594 
L 250.677498 102.742594 
L 250.947324 213.622594 
L 251.217149 169.270594 
L 251.486975 91.654594 
L 251.756801 235.798594 
L 252.026627 158.182594 
L 252.296453 136.006594 
L 252.566279 191.446594 
L 253.105931 136.006594 
L 253.375757 191.446594 
L 253.645583 158.182594 
L 253.915409 147.094594 
L 254.185235 169.270594 
L 254.45506 169.270594 
L 254.724886 136.006594 
L 254.994712 180.358594 
L 255.264538 169.270594 
L 255.534364 136.006594 
L 255.80419 180.358594 
L 256.074016 169.270594 
L 256.343842 113.830594 
L 256.613668 202.534594 
L 256.883494 180.358594 
L 257.15332 80.566594 
L 257.423146 224.710594 
L 257.962797 136.006594 
L 258.232623 180.358594 
L 258.502449 169.270594 
L 258.772275 80.566594 
L 259.042101 246.886594 
L 259.311927 158.182594 
L 259.581753 136.006594 
L 259.851579 180.358594 
L 260.121405 169.270594 
L 260.391231 91.654594 
L 260.661057 224.710594 
L 260.930882 169.270594 
L 261.200708 147.094594 
L 261.470534 169.270594 
L 261.74036 169.270594 
L 262.010186 136.006594 
L 262.280012 180.358594 
L 262.549838 169.270594 
L 262.819664 80.566594 
L 263.08949 235.798594 
L 263.629142 91.654594 
L 263.898968 235.798594 
L 264.438619 80.566594 
L 264.708445 246.886594 
L 264.978271 158.182594 
L 265.248097 169.270594 
L 265.517923 147.094594 
L 265.787749 169.270594 
L 266.057575 136.006594 
L 266.327401 180.358594 
L 266.597227 169.270594 
L 266.867053 136.006594 
L 267.136879 191.446594 
L 267.406705 158.182594 
L 267.67653 69.478594 
L 267.946356 257.974594 
L 268.216182 158.182594 
L 268.486008 136.006594 
L 268.755834 180.358594 
L 269.02566 169.270594 
L 269.295486 102.742594 
L 269.565312 213.622594 
L 270.104964 113.830594 
L 270.37479 202.534594 
L 270.644616 169.270594 
L 270.914441 91.654594 
L 271.184267 224.710594 
L 271.723919 136.006594 
L 271.993745 180.358594 
L 272.263571 169.270594 
L 272.533397 102.742594 
L 272.803223 224.710594 
L 273.342875 69.478594 
L 273.612701 257.974594 
L 273.882527 158.182594 
L 274.152353 136.006594 
L 274.422178 191.446594 
L 274.692004 158.182594 
L 274.96183 147.094594 
L 275.231656 169.270594 
L 275.501482 169.270594 
L 275.771308 136.006594 
L 276.041134 180.358594 
L 276.31096 169.270594 
L 276.580786 91.654594 
L 276.850612 235.798594 
L 277.390264 80.566594 
L 277.660089 246.886594 
L 277.929915 158.182594 
L 278.199741 136.006594 
L 278.469567 180.358594 
L 278.739393 169.270594 
L 279.009219 91.654594 
L 279.279045 224.710594 
L 279.548871 169.270594 
L 279.818697 80.566594 
L 280.088523 235.798594 
L 280.358349 169.270594 
L 280.628175 136.006594 
L 280.898 191.446594 
L 281.437652 113.830594 
L 281.707478 202.534594 
L 282.24713 147.094594 
L 282.516956 169.270594 
L 282.786782 169.270594 
L 283.056608 124.918594 
L 283.326434 202.534594 
L 283.59626 158.182594 
L 283.866086 91.654594 
L 284.135912 235.798594 
L 284.675563 91.654594 
L 284.945389 235.798594 
L 285.485041 91.654594 
L 285.754867 235.798594 
L 286.024693 158.182594 
L 286.294519 136.006594 
L 286.564345 191.446594 
L 287.103997 124.918594 
L 287.373823 191.446594 
L 287.643648 169.270594 
L 287.913474 113.830594 
L 288.1833 213.622594 
L 288.722952 80.566594 
L 288.992778 246.886594 
L 289.262604 158.182594 
L 289.53243 136.006594 
L 289.802256 180.358594 
L 290.072082 169.270594 
L 290.341908 136.006594 
L 290.611734 180.358594 
L 290.881559 169.270594 
L 291.151385 80.566594 
L 291.421211 235.798594 
L 291.960863 80.566594 
L 292.230689 235.798594 
L 292.770341 113.830594 
L 293.040167 213.622594 
L 293.579819 113.830594 
L 293.849645 202.534594 
L 294.389296 124.918594 
L 294.659122 191.446594 
L 294.928948 169.270594 
L 295.198774 113.830594 
L 295.4686 202.534594 
L 296.008252 124.918594 
L 296.278078 191.446594 
L 296.547904 169.270594 
L 296.81773 136.006594 
L 297.087556 191.446594 
L 297.357382 158.182594 
L 297.627207 147.094594 
L 297.897033 169.270594 
L 298.166859 169.270594 
L 298.436685 124.918594 
L 298.706511 191.446594 
L 298.976337 169.270594 
L 299.246163 124.918594 
L 299.515989 191.446594 
L 300.055641 147.094594 
L 300.325467 180.358594 
L 300.595293 158.182594 
L 300.865118 124.918594 
L 301.134944 191.446594 
L 301.40477 169.270594 
L 301.674596 136.006594 
L 301.944422 180.358594 
L 302.214248 169.270594 
L 302.484074 113.830594 
L 302.7539 213.622594 
L 303.023726 158.182594 
L 303.293552 136.006594 
L 303.563378 180.358594 
L 303.833204 169.270594 
L 304.103029 102.742594 
L 304.372855 224.710594 
L 304.642681 158.182594 
L 304.912507 147.094594 
L 305.182333 169.270594 
L 305.452159 169.270594 
L 305.721985 113.830594 
L 305.991811 202.534594 
L 306.261637 169.270594 
L 306.531463 113.830594 
L 306.801289 202.534594 
L 307.071115 169.270594 
L 307.340941 102.742594 
L 307.610766 213.622594 
L 308.150418 113.830594 
L 308.420244 202.534594 
L 308.959896 147.094594 
L 309.229722 169.270594 
L 309.499548 169.270594 
L 309.769374 113.830594 
L 310.0392 202.534594 
L 310.578852 147.094594 
L 310.848677 169.270594 
L 311.118503 169.270594 
L 311.388329 136.006594 
L 311.658155 180.358594 
L 311.927981 169.270594 
L 312.197807 102.742594 
L 312.467633 213.622594 
L 312.737459 169.270594 
L 313.007285 102.742594 
L 313.277111 213.622594 
L 313.546937 169.270594 
L 313.816763 91.654594 
L 314.086588 224.710594 
L 314.62624 113.830594 
L 314.896066 213.622594 
L 315.435718 124.918594 
L 315.705544 191.446594 
L 315.97537 158.182594 
L 316.245196 147.094594 
L 316.515022 180.358594 
L 316.784848 169.270594 
L 317.054674 136.006594 
L 317.3245 180.358594 
L 317.594325 169.270594 
L 317.864151 80.566594 
L 318.133977 235.798594 
L 318.403803 169.270594 
L 318.673629 36.214594 
L 318.943455 280.150594 
L 319.483107 69.478594 
L 319.752933 246.886594 
L 320.292585 102.742594 
L 320.562411 213.622594 
L 320.832236 169.270594 
L 320.9857 -1 
M 321.162481 -1 
L 321.352086 404.155469 
M 321.413078 404.155469 
L 321.641714 169.270594 
L 321.91154 147.094594 
L 322.181366 169.270594 
L 322.451192 158.182594 
L 322.721018 113.830594 
L 322.990844 213.622594 
L 323.530496 124.918594 
L 323.800322 191.446594 
L 324.070147 169.270594 
L 324.339973 136.006594 
L 324.609799 180.358594 
L 324.879625 169.270594 
L 325.149451 91.654594 
L 325.419277 224.710594 
L 325.958929 113.830594 
L 326.228755 202.534594 
L 326.768407 136.006594 
L 327.038233 180.358594 
L 327.308059 169.270594 
L 327.577884 124.918594 
L 327.84771 191.446594 
L 328.117536 169.270594 
L 328.387362 136.006594 
L 328.657188 169.270594 
L 328.927014 180.358594 
L 329.19684 136.006594 
L 329.466666 180.358594 
L 329.736492 169.270594 
L 330.006318 136.006594 
L 330.276144 191.446594 
L 330.54597 158.182594 
L 330.815795 91.654594 
L 331.085621 224.710594 
L 331.625273 136.006594 
L 331.895099 180.358594 
L 332.164925 169.270594 
L 332.434751 136.006594 
L 332.704577 180.358594 
L 332.974403 169.270594 
L 333.244229 124.918594 
L 333.514055 136.006594 
L 333.783881 224.710594 
L 334.053706 113.830594 
L 334.323532 202.534594 
L 334.863184 124.918594 
L 335.13301 191.446594 
L 335.402836 169.270594 
L 335.672662 102.742594 
L 335.942488 213.622594 
L 336.212314 169.270594 
L 336.48214 91.654594 
L 336.751966 224.710594 
L 337.021792 169.270594 
L 337.291618 80.566594 
L 337.561443 235.798594 
L 337.831269 169.270594 
L 338.101095 136.006594 
L 338.370921 158.182594 
L 338.640747 191.446594 
L 338.910573 102.742594 
L 339.180399 213.622594 
L 339.450225 169.270594 
L 339.720051 147.094594 
L 339.989877 180.358594 
L 340.259703 158.182594 
L 340.529529 169.270594 
L 340.799354 158.182594 
L 341.06918 158.182594 
L 341.339006 147.094594 
L 341.608832 180.358594 
L 341.878658 158.182594 
L 342.148484 169.270594 
L 342.41831 158.182594 
L 342.688136 158.182594 
L 342.957962 113.830594 
L 343.227788 213.622594 
L 343.497614 158.182594 
L 343.76744 169.270594 
L 344.037265 158.182594 
L 344.307091 158.182594 
L 344.576917 147.094594 
L 344.846743 180.358594 
L 345.116569 158.182594 
L 345.386395 169.270594 
L 345.656221 158.182594 
L 345.926047 158.182594 
L 346.195873 169.270594 
L 346.465699 147.094594 
L 346.735525 169.270594 
L 347.005351 158.182594 
L 347.275176 158.182594 
L 347.545002 169.270594 
L 347.814828 147.094594 
L 348.084654 169.270594 
L 348.35448 169.270594 
L 348.624306 147.094594 
L 348.894132 169.270594 
L 349.163958 158.182594 
L 349.433784 158.182594 
L 349.70361 169.270594 
L 350.243262 169.270594 
L 350.513088 147.094594 
L 350.782913 158.182594 
L 351.052739 158.182594 
L 351.322565 169.270594 
L 351.592391 169.270594 
L 351.862217 147.094594 
L 352.132043 169.270594 
L 352.401869 169.270594 
L 352.671695 147.094594 
L 352.941521 169.270594 
L 353.211347 169.270594 
L 353.481173 147.094594 
L 353.750999 169.270594 
L 354.29065 169.270594 
L 354.560476 147.094594 
L 354.830302 169.270594 
L 355.100128 169.270594 
L 355.369954 147.094594 
L 355.63978 158.182594 
L 355.909606 158.182594 
L 356.179432 169.270594 
L 356.449258 169.270594 
L 356.719084 147.094594 
L 356.98891 169.270594 
L 357.258735 169.270594 
L 357.528561 147.094594 
L 357.798387 169.270594 
L 358.338039 169.270594 
L 358.607865 147.094594 
L 358.877691 169.270594 
L 359.147517 158.182594 
L 359.417343 169.270594 
L 359.956995 147.094594 
L 360.226821 169.270594 
L 360.496647 169.270594 
L 360.766472 147.094594 
L 361.036298 169.270594 
L 361.306124 169.270594 
L 361.57595 147.094594 
L 361.845776 169.270594 
L 362.115602 169.270594 
L 362.385428 158.182594 
L 362.655254 158.182594 
L 362.92508 169.270594 
L 363.194906 147.094594 
L 363.464732 169.270594 
L 364.004383 169.270594 
L 364.274209 147.094594 
L 364.544035 169.270594 
L 364.813861 147.094594 
L 365.083687 169.270594 
L 365.353513 158.182594 
L 365.623339 158.182594 
L 365.893165 169.270594 
L 366.162991 158.182594 
L 366.432817 158.182594 
L 366.702643 169.270594 
L 366.972469 169.270594 
L 367.242294 147.094594 
L 367.51212 169.270594 
L 367.781946 169.270594 
L 368.051772 147.094594 
L 368.321598 169.270594 
L 368.591424 169.270594 
L 368.86125 147.094594 
L 369.131076 169.270594 
L 369.670728 169.270594 
L 369.940554 147.094594 
L 370.21038 169.270594 
L 370.480206 147.094594 
L 370.750031 169.270594 
L 371.019857 169.270594 
L 371.289683 158.182594 
L 372.099161 158.182594 
L 372.368987 169.270594 
L 372.908639 169.270594 
L 373.178465 147.094594 
L 373.448291 169.270594 
L 373.718117 147.094594 
L 373.987942 169.270594 
L 374.257768 169.270594 
L 374.527594 147.094594 
L 374.79742 169.270594 
L 375.067246 169.270594 
L 375.337072 158.182594 
L 375.606898 158.182594 
L 375.876724 169.270594 
L 376.14655 147.094594 
L 376.416376 169.270594 
L 376.686202 158.182594 
L 376.956028 158.182594 
L 377.225853 169.270594 
L 377.495679 169.270594 
L 377.765505 147.094594 
L 378.035331 169.270594 
L 378.305157 169.270594 
L 378.574983 147.094594 
L 378.844809 169.270594 
L 379.114635 169.270594 
L 379.384461 147.094594 
L 379.654287 169.270594 
L 379.924113 169.270594 
L 380.193939 147.094594 
L 380.463765 169.270594 
L 380.73359 169.270594 
L 381.003416 147.094594 
L 381.273242 169.270594 
L 381.543068 169.270594 
L 381.543068 169.270594 
" style="fill:none;stroke:#1f77b4;stroke-linecap:square;stroke-width:1.5;"/>
   </g>
  </g>
 </g>
 <defs>
  <clipPath id="p905e5ca7ca">
   <rect height="332.64" width="334.8" x="61.96125" y="14.038594"/>
  </clipPath>
 </defs>
</svg>
